<svg id="Layer_5" enable-background="new 0 0 64 64" height="512" viewBox="0 0 64 64" width="512" xmlns="http://www.w3.org/2000/svg"><path d="m20 44h-4v1c0 2.209-1.791 4-4 4-1.202 0-2.267-.541-3-1.38-.733.839-1.798 1.38-3 1.38-2.209 0-4-1.791-4-4 0-1.462.792-2.727 1.963-3.425-.592-.697-.963-1.589-.963-2.575 0-2.209 1.791-4 4-4 .951 0 1.813.346 2.5.901.687-.555 1.549-.901 2.5-.901 2.209 0 4 1.791 4 4v1h4z" fill="#f0bc5e"/><path d="m50.953 9c-2.784 0-5.457 1.321-7.148 3.533l-10.37 13.56-4.808.961c-3.261.653-5.627 3.54-5.627 6.865v3.081h-1c-1.654 0-3 1.346-3 3v4c0 1.654 1.346 3 3 3h1.685c1.126 2.361 3.53 4 6.315 4h5.075v-2h-5.075c-2.757 0-5-2.243-5-5v-3h2.006c2.202 0 3.994-1.794 3.994-4s-1.794-4-4-4h-1.911c.371-1.971 1.908-3.58 3.93-3.984l5.546-1.109 10.827-14.159c1.317-1.721 3.395-2.748 5.561-2.748h10.047v2h-9.941c-1.61 0-3.132.783-4.068 2.094l-8.991 12.586v7.32h4c6.065 0 11 4.935 11 11v3h-4.075v2h14.075v-42zm-28.953 36c-.552 0-1-.449-1-1v-4c0-.551.448-1 1-1h1v5c0 .34.033.672.08 1zm5-10c1.103 0 2 .897 2 2s-.895 2-1.994 2h-2.006v-4zm21.617-18.744c.563-.786 1.475-1.256 2.442-1.256h9.941v12h-20.057zm6.383 32.744v-3c0-7.168-5.832-13-13-13h-2v-4h21v2h-4v2h4v16z"/><path d="m47 23h8v2h-8z"/><path d="m57 23h2v2h-2z"/><path d="m42 55c-4.963 0-9-4.038-9-9s4.037-9 9-9 9 4.038 9 9-4.037 9-9 9zm0-13c-2.205 0-4 1.794-4 4s1.795 4 4 4 4-1.794 4-4-1.795-4-4-4z" fill="#f0bc5e"/><path d="m42 51c-2.757 0-5-2.243-5-5s2.243-5 5-5 5 2.243 5 5-2.243 5-5 5zm0-8c-1.654 0-3 1.346-3 3s1.346 3 3 3 3-1.346 3-3-1.346-3-3-3z"/></svg>