<svg xmlns="http://www.w3.org/2000/svg" viewBox="0 0 69.82 125.37"><defs><style>.cls-1{isolation:isolate}.cls-2{fill:#259cc6}.cls-3{fill:#f9bb8d}.cls-4{fill:#dccec5}.cls-17,.cls-18,.cls-19,.cls-24,.cls-4,.cls-8{mix-blend-mode:multiply}.cls-5{fill:#fff}.cls-6{fill:#5b2c0b}.cls-7{fill:#d99a6c}.cls-8{fill:#ead3cd}.cls-9{fill:#00748f}.cls-10{fill:#008aaa}.cls-11{fill:#00a1c9}.cls-12{fill:#61b9d9}.cls-13{fill:#d780b3}.cls-14{fill:#d995c1}.cls-15{fill:#b53e60}.cls-16{fill:#9d3456}.cls-17{fill:#f2e2db}.cls-18{fill:#ead8e2}.cls-19{fill:#c8cfd4}.cls-20{fill:#007ca4}.cls-21{fill:#0099c5}.cls-22{fill:#72bcc6}.cls-23{fill:#68a9b2}.cls-24{fill:#d1dbe1}.cls-25{fill:#f6a654}.cls-26{fill:#e8953c}</style></defs><title>Consumer</title><g class="cls-1"><g id="Layer_2" data-name="Layer 2"><g id="Capa_1" data-name="Capa 1"><path d="M17.41,125.3c11.16,0,22.32.09,33.48,0,1.69,0,3.4,0,5.11,0-.3-3.47-.58-7.19-.78-11-.77-14.55,1.11-31.49,0-32.94s-4.69-3.35-10.5-4.25a36.62,36.62,0,0,0-10.13,0A40.3,40.3,0,0,0,23.54,78.3c-5.22,1.38-7.54,3.11-9.19,4.8s1.52,20,2.64,33.48C17.23,119.48,17.35,122.43,17.41,125.3Z" class="cls-2"/><path d="M34.13,84.41S23,79.89,24.85,78.58c2.45-1.73,4.58-5.53,3.51-14-1.53-12.06,10.37-13,10.94-2.14-.29,10.68,2,14.11,4.11,15.34C44.74,78.58,34.13,84.41,34.13,84.41Z" class="cls-3"/><path d="M28.34,72.42c2.51-.06,8.16-1.1,10.18-2.93,1.86-1.69-.2-2.55.77-4.72,0-.73,0-1.49,0-2.3-.57-10.82-12.47-9.92-10.94,2.14A25.76,25.76,0,0,1,28.34,72.42Z" class="cls-4"/><path d="M41.71,75.63a41.61,41.61,0,0,1-5.23,3c-.81.39-2.35,4.6-2.35,4.6S32,79,31.33,78.76a10.34,10.34,0,0,1-4.53-3.13L23.54,78.3s4.09,4.25,7.85,5.94c.94.43,1.86,12,2.69,12,1,0,2-11.54,2.87-11.92,4.44-1.83,7.77-7.17,7.77-7.17Z" class="cls-5"/><path d="M59.76,34.19c-.89-.15-2.88,0-3.8,1.17.08-3.08,1.13-7.76,1.18-11.19C57.32,12.24,44.53,6.19,33.53,7c-11-.85-23.78,5.2-23.61,17.13C10,27.6,11,32.28,11.1,35.36c-.91-1.17-2.9-1.32-3.79-1.17-2.85.48-4.3,3.71-3.14,8.1,2.08,7.85,7.83,5.4,7.91,5.37.47,4.64,6.35,22,21.36,22.72h.18c15-.74,20.89-18.08,21.36-22.72.09,0,5.84,2.48,7.92-5.37C64.06,37.9,62.61,34.67,59.76,34.19Z" class="cls-3"/><path d="M54.29,42.77C58,41,55,34.13,60.1,34.27c.69-2.59,1.42-15.13-1.85-18.66C63,12.08,60,4.36,57.86,3.51,56.42,12,28.73-2.46,19.28.37c-2.38.72-3.57,4.1-4.08,5.69-4.29-1.56-6.1.45-7.37,5.37-.71,2.77-4.06,10.46-.52,22.76,5.62-.46,2.35,6.58,6.54,8.89-2.95-6.38,6.73-9.88.72-19.62a27,27,0,0,0,24.26,3.86,15.45,15.45,0,0,1-11.74-7.46s3.2,4.72,8.78,3.71c6.85-1.23,6.18-4.89,12.57-1.34,5.19,2.87,4.65,8.29,2,12C56.22,37.52,54.29,42.77,54.29,42.77Z" class="cls-6"/><path d="M26.79,33.09a4.77,4.77,0,0,0-2.37-.61,5.81,5.81,0,0,0-5.14,3.42s1.38-1.71,4.92-1.71a14,14,0,0,1,2.69.53C27.28,34.71,27.06,33.25,26.79,33.09Z" class="cls-6"/><path d="M38.93,33.09a4.73,4.73,0,0,1,2.37-.61,5.83,5.83,0,0,1,5.14,3.42s-1.39-1.71-4.93-1.71a14.22,14.22,0,0,0-2.69.53C38.43,34.71,38.66,33.25,38.93,33.09Z" class="cls-6"/><path d="M39.05,54s-1.1,4-6.44,4-6.43-3.68-6.43-3.68a27.36,27.36,0,0,0,6.2.68A23.52,23.52,0,0,0,39.05,54Z" class="cls-5"/><path d="M24.87,53.56a1.4,1.4,0,0,0,.6.33,8.81,8.81,0,0,0,1.77.34c.75.09,1.63.12,2.57.15s1.94,0,2.95,0a47,47,0,0,0,5.5-.37A7.66,7.66,0,0,0,40,53.59a1.39,1.39,0,0,0,.56-.39l-.1.16a1.47,1.47,0,0,1-.4.35,6.2,6.2,0,0,1-1.73.7,19.17,19.17,0,0,1-2.58.49,28.67,28.67,0,0,1-3,.2,29.47,29.47,0,0,1-3-.1,19.72,19.72,0,0,1-2.6-.38A6.68,6.68,0,0,1,25.41,54,1.92,1.92,0,0,1,25,53.7Z" class="cls-7"/><path d="M30.6,59l.15.22c0,.08.13.12.2.19a1.83,1.83,0,0,0,.29.18,3.83,3.83,0,0,0,1.83.26,4.47,4.47,0,0,0,1-.18,2.68,2.68,0,0,0,.78-.36,1.4,1.4,0,0,0,.44-.44,2.32,2.32,0,0,1,.14-.22s0,.09,0,.27a.83.83,0,0,1-.09.3,1,1,0,0,1-.21.36,2.12,2.12,0,0,1-.83.64,3.61,3.61,0,0,1-1.14.29,3.57,3.57,0,0,1-1.18-.12,2.14,2.14,0,0,1-.92-.49,1.39,1.39,0,0,1-.27-.34,1,1,0,0,1-.12-.29C30.61,59.11,30.6,59,30.6,59Z" class="cls-7"/><path d="M43.22,41.25a1.53,1.53,0,0,1-1.53,1.52h0a1.52,1.52,0,0,1-1.52-1.52V39a1.52,1.52,0,0,1,1.52-1.52h0A1.53,1.53,0,0,1,43.22,39Z" class="cls-6"/><path d="M25.62,41.25a1.52,1.52,0,0,1-1.52,1.52h0a1.52,1.52,0,0,1-1.52-1.52V39a1.52,1.52,0,0,1,1.52-1.52h0A1.52,1.52,0,0,1,25.62,39Z" class="cls-6"/><path d="M25.3,38.69a.58.58,0,0,1-.59.59.59.59,0,0,1-.6-.59.6.6,0,0,1,.6-.6A.59.59,0,0,1,25.3,38.69Z" class="cls-5"/><path d="M41.73,38.69a.6.6,0,0,1-1.2,0,.6.6,0,0,1,1.2,0Z" class="cls-5"/><path d="M24.76,39.82a.33.33,0,1,1-.65,0,.33.33,0,0,1,.65,0Z" class="cls-5"/><path d="M42.38,39.82a.33.33,0,0,1-.33.33.32.32,0,0,1-.32-.33.32.32,0,0,1,.32-.32A.32.32,0,0,1,42.38,39.82Z" class="cls-5"/><path d="M32.44,45.43a7.7,7.7,0,0,1,4.32,1.1c-.12-1.23-2-2.21-4.32-2.21s-4.19,1-4.31,2.2A7.77,7.77,0,0,1,32.44,45.43Z" class="cls-8"/><path d="M9.75,42.74a1.94,1.94,0,0,1,0,1.91,1.84,1.84,0,0,0,.78-2.41,1.84,1.84,0,0,0-2.49-.45A2,2,0,0,1,9.75,42.74Z" class="cls-8"/><path d="M58,42.74a2,2,0,0,0-.05,1.91,1.68,1.68,0,1,1,1.71-2.86A2,2,0,0,0,58,42.74Z" class="cls-8"/><path d="M60.11,36.74c3.19.62.89,6.65.89,6.65s3-7.06-.89-7.77c-2.28-.41-3.18,4.19-3.18,4.19S58.32,36.39,60.11,36.74Z" class="cls-8"/><path d="M7.33,36.74c-3.19.62-.89,6.65-.89,6.65s-3-7.06.89-7.77c2.28-.41,3.18,4.19,3.18,4.19S9.12,36.39,7.33,36.74Z" class="cls-8"/><path d="M8.06,125.26A45.08,45.08,0,0,1,9,116.81c1.3-4,7.52-14,7.52-14s3.61-23.28-.6-21.14c-2.86,1.46-8.56,13.84-12.24,23A92,92,0,0,0,.31,114c-.39,1.61-.37,6.15-.19,11.27Z" class="cls-2"/><path d="M61.37,115.73c-1.31-4-7.53-14-7.53-14s-3.6-23.28.6-21.14,14,28.29,15.06,32.73S62.68,119.79,61.37,115.73Z" class="cls-2"/><rect width="27.05" height="4.67" x="45.97" y="89.99" class="cls-9" transform="translate(-48.16 114.1) rotate(-68.64)"/><rect width="27.04" height="2.34" x="44.88" y="90.73" class="cls-10" transform="translate(-48.44 112.9) rotate(-68.69)"/><polygon points="63.52 84.69 61.98 84.09 62.24 78.88 66.59 80.58 63.52 84.69" class="cls-11"/><polygon points="55.47 99.95 57.01 100.56 56.75 105.77 52.4 104.07 55.47 99.95" class="cls-11"/><rect width="27.04" height="12.41" x="38.02" y="83.01" class="cls-12" transform="translate(-50.31 104.77) rotate(-68.67)"/><rect width="1.23" height="9.43" x="54.1" y="75.88" class="cls-5" transform="translate(-40.27 102.23) rotate(-68.66)"/><polygon points="57.7 87.24 46.13 88.26 46.47 87.39 58.03 86.37 57.7 87.24" class="cls-5"/><polygon points="55.71 92.33 44.15 93.35 44.48 92.48 56.05 91.46 55.71 92.33" class="cls-5"/><polygon points="56.42 90.5 44.86 91.52 45.2 90.65 56.76 89.63 56.42 90.5" class="cls-5"/><polygon points="57.14 88.67 45.57 89.69 45.91 88.82 57.48 87.8 57.14 88.67" class="cls-5"/><rect width="1.47" height="1.8" x="50.68" y="101.07" class="cls-5" transform="translate(-62.27 112.78) rotate(-68.67)"/><rect width="27.04" height="4.67" x="37.71" y="88.39" class="cls-9" transform="translate(-43.6 133.89) rotate(-85.03)"/><rect width="27.04" height="2.33" x="36.54" y="89.46" class="cls-10" transform="translate(-44.58 132.6) rotate(-85)"/><polygon points="52.94 82.27 51.29 82.13 50.08 77.05 54.73 77.45 52.94 82.27" class="cls-11"/><polygon points="49.52 99.18 51.17 99.32 52.38 104.4 47.73 103.99 49.52 99.18" class="cls-11"/><rect width="27.04" height="12.41" x="29.2" y="83.78" class="cls-12" transform="translate(-50.62 124.75) rotate(-85.03)"/><rect width="1.23" height="9.43" x="42.72" y="76.1" class="cls-5" transform="translate(-40.93 117) rotate(-85.04)"/><polygon points="48.07 86.36 37.26 90.59 37.34 89.66 48.15 85.43 48.07 86.36" class="cls-5"/><polygon points="47.6 91.8 36.79 96.03 36.87 95.1 47.68 90.87 47.6 91.8" class="cls-5"/><polygon points="47.77 89.84 36.96 94.08 37.04 93.15 47.85 88.91 47.77 89.84" class="cls-5"/><polygon points="47.94 87.89 37.13 92.12 37.21 91.19 48.02 86.95 47.94 87.89" class="cls-5"/><rect width="1.47" height="1.8" x="45.47" y="101.36" class="cls-5" transform="translate(-59.71 139.34) rotate(-84.98)"/><rect width="7.34" height="3.69" x="44.06" y="93.6" class="cls-13"/><path d="M49.6,74.29H46.05s-2,1.35-1.6,3a9.67,9.67,0,0,0-1,3.66V96.64h8.64V81a10.75,10.75,0,0,0-1-3.58C51.36,75.76,49.6,74.29,49.6,74.29Z" class="cls-14"/><rect width="5.47" height="11.51" x="46.19" y="81.35" class="cls-5"/><path d="M47.15,71.27c0-.42,1.32-.48,1.32,0v1H47.15Z" class="cls-15"/><path d="M46.69,72.15c0-.55,2.23-.63,2.23,0v1.3H46.69Z" class="cls-16"/><path d="M47.74,77.34c-.39-1.7,1.6-3,1.6-3H46.05s-2,1.35-1.6,3a9.67,9.67,0,0,0-1,3.66V96.64h3.28V81A9.67,9.67,0,0,1,47.74,77.34Z" class="cls-17"/><path d="M45.92,72.9c0-.39,3.78-.46,3.78,0v1.39H45.92Z" class="cls-15"/><path d="M47.05,72.61c-.63,0-1.13.15-1.13.29v1.39h2.42C47.18,74,46.57,73.2,47.05,72.61Z" class="cls-18"/><path d="M46.46,74s-.05,0-.11,0h0c-.06,0-.11,0-.11,0V72.93s0-.06.11-.06h0c.06,0,.11,0,.11.06Z" class="cls-19"/><path d="M47.13,74s-.05,0-.11,0h0c-.06,0-.11,0-.11,0V72.93s.05-.06.11-.06h0c.06,0,.11,0,.11.06Z" class="cls-19"/><path d="M47.8,74s0,0-.11,0h0c-.06,0-.11,0-.11,0V72.93s.05-.06.11-.06h0c.06,0,.11,0,.11.06Z" class="cls-19"/><path d="M48.47,74s0,0-.11,0h0c-.06,0-.11,0-.11,0V72.93s0-.06.11-.06h0c.06,0,.11,0,.11.06Z" class="cls-19"/><path d="M49.14,74s0,0-.11,0h0c-.06,0-.11,0-.11,0V72.93s0-.06.11-.06h0c.06,0,.11,0,.11.06Z" class="cls-19"/><rect width="5.53" height="3.27" x="37.09" y="95.45" class="cls-20" transform="translate(-20.9 11.51) rotate(-13.05)"/><polygon points="33.99 78.03 32.56 80.04 38.91 78.57 37.02 77.33 33.99 78.03" class="cls-20"/><rect width="6.51" height="18.9" x="34.61" y="79.06" class="cls-21" transform="translate(-19 10.83) rotate(-13.04)"/><rect width="4.66" height="8.67" x="36.2" y="82.97" class="cls-5" transform="translate(-18.68 10.93) rotate(-13.02)"/><path d="M33.2,75.53c-.16-.72,3.24-1.63,3.43-.8l.59,2.55-3.43.8S33.37,76.24,33.2,75.53Z" class="cls-22"/><path d="M34.11,74.76c-.56.22-1,.51-.91.77.17.71.59,2.55.59,2.55L36,77.57A2.67,2.67,0,0,1,34.11,74.76Z" class="cls-23"/><path d="M34.2,77.63a.1.1,0,0,1-.07.12h0a.1.1,0,0,1-.12-.08l-.44-1.91a.09.09,0,0,1,.07-.12h0a.1.1,0,0,1,.12.08Z" class="cls-19"/><path d="M34.81,77.49a.11.11,0,0,1-.07.12h0a.1.1,0,0,1-.12-.08l-.45-1.91a.1.1,0,0,1,.08-.12h0a.1.1,0,0,1,.12.07Z" class="cls-19"/><path d="M35.42,77.35a.11.11,0,0,1-.08.12h0a.11.11,0,0,1-.12-.08l-.44-1.91a.1.1,0,0,1,.08-.12h0a.09.09,0,0,1,.11.07Z" class="cls-19"/><path d="M36,77.21a.11.11,0,0,1-.08.12h0a.1.1,0,0,1-.12-.08l-.44-1.91a.1.1,0,0,1,.07-.12h0a.1.1,0,0,1,.12.07Z" class="cls-19"/><path d="M36.63,77.06a.11.11,0,0,1-.07.13h0a.1.1,0,0,1-.12-.08L36,75.2a.1.1,0,0,1,.08-.12h0a.1.1,0,0,1,.12.07Z" class="cls-19"/><rect width="3.27" height="18.9" x="34.65" y="79.43" class="cls-24" transform="translate(-19.11 10.47) rotate(-13.03)"/><rect width="3.27" height="5.53" x="37.75" y="96.93" class="cls-20" transform="translate(-65.63 121.22) rotate(-80.03)"/><polygon points="41.45 79.87 39.35 81.16 45.76 82.29 44.51 80.41 41.45 79.87" class="cls-20"/><rect width="18.9" height="6.51" x="31.46" y="87.78" class="cls-21" transform="translate(-55.85 115.51) rotate(-79.99)"/><rect width="8.67" height="4.66" x="37.66" y="87.86" class="cls-5" transform="translate(-54.11 115.89) rotate(-80)"/><path d="M41.71,77.26c.13-.73,3.61-.24,3.46.61l-.45,2.58-3.47-.62Z" class="cls-22"/><path d="M42.84,76.91c-.6,0-1.09.08-1.13.35l-.46,2.57,2.22.4A2.67,2.67,0,0,1,42.84,76.91Z" class="cls-23"/><path d="M41.8,79.58a.09.09,0,0,1-.11.08h0a.1.1,0,0,1-.08-.11L42,77.61a.1.1,0,0,1,.11-.08h0a.1.1,0,0,1,.09.12Z" class="cls-19"/><path d="M42.42,79.69a.1.1,0,0,1-.12.08h0a.1.1,0,0,1-.08-.11l.34-1.94a.1.1,0,0,1,.12-.08h0a.1.1,0,0,1,.08.12Z" class="cls-19"/><path d="M43,79.8a.1.1,0,0,1-.11.08h0a.1.1,0,0,1-.08-.12l.34-1.93a.1.1,0,0,1,.11-.08h0a.1.1,0,0,1,.08.12Z" class="cls-19"/><path d="M43.65,79.91a.11.11,0,0,1-.12.08h0a.1.1,0,0,1-.08-.12l.34-1.93a.1.1,0,0,1,.12-.08h0A.1.1,0,0,1,44,78Z" class="cls-19"/><path d="M44.26,80a.1.1,0,0,1-.12.08h0a.1.1,0,0,1-.08-.12l.34-1.93a.1.1,0,0,1,.12-.08h0a.09.09,0,0,1,.08.11Z" class="cls-19"/><rect width="18.9" height="3.27" x="29.87" y="89.12" class="cls-24" transform="translate(-56.9 113.66) rotate(-79.97)"/><path d="M50.89,125.3c3,0,6,0,9.06.07l3.16-34.51-2.29,1.36L59.19,90.5l-2.48,1.34L54.8,90.1l-2,1.38L51,89.75l-2.48,1.34-2.1-1.76-2.2,1.37-2.47-1.8-2,1.39-2.1-1.77-2.2,1.37-1.48-1.7-3.4,37.15C37.32,125.35,44.1,125.35,50.89,125.3Z" class="cls-25"/><path d="M43.84,125.33c-3.49-5-5.88-10.47-6.5-14.86a36.14,36.14,0,0,1,3.49-21l-1.12.78-2.1-1.77-2.2,1.37-1.48-1.7-3.4,37.15Q37.19,125.35,43.84,125.33Z" class="cls-26"/><path d="M36.34,100.47c.73.35.37,1.54,1.34,3.69.86,1.9,1.5,2.94,2.86,3.62s1.93,3,2.89,3.66,5.91,1.31,5.91,1.31l-.81,4-6.68-1.68s-6.7.34-9.5-.8c-.12-.73,1.36-5.84,1.36-5.84l.33-.73,1.87-.19s.58-1.88-.13-2.53C34.27,103.65,35.6,100.12,36.34,100.47Z" class="cls-3"/><path d="M31.16,112.18c-.86,0-1.5,1-.42,1.46l1.77.73,1-1.79A16.23,16.23,0,0,0,31.16,112.18Z" class="cls-3"/><path d="M30.64,110.4c-.92,0-1.18,1.63.05,1.89a23.09,23.09,0,0,1,2.93.92l.24-2.48S31.55,110.44,30.64,110.4Z" class="cls-3"/><path d="M30.84,108.72c-.91,0-1.46,1.87-.22,2.13l3.32.7.24-2.48S31.76,108.76,30.84,108.72Z" class="cls-3"/><path d="M32.18,107.55c-.91-.12-1.45,1.68-.24,2s3.43,1.15,3.43,1.15l-.1-3.1A30.46,30.46,0,0,1,32.18,107.55Z" class="cls-3"/><path d="M42.46,115.94l1.06-5.86s17.87-.39,22.12-.1c5.37.36,5.58,10.19.57,10.12C61.65,120,42.46,115.94,42.46,115.94Z" class="cls-2"/></g></g></g></svg>