<svg xmlns="http://www.w3.org/2000/svg" xmlns:xlink="http://www.w3.org/1999/xlink" viewBox="0 0 280.08 280.07"><defs><style>.cls-1{fill:url(#linear-gradient)}.cls-2{fill:url(#linear-gradient-2)}</style><linearGradient id="linear-gradient" x1="-25.26" x2="362.54" y1="305.33" y2="-82.47" gradientUnits="userSpaceOnUse"><stop offset="0" stop-color="#ed1c24"/><stop offset=".22" stop-color="#d0171d"/><stop offset=".68" stop-color="#880a0c"/><stop offset="1" stop-color="#530000"/></linearGradient><linearGradient id="linear-gradient-2" x1="339.66" x2="-143.69" y1="-19.51" y2="366.79" xlink:href="#linear-gradient"/></defs><title>Cross</title><g id="Layer_2" data-name="Layer 2"><g id="objects"><path d="M182.65,140.49,271,54a30.14,30.14,0,0,0-42.16-43.08L140.5,97.41,54,9.06A30.14,30.14,0,1,0,10.94,51.22l86.48,88.36L9.06,226.05a30.14,30.14,0,1,0,42.16,43.08l88.36-86.48L226.05,271a30.14,30.14,0,1,0,43.08-42.16Z" class="cls-1"/><path d="M180,140.47l89.69-87.78a28.27,28.27,0,0,0,.43-40,28.26,28.26,0,0,0-40-.44L140.47,100,52.69,10.36A28.28,28.28,0,0,0,4.2,29.83a28.09,28.09,0,0,0,8.06,20.09L100,139.61,10.36,227.38A28.28,28.28,0,1,0,49.92,267.8L139.61,180l87.77,89.68a28.28,28.28,0,0,0,40.43-39.56Z" class="cls-2"/></g></g></svg>