<svg xmlns="http://www.w3.org/2000/svg" viewBox="0 0 685.61 392.02"><defs><style>.cls-1{fill:#ebebeb;}.cls-2{fill:#e0e0e0;}.cls-3{fill:#f5f5f5;}.cls-4{fill:#263238;}.cls-5{fill:#455a64;}.cls-6{fill:#fafafa;}.cls-7{fill:#e8505b;}.cls-8{opacity:0.5;}.cls-9{opacity:0.4;}.cls-10{fill:#fff;}.cls-11{opacity:0.2;}.cls-12{fill:#b78876;}.cls-13{fill:#aa6550;}.cls-14{opacity:0.3;}</style></defs><title>CS illustration</title><g id="Layer_2" data-name="Layer 2"><g id="Background_Complete" data-name="Background Complete"><path class="cls-1" d="M653.68,126.35a13.53,13.53,0,0,1,3.48,10,23.87,23.87,0,0,1-3.24,10.34c-3.39,6.18-9.76,11.21-15.86,14.76-3.49-7-1.34-15.83,0-20.24,2.18-7,10.34-18.23,15.58-14.9"/><path class="cls-1" d="M640,174.79a11.57,11.57,0,0,1,7.65-8.76,15.38,15.38,0,0,1,11.84,1c1.68.85,3.35,2.12,3.75,4a5,5,0,0,1-1.83,4.67,10,10,0,0,1-4.83,2c-6,1-11.89.92-16.58-2.88"/><path class="cls-2" d="M624.85,191.78a7.9,7.9,0,0,1,.74-1.25l2.14-3.33c1.84-2.76,4.38-6.75,8.44-10A24.84,24.84,0,0,1,648,171.86a16.71,16.71,0,0,1,4-.11c.47,0,.83.12,1.07.15s.37.08.37.1a26,26,0,0,0-5.36.21,25.66,25.66,0,0,0-11.58,5.42c-4,3.15-6.55,7.06-8.46,9.77-.95,1.37-1.72,2.49-2.27,3.24A8.28,8.28,0,0,1,624.85,191.78Z"/><path class="cls-2" d="M648.23,135.48a3.65,3.65,0,0,1-.17.61c-.16.44-.35,1-.59,1.71-.52,1.48-1.3,3.62-2.28,6.25-2,5.26-4.78,12.49-8.07,20.4s-6.44,15-8.79,20.11c-1.17,2.55-2.14,4.61-2.82,6-.33.67-.6,1.2-.8,1.62a3.36,3.36,0,0,1-.31.55,3,3,0,0,1,.21-.59c.19-.43.42-1,.72-1.66.65-1.5,1.56-3.56,2.67-6.09,2.26-5.14,5.35-12.25,8.64-20.16s6.16-15.11,8.21-20.33c1-2.57,1.84-4.67,2.43-6.19.28-.69.5-1.25.68-1.68A2.5,2.5,0,0,1,648.23,135.48Z"/><path class="cls-1" d="M629,174.85a27.09,27.09,0,0,0-6.14-24c-1.46-1.62-3.61-3.17-5.66-2.43s-2.73,3.32-2.77,5.51a23.15,23.15,0,0,0,14.22,21.38"/><path class="cls-2" d="M621.17,157.38a7.47,7.47,0,0,1,1,1,12.56,12.56,0,0,1,1,1.24,18.72,18.72,0,0,1,1.24,1.73,23.07,23.07,0,0,1,1.31,2.21,26.79,26.79,0,0,1,1.28,2.68,30.49,30.49,0,0,1,1.81,6.53,29.53,29.53,0,0,1,.18,6.79,24.53,24.53,0,0,1-.45,2.92,22.11,22.11,0,0,1-.64,2.5,20.35,20.35,0,0,1-.72,2,11.93,11.93,0,0,1-.65,1.47,7.85,7.85,0,0,1-.66,1.2c-.11,0,.82-1.77,1.68-4.77a22.86,22.86,0,0,0,.57-2.48,24.28,24.28,0,0,0,.4-2.89,30.26,30.26,0,0,0-.21-6.66,31.65,31.65,0,0,0-1.75-6.44,28.66,28.66,0,0,0-1.21-2.65,24.79,24.79,0,0,0-1.25-2.22C622.42,158.88,621.09,157.45,621.17,157.38Z"/><path class="cls-1" d="M32.28,64s-9.2,3-.28,22.69S47.29,116.3,47.29,116.3s1.53,4.55-2.27,5.07-12-1.2-13.91,3.33c-2,4.7,1.29,9.37,8.14,13.65s21.52,14.22,22.84,15.13,2.54,3,0,3.8S40.83,159.11,41.87,168,64,185.63,66.24,186.64s2.79,2,2.54,3.29-6.58,1-11.89,1.55-11.39,2.06-10.37,7.12,13.22,16.17,43.88,20.64l14.34,1.14,8.39-11.77c16.41-26.28,15.82-42.76,12.62-46.81s-8.3-.42-12.13,3.3-7.75,8.7-8.88,8.07-1.57-1.67-.86-4.06,7.6-24.14,1.51-30.66-19,7.08-21.24,8.51-3.05-.9-2.89-2.46,2.07-19.21,3.23-27.2-.3-13.51-5.15-15c-4.68-1.49-8.69,5.9-11.54,8.46s-5.34-1.55-5.34-1.55S59.05,97.94,49.77,78.38,32.1,64.09,32.1,64.09"/><path class="cls-2" d="M105.32,223.79C98.57,209.4,87,183.62,76.92,161.53s-19.18-42-25.86-56.48L43.12,88,41,83.33l-.55-1.21-.18-.42s.08.13.22.4l.59,1.19,2.23,4.61c1.93,4,4.69,9.82,8.06,17,6.76,14.39,15.93,34.35,26,56.43s21.6,47.88,28.28,62.31"/><path class="cls-2" d="M42.52,127.56a4.64,4.64,0,0,1,1,.33c.62.23,1.52.6,2.62,1.06,2.21.92,5.22,2.28,8.51,3.84l8.42,4,2.56,1.2a4.61,4.61,0,0,1,.92.48,4.9,4.9,0,0,1-1-.32c-.63-.24-1.52-.6-2.62-1.08-2.2-.95-5.19-2.34-8.48-3.9l-8.45-4c-1-.48-1.87-.87-2.56-1.19A4.91,4.91,0,0,1,42.52,127.56Z"/><path class="cls-2" d="M67.57,137.63c-.12,0,2.41-6.38,5.64-14.14s6-14,6.06-14-2.41,6.37-5.65,14.13S67.68,137.67,67.57,137.63Z"/><path class="cls-2" d="M81.48,172.23a4.77,4.77,0,0,1,.63-.86l1.81-2.25c1.52-1.9,3.62-4.53,5.83-7.52s4.12-5.76,5.49-7.78l1.62-2.38a3.88,3.88,0,0,1,.64-.85,5.64,5.64,0,0,1-.49.94c-.35.59-.86,1.44-1.51,2.47-1.3,2.06-3.17,4.87-5.39,7.87s-4.36,5.6-6,7.45c-.8.93-1.45,1.67-1.92,2.16A4.83,4.83,0,0,1,81.48,172.23Z"/><path class="cls-2" d="M56.82,168.11a4,4,0,0,1,1,.06l2.65.34c2.24.3,5.32.75,8.71,1.27s6.48,1,8.7,1.41l2.62.47a4.76,4.76,0,0,1,1,.24,4,4,0,0,1-1-.06l-2.65-.34c-2.23-.3-5.32-.75-8.71-1.27s-6.47-1-8.7-1.41l-2.62-.47A4.76,4.76,0,0,1,56.82,168.11Z"/><path class="cls-2" d="M65.23,200.22a6.47,6.47,0,0,1,1.25.09l3.4.42c2.86.37,6.81.92,11.18,1.55s8.3,1.22,11.16,1.67l3.37.56a7,7,0,0,1,1.23.26,5.58,5.58,0,0,1-1.25-.09l-3.4-.42c-2.86-.37-6.82-.91-11.18-1.54s-8.3-1.22-11.16-1.68l-3.37-.55A7.16,7.16,0,0,1,65.23,200.22Z"/><path class="cls-2" d="M96.1,204.45a6.64,6.64,0,0,1,.76-1.11l2.19-2.93c1.85-2.48,4.39-5.91,7.09-9.78s5.06-7.43,6.75-10l2-3.07a9.29,9.29,0,0,1,.77-1.1,6.55,6.55,0,0,1-.62,1.19c-.43.76-1.07,1.83-1.89,3.15-1.62,2.64-3.93,6.23-6.64,10.11s-5.29,7.28-7.21,9.71c-1,1.22-1.75,2.19-2.3,2.85A7.66,7.66,0,0,1,96.1,204.45Z"/><path class="cls-3" d="M329.69,182.32c-25.62-12.89-35.26-42.3-38.26-69.56-.5-4.55-1.69-9.25-.11-13.54s6.21-7.72,10.54-6.4c3.59,1.1,5.62,4.8,8,7.76a26.86,26.86,0,0,0,12.09,8.61c3.1,1.08,6.8,1.48,9.42-.51,3.59-2.71,3.27-8.18,2.59-12.68Q332,83.43,330.14,70.85c-.68-4.5-1.36-9.1-.58-13.57s3.3-8.9,7.41-10.72,9.77-.11,11.31,4.16c.64,1.78.55,3.74.94,5.59s1.57,3.8,3.42,4.06,3.49-1.27,4.64-2.78c4-5.22,6.3-11.53,8.41-17.78s4.1-12.63,7.6-18.2S382.06,11.27,388.45,10s13.85,1.69,16.39,7.78-.22,13.09-3.5,18.82a101.78,101.78,0,0,1-18,23c-1.27,1.21-2.66,2.52-3,4.27-.54,3.15,2.73,5.72,5.84,6.27,3.52.64,7.11-.24,10.68-.33s7.6.9,9.41,4c2.51,4.33-.64,9.72-4,13.42a86.93,86.93,0,0,1-23.36,18.4c-3.14,1.69-6.47,3.26-8.81,6s-3.36,7-1.29,9.93,6.37,3.36,9.74,2.22,6.21-3.48,9.34-5.21c5.85-3.23,13.9-4,18.64.82,3.11,3.14,4.05,8,3.34,12.38s-2.86,8.38-5.22,12.12c-8.23,13.07-19.58,24.27-33.22,31.33s-26.74,10.32-41.76,7.16"/><path class="cls-2" d="M334.23,164.31A409,409,0,0,1,344,118.55l3.17-11.87c1.05-3.89,2.09-7.75,3.34-11.46a203.74,203.74,0,0,1,8.41-20.91c3-6.53,6.07-12.61,9-18.27s5.77-10.89,8.55-15.54a162.6,162.6,0,0,1,14.78-21c1.93-2.32,3.49-4.08,4.56-5.26L397,13a4.38,4.38,0,0,1,.43-.43,2.55,2.55,0,0,1-.37.49l-1.17,1.38c-1,1.22-2.54,3-4.43,5.36A172,172,0,0,0,377,40.81c-2.75,4.65-5.54,9.88-8.45,15.55s-5.94,11.76-8.91,18.28a202.12,202.12,0,0,0-8.33,20.85C350,99.18,349,103,347.94,106.91l-3.16,11.86A416.69,416.69,0,0,0,335,164.42"/><path class="cls-2" d="M350.71,95.16A10.76,10.76,0,0,1,350,93.3c-.41-1.21-1-3-1.6-5.18-1.28-4.39-2.85-10.52-4.55-17.28s-3.36-12.85-4.7-17.21c-.67-2.18-1.23-3.94-1.63-5.15a9.27,9.27,0,0,1-.54-1.92,8.59,8.59,0,0,1,.84,1.81c.5,1.18,1.15,2.91,1.89,5.08,1.5,4.33,3.24,10.42,4.95,17.19S347.81,83.35,349,88c.54,2.08,1,3.84,1.35,5.24A8.74,8.74,0,0,1,350.71,95.16Z"/><path class="cls-2" d="M407.05,76a13.66,13.66,0,0,1-2.27.61c-1.47.34-3.6.83-6.2,1.52-5.22,1.34-12.37,3.45-20.15,6.11s-14.72,5.4-19.68,7.52c-2.49,1-4.48,1.93-5.86,2.54a13,13,0,0,1-2.18.89,12.11,12.11,0,0,1,2-1.18c1.34-.71,3.3-1.69,5.76-2.8,4.92-2.26,11.85-5.09,19.65-7.77a209.36,209.36,0,0,1,20.28-5.89c2.63-.62,4.78-1,6.27-1.27A11.73,11.73,0,0,1,407.05,76Z"/><path class="cls-2" d="M334.79,163.14a3.85,3.85,0,0,1-.5-.65l-1.29-2c-1.12-1.7-2.66-4.2-4.54-7.32-3.75-6.23-8.66-15-13.95-24.74s-10.12-18.55-13.74-24.85c-1.76-3.06-3.22-5.58-4.3-7.45-.47-.81-.85-1.48-1.16-2a3.41,3.41,0,0,1-.36-.74s.2.21.5.65l1.29,2c1.12,1.7,2.67,4.2,4.54,7.31,3.76,6.23,8.67,15,14,24.75s10.11,18.55,13.73,24.85l4.3,7.45,1.17,2A2.84,2.84,0,0,1,334.79,163.14Z"/><path class="cls-2" d="M408.14,127.22s-.23.17-.71.43l-2.13,1.07-7.85,3.86c-6.63,3.26-15.74,7.87-25.79,13s-19.22,9.64-25.92,12.76c-3.35,1.57-6.07,2.8-8,3.62l-2.19.93a3,3,0,0,1-.79.27,3.36,3.36,0,0,1,.72-.43l2.13-1.07,7.85-3.86c6.63-3.26,15.73-7.87,25.79-13s19.21-9.64,25.91-12.76c3.35-1.57,6.07-2.8,8-3.62l2.2-.93A3,3,0,0,1,408.14,127.22Z"/><path class="cls-3" d="M535.44,59.32c0-16.31-17.14-26.65-34.62-18.47a19.87,19.87,0,0,0-9.19,8.81c-4.4,8.52-2.46,18.25,1.53,26.32l13.6,34.48a5.86,5.86,0,0,0,10.92,0L531,75.76C535.64,65.2,535.44,59.32,535.44,59.32ZM519,73.52c-11.75,6.83-23.65-5.8-17.21-18.26a9.69,9.69,0,0,1,3.73-4c11.75-6.83,23.66,5.8,17.21,18.26A9.69,9.69,0,0,1,519,73.52Z"/></g><g id="Floor"><path class="cls-4" d="M677.19,391.76c0,.14-150,.26-335,.26s-335-.12-335-.26,150-.26,335-.26S677.19,391.61,677.19,391.76Z"/></g><g id="Device"><path class="cls-5" d="M291.38,391.76l-132.92-.62a29,29,0,0,1-28.82-29.07l1.41-333.24A29,29,0,0,1,160.14,0L293.06.61a29,29,0,0,1,28.82,29.08l-1.41,333.24A29,29,0,0,1,291.38,391.76Z"/><path class="cls-6" d="M292.87,12.12,267.1,12a6.39,6.39,0,0,0-6.28,6.51l0,4.67a6.4,6.4,0,0,1-6.28,6.52l-50.23-.24a6.39,6.39,0,0,1-6.23-6.57l0-4.67a6.41,6.41,0,0,0-6.23-6.57l-9.07,0-22.55-.11a20.28,20.28,0,0,0-20.38,20.19L138.47,357a20.28,20.28,0,0,0,20.18,20.36l132.66.61a20.28,20.28,0,0,0,20.37-20.19l1.38-325.26A20.28,20.28,0,0,0,292.87,12.12Z"/><polygon class="cls-1" points="139.68 70.73 161.42 70.73 180.82 90.13 160.66 110.3 139.91 89.56 139.68 70.73"/><polygon class="cls-1" points="185.25 81.62 174.36 70.73 198.87 70.73 185.25 81.62"/><path class="cls-1" d="M194.78,90.51l19.09-19.08h66.7s10.21,45.6-30,74.87Z"/><polygon class="cls-1" points="186.61 96.6 166.19 117.03 222.7 173.54 243.12 152.43 186.61 96.6"/><polygon class="cls-1" points="139.44 128.6 152.23 115.32 139.68 102.77 139.44 128.6"/><polygon class="cls-1" points="159.89 123.15 140.23 142.81 140.23 170.13 180.82 211.66 215.21 179.66 159.89 123.15"/><path class="cls-1" d="M258.2,152s42.12-30.88,28.5-80.6h26.19l-.32,140.35Z"/><polygon class="cls-1" points="250.31 160.13 229.94 181.4 292.39 243.84 311.49 223.6 250.31 160.13"/><polygon class="cls-1" points="221.43 187.22 189.43 219 253.44 282.57 285.39 251.68 221.43 187.22"/><polygon class="cls-1" points="204.66 346.45 253.59 295.72 300.14 343.17 204.66 346.45"/><path class="cls-1" d="M261.22,289.18l51-50.49c0,2.24-.44,104.72-.44,104.72Z"/><polygon class="cls-1" points="217.59 260.81 246.5 289.72 189.43 348.63 163.05 316.99 217.59 260.81"/><path class="cls-1" d="M139.48,321.1c2.73-.28,72.64-65.74,72.64-65.74l-72.64-75.27Z"/><polyline class="cls-1" points="138.47 336.01 155.3 321.1 178.61 348.63 138.47 348.63 138.47 338.1"/><path class="cls-4" d="M160.25,50.91a42.56,42.56,0,0,1-5-4.35h0v-.38h0l0,0,.06-.06.12-.12.25-.23.48-.44.91-.84,1.57-1.4a6.81,6.81,0,0,1,1.54-1.19A7.35,7.35,0,0,1,159,43.31l-1.5,1.48-.89.86-.48.45-.24.23-.12.12-.07.06,0,0v0h0v-.38h0A42.4,42.4,0,0,1,160.25,50.91Z"/><path class="cls-4" d="M298.47,43.28a1.08,1.08,0,1,1-1.08-1.08A1.08,1.08,0,0,1,298.47,43.28Z"/><path class="cls-4" d="M298.16,46.24a1.09,1.09,0,1,1-1.54,0A1.1,1.1,0,0,1,298.16,46.24Z"/><path class="cls-4" d="M298.47,50.74a1.08,1.08,0,1,1-1.08-1.08A1.08,1.08,0,0,1,298.47,50.74Z"/><rect class="cls-4" x="204.83" y="47.71" width="46.78" height="3.9"/><path class="cls-7" d="M246.53,117.72c0-18.22-19.15-29.77-38.67-20.63a22.12,22.12,0,0,0-10.27,9.84c-4.92,9.51-2.75,20.38,1.71,29.4l15.19,38.51a6.55,6.55,0,0,0,12.2-.06l14.89-38.7C246.74,124.29,246.53,117.72,246.53,117.72Zm-18.34,15.86c-13.13,7.63-26.43-6.48-19.23-20.4a11,11,0,0,1,4.16-4.42c13.13-7.63,26.43,6.48,19.23,20.4A11,11,0,0,1,228.19,133.58Z"/></g><g id="Car"><rect class="cls-7" x="89.47" y="256.79" width="554.82" height="81.41"/><g class="cls-8"><rect x="89.47" y="256.79" width="554.82" height="81.41"/></g><circle class="cls-4" cx="164.02" cy="337.66" r="53.5" transform="translate(-22.3 11.77) rotate(-3.85)"/><path class="cls-4" d="M110.54,336.75c0,.05,0,.09,0,.14a53.5,53.5,0,0,0,107,1.54c0-.05,0-.09,0-.14Z"/><path class="cls-6" d="M126.47,337.12a37.56,37.56,0,1,0,38.1-37A37.56,37.56,0,0,0,126.47,337.12Z"/><path class="cls-2" d="M164.57,300.1a37.56,37.56,0,0,0-38.1,37l75.11,1.08A37.56,37.56,0,0,0,164.57,300.1Z"/><path class="cls-4" d="M141.15,337.33a22.88,22.88,0,1,0,23.2-22.55A22.88,22.88,0,0,0,141.15,337.33Z"/><circle class="cls-4" cx="573.12" cy="337.66" r="53.5" transform="translate(-18.57 33.71) rotate(-3.32)"/><path class="cls-4" d="M519.64,336.75c0,.05,0,.09,0,.14a53.5,53.5,0,0,0,107,1.54c0-.05,0-.09,0-.14Z"/><path class="cls-6" d="M535.57,337.12a37.56,37.56,0,1,0,38.1-37A37.56,37.56,0,0,0,535.57,337.12Z"/><path class="cls-2" d="M573.67,300.1a37.56,37.56,0,0,0-38.1,37l75.11,1.08A37.56,37.56,0,0,0,573.67,300.1Z"/><path class="cls-4" d="M550.25,337.33a22.88,22.88,0,1,0,23.2-22.55A22.89,22.89,0,0,0,550.25,337.33Z"/><path class="cls-7" d="M234.15,211s-78.78,5.81-108,12.36C105.59,228,65.91,235.93,66.39,260.9l3.15,17.89s-14.73,6.73-14.73,23.88-3.59,43.77,30.77,44.83c5.66.18,16.42,0,16.42,0s-6.6-73.17,60.63-75.31c68.38-2.18,63.84,74.64,63.84,74.64H511.9S500.18,272,573.8,271.88s62.42,75.44,62.42,75.44,27.08,2.34,39.69-20.42,9.32-39,9.32-39l-.42-14.39a9.32,9.32,0,0,0-8.95-9h0s4.92-36.23-2.63-42.5-48.92-44.09-48.92-44.09l2-1.24a4.64,4.64,0,0,0-1-8.32c-15.71-5.4-46.77-16.08-54.07-18.64a13.56,13.56,0,0,0-3.39-.71c-4.36-.34-16.7-1.12-39.34-1.36-27.6-.29-137.14,0-137.14,0s-37.7,3.1-58.7,12.35C310.6,169.73,234.15,211,234.15,211Z"/><g class="cls-9"><path d="M74.79,300.69c-2.86-.58-7.24-.64-9.42,1.3-1.62,1.44-2,3.76-2.29,5.91a25.16,25.16,0,0,0,.2,8.87,10.77,10.77,0,0,0,5,7.07c2.61,1.42,6.19,1.19,8.22-1,1.86-2,2.07-5,2-7.68-.07-3.86.24-7.13-.47-10.92a5.36,5.36,0,0,0-1-2.2,3,3,0,0,0-2.28-1.37"/></g><path class="cls-6" d="M69.54,278.79c8.36,0,16.47-.46,24.82-1A3,3,0,0,0,97.77,274c0-4.48-.18-9.57-3.58-12.49-2.08-1.79-4.93-2.34-7.65-2.6a49.56,49.56,0,0,0-20.15,2Z"/><path class="cls-10" d="M243.2,344.54s0-.24-.07-.71-.08-1.19-.14-2.1c-.1-1.86-.25-4.58-.44-8.07s-.43-7.79-.93-12.75a100.8,100.8,0,0,0-3-16.63,75.81,75.81,0,0,0-8-18.76,59,59,0,0,0-15.56-17.36c-13.5-9.59-31.73-15-50.8-15.25s-37.28,5.81-50.43,15.88a74,74,0,0,0-16.38,16.7,79.05,79.05,0,0,0-9.58,18,73,73,0,0,0-4.05,16.37,68.71,68.71,0,0,0-.49,12.74,63.25,63.25,0,0,0,1,8c.16.9.29,1.59.37,2.07s.11.71.11.71-.06-.24-.16-.7-.24-1.17-.42-2.06a58.16,58.16,0,0,1-1.08-8,67.51,67.51,0,0,1,.4-12.79,73.57,73.57,0,0,1,4-16.46,79.36,79.36,0,0,1,9.58-18.15,74,74,0,0,1,16.44-16.84c13.22-10.15,31.5-16.25,50.73-16s37.47,5.69,51.07,15.39A59.14,59.14,0,0,1,231,285.3a75.88,75.88,0,0,1,8,18.88,100.32,100.32,0,0,1,2.88,16.7c.48,5,.68,9.26.84,12.77s.27,6.21.35,8.07c0,.92.06,1.61.08,2.1S243.2,344.54,243.2,344.54Z"/><path class="cls-4" d="M246.23,345.79s0-.21,0-.6l-.06-1.78c0-1.57-.12-3.89-.22-6.91-.17-6.06-.42-14.94-.74-26.22s-.69-25-1.12-40.7q-.15-5.9-.33-12.16a41.24,41.24,0,0,1,.28-6.35c.15-1.06.3-2.14.45-3.22s.44-2.14.67-3.22a67.13,67.13,0,0,1,11.77-25l0,0,0,0,49.43-31.14,13.34-8.41a105.44,105.44,0,0,1,14.13-7.88A143.94,143.94,0,0,1,349.2,166c2.62-.92,5.31-1.68,8-2.48s5.43-1.46,8.21-2a186.4,186.4,0,0,1,31.86-4,298.78,298.78,0,0,1,30.84.11h.29l-.06.29c-4.74,21.17-9.2,41.12-13.29,59.42v0l0,0a64.9,64.9,0,0,0-5.95,12.76,34.7,34.7,0,0,0-2,13.21c.34,4.39.46,8.68.57,12.85s.16,8.22.24,12.14c.23,15.7.29,29.4.33,40.68s0,20.14,0,26.2c0,3,0,5.34,0,6.91,0,.78,0,1.37,0,1.77s0,.6,0,.6,0-.2,0-.6,0-1,0-1.77c0-1.57,0-3.89,0-6.91,0-6.06-.09-14.92-.15-26.2s-.18-25-.44-40.67q-.14-5.88-.26-12.14c-.12-4.17-.25-8.45-.6-12.83a35.25,35.25,0,0,1,2-13.38,64.74,64.74,0,0,1,6-12.86l0,.07c4.07-18.3,8.52-38.26,13.23-59.43l.23.31a300.51,300.51,0,0,0-30.78-.09,187.2,187.2,0,0,0-31.77,4c-2.76.56-5.47,1.33-8.18,2s-5.36,1.55-8,2.47a144.91,144.91,0,0,0-15.29,6.1A104.94,104.94,0,0,0,320,180.48l-13.36,8.4L257.19,220l.05,0A63.76,63.76,0,0,0,250,232a64.58,64.58,0,0,0-4.44,12.72c-2.25,8.57-1.11,17-1.1,24.86.39,15.7.73,29.4,1,40.69s.48,20.16.62,26.23c.07,3,.12,5.34.15,6.91q0,1.17,0,1.77Z"/><path class="cls-4" d="M427.77,159.32l.47,0,1.37,0,5.31-.13,19.69-.39L521,157.59h.13l.08.09,9.3,11.39,26.56,32.57,3,3.71A20.43,20.43,0,0,1,564.55,218a20.64,20.64,0,0,1-1.61,8.17l-3,7c-3.87,9-7,16.2-9.18,21.24-1.09,2.48-1.94,4.42-2.52,5.76l-.67,1.49c-.15.34-.24.5-.24.5s.06-.18.19-.52.36-.86.62-1.51c.57-1.35,1.38-3.3,2.43-5.8,2.14-5,5.22-12.33,9-21.3,1.72-4.53,4.75-9.28,4.54-15.08a20.42,20.42,0,0,0-2-8.51,20.92,20.92,0,0,0-2.44-3.89l-3-3.7c-8.18-10-17.16-21-26.59-32.54L520.8,158l.2.09-66.38,1-19.7.24-5.31,0h-1.84Z"/><path class="cls-4" d="M394.26,247.59s.28,0,.79-.12a5.55,5.55,0,0,0,2.11-.83,5.42,5.42,0,0,0,2.13-2.79,6,6,0,0,0,.28-2.2,5.51,5.51,0,0,0-.62-2.38,5.32,5.32,0,0,0-4.61-2.8l-6.74,0-15.45,0a5.23,5.23,0,0,0-5.19,4.64,5.8,5.8,0,0,0,.64,3.53,5.27,5.27,0,0,0,2.55,2.28,8.13,8.13,0,0,0,3.33.4h3.27l5.88,0,8.51.08,2.31,0a5.13,5.13,0,0,1,.81.05,3.93,3.93,0,0,1-.81,0l-2.31.05-8.51.08-5.88,0h-3.27c-.57,0-1.12,0-1.73,0a5.71,5.71,0,0,1-4.59-2.88,6.4,6.4,0,0,1-.71-3.83,5.75,5.75,0,0,1,5.7-5.11l15.45,0,6.75,0a5.68,5.68,0,0,1,4.92,3.06,5.81,5.81,0,0,1,.63,2.55,6.38,6.38,0,0,1-.33,2.3,5.54,5.54,0,0,1-2.3,2.86,5.45,5.45,0,0,1-2.2.77A3.12,3.12,0,0,1,394.26,247.59Z"/><path class="cls-4" d="M542.19,247.59s.28,0,.79-.12a5.55,5.55,0,0,0,2.11-.83,5.42,5.42,0,0,0,2.13-2.79,6,6,0,0,0,.28-2.2,5.51,5.51,0,0,0-.62-2.38,5.32,5.32,0,0,0-4.61-2.8l-6.74,0-15.45,0a5.23,5.23,0,0,0-5.19,4.64,5.8,5.8,0,0,0,.64,3.53,5.27,5.27,0,0,0,2.55,2.28,8.13,8.13,0,0,0,3.33.4h3.27l5.88,0,8.51.08,2.31,0a5.13,5.13,0,0,1,.81.05,3.93,3.93,0,0,1-.81,0l-2.31.05-8.51.08-5.88,0h-3.27c-.57,0-1.12,0-1.73,0a5.71,5.71,0,0,1-4.59-2.88,6.4,6.4,0,0,1-.71-3.83,5.75,5.75,0,0,1,5.7-5.11l15.45,0,6.75,0a5.68,5.68,0,0,1,4.92,3.06,5.81,5.81,0,0,1,.63,2.55,6.38,6.38,0,0,1-.33,2.3,5.54,5.54,0,0,1-2.3,2.86,5.45,5.45,0,0,1-2.2.77A3.12,3.12,0,0,1,542.19,247.59Z"/><path class="cls-6" d="M671.91,223.45h-29.6a10.91,10.91,0,0,0-9.66,5.84h0a10.94,10.94,0,0,0-.33,9.49l11.61,26.36,29.63-.29S679.87,231.43,671.91,223.45Z"/><path class="cls-4" d="M260.82,219.72l152.73-2.81,99.4-1.83,32.78-18.92a5.1,5.1,0,0,0,1.51-7.49l-20.41-26.81a11.33,11.33,0,0,0-8.94-4.47l-111.18-.91s-41.86-2.43-74.84,16C297.15,192,260.82,219.72,260.82,219.72Z"/><path class="cls-5" d="M330.82,159.25s7.65,3.49,2.67,6.73-82.36,52-82.36,52L233.34,210C264.85,192.39,296.67,175.34,330.82,159.25Z"/><path class="cls-4" d="M253.63,219.22s-.16.05-.48.12l-1.41.3-5.43,1.13c-4.72.94-11.56,2.25-20,3.71-17,2.92-40.52,6.32-66.69,8.59-6.55.57-12.94,1-19.12,1.44s-12.14.78-17.8,1.3c-11.33,1-21.47,2.63-29.71,5.09a83.94,83.94,0,0,0-18.73,7.81c-2.13,1.12-3.64,2.22-4.72,2.88l-1.22.78-.42.25a4.3,4.3,0,0,1,.39-.3l1.19-.81a55.28,55.28,0,0,1,4.68-3,82,82,0,0,1,18.73-8c8.25-2.5,18.43-4.19,29.76-5.21,5.67-.53,11.64-.92,17.81-1.33s12.57-.88,19.11-1.45c26.16-2.26,49.71-5.61,66.68-8.43,8.49-1.41,15.33-2.67,20.07-3.55l5.44-1,1.42-.26C253.46,219.23,253.63,219.22,253.63,219.22Z"/><path class="cls-4" d="M683.74,287.61c0,.14-10.18.26-22.73.26s-22.74-.12-22.74-.26,10.18-.26,22.74-.26S683.74,287.47,683.74,287.61Z"/><path class="cls-4" d="M497.51,313.59c0,.14-57.46.26-128.33.26s-128.34-.12-128.34-.26,57.45-.26,128.34-.26S497.51,313.44,497.51,313.59Z"/><path class="cls-4" d="M95.17,288.47c0,.14-8.13.26-18.15.26s-18.14-.12-18.14-.26,8.12-.26,18.14-.26S95.17,288.33,95.17,288.47Z"/><path class="cls-5" d="M623.49,176.88s-6.82,7.64-4.14,13.24,30.39,25.21,30.39,25.21l20.11,3.78Z"/><polygon class="cls-5" points="432.29 163.22 427.77 212.05 508.69 209.74 541.3 190.79 520.19 163.22 432.29 163.22"/><path class="cls-5" d="M280,214.55s48.82-35.26,68.08-42.26c18.59-6.77,28.28-8.46,45.74-9,16.69-.47,26.86,0,26.86,0L407.76,213Z"/><path class="cls-7" d="M272.84,214.71h0a8.55,8.55,0,0,1,4.36-7.45l11.22-6.3a21.31,21.31,0,0,1,10.47-2.74h0a21.39,21.39,0,0,1,6.66,1.06,12.15,12.15,0,0,1,8.17,11.16h0a12.35,12.35,0,0,1-12.35,12.83h-20A8.55,8.55,0,0,1,272.84,214.71Z"/><path class="cls-4" d="M272.84,214.71s0,.38.13,1.09a8.55,8.55,0,0,0,1,2.93,8.79,8.79,0,0,0,3.44,3.38,8.46,8.46,0,0,0,2.88.91c1.06.12,2.24,0,3.45.06l17.11-.05a13,13,0,0,0,4.76-.78,12.22,12.22,0,0,0,7.09-7,12.44,12.44,0,0,0,.74-5.29,12.09,12.09,0,0,0-5.05-9,12.86,12.86,0,0,0-4.63-1.95,20.7,20.7,0,0,0-4.84-.57,21,21,0,0,0-8.78,1.88c-1.29.57-2.47,1.3-3.64,1.93l-3.34,1.86-5.75,3.19A8.43,8.43,0,0,0,274,210.7a8.68,8.68,0,0,0-1,2.93c-.1.71-.09,1.08-.12,1.08a5.28,5.28,0,0,1,0-1.09,8.16,8.16,0,0,1,.92-3,8.66,8.66,0,0,1,3.47-3.55l5.71-3.25,3.32-1.89c1.16-.64,2.34-1.38,3.66-2a21.49,21.49,0,0,1,9-2,21.14,21.14,0,0,1,5,.57,13.52,13.52,0,0,1,4.82,2,12.66,12.66,0,0,1,5.27,9.33,12.87,12.87,0,0,1-.78,5.52,12.64,12.64,0,0,1-7.4,7.3,13.21,13.21,0,0,1-4.93.8l-17.11-.06a33.09,33.09,0,0,1-3.49-.1,8.65,8.65,0,0,1-3-1,9,9,0,0,1-3.48-3.55,8.36,8.36,0,0,1-.91-3A6.54,6.54,0,0,1,272.84,214.71Z"/><path class="cls-10" d="M649,345s0-.24,0-.7.07-1.15.13-2,.16-2,.22-3.3.1-2.81.16-4.51,0-3.58,0-5.65-.15-4.31-.43-6.7A86.67,86.67,0,0,0,646.15,306a71.38,71.38,0,0,0-3.18-8.95,59.62,59.62,0,0,0-4.83-9.09,61.94,61.94,0,0,0-15.64-16.32,73.94,73.94,0,0,0-22.42-11.05c-8.34-2.56-17.42-3.49-26.66-3.55a87.26,87.26,0,0,0-26.6,3.87A74,74,0,0,0,535,265.82a67.87,67.87,0,0,0-10.28,6.71,85.85,85.85,0,0,0-15.84,16.24,64.64,64.64,0,0,0-5.26,8.84A86.83,86.83,0,0,0,500,306.4a104.56,104.56,0,0,0-5.77,28.06c-.16,3.39-.15,6-.06,7.81.05.88.09,1.56.12,2s0,.7,0,.7,0-.24-.08-.69-.09-1.15-.17-2a77.32,77.32,0,0,1,0-7.83,103,103,0,0,1,5.63-28.17,87.4,87.4,0,0,1,3.63-8.84,62.92,62.92,0,0,1,5.27-8.92,86.12,86.12,0,0,1,15.89-16.37,69.19,69.19,0,0,1,10.35-6.78,74.86,74.86,0,0,1,11.91-4.93,87.74,87.74,0,0,1,26.76-3.9c9.28.06,18.4,1,26.81,3.58a74.13,74.13,0,0,1,22.56,11.16,67.83,67.83,0,0,1,8.84,7.75,54,54,0,0,1,6.87,8.72,59,59,0,0,1,4.83,9.16,72.13,72.13,0,0,1,3.18,9,86.22,86.22,0,0,1,2.82,16.16c.27,2.41.27,4.66.39,6.73s0,4,0,5.66-.14,3.2-.2,4.51-.2,2.41-.27,3.3-.15,1.55-.19,2S649,345,649,345Z"/><path class="cls-10" d="M405.62,219.72s-.07,0-.23,0l-.68,0-2.6.05-9.6.18c-8.09.15-19.28.45-31.64.78s-23.55.58-31.65.64c-4.05,0-7.33,0-9.6,0l-2.6,0-.68,0c-.16,0-.23,0-.23,0s.07,0,.23,0l.68,0,2.6-.06,9.59-.17c8.1-.15,19.29-.45,31.65-.79s23.55-.57,31.65-.63c4.05,0,7.33,0,9.6,0l2.6,0,.68,0C405.55,219.7,405.62,219.71,405.62,219.72Z"/><path class="cls-10" d="M392.36,234.76a74.92,74.92,0,0,1-8.76.26,74.92,74.92,0,0,1-8.76-.26,72.38,72.38,0,0,1,8.76-.26A72.38,72.38,0,0,1,392.36,234.76Z"/><path class="cls-10" d="M395.58,181.24c.05.14-10.82,4.67-24.29,10.12s-24.43,9.76-24.49,9.63,10.82-4.66,24.3-10.12S395.53,181.11,395.58,181.24Z"/><path class="cls-10" d="M373.54,184.66c.06.13-10.3,4.69-23.12,10.19s-23.28,9.84-23.34,9.71,10.3-4.7,23.13-10.19S373.49,184.53,373.54,184.66Z"/><path class="cls-10" d="M513.3,179.35c.06.14-10.82,4.66-24.29,10.12s-24.43,9.76-24.48,9.63,10.82-4.66,24.29-10.12S513.25,179.22,513.3,179.35Z"/><path class="cls-10" d="M491.27,182.77c.05.13-10.3,4.69-23.13,10.19s-23.28,9.84-23.34,9.71,10.3-4.7,23.13-10.19S491.21,182.64,491.27,182.77Z"/><path class="cls-10" d="M515.43,219.71c0,.15-21.63.39-48.31.55s-48.31.17-48.31,0,21.62-.39,48.31-.55S515.43,219.57,515.43,219.71Z"/><path class="cls-10" d="M539.38,233.92c0,.15-6.06.32-13.55.39s-13.55,0-13.55-.14,6.06-.31,13.55-.38S539.38,233.78,539.38,233.92Z"/><path class="cls-10" d="M125.23,226.53a2.2,2.2,0,0,1-.59.11l-1.69.22c-.74.09-1.64.2-2.68.37s-2.23.32-3.53.58c-2.61.45-5.69,1.14-9.08,2s-7,2.11-10.81,3.57a113.92,113.92,0,0,0-10.36,4.74c-3.1,1.64-5.83,3.23-8,4.67-1.13.69-2.11,1.39-3,2s-1.62,1.11-2.22,1.55l-1.39,1a2.06,2.06,0,0,1-.51.31,2.75,2.75,0,0,1,.45-.4l1.33-1.06c.58-.47,1.3-1,2.17-1.63s1.83-1.33,2.95-2c2.2-1.48,4.92-3.12,8-4.79a98.55,98.55,0,0,1,21.28-8.34c3.4-.88,6.51-1.53,9.14-1.94,1.31-.24,2.5-.37,3.55-.51s2-.22,2.7-.28l1.7-.12A2.11,2.11,0,0,1,125.23,226.53Z"/><path class="cls-10" d="M303.8,202.94a12.81,12.81,0,0,0-1-.93,6.57,6.57,0,0,0-3.3-1.34,14.41,14.41,0,0,0-5.33.58,40.1,40.1,0,0,0-6.3,2.14,41.05,41.05,0,0,0-10.24,6.37c-2.38,2-3.64,3.47-3.71,3.4a6.19,6.19,0,0,1,.84-1.07,34.09,34.09,0,0,1,2.63-2.61,38.12,38.12,0,0,1,10.27-6.57,39.22,39.22,0,0,1,6.39-2.13,14.17,14.17,0,0,1,5.5-.47,6.5,6.5,0,0,1,3.38,1.54,4.32,4.32,0,0,1,.67.77C303.77,202.82,303.82,202.93,303.8,202.94Z"/><path class="cls-4" d="M625.76,176.53a16.36,16.36,0,0,1-4.26.43,25.38,25.38,0,0,1-5-.62,43.7,43.7,0,0,1-6.36-2c-2.31-.87-4.78-2-7.44-3.11l-4.15-1.68c-1.43-.57-2.93-1.06-4.46-1.61a171.76,171.76,0,0,0-20.38-5.56,234.33,234.33,0,0,0-38.09-4.74c-2.46-.13-4.68-.14-6.63-.19h-5l-3.16.07H520l-.28,0a1.33,1.33,0,0,1,.28,0l.82,0,3.17-.17,5-.09c2,0,4.18,0,6.64.11a222.69,222.69,0,0,1,38.19,4.6,171.06,171.06,0,0,1,20.43,5.61c1.53.57,3,1.07,4.47,1.65l4.15,1.7c2.66,1.16,5.11,2.28,7.4,3.17a47,47,0,0,0,6.29,2,27.34,27.34,0,0,0,4.94.7,20.94,20.94,0,0,0,3.15-.12l.82-.1A.86.86,0,0,1,625.76,176.53Z"/></g><g id="Character"><path class="cls-7" d="M144.63,177.9c-4-21.88-6.68-25.24-8.95-32.77s-5.85-12.42-10.32-14.14c-3-1.16-18.06-6.59-23.31-4.79a65.32,65.32,0,0,0-14.53,7.3,19.45,19.45,0,0,0-7.58,9.69l-8,22.57L86,179.81l7.06-15,7.66,17.95-1.13,18.15,43.94,11.82C147.5,206.34,146.9,190.32,144.63,177.9Z"/><g class="cls-11"><path d="M133.19,154c-1.94,11.39-2.25,13-4.19,24.35-.67,3.91-2.61,10-5.4,12.83-2.06,2.09-4.08,4.11-6.94,4.79-2.67.63-6.71.7-9.22-.41s-4.64-6-3.61-8.5c3.73.79,4.88,2,8.09,0,2.81-1.78,6.78-5.72,8.3-8.67,6.42-12.41,8.18-12.85,13-24.39"/></g><path class="cls-4" d="M101.39,176.1a28.7,28.7,0,0,1-1.94-3l-4.52-7.39c-1.78-2.79-3.38-5.32-4.64-7.31a27.31,27.31,0,0,1-1.87-3.07,3.14,3.14,0,0,1,.63.74c.38.49.91,1.22,1.54,2.13,1.28,1.81,3,4.36,4.78,7.24s3.33,5.53,4.4,7.47c.54,1,1,1.77,1.24,2.32S101.43,176.08,101.39,176.1Z"/><path class="cls-4" d="M132.05,196.53a4.34,4.34,0,0,1-1,.39,10.57,10.57,0,0,1-1.25.35c-.49.11-1.05.26-1.68.35a27.77,27.77,0,0,1-4.44.4,28.65,28.65,0,0,1-10.72-2,27.52,27.52,0,0,1-4-1.95,16.59,16.59,0,0,1-1.44-.92,11.72,11.72,0,0,1-1-.76c-.55-.45-.85-.7-.82-.73s1.29.89,3.49,2.09a31.55,31.55,0,0,0,4,1.82,33.64,33.64,0,0,0,5.19,1.42,32.41,32.41,0,0,0,5.36.5,31.25,31.25,0,0,0,4.39-.28C130.52,196.91,132,196.44,132.05,196.53Z"/><path class="cls-12" d="M114.42,162.44c-.07.4-4.8,9.8-4.8,9.8L87.34,160.5l-2.27-9.6a6,6,0,0,0-7.22-4.43l-6.57,2.69a1.76,1.76,0,0,0-1.08,1.27c-.09.49,0,1,.87.89,1.63-.12,5-.49,5-.49l-1.55,5.47a5.81,5.81,0,0,0,.44,4.29l1,1.9L78.15,166l0,0s21.65,22.24,33.81,23.69c7.31.87,15.59-19.62,15.59-19.62Z"/><path class="cls-13" d="M75.91,151.2s.17-.23.54-.48a3,3,0,0,1,1.69-.52,1.78,1.78,0,0,1,1.49,1c.21.45.07.76,0,.74s0-.29-.24-.63a1.7,1.7,0,0,0-1.31-.74,3.27,3.27,0,0,0-1.55.39C76.18,151.11,75.94,151.24,75.91,151.2Z"/><path class="cls-13" d="M78.72,154.61s-.15-.18-.36-.44a2.53,2.53,0,0,0-1-.77,2.63,2.63,0,0,0-1.28-.15c-.34.05-.54.13-.57.08s.16-.19.52-.3a2.29,2.29,0,0,1,1.45.06,2.2,2.2,0,0,1,1.1.95C78.74,154.37,78.76,154.6,78.72,154.61Z"/><path class="cls-7" d="M119,132.77l-6,28.59L129,171l6.14-17.57S132.6,132.07,119,132.77Z"/><path class="cls-1" d="M127.66,133.28a1.89,1.89,0,0,1-.4.25l-1.22.64c-1.06.55-2.61,1.3-4.57,2.17a66.93,66.93,0,0,1-15.89,5A39.64,39.64,0,0,1,89,140.79a28.37,28.37,0,0,1-4.77-1.71c-.55-.24-1-.48-1.23-.62s-.41-.24-.4-.26a17.32,17.32,0,0,1,1.71.69,32.22,32.22,0,0,0,4.78,1.54,41.22,41.22,0,0,0,16.44.41A72.8,72.8,0,0,0,121.33,136c2-.82,3.53-1.52,4.62-2A11.6,11.6,0,0,1,127.66,133.28Z"/><path class="cls-1" d="M131.87,136.43s-.14.13-.44.33-.8.51-1.33.85a24.35,24.35,0,0,1-2.16,1.25c-.86.46-1.82,1-2.94,1.5l-1.75.81c-.61.27-1.27.5-1.94.77-1.33.56-2.8,1-4.35,1.51a60.21,60.21,0,0,1-20.85,2.47c-1.62-.13-3.16-.22-4.58-.46-.72-.1-1.41-.17-2.07-.3l-1.88-.37c-1.21-.21-2.28-.53-3.22-.77A24.67,24.67,0,0,1,82,143.3l-1.49-.51a1.86,1.86,0,0,1-.5-.22,3.57,3.57,0,0,1,.54.12l1.51.42c.65.2,1.46.42,2.4.63s2,.5,3.22.69l1.88.34c.65.11,1.34.17,2,.27,1.42.21,3,.28,4.55.4a62.81,62.81,0,0,0,20.7-2.45c1.53-.49,3-.92,4.33-1.45.67-.26,1.32-.48,1.93-.75l1.75-.76c1.13-.46,2.1-1,3-1.42s1.6-.83,2.19-1.18l1.37-.76A2.8,2.8,0,0,1,131.87,136.43Z"/><path class="cls-4" d="M129,171a7.73,7.73,0,0,1-1.3-.66l-3.52-2-12-6.93-.15-.09,0-.17c.43-2.14.89-4.43,1.37-6.8.73-3.55,1.42-6.94,2-10,.33-1.54.6-3,.9-4.38a15.64,15.64,0,0,1,1.29-3.72,7.44,7.44,0,0,1,4.13-3.78,5,5,0,0,1,1.53-.26,1.76,1.76,0,0,1,.53.06,6.6,6.6,0,0,0-5.87,4.15,16.2,16.2,0,0,0-1.19,3.64c-.26,1.38-.55,2.84-.85,4.38-.62,3.09-1.3,6.48-2,10-.48,2.36-1,4.65-1.38,6.79l-.12-.27c4.76,2.84,8.9,5.3,11.93,7.09l3.45,2.11A9.85,9.85,0,0,1,129,171Z"/><path class="cls-4" d="M133.9,152.56a11.58,11.58,0,0,1-.08,2.66,41.31,41.31,0,0,1-3.27,12.42,11.2,11.2,0,0,1-1.24,2.35,16.15,16.15,0,0,1,.9-2.49,59.92,59.92,0,0,0,3.24-12.32A17.14,17.14,0,0,1,133.9,152.56Z"/><path class="cls-5" d="M47.14,311.58,47,326.85s-15.57,4.94-15.88,7.76L60.67,336l1.25-23.78Z"/><path class="cls-2" d="M56.17,326a1.21,1.21,0,0,1,.77,1.42,1.16,1.16,0,0,1-1.4.77,1.25,1.25,0,0,1-.8-1.5,1.21,1.21,0,0,1,1.54-.65"/><path class="cls-2" d="M60.67,336l0-2.4-28.38-.45s-1.35.51-1.24,1.44Z"/><path class="cls-4" d="M46.49,326.67c0,.15.72.25,1.41.75s1,1.12,1.17,1.07,0-.9-.88-1.49S46.46,326.54,46.49,326.67Z"/><path class="cls-4" d="M43.33,327.81c0,.14.57.41,1,1.05s.57,1.29.72,1.29.27-.82-.32-1.59S43.34,327.67,43.33,327.81Z"/><path class="cls-4" d="M41.39,331.44c.13,0,.36-.68,0-1.48s-1-1.16-1.06-1,.33.56.59,1.23S41.24,331.42,41.39,331.44Z"/><path class="cls-4" d="M46.92,323.2c0,.13.72,0,1.54.06s1.44.38,1.52.26-.51-.66-1.47-.76S46.85,323.08,46.92,323.2Z"/><g class="cls-14"><polygon points="47.11 314.6 47.07 317.32 61.62 317.88 61.76 315.44 47.11 314.6"/></g><path class="cls-4" d="M47,320.12a2.69,2.69,0,0,0,1.48.06,6.36,6.36,0,0,0,1.57-.4,7.65,7.65,0,0,0,.88-.41,1.74,1.74,0,0,0,.46-.33.61.61,0,0,0,.1-.76.76.76,0,0,0-.61-.36,1.62,1.62,0,0,0-.56.05,4.47,4.47,0,0,0-.94.27,5.2,5.2,0,0,0-1.41.83c-.72.6-1,1.13-.93,1.16s.42-.38,1.14-.88a6.38,6.38,0,0,1,1.36-.68,5.69,5.69,0,0,1,.86-.22c.32-.07.59-.06.66.09s0,.07,0,.16a1.42,1.42,0,0,1-.34.24,8.68,8.68,0,0,1-.8.41,8.51,8.51,0,0,1-1.46.48A10.28,10.28,0,0,0,47,320.12Z"/><path class="cls-4" d="M47.19,320.34a2.41,2.41,0,0,0,.46-1.42,5,5,0,0,0-.13-1.63,6,6,0,0,0-.33-.92,1.24,1.24,0,0,0-.91-.79.69.69,0,0,0-.64.38,1.9,1.9,0,0,0-.18.54,3.4,3.4,0,0,0-.05,1,3.43,3.43,0,0,0,.56,1.56c.54.79,1.14,1,1.15.95s-.44-.38-.84-1.14a3.39,3.39,0,0,1-.41-1.41,3.49,3.49,0,0,1,.07-.85c.06-.32.19-.57.31-.53s.39.26.49.51a5,5,0,0,1,.33.82,5.39,5.39,0,0,1,.22,1.5C47.29,319.78,47.11,320.31,47.19,320.34Z"/><path class="cls-4" d="M107.44,201.07s-46.21-19.38-60.52-20.21c-9-.52-15.76,5.25-14.54,14.53.61,4.64,13.38,59,13.38,59l19.48-8.89-9.35-37.59,38,18.45Z"/><path class="cls-5" d="M50.05,198.4c-.15.13,1.39,2.11,3,4.72s2.7,4.86,2.88,4.78-.65-2.48-2.3-5.14S50.18,198.28,50.05,198.4Z"/><path class="cls-5" d="M46.27,200.56c-.1.17,2.23,1.65,5,3.67s4.85,3.79,5,3.65-1.8-2.16-4.58-4.2S46.35,200.41,46.27,200.56Z"/><path class="cls-4" d="M143.5,212.73s-5.82,7.49-11.36,9.54c-7,2.57-58.46,26.87-58.46,26.87s-9.34,69.38-8.6,66.49l-21.55-.52,2.34-63.91c.29-8.19,6.84-17.58,13.89-21.76l47.68-28.37Z"/><path class="cls-5" d="M45.46,262.89a3.34,3.34,0,0,0,.09-.87c0-.65.08-1.48.13-2.52a86.33,86.33,0,0,1,.86-9.18,31.65,31.65,0,0,1,4.65-12.67,24,24,0,0,1,5.54-5.72A65.08,65.08,0,0,1,64,227.3c10.37-5.94,19.33-12,25.94-16.15,3.3-2.1,6-3.78,7.84-4.92l2.15-1.32a4.39,4.39,0,0,0,.72-.49,3.8,3.8,0,0,0-.79.37c-.51.27-1.26.67-2.21,1.22-1.91,1.07-4.63,2.68-8,4.73-6.69,4-15.69,10-26,16a63.5,63.5,0,0,0-7.38,4.69,24.47,24.47,0,0,0-5.66,5.9,31.61,31.61,0,0,0-4.61,12.94,72,72,0,0,0-.64,9.26V262A5.32,5.32,0,0,0,45.46,262.89Z"/><path class="cls-5" d="M124.48,220.05a19.53,19.53,0,0,0-1.32-1.78,12.85,12.85,0,0,1-2-10,16.18,16.18,0,0,0,.52-2.15,4.73,4.73,0,0,0-1,2,11.49,11.49,0,0,0,2.1,10.39A4.79,4.79,0,0,0,124.48,220.05Z"/><path class="cls-5" d="M51.45,315.11a1.71,1.71,0,0,0,.06-.36c0-.27.08-.62.13-1,.11-1,.25-2.33.43-4,.36-3.57.85-8.63,1.47-14.87.3-3.15.62-6.59,1-10.28s.73-7.64,1-11.79.71-8.51,1.47-13a53.12,53.12,0,0,1,4-13.34A44.63,44.63,0,0,1,68.78,235a70.44,70.44,0,0,1,9.76-8.6A198.69,198.69,0,0,1,97.3,214.64c5.47-3.14,9.83-5.82,12.73-7.84,1.45-1,2.56-1.81,3.29-2.38l.83-.66q.28-.22.27-.24a1.68,1.68,0,0,0-.31.19l-.87.6c-.76.53-1.89,1.31-3.36,2.27-2.94,1.95-7.32,4.55-12.82,7.64a191.66,191.66,0,0,0-18.89,11.62,70.3,70.3,0,0,0-9.87,8.65,45.26,45.26,0,0,0-8,11.64,53.73,53.73,0,0,0-4,13.52c-.76,4.49-1.14,8.87-1.45,13s-.62,8.11-.95,11.8-.62,7.13-.89,10.27c-.52,6.25-1,11.32-1.25,14.89-.13,1.72-.23,3.08-.3,4.05,0,.43,0,.78-.07,1.06A1.23,1.23,0,0,0,51.45,315.11Z"/><path class="cls-4" d="M102.19,91a8.41,8.41,0,0,0-9.63-5.18,10.45,10.45,0,0,1-2.68.58,20.1,20.1,0,0,1-3.26-.86,4.89,4.89,0,0,0-5.52,3.57,6.65,6.65,0,0,0-5.49,1.09,4.33,4.33,0,0,0-1.29,5.18c.39.73,1,1.31,1.39,2.06.59,1.23.32,2.71.73,4a5.42,5.42,0,0,0,4.66,3.35,15.88,15.88,0,0,0,6-.86"/><path class="cls-12" d="M92.92,130.56c-.26-1.93-.42-3.29-.42-3.29s-6.45,0-9-8c-1.29-4-2.15-10.68-2.67-16.19A8.76,8.76,0,0,1,89,93.47l17.12-.9.37,2.66L111,128.14a9.13,9.13,0,0,1-7.86,10.3h0A9.13,9.13,0,0,1,92.92,130.56Z"/><path class="cls-4" d="M83.2,107.77a1.07,1.07,0,0,0,1.18.9,1,1,0,0,0,.94-1.12,1.07,1.07,0,0,0-1.18-.9A1,1,0,0,0,83.2,107.77Z"/><path class="cls-4" d="M82.78,106.29c.15.12.85-.6,2-.77s2,.25,2.15.09-.12-.29-.52-.5a3,3,0,0,0-1.75-.25,2.84,2.84,0,0,0-1.55.79C82.78,106,82.7,106.24,82.78,106.29Z"/><path class="cls-4" d="M93.94,106a1.07,1.07,0,0,0,1.19.9,1,1,0,0,0,.93-1.12,1.07,1.07,0,0,0-1.18-.9A1,1,0,0,0,93.94,106Z"/><path class="cls-4" d="M93.92,104.74c.15.11.86-.6,2-.78s2,.26,2.15.1-.13-.3-.53-.5a2.85,2.85,0,0,0-1.75-.25,2.77,2.77,0,0,0-1.55.79C93.93,104.42,93.85,104.69,93.92,104.74Z"/><path class="cls-4" d="M91.15,113.77a7.58,7.58,0,0,0-1.89,0c-.29,0-.57,0-.65-.19a1.52,1.52,0,0,1,0-.88l.51-2.34a36.71,36.71,0,0,0,1-6,39.22,39.22,0,0,0-1.49,6c-.16.82-.31,1.6-.46,2.34a1.66,1.66,0,0,0,0,1.16.73.73,0,0,0,.54.34,1.64,1.64,0,0,0,.5,0A7.13,7.13,0,0,0,91.15,113.77Z"/><path class="cls-13" d="M92.5,127.27A21.09,21.09,0,0,0,103,122.6s-1.77,6.05-10.09,6.58Z"/><path class="cls-4" d="M94.6,114c-.18,0,0,1.25-.9,2.29s-2.24,1.11-2.22,1.28.33.19.88.12a3.11,3.11,0,0,0,1.86-1,2.67,2.67,0,0,0,.68-1.9C94.87,114.28,94.68,114,94.6,114Z"/><path class="cls-4" d="M92.92,100.35c.17.29,1.27,0,2.62-.08s2.48.14,2.62-.17c0-.14-.18-.4-.66-.63a4.28,4.28,0,0,0-2-.36,4.39,4.39,0,0,0-2,.55C93.06,99.94,92.85,100.22,92.92,100.35Z"/><path class="cls-4" d="M82.67,103c.24.23,1-.16,1.91-.32s1.76-.1,1.9-.4c.06-.14-.11-.38-.49-.57a2.82,2.82,0,0,0-3.07.59C82.63,102.56,82.57,102.84,82.67,103Z"/><path class="cls-4" d="M79.93,99.46s4.53,1.52,9.73-1.95c3.42-2.28,7.55-3.71,8.58-3.1s1.71,4.35,5.46,5c0,0,.66,7.2,3.48,6.58,2-.44.84-8.38,0-12.91a3.94,3.94,0,0,0-3.73-3.22l-5.28-.2-6.58,1.83-7.06,1.93-5.37,2.23Z"/><path class="cls-12" d="M106.55,103.07c.11-.08,4.47-2.38,5.28,2.39s-4.14,4.6-4.17,4.46S106.55,103.07,106.55,103.07Z"/><path class="cls-13" d="M108.81,107.87s.09,0,.24.08a.8.8,0,0,0,.62-.09,2.07,2.07,0,0,0,.64-2,2.73,2.73,0,0,0-.43-1.15,1,1,0,0,0-.74-.54.44.44,0,0,0-.45.32c0,.14,0,.23,0,.24s-.11-.06-.11-.26a.55.55,0,0,1,.14-.33.61.61,0,0,1,.44-.2,1.16,1.16,0,0,1,1,.59,2.78,2.78,0,0,1,.52,1.28,2.18,2.18,0,0,1-.87,2.26.91.91,0,0,1-.78,0C108.83,108,108.79,107.88,108.81,107.87Z"/><path class="cls-5" d="M82.22,87.37s.16.25.5.64a4.25,4.25,0,0,0,1.81,1.16,6,6,0,0,0,3.17.14,27.35,27.35,0,0,0,3.85-1.23,10.54,10.54,0,0,1,4.09-.73,4.47,4.47,0,0,1,3.1,1.4,3.32,3.32,0,0,1,1,2.09,1.4,1.4,0,0,1-.14.83s0-.3-.06-.81a3.34,3.34,0,0,0-1-1.85,4.26,4.26,0,0,0-2.87-1.18,10.46,10.46,0,0,0-3.89.75,26.11,26.11,0,0,1-3.93,1.2,6.06,6.06,0,0,1-3.39-.27,4,4,0,0,1-1.84-1.38A1.49,1.49,0,0,1,82.22,87.37Z"/><path class="cls-5" d="M98.33,91.94s-.24-.26-.74-.6a4.38,4.38,0,0,0-2.4-.71,7.77,7.77,0,0,0-3.64.89,37.72,37.72,0,0,1-4.34,2,10.82,10.82,0,0,1-8.54-.94A9.39,9.39,0,0,1,76.56,91a3,3,0,0,1-.6-.76,18.93,18.93,0,0,0,2.88,2.05,10.9,10.9,0,0,0,8.21.76,44.05,44.05,0,0,0,4.3-2,7.81,7.81,0,0,1,3.86-.82,4.32,4.32,0,0,1,2.5.92A1.77,1.77,0,0,1,98.33,91.94Z"/><path class="cls-12" d="M83.52,173.2,60.3,153.4l-7.66,1.73s8.07,16.78,13.91,22.93c0,0,5.77,7.73,15.29,4.39S83.52,173.2,83.52,173.2Z"/><path class="cls-5" d="M58.55,131.61H48.68a2.5,2.5,0,0,0-2.29,3.14l9.92,19.34a2.26,2.26,0,0,0,2,1.22l12,0a1.71,1.71,0,0,0,1.31-2.54l-9.57-18.93A3.93,3.93,0,0,0,58.55,131.61Z"/><path class="cls-4" d="M57.88,132.77H48a1.66,1.66,0,0,0-1.48,2.41l9.69,18.91a2.26,2.26,0,0,0,2,1.22h11.9A1,1,0,0,0,71,153.9L61.41,135A3.94,3.94,0,0,0,57.88,132.77Z"/><path class="cls-12" d="M57,140.69l-6,2.4-1.29,4.84,2.89,7.2,10.62,1.55-3.11-3.18.4-2.76s3-.93,3-1.39-.37-2-.82-2a23.22,23.22,0,0,0-3.56,1.08s3.68-2.91,3.57-3.38-.49-1.66-1.23-1.79-6.66,2.66-6.66,2.66l-1,2.2-.84-3.51S58.34,143.09,57,140.69Z"/><path class="cls-13" d="M57.8,152s-.15-.21-.21-.6a3.24,3.24,0,0,1,1-2.78c.3-.26.53-.36.55-.33a7.34,7.34,0,0,0-1.11,1.7A6.68,6.68,0,0,0,57.8,152Z"/><path class="cls-13" d="M54.94,151a11.91,11.91,0,0,0,.24-1.57,7.46,7.46,0,0,1,.3-1.75,2.66,2.66,0,0,1,.56-.93,2.62,2.62,0,0,1,1-.61c1.43-.53,2.73-.95,3.67-1.25a8.58,8.58,0,0,1,1.56-.43,8.67,8.67,0,0,1-1.48.63c-.93.36-2.23.82-3.64,1.33a2.67,2.67,0,0,0-.88.54,2.42,2.42,0,0,0-.5.82,7.68,7.68,0,0,0-.35,1.67A3.21,3.21,0,0,1,54.94,151Z"/><path class="cls-13" d="M53.56,149.9a2.49,2.49,0,0,1,0-1.18c.11-.64.26-1.15.35-1.13a2.49,2.49,0,0,1,0,1.18C53.8,149.41,53.65,149.92,53.56,149.9Z"/><path class="cls-6" d="M53.4,136.42a1.26,1.26,0,1,0,1.26-1.26A1.26,1.26,0,0,0,53.4,136.42Z"/></g><g id="Plant"><path class="cls-7" d="M18.82,327a12.2,12.2,0,0,1,7.28,6.18,21.44,21.44,0,0,1,2.23,9.47c.2,6.33-2.42,13.13-5.51,18.66-5.91-3.81-8.27-11.62-9.23-15.66-1.5-6.37-.35-18.82,5.23-18.65"/><path class="cls-7" d="M30.41,370.73a10.39,10.39,0,0,1,1.91-10.27,13.8,13.8,0,0,1,9.62-4.62c1.69-.11,3.56.11,4.71,1.34a4.47,4.47,0,0,1,.72,4.46,8.92,8.92,0,0,1-2.83,3.73c-4.13,3.51-8.77,6.15-14.13,5.36"/><path class="cls-4" d="M26.47,390.8a7.4,7.4,0,0,1,0-1.31c0-.92.08-2.12.13-3.55a36.52,36.52,0,0,1,2-11.56,22.3,22.3,0,0,1,6.7-9.58,15.16,15.16,0,0,1,3-1.9,8.33,8.33,0,0,1,.89-.37,1.1,1.1,0,0,1,.33-.1,24.08,24.08,0,0,0-4,2.62A23.14,23.14,0,0,0,29,374.54,39.25,39.25,0,0,0,26.92,386c-.1,1.5-.19,2.71-.27,3.54A6.75,6.75,0,0,1,26.47,390.8Z"/><path class="cls-4" d="M18.78,336.59a1.94,1.94,0,0,1,.15.55c.08.41.19.93.32,1.59.28,1.38.66,3.39,1.1,5.87.89,5,2,11.84,3.1,19.46s1.89,14.55,2.41,19.57c.26,2.5.45,4.54.57,5.94.05.67.09,1.2.12,1.62a3.07,3.07,0,0,1,0,.57,2.59,2.59,0,0,1-.11-.56c-.05-.42-.12-.95-.21-1.61-.17-1.46-.42-3.47-.71-5.93-.61-5-1.47-11.91-2.55-19.53s-2.15-14.5-3-19.48c-.39-2.44-.72-4.44-1-5.89-.1-.66-.18-1.19-.25-1.61A2.16,2.16,0,0,1,18.78,336.59Z"/><path class="cls-7" d="M21.89,375.84A24.34,24.34,0,0,0,6.18,360.11c-1.88-.58-4.24-.8-5.49.72s-.59,3.81.38,5.52a20.79,20.79,0,0,0,20.77,10"/><path class="cls-4" d="M7.89,365.89a6.36,6.36,0,0,1,1.18.33,12.05,12.05,0,0,1,1.36.48,18.74,18.74,0,0,1,1.74.78,20,20,0,0,1,2,1.11,23.67,23.67,0,0,1,2.21,1.48,27,27,0,0,1,4.39,4.22,26.21,26.21,0,0,1,3.25,5.16,24.94,24.94,0,0,1,1,2.47,20.43,20.43,0,0,1,.64,2.23A16.38,16.38,0,0,1,26,386a11.55,11.55,0,0,1,.17,1.43,7.15,7.15,0,0,1,0,1.23c-.1,0-.18-1.74-.88-4.45a22.41,22.41,0,0,0-.69-2.18,26.15,26.15,0,0,0-1-2.42,27.65,27.65,0,0,0-3.22-5.05,28,28,0,0,0-4.3-4.17,25.61,25.61,0,0,0-2.15-1.5c-.68-.46-1.36-.81-2-1.15C9.54,366.48,7.85,366,7.89,365.89Z"/></g></g></svg>