<svg xmlns="http://www.w3.org/2000/svg" xmlns:xlink="http://www.w3.org/1999/xlink" id="Layer_1" x="0" y="0" version="1.1" viewBox="0 0 512 512" xml:space="preserve" style="enable-background:new 0 0 512 512"><path style="fill:#317e46" d="M7.5,133.042v251.774h497V133.042H7.5z M479.852,325.005c-19.438,0-35.195,15.757-35.195,35.195	H67.343c0-19.438-15.757-35.195-35.195-35.195V192.852c19.438,0,35.195-15.757,35.195-35.195h377.314	c0,19.438,15.757,35.195,35.195,35.195V325.005z"/><path style="fill:#94d6a8" d="M444.657,157.657H67.343c0,19.438-15.757,35.195-35.195,35.195v132.152	c19.438,0,35.195,15.757,35.195,35.195h377.314c0-19.438,15.757-35.195,35.195-35.195V192.852	C460.415,192.852,444.657,177.095,444.657,157.657z"/><path style="fill:#addfba" d="M255,157.657H67.343c0,19.438-15.757,35.195-35.195,35.195v132.152	c19.438,0,35.195,15.757,35.195,35.195H255V157.657z"/><circle style="fill:#317e46" cx="256" cy="258.93" r="75.08"/><path style="fill:#4dba69" d="M255.585,183.854c-41.276,0.225-74.669,33.745-74.669,75.074s33.393,74.849,74.669,75.074	L255.585,183.854L255.585,183.854z"/><g><circle style="fill:#317e46" cx="404.64" cy="258.93" r="28.21"/><circle style="fill:#317e46" cx="107.36" cy="258.93" r="28.21"/></g><path d="M256,341.513c45.537,0,82.585-37.047,82.585-82.584S301.537,176.344,256,176.344s-82.585,37.047-82.585,82.584	S210.463,341.513,256,341.513z M256,191.344c37.267,0,67.585,30.318,67.585,67.584S293.267,326.513,256,326.513	s-67.585-30.318-67.585-67.584S218.733,191.344,256,191.344z"/><path d="M0,125.542v266.773h512V125.542H0z M497,377.315H15V140.542h482V377.315z"/><path d="M59.843,360.199v7.5h392.314v-7.5c0-15.271,12.424-27.695,27.694-27.695h7.5V185.352h-7.5	c-15.271,0-27.694-12.424-27.694-27.695v-7.5H59.843v7.5c0,15.271-12.424,27.695-27.694,27.695h-7.5v147.152h7.5	C47.419,332.505,59.843,344.928,59.843,360.199z M39.648,199.693c17.544-3.121,31.414-16.991,34.535-34.535h363.633	c3.121,17.544,16.991,31.415,34.535,34.535v118.472c-17.544,3.121-31.414,16.991-34.535,34.535H74.184	c-3.121-17.544-16.991-31.415-34.535-34.535L39.648,199.693L39.648,199.693z"/><path d="M404.637,294.636c19.689,0,35.708-16.019,35.708-35.708s-16.019-35.708-35.708-35.708	c-19.688,0-35.707,16.019-35.707,35.708S384.948,294.636,404.637,294.636z M404.637,238.221c11.418,0,20.708,9.29,20.708,20.708	s-9.29,20.708-20.708,20.708s-20.707-9.29-20.707-20.708S393.219,238.221,404.637,238.221z"/><path d="M107.363,294.636c19.688,0,35.707-16.019,35.707-35.708s-16.019-35.708-35.707-35.708	c-19.689,0-35.708,16.019-35.708,35.708S87.674,294.636,107.363,294.636z M107.363,238.221c11.418,0,20.707,9.29,20.707,20.708	s-9.289,20.708-20.707,20.708s-20.708-9.29-20.708-20.708S95.945,238.221,107.363,238.221z"/><path d="M247.762,288.106c-3.321-0.85-6.346-1.894-9.07-3.13c-2.727-1.233-5.09-2.469-7.09-3.705	c-2.002-1.233-3.386-2.235-4.152-3.002l-7.792,15.202c5.279,3.749,11.241,6.643,17.885,8.687c3.627,1.116,7.28,1.916,10.958,2.423	v11.87h15v-11.532c2.369-0.242,4.686-0.619,6.937-1.164c4.044-0.978,7.621-2.533,10.73-4.663c3.108-2.128,5.577-4.918,7.409-8.367	c1.831-3.449,2.747-7.601,2.747-12.456c0-4.172-0.683-7.685-2.044-10.539c-1.363-2.853-3.302-5.302-5.813-7.346	c-2.513-2.044-5.579-3.747-9.198-5.11c-3.257-1.224-6.859-2.377-10.769-3.466v-22.575c0.161,0.039,0.324,0.068,0.485,0.109	c2.639,0.683,5.088,1.513,7.346,2.491c2.255,0.98,4.171,1.98,5.748,3.002c1.575,1.022,2.661,1.833,3.258,2.427l7.792-14.308	c-4.004-2.725-8.687-5.088-14.052-7.09c-3.329-1.241-6.855-2.096-10.577-2.567V202.29h-15v11.244	c-1.698,0.297-3.352,0.687-4.954,1.181c-4.004,1.236-7.518,3.046-10.539,5.429c-3.024,2.386-5.388,5.366-7.09,8.942	c-1.705,3.577-2.556,7.665-2.556,12.264c0,3.493,0.531,6.495,1.598,9.006c1.063,2.513,2.66,4.727,4.79,6.643	c2.128,1.917,4.791,3.577,7.984,4.982c3.057,1.345,6.656,2.59,10.767,3.74v22.549C248.255,288.212,248.006,288.168,247.762,288.106z M263.5,270.325c0.947,0.379,1.845,0.768,2.657,1.174c2.044,1.022,3.618,2.215,4.727,3.577c1.105,1.363,1.66,3.024,1.66,4.982	c0,4.896-3.024,7.855-9.044,8.895V270.325z M246.739,246.46c-1.704-0.936-3.002-2.022-3.896-3.257	c-0.894-1.233-1.341-2.789-1.341-4.663c0-3.236,1.191-5.749,3.577-7.537c0.944-0.708,2.089-1.27,3.421-1.698v18.014	C247.874,247.04,247.276,246.756,246.739,246.46z"/><polygon points="368.93 66.895 383.93 66.895 383.93 53.268 397.557 53.268 397.557 38.268 383.93 38.268 383.93 24.642 368.93 24.642 368.93 38.268 355.303 38.268 355.303 53.268 368.93 53.268"/><polygon points="143.07 408.445 128.07 408.445 128.07 422.071 114.443 422.071 114.443 437.071 128.07 437.071 128.07 450.698 143.07 450.698 143.07 437.071 156.697 437.071 156.697 422.071 143.07 422.071"/><polygon points="237.846 111.385 252.846 111.385 252.846 100.555 263.675 100.555 263.675 85.555 252.846 85.555 252.846 74.725 237.846 74.725 237.846 85.555 227.016 85.555 227.016 100.555 237.846 100.555"/><polygon points="416.929 450.698 401.929 450.698 401.929 461.528 391.099 461.528 391.099 476.528 401.929 476.528 401.929 487.358 416.929 487.358 416.929 476.528 427.759 476.528 427.759 461.528 416.929 461.528"/><rect width="15" height="13.798" x="284.15" y="450.7"/><rect width="15" height="13.798" x="47.622" y="47.736"/></svg>