<svg height="512pt" viewBox="0 0 512 512" width="512pt" xmlns="http://www.w3.org/2000/svg"><g fill="#00ca33"><path d="m356.332031 512h-60c-8.28125 0-15-6.714844-15-15v-280c0-8.285156 6.71875-15 15-15h60c8.285157 0 15 6.714844 15 15v280c0 8.285156-6.714843 15-15 15zm0 0"/><path d="m215.667969 512h-60c-8.285157 0-15-6.714844-15-15v-200c0-8.285156 6.714843-15 15-15h60c8.28125 0 15 6.714844 15 15v200c0 8.285156-6.71875 15-15 15zm0 0"/><path d="m497 512h-60c-8.285156 0-15-6.714844-15-15v-360c0-8.285156 6.714844-15 15-15h60c8.285156 0 15 6.714844 15 15v360c0 8.285156-6.714844 15-15 15zm0 0"/></g><path d="m356.332031 512h-30v-310h30c8.285157 0 15 6.714844 15 15v280c0 8.285156-6.714843 15-15 15zm0 0" fill="#2db124"/><path d="m215.667969 512h-30v-230h30c8.28125 0 15 6.714844 15 15v200c0 8.285156-6.71875 15-15 15zm0 0" fill="#2db124"/><path d="m497 512h-30v-390h30c8.285156 0 15 6.714844 15 15v360c0 8.285156-6.714844 15-15 15zm0 0" fill="#2db124"/><path d="m304.601562 53.476562-60-50c-.007812-.007812-.019531-.015624-.027343-.023437-.097657-.078125-.203125-.148437-.300781-.226563-.257813-.203124-.515626-.40625-.785157-.589843-.144531-.097657-.296875-.191407-.449219-.285157-.230468-.148437-.464843-.292968-.699218-.425781-.167969-.097656-.34375-.183593-.515625-.273437-.230469-.117188-.464844-.230469-.699219-.335938-.179688-.082031-.363281-.160156-.550781-.234375-.242188-.097656-.488281-.183593-.734375-.269531-.183594-.0625-.363282-.125-.546875-.179688-.316407-.09375-.636719-.171874-.957031-.246093-.117188-.027344-.234376-.0625-.355469-.085938-.445313-.089843-.890625-.15625-1.339844-.207031-.132813-.0117188-.265625-.0195312-.398437-.03125-.34375-.0273438-.683594-.046875-1.027344-.0507812-.074219 0-.144532-.0117188-.214844-.0117188-.082031 0-.160156.0117188-.238281.0117188-.335938.0039062-.667969.0234374-1 .0507812-.148438.0117188-.292969.0195312-.4375.0351562-.375.0429688-.746094.1015628-1.117188.1718748-.089843.015625-.179687.027344-.265625.042969-.429687.089844-.855468.203125-1.28125.332031-.175781.050781-.347656.117188-.519531.175781-.253906.085938-.507813.175782-.757813.277344-.1875.074219-.371093.160156-.558593.242188-.226563.105468-.453125.210937-.679688.328125-.179687.09375-.363281.191406-.542969.292969-.21875.125-.433593.257812-.648437.394531-.167969.105469-.339844.210937-.5.328125-.058594.039062-.117187.070312-.171875.109375l-70 50c-6.742188 4.816406-8.300781 14.183593-3.484375 20.925781 2.925781 4.097656 7.535156 6.28125 12.21875 6.28125 3.015625 0 6.0625-.90625 8.703125-2.796875l44.003906-31.429687c-6.4375 43.113281-26.375 82.867187-57.726562 114.21875-38.695313 38.695312-90.191406 60.007812-144.996094 60.007812-8.285156 0-15 6.714844-15 15s6.714844 15 15 15c62.816406 0 121.847656-24.429688 166.207031-68.792969 37.121094-37.121093 60.273438-84.515625 66.847657-135.800781l37.34375 31.117188c6.363281 5.300781 15.820312 4.441406 21.125-1.921876 5.304687-6.363281 4.445312-15.820312-1.921876-21.125zm0 0" fill="#0a0a48"/><path d="m45 402c-8.269531 0-15-6.730469-15-15s6.730469-15 15-15h30c8.285156 0 15-6.714844 15-15s-6.714844-15-15-15h-15v-5c0-8.285156-6.714844-15-15-15s-15 6.714844-15 15v7.578125c-17.460938 6.195313-30 22.867187-30 42.421875 0 24.8125 20.1875 45 45 45 8.269531 0 15 6.730469 15 15s-6.730469 15-15 15h-30c-8.285156 0-15 6.714844-15 15s6.714844 15 15 15h15v5c0 8.285156 6.714844 15 15 15s15-6.714844 15-15v-7.578125c17.460938-6.195313 30-22.867187 30-42.421875 0-24.8125-20.1875-45-45-45zm0 0" fill="#ffd500"/><path d="m75 372c8.285156 0 15-6.714844 15-15s-6.714844-15-15-15h-15v-5c0-8.285156-6.714844-15-15-15v50zm0 0" fill="#ffc300"/><path d="m45 402v30c8.269531 0 15 6.730469 15 15s-6.730469 15-15 15v50c8.285156 0 15-6.714844 15-15v-7.578125c17.460938-6.195313 30-22.867187 30-42.421875 0-24.8125-20.1875-45-45-45zm0 0" fill="#ffc300"/></svg>