<svg id="Capa_1" enable-background="new 0 0 512 512" height="512" viewBox="0 0 512 512" width="512" xmlns="http://www.w3.org/2000/svg"><g><g><path d="m190.36 22.514-90.575 256.326c-6.7 18.962 7.366 38.85 27.476 38.85h106.24l-34.26 163.276c-4.253 20.268 21.903 32.258 34.483 15.808l162.487-212.485c14.663-19.175.991-46.843-23.149-46.843h-85.141l122.512-195.478c9.396-14.991-1.381-34.463-19.073-34.463h-179.776c-9.541-.001-18.045 6.014-21.224 15.009z" fill="#f9ef63"/><g fill="#f1d333"><path d="m232.001 498.766c-13.08 13.4-36.819 1.59-32.759-17.8l34.259-163.276h10.099c8.97 0 15.669 8.251 13.827 17.029l-30.686 146.247c-1.54 7.34.91 13.6 5.26 17.8z"/><path d="m273.821 7.506c-9.54 0-18.05 6.01-21.23 15.01l-90.578 256.324c-6.7 18.96 7.37 38.849 27.479 38.849h-62.229c-20.109 0-34.179-19.89-27.479-38.849l90.578-256.324c3.18-9 11.68-15.01 21.219-15.01h62.24z"/></g></g><g><path d="m218.516 512c-3.823 0-7.72-.832-11.473-2.553-11.7-5.363-17.785-17.428-15.143-30.023l11.58-55.17c.851-4.054 4.831-6.65 8.88-5.799 4.054.851 6.65 4.827 5.799 8.88l-11.579 55.169c-1.443 6.881 2.521 11.386 6.713 13.307 4.193 1.922 10.194 1.984 14.469-3.604l162.488-212.477c5.113-6.689 5.938-15.189 2.208-22.735-3.729-7.545-10.982-12.049-19.401-12.049h-85.137c-2.728 0-5.241-1.481-6.562-3.868s-1.242-5.303.207-7.614l77.209-123.199c2.2-3.509 6.827-4.573 10.338-2.372 3.51 2.2 4.572 6.828 2.372 10.338l-70.013 111.716h71.588c14.04 0 26.627 7.818 32.847 20.402 6.221 12.586 4.789 27.335-3.739 38.492l-162.489 212.479c-5.311 6.945-13.066 10.68-21.162 10.68z"/><path d="m216.989 403.926c-.511 0-1.028-.052-1.548-.161-4.054-.85-6.651-4.826-5.8-8.88l14.623-69.699h-97.002c-12.053 0-22.958-5.644-29.918-15.486-6.959-9.84-8.648-22-4.633-33.362l90.579-256.327c4.234-11.97 15.603-20.011 28.291-20.011h179.778c11.077 0 20.892 5.788 26.257 15.483 5.364 9.695 5.053 21.086-.832 30.471l-29.619 47.258c-2.199 3.51-6.827 4.573-10.338 2.372-3.51-2.2-4.572-6.828-2.372-10.338l29.62-47.259c2.944-4.695 3.099-10.392.416-15.242s-7.592-7.745-13.131-7.745h-179.779c-6.345 0-12.031 4.023-14.149 10.011l-90.578 256.324c-2.371 6.71-1.373 13.891 2.737 19.703 4.111 5.813 10.552 9.147 17.671 9.147h106.239c2.259 0 4.398 1.019 5.822 2.772 1.424 1.754 1.982 4.056 1.518 6.267l-16.52 78.739c-.742 3.536-3.859 5.963-7.332 5.963z"/></g></g></svg>