<svg xmlns="http://www.w3.org/2000/svg" xmlns:xlink="http://www.w3.org/1999/xlink" viewBox="0 0 338.12 119.33"><defs><style>.cls-1{fill:#23211e;}.cls-1,.cls-10,.cls-11,.cls-12,.cls-13,.cls-2,.cls-3,.cls-4,.cls-5,.cls-6,.cls-7,.cls-8,.cls-9{fill-rule:evenodd;}.cls-2{fill:#404041;}.cls-3{fill:#58595b;}.cls-4{fill:#fff;}.cls-5{fill:#363638;}.cls-6{fill:#9da0a5;}.cls-7{fill:#e6e7e8;}.cls-8{fill:#d0d2d3;}.cls-9{fill:#c7c9ce;}.cls-10{fill:#fbf9f6;}.cls-11{fill:url(#GradientFill_2);}.cls-12{fill:#ced0d1;}.cls-13{fill:url(#GradientFill_1);}</style><linearGradient id="GradientFill_2" x1="324.56" y1="43.5" x2="321.62" y2="58.61" gradientUnits="userSpaceOnUse"><stop offset="0" stop-color="#f3807c"/><stop offset="0.5" stop-color="#ee3d57"/><stop offset="1" stop-color="#dd1e47"/></linearGradient><linearGradient id="GradientFill_1" x1="2.76" y1="-1184.72" x2="2.76" y2="1314.04" gradientUnits="userSpaceOnUse"><stop offset="0" stop-color="#fff"/><stop offset="1" stop-color="#231f20"/></linearGradient></defs><title>EV Car</title><g id="Layer_2" data-name="Layer 2"><g id="OBJECTS"><polygon class="cls-1" points="41.45 50.07 17.97 68.58 20.73 87.52 30.83 98.74 93.48 99.86 246.34 101.62 298.37 92.37 305.27 90.61 291.46 56.68 246.8 44.78 41.45 50.07"/><path class="cls-2" d="M146.89,5.53c-.06,0-30.27,10.4-54.65,23,0,0-8,6.07-5.9,10.45l7.6,5.52,63.54-33.26L151.72,7Z"/><path class="cls-2" d="M261.19,9.22s34.87,13.12,43.05,19l7.94,2.53,1.38,4.61-7,5.06L259.8,13.7Z"/><path class="cls-3" d="M63.4,71.88A20.55,20.55,0,1,1,43,92.53,20.54,20.54,0,0,1,63.4,71.88Z"/><polygon class="cls-4" points="63.35 71.99 67.89 86.04 82.66 86.01 70.69 94.67 75.28 108.7 63.35 100 51.42 108.7 56.02 94.67 44.05 86.01 58.82 86.04 63.35 71.99"/><path class="cls-5" d="M44.33,111.5a27,27,0,1,0-.19-38.24,27,27,0,0,0,.19,38.24Zm33-5.35h0a19.7,19.7,0,1,1-.13-27.86A19.7,19.7,0,0,1,77.35,106.15Z"/><path class="cls-6" d="M63.33,87a5.3,5.3,0,1,0,5.32,5.27A5.28,5.28,0,0,0,63.33,87Z"/><path class="cls-4" d="M49.36,78.42a19.7,19.7,0,1,1,.13,27.86,19.7,19.7,0,0,1-.13-27.86Zm14,35.43A21.57,21.57,0,1,0,41.79,92.28,21.57,21.57,0,0,0,63.35,113.85Z"/><path class="cls-4" d="M61.34,71.37C61.29,70.82,58.82,86,58.82,86h9.52s-2.58-14.3-2.53-14.74S61.34,71.37,61.34,71.37Z"/><path class="cls-4" d="M43.4,88.2c-.52-.11,12.88,6.51,12.88,6.51L59,85.89S45,84.2,44.61,84,43.4,88.2,43.4,88.2Z"/><path class="cls-4" d="M53.67,110.19c-.26.48,10-10.43,10-10.43L56,94.61s-5.66,12.9-5.94,13.22S53.67,110.19,53.67,110.19Z"/><path class="cls-4" d="M77.47,107.78c.37.41-6.76-13.22-6.76-13.22l-7.6,5.69s10.61,9.88,10.83,10.26S77.47,107.78,77.47,107.78Z"/><path class="cls-4" d="M82.29,84c.5-.22-14.49,2.16-14.49,2.16L70.73,95s12.58-6.81,13-6.9S82.29,84,82.29,84Z"/><path class="cls-3" d="M274.86,71.88a20.55,20.55,0,1,1-20.45,20.65A20.54,20.54,0,0,1,274.86,71.88Z"/><polygon class="cls-4" points="274.81 71.99 279.35 86.04 294.12 86.01 282.15 94.67 286.74 108.7 274.81 100 262.88 108.7 267.47 94.67 255.51 86.01 270.28 86.04 274.81 71.99"/><path class="cls-5" d="M255.78,111.5a27,27,0,1,0-.19-38.24,27,27,0,0,0,.19,38.24Zm33-5.35h0a19.7,19.7,0,1,1-.13-27.86A19.7,19.7,0,0,1,288.81,106.15Z"/><path class="cls-6" d="M274.79,87a5.3,5.3,0,1,0,5.32,5.27A5.28,5.28,0,0,0,274.79,87Z"/><path class="cls-4" d="M260.81,78.42a19.7,19.7,0,1,1,.14,27.86,19.71,19.71,0,0,1-.14-27.86Zm14,35.43a21.57,21.57,0,1,0-21.56-21.57A21.57,21.57,0,0,0,274.81,113.85Z"/><path class="cls-4" d="M272.8,71.37c-.06-.55-2.52,14.67-2.52,14.67h9.52s-2.58-14.3-2.53-14.74S272.8,71.37,272.8,71.37Z"/><path class="cls-4" d="M254.86,88.2c-.53-.11,12.88,6.51,12.88,6.51l2.71-8.82s-14-1.69-14.38-1.86S254.86,88.2,254.86,88.2Z"/><path class="cls-4" d="M265.13,110.19c-.26.48,9.95-10.43,9.95-10.43l-7.65-5.15s-5.67,12.9-5.94,13.22S265.13,110.19,265.13,110.19Z"/><path class="cls-4" d="M288.92,107.78c.38.41-6.75-13.22-6.75-13.22l-7.6,5.69s10.61,9.88,10.83,10.26S288.92,107.78,288.92,107.78Z"/><path class="cls-4" d="M293.75,84c.5-.22-14.49,2.16-14.49,2.16l2.93,8.9s12.58-6.81,13-6.9S293.75,84,293.75,84Z"/><path class="cls-7" d="M1,75.17c-2.51-7.3.15-12.63,2.66-18.54,3.77-8.87,72.72-25.55,89.88-28.77,0,0-7,3.45-.34,9.67,0,0,45.93-24.51,57-29l-3.45-3.46S190.24-8.74,261,9.22v2.07l43.85,22.79s9.37-1.38-.64-5.87c19.26,6.2,25.75,6.55,26.89,10l-.35,18.65V62.4s8.29,3.1,7.25,9a86.63,86.63,0,0,1-2.76,11l-1.72,1-.69,7.25s-17.42,9.71-31.23,10.74c3.74-17.48-2.67-34.79-28.75-34-22.45.69-26.7,23.93-26.7,23.93l-.34,9.67-.35,2.07-150.9-2.76V91.75s-.17-23.23-31.59-25S32.38,97.16,32.38,97.16L31.69,102S7.54,101.69,3,92.32C3,92.32,2.73,79.32,1,75.17Z"/><path class="cls-8" d="M102.23,100.52l-7.64-.14V91.75s-.17-23.23-31.59-25S32.38,97.16,32.38,97.16L31.69,102S7.54,101.69,3,92.32c0,0-.08-3.61-.41-7.63l20.56,3s3.21-9.64,13-18.73c18.69-17.31,49-12.64,62.91,10.1,3.61,5.92,5.2,16.74,5.2,16.74S103.61,97.66,102.23,100.52Z"/><path class="cls-8" d="M330.78,62.4s8.29,3.1,7.25,9a86.63,86.63,0,0,1-2.76,11l-1.72,1-.69,7.25s-17.42,9.71-31.23,10.74c2.59-16.47-2.67-34.79-28.75-34-22.45.69-26.7,23.93-26.7,23.93l-.21,6c-5.82-2.05-9.49-3.5-9.49-3.5,5.59-22.22,21.38-41.47,46.75-34.67,11.83,3.18,18.9,13.28,18.9,13.28a70.18,70.18,0,0,0,14.43-3.46A121.63,121.63,0,0,0,330.78,62.4Z"/><polygon class="cls-8" points="94.17 92.09 94.86 100.15 245.19 103.14 245.65 101.07 246.11 92.09 242.19 91.86 237.36 93.93 102.92 93.7 101.54 91.86 94.17 92.09"/><path class="cls-9" d="M.72,74.28l1.9,10.41s18.49,3.89,20.56,3l-1.5-9S3,77.5.72,74.28Z"/><path class="cls-10" d="M6.58,57.1a18,18,0,0,1,4.49-5,30.6,30.6,0,0,1,8.46,1.2c5.35,1.38,9,1.9,9,1.9s5.7,1.38-2.59,4S12.1,61.59,9,60,6.58,57.1,6.58,57.1Z"/><path class="cls-2" d="M99.47,43.29s36.37-25.56,58-32c0,0,10.53-4.14,34.42-4.21,5.62,16.84,4.68,14,9.68,33l-31,.92-71.13,2.3ZM197.76,7.15l9.43,32.76c26.65-.78,58.9-1.69,63.78-1.69,8.52,0-.92-9.21-.92-9.21-3-2.76-14.5-10.13-14.5-10.13C248,15.2,236.44,9,204,7.37,201.82,7.27,199.75,7.19,197.76,7.15Z"/><path class="cls-3" d="M183.2,51.08c0,.81-3.9,1.47-8.71,1.47s-8.72-.66-8.72-1.47,3.9-1.46,8.72-1.46S183.2,50.28,183.2,51.08Z"/><path class="cls-3" d="M265.73,47.63c0,.81-3.9,1.47-8.71,1.47s-8.72-.66-8.72-1.47,3.9-1.47,8.72-1.47S265.73,46.82,265.73,47.63Z"/><path class="cls-11" d="M331,44.62s-9.06-.21-13.56,1.06-3.29,9,.25,11.41c2.42,1.61,10.94.47,13,0C330.71,57.1,332.74,49,331,44.62Z"/><path class="cls-12" d="M115.14,46c-3.08.87-15.62.06-16.34-2.58s10.13-9.71,16.4-9.12Z"/><path class="cls-13" d="M3.83,56.32S5.28,55,5.39,59.25,4.49,73.18,3,73.2.22,72.32.19,71.88C-.5,61.17,3.83,56.32,3.83,56.32Z"/></g></g></svg>