<svg xmlns="http://www.w3.org/2000/svg" xmlns:xlink="http://www.w3.org/1999/xlink" viewBox="0 0 259.14 114.28"><defs><style>.cls-1,.cls-10,.cls-11,.cls-12,.cls-2,.cls-3,.cls-4,.cls-5,.cls-6,.cls-7,.cls-8,.cls-9{fill-rule:evenodd;}.cls-1{fill:url(#GradientFill_3);}.cls-2{fill:#ccc;}.cls-3{fill:#404041;}.cls-4{fill:url(#GradientFill_4);}.cls-5{fill:#ef4136;}.cls-6{fill:#be1e2d;}.cls-7{fill:#f58f5b;}.cls-8{fill:#fff;}.cls-9{fill:#594a42;}.cls-10{fill:#363638;}.cls-11{fill:#525458;}.cls-12{fill:#696b6f;}</style><linearGradient id="GradientFill_3" x1="232.1" y1="57.08" x2="247.63" y2="57.08" gradientUnits="userSpaceOnUse"><stop offset="0" stop-color="#6a8991"/><stop offset="0.53" stop-color="#335c64"/><stop offset="1" stop-color="#02383c"/></linearGradient><linearGradient id="GradientFill_4" x1="1.26" y1="38.75" x2="18.18" y2="38.75" gradientUnits="userSpaceOnUse"><stop offset="0" stop-color="#bc352e"/><stop offset="0.13" stop-color="#dd4d2f"/><stop offset="0.21" stop-color="#be4a2b"/><stop offset="0.33" stop-color="#d35a39"/><stop offset="0.46" stop-color="#ec6b4e"/><stop offset="0.62" stop-color="#ee5f3c"/><stop offset="0.91" stop-color="#ed4e2c"/><stop offset="1" stop-color="#bc4c24"/></linearGradient></defs><title>Gas Car</title><g id="Layer_2" data-name="Layer 2"><g id="OBJECTS"><path class="cls-1" d="M232.78,48.61s6.87,7.73,8.46,16.94C241.24,65.55,226.64,59.29,232.78,48.61Z"/><polygon class="cls-2" points="232.53 49.84 237.81 57.08 235.72 55.37 236.46 57.45 237.56 58.19 238.3 59.41 238.3 60.76 237.81 60.76 239.03 61.5 239.03 62.24 238.79 62.6 237.2 62.6 236.09 61.38 234.25 60.03 232.41 58.06 232.41 56.1 231.8 53.89 232.53 49.84"/><path class="cls-3" d="M245,99.1c2.1-.11,4.21-.24,6.32-.37l-8.88-28.87-32.3-13.51-29.82,1.1L50.32,58,13.6,63.8,7.4,99.1Z"/><path class="cls-3" d="M152.06,6l-6.29,1.5-3,1.93S160.2,13,178.14,38.66l25.4-3S187.67,17.33,152.06,6Z"/><path class="cls-4" d="M14.58,27l-1.5-.83C10.34,26.06.92,48,4.92,51.3,4.92,51.3,17.89,38.35,14.58,27Z"/><path class="cls-5" d="M21.88,11.85C23.5,8.79,14.6,8.3,16.28,6c0,0,84.16-13.52,135.78,0l-6.29,1.5S168.2,16,179,37l24.85-2.75c21.68,4.89,45.34,8.74,52.5,32.67L256,87.31l2.21,2.21-.55,7.73-2.76.83s-5.92,1.75-9,1.75c0,0,1.56-30.86-26.93-30.53-27.06-.83-26.78,27.86-26.78,27.86h-132S62.88,68,31.7,69.3c-26.14,1-22.52,31.17-22.52,31.17l-3.86-1.1S1.45,75.35.63,67.9c0,0,2.76-5,2.76-9.67C3.39,58.23,9.73,24.55,21.88,11.85Z"/><path class="cls-6" d="M259.14,81.33l-1.45,15.92-2.76.83s-5.92,1.75-9,1.75c0,0,1.56-30.86-26.93-30.53-27.06-.83-26.78,27.86-26.78,27.86h-132S62.88,68,31.7,69.3c-26.14,1-22.52,31.17-22.52,31.17L2.72,98.86S1.32,89.92,0,81.38a53.38,53.38,0,0,1,6.05-.89c4.43-14,16.05-21.26,28.24-22C56,57.15,65.63,79.51,67.9,91.8l115.91-.58c7.6-43.22,50.94-40.38,67.25-10.66C251.06,80.56,256.69,81,259.14,81.33Z"/><path class="cls-3" d="M41.59,11.29c-8.24.71-10.47,19-11.73,27H96.71l3.36-31.55c-10.83.13-48.69.84-58.48,4.58Zm129.91,27c-3.86-7-19.06-30.18-51.77-31.35-5.71-.2-11.4-.27-17-.23l-2.22,31.58Z"/><path class="cls-7" d="M158.53,30.1s-3.31,6.07,1.11,11C159.64,41.14,175.1,35.07,158.53,30.1Z"/><path class="cls-8" d="M252.6,63.3C249,53.76,243.29,50,235.26,46c-7.74-.78-7.92,4.88-4.78,10.12S247.42,71.91,252.6,63.3Z"/><path class="cls-9" d="M101.4,46.93V46a1.48,1.48,0,0,1,1.23-1.64l14.66-.08a1.47,1.47,0,0,1,1.25,1.62v1Z"/><path class="cls-9" d="M71.18,47.34v-1a1.48,1.48,0,0,1,1.23-1.64l14.66-.08a1.48,1.48,0,0,1,1.25,1.63v1Z"/><path class="cls-10" d="M204,108.3a20.67,20.67,0,1,0-.14-29.23A20.68,20.68,0,0,0,204,108.3Zm25.25-4.1h0a15.05,15.05,0,1,1-.11-21.29A15.06,15.06,0,0,1,229.24,104.2Z"/><path class="cls-8" d="M218.45,76.53a17.08,17.08,0,1,1-17,17.16A17.08,17.08,0,0,1,218.45,76.53Z"/><path class="cls-11" d="M218.46,78.56a15.05,15.05,0,1,0,15.13,15A15.05,15.05,0,0,0,218.46,78.56Z"/><path class="cls-12" d="M221.55,97.65a5.23,5.23,0,1,0-7.4,0A5.23,5.23,0,0,0,221.55,97.65Z"/><path class="cls-8" d="M216.84,110.12l-1-11.39-8.66,7.47-1.53-1.51L213.09,96l-11.4-.84V93l11.39-1-7.47-8.65,1.51-1.53,8.73,7.38.84-11.4h2.15l.95,11.39,8.65-7.46L230,83.25,222.58,92l11.4.83V95l-11.39,1,7.46,8.65-1.51,1.53-8.72-7.38L219,110.11Zm0-13.69h2L220.29,95v-2l-1.44-1.43h-2L215.37,93v2Z"/><path class="cls-10" d="M19.82,108.3a20.67,20.67,0,1,0-.15-29.23,20.66,20.66,0,0,0,.15,29.23Zm25.24-4.1h0A15.05,15.05,0,1,1,45,82.91,15.05,15.05,0,0,1,45.06,104.2Z"/><path class="cls-8" d="M34.28,76.53a17.08,17.08,0,1,1-17,17.16A17.08,17.08,0,0,1,34.28,76.53Z"/><path class="cls-11" d="M34.29,78.56a15.05,15.05,0,1,0,15.13,15A15.05,15.05,0,0,0,34.29,78.56Z"/><path class="cls-12" d="M37.38,97.65a5.23,5.23,0,1,0-7.41,0A5.23,5.23,0,0,0,37.38,97.65Z"/><path class="cls-8" d="M32.66,110.12l-.95-11.39-8.65,7.47-1.53-1.51L28.91,96l-11.4-.84V93l11.39-1-7.46-8.65,1.51-1.53,8.73,7.38.83-11.4h2.15l1,11.39,8.66-7.46,1.53,1.51L38.4,92l11.4.83V95l-11.39,1,7.47,8.65-1.51,1.53-8.73-7.38-.84,11.39Zm0-13.69h2L36.12,95v-2l-1.45-1.43h-2L31.2,93v2Z"/></g></g></svg>