<svg xmlns="http://www.w3.org/2000/svg" viewBox="0 0 38.06 38.06"><defs><style>.cls-1{fill:#222221;}.cls-2{fill:#fff;}</style></defs><title>Google Dark</title><g id="Layer_2" data-name="Layer 2"><g id="Capa_1" data-name="Capa 1"><path class="cls-1" d="M19,38.06h0A19,19,0,0,1,0,19H0A19,19,0,0,1,19,0h0a19,19,0,0,1,19,19h0A19,19,0,0,1,19,38.06Z"/><path class="cls-2" d="M27.29,18H19.6v2.2H24.8a5.1,5.1,0,0,1-5.05,4.33,6,6,0,1,1,4.1-10.46l1.7-1.46a8.27,8.27,0,1,0-5.8,14.15c4.39,0,7.56-3.34,7.56-7.91Z"/></g></g></svg>