<?xml version="1.0" encoding="utf-8"?>
<!-- Generator: Adobe Illustrator 22.1.0, SVG Export Plug-In . SVG Version: 6.00 Build 0)  -->
<svg xmlns="http://www.w3.org/2000/svg" xmlns:xlink="http://www.w3.org/1999/xlink" version="1.1" id="Layer_1" x="0px" y="0px" viewBox="0 0 256 256" style="enable-background:new 0 0 256 256;" xml:space="preserve" width="512" height="512">
<style type="text/css">
	.st0{fill:#F9CFCF;}
	.st1{fill:#3762CC;}
	.st2{fill:#6BDDDD;}
	.st3{fill:#E0EBFC;}
	.st4{fill:#EAA97D;}
	.st5{fill:#A4C9FF;}
	.st6{fill:#F9A7A7;}
	.st7{fill:#4671C6;}
	.st8{fill:#FFEA92;}
	.st9{fill:#B9BEFC;}
	.st10{fill:#3962CA;}
	.st11{fill:#DDA073;}
</style>
<g>
	<g>
		<g>
			<path class="st0" d="M247.313,172.173L247.313,172.173c-4.907-8.429-15.774-11.317-24.272-6.45l-40.439,23.156     c-2.85,1.632-6.184,2.21-9.418,1.633l-52.758-9.42l-7.333-0.839h43.297c9.733,0,17.623-7.89,17.623-17.623     c0-3.059-2.48-5.539-5.539-5.539h-50.055c-3.509,0-6.976,0.761-10.162,2.232l-32.839,15.153     c-5.132,2.368-10.717,3.595-16.369,3.595h-1.112v46.323h9.691l110.399-9.693c0.079-0.007,0.159-0.013,0.238-0.019l3.186-0.26     c2.608-0.267,5.131-1.078,7.405-2.38l56.412-32.302C247.94,178.209,248.855,174.822,247.313,172.173z"/>
		</g>
	</g>
	<g>
		<g>
			<path class="st1" d="M67.628,226.394h-9.691c-1.104,0-2-0.896-2-2V178.07c0-1.104,0.896-2,2-2h1.112     c5.326,0,10.696-1.179,15.531-3.41l32.838-15.153c3.425-1.581,7.229-2.416,11-2.416h50.056c4.156,0,7.538,3.382,7.538,7.539     c0,10.82-8.803,19.623-19.622,19.623h-18.086l35.231,6.291c2.766,0.494,5.634-0.003,8.071-1.399l40.439-23.156     c9.436-5.403,21.545-2.182,26.995,7.179l0,0c1.014,1.742,1.285,3.771,0.764,5.716c-0.522,1.952-1.781,3.583-3.542,4.592     l-56.412,32.302c-2.532,1.451-5.29,2.337-8.195,2.635l-3.457,0.282l-110.396,9.693C67.745,226.391,67.687,226.394,67.628,226.394     z M59.938,222.394h7.604l110.577-9.707l3.172-0.258c2.304-0.237,4.529-0.952,6.573-2.123l56.412-32.303     c0.83-0.475,1.422-1.241,1.667-2.156c0.243-0.907,0.116-1.854-0.357-2.667c-4.348-7.469-14.016-10.034-21.55-5.721     l-40.439,23.157c-3.251,1.861-7.072,2.524-10.763,1.866l-52.697-9.409l-7.271-0.833c-1.053-0.121-1.83-1.042-1.769-2.101     c0.06-1.059,0.936-1.886,1.997-1.886h43.298c8.614,0,15.622-7.008,15.622-15.623c0-1.952-1.587-3.539-3.538-3.539h-50.056     c-3.197,0-6.421,0.708-9.324,2.048l-32.838,15.153c-5.088,2.348-10.711,3.644-16.319,3.769V222.394z"/>
		</g>
	</g>
	<g>
		<g>
			<path class="st3" d="M55.203,167.146H43.938v66h11.265c1.511,0,2.735-1.225,2.735-2.735v-60.53     C57.938,168.37,56.713,167.146,55.203,167.146z"/>
		</g>
	</g>
	<g>
		<g>
			<g>
				<circle class="st4" cx="139.438" cy="76.854" r="60"/>
			</g>
		</g>
		<g>
			<g>
				
					<ellipse transform="matrix(0.9239 -0.3827 0.3827 0.9239 -18.7969 59.2109)" class="st8" cx="139.438" cy="76.854" rx="49.148" ry="49.148"/>
			</g>
		</g>
		<g>
			<g>
				<g>
					<path class="st7" d="M135.451,109.049c-8.779-1.325-15.138-6.761-15.859-15.644c-0.075-0.925,0.676-1.714,1.604-1.714h6.946       c0.793,0,1.451,0.584,1.584,1.366c0.526,3.09,2.072,5.507,4.761,6.782c1.073,0.509,2.317-0.256,2.317-1.444V81.62       c0-0.719-0.479-1.349-1.171-1.544c-7.892-2.232-16.109-5.147-16.109-17.475c0-9.821,6.462-16.71,15.938-18.183       c0.774-0.12,1.342-0.794,1.342-1.578v-4.513c0-0.886,0.718-1.604,1.604-1.604h2.141c0.886,0,1.604,0.718,1.604,1.604v4.416       c0,0.783,0.566,1.462,1.341,1.579c8.174,1.234,13.825,6.325,15.088,15.079c0.139,0.962-0.622,1.824-1.594,1.824h-6.88       c-0.769,0-1.406-0.55-1.573-1.3c-0.514-2.307-1.833-4.399-3.869-5.734c-1.078-0.707-2.512,0.038-2.512,1.328v16.132       c0,0.725,0.487,1.358,1.187,1.549c7.881,2.144,16.012,4.981,16.012,17.3c0,8.536-5.601,16.82-15.858,18.456       c-0.773,0.123-1.341,0.794-1.341,1.577v4.516c0,0.886-0.718,1.604-1.604,1.604h-2.141c-0.886,0-1.604-0.718-1.604-1.604v-4.418       C136.803,109.841,136.23,109.167,135.451,109.049z M136.803,68.922V54.814c0-1.085-1.067-1.89-2.091-1.531       c-3.392,1.191-5.644,4.077-5.644,8.767c0,4.341,2.19,6.729,5.408,8.308C135.548,70.884,136.803,70.115,136.803,68.922z        M142.153,84.351v14.089c0,1.165,1.2,1.931,2.268,1.466c3.517-1.53,5.468-4.874,5.468-8.858c0-4.271-2.195-6.584-5.42-8.139       C143.399,82.394,142.153,83.163,142.153,84.351z"/>
				</g>
			</g>
		</g>
		<g>
			<g>
				<path class="st1" d="M139.438,138.854c-34.187,0-62-27.813-62-62s27.813-62,62-62c34.187,0,62,27.813,62,62      S173.624,138.854,139.438,138.854z M139.438,18.854c-31.981,0-58,26.019-58,58s26.019,58,58,58s58-26.019,58-58      S171.419,18.854,139.438,18.854z"/>
			</g>
		</g>
	</g>
	<g>
		<g>
			<path class="st6" d="M206.506,112.211V65.208c0-1.105-0.895-2-2-2h-19c-1.105,0-2,0.895-2,2v47.004c0,1.105-0.895,2-2,2h-5.24     c-1.782,0-2.674,2.154-1.414,3.414l18.171,18.168c0.781,0.781,2.047,0.781,2.828,0l18.171-18.168     c1.26-1.26,0.368-3.414-1.414-3.414h-4.102C207.402,114.211,206.506,113.316,206.506,112.211z"/>
		</g>
	</g>
	<g>
		<g>
			<path class="st7" d="M40.927,239.145H7.938v-80h32.989c1.663,0,3.011,1.348,3.011,3.011v73.978     C43.938,237.797,42.59,239.145,40.927,239.145z"/>
		</g>
	</g>
	<g>
		<g>
			<path class="st1" d="M40.926,241.146H7.938c-1.104,0-2-0.896-2-2v-80c0-1.104,0.896-2,2-2h32.989     c2.763,0,5.011,2.248,5.011,5.011v73.978C45.938,238.897,43.689,241.146,40.926,241.146z M9.938,237.146h30.989     c0.558,0,1.011-0.454,1.011-1.011v-73.978c0-0.558-0.454-1.011-1.011-1.011H9.938V237.146z"/>
		</g>
	</g>
	<g>
		<g>
			<path class="st1" d="M194.438,138.377c-1.024,0-2.048-0.39-2.828-1.169l-18.171-18.168c-1.148-1.148-1.488-2.859-0.867-4.359     s2.071-2.469,3.695-2.469h5.24V65.208c0-2.206,1.794-4,4-4h19c2.206,0,4,1.794,4,4v47.006l4.102-0.002     c1.624,0,3.075,0.97,3.696,2.47c0.621,1.5,0.28,3.211-0.868,4.358l-18.171,18.168     C196.486,137.988,195.462,138.377,194.438,138.377z M176.267,116.211l18.171,18.168l18.171-18.168h-4.102c-2.206,0-4-1.794-4-4     V65.208h-19v47.004c0,2.206-1.794,4-4,4H176.267z"/>
		</g>
	</g>
	<g>
		<g>
			<path class="st1" d="M55.203,235.146H43.938c-1.104,0-2-0.896-2-2v-66c0-1.104,0.896-2,2-2h11.265     c2.611,0,4.735,2.124,4.735,4.735v60.53C59.938,233.021,57.813,235.146,55.203,235.146z M45.938,231.146h9.265     c0.405,0,0.735-0.33,0.735-0.735v-60.53c0-0.405-0.33-0.735-0.735-0.735h-9.265V231.146z"/>
		</g>
	</g>
</g>
</svg>
