<svg xmlns="http://www.w3.org/2000/svg" viewBox="0 0 389 393.96"><defs><style>.cls-1{isolation:isolate}.cls-2{fill:#d1a454}.cls-3{fill:#bbdefb}.cls-4{fill:#a5d1ef}.cls-5{fill:#cfecff}.cls-10,.cls-6{fill:#231f20;mix-blend-mode:multiply}.cls-6{opacity:.1}.cls-7{fill:#e2b760}.cls-8{fill:#ffcf7b}.cls-9{fill:#105e99}.cls-10,.cls-11{opacity:.25}.cls-11,.cls-12,.cls-15{fill:#fff}.cls-11{mix-blend-mode:overlay}.cls-13{fill:none;stroke:#0e3944;stroke-miterlimit:10}.cls-14{fill:#f24052}.cls-15{font-size:9.94px;font-family:Satisfy-Regular,Satisfy Regular}.cls-16{letter-spacing:-.08em}.cls-17{letter-spacing:0}.cls-18,.cls-19{letter-spacing:-.01em}.cls-20{font-size:21.12px;fill:#0e3944;font-family:Cabin-Bold,Cabin;font-weight:700}</style></defs><title>Provider</title><g class="cls-1"><g id="Layer_2" data-name="Layer 2"><g id="OBJECTS"><rect width="354" height="346.88" x="17.5" y="47.07" class="cls-2"/><rect width="336.22" height="337.71" x="26.39" y="56.25" class="cls-3"/><rect width="336.22" height="20.22" x="26.39" y="373.74" class="cls-4"/><polygon points="269.71 374.03 210.94 374.03 219.95 191.26 260.7 191.26 269.71 374.03" class="cls-4"/><rect width="90.09" height="180.44" x="240.33" y="193.59" class="cls-3" transform="translate(570.74 567.62) rotate(180)"/><rect width="18.31" height="15.99" x="296.68" y="198.83" class="cls-4" transform="translate(611.66 413.65) rotate(180)"/><rect width="18.31" height="15.99" x="266.76" y="251.95" class="cls-4" transform="translate(551.82 519.89) rotate(180)"/><rect width="11.65" height="10.18" x="283.89" y="204.64" class="cls-4" transform="translate(579.42 419.46) rotate(180)"/><rect width="11.65" height="10.18" x="258.85" y="204.64" class="cls-4" transform="translate(529.36 419.46) rotate(180)"/><rect width="14.2" height="12.41" x="243.26" y="202.41" class="cls-4" transform="translate(500.72 417.23) rotate(180)"/><rect width="11.65" height="13.81" x="271.37" y="201.01" class="cls-4" transform="translate(554.39 415.84) rotate(180)"/><rect width="18.31" height="15.99" x="292.33" y="279.59" class="cls-4" transform="translate(602.96 575.18) rotate(180)"/><rect width="11.65" height="10.18" x="279.53" y="285.41" class="cls-4" transform="translate(570.72 581) rotate(180)"/><rect width="11.65" height="10.18" x="254.5" y="285.41" class="cls-4" transform="translate(520.65 581) rotate(180)"/><rect width="14.2" height="12.41" x="238.91" y="283.18" class="cls-4" transform="translate(492.02 578.77) rotate(180)"/><rect width="11.65" height="13.81" x="267.02" y="281.78" class="cls-4" transform="translate(545.69 577.37) rotate(180)"/><rect width="18.31" height="15.99" x="242.22" y="224.99" class="cls-4"/><rect width="11.65" height="10.18" x="261.67" y="230.81" class="cls-4"/><rect width="11.65" height="10.18" x="286.7" y="230.81" class="cls-4"/><rect width="11.65" height="10.18" x="286.7" y="257.76" class="cls-4"/><rect width="11.65" height="10.18" x="238.71" y="257.76" class="cls-4"/><rect width="14.2" height="12.41" x="299.74" y="228.58" class="cls-4"/><rect width="14.2" height="12.41" x="251.37" y="255.53" class="cls-4"/><rect width="11.65" height="13.81" x="274.18" y="227.18" class="cls-4"/><rect width="11.65" height="13.81" x="300.01" y="254.14" class="cls-4"/><rect width="18.31" height="15.99" x="263.27" y="333.43" class="cls-4" transform="translate(544.85 682.85) rotate(180)"/><rect width="18.31" height="15.99" x="238.74" y="306.47" class="cls-4"/><rect width="11.65" height="10.18" x="258.18" y="312.29" class="cls-4"/><rect width="11.65" height="10.18" x="283.22" y="312.29" class="cls-4"/><rect width="11.65" height="10.18" x="283.22" y="339.24" class="cls-4"/><rect width="11.65" height="10.18" x="235.23" y="339.24" class="cls-4"/><rect width="14.2" height="12.41" x="296.26" y="310.06" class="cls-4"/><rect width="14.2" height="12.41" x="247.89" y="337.01" class="cls-4"/><rect width="11.65" height="13.81" x="270.7" y="308.66" class="cls-4"/><rect width="11.65" height="13.81" x="296.52" y="335.62" class="cls-4"/><rect width="108.04" height="3.13" x="215.65" y="213.32" class="cls-5" transform="translate(539.34 429.77) rotate(180)"/><rect width="108.04" height="3.13" x="215.69" y="240.37" class="cls-5" transform="translate(539.42 483.87) rotate(180)"/><rect width="108.04" height="3.13" x="215.73" y="267.42" class="cls-5" transform="translate(539.51 537.97) rotate(180)"/><rect width="108.04" height="3.13" x="215.78" y="294.47" class="cls-5" transform="translate(539.6 592.07) rotate(180)"/><rect width="108.04" height="3.13" x="215.82" y="321.52" class="cls-5" transform="translate(539.69 646.17) rotate(180)"/><rect width="108.04" height="3.13" x="215.87" y="348.57" class="cls-5" transform="translate(539.77 700.27) rotate(180)"/><polygon points="359.8 374.03 301.03 374.03 310.04 191.26 350.79 191.26 359.8 374.03" class="cls-5"/><rect width="101.34" height="85.26" x="259.36" y="83.68" class="cls-4"/><rect width="101.34" height="85.26" x="143.83" y="83.68" class="cls-4"/><rect width="101.34" height="85.26" x="28.3" y="83.68" class="cls-4"/><polygon points="362.61 56.25 362.61 146.2 114.86 393.96 26.39 393.96 26.39 56.25 362.61 56.25" class="cls-6"/><rect width="48.97" height="337.71" x="313.64" y="56.25" class="cls-7"/><rect width="48.97" height="337.71" x="308.63" y="56.25" class="cls-8"/><rect width="36.94" height="139.55" x="314.65" y="118.43" class="cls-9"/><path d="M327.57,272.28V382.64h-9.14V272.28h9.14m3.78-3.78h-16.7V386.42h16.7V268.5Z" class="cls-7"/><path d="M347.81,272.28V382.64h-9.14V272.28h9.14m3.78-3.78h-16.7V386.42h16.7V268.5Z" class="cls-7"/><rect width=".97" height="151.15" x="326.56" y="110.41" class="cls-8"/><rect width=".97" height="151.15" x="338.8" y="110.41" class="cls-8"/><rect width="3.33" height="44.03" x="331.5" y="139.95" class="cls-8" transform="translate(495.13 -171.2) rotate(90)"/><rect width="3.33" height="44.03" x="331.5" y="187.98" class="cls-8" transform="translate(543.16 -123.17) rotate(90)"/><rect width="36.94" height="27.33" x="314.65" y="84.07" class="cls-9"/><polygon points="362.61 56.25 362.61 230.13 357.6 235.14 313.64 279.1 308.63 284.11 308.63 56.25 362.61 56.25" class="cls-10"/><path d="M313.15,241.9A2.14,2.14,0,0,1,311,244h-5.5v-4.28H311A2.13,2.13,0,0,1,313.15,241.9Z" class="cls-7"/><path d="M313.15,273.92a2.14,2.14,0,0,1-2.14,2.14h-5.5v-4.28h5.58A2.13,2.13,0,0,1,313.15,273.92Z" class="cls-7"/><path d="M309.42,244h-3.91v-4.28h5.42A13.9,13.9,0,0,1,309.42,244Z" class="cls-10"/><path d="M311.09,271.78a13.53,13.53,0,0,1-1.09,4.28h-4.49v-4.28Z" class="cls-10"/><path d="M305.51,284.75h0a1.75,1.75,0,0,1-1.75-1.76V232.81a1.75,1.75,0,0,1,1.75-1.75h0a1.75,1.75,0,0,1,1.75,1.75V283A1.75,1.75,0,0,1,305.51,284.75Z" class="cls-7"/><rect width="168.11" height="337.71" x="26.39" y="56.25" class="cls-8"/><rect width="126.82" height="139.55" x="47.04" y="118.43" class="cls-9"/><polygon points="47.04 118.43 107.68 118.43 47.04 179.07 47.04 118.43" class="cls-11"/><polygon points="123.2 118.43 169.23 118.43 47.04 240.63 47.04 194.59 123.2 118.43" class="cls-11"/><polygon points="173.86 150.97 173.86 162.64 78.53 257.98 66.85 257.98 173.86 150.97" class="cls-11"/><path d="M97.37,275.5V379.42H54V275.5H97.37m7-7H47V386.42h57.34V268.5Z" class="cls-7"/><path d="M166.85,275.5V379.42H123.52V275.5h43.33m7-7H116.52V386.42h57.33V268.5Z" class="cls-7"/><rect width="3.33" height="151.15" x="87.93" y="110.41" class="cls-8"/><rect width="3.33" height="151.15" x="129.96" y="110.41" class="cls-8"/><rect width="3.33" height="151.15" x="108.94" y="86.39" class="cls-8" transform="translate(272.58 51.36) rotate(90)"/><rect width="3.33" height="151.15" x="108.94" y="134.42" class="cls-8" transform="translate(320.61 99.39) rotate(90)"/><rect width="126.82" height="27.33" x="47.04" y="84.08" class="cls-9"/><polygon points="142.03 84.08 114.7 111.41 47.04 111.41 47.04 84.08 142.03 84.08" class="cls-11"/><polygon points="173.86 84.08 173.86 111.41 130.22 111.41 157.55 84.08 173.86 84.08" class="cls-11"/><path d="M194.5,56.25V97.56A21.62,21.62,0,0,1,175,76.05a21.61,21.61,0,0,1-43.22,0,21.61,21.61,0,0,1-43.22,0,21.62,21.62,0,0,1-43.23,0A21.6,21.6,0,0,1,26.39,97.49V56.25Z" class="cls-10"/><path d="M184.43,284.75h0a2.76,2.76,0,0,1-2.75-2.76V233.81a2.75,2.75,0,0,1,2.75-2.75h0a2.76,2.76,0,0,1,2.76,2.75V282A2.77,2.77,0,0,1,184.43,284.75Z" class="cls-7"/><path d="M112.41,149.43a2.73,2.73,0,1,1-2.73-2.73A2.73,2.73,0,0,1,112.41,149.43Z" class="cls-12"/><path d="M81.2,165.37l27.41-16.83a1.75,1.75,0,0,1,2,.15l33.05,27.82" class="cls-13"/><path d="M111.23,149.43a1.55,1.55,0,1,1-1.55-1.55A1.55,1.55,0,0,1,111.23,149.43Z" class="cls-4"/><rect width="67.33" height="40.54" x="75.4" y="167.1" class="cls-14" rx="1.82" transform="translate(37.27 -17.2) rotate(10.86)"/><text class="cls-15" transform="translate(89.37 174.45) rotate(10.86)"><tspan class="cls-16">Y</tspan><tspan x="4.62" y="0" class="cls-17">es! </tspan><tspan x="17.94" y="0" class="cls-18">w</tspan><tspan x="25.16" y="0" class="cls-17">e a</tspan><tspan x="37.04" y="0" class="cls-19">r</tspan><tspan x="40.19" y="0">e</tspan></text><rect width="63.51" height="23.72" x="76.12" y="181.73" class="cls-12" rx="1.06" transform="translate(38.42 -16.86) rotate(10.86)"/><text class="cls-20" transform="translate(79.22 195.33) rotate(10.86)">OPEN</text><polygon points="43.22 38.41 52.97 0 12.53 0 0 38.41 43.22 38.41" class="cls-9"/><polygon points="86.44 38.41 93.4 0 52.97 0 43.22 38.41 86.44 38.41" class="cls-14"/><polygon points="129.67 38.41 133.84 0 93.4 0 86.44 38.41 129.67 38.41" class="cls-9"/><polygon points="172.89 38.41 174.28 0 133.84 0 129.67 38.41 172.89 38.41" class="cls-14"/><polygon points="216.11 38.41 214.72 0 174.28 0 172.89 38.41 216.11 38.41" class="cls-9"/><polygon points="259.33 38.41 255.16 0 214.72 0 216.11 38.41 259.33 38.41" class="cls-14"/><polygon points="302.56 38.41 295.6 0 255.16 0 259.33 38.41 302.56 38.41" class="cls-9"/><polygon points="345.78 38.41 336.04 0 295.6 0 302.56 38.41 345.78 38.41" class="cls-14"/><polygon points="389 38.41 376.47 0 336.04 0 345.78 38.41 389 38.41" class="cls-9"/><path d="M0,38.41V56.3a21.61,21.61,0,0,0,43.22,0V38.41Z" class="cls-9"/><path d="M43.22,38.41V56.3A21.62,21.62,0,0,0,64.83,77.91h0A21.61,21.61,0,0,0,86.44,56.3V38.41Z" class="cls-14"/><path d="M86.44,38.41V56.3a21.62,21.62,0,0,0,21.62,21.61h0A21.62,21.62,0,0,0,129.67,56.3V38.41Z" class="cls-9"/><path d="M129.67,38.41V56.3a21.61,21.61,0,0,0,21.61,21.61h0A21.62,21.62,0,0,0,172.89,56.3V38.41Z" class="cls-14"/><path d="M172.89,38.41V56.3A21.61,21.61,0,0,0,194.5,77.91h0A21.61,21.61,0,0,0,216.11,56.3V38.41Z" class="cls-9"/><path d="M216.11,38.41V56.3a21.62,21.62,0,0,0,21.61,21.61h0A21.61,21.61,0,0,0,259.33,56.3V38.41Z" class="cls-14"/><path d="M259.33,38.41V56.3a21.62,21.62,0,0,0,21.61,21.61h0A21.62,21.62,0,0,0,302.56,56.3V38.41Z" class="cls-9"/><path d="M302.56,38.41V56.3a21.61,21.61,0,1,0,43.22,0V38.41Z" class="cls-14"/><path d="M345.78,38.41V56.3a21.61,21.61,0,0,0,43.22,0V38.41Z" class="cls-9"/><polygon points="376.47 0 336.04 0 295.6 0 255.16 0 214.72 0 174.28 0 133.84 0 93.4 0 52.97 0 12.53 0 0 38.41 43.22 38.41 86.44 38.41 129.67 38.41 172.89 38.41 216.11 38.41 259.33 38.41 302.56 38.41 345.78 38.41 389 38.41 376.47 0" class="cls-11"/></g></g></g></svg>