<svg id="Capa_1" enable-background="new 0 0 512 512" height="512" viewBox="0 0 512 512" width="512" xmlns="http://www.w3.org/2000/svg"><g><circle cx="256" cy="336.185" fill="#f6e266" r="168.315"/><path d="m256 167.87c-4.169 0-8.301.158-12.394.456 87.17 6.345 155.921 79.07 155.921 167.859s-68.751 161.514-155.921 167.859c4.093.298 8.225.455 12.394.455 92.958 0 168.315-75.357 168.315-168.315 0-92.957-75.357-168.314-168.315-168.314z" fill="#ecbe6b"/><path d="m313.508 64.393-57.508-56.893-57.508 56.893h25.342c3.31 0 5.994 2.683 5.994 5.994v72.253h52.345v-72.253c0-3.31 2.683-5.994 5.994-5.994z" fill="#78c2a4"/><g fill="#66b394"><path d="m261.414 70.387v72.253h20.758v-72.253c0-3.31 2.683-5.994 5.994-5.994h-20.758c-3.31 0-5.994 2.684-5.994 5.994z"/><path d="m256 7.5-10.379 10.268 47.129 46.625h20.758z"/></g><g><path d="m256 467.669c72.501 0 131.484-58.983 131.484-131.483 0-72.501-58.983-131.484-131.484-131.484s-131.484 58.983-131.484 131.484c-.001 72.5 58.983 131.483 131.484 131.483zm0-247.968c64.229 0 116.484 52.255 116.484 116.484s-52.255 116.484-116.484 116.484-116.484-52.254-116.484-116.483 52.254-116.485 116.484-116.485z"/><path d="m221.663 390c10.176 6.657 17.091 8.576 26.129 9.042v8.949c0 4.143 3.357 7.5 7.5 7.5s7.5-3.357 7.5-7.5v-9.53c17.76-3.33 28.133-17.902 30.421-31.512 2.92-17.37-6.169-32.473-23.156-38.478-2.386-.843-4.83-1.729-7.265-2.654v-38.66c9.027 1.095 15.502 4.989 15.646 5.077 3.498 2.183 8.11 1.133 10.315-2.36 2.21-3.504 1.161-8.136-2.342-10.346-.566-.356-10.171-6.284-23.619-7.462v-7.686c0-4.143-3.357-7.5-7.5-7.5s-7.5 3.357-7.5 7.5v8.574c-1.279.273-2.571.597-3.875.99-11.169 3.365-19.517 12.929-21.783 24.958-2.064 10.955 1.436 21.513 9.135 27.552 4.166 3.268 9.367 6.26 16.523 9.429v48.144c-6.425-.414-10.729-1.877-17.916-6.579-3.467-2.267-8.115-1.296-10.383 2.17s-1.296 8.114 2.17 10.382zm18.863-75.35c-3.276-2.569-4.676-7.54-3.652-12.971.939-4.984 4.306-11.002 10.918-13.216v30.77c-2.747-1.457-5.227-2.983-7.266-4.583zm24.531 27.963c14.921 5.273 14 18.057 13.362 21.849-1.266 7.53-6.581 15.538-15.628 18.508v-41.168c.746.269 1.49.537 2.266.811z"/><path d="m150.775 119.698 9.415-7.522v47.694c0 4.143 3.357 7.5 7.5 7.5s7.5-3.357 7.5-7.5v-47.694l9.415 7.522c1.383 1.104 3.035 1.641 4.677 1.641 2.201 0 4.384-.965 5.864-2.818 2.586-3.236 2.059-7.956-1.178-10.541l-21.597-17.255c-2.738-2.188-6.625-2.188-9.363 0l-21.597 17.255c-3.236 2.585-3.764 7.305-1.178 10.541 2.587 3.235 7.305 3.763 10.542 1.177z"/><path d="m316.854 118.521c2.586 3.235 7.303 3.764 10.541 1.178l9.415-7.522v47.694c0 4.143 3.357 7.5 7.5 7.5s7.5-3.357 7.5-7.5v-47.694l9.415 7.522c1.383 1.104 3.035 1.641 4.677 1.641 2.201 0 4.384-.965 5.864-2.818 2.586-3.236 2.059-7.956-1.178-10.541l-21.597-17.255c-2.738-2.188-6.625-2.188-9.363 0l-21.597 17.255c-3.236 2.583-3.763 7.303-1.177 10.54z"/><path d="m256 160.37c-96.944 0-175.814 78.87-175.814 175.815 0 44.988 16.988 87.796 47.836 120.537 2.841 3.014 7.587 3.155 10.603.315 3.015-2.841 3.155-7.587.315-10.603-28.215-29.946-43.754-69.101-43.754-110.25 0-88.674 72.141-160.815 160.814-160.815s160.815 72.142 160.815 160.815-72.142 160.816-160.815 160.816c-34.717 0-67.774-10.892-95.599-31.497-3.33-2.466-8.025-1.764-10.491 1.563-2.465 3.329-1.765 8.026 1.563 10.491 30.427 22.533 66.571 34.443 104.527 34.443 96.945 0 175.815-78.87 175.815-175.814 0-96.946-78.87-175.816-175.815-175.816z"/><path d="m242.17 31.731 13.83-13.681 39.263 38.844h-7.097c-7.44 0-13.493 6.053-13.493 13.493v72.253c0 4.143 3.357 7.5 7.5 7.5s7.5-3.357 7.5-7.5v-70.746h23.835c3.041 0 5.78-1.836 6.937-4.648s.5-6.045-1.662-8.184l-57.509-56.894c-2.922-2.891-7.627-2.891-10.549 0l-19.104 18.899c-2.945 2.913-2.971 7.662-.058 10.606 2.915 2.947 7.664 2.972 10.607.058z"/><path d="m198.493 71.894h23.835v70.746c0 4.143 3.357 7.5 7.5 7.5s7.5-3.357 7.5-7.5v-72.253c0-7.44-6.054-13.493-13.494-13.493h-7.097l4.116-4.072c2.945-2.914 2.971-7.662.058-10.606-2.915-2.946-7.664-2.971-10.606-.058l-17.086 16.904c-2.162 2.139-2.818 5.371-1.662 8.184s3.895 4.648 6.936 4.648z"/></g></g></svg>