<svg xmlns="http://www.w3.org/2000/svg" viewBox="0 0 444.39 405.11"><defs><style>.cls-1{fill:#f5f5f5;}.cls-2{fill:#ebebeb;}.cls-3{fill:#e0e0e0;}.cls-4{fill:#263238;}.cls-5{fill:#e8505b;}.cls-6{opacity:0.3;}.cls-7{fill:#fff;}.cls-8{fill:#455a64;}.cls-9{fill:#ffbe9d;}.cls-10{fill:#eb996e;}.cls-11{opacity:0.5;}.cls-12{opacity:0.7;}.cls-13{fill:#fafafa;}.cls-14{opacity:0.2;}.cls-15{opacity:0.4;}</style></defs><title>Savings Calculator</title><g id="Layer_2" data-name="Layer 2"><g id="Background_Complete" data-name="Background Complete"><path class="cls-1" d="M152.52,137.81a60.88,60.88,0,1,1-69-51.35A60.8,60.8,0,0,1,152.52,137.81Z"/><path class="cls-2" d="M138.19,139.89a46.4,46.4,0,1,1-52.57-39.13A46.34,46.34,0,0,1,138.19,139.89Z"/><path class="cls-3" d="M138,138.45c-.28.06-.77-1.93-2-5.34a49.06,49.06,0,0,0-7.34-13.3,47.6,47.6,0,0,0-7.29-7.46,46.62,46.62,0,0,0-10.14-6.27,42.89,42.89,0,0,0-6-2.23,43.49,43.49,0,0,0-6.57-1.4,44.18,44.18,0,0,0-6.94-.4,44.7,44.7,0,0,0-14.06,2.49,44.88,44.88,0,0,0-6.37,2.77,43,43,0,0,0-5.69,3.57,43.56,43.56,0,0,0-4.91,4.18,46.45,46.45,0,0,0-7.36,9.37A47.71,47.71,0,0,0,49,134a49.07,49.07,0,0,0-2.31,15c0,3.63.23,5.67,0,5.71s-.9-1.92-1.33-5.64a43,43,0,0,1,1.27-15.79,46.57,46.57,0,0,1,11.73-20.49,47.5,47.5,0,0,1,11.27-8.51,47.08,47.08,0,0,1,6.86-3,47,47,0,0,1,15.16-2.69,46.29,46.29,0,0,1,7.49.49,44.74,44.74,0,0,1,7.06,1.59,45.24,45.24,0,0,1,6.45,2.52,46.37,46.37,0,0,1,18.07,15.2,43.16,43.16,0,0,1,6.64,14.38C138.15,136.34,138.17,138.42,138,138.45Z"/><path class="cls-3" d="M101.45,173.19l1.28,8-7.13,1.13-1.24-7.76c-7.12.7-14.24-.42-18.65-2.86l2.52-9.32a29.17,29.17,0,0,0,14.64,2.85L91,153.32c-8.22-.66-17.47-1.88-19.1-12.07-1.21-7.55,3.23-14.92,14.29-18l-1.27-7.91L92,114.2,93.25,122a32.58,32.58,0,0,1,15.16,2l-2.16,9.33a29.67,29.67,0,0,0-11.5-2l1.94,12.11c8.21.59,17.32,1.84,18.93,11.88C116.81,162.77,112.42,170.05,101.45,173.19ZM89.28,142.84l-1.62-10.11c-3.64,1.46-4.8,3.76-4.43,6.11C83.63,141.34,86,142.35,89.28,142.84Zm15,15.21c-.4-2.49-2.68-3.51-5.92-4.09l1.57,9.83C103.38,162.44,104.65,160.33,104.29,158.05Z"/><path class="cls-1" d="M373.59,83.07a44.24,44.24,0,1,1-60.72-14.81A44.19,44.19,0,0,1,373.59,83.07Z"/><path class="cls-2" d="M364.59,88.53a33.72,33.72,0,1,1-46.27-11.29A33.67,33.67,0,0,1,364.59,88.53Z"/><path class="cls-3" d="M364,87.63c-.17.11-1.06-1.08-2.86-3a36.08,36.08,0,0,0-8.68-6.82,34.57,34.57,0,0,0-7-2.92,33.5,33.5,0,0,0-8.56-1.32,30.77,30.77,0,0,0-4.67.21,32.76,32.76,0,0,0-4.8.93,33.33,33.33,0,0,0-4.75,1.7,35.76,35.76,0,0,0-4.58,2.48A35.14,35.14,0,0,0,314,82.05a33.37,33.37,0,0,0-3.49,3.66,32,32,0,0,0-2.79,4,31.53,31.53,0,0,0-2.1,4.19,33.85,33.85,0,0,0-2.26,8.36,34.81,34.81,0,0,0-.17,7.58,35.9,35.9,0,0,0,2.71,10.7c1,2.43,1.76,3.72,1.58,3.83s-1.14-1-2.48-3.39a31.2,31.2,0,0,1-3.62-10.93,33.82,33.82,0,0,1-.15-8,34.34,34.34,0,0,1,2.19-9,30.83,30.83,0,0,1,2.17-4.54,34,34,0,0,1,2.95-4.35,35.77,35.77,0,0,1,3.73-4,34.89,34.89,0,0,1,9.39-6.1,34.57,34.57,0,0,1,5.15-1.79,31.39,31.39,0,0,1,5.17-.93,32.82,32.82,0,0,1,5-.15,33.73,33.73,0,0,1,16.4,5A31.12,31.12,0,0,1,361.94,84C363.56,86.16,364.16,87.55,364,87.63Z"/><path class="cls-3" d="M349.44,121.23l3.12,5L348.12,129l-3-4.84c-4.56,2.49-9.65,3.76-13.29,3.37l-1-7a21.17,21.17,0,0,0,10.6-2.24l-4.65-7.42c-5.68,1.89-12.23,3.69-16.2-2.66-2.95-4.72-2.06-10.9,4.46-16.1L322,87.21l4.44-2.78,3,4.84a23.78,23.78,0,0,1,10.71-2.94l1.21,6.86a21.34,21.34,0,0,0-8.25,2l4.73,7.55c5.65-1.93,12.11-3.68,16,2.58C356.77,109.9,355.89,116,349.44,121.23ZM332.7,104.36l-3.95-6.31c-2,2-2.15,3.88-1.23,5.35S330.35,105,332.7,104.36Zm14.35,5.93c-1-1.56-2.79-1.59-5.12-1.07l3.84,6.14C347.69,113.48,347.94,111.71,347.05,110.29Z"/><path class="cls-1" d="M314,42.12a22.78,22.78,0,1,1,7.08-31.4A22.76,22.76,0,0,1,314,42.12Z"/><path class="cls-2" d="M311.12,37.53a17.36,17.36,0,1,1,5.39-23.92A17.34,17.34,0,0,1,311.12,37.53Z"/><path class="cls-3" d="M311.58,37.24c-.06-.09.55-.56,1.52-1.5a18.37,18.37,0,0,0,3.43-4.53,17.12,17.12,0,0,0,2.05-8,16.53,16.53,0,0,0-.16-2.41,15.64,15.64,0,0,0-.52-2.46,16.7,16.7,0,0,0-.91-2.43,18.55,18.55,0,0,0-1.32-2.33,18.11,18.11,0,0,0-1.67-2.1,16.68,16.68,0,0,0-1.92-1.76A16.46,16.46,0,0,0,310,8.27a16.65,16.65,0,0,0-2.18-1,17,17,0,0,0-4.32-1.09,17.66,17.66,0,0,0-3.91,0,18.65,18.65,0,0,0-5.48,1.49,9.37,9.37,0,0,1-2,.85c0-.06.52-.59,1.72-1.31a16.06,16.06,0,0,1,5.6-2A17.43,17.43,0,0,1,303.61,5a17.48,17.48,0,0,1,7,2.12,18,18,0,0,1,2.27,1.48A17.58,17.58,0,0,1,315,10.53a18.28,18.28,0,0,1,1.81,2.26,20.15,20.15,0,0,1,1.42,2.51,19.09,19.09,0,0,1,1,2.64,16.76,16.76,0,0,1,.52,2.65,15.17,15.17,0,0,1,.12,2.59,17.16,17.16,0,0,1-2.45,8.49,16.1,16.1,0,0,1-3.91,4.46A5.24,5.24,0,0,1,311.58,37.24Z"/><path class="cls-3" d="M294.15,30l-2.53,1.65-1.48-2.26,2.47-1.61A12.84,12.84,0,0,1,290.75,21l3.57-.55a10.84,10.84,0,0,0,1.26,5.43l3.77-2.46c-1-2.91-2-6.26,1.23-8.36,2.4-1.56,5.59-1.16,8.32,2.15l2.52-1.64,1.47,2.27-2.47,1.6A12.23,12.23,0,0,1,312,24.93l-3.52.68a10.94,10.94,0,0,0-1.08-4.22l-3.84,2.5c1,2.89,2,6.2-1.19,8.28C300.05,33.7,296.89,33.3,294.15,30Zm8.53-8.77,3.21-2.09c-1.05-1-2-1.07-2.76-.59S302.35,20.06,302.68,21.26Zm-2.92,7.44c.79-.52.79-1.45.5-2.65l-3.12,2C298.12,29.06,299,29.17,299.76,28.7Z"/></g><g id="Desk"><path class="cls-4" d="M444.39,404.85c0,.14-99.49.26-222.18.26S0,405,0,404.85s99.47-.26,222.21-.26S444.39,404.7,444.39,404.85Z"/></g><g id="Plants"><path class="cls-5" d="M59.45,374.14c1.13-4.37-1.74-8.76-5-11.94s-7.06-6-8.73-10.21c-2.71-6.8.93-15.6-3.69-21.27-2.72-3.34-7.6-4.45-10-8-1.26-1.87-1.67-4.17-2.17-6.37A64.72,64.72,0,0,0,13.8,286.22a56.12,56.12,0,0,0,6.31,29c1.87,3.57,4.17,7,4.79,11,1,6.47-2.59,13.12-1,19.47,1.82,7.26,10,12.11,10.36,19.58.32,6.32-5.18,11.86-4.77,18.17A16.91,16.91,0,0,0,32.29,391c4.88,8.12,12.06,13.71,22.93,13.53l13.32.47Z"/><g class="cls-6"><path d="M59.45,374.14c1.13-4.37-1.74-8.76-5-11.94s-7.06-6-8.73-10.21c-2.71-6.8.93-15.6-3.69-21.27-2.72-3.34-7.6-4.45-10-8-1.26-1.87-1.67-4.17-2.17-6.37A64.72,64.72,0,0,0,13.8,286.22a56.12,56.12,0,0,0,6.31,29c1.87,3.57,4.17,7,4.79,11,1,6.47-2.59,13.12-1,19.47,1.82,7.26,10,12.11,10.36,19.58.32,6.32-5.18,11.86-4.77,18.17A16.91,16.91,0,0,0,32.29,391c4.88,8.12,12.06,13.71,22.93,13.53l13.32.47Z"/></g><path class="cls-4" d="M71.24,404.88a10.75,10.75,0,0,0,3.66-.08,22.57,22.57,0,0,0,4.33-1.09,18.46,18.46,0,0,0,5.35-2.93,7.45,7.45,0,0,0,2.19-2.93,13.59,13.59,0,0,0,.63-4,37.68,37.68,0,0,1,.31-4.3,12,12,0,0,1,1.63-4.29c1.57-2.76,4.18-5.37,5-9.11s.26-7.67-.36-11.68-1.22-8.35.31-12.51,4.35-7.92,5.81-12.62.77-9.84,1.08-14.87a19.69,19.69,0,0,1,1.74-7.4c1.07-2.36,2.57-4.58,3.74-7.06,2.36-5,2.78-10.71,3.42-16.28.32-2.81.64-5.64,1-8.51a41.65,41.65,0,0,1,1.48-8.52,76.33,76.33,0,0,1,3.18-8.24,27.06,27.06,0,0,0,1.55-4.3,42.41,42.41,0,0,0,.43-4.58,53.73,53.73,0,0,0-.36-9.22c-.36-3.08-.91-6.12-1.24-9.2,0-.19,0-.37-.06-.53L116,240l-.55.27a20.62,20.62,0,0,0-7.17,6.06,32.75,32.75,0,0,0-4.4,8.11c-2.22,5.73-3,11.72-4.15,17.44S97.16,283.27,94.23,288c-1.46,2.37-3.23,4.54-4.77,6.85a18.75,18.75,0,0,0-3.3,7.59c-.79,5.64,2.31,10.59,1.66,15.57A17.36,17.36,0,0,1,85.4,325c-1.21,2.12-2.64,4.1-4,6.08a39.13,39.13,0,0,0-3.58,6.14,19.66,19.66,0,0,0-1.64,6.68c-.32,4.49.32,8.75,0,12.78a29.41,29.41,0,0,1-3.29,10.94c-1.61,3.28-3.4,6.24-4.9,9.11a46.52,46.52,0,0,0-2,4.25,20.59,20.59,0,0,0-1.17,4.21,26.33,26.33,0,0,0-.1,7.6,19.12,19.12,0,0,0,3.81,9.69,8.42,8.42,0,0,0,1.08,1.17,4.77,4.77,0,0,0,.87.74c.5.37.77.54.77.54a16.42,16.42,0,0,1-2.58-2.55A19.25,19.25,0,0,1,65,392.7a26.45,26.45,0,0,1,.17-7.49,20.23,20.23,0,0,1,1.18-4.11c.57-1.38,1.27-2.77,2-4.19,1.51-2.85,3.32-5.8,5-9.1a30,30,0,0,0,3.4-11.14c.35-4.1-.27-8.38.07-12.77a18.72,18.72,0,0,1,1.61-6.45,38.13,38.13,0,0,1,3.53-6c1.35-2,2.79-3.95,4-6.12a17.88,17.88,0,0,0,2.54-7.2c.64-5.31-2.44-10.29-1.64-15.53a18.19,18.19,0,0,1,3.2-7.26c1.52-2.27,3.29-4.44,4.8-6.87,3-4.89,4.49-10.63,5.59-16.38s1.94-11.69,4.12-17.29a32.09,32.09,0,0,1,4.29-7.91,19.85,19.85,0,0,1,6.87-5.8l-.61-.34.06.54c.33,3.12.89,6.17,1.25,9.21a54.18,54.18,0,0,1,.35,9.08c-.09,1.48-.18,3-.41,4.44a27.5,27.5,0,0,1-1.49,4.15,74.52,74.52,0,0,0-3.21,8.33,41.59,41.59,0,0,0-1.5,8.66q-.48,4.31-.95,8.52c-.64,5.6-1.05,11.19-3.33,16-1.12,2.42-2.62,4.65-3.73,7.08a20.54,20.54,0,0,0-1.78,7.67c-.29,5.14.38,10.16-1,14.71s-4.29,8.32-5.76,12.61-.92,8.84-.28,12.83,1.29,7.91.43,11.45-3.3,6.16-4.9,9a12.25,12.25,0,0,0-1.66,4.45,39.6,39.6,0,0,0-.28,4.36,13.27,13.27,0,0,1-.57,3.88,7.11,7.11,0,0,1-2.06,2.8,18.17,18.17,0,0,1-5.22,2.94,22.9,22.9,0,0,1-4.26,1.16,17.89,17.89,0,0,1-2.71.26C71.55,404.87,71.24,404.88,71.24,404.88Z"/><path class="cls-4" d="M113.32,248a1.27,1.27,0,0,0-.13.4l-.3,1.2c-.26,1-.57,2.63-1.07,4.61s-1.73,4.21-2.77,7-2.16,5.89-3.16,9.44-1.92,7.5-2.86,11.73-1.94,8.74-4.26,13c-1.1,2.17-2.32,4.36-3.3,6.75a31.59,31.59,0,0,0-1.92,7.64,155.4,155.4,0,0,1-2.87,16.12c-2.67,10.91-5.21,21.3-7.53,30.77l-6.31,25.1c-1.75,7.1-3.18,12.87-4.18,16.94-.47,1.95-.83,3.49-1.1,4.61-.11.49-.19.89-.26,1.21s-.08.41-.06.42a2,2,0,0,0,.14-.4l.35-1.18c.3-1.11.72-2.64,1.25-4.58,1.07-4.05,2.58-9.8,4.44-16.87s4.06-15.64,6.49-25.05L91.52,326a152.1,152.1,0,0,0,2.86-16.18,30.69,30.69,0,0,1,1.85-7.45c.94-2.34,2.15-4.52,3.24-6.7,2.34-4.35,3.32-9,4.25-13.21s1.78-8.17,2.75-11.71,2-6.71,3-9.44,2.15-5,2.64-7,.71-3.6.92-4.66c.09-.5.16-.9.21-1.22A1.68,1.68,0,0,0,113.32,248Z"/><path class="cls-5" d="M73.59,405c8.7-5.17,11.19-20.48,7.56-29.92s-10-18.08-11-28.15c-.75-7.75,1.79-15.69,0-23.26-2.43-10.21-12.4-18.13-12.29-28.62C58,289.13,61.3,283.58,61,277.7c-.33-7.22-5.87-12.95-9.3-19.3-5.25-9.74-5.6-21.24-7.39-32.16s-6-22.6-15.63-28c-1.43,9.26-3.86,15.61-3.1,28.16.28,4.51,5.51,13.14,6.23,23,.42,5.9.72,11.81,1.08,17.72.35,5.75.72,11.61,2.78,17,1.58,4.12,4.12,7.87,5.29,12.12,2.21,8-.69,16.68,1.09,24.79,1.51,6.88,6.27,12.79,7.24,19.76,1.36,9.79-5,20-1.73,29.31,1.61,4.63,5.42,8.35,6.5,13.14.84,3.71-.07,7.64.69,11.37,1.22,6,12.69,10.68,18.81,10.31"/><path class="cls-4" d="M31.11,207.48a2.89,2.89,0,0,0,0,.52c.05.39.11.89.19,1.52.2,1.34.43,3.31.88,5.85s1.8,5.43,2.85,8.9,2.22,7.44,3.19,11.91,1.83,9.4,2.7,14.72,1.82,11.11,4.46,16.64c1.22,2.78,2.59,5.57,3.62,8.53a38.58,38.58,0,0,1,1.83,9.4,189.65,189.65,0,0,0,2.55,20.27c2.67,13.72,5.2,26.8,7.51,38.7S65.56,367,67.41,376s3.38,16.16,4.44,21.23c.53,2.46,1,4.4,1.25,5.77.14.62.25,1.11.34,1.49a1.89,1.89,0,0,0,.15.51,3.35,3.35,0,0,0-.06-.52l-.27-1.51c-.26-1.39-.62-3.33-1.09-5.8-1-5.09-2.42-12.35-4.17-21.29s-3.93-19.7-6.29-31.57-4.81-25-7.44-38.69a190.08,190.08,0,0,1-2.56-20.2,39.3,39.3,0,0,0-1.9-9.59c-1.06-3-2.45-5.82-3.67-8.58-2.62-5.45-3.54-11.15-4.48-16.44s-1.77-10.26-2.8-14.74-2.17-8.47-3.33-11.92-2.46-6.33-3-8.82-.78-4.48-1-5.8c-.11-.63-.2-1.13-.28-1.51A2.18,2.18,0,0,0,31.11,207.48Z"/><path class="cls-5" d="M410.19,345.37A11.13,11.13,0,0,1,416,351.9a19.67,19.67,0,0,1,.76,8.86c-.65,5.74-3.91,11.54-7.43,16.13-4.83-4.22-6-11.59-6.28-15.36-.52-6,2.16-17,7.18-16.16"/><path class="cls-5" d="M414.92,386.37a9.47,9.47,0,0,1,3.07-9,12.58,12.58,0,0,1,9.3-2.9,5.26,5.26,0,0,1,4.08,1.83,4.06,4.06,0,0,1,.06,4.11,8.21,8.21,0,0,1-3,3c-4.19,2.63-8.73,4.4-13.47,3"/><path class="cls-4" d="M408.71,404a8.33,8.33,0,0,1,.18-1.18c.15-.83.35-1.9.58-3.19a33.58,33.58,0,0,1,3.29-10.19,20.42,20.42,0,0,1,7.32-7.77,14.08,14.08,0,0,1,3-1.32c.36-.12.66-.17.86-.22a1,1,0,0,1,.3,0,21.65,21.65,0,0,0-4,1.83,21.09,21.09,0,0,0-7.1,7.73,36,36,0,0,0-3.37,10c-.29,1.34-.53,2.42-.71,3.17A6,6,0,0,1,408.71,404Z"/><path class="cls-4" d="M408.9,354a3.65,3.65,0,0,1,.06.52c0,.38.05.87.08,1.48.07,1.29.15,3.15.22,5.45.15,4.6.27,11,.24,18s-.21,13.39-.39,18c-.1,2.3-.19,4.16-.27,5.45,0,.61-.07,1.1-.1,1.48a3.34,3.34,0,0,1-.06.51,1.56,1.56,0,0,1,0-.51c0-.39,0-.88,0-1.49,0-1.34.07-3.19.13-5.45.11-4.6.24-11,.27-18s0-13.38-.11-18c0-2.27-.07-4.11-.09-5.45,0-.61,0-1.1,0-1.49A1.81,1.81,0,0,1,408.9,354Z"/><path class="cls-5" d="M406.55,389.87a22.24,22.24,0,0,0-12.13-16.28c-1.62-.77-3.73-1.28-5.06-.08s-1,3.37-.38,5a19,19,0,0,0,17.45,11.79"/><path class="cls-4" d="M395.2,379a5,5,0,0,1,1,.45,9.85,9.85,0,0,1,1.16.62,16.87,16.87,0,0,1,1.47.92,20.7,20.7,0,0,1,1.69,1.27,22.12,22.12,0,0,1,1.8,1.64,24.92,24.92,0,0,1,3.42,4.39,24,24,0,0,1,2.25,5.08,21.86,21.86,0,0,1,.57,2.37,19.67,19.67,0,0,1,.29,2.09,15.77,15.77,0,0,1,.08,1.74,10.53,10.53,0,0,1,0,1.32,5,5,0,0,1-.13,1.11c-.09,0,.07-1.6-.21-4.14a20.27,20.27,0,0,0-.33-2.06,22,22,0,0,0-.6-2.31,25.22,25.22,0,0,0-2.24-5,25.76,25.76,0,0,0-3.34-4.33,21.72,21.72,0,0,0-1.74-1.64c-.55-.51-1.13-.91-1.64-1.3C396.62,379.79,395.16,379.12,395.2,379Z"/></g><g id="Character"><path class="cls-4" d="M339.36,185.61s-46.69-33.08-52.61-36.34c-5.63-3.1-23.49-5.35-25.1-5.74l-32-7L180.79,138l-14,8.43-35.48,16.34A42,42,0,0,0,110,185.06L87.56,239.77l55.59,16.45,1.73,57.71-13.11,90.92H294.49l-8.18-174.26,16.94,3.73Z"/><path class="cls-7" d="M144.19,233s-.59.43-1.72,1.09a14.32,14.32,0,0,1-5.2,1.9,19.35,19.35,0,0,1-8.11-1.17,58.35,58.35,0,0,1-9.24-4c-3.18-1.65-6.14-3.33-8.93-4.67a48.61,48.61,0,0,0-7.61-3A29.45,29.45,0,0,0,98,222c-.65-.06-1.16-.1-1.5-.11l-.53,0a16.41,16.41,0,0,1,2,.07,29.59,29.59,0,0,1,5.45,1,48.34,48.34,0,0,1,7.66,3c2.79,1.34,5.77,3,8.93,4.65a58.89,58.89,0,0,0,9.21,4,19.5,19.5,0,0,0,8,1.22,14.61,14.61,0,0,0,5.18-1.83c.57-.32,1-.57,1.3-.76Z"/><path class="cls-7" d="M141.81,206h-.37l-1.05,0c-.93,0-2.25-.14-3.89-.31a102.25,102.25,0,0,1-25-5.76c-1.54-.57-2.78-1.06-3.63-1.42l-1-.42a3.3,3.3,0,0,1-.34-.15,3.25,3.25,0,0,1,.35.12c.29.1.61.23,1,.38.86.34,2.1.8,3.65,1.36a111.17,111.17,0,0,0,25,5.75c1.64.18,3,.3,3.88.37l1.06.09A2.52,2.52,0,0,1,141.81,206Z"/><path class="cls-7" d="M176.78,149.27a19.78,19.78,0,0,1-1.29,1.82,25.76,25.76,0,0,1-4.34,4.29,38.58,38.58,0,0,1-7.76,4.64,78.44,78.44,0,0,1-10.4,3.79c-3.77,1.12-7.38,2.11-10.61,3.17a63.1,63.1,0,0,0-8.38,3.35,37.7,37.7,0,0,0-5.22,3.11c-.59.4-1,.78-1.32,1l-.46.34s.59-.54,1.74-1.4a34,34,0,0,1,5.2-3.18,60.91,60.91,0,0,1,8.38-3.4c3.23-1.07,6.84-2.07,10.61-3.18a79.57,79.57,0,0,0,10.38-3.78,39,39,0,0,0,7.75-4.58,26.11,26.11,0,0,0,4.36-4.22c.48-.54.77-1,1-1.31S176.78,149.27,176.78,149.27Z"/><path class="cls-7" d="M276.83,156.73l-.42-.23c-.28-.16-.67-.41-1.2-.68a30.14,30.14,0,0,0-4.65-2,51.47,51.47,0,0,0-7.27-1.87c-2.78-.53-5.87-.94-9.11-1.39l-16.59-2.35-5-.73-1.36-.22-.48-.08.48,0,1.37.17,5,.67,16.6,2.29c3.24.46,6.33.87,9.11,1.42a48.55,48.55,0,0,1,7.29,1.91,29.06,29.06,0,0,1,4.64,2.08C276.29,156.34,276.83,156.73,276.83,156.73Z"/><path class="cls-7" d="M254.17,167.77l-1.08.48c-.71.32-1.77.77-3.15,1.32-2.74,1.09-6.76,2.59-11.84,4.08a128.8,128.8,0,0,1-18.13,4c-6.93,1.06-14.66,1.06-22.72.8s-15.75-.62-22.73-.18a70.28,70.28,0,0,0-18.2,3.32,45.08,45.08,0,0,0-11.19,5.49c-1.2.87-2.12,1.55-2.71,2.06s-.92.75-.92.75l.9-.78c.57-.52,1.49-1.22,2.68-2.09a44.48,44.48,0,0,1,11.19-5.57,70,70,0,0,1,18.24-3.37c7-.45,14.69-.1,22.75.16s15.76.27,22.68-.78a130.9,130.9,0,0,0,18.12-4c5.08-1.47,9.1-2.95,11.85-4,1.38-.54,2.44-1,3.16-1.28S254.17,167.77,254.17,167.77Z"/><path class="cls-7" d="M269.51,177.55l-.18.08-.52.19c-.46.17-1.13.39-2,.63a25.77,25.77,0,0,1-6.73,1,23.39,23.39,0,0,1-6.74-1c-.83-.26-1.5-.48-2-.67l-.52-.21-.18-.08.19,0,.54.18c.45.16,1.13.36,2,.59a24.65,24.65,0,0,0,6.7.9,27.83,27.83,0,0,0,6.69-1c.84-.22,1.52-.42,2-.56l.54-.16A.67.67,0,0,1,269.51,177.55Z"/><path class="cls-7" d="M238,205.84s-4.79,1-12.63,2.18c-3.91.59-8.59,1.18-13.8,1.7s-11,.9-17,1.13-11.8.21-17,.1-10-.38-13.89-.69c-7.9-.6-12.76-1.26-12.76-1.26l.89.07,2.53.26c2.21.23,5.4.51,9.35.78s8.65.52,13.89.65,11,.09,17-.11,11.78-.64,17-1.13,9.89-1.07,13.8-1.64,7.08-1.08,9.26-1.47l2.52-.43Z"/><path class="cls-7" d="M277.13,203a3.28,3.28,0,0,1-.36,0l-1,0c-.9,0-2.21,0-3.83,0-3.24,0-7.72-.12-12.65-.55s-9.36-1.09-12.55-1.66c-1.59-.29-2.88-.54-3.76-.74l-1-.22a2.85,2.85,0,0,1-.35-.09l.36,0,1,.18,3.78.67c3.19.54,7.62,1.18,12.54,1.61s9.39.56,12.63.61l3.83,0h1Z"/><path class="cls-7" d="M227.17,244.23l-.82.13-2.36.32c-1,.15-2.27.33-3.74.42s-3.13.31-5,.34-3.87.16-6.05.13c-1.08,0-2.21,0-3.37,0l-3.57-.12c-4.88-.2-10.24-.57-15.86-1.06s-11-1-15.85-1.29-9.28-.5-13-.45l-2.63,0-2.35.11c-1.47.06-2.73.13-3.76.26l-2.36.23-.83.07.82-.11,2.37-.27c1-.14,2.29-.22,3.75-.29l2.35-.14,2.64,0c3.7-.07,8.1.12,13,.41s10.23.8,15.85,1.27,11,.87,15.86,1.08l3.57.12c1.15,0,2.28,0,3.36,0,2.18.05,4.2,0,6-.1s3.51-.22,5-.31,2.72-.24,3.74-.38l2.37-.29Z"/><path class="cls-7" d="M286.05,232.49l-.45.06-1.27.13c-1.11.12-2.71.26-4.7.39-4,.27-9.47.47-15.54.31s-11.55-.65-15.5-1.12c-2-.24-3.57-.46-4.67-.64l-1.27-.2-.44-.08a3.68,3.68,0,0,1,.45,0l1.27.16c1.1.15,2.7.35,4.67.57,4,.44,9.43.9,15.5,1.06s11.55,0,15.52-.25c2-.11,3.59-.22,4.7-.32l1.28-.09Z"/><path class="cls-7" d="M286.75,268.83s-.5,0-1.46-.09-2.36-.2-4.18-.25c-3.64-.18-8.92-.22-15.42.1s-14.23,1.09-22.76,2.21-17.9,2.58-27.76,3.85a241.6,241.6,0,0,1-27.94,2.12,128.25,128.25,0,0,1-22.81-1.65,91.57,91.57,0,0,1-14.95-3.77c-.87-.27-1.63-.57-2.28-.83l-1.65-.65-1.35-.55,1.37.51,1.65.63c.65.26,1.41.54,2.28.81a92.23,92.23,0,0,0,14.95,3.7,128.35,128.35,0,0,0,22.78,1.61,243.75,243.75,0,0,0,27.92-2.14c9.86-1.27,19.22-2.73,27.76-3.83s16.27-1.88,22.78-2.17,11.79-.24,15.43,0S286.75,268.83,286.75,268.83Z"/><path class="cls-7" d="M231.77,306.16s-4.81.82-12.65,1.66c-3.92.43-8.6.81-13.8,1.11s-10.93.43-16.94.4-11.74-.3-16.94-.65-9.88-.82-13.79-1.3c-7.82-.95-12.62-1.84-12.62-1.84s.31,0,.88.12l2.51.36c1.09.17,2.42.37,4,.56s3.31.45,5.27.65c3.91.47,8.58.9,13.78,1.26s10.92.58,16.93.63,11.73-.13,16.93-.39,9.88-.65,13.8-1.06c2-.17,3.72-.4,5.28-.58s2.89-.34,4-.5l2.52-.33Z"/><path class="cls-7" d="M286.15,299l-.53.18-1.54.46c-1.33.41-3.27,1-5.68,1.6-4.82,1.29-11.52,2.89-19,4.27s-14.32,2.25-19.28,2.75c-2.49.25-4.5.43-5.89.52l-1.6.12-.56,0,.56-.07,1.6-.15c1.39-.12,3.39-.31,5.87-.59,4.95-.53,11.78-1.44,19.26-2.81s14.19-2.95,19-4.2c2.41-.63,4.36-1.15,5.7-1.53l1.55-.43Z"/><path class="cls-7" d="M193.62,347.86a72.5,72.5,0,0,1-7.78.76c-2.42.14-5.3.15-8.49,0a88.2,88.2,0,0,1-20.48-3.43c-3.06-.91-5.78-1.85-8-2.77a70.88,70.88,0,0,1-7.11-3.26l.5.22,1.41.66c.61.29,1.36.64,2.24,1s1.88.83,3,1.24c2.24.9,5,1.83,8,2.73a97.32,97.32,0,0,0,10.11,2.3,100,100,0,0,0,10.32,1.12c3.18.15,6.06.15,8.47,0,1.21,0,2.29-.13,3.25-.19s1.78-.14,2.45-.22l1.55-.16Z"/><path class="cls-7" d="M289.82,345.31l-1,.17-2.85.46c-2.49.4-6.09.94-10.54,1.58-8.9,1.27-21.22,2.85-34.88,4.2s-26.05,2.23-35,2.73c-4.49.25-8.12.42-10.63.52l-2.9.11c-.66,0-1,0-1,0l1-.07,2.89-.15,10.63-.59c9-.54,21.37-1.43,35-2.78s26-2.91,34.88-4.15L286,345.86l2.87-.42Z"/><path class="cls-7" d="M295.06,382.14s-2.19.45-6.17,1.1-9.78,1.46-17,2.06a220.56,220.56,0,0,1-25.34.62c-9.55-.31-20-1.37-30.93-2.71s-21.35-2.7-30.87-3.44a197.44,197.44,0,0,0-25.32-.56,124.74,124.74,0,0,0-17,1.94c-2,.38-3.51.7-4.54,1s-1.59.35-1.59.35l1.58-.39c1-.27,2.56-.6,4.54-1a122.6,122.6,0,0,1,17-2,197.25,197.25,0,0,1,25.35.52c9.52.73,19.94,2.08,30.87,3.42s21.38,2.41,30.91,2.73a223.52,223.52,0,0,0,25.33-.58c7.2-.57,13-1.36,17-2,2-.32,3.54-.57,4.58-.76Z"/><path class="cls-7" d="M324.39,176.66s-.29.8-.94,2.18a40.42,40.42,0,0,1-3.26,5.57,71.4,71.4,0,0,1-6,7.45c-2.42,2.68-5.2,5.51-8,8.56a73.84,73.84,0,0,0-7.29,9.15,38.43,38.43,0,0,0-4.3,8.51,25.8,25.8,0,0,0-1.38,6.27c-.11.76-.07,1.35-.11,1.75s0,.61,0,.61a22.15,22.15,0,0,1,.07-2.37,25.51,25.51,0,0,1,1.32-6.31,37.74,37.74,0,0,1,4.28-8.57,71.63,71.63,0,0,1,7.3-9.18c2.83-3.06,5.61-5.88,8-8.55a74.15,74.15,0,0,0,6.05-7.4,42.9,42.9,0,0,0,3.31-5.53c.36-.67.57-1.23.75-1.59S324.39,176.66,324.39,176.66Z"/><path class="cls-7" d="M278.33,193.89l.34-.25,1-.67c.87-.58,2.1-1.46,3.58-2.6s3.19-2.56,5-4.23a78.24,78.24,0,0,0,5.55-5.8,76.47,76.47,0,0,0,4.84-6.4c1.37-2.06,2.51-4,3.39-5.61s1.56-3,2-4c.2-.42.37-.78.51-1.09a3.35,3.35,0,0,1,.2-.37,53.63,53.63,0,0,1-2.57,5.48,65.15,65.15,0,0,1-3.36,5.65,74.28,74.28,0,0,1-4.85,6.43,76.32,76.32,0,0,1-5.57,5.8c-1.83,1.67-3.55,3.09-5.05,4.21A52.59,52.59,0,0,1,278.33,193.89Z"/><path class="cls-8" d="M206.87,240.65l.24-.11.72-.28c.64-.21,1.56-.62,2.73-1.16a36.07,36.07,0,0,0,8.85-6.29,70.36,70.36,0,0,0,10.13-12.57A177.33,177.33,0,0,0,239.41,203a297.19,297.19,0,0,0,14-33.22c1.58-4.34,2.8-7.87,3.66-10.31.42-1.19.75-2.13,1-2.81l.27-.72c.07-.16.1-.25.11-.24a.8.8,0,0,1-.06.25l-.22.75c-.22.68-.52,1.63-.9,2.83-.8,2.46-2,6-3.51,10.37a277.19,277.19,0,0,1-13.9,33.33,172.51,172.51,0,0,1-9.94,17.23,68.69,68.69,0,0,1-10.27,12.58,35.26,35.26,0,0,1-9,6.21,27.24,27.24,0,0,1-2.78,1.08l-.74.23A.8.8,0,0,1,206.87,240.65Z"/><path class="cls-8" d="M205.19,261.81a4.44,4.44,0,0,1,.55-.41l1.61-1.12c1.4-1,3.41-2.4,5.83-4.26,4.85-3.68,11.21-9.19,18.06-15.49,3.43-3.14,6.72-6.11,9.57-8.95a73.24,73.24,0,0,0,7.05-8,45,45,0,0,0,3.87-6.06c.41-.75.67-1.35.88-1.75a3,3,0,0,1,.33-.6,3.82,3.82,0,0,1-.24.64c-.17.41-.41,1-.8,1.8a40.39,40.39,0,0,1-3.75,6.18,70,70,0,0,1-7,8.12c-2.84,2.88-6.13,5.86-9.56,9a237.63,237.63,0,0,1-18.19,15.41c-2.45,1.82-4.5,3.21-5.93,4.13-.71.47-1.28.81-1.67,1A2.94,2.94,0,0,1,205.19,261.81Z"/><path class="cls-8" d="M178.21,368.72a.75.75,0,0,1,.12-.22l.39-.64c.35-.55.89-1.36,1.62-2.37,1.44-2,3.68-4.87,6.62-8.22,5.92-6.66,14.23-15.73,23.38-25.77l23.51-25.66L241,298.1l2-2.08.53-.54.19-.17a1.24,1.24,0,0,1-.16.21l-.48.57-1.9,2.15-7,7.84-23.4,25.75c-9.16,10-17.45,19.08-23.49,25.67-3,3.32-5.23,6.11-6.73,8.1-.74,1-1.3,1.78-1.68,2.32l-.44.61C178.27,368.66,178.22,368.73,178.21,368.72Z"/><path class="cls-8" d="M271.56,189a9.23,9.23,0,0,1-.38-1.52,16.74,16.74,0,0,1-.31-1.81c-.1-.71-.24-1.52-.29-2.42s-.14-1.89-.14-3,0-2.2.08-3.39a48,48,0,0,1,1.2-7.68,47.47,47.47,0,0,1,2.55-7.35c.51-1.08,1-2.12,1.51-3s1-1.78,1.51-2.54,1-1.42,1.39-2a17,17,0,0,1,1.13-1.45,9.17,9.17,0,0,1,1-1.17A7.83,7.83,0,0,1,280,153c-.31.4-.67.89-1.06,1.49s-.87,1.26-1.31,2-1,1.6-1.44,2.55-1,1.95-1.46,3a45.71,45.71,0,0,0-3.7,14.88c-.07,1.18-.16,2.3-.13,3.36s0,2,.08,2.93.14,1.7.2,2.41.15,1.31.24,1.81A9.66,9.66,0,0,1,271.56,189Z"/><path class="cls-8" d="M286.11,224.87a93.65,93.65,0,0,1-4-8.88,96.25,96.25,0,0,1-3.56-9.07,93.65,93.65,0,0,1,4,8.88A95,95,0,0,1,286.11,224.87Z"/><path class="cls-8" d="M143.15,193.17c-.07,0-.85-1.39-2.32-3.56a49.79,49.79,0,0,0-14.58-14.14c-2.21-1.41-3.66-2.14-3.62-2.22a4.64,4.64,0,0,1,1.05.44,29,29,0,0,1,2.76,1.47,44.86,44.86,0,0,1,8.17,6.27,44.14,44.14,0,0,1,6.51,8,30.61,30.61,0,0,1,1.56,2.7A5.1,5.1,0,0,1,143.15,193.17Z"/><path class="cls-8" d="M182.44,169.52a3.66,3.66,0,0,1,0-1,8.4,8.4,0,0,1,.61-2.41,8,8,0,0,1,1.69-2.54l.05,0,0,.06a1.29,1.29,0,0,1,.15.44,1.74,1.74,0,0,1-.24-.39h.08a10.31,10.31,0,0,0-1.57,2.55A12.56,12.56,0,0,0,182.44,169.52Z"/><path class="cls-8" d="M195.68,176.39a3.81,3.81,0,0,1-.2-1,9.4,9.4,0,0,1,.05-2.46,9.28,9.28,0,0,1,.7-2.36,3.12,3.12,0,0,1,.5-.89,15.64,15.64,0,0,0-1,3.28A16.6,16.6,0,0,0,195.68,176.39Z"/><path class="cls-8" d="M210.12,175.25a11,11,0,0,0-1.47-5.37,2.65,2.65,0,0,1,.5.68,7.83,7.83,0,0,1,.78,1.85,7.36,7.36,0,0,1,.27,2A2.73,2.73,0,0,1,210.12,175.25Z"/><path class="cls-8" d="M222.73,169.72a14.91,14.91,0,0,0-1.5-2.55,16.6,16.6,0,0,0-2.1-2.07,2.93,2.93,0,0,1,.75.46,8.13,8.13,0,0,1,2.6,3.32A2.53,2.53,0,0,1,222.73,169.72Z"/><path class="cls-8" d="M231.42,161.15a6,6,0,0,0-1.72-2.73,6.21,6.21,0,0,0-2.95-1.31.76.76,0,0,1,.26,0,3.36,3.36,0,0,1,.72.1,5,5,0,0,1,2.11,1.07,5.06,5.06,0,0,1,1.37,1.93,2.92,2.92,0,0,1,.19.69C231.43,161.05,231.44,161.14,231.42,161.15Z"/><path class="cls-8" d="M236.07,145.31a5.63,5.63,0,0,0-5.53-1,4.57,4.57,0,0,1,5.53,1Z"/><path class="cls-8" d="M173.77,158.85A2,2,0,0,1,174,158a5.68,5.68,0,0,1,1.12-1.81,5.57,5.57,0,0,1,1.71-1.27,2,2,0,0,1,.83-.28,8.45,8.45,0,0,0-2.39,1.69A8.21,8.21,0,0,0,173.77,158.85Z"/><path class="cls-8" d="M170.61,148.32a2.58,2.58,0,0,1,.49-.81,7.17,7.17,0,0,1,1.68-1.56,7.28,7.28,0,0,1,2.07-1,3.28,3.28,0,0,1,.94-.16,11.87,11.87,0,0,0-2.9,1.31A11.12,11.12,0,0,0,170.61,148.32Z"/><path class="cls-4" d="M145.75,209.77s-.05-.05-.07,0a1.75,1.75,0,0,0-.08.33c0,.3-.11.76-.16,1.34-.12,1.17-.25,2.88-.4,5-.28,4.21-.61,10-.93,16.47s-.54,12.27-.68,16.49c-.07,2-.13,3.73-.17,5,0,.54,0,1,0,1.36a1.58,1.58,0,0,1-.06.48,1.87,1.87,0,0,1-.05-.48c0-.37,0-.82,0-1.36,0-1.18,0-2.89,0-5,.05-4.23.22-10.06.53-16.5s.71-12.27,1.09-16.48c.19-2.1.38-3.8.55-5a11.26,11.26,0,0,1,.27-1.35.86.86,0,0,1,.14-.33C145.74,209.66,145.76,209.79,145.75,209.77Z"/><path class="cls-4" d="M255.92,7.79c-8.34-2.55-17,4.91-25.59,3.24-5.2-1-9.12-5.17-13.75-7.76-6.91-3.86-16.69-4.48-23.76-.9s-11.61,7.42-12.57,15.28c-6.43-3.69-17.15,4.4-20.81,12.21s-2.73,15.88-.66,24.25a113.73,113.73,0,0,0,18.81,40c.78,1.06,2,2.23,3.22,1.67a2.85,2.85,0,0,0,1.23-2.3c1.23-7.66.26-15.46-.4-23.18s-1-15.69,1.45-23,8.19-14.07,15.8-15.57c5.61-1.11,11.45.72,16.44,3.52s9.38,6.55,14.13,9.74,10.09,5.88,15.81,6.13,11.85-2.45,14.29-7.63-.3-12.54-5.9-13.73a11.61,11.61,0,0,0,10.17-10A11.62,11.62,0,0,0,255.92,7.79Z"/><path class="cls-9" d="M230.2,141.94l-.81-16.56s21.82-4.18,21.32-26.13c-.24-10.6-2.51-32.38-4.79-52.07A40.93,40.93,0,0,0,203.85,11l-2.12.08C179,13.21,168,33.75,170.8,56.46l5.25,88.41a27.12,27.12,0,0,0,28.5,25.46h0A27.12,27.12,0,0,0,230.2,141.94Z"/><path class="cls-10" d="M229.41,125.36s-13.82,1.62-28.88-7.12c0,0,7.31,15.55,29.13,12.81Z"/><path class="cls-4" d="M238.52,62.05a3.14,3.14,0,0,1-2.91,3.27,3,3,0,0,1-3.33-2.71,3.14,3.14,0,0,1,2.91-3.27A3,3,0,0,1,238.52,62.05Z"/><path class="cls-4" d="M241.57,58.07c-.37.42-2.8-1.26-6.18-1.13s-5.78,1.9-6.16,1.5c-.18-.18.19-.93,1.23-1.75A8.66,8.66,0,0,1,235.38,55a8.27,8.27,0,0,1,4.94,1.41C241.38,57.15,241.76,57.88,241.57,58.07Z"/><path class="cls-4" d="M205.4,64.36a3.12,3.12,0,0,1-2.91,3.26,3,3,0,0,1-3.32-2.71,3.13,3.13,0,0,1,2.9-3.27A3,3,0,0,1,205.4,64.36Z"/><path class="cls-4" d="M208.46,59.86c-.38.42-2.82-1.25-6.18-1.13s-5.79,1.9-6.17,1.5c-.18-.17.18-.93,1.24-1.75a8.53,8.53,0,0,1,4.91-1.7,8.25,8.25,0,0,1,4.94,1.4C208.26,58.94,208.64,59.67,208.46,59.86Z"/><path class="cls-4" d="M221.57,84.43c0-.19,2.06-.63,5.44-1.18.86-.12,1.67-.32,1.79-.91a4.38,4.38,0,0,0-.66-2.53c-.88-2.06-1.81-4.21-2.78-6.47-3.86-9.21-6.69-16.79-6.32-17s3.81,7.19,7.67,16.4l2.67,6.51a5,5,0,0,1,.57,3.36A2.13,2.13,0,0,1,228.57,84a5.71,5.71,0,0,1-1.45.26C223.71,84.53,221.59,84.62,221.57,84.43Z"/><path class="cls-4" d="M211.73,87.11c.55,0,.68,3.61,3.91,6.1s7.1,1.94,7.15,2.45c.06.23-.85.75-2.49.85a9.13,9.13,0,0,1-6-1.85,7.88,7.88,0,0,1-3-5.12C211.1,88,211.48,87.1,211.73,87.11Z"/><path class="cls-4" d="M208.19,42.57c-.3.93-3.69.61-7.62,1.23s-7.1,1.8-7.66,1c-.25-.39.28-1.27,1.54-2.2a13.44,13.44,0,0,1,11.64-1.7C207.56,41.44,208.31,42.13,208.19,42.57Z"/><path class="cls-4" d="M240,48.35c-.56.79-2.91.07-5.71.13s-5.14.7-5.71-.08c-.25-.38.09-1.16,1.1-1.92a8.27,8.27,0,0,1,9.21,0C239.89,47.19,240.24,48,240,48.35Z"/><path class="cls-9" d="M173.16,72.64c-.38-.15-15.23-3.93-14.22,11s15.84,10.89,15.83,10.46S173.16,72.64,173.16,72.64Z"/><path class="cls-10" d="M169.82,88.78c-.07,0-.25.2-.68.43a2.65,2.65,0,0,1-1.95.17c-1.62-.48-3.12-2.9-3.37-5.59A8.53,8.53,0,0,1,164.3,80a3,3,0,0,1,1.82-2.14,1.34,1.34,0,0,1,1.59.62c.23.4.16.71.24.73s.3-.27.14-.89a1.64,1.64,0,0,0-.65-.89,2,2,0,0,0-1.47-.29,3.67,3.67,0,0,0-2.57,2.51,8.87,8.87,0,0,0-.63,4.23c.3,3,2,5.74,4.24,6.22a2.82,2.82,0,0,0,2.37-.56C169.81,89.14,169.87,88.8,169.82,88.78Z"/><path class="cls-4" d="M250.4,42.41A31.7,31.7,0,0,1,222,37.06c-5.49-4.34-9.84-10.7-16.6-12.52-4.55-1.23-9.51-.08-13.56,2.34a34.53,34.53,0,0,0-10,9.86c4.63,11,2.22,23.54-.26,35.22A5.92,5.92,0,0,1,180,75.48c-1.73,1.43-4.42.45-6-1.11-2.56-2.5-3.65-6.13-4.41-9.64a61.74,61.74,0,0,1-.71-24.33,42.08,42.08,0,0,1,10.8-21.61A39.87,39.87,0,0,1,207.18,7.26a48.89,48.89,0,0,1,28.69,9.14c3.88,2.72,7.48,6.05,9.59,10.29"/><path class="cls-8" d="M262.41,12.85a3.36,3.36,0,0,1-.09,1.31,6.13,6.13,0,0,1-2,3.16,9.47,9.47,0,0,1-5.54,2.07,16.28,16.28,0,0,1-3.73-.1,7.88,7.88,0,0,1-3.88-1.64,5.31,5.31,0,0,1-2-4.16,4.66,4.66,0,0,1,3-3.94,5.7,5.7,0,0,1,2.69-.44,4.84,4.84,0,0,1,2.62,1.06,6.83,6.83,0,0,1,2.42,5.17,7.93,7.93,0,0,1-2.18,5.58,12,12,0,0,1-5.32,3.28c-4.12,1.29-8.73.66-12.87-.95A55.73,55.73,0,0,1,224.24,17,72.76,72.76,0,0,0,214,10.89a22.32,22.32,0,0,0-10.39-2.14,21.28,21.28,0,0,0-8.9,2.62A26.45,26.45,0,0,0,185,20.76,35.53,35.53,0,0,0,183.24,24a9.22,9.22,0,0,1-.59,1.16,1.25,1.25,0,0,1,.09-.31c.08-.21.19-.52.36-.91a27.83,27.83,0,0,1,1.68-3.34,26.2,26.2,0,0,1,9.63-9.7,21.63,21.63,0,0,1,9.11-2.78,22.76,22.76,0,0,1,10.71,2.14,70.6,70.6,0,0,1,10.41,6.09,56.63,56.63,0,0,0,11.19,6.2c4,1.57,8.46,2.16,12.38.94a11.29,11.29,0,0,0,5-3.05,7.23,7.23,0,0,0,2-5.09,6.17,6.17,0,0,0-2.14-4.68,4.53,4.53,0,0,0-4.66-.56,4,4,0,0,0-2.71,3.39,4.72,4.72,0,0,0,1.79,3.74,7.32,7.32,0,0,0,3.62,1.57,15.45,15.45,0,0,0,3.62.16,9.27,9.27,0,0,0,5.38-1.88,6,6,0,0,0,2-3A11.79,11.79,0,0,0,262.41,12.85Z"/><path class="cls-8" d="M157.22,42.87a24.81,24.81,0,0,0,4.63,1,12.72,12.72,0,0,0,5-.7,21.82,21.82,0,0,0,5.53-2.9,17.49,17.49,0,0,0,6.37-9.17,37.38,37.38,0,0,0,.84-4.68,4,4,0,0,1,.12,1.29,15,15,0,0,1-.45,3.53,17.18,17.18,0,0,1-6.44,9.63,20.73,20.73,0,0,1-5.76,3,12.67,12.67,0,0,1-5.26.57,11.68,11.68,0,0,1-3.44-.91A3.79,3.79,0,0,1,157.22,42.87Z"/><path class="cls-8" d="M158.26,53.7c0-.13,1.78.19,4.6-.06A20.59,20.59,0,0,0,180,41.45c1.17-2.58,1.43-4.36,1.57-4.33a3.93,3.93,0,0,1-.12,1.25,16.9,16.9,0,0,1-1,3.29,19.88,19.88,0,0,1-17.54,12.5,17.44,17.44,0,0,1-3.42-.16A3.53,3.53,0,0,1,158.26,53.7Z"/><path class="cls-10" d="M197.76,74.58a.41.41,0,0,1-.19-.79.4.4,0,0,1,.46.31A.39.39,0,0,1,197.76,74.58Z"/><path class="cls-10" d="M204.15,72.9a.44.44,0,0,1-.47-.37.38.38,0,1,1,.72-.17A.43.43,0,0,1,204.15,72.9Z"/><path class="cls-10" d="M208.48,72.64c-.2,0-.41-.21-.46-.54s.06-.63.27-.66.41.2.46.54S208.68,72.6,208.48,72.64Z"/><path class="cls-10" d="M201.07,78.51c-.21,0-.38-.09-.38-.22s.15-.24.36-.25.38.09.38.22S201.27,78.51,201.07,78.51Z"/><path class="cls-10" d="M206.93,76.94a.4.4,0,0,1-.42-.38.39.39,0,0,1,.31-.46.39.39,0,0,1,.42.37A.41.41,0,0,1,206.93,76.94Z"/><path class="cls-10" d="M237.54,72.19a.4.4,0,0,1-.46-.32.41.41,0,0,1,.27-.5.4.4,0,0,1,.46.32A.41.41,0,0,1,237.54,72.19Z"/><path class="cls-10" d="M241.92,71.63a.42.42,0,0,1-.43-.41.38.38,0,1,1,.73-.1A.41.41,0,0,1,241.92,71.63Z"/><path class="cls-10" d="M233.67,72.43a.35.35,0,0,1-.44-.23.35.35,0,0,1,.29-.4A.34.34,0,0,1,234,72,.33.33,0,0,1,233.67,72.43Z"/><path class="cls-10" d="M237.08,76.71a.41.41,0,0,1-.53-.23.38.38,0,1,1,.67-.32A.4.4,0,0,1,237.08,76.71Z"/><path class="cls-10" d="M240.8,75.83a.35.35,0,0,1-.29-.39.34.34,0,0,1,.43-.22.35.35,0,0,1,.29.39A.34.34,0,0,1,240.8,75.83Z"/><path class="cls-5" d="M233.37,325l-.23-22.23s-14.84-20.55-9-42.84c0,0,9.67-6.8,35.6-2.81,0,0,32.55-31.71,76.18-23.65s47.69,46.08,48.1,56.43.32,30.45-14.69,50.1l-1,19.5s-3.58,7.35-13.94,6.85-9.76-2-9.76-2-13,10.49-13.57,13.24-2.6,13.12-2.6,13.12-4.5,6.14-14.24,6.85a21,21,0,0,1-11.12-2.28,11,11,0,0,1-5.51-6.46,22.85,22.85,0,0,0-12.23-14.1L278.65,373s-2.72,2.46-12.15,3.48-9.46-2.34-9.46-2.34-14.67,3.39-25.7-11C222.63,351.76,217.91,331.3,233.37,325Z"/><path class="cls-4" d="M323.82,326.32a5.87,5.87,0,0,1,.48-.68c.33-.44.82-1.08,1.43-1.92,1.23-1.67,3-4.13,4.86-7.32a85.14,85.14,0,0,0,5.73-11.69c.91-2.27,1.76-4.7,2.52-7.26s1.37-5.31.71-8a11.37,11.37,0,0,0-4.8-6.31,33.72,33.72,0,0,0-6.78-3.52,45.18,45.18,0,0,0-12.59-3,45.83,45.83,0,0,0-8.77,0c-1,.1-1.83.2-2.37.28a4.67,4.67,0,0,1-.83.08,4.47,4.47,0,0,1,.81-.18c.54-.12,1.34-.25,2.37-.38a43.11,43.11,0,0,1,8.82-.17,44.49,44.49,0,0,1,12.74,3,34.25,34.25,0,0,1,6.9,3.55,11.92,11.92,0,0,1,5,6.6c.69,2.88,0,5.73-.73,8.28s-1.64,5-2.56,7.3a80.91,80.91,0,0,1-5.87,11.7,78.4,78.4,0,0,1-5,7.26c-.64.82-1.16,1.44-1.52,1.86A4.29,4.29,0,0,1,323.82,326.32Z"/><path class="cls-4" d="M262.81,258.12a1.67,1.67,0,0,1,.16.52,5.49,5.49,0,0,1,.06,1.55,8.76,8.76,0,0,1-2.49,5.05c-1.64,1.8-4.12,3.26-6.53,5.24a55,55,0,0,0-7.31,7.09,58.25,58.25,0,0,0-9.63,15.75c-.89,2.19-1.49,4-1.88,5.29-.18.59-.32,1.08-.44,1.47a2.22,2.22,0,0,1-.19.51,3.17,3.17,0,0,1,.09-.53c.09-.4.21-.9.34-1.5a53.36,53.36,0,0,1,1.74-5.38,55.63,55.63,0,0,1,9.57-15.95,53.37,53.37,0,0,1,7.41-7.12c2.47-2,4.94-3.41,6.56-5.13a8.77,8.77,0,0,0,2.56-4.82A8.11,8.11,0,0,0,262.81,258.12Z"/><g class="cls-11"><path d="M280.25,260.85l13.28,3.38S313,242.39,334.3,236.87l-8-1.88A92.3,92.3,0,0,0,280.25,260.85Z"/></g><path class="cls-5" d="M330,235.83a89.76,89.76,0,0,0-45.6,26l-4.12-1s18.83-20.66,46.06-25.86Z"/><g class="cls-12"><path d="M330,235.83a89.76,89.76,0,0,0-45.6,26l-4.12-1s18.83-20.66,46.06-25.86Z"/></g><path class="cls-5" d="M227,329.58c7.36-10.53,25.79-7.31,34.2,2.16,8.29,9.32,12.15,22.48,6.68,33.69-2.34,4.79-6.82,9-12.15,8.9a25,25,0,0,0,5.7-22.25c-1.72-7.85-6.66-14.77-12.92-19.82-3.18-2.56-6.74-5.37-10.8-5.77s-7.32-.52-10.71,3.09"/><g class="cls-6"><path d="M227,329.58c7.36-10.53,25.79-7.31,34.2,2.16,8.29,9.32,12.15,22.48,6.68,33.69-2.34,4.79-6.82,9-12.15,8.9a25,25,0,0,0,5.7-22.25c-1.72-7.85-6.66-14.77-12.92-19.82-3.18-2.56-6.74-5.37-10.8-5.77s-7.32-.52-10.71,3.09"/></g><g class="cls-6"><path d="M324.55,325.71a4.58,4.58,0,0,0,4.12,4.45,7.07,7.07,0,0,0,5.89-2.58,16.34,16.34,0,0,0,3-5.92c2.29-7.2,3.48-18,2.28-25.43-3.18,9.68-8.86,21.73-15.45,29.5"/></g><g class="cls-6"><path d="M331.52,292.45c-1.43-4.23-5.8-6.69-10-8.16a48.2,48.2,0,0,0-13.34-2.62,10.44,10.44,0,0,0-4.24.42,4.19,4.19,0,0,0-2.8,3,2.82,2.82,0,0,0,1.43,2.9,79,79,0,0,1,15.86,28.82,2.71,2.71,0,0,0,4.64,1c3.41-3.88,5.37-9.11,7.12-14.07C331.46,300.09,332.76,296.11,331.52,292.45Z"/></g><g class="cls-6"><path d="M235.91,294.4a42.36,42.36,0,0,1-6.73-23.74c0-1.76.26-3.68,1.49-5,1.49-1.53,3.9-1.56,6-1.42a114.7,114.7,0,0,1,17.49,2.46c.45.1,1,.25,1.14.68a1.72,1.72,0,0,1-.39,2c-9,5.49-15.3,15.59-18.69,25.47"/></g><path class="cls-13" d="M224.76,260.77a8.19,8.19,0,0,1-.06,1.51c-.09,1-.17,2.36-.24,4.09a67.53,67.53,0,0,0,.88,13.48,63.52,63.52,0,0,0,1.73,7.23,58.19,58.19,0,0,0,2.07,5.71c.67,1.6,1.26,2.87,1.7,3.74a9,9,0,0,1,.62,1.37,8.87,8.87,0,0,1-.8-1.28c-.49-.84-1.14-2.1-1.86-3.68a52.6,52.6,0,0,1-2.19-5.72,57.66,57.66,0,0,1-1.78-7.29,59.77,59.77,0,0,1-.73-13.57c.11-1.74.25-3.14.4-4.11A9.68,9.68,0,0,1,224.76,260.77Z"/><path class="cls-13" d="M325.52,234.26a1.6,1.6,0,0,1-.51.19l-1.51.44c-.65.18-1.45.41-2.37.7s-2,.59-3.12,1c-2.3.76-5,1.79-7.95,3.05s-6.11,2.82-9.34,4.62-6.19,3.73-8.82,5.57-4.9,3.62-6.76,5.19c-.95.76-1.75,1.5-2.48,2.14s-1.34,1.19-1.84,1.65l-1.16,1.06a2.57,2.57,0,0,1-.42.34s.11-.16.35-.42l1.09-1.12c.48-.49,1.07-1.08,1.78-1.73s1.51-1.42,2.44-2.2c1.83-1.61,4.11-3.41,6.72-5.3a101.25,101.25,0,0,1,8.84-5.63,102.36,102.36,0,0,1,9.41-4.61c3-1.24,5.7-2.24,8-3,1.15-.39,2.22-.67,3.15-.94s1.74-.47,2.4-.62l1.53-.34A3.55,3.55,0,0,1,325.52,234.26Z"/><path class="cls-13" d="M337.18,287.11c-.07.08-1.59-1.45-4.49-3.3a34.79,34.79,0,0,0-5.33-2.79,41.76,41.76,0,0,0-7-2.22A43.12,43.12,0,0,0,307,278c-3.43.35-5.49.92-5.52.81a7.22,7.22,0,0,1,1.44-.43,31.79,31.79,0,0,1,4-.75,40.35,40.35,0,0,1,13.49.66,39.54,39.54,0,0,1,7.11,2.29,33.49,33.49,0,0,1,5.35,2.92l1,.7.87.68a14.85,14.85,0,0,1,1.34,1.15A7.54,7.54,0,0,1,337.18,287.11Z"/><path class="cls-13" d="M247.74,372.72a2.48,2.48,0,0,1-.48-.13c-.3-.11-.76-.24-1.33-.48a32.06,32.06,0,0,1-4.66-2.33,34.25,34.25,0,0,1-16.69-28.56,31.71,31.71,0,0,1,.27-5.21c.07-.61.18-1.08.24-1.4a1.48,1.48,0,0,1,.12-.47s-.05.68-.16,1.89a38.3,38.3,0,0,0-.1,5.17,35,35,0,0,0,16.51,28.27,37.94,37.94,0,0,0,4.55,2.45A13.3,13.3,0,0,1,247.74,372.72Z"/><g class="cls-14"><path d="M250.36,349.61a4.25,4.25,0,0,0-4.48,1.16,5.5,5.5,0,0,0-1.27,4.57,7.11,7.11,0,0,0,1.91,4.16,5.88,5.88,0,0,0,3.31,1.61,4.21,4.21,0,0,0,3.71-2.37,6.43,6.43,0,0,0,.41-5.27,6.35,6.35,0,0,0-3.59-3.86"/></g><path class="cls-5" d="M248.82,349.42a6.65,6.65,0,0,0,3.55,10.72,3.87,3.87,0,0,1-3.37.9,6.9,6.9,0,0,1-4.69-7.13,5.22,5.22,0,0,1,1.44-3.37,4.58,4.58,0,0,1,3.07-1.12"/><g class="cls-15"><path d="M248.82,349.42a6.65,6.65,0,0,0,3.55,10.72,3.87,3.87,0,0,1-3.37.9,6.9,6.9,0,0,1-4.69-7.13,5.22,5.22,0,0,1,1.44-3.37,4.58,4.58,0,0,1,3.07-1.12"/></g><g class="cls-14"><path d="M235.63,343.93a4.08,4.08,0,0,0-4.32,1.11,5.29,5.29,0,0,0-1.23,4.41,6.84,6.84,0,0,0,1.84,4,5.62,5.62,0,0,0,3.19,1.55,4.09,4.09,0,0,0,3.58-2.28,6.25,6.25,0,0,0,.4-5.09,6.15,6.15,0,0,0-3.46-3.72"/></g><path class="cls-5" d="M234.14,343.75a6.42,6.42,0,0,0,3.42,10.34,3.73,3.73,0,0,1-3.24.86,6.66,6.66,0,0,1-4.54-6.87,5.1,5.1,0,0,1,1.4-3.26,4.43,4.43,0,0,1,3-1.07"/><g class="cls-15"><path d="M234.14,343.75a6.42,6.42,0,0,0,3.42,10.34,3.73,3.73,0,0,1-3.24.86,6.66,6.66,0,0,1-4.54-6.87,5.1,5.1,0,0,1,1.4-3.26,4.43,4.43,0,0,1,3-1.07"/></g><path class="cls-4" d="M275.39,315.78Z"/><path class="cls-4" d="M273.57,316.35a.84.84,0,0,0,.14-.06l.07,0Z"/><path class="cls-4" d="M281.12,319.53a5.65,5.65,0,0,0-2.59-3,6.63,6.63,0,0,0-3-.71h-.09a4,4,0,0,0-1.68.51,7.22,7.22,0,0,0-4,5.85,8,8,0,0,0,4.6,7.59,4.18,4.18,0,0,0,5.64-1.34A9,9,0,0,0,281.12,319.53Z"/><path class="cls-4" d="M244.24,306.18c.06,0-.07,0,0,0Z"/><path class="cls-4" d="M242.66,306.67l.12-.06.06,0Z"/><path class="cls-4" d="M249.21,309.42a5,5,0,0,0-2.25-2.64,5.82,5.82,0,0,0-2.65-.61h-.07a3.41,3.41,0,0,0-1.46.43,6.3,6.3,0,0,0-3.47,5.07,7,7,0,0,0,4,6.58,3.64,3.64,0,0,0,4.89-1.17A7.83,7.83,0,0,0,249.21,309.42Z"/><path class="cls-4" d="M251.22,326.11a2.76,2.76,0,0,1,.62.13,17,17,0,0,1,1.75.53,23.53,23.53,0,0,1,5.88,3.19,26.51,26.51,0,0,1,6.72,7.3,30.7,30.7,0,0,1,4.18,11.4,35.76,35.76,0,0,1-.14,12.16,18.26,18.26,0,0,1-4.14,9,12.31,12.31,0,0,1-5.62,3.6,6.77,6.77,0,0,1-2.43.33,18.35,18.35,0,0,0,2.37-.53,12.42,12.42,0,0,0,5.4-3.64,18.15,18.15,0,0,0,3.95-8.83,36.32,36.32,0,0,0,.1-12,30.83,30.83,0,0,0-4.08-11.24,26.71,26.71,0,0,0-6.53-7.25,25.1,25.1,0,0,0-5.74-3.3C252.05,326.38,251.21,326.16,251.22,326.11Z"/><path class="cls-13" d="M241.65,314.28c-.05,0-.31-.18-.58-.65a4.33,4.33,0,0,1,0-4.06c.26-.48.52-.7.57-.66a12,12,0,0,0-.55,2.69A11.83,11.83,0,0,0,241.65,314.28Z"/><path class="cls-13" d="M271.79,325.33c-.05,0-.3-.23-.52-.76a4.24,4.24,0,0,1,.71-4.23c.38-.43.7-.6.74-.55a8.86,8.86,0,0,0-1.15,2.66A9,9,0,0,0,271.79,325.33Z"/><path class="cls-4" d="M290.77,378.18c-.06.07-1.27-.77-3.38-1.82a63.71,63.71,0,0,0-8.6-3.41c-3.44-1.12-6.59-2.07-8.83-2.87-1.12-.4-2-.74-2.64-1a4.06,4.06,0,0,1-.93-.45c0-.07,1.41.41,3.68,1.11s5.43,1.6,8.88,2.73a51.14,51.14,0,0,1,8.61,3.57c.53.28,1,.56,1.39.82s.74.47,1,.67A4.21,4.21,0,0,1,290.77,378.18Z"/><path class="cls-4" d="M361.71,346a9.36,9.36,0,0,1-.91,1.4c-.61.9-1.55,2.14-2.77,3.64a102.76,102.76,0,0,1-10.46,10.86c-4.36,4-8.43,7.39-11.31,9.95l-3.4,3a10.93,10.93,0,0,1-1.29,1.08,11.35,11.35,0,0,1,1.15-1.23c.75-.77,1.88-1.85,3.29-3.16,2.82-2.64,6.86-6.12,11.21-10.06a121.88,121.88,0,0,0,10.53-10.71c1.24-1.47,2.23-2.67,2.89-3.53A9.57,9.57,0,0,1,361.71,346Z"/><g class="cls-14"><path d="M344.71,364.49c5.39.44,11.49-1.21,15.32-5a13.83,13.83,0,0,0,2.84-15.11c-3.13,4.48-6.67,9.25-11,12.9-2.73,2.31-4.53,5.12-7.17,7.24"/></g><g class="cls-11"><path d="M325.55,238.71c7,10.31,21.36,13.56,28.3,23.88,2.68,4,4,8.72,5.3,13.36q8,28.88,16,57.74c.67-12.51-2.35-24.9-5.34-37.06q-4.44-18-8.87-36a16.75,16.75,0,0,0-9.1-13c-8.22-5.51-16.68-11.14-26.33-13.34"/></g><g class="cls-6"><path class="cls-7" d="M276.47,269.9c.44,1.4-1.47,3.3-4.47,5.67-1.5,1.18-3.27,2.53-5.21,4s-4,3.09-6.16,4.82-4.13,3.47-6,5.06-3.49,3.05-5,4.29c-2.93,2.45-5.19,3.93-6.47,3.22s-1.2-3.56.51-7.55a31,31,0,0,1,3.87-6.48,40,40,0,0,1,14.24-11.58,31.15,31.15,0,0,1,7.13-2.47C273.23,268,276.06,268.56,276.47,269.9Z"/></g><path class="cls-13" d="M249.72,348.82a10.86,10.86,0,0,1-2.26.54,10.14,10.14,0,0,1-2.27.53,3.77,3.77,0,0,1,2.15-1A3.72,3.72,0,0,1,249.72,348.82Z"/><path class="cls-13" d="M234.55,343.31a20,20,0,0,1-2.12.36c-1.13.25-2,.72-2.05.6s.69-.82,1.94-1.11A2.86,2.86,0,0,1,234.55,343.31Z"/><path class="cls-13" d="M301.86,389.8c-.13.08-1.46-2.17-3.31-4.79s-3.51-4.65-3.39-4.75a21.11,21.11,0,0,1,3.81,4.45A20.65,20.65,0,0,1,301.86,389.8Z"/><path class="cls-13" d="M242.3,284.86c.14.09-1.83,3-3.55,6.89s-2.53,7.32-2.69,7.28a8.8,8.8,0,0,1,.4-2.26,35.25,35.25,0,0,1,1.82-5.23,33.46,33.46,0,0,1,2.63-4.86A7.92,7.92,0,0,1,242.3,284.86Z"/><path class="cls-13" d="M290.78,265.5a21,21,0,0,1-5.61-1.38,20.67,20.67,0,0,1-5.25-2.42c.07-.14,2.43.89,5.42,1.93S290.81,265.35,290.78,265.5Z"/><path class="cls-10" d="M368.77,249.28a15.93,15.93,0,0,1-9.65,6.21,53.82,53.82,0,0,0,5.14-2.63A53.42,53.42,0,0,0,368.77,249.28Z"/><path class="cls-9" d="M398.06,242.59c-5.37-12.39-59.12-56.41-59.12-56.41l-30.29,39.34c.43-.6,49.42,29.25,49.42,29.25l14.46,65.87h0L375,332.37s-6.5,5.67-6.23,11.66c.18,4-9,12.6-9,12.6-2.18-1.81-3.59-2.32-4.68-2.11l-9.75,9.13,2.32,2.12a13.46,13.46,0,0,0,9.49,3.51l16.67-.51a9.16,9.16,0,0,0,6.29-2.76c5.13-5.28,15.94-17.06,16.16-22.75.12-3.18.15-6.21.14-8.65C396.38,334.61,403.43,255,398.06,242.59Z"/><path class="cls-10" d="M382.1,348a3.63,3.63,0,0,1-.92.59c-.62.34-1.56.74-2.65,1.34a11.81,11.81,0,0,0-3.27,2.82,18.29,18.29,0,0,1-4,3.71,15.53,15.53,0,0,1-9.43,2.6,5.12,5.12,0,0,1-1.72-.29,1.19,1.19,0,0,1-.8-1.06.87.87,0,0,1,.34-.77c.18-.11.29-.09.29-.08s-.1,0-.23.16a.82.82,0,0,0-.21.67,1,1,0,0,0,.72.82,5.16,5.16,0,0,0,1.62.2A16,16,0,0,0,371,356a19.45,19.45,0,0,0,3.91-3.61,11.47,11.47,0,0,1,3.45-2.82c1.13-.57,2.09-.92,2.73-1.21A6.23,6.23,0,0,1,382.1,348Z"/><path class="cls-10" d="M374.48,356.62c.07.13-1.3.94-2.79,2.21s-2.51,2.47-2.63,2.38a7.61,7.61,0,0,1,2.31-2.77A7.83,7.83,0,0,1,374.48,356.62Z"/><path class="cls-10" d="M381.23,329.34c0,.15-1.48.24-3.08,1s-2.64,1.83-2.75,1.73a6.23,6.23,0,0,1,5.83-2.74Z"/><path class="cls-10" d="M370.8,361.77c0,.08-1.08-.43-2.87-.86a16.85,16.85,0,0,0-7.1-.14,16.52,16.52,0,0,0-2,.53,8.11,8.11,0,0,1-1,.29,1.39,1.39,0,0,1-1.07-.23l-2.65-1.92a16.73,16.73,0,0,1-2.35-1.88,17,17,0,0,1,2.56,1.58l2.7,1.82c.43.33,1,.09,1.62-.15a15.89,15.89,0,0,1,2-.55,15.6,15.6,0,0,1,7.29.29,13.62,13.62,0,0,1,2.08.79C370.57,361.58,370.81,361.73,370.8,361.77Z"/><path class="cls-9" d="M257.73,209l-9.26-2.63,0-2.91,2.55,0c2.55,0,6.24-3.18,6.24-3.18l5.46-8.38.71-5.36c-.59-6.63-8.57-4-8.57-4-.37-2.31-10.59-4.63-18.27-6.06A17.72,17.72,0,0,0,222,180.24l-7.37,6.22L192.51,205.8l-57,48.16L98,242.89s-11.91,36.46-13.86,49.55c-3.73,25.09,30.75,41.81,45.95,28.9,11.82-10,80.77-84.27,92.18-96.59h.1c7-.9,18.87-8,18.87-8l6.1.71s16.18,3.09,18.09-.08C267,214.9,264.14,210.8,257.73,209Z"/><path class="cls-10" d="M224.53,201.68s.16.24.36.71a12.56,12.56,0,0,1,.66,2,18.39,18.39,0,0,1,.26,7.07,18.58,18.58,0,0,1-2.44,6.65,13.1,13.1,0,0,1-1.26,1.74c-.34.38-.53.58-.56.56s.63-.93,1.5-2.49a20.22,20.22,0,0,0,2.24-6.54,20.53,20.53,0,0,0-.1-6.91C224.85,202.76,224.45,201.71,224.53,201.68Z"/><path class="cls-10" d="M228.66,181.27a2.83,2.83,0,0,1,.63-.12c.41-.06,1-.14,1.81-.21a28.12,28.12,0,0,1,6.71.08,15.91,15.91,0,0,1,4.47,1.33,12.13,12.13,0,0,1,4.26,3.26,8.74,8.74,0,0,1,2.05,5.55,6.91,6.91,0,0,1-.79,3.09,10.58,10.58,0,0,1-2,2.6,29.7,29.7,0,0,1-4.9,3.85,14.51,14.51,0,0,1-2.62,1.44,3.62,3.62,0,0,1-1.5.25,1.91,1.91,0,0,1-1.38-.69,2.28,2.28,0,0,1-.44-1.43,4.45,4.45,0,0,1,.26-1.38,9.46,9.46,0,0,1,1.17-2.31,9.91,9.91,0,0,1,3.44-3.09l0,.35-6.82-1.3-1.85-.38a4.58,4.58,0,0,1-.64-.16,2.71,2.71,0,0,1,.66.06l1.87.28,6.85,1.13.53.09-.47.26a9.57,9.57,0,0,0-4.36,5.22,2.61,2.61,0,0,0,.12,2.35,2,2,0,0,0,2.34.28,15.44,15.44,0,0,0,2.52-1.4,30.89,30.89,0,0,0,4.8-3.78,7.78,7.78,0,0,0,2.61-5.34,8.35,8.35,0,0,0-1.91-5.24,11.68,11.68,0,0,0-4.08-3.17,16.05,16.05,0,0,0-4.34-1.36,30.4,30.4,0,0,0-6.64-.24l-1.81.11A2.82,2.82,0,0,1,228.66,181.27Z"/><path class="cls-10" d="M255,182.78a4.1,4.1,0,0,1,.18,1.08,25.87,25.87,0,0,1,.12,3,19.2,19.2,0,0,1-2.49,9.46c-2,3.34-5.14,5.51-7.72,5.84a3.24,3.24,0,0,1-2.82-1,2.11,2.11,0,0,1-.43-.71c-.06-.18-.06-.28,0-.29a3.87,3.87,0,0,0,.61.86,3.13,3.13,0,0,0,2.63.75c2.39-.4,5.41-2.52,7.32-5.75a20.1,20.1,0,0,0,2.57-9.21C255,184.34,254.86,182.79,255,182.78Z"/><path class="cls-10" d="M240.8,211.34c-.05-.06.47-.52,1.08-1.41a8.34,8.34,0,0,0,1.45-3.9,8.44,8.44,0,0,0-.67-4.1c-.43-1-.86-1.54-.79-1.59a3.55,3.55,0,0,1,1.12,1.43,7.61,7.61,0,0,1-.81,8.38C241.45,211,240.84,211.39,240.8,211.34Z"/><path class="cls-10" d="M231.09,192.39a3.37,3.37,0,0,1,.32,2.18,5.9,5.9,0,0,1-.7,2.34,11.13,11.13,0,0,1-1.7,2.42,12.57,12.57,0,0,1-4.5,2.88,8.79,8.79,0,0,1-2.08.69,10.1,10.1,0,0,1,1.93-1,14.16,14.16,0,0,0,4.27-2.9,12.15,12.15,0,0,0,1.66-2.29,6.16,6.16,0,0,0,.75-2.15A11.08,11.08,0,0,0,231.09,192.39Z"/><path class="cls-8" d="M273.61,195.34l-28.13,15.34s15,3.76,28.67,18.17a82.91,82.91,0,0,1,17.12,27.24l28-18.65S304.24,203.3,273.61,195.34Z"/><path class="cls-7" d="M250.44,210.1l22.71-13,.07,0,.07,0a49.27,49.27,0,0,1,11.49,4.74,63.89,63.89,0,0,1,11.46,8.42,88.44,88.44,0,0,1,10.58,11.58A97.87,97.87,0,0,1,316,236l.1.2-.19.13-1.48,1-21.62,14.44-.25.17-.12-.28a79.62,79.62,0,0,0-12.46-20.89,70.82,70.82,0,0,0-14.2-12.93,64.45,64.45,0,0,0-11-6.12c-1.36-.58-2.43-1-3.15-1.23l-.83-.28-.27-.1.29.06.84.24c.73.23,1.81.6,3.18,1.16a61.72,61.72,0,0,1,11.15,6,70.51,70.51,0,0,1,14.36,12.92,79.35,79.35,0,0,1,12.59,21l-.36-.11,21.6-14.47,1.48-1-.09.33a98.33,98.33,0,0,0-9.06-14.08,88.94,88.94,0,0,0-10.5-11.54,64.63,64.63,0,0,0-11.36-8.4,49.07,49.07,0,0,0-11.37-4.75h.14Z"/><path class="cls-13" d="M296.48,219.34c-.73,4.33-6.22,6.95-12.25,5.85s-10.33-5.49-9.6-9.82,6.22-7,12.26-5.86S297.22,215,296.48,219.34Z"/><path class="cls-8" d="M283.38,220.74l-1,1.07-1.12-1.09.93-1a7.19,7.19,0,0,1-1.69-3l1.88-.82a5.85,5.85,0,0,0,1.56,2.76c.76.75,1.26.82,1.56.49,1-1.08-3.46-3.91-1.18-6.42,1-1.07,2.52-1.25,4.21,0l1-1.06,1.12,1.09-.94,1a6.52,6.52,0,0,1,1.38,2.42l-1.86.87a5.56,5.56,0,0,0-1.34-2.29c-.77-.75-1.3-.75-1.61-.41-.93,1,3.48,3.87,1.21,6.36C286.56,221.73,285,221.93,283.38,220.74Z"/><path class="cls-13" d="M256.86,206.49s4.76,2.42.18,6l-7-2.72Z"/><path class="cls-13" d="M269.67,199.29s4.6,4.86,9-.2l-5.42-1.81Z"/><path class="cls-13" d="M289.73,245.18s6.19-5,9.81,1.75l-6.92,4.63Z"/><path class="cls-13" d="M312.57,230.61s-4.46,2.79-1.43,8.56l4.57-3.06Z"/><path class="cls-8" d="M296,246.83a1.87,1.87,0,1,1-1.87-1.94A1.91,1.91,0,0,1,296,246.83Z"/><path class="cls-8" d="M314.77,234.89A1.87,1.87,0,1,1,312.9,233,1.9,1.9,0,0,1,314.77,234.89Z"/><path class="cls-8" d="M276.12,199.1c0,.69-1,1.25-2.14,1.25s-2.14-.56-2.14-1.25,1-1.25,2.14-1.25S276.12,198.41,276.12,199.1Z"/><path class="cls-8" d="M257.84,209.47a2.13,2.13,0,1,1-2.08-1.66A1.9,1.9,0,0,1,257.84,209.47Z"/><path class="cls-13" d="M275.09,208.43c0,1.06-1.32,1.92-2.95,1.92s-3-.86-2.95-1.92,1.32-1.93,2.95-1.93S275.09,207.37,275.09,208.43Z"/><path class="cls-13" d="M298.78,234.13c-1.33.6-3-.24-3.67-1.88a3.09,3.09,0,0,1,1.15-4.07,2.9,2.9,0,0,1,3.67,1.88A3.09,3.09,0,0,1,298.78,234.13Z"/><path class="cls-9" d="M257.28,200.22l11.54,12.15s4.62,5.28,7.73,2.79-1.25-7.17-2.18-8.53-12.23-15.09-12.23-15.09Z"/><path class="cls-10" d="M263.23,189.26a6.75,6.75,0,0,1-.44,2.11,22.63,22.63,0,0,1-2.05,4.79,15.93,15.93,0,0,1-3.28,4.05,5.88,5.88,0,0,1-1.79,1.22,19.15,19.15,0,0,1,1.54-1.49,19.46,19.46,0,0,0,3.08-4.05C262.29,192.42,263.06,189.2,263.23,189.26Z"/><path class="cls-10" d="M155.78,236.83a3.27,3.27,0,0,1-.54.53l-1.61,1.44-6,5.21c-5.09,4.38-12.16,10.38-20,16.94s-15.08,12.4-20.37,16.54c-2.64,2.07-4.82,3.71-6.33,4.82l-1.76,1.26a4.4,4.4,0,0,1-.64.41,3.63,3.63,0,0,1,.58-.5l1.7-1.33c1.47-1.16,3.61-2.84,6.22-4.95,5.23-4.21,12.39-10.1,20.27-16.65l20.13-16.82,6.12-5.08,1.67-1.37A4.57,4.57,0,0,1,155.78,236.83Z"/></g></g></svg>