<?xml version="1.0" encoding="iso-8859-1"?>
<!-- Generator: Adobe Illustrator 19.0.0, SVG Export Plug-In . SVG Version: 6.00 Build 0)  -->
<svg version="1.1" id="Capa_1" xmlns="http://www.w3.org/2000/svg" xmlns:xlink="http://www.w3.org/1999/xlink" x="0px" y="0px"
	 viewBox="0 0 424.449 424.449" style="enable-background:new 0 0 424.449 424.449;" xml:space="preserve">
<g>
	<g>
		<g>
			<circle cx="170.241" cy="374.273" r="50.176"/>
			<path d="M316.673,324.098L316.673,324.098c-27.711,0-50.176,22.465-50.176,50.176s22.465,50.176,50.176,50.176
				c27.711,0,50.176-22.465,50.176-50.176S344.384,324.098,316.673,324.098z"/>
			<path d="M402.177,272.897H140.545l-5.12-29.696h215.04c6.326,0.019,12.017-3.843,14.336-9.728l51.2-129.024
				c3.111-7.892-0.766-16.812-8.658-19.922c-1.808-0.713-3.735-1.076-5.678-1.07H108.801L96.513,12.801
				c-1.262-7.471-7.784-12.906-15.36-12.8h-58.88c-8.483,0-15.36,6.877-15.36,15.36s6.877,15.36,15.36,15.36h46.08l44.032,260.096
				c1.262,7.471,7.784,12.906,15.36,12.8h274.432c8.483,0,15.36-6.877,15.36-15.36C417.537,279.774,410.66,272.897,402.177,272.897z
				"/>
		</g>
	</g>
</g>
<g>
</g>
<g>
</g>
<g>
</g>
<g>
</g>
<g>
</g>
<g>
</g>
<g>
</g>
<g>
</g>
<g>
</g>
<g>
</g>
<g>
</g>
<g>
</g>
<g>
</g>
<g>
</g>
<g>
</g>
</svg>
