<svg id="light" enable-background="new 0 0 24 24" height="512" viewBox="0 0 24 24" width="512" xmlns="http://www.w3.org/2000/svg"><path d="m19.5 19h-17c-1.378 0-2.5-1.122-2.5-2.5v-10c0-1.378 1.122-2.5 2.5-2.5h17c1.378 0 2.5 1.122 2.5 2.5v.5h.491c.827 0 1.5.673 1.5 1.5v6c0 .827-.673 1.5-1.5 1.5h-.491v.5c0 1.378-1.122 2.5-2.5 2.5zm-17-14c-.827 0-1.5.673-1.5 1.5v10c0 .827.673 1.5 1.5 1.5h17c.827 0 1.5-.673 1.5-1.5v-1c0-.276.224-.5.5-.5h.991c.276 0 .5-.224.5-.5v-6c0-.276-.224-.5-.5-.5h-.991c-.276 0-.5-.224-.5-.5v-1c0-.827-.673-1.5-1.5-1.5z"/><path d="m10 16.5c-.057 0-.114-.01-.169-.029-.22-.08-.356-.301-.327-.533l.43-3.438-1.438-.002c-.188 0-.359-.105-.444-.271-.085-.167-.071-.367.038-.52l3.576-4.999c.136-.188.384-.258.598-.171.215.089.34.314.303.543l-.479 2.92 1.408.002c.183 0 .35.1.438.26.087.16.081.354-.017.508l-3.496 5.499c-.093.147-.254.231-.421.231zm-.533-5 1.034.001c.143 0 .279.062.374.169s.139.25.121.393l-.224 1.79 1.814-2.853-1.087-.001c-.146 0-.286-.065-.38-.176-.095-.112-.136-.26-.112-.404l.227-1.386z"/></svg>