<svg xmlns="http://www.w3.org/2000/svg" xmlns:xlink="http://www.w3.org/1999/xlink" viewBox="0 0 429.21 252.55"><defs><style>.cls-1{isolation:isolate}.cls-2{fill:#414751}.cls-3{fill:#31363d}.cls-4{fill:#575e6e}.cls-5{fill:#b15f23}.cls-6{fill:#dd9143}.cls-7{fill:#84a6af}.cls-8{fill:#191919}.cls-9{fill:#6e8891}.cls-10,.cls-11,.cls-23{fill:#383738}.cls-10{opacity:.4}.cls-11,.cls-25{opacity:.3}.cls-12{fill:#59403a}.cls-13{fill:url(#linear-gradient)}.cls-14{fill:#514f4d}.cls-15{fill:#333130}.cls-16{fill:#131212}.cls-17{fill:#d1d4d5}.cls-18{fill:#262626}.cls-19{fill:url(#linear-gradient-2)}.cls-20{fill:url(#linear-gradient-3)}.cls-21,.cls-27,.cls-36{fill:#ffc284}.cls-21,.cls-29{opacity:.5}.cls-21,.cls-27,.cls-32,.cls-36{mix-blend-mode:screen}.cls-22{fill:#7c310d}.cls-22,.cls-27,.cls-32{opacity:.7}.cls-24{fill:#181619}.cls-24,.cls-25{mix-blend-mode:multiply}.cls-26{fill:url(#linear-gradient-4)}.cls-28{fill:#9b4513}.cls-29{fill:#7c4f31}.cls-30{fill:#d4e0e8}.cls-31{fill:#bf0c0c}.cls-32{fill:#565656}.cls-33{opacity:.2}.cls-34{fill:#7f7f7f}.cls-35{fill:url(#linear-gradient-5)}.cls-36{opacity:.9}.cls-37{fill:#e2b596}.cls-38{fill:#c5d1ea}.cls-39{fill:#f1caac}.cls-40{fill:#2b1d1c}.cls-41{fill:#e5bda1}.cls-42{fill:#e1eaff}.cls-43{fill:#281504}.cls-44{fill:#f3f7ff}.cls-45,.cls-46{fill:none;stroke:#fff;stroke-miterlimit:10;stroke-width:6px}.cls-46{fill:#fff}</style><linearGradient id="linear-gradient" x1="348.44" x2="345.65" y1="174.64" y2="184.39" gradientUnits="userSpaceOnUse"><stop offset="0" stop-color="#323232"/><stop offset=".26" stop-color="#201f1d"/><stop offset="1" stop-color="#12100c"/></linearGradient><linearGradient id="linear-gradient-2" x1="386.92" x2="384.12" y1="152.52" y2="162.27" xlink:href="#linear-gradient"/><linearGradient id="linear-gradient-3" x1="361.66" x2="368.33" y1="154.75" y2="168.75" gradientUnits="userSpaceOnUse"><stop offset="0" stop-color="#ffc284"/><stop offset="1" stop-color="#dd9143"/></linearGradient><linearGradient id="linear-gradient-4" x1="249.88" x2="249.88" y1="25.85" y2="25.85" gradientTransform="matrix(1, -0.58, 0, 1, 144.2, 262.83)" gradientUnits="userSpaceOnUse"><stop offset="0" stop-color="#7a7d8c"/><stop offset="1" stop-color="#34363d"/></linearGradient><linearGradient id="linear-gradient-5" x1="359.11" x2="358.2" y1="161.89" y2="164.93" xlink:href="#linear-gradient-3"/></defs><title>area</title><g class="cls-1"><g id="Layer_2" data-name="Layer 2"><g id="_0" data-name="0"><polygon points="429.21 144.17 429.2 148.25 249.71 252.55 249.72 248.48 429.21 144.17" class="cls-2"/><polygon points="249.72 248.48 249.71 252.55 0 108.38 .01 104.31 249.72 248.48" class="cls-3"/><polygon points="429.21 144.17 249.72 248.48 .01 104.31 102.73 44.61 179.5 0 429.21 144.17" class="cls-4"/><g id="_1" data-name="1"><path d="M338.25,150.17c-.54-.41-2.11-1.25-2.65-.53a2.55,2.55,0,0,0,.59,2.89,2.14,2.14,0,0,0,2.74-.95C339.26,150.83,338.82,150.59,338.25,150.17Z" class="cls-5"/><path d="M393,142.48c-.1-.07-.22-.1-.32-.16l-19.2-11.11a.45.45,0,0,0-.35.06,24.34,24.34,0,0,1-8.22,2.69,57.86,57.86,0,0,0-7.69,1.73c-2.23.76-9,5.06-12.28,7.35a19.35,19.35,0,0,0-3.08,2.65c-2.12,2.27-7.18,8-7.34,8.08a143.26,143.26,0,0,0-12,9.28,18.86,18.86,0,0,0-3.83,6.08,7.61,7.61,0,0,0-.94,1.87h0c2.16,2.94,10.4,6.82,13.76,8.29a63.06,63.06,0,0,0,6.74,3,9.54,9.54,0,0,1,2.9,1.29,9.05,9.05,0,0,0,1-.57c-.35-3.31,1.6-7.74,4.7-9.53,2.37-1.37,5.45-1.69,6.43-.27,1,.28,18.59-13.48,30.51-21.87a41.66,41.66,0,0,1,10.5-5.31C394,144.58,393.6,142.85,393,142.48Zm-24.24,14.38c-1.9,1.16-9.23,5.36-12.41,7.2,0,0,5.08-7,7.06-8.58,3-2.39,10.74-6.82,12.74-7.4l7.45-.54C381.12,149.18,370.22,156,368.76,156.86Z" class="cls-6"/><g id="_1-2" data-name="1"><path d="M369.33,158.09c-1.12.69-4.53,2.8-6.58,4-1.24.72-2.12,1.72-3.34,2.42s-2.69-.76-3.58-.25l-.06,0c1.71-2.3,5.29-7,6.88-8.26a68.52,68.52,0,0,1,7.55-4.9h0a43.1,43.1,0,0,1,6.69-3.37,18.24,18.24,0,0,1,7.46-.79c-2.77,1.78-1.41,2.24-5,5C377.75,153.18,369.76,157.83,369.33,158.09Z" class="cls-7"/><path d="M342.22,176.83s-2.36,4.93.07,6.84a39.75,39.75,0,0,1,13.19-7.23l.42-1.49-2.4-5.36Z" class="cls-8"/><path d="M380.05,155s-.79,4.14,1.64,6c7.09-5.64,9.83-6,9.83-6l1.32-2.61-1.51-4.64Z" class="cls-8"/><path d="M352.65,164.81S337.2,159.89,335,154.26a100,100,0,0,1,8.06-9s7.36,7.74,17.83,10.16Z" class="cls-9"/><path d="M343.09,145.28a100,100,0,0,0-8.06,9c2.17,5.63,17.62,10.55,17.62,10.55l8.27-9.37C350.45,153,343.09,145.28,343.09,145.28Zm9.46,19.24c-1.31-.31-15.13-5.23-17.22-10.21.15-.17.29-.35.46-.56a100.73,100.73,0,0,1,7.26-8.05c.79,1.14,8.53,7.75,17.38,9.9Z" class="cls-10"/><path d="M367.56,134.21s11,5.68,16.93,9.76a54,54,0,0,0-7.07.62s-14.6-8.51-16-9.19Z" class="cls-9"/><path d="M367.56,134.21l-6.18,1.19c1.44.68,16,9.19,16,9.19a56.76,56.76,0,0,1,6.85-.62h.22C378.59,139.89,367.56,134.21,367.56,134.21Zm9.91,10.1c-.92-.54-12.73-7.41-15.29-8.8l5.34-1c.73.36,10.83,5.67,16.12,9.23C381.16,143.78,378.05,144.23,377.47,144.31Z" class="cls-11"/><path d="M345.58,184.11h0S345.6,184.12,345.58,184.11Z" class="cls-12"/><path d="M351.08,174.61h0l-2.1-1.22a2.74,2.74,0,0,0-2.77.27,8.58,8.58,0,0,0-3.88,6.72,2.74,2.74,0,0,0,1.13,2.5l2.12,1.23a2.76,2.76,0,0,0,2.69-.39,8.42,8.42,0,0,0,4-6.61A2.71,2.71,0,0,0,351.08,174.61Z" class="cls-13"/><g id="_1-3" data-name="1"><path d="M348.32,174.85c2.15-1.24,3.9-.24,3.91,2.23a8.58,8.58,0,0,1-3.89,6.72c-2.14,1.24-3.9.25-3.91-2.22A8.6,8.6,0,0,1,348.32,174.85Z" class="cls-14"/><path d="M348.32,175.7c1.75-1,3.17-.19,3.17,1.8a6.92,6.92,0,0,1-3.15,5.46c-1.74,1-3.16.2-3.16-1.81A6.94,6.94,0,0,1,348.32,175.7Z" class="cls-15"/><path d="M349.08,181.71v0s0,0,0,0Z" class="cls-16"/><g class="cls-1"><path d="M348.32,176.24a5.89,5.89,0,0,0-2.67,4.64c0,1.71,1.21,2.4,2.69,1.54a5.89,5.89,0,0,0,2.68-4.64C351,176.07,349.81,175.39,348.32,176.24Z" class="cls-17"/><path d="M348.34,178.51c.38-.22.69,0,.7.41a1.52,1.52,0,0,1-.7,1.21c-.39.22-.7.05-.7-.4A1.56,1.56,0,0,1,348.34,178.51Zm0,1.39a1.11,1.11,0,0,0,.5-.86c0-.33-.23-.46-.5-.3a1.1,1.1,0,0,0-.5.88c0,.31.23.44.5.28Z" class="cls-18"/></g></g><path d="M384.05,162h0S384.07,162,384.05,162Z" class="cls-12"/><path d="M389.55,152.49h0l-2.1-1.22a2.71,2.71,0,0,0-2.77.27,8.54,8.54,0,0,0-3.88,6.72,2.72,2.72,0,0,0,1.13,2.5l2.12,1.23a2.9,2.9,0,0,0,2.77-.38,8.35,8.35,0,0,0,3.87-6.63A2.71,2.71,0,0,0,389.55,152.49Z" class="cls-19"/><g id="_1-4" data-name="1"><path d="M386.79,152.73c2.15-1.24,3.9-.24,3.91,2.23a8.58,8.58,0,0,1-3.89,6.72c-2.14,1.24-3.9.25-3.91-2.23A8.59,8.59,0,0,1,386.79,152.73Z" class="cls-14"/><path d="M386.79,153.58c1.75-1,3.17-.2,3.17,1.8a6.92,6.92,0,0,1-3.15,5.46c-1.74,1-3.16.19-3.16-1.81A6.94,6.94,0,0,1,386.79,153.58Z" class="cls-15"/><path d="M387.54,159.59s0,0,0,0v0Z" class="cls-16"/><g class="cls-1"><path d="M386.79,154.12a5.89,5.89,0,0,0-2.67,4.64c0,1.7,1.2,2.4,2.69,1.54a5.92,5.92,0,0,0,2.68-4.65C389.49,154,388.28,153.27,386.79,154.12Z" class="cls-17"/><path d="M386.8,156.39c.39-.22.7,0,.71.41a1.52,1.52,0,0,1-.7,1.21c-.39.22-.7,0-.7-.4A1.57,1.57,0,0,1,386.8,156.39Zm0,1.39a1.13,1.13,0,0,0,.5-.86c0-.33-.23-.46-.5-.3a1.09,1.09,0,0,0-.5.87c0,.32.22.45.5.29Z" class="cls-18"/></g></g><path d="M395.21,147.09a1.39,1.39,0,0,0-.36-.57l-.52-.48c-.43-1.82-.92-4.06-1.82-3.56a24.44,24.44,0,0,1-8.21,2.69,57.86,57.86,0,0,0-7.69,1.73c-2.23.75-9,5.06-12.28,7.35a18.44,18.44,0,0,0-3.08,2.65c-1.25,1.34-3.53,3.88-5.22,5.76a27.73,27.73,0,0,1-4.33,3.91,117,117,0,0,0-9.76,7.68,17.45,17.45,0,0,0-3.86,6.74c0,.2-.63,0-.82.92v0c.35.13.69.25,1,.35a8.5,8.5,0,0,1,3.43,1.69l.58-.31c-.71-3.35,1.75-7.8,5.06-9.71a4.67,4.67,0,0,1,4.82-.16c1.35.76,1.67,2.76,1.86,3.33a.15.15,0,0,0,.22.09L369.67,168c.52-.3,11.12-6.35,12.12-6.91a.13.13,0,0,0,.06-.14,9,9,0,0,1,3.8-8.89c3.29-2,5.9-.9,5.9,2.42a5.17,5.17,0,0,1,0,.54l.47-.27a14.56,14.56,0,0,0,3.25-3C396.18,150.44,395.51,148,395.21,147.09Zm-26.45,9.77c-1.9,1.16-9.23,5.36-12.41,7.2,0,0,5.08-7,7.06-8.58,3-2.39,10.74-6.82,12.74-7.4,4.87-1.4,7.44-.54,7.45-.54C381.12,149.18,370.22,156,368.76,156.86Z" class="cls-20"/><path d="M392.51,142.48c-2.86,1.59-5.26,1.72-8.24,2.27a57.44,57.44,0,0,0-7.66,1.78c-2.23.76-8.2,4.15-12,6.81a27.44,27.44,0,0,0-3.6,3.06c-1.7,1.82-6.52,7-8.09,8.78-.41.46-7.56,4.88-11.22,8.79-1.22,1.3-2.16,3.64-3.3,6.06,1.54,0,2.07-.34,4.19-2a15.67,15.67,0,0,1,4-4.09c2.88-2,4.69-2,5.87-1.62,1,.32,1.38-2.51,2.4-3.51s25.15-13.39,25.74-12.76c0,0-.22.66-.19.69,2.47-3.8,4.56-5.43,6.61-6.27a5.47,5.47,0,0,1,1.14-.29c1.21-.68,3.83-2.46,4-2.59a23.2,23.2,0,0,0,2.06-2C393.82,143.88,393.34,142,392.51,142.48Zm-23.75,14.38c-1.9,1.16-9.23,5.36-12.41,7.2,0,0,5.08-7,7.06-8.58,3-2.39,10.74-6.82,12.74-7.4,4.87-1.4,7.44-.54,7.45-.54C381.12,149.18,370.22,156,368.76,156.86Z" class="cls-21"/><path d="M383.59,147.54l-.2.13a1.15,1.15,0,0,1,.89,1.13,6.27,6.27,0,0,1-1.59,4.13,30.49,30.49,0,0,0-3.6,6.36,9.39,9.39,0,0,1-.89,1.74l-8.9,5.28c0-.38,0-1-.07-1.77-.1-2.37-.28-6.79-.22-7s.23-.75.31-1l-.15.09c-.09.24-.22.65-.29.91s.06,3.52.21,7.11c0,.75.06,1.38.07,1.76,0,0-10.87,6.38-12.47,7.18-.1.05-.18,0-.18-.09-.05-.88-.35-2.47-.64-4a16.06,16.06,0,0,1-.53-3.65,17.84,17.84,0,0,1,1.21-1.87l-.18.11a16.5,16.5,0,0,0-1.15,1.77,14.49,14.49,0,0,0,.51,3.74c.15.79.3,1.58.44,2.38.05.33.1.66.14,1,0,.13,0,.27.05.41s0,.4.11.42,2.94-1.6,3.69-2c1.7-1,3.41-1.95,5.11-2.95l3.06-1.79c5.26-3.1,9.88-5.85,9.88-5.85a6.69,6.69,0,0,0,1-1.86,30.19,30.19,0,0,1,3.55-6.3,6.43,6.43,0,0,0,1.65-4.29A1.27,1.27,0,0,0,383.59,147.54Z" class="cls-22"/><path d="M378.49,147.64l-.22.07-.22.07a12,12,0,0,0-.19,3.24l.46-.29A11.28,11.28,0,0,1,378.49,147.64Z" class="cls-23"/><path d="M368.37,152.16s-.33,3.55-.31,5a22.41,22.41,0,0,0,2.24-1.33l-.46-4.42Z" class="cls-23"/><path d="M369.16,156.62l.15-.1-.13-4.49-.16.09Z" class="cls-24"/><path d="M376.15,148.08a39.74,39.74,0,0,0-6,3,62.82,62.82,0,0,0-6.74,4.38c-2,1.59-7.06,8.57-7.06,8.57l1.12-.64,6-3.44c2.31-1.34,4.42-2.56,5.32-3.11,1.46-.89,12.36-7.68,14.84-9.32C383.59,147.53,381,146.68,376.15,148.08Zm-7.4,8.42c-1,.6-3.5,2.06-5.31,3.1-1.09.63-2.22,1.29-3.3,1.9L357.47,163l-.05,0c1.51-2,4.66-6.15,6.07-7.28a60.13,60.13,0,0,1,6.66-4.33h0a39.42,39.42,0,0,1,5.9-3,16.1,16.1,0,0,1,6.58-.69C379.06,150.1,370,155.77,368.75,156.5Z" class="cls-23"/><g class="cls-25"><polygon points="394.09 144.4 394.09 144.4 394.09 144.4 394.09 144.4" class="cls-26"/></g><path d="M352.44,172.26a1,1,0,0,0-.23-.15,2.34,2.34,0,0,0-.38-.17,3.32,3.32,0,0,0-.56-.13,3,3,0,0,0-.74,0,4,4,0,0,0-.9.15,8.25,8.25,0,0,0-1,.36l-.53.26-.53.3-.54.34-.25.17-.13.09-.06,0-.08.06c-.35.25-.68.53-1,.81s-.62.58-.9.87c-.14.14-.27.29-.39.43l-.35.43a12.53,12.53,0,0,0-.95,1.39c-.1.17-.17.31-.22.4l-.08.14,0,0,.1-.13.26-.37c.23-.31.58-.75,1-1.25.22-.25.47-.5.74-.76l.41-.39.45-.38a11.38,11.38,0,0,1,.95-.73c.33-.23.66-.45,1-.64.16-.11.33-.19.5-.29l.49-.25.49-.21c.16-.06.32-.13.47-.17a4.29,4.29,0,0,1,.44-.13l.21-.05.21,0a5.23,5.23,0,0,1,.73-.08,4.29,4.29,0,0,1,1,.09l.26.07.1,0,0-.06Z" class="cls-27"/><path d="M367.26,160.89l-1.13.65c-.24.14-.45.07-.46-.17V161a.91.91,0,0,1,.44-.71l1.15-.69c.27-.16.48-.08.48.17v.44A1,1,0,0,1,367.26,160.89Z" class="cls-28"/><path d="M365.7,161.23a.91.91,0,0,1,.44-.71l1.15-.69c.2-.12.37-.11.44,0v-.12c0-.25-.21-.33-.48-.17l-1.15.69a.91.91,0,0,0-.44.71v.42a.4.4,0,0,0,0,.13Z" class="cls-22"/><path d="M368.27,159.56c0,.11-.2.35-.54.62,0,.35-.49.59-1,.92-.39.23-.94.59-1,.36-.36.14-.59.18-.59.06s.69-.83,1.57-1.37S368.26,159.34,368.27,159.56Z" class="cls-22"/><path d="M368.27,159.49c0,.18-.7.76-1.58,1.3s-1.59.84-1.6.66a4.59,4.59,0,0,1,1.58-1.3C367.54,159.61,368.26,159.31,368.27,159.49Z" class="cls-6"/><path d="M365.16,161.48a6.66,6.66,0,0,1,1.51-1.17,4.06,4.06,0,0,1,1.53-.7.31.31,0,0,0,0-.09c0-.17-.71.13-1.57.66s-1.55,1.09-1.54,1.26S365.14,161.47,365.16,161.48Z" class="cls-27"/><path d="M381.52,152.66l-1.13.65c-.25.14-.45.06-.46-.17v-.42a.91.91,0,0,1,.44-.71l1.15-.69c.26-.16.48-.08.48.17v.44A1,1,0,0,1,381.52,152.66Z" class="cls-28"/><path d="M380,153a.91.91,0,0,1,.44-.71l1.15-.69c.2-.12.37-.11.44,0v-.12c0-.25-.22-.33-.48-.17l-1.15.69a.91.91,0,0,0-.44.71v.42a.25.25,0,0,0,0,.13Z" class="cls-22"/><path d="M382.53,151.32c0,.12-.21.36-.54.63,0,.35-.49.59-1.05.92-.38.23-.93.58-1,.35-.35.15-.58.18-.59.07s.7-.83,1.57-1.37S382.52,151.11,382.53,151.32Z" class="cls-22"/><path d="M382.52,151.26c0,.18-.69.76-1.57,1.3s-1.59.84-1.6.66.7-.76,1.57-1.3S382.52,151.08,382.52,151.26Z" class="cls-6"/><path d="M379.42,153.25a6.43,6.43,0,0,1,1.51-1.17,4,4,0,0,1,1.53-.7s0-.07,0-.09-.71.13-1.56.66-1.55,1.09-1.55,1.26C379.38,153.23,379.4,153.24,379.42,153.25Z" class="cls-27"/></g><path d="M322.62,171.68c-.19-.82-.07-3.73.2-3.57a38.82,38.82,0,0,0,6,4.12,41.21,41.21,0,0,0,6.92,3.16s-2,1.89-2.42,2.1C332.28,178.07,322.77,172.3,322.62,171.68Z" class="cls-23"/><path d="M342.39,174.09a132.25,132.25,0,0,1,11-8.81c-7.3-1.07-17.53-6.71-19.13-11.09-2.49,1.76-11.91,8.71-12.74,10.41-.14.27,7.94,8.92,19.55,10.8A13.34,13.34,0,0,1,342.39,174.09Z" class="cls-21"/><path d="M343,179.8a.24.24,0,0,0-.35-.09,7.66,7.66,0,0,1-3.42,1.2c-3.2.32-14.35-6.29-16.17-7.44-2.73-1.74-4.33-2.12-4.26-4.46a1.08,1.08,0,0,1,.05-.21,12.36,12.36,0,0,0-1.17,1.36,4.76,4.76,0,0,0,.56,3.82c.79.89,13,8.9,19.36,10.45a6.59,6.59,0,0,0,4.81-.8C343.28,183,343.36,180.59,343,179.8Z" class="cls-23"/><path d="M338.19,175.36a3,3,0,0,0-1.94.5,10.48,10.48,0,0,1-1.46,1.45c-.15.13-.64.56-.57,1a.59.59,0,0,0,.42.45,14.6,14.6,0,0,0,3.91.84,3.23,3.23,0,0,0,.46,0c1.4-.23,3.49-1.41,3.76-3a.37.37,0,0,0-.07-.25C342.38,176,339.86,175.36,338.19,175.36Z" class="cls-29"/><path d="M336.45,176a10.3,10.3,0,0,1-1.5,1.49c-.41.33-.72.85-.22,1a11.61,11.61,0,0,0,4.23.8c1.29-.21,3.31-1.33,3.56-2.8C342.57,176.25,337.72,175,336.45,176Z" class="cls-30"/><path d="M393.35,142.85a1.25,1.25,0,0,0-.2.2c-.23.27-.51.49-.75.73s-.39.58-.06,1,.81.8,1.17.58a3,3,0,0,0,.53-.46c.24-.31-.28-2-.44-2A.21.21,0,0,0,393.35,142.85Z" class="cls-31"/><path d="M392.74,142.35l-.06,0-19-11a27.92,27.92,0,0,1-5.76,2.42s15.8,7.93,18.32,11.06C389.36,144.22,391.65,143.37,392.74,142.35Z" class="cls-21"/><path d="M343.91,144.4s7.25,8.21,17.74,10c0,0,8.71-6,15.91-8.71l-17.85-10.32a13.17,13.17,0,0,0-3.85,1.26C354.06,137.55,346.14,142.38,343.91,144.4Z" class="cls-21"/><path d="M343,179.8a.24.24,0,0,0-.35-.09,7.66,7.66,0,0,1-3.42,1.2c-3.2.32-14.35-6.29-16.17-7.44-2.73-1.74-4.33-2.12-4.26-4.46a1.08,1.08,0,0,1,.05-.21c0,.09-.44.43-.84.92a.83.83,0,0,0,0,1c.59.84,6.6,4.83,11.8,7.56a29.18,29.18,0,0,0,7.85,3.32C340.25,182.16,343.36,180.59,343,179.8Z" class="cls-32"/><path d="M321.1,170.67a.52.52,0,0,0,.61,0c.38-.28.39-1,.39-1.18a9.27,9.27,0,0,1,.13-1.95,2.4,2.4,0,0,0-.73-1.46,8.09,8.09,0,0,0-.79-.74,29.13,29.13,0,0,0-1.88,3.58A15.31,15.31,0,0,0,321.1,170.67Z" class="cls-29"/><path d="M319,168.48a.24.24,0,0,0,.06.23,13.36,13.36,0,0,0,2.18,1.7c.45.27.64-.36.63-.91a10.22,10.22,0,0,1,.15-2c0-.64-.7-1.4-1.44-2C320.57,165.47,319.62,165.11,319,168.48Z" class="cls-30"/><g class="cls-33"><path d="M338.17,177.75c0,.47-.38.63-.84.36a1.76,1.76,0,0,1-.85-1.33c0-.47.38-.63.85-.36A1.77,1.77,0,0,1,338.17,177.75Z" class="cls-23"/><path d="M321.53,168.14c0,.46-.37.62-.84.35a1.74,1.74,0,0,1-.84-1.32c0-.47.38-.63.84-.36A1.73,1.73,0,0,1,321.53,168.14Z" class="cls-23"/><path d="M340,177.61c0,.43-.35.57-.78.33a1.62,1.62,0,0,1-.78-1.23c0-.43.35-.58.78-.33A1.62,1.62,0,0,1,340,177.61Z" class="cls-23"/></g><path d="M328.76,173.75a46.57,46.57,0,0,0,5.79,2.74l-.24.22a46.69,46.69,0,0,1-5.7-2.7,48.22,48.22,0,0,1-6.08-3.95c0-.13,0-.25,0-.38A46.6,46.6,0,0,0,328.76,173.75Zm4.59,3.74a2.74,2.74,0,0,0,.28-.2,49.71,49.71,0,0,1-4.87-2.34,46,46,0,0,1-6.22-4c0,.15,0,.29,0,.41a50.28,50.28,0,0,0,10.78,6.17Zm2.13-1.84a46.26,46.26,0,0,1-6.72-3.11,47.77,47.77,0,0,1-6.12-4c0,.1,0,.22,0,.36a48.57,48.57,0,0,0,6,3.92,45.13,45.13,0,0,0,6.63,3.07Z" class="cls-34"/><path d="M395.75,147.13a1,1,0,0,0-.29-.52l-1.12-.56c.32.49.59,1.38.09,1.83a44.13,44.13,0,0,1-4.57,3.4l.59.39a7.62,7.62,0,0,1,1,3.34.05.05,0,0,0,.08,0,12,12,0,0,0,3.74-3.24C396.22,150.55,396.05,148.05,395.75,147.13Z" class="cls-23"/><path d="M395.76,147.16v0a1,1,0,0,0-.29-.52l-1.12-.56c.32.49.59,1.38.09,1.83a44.13,44.13,0,0,1-4.57,3.4l.59.39c1.16-.71,2.12-1.38,2.85-1.92C395.18,148.36,395.7,147.6,395.76,147.16Z" class="cls-32"/><path d="M358.17,161.86a2.54,2.54,0,0,0-1.75,2.37c.18.88,2,.78,2.62.64s1.65-.6,1.71-1.42C360.79,162.86,359.07,161.75,358.17,161.86Z" class="cls-35"/><path d="M358.17,161.86a2.54,2.54,0,0,0-1.75,2.37c.18.88,2,.78,2.62.64s1.65-.6,1.71-1.42C360.79,162.86,359.07,161.75,358.17,161.86Z" class="cls-36"/></g><g id="_6" data-name="6"><path d="M368.41,159.16a1.59,1.59,0,0,0-.73,1c0,.13-.06,1,.24.8.07,0,.06-.43.07-.5s0-.14.09-.15a.46.46,0,0,1,.08.32.19.19,0,0,0,.2-.09c.13-.19.08-.48.31-.62s.3-.08.43-.22a.79.79,0,0,0,.13-.45.33.33,0,0,0-.13-.3c-.14-.1-.43.08-.55.14Z" class="cls-37"/><path d="M370.86,149.84a.74.74,0,0,0-1,.31,3,3,0,0,0-.26,1.49c.12,1.16.2,2.66.46,4.25a27.49,27.49,0,0,1-1.91,3.26c0,.4.42,1,.76.92a31.16,31.16,0,0,0,2.57-3.42C371.52,156.47,371.81,150.47,370.86,149.84Z" class="cls-38"/><path d="M370,175.37l.12-.09a1.11,1.11,0,0,0,.15-.31,5,5,0,0,1,.76-1.36,1,1,0,0,0,.16-.24,1.13,1.13,0,0,0,.06-.52,10.39,10.39,0,0,1,.24-1.58,5.24,5.24,0,0,0,0-1.48,7.08,7.08,0,0,0-.4-2.43c-.12-.25-.3-3.16-.56-3s-.77,3.67-1.08,3.75a.38.38,0,0,0-.21.1.42.42,0,0,0,0,.38,7.61,7.61,0,0,0,.25.85c.1.37.55,2.24.66,2.8a4.43,4.43,0,0,1-.08,2.08,1.08,1.08,0,0,1-.47.71c-.13.06-.37.1-.36.24s.24.36.38.35S369.85,175.44,370,175.37Z" class="cls-39"/><path d="M369.21,175.18a.45.45,0,0,0,.47.1c.4-.21.46-.69.6-1.12a1.72,1.72,0,0,1,.75-1.09.43.43,0,0,1,.14,0c.12,0,.17.17.18.28a1.84,1.84,0,0,1,0,.66c0,.14-.09.27-.11.41s0,1.76,0,1.76l-.23.09s0-1.07,0-1.56c0,0-.2.06-.23.17a7.6,7.6,0,0,1-.24,1.19,3.87,3.87,0,0,1-.49.19c-.22,0-.81-.16-.94-.52A.43.43,0,0,1,369.21,175.18Z" class="cls-40"/><path d="M366.22,178.46a.4.4,0,0,0,.12-.1.77.77,0,0,0,.15-.3,5,5,0,0,1,.76-1.36,1,1,0,0,0,.17-.24,1.31,1.31,0,0,0,.06-.52,9.52,9.52,0,0,1,.23-1.59,5.17,5.17,0,0,0,0-1.47,7.43,7.43,0,0,0-.4-2.44,5.44,5.44,0,0,1-.24-2.34c.05-.6.3-1.83-.36-2.2-.42-.22-.69.06-.87.43s-.28,1-.5,1.43a3.4,3.4,0,0,0-.32,1.53,12.54,12.54,0,0,0,.63,3.27c.11.37.56,2.24.67,2.8a4.57,4.57,0,0,1-.09,2.08,1,1,0,0,1-.47.71c-.12.06-.36.1-.35.24s.24.36.37.35S366.1,178.53,366.22,178.46Z" class="cls-39"/><path d="M365.47,178.27a.44.44,0,0,0,.46.1c.41-.21.46-.69.61-1.12a1.69,1.69,0,0,1,.75-1.09.23.23,0,0,1,.14,0c.12,0,.16.16.18.28a2.09,2.09,0,0,1,0,.66c0,.14-.09.27-.12.41s0,1.76,0,1.76l-.22.09s0-1.08,0-1.57c0,0-.2.07-.24.17a8.79,8.79,0,0,1-.23,1.2,4.56,4.56,0,0,1-.49.19c-.23-.05-.81-.16-.95-.52A.44.44,0,0,1,365.47,178.27Z" class="cls-40"/><path d="M370.67,170.21l.26-.17c.39-.32.84-.67.74-1.24s-.38-6.29-.69-7.1a14.32,14.32,0,0,0-3.66-.95c-.65.06-2.34,0-2.34.66s-.09,1.18-.13,1.76,0,1.38-.08,2.07c-.07.94,0,1.88-.07,2.81a26.87,26.87,0,0,0,0,2.69c.87,1,4.29.17,4.29.17.07-1.5,0-.8.15-2.3l.54,2.06C369.65,170.79,370.29,170.44,370.67,170.21Z" class="cls-40"/><path d="M363.3,160.72a1.68,1.68,0,0,0-.85.55c-.07.1-.32.59,0,.59a1.09,1.09,0,0,0-.06.44c0,.18.09.12.25.17,0,.31.18.22.4.27.43.1.43-.17.62-.51a4.58,4.58,0,0,0,.49-1.32.72.72,0,0,0,0-.25.38.38,0,0,0-.19-.27C363.85,160.35,363.39,160.69,363.3,160.72Z" class="cls-41"/><path d="M370.32,155.64a14.65,14.65,0,0,1,.45-1.73,17.81,17.81,0,0,0,.34-2.19c.05-.56.19-1.61-.33-2s-1.4-.11-1.93,0a12.62,12.62,0,0,0-1.89.61,2.63,2.63,0,0,0-1.6,1.27,5.09,5.09,0,0,0-.33,2.19c0,.92.22,1.83.28,2.76a14.36,14.36,0,0,1-.26,3.7,10.81,10.81,0,0,0-.13,1.88c.13,1.22,5.89.8,6.14-.38a23.61,23.61,0,0,0-.39-2.5,12.48,12.48,0,0,1-.36-3.5S370.32,155.68,370.32,155.64Z" class="cls-42"/><path d="M368.88,148.6c-.15,0-1.26.12-1.65.19,0,.13.13,1,.11,1.19s-.73.43-.69.51c.26.54,2.83-.08,2.73-.65,0-.15-.26-.08-.36-.2A3,3,0,0,1,368.88,148.6Z" class="cls-39"/><path d="M370.09,148.33a3.16,3.16,0,0,0,.31,1.26,1.5,1.5,0,0,1,.19.48.8.8,0,0,1-.37.74,1.64,1.64,0,0,1-.84.24,2.36,2.36,0,0,0-.38,0,6.06,6.06,0,0,0-.84.32,1.56,1.56,0,0,1-1.4-.24,1.06,1.06,0,0,0-.83-.27,3.21,3.21,0,0,0,0-1.79c-.43-1.67-.62-4.35,1.47-5a2.81,2.81,0,0,1,1.32,0c.76-.21,1.26.51,1.4,1.08A18.11,18.11,0,0,1,370.09,148.33Z" class="cls-43"/><path d="M366.27,151.36a.76.76,0,0,0-1,.28,3.12,3.12,0,0,0-.3,1.48c.08,1.16.12,2.67.34,4.27a29.45,29.45,0,0,1-2,3.2c0,.4.39,1,.73.94a30.2,30.2,0,0,0,2.66-3.34C366.74,158,367.2,152,366.27,151.36Z" class="cls-44"/></g><line x1="95.86" x2="325.37" y1="58.74" y2="194.69" class="cls-45"/><polygon points="323.07 186.68 330.74 197.87 317.24 196.51 323.07 186.68" class="cls-46"/><polygon points="105.91 58.05 100.08 67.89 92.4 56.7 105.91 58.05" class="cls-46"/><line x1="132.75" x2="278.65" y1="169.9" y2="71.3" class="cls-45"/><polygon points="272.13 68.8 282.06 69 278.53 78.28 272.13 68.8" class="cls-46"/><polygon points="134.09 162.09 140.49 171.56 130.56 171.38 134.09 162.09" class="cls-46"/></g></g></g></svg>