<svg xmlns="http://www.w3.org/2000/svg" viewBox="0 0 222 222"><defs><style>.cls-1{fill:#fff;stroke-width:4px;}.cls-1,.cls-2,.cls-3{stroke:#2f677b;stroke-miterlimit:10;}.cls-2{fill:none;stroke-width:5px;}.cls-3{fill:#2f677b;stroke-width:0.7px;}</style></defs><title>Asset 4</title><g id="Layer_2" data-name="Layer 2"><g id="Layer_1-2" data-name="Layer 1"><rect class="cls-1" x="2" y="2" width="218" height="218" rx="33.38"/><g id="Layer_2-2" data-name="Layer 2"><g id="Layer_1-3" data-name="Layer 1"><path id="Path_8" data-name="Path 8" class="cls-2" d="M148.15,78.41a37.65,37.65,0,0,1-1.8,11.2l-.56,1.72c-.8,1.78-1.95,4.1-2.55,5.16l-5.48,9.62-22.3,39.24a5.21,5.21,0,0,1-4.59,3.16,5.45,5.45,0,0,1-4.25-3.16L86,109,78.9,96.32a35.8,35.8,0,0,1-3.06-5.69c-.09-.26-.2-.51-.31-.76v-.26a43.79,43.79,0,0,1-1.81-11.47,37.28,37.28,0,0,1,74.56.27Z"/><circle id="Ellipse_18" data-name="Ellipse 18" class="cls-2" cx="111.21" cy="80.37" r="18.99"/></g></g><path class="cls-3" d="M19.67,189.22a7.26,7.26,0,0,1-2.78-2.69,7.86,7.86,0,0,1,0-7.71,7.15,7.15,0,0,1,2.79-2.69,8.18,8.18,0,0,1,4-1,8.41,8.41,0,0,1,3.15.57,6.49,6.49,0,0,1,2.44,1.72l-1.37,1.32A5.46,5.46,0,0,0,23.76,177a6,6,0,0,0-3,.73,5.25,5.25,0,0,0-2.07,2,5.92,5.92,0,0,0,0,5.77,5.25,5.25,0,0,0,2.07,2,6,6,0,0,0,3,.73,5.47,5.47,0,0,0,4.13-1.76l1.37,1.32a6.45,6.45,0,0,1-2.45,1.72,8.12,8.12,0,0,1-3.16.59A8.14,8.14,0,0,1,19.67,189.22Z"/><path class="cls-3" d="M41.28,180a4.85,4.85,0,0,1,1.25,3.6V190h-2v-6.17a3.42,3.42,0,0,0-.77-2.44,3,3,0,0,0-2.23-.81,3.45,3.45,0,0,0-2.58,1,3.74,3.74,0,0,0-1,2.74V190H32V174.44h2v6a4.14,4.14,0,0,1,1.65-1.24,5.76,5.76,0,0,1,2.28-.44A4.6,4.6,0,0,1,41.28,180Z"/><path class="cls-3" d="M53.86,179.92a4.4,4.4,0,0,1,1.23,3.39V190H53.18v-1.46a3.25,3.25,0,0,1-1.44,1.18,5.53,5.53,0,0,1-2.22.41,4.65,4.65,0,0,1-3-.9,2.9,2.9,0,0,1-1.12-2.38,3,3,0,0,1,1.07-2.36,5.3,5.3,0,0,1,3.4-.89h3.19v-.4a2.56,2.56,0,0,0-.75-2,3.17,3.17,0,0,0-2.23-.7,5.8,5.8,0,0,0-1.93.33,5.2,5.2,0,0,0-1.6.87l-.84-1.51a6.09,6.09,0,0,1,2.06-1.06,8.48,8.48,0,0,1,2.54-.37A5.07,5.07,0,0,1,53.86,179.92Zm-2,8.16a2.93,2.93,0,0,0,1.22-1.46v-1.55H50c-1.7,0-2.56.57-2.56,1.72a1.56,1.56,0,0,0,.65,1.32,3,3,0,0,0,1.81.49A3.67,3.67,0,0,0,51.85,188.08Z"/><path class="cls-3" d="M62.31,179.29a5.74,5.74,0,0,1,2.5-.5v2l-.46,0a3.39,3.39,0,0,0-2.57,1,3.84,3.84,0,0,0-.94,2.78V190h-2V178.9h1.93v1.86A3.5,3.5,0,0,1,62.31,179.29Z"/><path class="cls-3" d="M77.83,178.9v9.61a5.74,5.74,0,0,1-1.45,4.32,6,6,0,0,1-4.32,1.4,10.34,10.34,0,0,1-3-.44,5.9,5.9,0,0,1-2.31-1.22l1-1.56a5.72,5.72,0,0,0,1.92,1.06,7.26,7.26,0,0,0,2.36.39,4,4,0,0,0,2.89-.92,3.84,3.84,0,0,0,.94-2.82v-.88a4.4,4.4,0,0,1-1.76,1.29,5.76,5.76,0,0,1-2.26.43,6,6,0,0,1-2.88-.68,5,5,0,0,1-2-1.91,5.75,5.75,0,0,1,0-5.61,5,5,0,0,1,2-1.9,6.11,6.11,0,0,1,2.88-.67,5.93,5.93,0,0,1,2.35.46,4.37,4.37,0,0,1,1.77,1.37V178.9ZM74,187.34a3.45,3.45,0,0,0,1.36-1.29,3.62,3.62,0,0,0,.5-1.88,3.44,3.44,0,0,0-1.07-2.62,3.91,3.91,0,0,0-2.75-1,4,4,0,0,0-2.78,1,3.44,3.44,0,0,0-1.07,2.62,3.62,3.62,0,0,0,.5,1.88,3.38,3.38,0,0,0,1.36,1.29,4.47,4.47,0,0,0,4,0Z"/><path class="cls-3" d="M81.71,176.37a1.23,1.23,0,0,1-.39-.92,1.27,1.27,0,0,1,.39-.93,1.3,1.3,0,0,1,1-.39,1.36,1.36,0,0,1,1,.37,1.2,1.2,0,0,1,.39.91,1.27,1.27,0,0,1-.39,1,1.33,1.33,0,0,1-1,.39A1.29,1.29,0,0,1,81.71,176.37Zm0,2.53h2V190h-2Z"/><path class="cls-3" d="M96.85,180a4.85,4.85,0,0,1,1.25,3.6V190h-2v-6.17a3.42,3.42,0,0,0-.78-2.44,2.92,2.92,0,0,0-2.22-.81,3.46,3.46,0,0,0-2.59,1,3.73,3.73,0,0,0-.94,2.74V190h-2V178.9h1.93v1.67a4,4,0,0,1,1.65-1.32,5.76,5.76,0,0,1,2.37-.46A4.61,4.61,0,0,1,96.85,180Z"/><path class="cls-3" d="M112.54,178.9v9.61a5.74,5.74,0,0,1-1.45,4.32,6,6,0,0,1-4.32,1.4,10.22,10.22,0,0,1-3-.44,5.76,5.76,0,0,1-2.31-1.22l1-1.56a5.72,5.72,0,0,0,1.92,1.06,7.32,7.32,0,0,0,2.37.39,4,4,0,0,0,2.88-.92,3.8,3.8,0,0,0,.94-2.82v-.88a4.34,4.34,0,0,1-1.76,1.29,5.75,5.75,0,0,1-2.25.43,6,6,0,0,1-2.89-.68,5,5,0,0,1-2-1.91,5.75,5.75,0,0,1,0-5.61,5,5,0,0,1,2-1.9,6.13,6.13,0,0,1,2.89-.67,5.85,5.85,0,0,1,2.34.46,4.37,4.37,0,0,1,1.77,1.37V178.9Zm-3.83,8.44a3.47,3.47,0,0,0,1.37-1.29,3.61,3.61,0,0,0,.49-1.88,3.44,3.44,0,0,0-1.07-2.62,4.31,4.31,0,0,0-5.52,0,3.41,3.41,0,0,0-1.08,2.62,3.62,3.62,0,0,0,.5,1.88,3.45,3.45,0,0,0,1.36,1.29,4.17,4.17,0,0,0,2,.46A4.08,4.08,0,0,0,108.71,187.34Z"/><path class="cls-3" d="M123.41,189.68a6.52,6.52,0,0,1-2.42-1.33l.77-1.64a6.63,6.63,0,0,0,2.15,1.23,8.08,8.08,0,0,0,2.7.47,4.88,4.88,0,0,0,2.73-.62,1.89,1.89,0,0,0,.91-1.65,1.64,1.64,0,0,0-.5-1.23,3.25,3.25,0,0,0-1.21-.72c-.49-.17-1.17-.36-2-.57a21,21,0,0,1-2.68-.8,4.27,4.27,0,0,1-1.74-1.23,3.22,3.22,0,0,1-.73-2.23,3.79,3.79,0,0,1,.62-2.12,4.27,4.27,0,0,1,1.88-1.52,7.76,7.76,0,0,1,3.13-.56,10,10,0,0,1,2.56.33,7.08,7.08,0,0,1,2.17,1l-.7,1.68a7.45,7.45,0,0,0-2-.89,7.15,7.15,0,0,0-2.06-.31,4.58,4.58,0,0,0-2.68.65,2,2,0,0,0-.89,1.68,1.61,1.61,0,0,0,.5,1.23,3.61,3.61,0,0,0,1.25.74,20.12,20.12,0,0,0,2,.55,20.27,20.27,0,0,1,2.67.8,4.48,4.48,0,0,1,1.73,1.22,3.2,3.2,0,0,1,.72,2.2,3.74,3.74,0,0,1-.63,2.11,4.17,4.17,0,0,1-1.91,1.52,7.9,7.9,0,0,1-3.15.55A10.16,10.16,0,0,1,123.41,189.68Z"/><path class="cls-3" d="M141.33,189.37a2.77,2.77,0,0,1-1.09.58,4.63,4.63,0,0,1-1.34.2,3.6,3.6,0,0,1-2.61-.9,3.48,3.48,0,0,1-.92-2.59v-6.11h-1.89V178.9h1.89v-2.44h2v2.44h3.19v1.65h-3.19v6a2,2,0,0,0,.45,1.39,1.68,1.68,0,0,0,1.29.48,2.45,2.45,0,0,0,1.57-.52Z"/><path class="cls-3" d="M151.36,179.92a4.4,4.4,0,0,1,1.23,3.39V190h-1.91v-1.46a3.25,3.25,0,0,1-1.44,1.18,5.53,5.53,0,0,1-2.22.41,4.65,4.65,0,0,1-3-.9,2.9,2.9,0,0,1-1.12-2.38,3,3,0,0,1,1.07-2.36,5.3,5.3,0,0,1,3.4-.89h3.19v-.4a2.56,2.56,0,0,0-.75-2,3.17,3.17,0,0,0-2.23-.7,5.8,5.8,0,0,0-1.93.33,5.2,5.2,0,0,0-1.6.87l-.84-1.51a6.09,6.09,0,0,1,2.06-1.06,8.48,8.48,0,0,1,2.54-.37A5.07,5.07,0,0,1,151.36,179.92Zm-2,8.16a2.91,2.91,0,0,0,1.21-1.46v-1.55h-3.1c-1.71,0-2.57.57-2.57,1.72a1.56,1.56,0,0,0,.65,1.32,3,3,0,0,0,1.81.49A3.7,3.7,0,0,0,149.36,188.08Z"/><path class="cls-3" d="M162.59,189.37a2.89,2.89,0,0,1-1.1.58,4.63,4.63,0,0,1-1.34.2,3.56,3.56,0,0,1-2.6-.9,3.45,3.45,0,0,1-.93-2.59v-6.11h-1.89V178.9h1.89v-2.44h2v2.44h3.19v1.65h-3.19v6a2,2,0,0,0,.45,1.39,1.68,1.68,0,0,0,1.29.48,2.5,2.5,0,0,0,1.58-.52Z"/><path class="cls-3" d="M165.05,176.37a1.23,1.23,0,0,1-.39-.92,1.27,1.27,0,0,1,.39-.93,1.33,1.33,0,0,1,1-.39,1.36,1.36,0,0,1,1,.37,1.22,1.22,0,0,1,.38.91,1.3,1.3,0,0,1-.38,1,1.44,1.44,0,0,1-2,0Zm0,2.53h2V190h-2Z"/><path class="cls-3" d="M172.66,189.42a5.29,5.29,0,0,1-2.06-2,6.1,6.1,0,0,1,0-5.86,5.27,5.27,0,0,1,2.06-2,6.18,6.18,0,0,1,3-.72,6.1,6.1,0,0,1,3,.72,5.4,5.4,0,0,1,2.06,2,6.17,6.17,0,0,1,0,5.86,5.43,5.43,0,0,1-2.06,2,6,6,0,0,1-3,.73A6.07,6.07,0,0,1,172.66,189.42Zm4.91-1.53a3.46,3.46,0,0,0,1.33-1.38,4.53,4.53,0,0,0,0-4.1,3.38,3.38,0,0,0-1.33-1.37,3.86,3.86,0,0,0-1.92-.49,3.81,3.81,0,0,0-1.92.49,3.49,3.49,0,0,0-1.35,1.37,4.53,4.53,0,0,0,0,4.1,3.58,3.58,0,0,0,1.35,1.38,3.71,3.71,0,0,0,1.92.5A3.77,3.77,0,0,0,177.57,187.89Z"/><path class="cls-3" d="M193.53,180a4.85,4.85,0,0,1,1.25,3.6V190h-2v-6.17a3.47,3.47,0,0,0-.77-2.44,3,3,0,0,0-2.23-.81,3.45,3.45,0,0,0-2.58,1,3.74,3.74,0,0,0-1,2.74V190h-2V178.9h1.93v1.67a3.88,3.88,0,0,1,1.65-1.32,5.71,5.71,0,0,1,2.36-.46A4.6,4.6,0,0,1,193.53,180Z"/><path class="cls-3" d="M199.08,189.78a5.65,5.65,0,0,1-2-.93l.84-1.6a6,6,0,0,0,1.78.84,7.38,7.38,0,0,0,2.13.32c1.76,0,2.64-.51,2.64-1.51a1,1,0,0,0-.36-.8,2.12,2.12,0,0,0-.89-.43c-.36-.09-.86-.19-1.52-.31a14.82,14.82,0,0,1-2.19-.48,3.34,3.34,0,0,1-1.46-.92,2.58,2.58,0,0,1-.61-1.83,2.86,2.86,0,0,1,1.26-2.43,5.62,5.62,0,0,1,3.38-.91,9.36,9.36,0,0,1,2.22.27,5.87,5.87,0,0,1,1.83.74l-.86,1.59a5.85,5.85,0,0,0-3.21-.88,3.73,3.73,0,0,0-2,.42,1.26,1.26,0,0,0-.67,1.11,1.08,1.08,0,0,0,.38.87,2.39,2.39,0,0,0,.93.46c.37.1.9.21,1.57.33a17.06,17.06,0,0,1,2.17.5,3.21,3.21,0,0,1,1.42.89,2.5,2.5,0,0,1,.59,1.76,2.8,2.8,0,0,1-1.29,2.41,6.15,6.15,0,0,1-3.52.89A9.19,9.19,0,0,1,199.08,189.78Z"/></g></g></svg>