<svg xmlns="http://www.w3.org/2000/svg" viewBox="0 0 469.38 325.72"><defs><style>.cls-1{fill:#ebe8d9}.cls-11,.cls-2{fill:#b4a89a}.cls-3{fill:#e28683}.cls-4{fill:#d6d3c4}.cls-5{fill:#c4bfad}.cls-6{fill:#d67972}.cls-7{fill:#c6605d}.cls-8{fill:#78aa21}.cls-9{fill:#ace260}.cls-10{fill:#fff}.cls-11,.cls-22{opacity:.5}.cls-12{fill:#9b8b7b}.cls-13{fill:#515151}.cls-14{fill:#353535}.cls-15{fill:#232323}.cls-16{fill:#92cc48}.cls-17{fill:#c8c8c8}.cls-18{fill:#ffda71}.cls-19{fill:#ea9d15}.cls-20{fill:#cbcbcb}.cls-21{fill:#ffc238}.cls-22,.cls-29{fill:#f6b026}.cls-23{fill:#f4b027}.cls-24{fill:#474747}.cls-25{fill:#e4e4e4}.cls-26{fill:#a4a4a4;opacity:.2}.cls-27{fill:#e4ad13}.cls-28{fill:#ffdc8d}.cls-30{fill:#80a8e6}.cls-31{fill:#3b7cbc}.cls-32{fill:#6c98d8}.cls-33{fill:#5488c6}.cls-34{fill:#92bbf4}.cls-35{fill:#ddd}.cls-36{fill:#ffad97}.cls-37{fill:#ffc5b3}.cls-38{fill:#c1c1c1}.cls-39{fill:#6c9916}.cls-40{fill:#757575}.cls-41{fill:#4e5458}.cls-42{fill:#61666c}.cls-43{fill:#e4f1f9}</style></defs><title>build_cs</title><g id="Layer_2" data-name="Layer 2"><g id="Layer_1-2" data-name="Layer 1"><polygon points="469.38 175.18 246.36 46.41 84.48 139.87 307.51 268.63 469.38 175.18" class="cls-1"/><polygon points="223.02 317.41 307.51 268.63 84.48 139.87 0 188.65 223.02 317.41" class="cls-2"/><polygon points="303.88 270.9 307.51 268.63 84.48 139.87 80.86 142.13 303.88 270.9" class="cls-3"/><polygon points="0 188.65 0 196.96 223.02 325.72 223.02 317.41 0 188.65" class="cls-4"/><polygon points="469.38 175.08 469.38 183.49 223.02 325.72 223.02 317.41 469.38 175.08" class="cls-5"/><polygon points="241.16 43.98 241.16 49.22 464.29 178.04 464.29 172.81 241.16 43.98" class="cls-6"/><polygon points="246.25 41.03 246.25 46.26 469.38 175.08 469.38 169.85 246.25 41.03" class="cls-6"/><polygon points="241.16 43.98 246.25 41.03 469.38 169.85 464.29 172.81 241.16 43.98" class="cls-3"/><polygon points="469.38 175.08 464.29 178.04 464.29 172.81 469.38 169.85 469.38 175.08" class="cls-7"/><path d="M288.79,239.86a24.51,24.51,0,0,1-11.84-3l-41-23.7c-3.54-2-5.57-4.87-5.57-7.77,0-2.5,1.48-4.73,4.17-6.28l77.14-44.54a18.88,18.88,0,0,1,9.27-2.16,24.29,24.29,0,0,1,11.84,3l41.05,23.7c3.54,2,5.57,4.87,5.57,7.77,0,2.5-1.48,4.73-4.17,6.28L298.06,237.7a18.91,18.91,0,0,1-9.27,2.16Z" class="cls-8"/><path d="M297.25,236.3l77.14-44.54c5-2.87,4.35-7.94-1.4-11.25l-41.05-23.7c-5.74-3.32-14.52-3.68-19.49-.81l-77.14,44.54c-5,2.87-4.35,7.93,1.4,11.25l41,23.7C283.5,238.81,292.28,239.17,297.25,236.3Z" class="cls-9"/><path d="M303,168.42l-4.31,2.48,2.8,1.62-2.16,1.25-2.8-1.62-4.3,2.49,3.73,2.15L293.81,178l-5.6-3.23,15.07-8.7,5.6,3.23-2.15,1.24Z" class="cls-10"/><path d="M294.92,178.68,310,170l1.87,1.07-12.93,7.46,3.74,2.16-2.16,1.24Z" class="cls-10"/><path d="M316.43,176.17l-4.31,2.49,2.8,1.62-2.15,1.24L310,179.9l-4.31,2.49,3.73,2.16-2.15,1.24-5.6-3.23,15.08-8.71,5.6,3.24-2.16,1.24Z" class="cls-10"/><path d="M323.8,182.91l1.7-1,.06-.48-2-1.17-.83,0-9.88,5.7-.06.48,2,1.17.84,0,1.7-1,1.87,1.08-2.6,1.5-3.19.13-3.57-2.06.23-1.84,11.66-6.73,3.19-.13,3.57,2.06-.23,1.84-2.6,1.5Z" class="cls-10"/><path d="M335.27,187.05,333,185.76l-12.92,7.46-1.87-1.08,12.93-7.46-2.24-1.29,2.15-1.24,6.35,3.66Z" class="cls-10"/><path d="M330.25,199.08l-2-1.17,3.39-4.27-1.26-.73L325,196l-1.87-1.08,15.08-8.7,5.07,2.92L343,191l-6.28,3.63-3,.12Zm2.25-7.41,2.42,1.4.84,0,4.49-2.59.06-.48-2.43-1.4Z" class="cls-10"/><path d="M331,199.51l15.07-8.7,1.87,1.08-15.08,8.7Z" class="cls-10"/><path d="M349.43,197.71l1.71-1,.06-.48-2-1.17-.83,0-9.88,5.7-.06.48,2,1.17.84,0,1.71-1,1.86,1.08-2.6,1.5-3.19.13-3.57-2.06.23-1.84,11.66-6.73,3.19-.13,3.57,2.06-.22,1.84-2.6,1.5Z" class="cls-10"/><path d="M299.11,189.55l-13.37,7.72-1.86-1.08,5.38-3.11-2.8-1.62-5.38,3.11-1.87-1.08,13.37-7.72,3.19-.13,3.57,2.07Zm-7.7,2.29,4.94-2.86.06-.48-2-1.17-.84,0-4.94,2.85Z" class="cls-10"/><path d="M288.33,198.76l.23-1.84,13.37-7.72,1.87,1.08-12.48,7.2-.06.48,2,1.17.83,0,12.48-7.2,1.86,1.07-13.37,7.72-3.18.13Z" class="cls-10"/><path d="M313.78,198.53l-2.24-1.29-12.92,7.46-1.87-1.08,12.92-7.46-2.24-1.29,2.16-1.25,6.35,3.67Z" class="cls-10"/><path d="M303.08,207.28l.23-1.84L315,198.7l3.19-.13,3.57,2.06-.22,1.85-11.67,6.73-3.18.13Zm5,.37.83,0,9.88-5.71.06-.48-2-1.17-.83,0-9.88,5.7-.06.48Z" class="cls-10"/><path d="M188.85,182.22a24.3,24.3,0,0,1-11.85-3L136,155.55c-3.53-2-5.56-4.87-5.56-7.77,0-2.5,1.48-4.73,4.16-6.28L211.69,97A18.91,18.91,0,0,1,221,94.81a24.4,24.4,0,0,1,11.85,3l41.05,23.7c3.53,2,5.56,4.87,5.56,7.77,0,2.5-1.48,4.73-4.16,6.29l-77.14,44.53a18.91,18.91,0,0,1-9.27,2.16Z" class="cls-8"/><path d="M197.31,178.66l77.14-44.53c5-2.88,4.35-7.94-1.4-11.26L232,99.17c-5.75-3.32-14.52-3.68-19.5-.81L135.36,142.9c-5,2.87-4.35,7.94,1.4,11.25l41.05,23.7C183.56,181.17,192.33,181.54,197.31,178.66Z" class="cls-9"/><path d="M203.05,110.78l-4.31,2.49,2.8,1.61-2.15,1.25-2.8-1.62L192.28,117l3.73,2.15-2.15,1.25-5.6-3.24,15.08-8.7,5.6,3.23-2.16,1.24Z" class="cls-10"/><path d="M195,121l15.08-8.7,1.86,1.07L199,120.88l3.73,2.15-2.15,1.24Z" class="cls-10"/><path d="M216.49,118.54,212.18,121l2.8,1.62-2.16,1.24-2.8-1.61-4.3,2.48,3.73,2.16-2.15,1.24-5.6-3.23,15.07-8.71,5.6,3.24-2.15,1.24Z" class="cls-10"/><path d="M223.85,125.27l1.71-1,.06-.48-2-1.17-.83,0-9.88,5.7-.06.48,2,1.17.83,0,1.71-1,1.87,1.07-2.61,1.5-3.18.14-3.58-2.07.23-1.84,11.66-6.73L225,121l3.57,2.06-.22,1.84-2.6,1.5Z" class="cls-10"/><path d="M235.33,129.41l-2.24-1.29-12.93,7.46-1.86-1.08L231.22,127,229,125.75l2.16-1.24,6.34,3.66Z" class="cls-10"/><path d="M230.31,141.44l-2-1.17,3.38-4.27-1.26-.73L225,138.38l-1.87-1.07,15.08-8.71,5.06,2.92-.23,1.84L236.79,137l-3,.12Zm2.24-7.41,2.43,1.4.83,0,4.49-2.6.07-.48-2.43-1.4Z" class="cls-10"/><path d="M231.06,141.87l15.08-8.7,1.86,1.08L232.93,143Z" class="cls-10"/><path d="M249.48,140.07l1.71-1,.06-.48-2-1.17-.83,0-9.88,5.7-.06.48,2,1.17.83,0,1.71-1,1.87,1.08-2.6,1.5-3.19.14-3.57-2.07.22-1.84,11.67-6.73,3.18-.13,3.58,2.06-.23,1.84-2.6,1.5Z" class="cls-10"/><path d="M199.17,131.91l-13.37,7.72-1.87-1.08,5.39-3.11-2.8-1.62-5.39,3.11-1.87-1.08,13.37-7.71,3.19-.14,3.58,2.07Zm-7.7,2.29,4.94-2.85.06-.49-2-1.17-.83,0-4.94,2.85Z" class="cls-10"/><path d="M188.39,141.12l.23-1.84L202,131.56l1.86,1.08-12.47,7.2-.07.49,2,1.17.83,0,12.48-7.2,1.87,1.08-13.37,7.71-3.19.14Z" class="cls-10"/><path d="M213.84,140.89l-2.24-1.29-12.93,7.46L196.81,146l12.92-7.46-2.24-1.29,2.15-1.25,6.35,3.67Z" class="cls-10"/><path d="M203.14,149.64l.23-1.84L215,141.06l3.18-.13,3.58,2.07-.23,1.84-11.66,6.73-3.19.13Zm5,.37.83,0,9.88-5.71.06-.48-2-1.17-.83,0-9.88,5.7-.06.48Z" class="cls-10"/><polygon points="407.95 153.5 374.36 134.33 356.53 145.14 389.61 164.12 407.95 153.5" class="cls-11"/><polygon points="307.75 96.31 274.16 77.13 256.33 87.94 289.4 106.92 307.75 96.31" class="cls-11"/><path d="M431.43,177.22c0,4.55-6.56,8.24-14.65,8.24s-14.65-3.69-14.65-8.24,6.55-8.25,14.65-8.25S431.43,172.67,431.43,177.22Z" class="cls-11"/><path d="M344.47,237.39c0,.47-.68.85-1.51.85s-1.52-.38-1.52-.85.68-.85,1.52-.85S344.47,236.92,344.47,237.39Z" class="cls-11"/><path d="M368.33,213.49c0,.47-.67.85-1.51.85s-1.51-.38-1.51-.85.68-.85,1.51-.85S368.33,213,368.33,213.49Z" class="cls-11"/><path d="M417.75,196.65c0,.47-.68.85-1.51.85s-1.52-.38-1.52-.85.68-.85,1.52-.85S417.75,196.18,417.75,196.65Z" class="cls-11"/><path d="M394.72,192.34c0,.47-.68.85-1.51.85s-1.51-.38-1.51-.85.67-.85,1.51-.85S394.72,191.87,394.72,192.34Z" class="cls-11"/><path d="M364.26,129.12c0,.47-.67.85-1.51.85s-1.51-.38-1.51-.85.68-.85,1.51-.85S364.26,128.65,364.26,129.12Z" class="cls-11"/><ellipse cx="396.95" cy="168.97" class="cls-11" rx="1.51" ry=".85"/><ellipse cx="342.97" cy="116.22" class="cls-11" rx="1.51" ry=".85"/><path d="M309.2,104.25c0,.47-.67.85-1.51.85s-1.51-.38-1.51-.85.68-.85,1.51-.85S309.2,103.78,309.2,104.25Z" class="cls-11"/><ellipse cx="251.66" cy="154.83" class="cls-11" rx="1.51" ry=".85"/><path d="M300.29,248.75c0,.37-.54.67-1.19.67s-1.2-.3-1.2-.67.54-.67,1.2-.67S300.29,248.38,300.29,248.75Z" class="cls-11"/><path d="M371.12,220c0,.37-.54.67-1.2.67s-1.19-.3-1.19-.67.53-.67,1.19-.67S371.12,219.62,371.12,220Z" class="cls-11"/><ellipse cx="265.41" cy="234.95" class="cls-11" rx="1.19" ry=".67"/><path d="M211.55,196.18c0,.37-.53.67-1.19.67s-1.19-.3-1.19-.67.53-.67,1.19-.67S211.55,195.81,211.55,196.18Z" class="cls-11"/><ellipse cx="349.4" cy="214.61" class="cls-11" rx="1.19" ry=".67"/><ellipse cx="290.74" cy="113.5" class="cls-11" rx="1.19" ry=".67"/><path d="M246.54,59.57c0,.38-.54.68-1.2.68s-1.19-.3-1.19-.68.54-.67,1.19-.67S246.54,59.2,246.54,59.57Z" class="cls-11"/><path d="M261.06,70.16c0,.37-.53.67-1.19.67s-1.2-.3-1.2-.67.54-.68,1.2-.68S261.06,69.79,261.06,70.16Z" class="cls-11"/><path d="M235.28,174.31c0,.37-.53.67-1.19.67s-1.19-.3-1.19-.67.53-.67,1.19-.67S235.28,173.94,235.28,174.31Z" class="cls-11"/><ellipse cx="145.06" cy="166.53" class="cls-11" rx="1.19" ry=".67"/><path d="M125.8,137.6c0,.37-.54.67-1.2.67s-1.19-.3-1.19-.67.53-.68,1.19-.68S125.8,137.22,125.8,137.6Z" class="cls-11"/><path d="M141,117c0,.37-.53.67-1.19.67s-1.19-.3-1.19-.67.53-.67,1.19-.67S141,116.59,141,117Z" class="cls-11"/><path d="M128.56,124.9c0,.37-.53.67-1.19.67s-1.19-.3-1.19-.67.53-.67,1.19-.67S128.56,124.53,128.56,124.9Z" class="cls-11"/><path d="M233.14,190.58c0,.37-.53.67-1.19.67s-1.19-.3-1.19-.67.53-.67,1.19-.67S233.14,190.21,233.14,190.58Z" class="cls-11"/><ellipse cx="383.09" cy="194.47" class="cls-11" rx="1.19" ry=".67"/><ellipse cx="438.55" cy="178.69" class="cls-11" rx="1.19" ry=".67"/><ellipse cx="389.24" cy="168.25" class="cls-11" rx="1.19" ry=".67"/><path d="M352.53,125.93c0,.37-.53.67-1.19.67s-1.19-.3-1.19-.67.53-.67,1.19-.67S352.53,125.56,352.53,125.93Z" class="cls-11"/><path d="M314,98.07c0,.38-.53.68-1.19.68s-1.2-.3-1.2-.68.54-.67,1.2-.67S314,97.7,314,98.07Z" class="cls-11"/><path d="M394.4,211.06c0,.37-.53.67-1.19.67s-1.2-.3-1.2-.67.54-.67,1.2-.67S394.4,210.69,394.4,211.06Z" class="cls-11"/><ellipse cx="407.95" cy="198.43" class="cls-11" rx="1.19" ry=".67"/><path d="M332.59,116.29c0,.37-.54.67-1.2.67s-1.19-.3-1.19-.67.54-.67,1.19-.67S332.59,115.92,332.59,116.29Z" class="cls-11"/><path d="M435.58,187.36c0,.38-.54.68-1.19.68s-1.2-.3-1.2-.68.54-.67,1.2-.67S435.58,187,435.58,187.36Z" class="cls-11"/><path d="M330.42,241.91c0,.37-.53.67-1.19.67s-1.19-.3-1.19-.67.53-.67,1.19-.67S330.42,241.54,330.42,241.91Z" class="cls-11"/><ellipse cx="381.89" cy="179.82" class="cls-11" rx="1.19" ry=".67"/><ellipse cx="321.92" cy="104.87" class="cls-11" rx="1.19" ry=".67"/><path d="M328.75,235c0,.47-.68.85-1.51.85s-1.52-.38-1.52-.85.68-.85,1.52-.85S328.75,234.48,328.75,235Z" class="cls-11"/><path d="M256.65,228.64c0,.47-.67.85-1.51.85s-1.51-.38-1.51-.85.68-.85,1.51-.85S256.65,228.17,256.65,228.64Z" class="cls-11"/><path d="M213.35,184.07c0,.47-.68.85-1.51.85s-1.52-.38-1.52-.85.68-.85,1.52-.85S213.35,183.6,213.35,184.07Z" class="cls-11"/><path d="M173.94,182.64c0,.47-.68.85-1.51.85s-1.51-.38-1.51-.85.68-.85,1.51-.85S173.94,182.17,173.94,182.64Z" class="cls-11"/><path d="M298.42,241.91c0,.47-.67.85-1.51.85s-1.51-.38-1.51-.85.68-.85,1.51-.85S298.42,241.44,298.42,241.91Z" class="cls-11"/><path d="M223.17,173c0,.47-.68.86-1.51.86s-1.51-.39-1.51-.86.68-.85,1.51-.85S223.17,172.51,223.17,173Z" class="cls-11"/><path d="M120.05,150.58c0,.47-.67.85-1.51.85s-1.51-.38-1.51-.85.68-.85,1.51-.85S120.05,150.11,120.05,150.58Z" class="cls-11"/><ellipse cx="136.09" cy="125.43" class="cls-11" rx="1.51" ry=".85"/><ellipse cx="250.15" cy="67.98" class="cls-11" rx="1.51" ry=".85"/><path d="M100,138.27c0,.47-.68.85-1.51.85s-1.51-.38-1.51-.85.68-.85,1.51-.85S100,137.8,100,138.27Z" class="cls-11"/><path d="M88.27,163.72c0,4.55-6.56,8.24-14.65,8.24S59,168.27,59,163.72s6.56-8.25,14.65-8.25S88.27,159.16,88.27,163.72Z" class="cls-12"/><path d="M95.91,235.83c0,.58-.83,1-1.85,1s-1.84-.46-1.84-1,.82-1,1.84-1S95.91,235.26,95.91,235.83Z" class="cls-12"/><path d="M75.32,211.4c0,.57-.83,1-1.85,1s-1.84-.47-1.84-1,.82-1,1.84-1S75.32,210.83,75.32,211.4Z" class="cls-12"/><path d="M107.19,220.42c0,.39-.56.7-1.25.7s-1.26-.31-1.26-.7.56-.71,1.26-.71S107.19,220,107.19,220.42Z" class="cls-12"/><path d="M44.55,206.18c0,.39-.56.71-1.26.71s-1.25-.32-1.25-.71.56-.7,1.25-.7S44.55,205.79,44.55,206.18Z" class="cls-12"/><path d="M140.45,254.26c0,.39-.56.71-1.26.71s-1.25-.32-1.25-.71.56-.7,1.25-.7S140.45,253.87,140.45,254.26Z" class="cls-12"/><path d="M256.07,248.35c0,.39-.57.71-1.26.71s-1.26-.32-1.26-.71.57-.7,1.26-.7S256.07,248,256.07,248.35Z" class="cls-12"/><path d="M258.89,270.12c0,.39-.56.71-1.26.71s-1.25-.32-1.25-.71.56-.71,1.25-.71S258.89,269.73,258.89,270.12Z" class="cls-12"/><ellipse cx="228.03" cy="279.86" class="cls-12" rx="1.26" ry=".71"/><path d="M257.45,290.66c0,.39-.56.7-1.26.7s-1.25-.31-1.25-.7.56-.71,1.25-.71S257.45,290.27,257.45,290.66Z" class="cls-12"/><path d="M233.05,303.93c0,.39-.57.71-1.26.71s-1.25-.32-1.25-.71.56-.71,1.25-.71S233.05,303.54,233.05,303.93Z" class="cls-12"/><path d="M144.86,204.39c0,.39-.56.71-1.26.71s-1.25-.32-1.25-.71.56-.7,1.25-.7S144.86,204,144.86,204.39Z" class="cls-12"/><ellipse cx="158.5" cy="231.29" class="cls-12" rx="1.26" ry=".71"/><ellipse cx="127.37" cy="208.81" class="cls-12" rx="1.26" ry=".71"/><path d="M140.45,237.86c0,.39-.56.71-1.26.71s-1.25-.32-1.25-.71.56-.71,1.25-.71S140.45,237.47,140.45,237.86Z" class="cls-12"/><ellipse cx="87.58" cy="194.26" class="cls-12" rx="1.26" ry=".71"/><ellipse cx="86.32" cy="177.22" class="cls-12" rx="1.26" ry=".71"/><path d="M48.89,172.49c0,.39-.56.71-1.25.71s-1.26-.32-1.26-.71.56-.7,1.26-.7S48.89,172.1,48.89,172.49Z" class="cls-12"/><ellipse cx="60.11" cy="180.58" class="cls-12" rx="1.26" ry=".71"/><path d="M158.5,205.1c0,.39-.56.71-1.25.71s-1.26-.32-1.26-.71.56-.71,1.26-.71S158.5,204.71,158.5,205.1Z" class="cls-12"/><path d="M101.21,195.14c0,.57-.83,1-1.85,1s-1.84-.47-1.84-1,.82-1,1.84-1S101.21,194.57,101.21,195.14Z" class="cls-12"/><path d="M109,169c0,.58-.83,1-1.85,1s-1.84-.46-1.84-1,.82-1,1.84-1S109,168.4,109,169Z" class="cls-12"/><path d="M149.79,223.91c0,.57-.82,1-1.84,1s-1.85-.47-1.85-1,.83-1,1.85-1S149.79,223.33,149.79,223.91Z" class="cls-12"/><path d="M127.37,225.31c0,.57-.83,1-1.84,1s-1.85-.47-1.85-1,.83-1,1.85-1S127.37,224.73,127.37,225.31Z" class="cls-12"/><path d="M55,195.14c0,.57-.83,1-1.85,1s-1.84-.47-1.84-1,.82-1,1.84-1S55,194.57,55,195.14Z" class="cls-12"/><path d="M34.83,178.26c0,.57-.83,1-1.85,1s-1.84-.46-1.84-1,.82-1,1.84-1S34.83,177.68,34.83,178.26Z" class="cls-12"/><path d="M148,254.26c0,.58-.83,1-1.85,1s-1.84-.46-1.84-1,.83-1,1.84-1S148,253.69,148,254.26Z" class="cls-12"/><path d="M182.53,282.73c0,.57-.82,1-1.84,1s-1.85-.47-1.85-1,.83-1,1.85-1S182.53,282.16,182.53,282.73Z" class="cls-12"/><path d="M202.88,262.87c0,.57-.83,1-1.85,1s-1.84-.47-1.84-1,.82-1,1.84-1S202.88,262.3,202.88,262.87Z" class="cls-12"/><path d="M242.12,257.92c0,.57-.83,1-1.84,1s-1.85-.47-1.85-1,.83-1,1.85-1S242.12,257.35,242.12,257.92Z" class="cls-12"/><path d="M210,286.86c0,.57-.83,1-1.84,1s-1.85-.47-1.85-1,.83-1,1.85-1S210,286.29,210,286.86Z" class="cls-12"/><path d="M278.78,263.91c0,.57-.83,1-1.85,1s-1.84-.47-1.84-1,.82-1,1.84-1S278.78,263.34,278.78,263.91Z" class="cls-12"/><path d="M139.78,186.11c0,.57-.82,1-1.84,1s-1.85-.46-1.85-1,.83-1,1.85-1S139.78,185.53,139.78,186.11Z" class="cls-12"/><path d="M246.65,248.87c0,.29-.41.52-.92.52s-.93-.23-.93-.52.42-.52.93-.52S246.65,248.58,246.65,248.87Z" class="cls-12"/><path d="M280.66,274.27c0,.28-.41.52-.92.52s-.92-.24-.92-.52.41-.52.92-.52S280.66,274,280.66,274.27Z" class="cls-12"/><path d="M264.77,267.25c0,.29-.41.52-.92.52s-.92-.23-.92-.52.41-.52.92-.52S264.77,267,264.77,267.25Z" class="cls-12"/><path d="M234.79,293.93c0,.29-.41.52-.92.52s-.92-.23-.92-.52.41-.52.92-.52S234.79,293.64,234.79,293.93Z" class="cls-12"/><path d="M237.45,241.91c0,.28-.42.52-.92.52s-.93-.24-.93-.52.42-.52.93-.52S237.45,241.62,237.45,241.91Z" class="cls-12"/><path d="M156.91,266.49c0,.29-.41.52-.92.52s-.92-.23-.92-.52.41-.52.92-.52S156.91,266.21,156.91,266.49Z" class="cls-12"/><path d="M68.8,193.91c0,.29-.41.52-.92.52s-.92-.23-.92-.52.41-.52.92-.52S68.8,193.63,68.8,193.91Z" class="cls-12"/><path d="M117,183.55c0,.28-.42.52-.93.52s-.92-.24-.92-.52.41-.52.92-.52S117,183.26,117,183.55Z" class="cls-12"/><path d="M96.83,215.16c0,.28-.41.52-.92.52s-.92-.24-.92-.52.41-.52.92-.52S96.83,214.87,96.83,215.16Z" class="cls-12"/><path d="M81.32,226.15c0,.28-.41.52-.92.52s-.92-.24-.92-.52.41-.52.92-.52S81.32,225.86,81.32,226.15Z" class="cls-12"/><ellipse cx="23.17" cy="189.06" class="cls-12" rx=".92" ry=".52"/><path d="M63.22,160.75c0,.28-.42.52-.93.52s-.92-.24-.92-.52.41-.52.92-.52S63.22,160.46,63.22,160.75Z" class="cls-12"/><path d="M98.44,158.64c0,.29-.41.52-.92.52s-.92-.23-.92-.52.41-.51.92-.51S98.44,158.36,98.44,158.64Z" class="cls-12"/><ellipse cx="123.68" cy="201.95" class="cls-12" rx=".92" ry=".52"/><ellipse cx="123.68" cy="243.24" class="cls-12" rx=".92" ry=".52"/><path d="M191.8,265.15c0,.28-.41.52-.92.52s-.92-.24-.92-.52.41-.52.92-.52S191.8,264.86,191.8,265.15Z" class="cls-12"/><path d="M200.24,293.93c0,.29-.42.52-.93.52s-.92-.23-.92-.52.41-.52.92-.52S200.24,293.64,200.24,293.93Z" class="cls-12"/><path d="M218.61,304.45c0,.29-.41.52-.92.52s-.92-.23-.92-.52.41-.52.92-.52S218.61,304.16,218.61,304.45Z" class="cls-12"/><path d="M208.61,232c0,.28-.41.52-.92.52s-.92-.24-.92-.52.41-.52.92-.52S208.61,231.71,208.61,232Z" class="cls-12"/><path d="M233.87,268.18c0,4.19-6,7.58-13.45,7.58S207,272.37,207,268.18s6-7.57,13.45-7.57S233.87,264,233.87,268.18Z" class="cls-12"/><path d="M209.1,248.54c0,4.79-6.91,8.68-15.43,8.68s-15.42-3.89-15.42-8.68,6.91-8.68,15.42-8.68S209.1,243.74,209.1,248.54Z" class="cls-12"/><path d="M183.06,265.75c0,3.12-4.49,5.64-10,5.64s-10-2.52-10-5.64,4.49-5.64,10-5.64S183.06,262.64,183.06,265.75Z" class="cls-12"/><polygon points="404.66 150.58 374.82 133.01 359.49 142.31 389.24 159.49 404.66 150.58" class="cls-13"/><polygon points="359.49 142.31 359.49 144.61 389.24 161.78 389.24 159.49 359.49 142.31" class="cls-14"/><polygon points="404.66 150.58 404.66 152.88 389.24 161.78 389.24 159.49 404.66 150.58" class="cls-15"/><polygon points="366.82 143.82 387.59 155.81 387.59 91.37 366.82 79.38 366.82 143.82" class="cls-14"/><polygon points="367.63 81.03 367.63 143.16 386.76 154.2 386.76 92.07 367.63 81.03" class="cls-16"/><polygon points="398.35 85.16 387.59 91.37 387.59 155.81 398.35 149.59 398.35 85.16" class="cls-15"/><polygon points="390.14 93.82 390.14 150.43 396.27 146.89 396.27 90.28 390.14 93.82" class="cls-8"/><polygon points="398.35 85.16 377.53 72.89 366.82 79.38 387.59 91.37 398.35 85.16" class="cls-13"/><path d="M386.23,60.67l-5.47-3.15a1.92,1.92,0,0,0-1.95-.17h0l0,0-.17.11-.67.44.15.2a3.66,3.66,0,0,0-.36,1.7V75.15a7.32,7.32,0,0,0,3,5.81l5.47,3.16a2.36,2.36,0,0,0,1.3.35v.25l.74-.48h0a2.7,2.7,0,0,0,1-2.41V66.49A7.31,7.31,0,0,0,386.23,60.67Z" class="cls-8"/><path d="M380.09,81.4l5.47,3.16c1.68,1,3.05-.07,3.05-2.3V66.93a7.32,7.32,0,0,0-3.05-5.82L380.09,58c-1.67-1-3,.07-3,2.3V75.59A7.32,7.32,0,0,0,380.09,81.4Z" class="cls-16"/><path d="M380.45,78.17l4.32,2.49c1.32.77,2.4,0,2.4-1.81V66.73a5.79,5.79,0,0,0-2.4-4.59l-4.32-2.49c-1.32-.76-2.4.05-2.4,1.82V73.58A5.77,5.77,0,0,0,380.45,78.17Z" class="cls-10"/><path d="M381.46,66.9l3.25,1.88c.27.16.48,0,.48-.36h0a1.13,1.13,0,0,0-.48-.92l-3.25-1.88c-.27-.16-.48,0-.48.36h0A1.13,1.13,0,0,0,381.46,66.9Z" class="cls-14"/><path d="M384.09,67.78h0c.2.11.36,0,.36-.27v-3a.88.88,0,0,0-.36-.69h0c-.2-.11-.36,0-.36.28v3A.88.88,0,0,0,384.09,67.78Z" class="cls-14"/><path d="M382.08,66.62h0c.2.12.36,0,.36-.27v-3a.85.85,0,0,0-.36-.69h0c-.2-.12-.36,0-.36.27v3A.85.85,0,0,0,382.08,66.62Z" class="cls-14"/><path d="M384.61,68.19h0V70c0,1.12-.69,1.63-1.52,1.15a3.65,3.65,0,0,1-1.53-2.91V66.44h0Z" class="cls-14"/><path d="M382.74,69.25v7a.7.7,0,0,1-.1.44.19.19,0,0,1-.17.07,2.17,2.17,0,0,1-1.56-1.91V70.3a3.49,3.49,0,0,0-1.53-3.19v.68a3.39,3.39,0,0,1,.93,2.51v4.58a2.72,2.72,0,0,0,2.16,2.51.77.77,0,0,0,.64-.31,1.27,1.27,0,0,0,.23-.8v-7Z" class="cls-14"/><polygon points="379.78 78.93 379.78 80.04 385.11 83.11 385.11 82 379.78 78.93" class="cls-14"/><path d="M382.76,124.61c0-3.92-2.39-8.48-5.34-10.17a3.44,3.44,0,0,0-3.4-.33h0l-2.62,1.66.78,1.51a8.79,8.79,0,0,0-.08,1.19c0,3.92,2.39,8.48,5.33,10.18a6.1,6.1,0,0,0,.84.38l.61,1.17,1.94-1.22.15-.1h0C382.08,128.19,382.76,126.71,382.76,124.61Z" class="cls-15"/><path d="M369.92,119.84c0,3.92,2.4,8.48,5.34,10.17s5.33-.11,5.33-4-2.4-8.48-5.34-10.18S369.92,115.91,369.92,119.84Z" class="cls-14"/><path d="M375.25,117.1c-2.47-1.42-4.47.09-4.47,3.38A11.4,11.4,0,0,0,373.1,127v-4.73c0-1.28.78-1.87,1.74-1.32a4.22,4.22,0,0,1,1.75,3.34v5.2c1.82.3,3.14-1.2,3.14-3.88C379.72,122.34,377.72,118.52,375.25,117.1Z" class="cls-10"/><path d="M374.84,121c-1-.55-1.74,0-1.74,1.32V127a7.5,7.5,0,0,0,2.16,2,4.09,4.09,0,0,0,1.33.49v-5.2A4.22,4.22,0,0,0,374.84,121Z" class="cls-15"/><path d="M375.24,109.12l5.06,2.93c1.27.73,2.31-.06,2.31-1.75V95.62a5.55,5.55,0,0,0-2.31-4.41l-5.06-2.93c-1.28-.73-2.32,0-2.32,1.75V104.7A5.53,5.53,0,0,0,375.24,109.12Z" class="cls-15"/><polygon points="379.53 113.55 381.8 112.17 381.58 110.8 378.95 111.89 379.53 113.55" class="cls-15"/><polygon points="371.47 89.55 373.73 88.16 375.05 89.01 372.92 91.31 371.47 89.55" class="cls-15"/><path d="M373.07,110.45l5.06,2.92c1.27.74,2.32-.05,2.32-1.74V97a5.59,5.59,0,0,0-2.32-4.42l-5.06-2.92c-1.27-.73-2.32,0-2.32,1.75V106A5.58,5.58,0,0,0,373.07,110.45Z" class="cls-14"/><path d="M372.85,109.45l5.5,3.18c.76.44,1.38,0,1.38-1V96.27a3.33,3.33,0,0,0-1.38-2.64l-5.5-3.17c-.76-.44-1.38,0-1.38,1v15.31A3.33,3.33,0,0,0,372.85,109.45Z" class="cls-10"/><polygon points="372.76 92.66 372.76 98.32 378.44 101.6 378.44 95.94 372.76 92.66" class="cls-17"/><polygon points="373.18 100.5 373.18 101.34 377.3 103.71 377.3 102.87 373.18 100.5" class="cls-17"/><polygon points="373.18 102.1 373.18 102.94 377.3 105.32 377.3 104.48 373.18 102.1" class="cls-17"/><polygon points="373.18 103.71 373.18 104.55 377.3 106.93 377.3 106.08 373.18 103.71" class="cls-17"/><polygon points="373.18 105.32 373.18 106.16 377.3 108.53 377.3 107.69 373.18 105.32" class="cls-17"/><polygon points="304.62 93.43 274.79 75.85 259.45 85.16 289.2 102.33 304.62 93.43" class="cls-13"/><polygon points="259.45 85.16 259.45 87.45 289.2 104.63 289.2 102.33 259.45 85.16" class="cls-14"/><polygon points="304.62 93.43 304.62 95.72 289.2 104.63 289.2 102.33 304.62 93.43" class="cls-15"/><polygon points="266.79 86.67 287.55 98.66 287.55 34.22 266.79 22.23 266.79 86.67" class="cls-14"/><polygon points="267.59 23.87 267.59 86 286.72 97.04 286.72 34.92 267.59 23.87" class="cls-16"/><polygon points="298.32 28 287.55 34.22 287.55 98.66 298.32 92.44 298.32 28" class="cls-15"/><polygon points="290.11 36.67 290.11 93.27 296.24 89.73 296.24 33.13 290.11 36.67" class="cls-8"/><polygon points="298.32 28 277.49 15.73 266.79 22.23 287.55 34.22 298.32 28" class="cls-13"/><path d="M286.2,3.52,280.73.36a2,2,0,0,0-2-.17h0l0,0-.16.1-.67.44L278,1a3.72,3.72,0,0,0-.35,1.69V18a7.28,7.28,0,0,0,3,5.81L286.2,27a2.34,2.34,0,0,0,1.3.36v.25l.74-.49h0a2.74,2.74,0,0,0,1-2.42V9.33A7.31,7.31,0,0,0,286.2,3.52Z" class="cls-8"/><path d="M280.06,24.24l5.47,3.16c1.67,1,3-.07,3-2.3V9.77a7.31,7.31,0,0,0-3-5.81L280.06.8c-1.67-1-3,.07-3,2.3V18.43A7.31,7.31,0,0,0,280.06,24.24Z" class="cls-16"/><path d="M280.41,21l4.32,2.5c1.33.76,2.41-.06,2.41-1.82V9.58A5.76,5.76,0,0,0,284.73,5l-4.32-2.5c-1.32-.76-2.4.06-2.4,1.82V16.42A5.77,5.77,0,0,0,280.41,21Z" class="cls-10"/><path d="M281.42,9.75l3.26,1.88c.26.15.48,0,.48-.37h0a1.17,1.17,0,0,0-.48-.92l-3.26-1.88c-.26-.15-.48,0-.48.37h0A1.17,1.17,0,0,0,281.42,9.75Z" class="cls-14"/><path d="M284.05,10.62h0c.2.12.36,0,.36-.27v-3a.85.85,0,0,0-.36-.69h0c-.2-.12-.36,0-.36.27v3A.85.85,0,0,0,284.05,10.62Z" class="cls-14"/><path d="M282.05,9.47h0c.2.11.36,0,.36-.28v-3a.88.88,0,0,0-.36-.69h0c-.2-.11-.36,0-.36.27v3A.88.88,0,0,0,282.05,9.47Z" class="cls-14"/><path d="M284.57,11h0v1.79c0,1.11-.68,1.63-1.52,1.14a3.64,3.64,0,0,1-1.52-2.9V9.28h0Z" class="cls-14"/><path d="M282.71,12.1v7a.78.78,0,0,1-.1.44.19.19,0,0,1-.18.08,2.19,2.19,0,0,1-1.56-1.92V13.14c0-1.6-.76-2.89-1.53-3.19v.69a3.38,3.38,0,0,1,.94,2.5v4.58a2.7,2.7,0,0,0,2.15,2.51.79.79,0,0,0,.65-.3,1.28,1.28,0,0,0,.22-.81v-7Z" class="cls-14"/><polygon points="279.74 21.77 279.74 22.88 285.07 25.96 285.07 24.85 279.74 21.77" class="cls-14"/><path d="M282.72,67.46c0-3.93-2.39-8.48-5.34-10.18A3.44,3.44,0,0,0,274,57h0l-2.62,1.66.78,1.5a7.47,7.47,0,0,0-.09,1.19c0,3.93,2.39,8.48,5.34,10.18a5.52,5.52,0,0,0,.83.38l.61,1.18,1.94-1.23a.75.75,0,0,0,.15-.09l0,0h0C282,71,282.72,69.55,282.72,67.46Z" class="cls-15"/><path d="M269.89,62.68c0,3.93,2.39,8.48,5.34,10.18s5.32-.11,5.32-4-2.39-8.48-5.34-10.17S269.88,58.76,269.89,62.68Z" class="cls-14"/><path d="M275.21,59.94c-2.47-1.42-4.47.1-4.46,3.39a11.37,11.37,0,0,0,2.31,6.54V65.14c0-1.28.79-1.88,1.75-1.32a4.17,4.17,0,0,1,1.74,3.33v5.21c1.82.29,3.14-1.21,3.14-3.88C279.69,65.19,277.68,61.37,275.21,59.94Z" class="cls-10"/><path d="M274.81,63.82c-1-.56-1.75,0-1.75,1.32v4.73a7.59,7.59,0,0,0,2.16,2,4,4,0,0,0,1.33.5V67.15A4.17,4.17,0,0,0,274.81,63.82Z" class="cls-15"/><path d="M275.2,52l5.07,2.92c1.27.73,2.31,0,2.31-1.75V38.47a5.57,5.57,0,0,0-2.31-4.42l-5.07-2.92c-1.27-.74-2.31.05-2.31,1.74V47.55A5.58,5.58,0,0,0,275.2,52Z" class="cls-15"/><polygon points="279.5 56.39 281.76 55.02 281.54 53.64 278.91 54.73 279.5 56.39" class="cls-15"/><polygon points="271.43 32.4 273.7 31 275.02 31.86 272.89 34.16 271.43 32.4" class="cls-15"/><path d="M273,53.29l5.07,2.93c1.27.73,2.31,0,2.31-1.75V39.8a5.55,5.55,0,0,0-2.31-4.42L273,32.45c-1.27-.73-2.31.06-2.31,1.75V48.88A5.55,5.55,0,0,0,273,53.29Z" class="cls-14"/><path d="M272.81,52.29l5.5,3.18c.76.44,1.39,0,1.39-1V39.12a3.32,3.32,0,0,0-1.39-2.64l-5.5-3.18c-.76-.44-1.38,0-1.38,1.05v15.3A3.3,3.3,0,0,0,272.81,52.29Z" class="cls-10"/><polygon points="272.72 35.51 272.72 41.16 278.4 44.44 278.4 38.79 272.72 35.51" class="cls-17"/><polygon points="273.14 43.34 273.14 44.18 277.26 46.56 277.26 45.72 273.14 43.34" class="cls-17"/><polygon points="273.14 44.95 273.14 45.79 277.26 48.17 277.26 47.33 273.14 44.95" class="cls-17"/><polygon points="273.14 46.55 273.14 47.39 277.26 49.77 277.26 48.93 273.14 46.55" class="cls-17"/><polygon points="273.14 48.16 273.14 49 277.26 51.38 277.26 50.54 273.14 48.16" class="cls-17"/><path d="M266.23,84.43,220.52,58.77c-1.57-.93-4-.73-8.27.51C202,62.24,186,68.15,176,78.68a125.43,125.43,0,0,0-13.72,17c-2.5,3.69-12.35,16-18.71,29.64a30.28,30.28,0,0,0-2.38,13.43h0c0,3.38,1.9,7.51,3.72,8.94,6.65,5.23,21.35,14.1,30.12,17.45,7.62,2.91,17.89.64,23.35-2.43l-6-3.4Z" class="cls-18"/><path d="M266.54,112.68c3.88,1,4.68,4.8,5,8.28l-.49,1L259,114.86C261.31,113.38,263.7,111.92,266.54,112.68Z" class="cls-19"/><path d="M265.91,120c0,5.4-3.29,11.67-7.34,14s-7.33-.15-7.33-5.55,3.29-11.66,7.35-14S265.92,114.56,265.91,120Z" class="cls-15"/><polygon points="253.99 134.46 258.74 137.21 267.64 116.55 262.71 113.72 253.99 134.46" class="cls-15"/><path d="M270.67,122.72c0,5.4-3.29,11.66-7.34,14s-7.34-.15-7.33-5.55,3.29-11.67,7.35-14S270.68,117.32,270.67,122.72Z" class="cls-14"/><path d="M268.61,123.9c0,3.89-2.37,8.39-5.28,10.07s-5.27-.11-5.27-4,2.37-8.39,5.28-10.07S268.61,120,268.61,123.9Z" class="cls-10"/><path d="M267.42,129l-3.48-1.8-1.58,2.55,2.26,3.22A11.39,11.39,0,0,0,267.42,129Z" class="cls-20"/><path d="M268.54,125s.44-2.73-.63-4.23c-1.81,1.54-3.49,3.21-3.49,3.21l.13,1.45Z" class="cls-20"/><path d="M261.21,130.12c-.23.26-1.64,3.91-1.64,3.91a3.22,3.22,0,0,1-1.31-2.26,10.14,10.14,0,0,1-.2-1.79l2.45-1.19Z" class="cls-20"/><path d="M263.61,123.92l1.28-4.59a3.5,3.5,0,0,0-2,.85,12.91,12.91,0,0,0-1.47,1.31l1.28,3.13Z" class="cls-20"/><path d="M261.77,125.3a20.67,20.67,0,0,0-2-1.38,11.13,11.13,0,0,0-1.14,2.74,14.51,14.51,0,0,0,2.5.28Z" class="cls-20"/><path d="M265.41,125.39a6.47,6.47,0,0,1-2.7,5.14c-1.49.86-2.69-.05-2.69-2a6.44,6.44,0,0,1,2.7-5.14C264.2,122.49,265.41,123.41,265.41,125.39Z" class="cls-14"/><path d="M264.6,126.27a3.74,3.74,0,0,1-1.57,3c-.86.5-1.56,0-1.56-1.19a3.72,3.72,0,0,1,1.57-3C263.9,124.59,264.6,125.12,264.6,126.27Z" class="cls-10"/><path d="M212.46,143.32c3.88,1,4.68,4.81,5,8.29l-.49,1-12.07-7.07C207.23,144,209.63,142.56,212.46,143.32Z" class="cls-19"/><path d="M211.84,150.61c0,5.4-3.3,11.67-7.35,14s-7.33-.15-7.33-5.55,3.3-11.67,7.35-14S211.84,145.21,211.84,150.61Z" class="cls-15"/><polygon points="199.91 165.11 204.66 167.86 213.57 147.19 208.63 144.37 199.91 165.11" class="cls-15"/><path d="M216.6,153.36c0,5.4-3.3,11.67-7.35,14s-7.33-.16-7.33-5.56,3.3-11.66,7.35-14S216.6,148,216.6,153.36Z" class="cls-14"/><path d="M214.53,154.55c0,3.88-2.36,8.39-5.28,10.07s-5.27-.11-5.26-4,2.36-8.39,5.28-10.07S214.54,150.67,214.53,154.55Z" class="cls-10"/><path d="M213.34,159.67l-3.48-1.8-1.58,2.55,2.27,3.23A11.4,11.4,0,0,0,213.34,159.67Z" class="cls-20"/><path d="M214.47,155.69s.43-2.73-.64-4.23c-1.81,1.53-3.48,3.2-3.48,3.2l.12,1.45Z" class="cls-20"/><path d="M207.13,160.76c-.22.26-1.64,3.92-1.64,3.92a3.25,3.25,0,0,1-1.31-2.26,9.46,9.46,0,0,1-.19-1.79l2.45-1.2Z" class="cls-20"/><path d="M209.53,154.56l1.28-4.58a3.42,3.42,0,0,0-2,.85,13.26,13.26,0,0,0-1.46,1.31l1.28,3.12Z" class="cls-20"/><path d="M207.69,156a19.25,19.25,0,0,0-2.05-1.38,11,11,0,0,0-1.14,2.74,14.51,14.51,0,0,0,2.5.28Z" class="cls-20"/><path d="M211.33,156a6.44,6.44,0,0,1-2.7,5.14c-1.48.85-2.69-.06-2.69-2a6.43,6.43,0,0,1,2.7-5.14C210.13,153.14,211.33,154.05,211.33,156Z" class="cls-14"/><path d="M210.52,156.92a3.71,3.71,0,0,1-1.57,3c-.86.5-1.56,0-1.56-1.18a3.71,3.71,0,0,1,1.57-3C209.82,155.24,210.52,155.77,210.52,156.92Z" class="cls-10"/><path d="M273.81,120.34l-2.29,1.29c.19-5.22-2.77-7.87-3.88-7.9-6.21-.18-8.19,2-9.21,3.64-2.23,3.47-6.05,10.77-5.44,14.7-10.12,5.7-24.14,13.81-35,19.92-.91-8.1-5.68-9.17-7.17-8.34-4.59,2.59-7.47,3.88-10.45,10-.81,1.67-1.46,8.38-2,9.07-.6.33-.29.41-.87.68a30.91,30.91,0,0,1-11.16,2.77s-.58-9.41,2.18-14.78c6.9-13.39,16.4-25.85,18.9-29.55a134.32,134.32,0,0,1,14.19-17.57c10-10.53,26-16.44,36.22-19.4,7.44-2.15,9.24-1.18,10.78,3.39,1.13,3.35,1,8.14,3.34,11.81,2.15,3.37,1.79,6.24,2,10.76A68,68,0,0,1,273.81,120.34Z" class="cls-21"/><path d="M259.64,111c-3.16,6.27-8,13.64-19.36,21.64-8.37,5.92-23.37,14.35-23.37,14.35l.73,3,34.7-20.26,3.66-9.26s3-4.88,7.89-6.88a10.13,10.13,0,0,1,6.88,1.62c1.83-1.93.42-9.14-.1-9.93C268.31,106.33,262.71,109.47,259.64,111Z" class="cls-22"/><path d="M245,108.15a22.43,22.43,0,0,1,2.32,10.42v16.68l.73-.4V117.09a20.45,20.45,0,0,0-2.26-9.31Z" class="cls-23"/><path d="M222.92,120.78a22.36,22.36,0,0,1,2.33,10.42v16.68l.73-.4V129.72a20.45,20.45,0,0,0-2.26-9.31Z" class="cls-23"/><path d="M224,60.71l.92.51A3.74,3.74,0,0,0,224,60.71Z" class="cls-21"/><path d="M175.54,141.53l-.57-.12c-4.16-1-7.43-1.58-12.56-4.72a45.32,45.32,0,0,1-10.21-8.22,8,8,0,0,1-.66-.78c-.14.71-.31,1.4-.51,2.06.1.12.19.25.3.37a45.32,45.32,0,0,0,10.21,8.22c5.05,3.09,8.3,3.73,12.36,4.67A9.59,9.59,0,0,1,175.54,141.53Z" class="cls-14"/><path d="M150.42,131.57l-.1-.12c-.17.33-.35.67-.55,1a12.84,12.84,0,0,0,2,3c3.58,3.86,11.85,8.46,18.7,10.32l1.61.43c.23-.49.47-1,.74-1.54a2.39,2.39,0,0,1,.12-.22c-4-.94-7.27-1.59-12.29-4.66A45.32,45.32,0,0,1,150.42,131.57Z" class="cls-14"/><path d="M163.32,135.24c5.13,3.14,8.4,3.74,12.56,4.72l1.75.38a17.45,17.45,0,0,1,2.26-.83c-1-.2-2-.42-3-.66-4.15-1-7.43-1.58-12.56-4.72a45.32,45.32,0,0,1-10.21-8.22,13.16,13.16,0,0,1-2.09-3c0,.72-.09,1.59-.18,2.5A12.39,12.39,0,0,0,153.1,127,45.43,45.43,0,0,0,163.32,135.24Z" class="cls-14"/><path d="M151.33,130.12c-.11-.12-.2-.25-.3-.37a10.62,10.62,0,0,1-.56,1.41c0,.09-.1.19-.15.29l.1.12a45.32,45.32,0,0,0,10.21,8.22c5,3.07,8.27,3.72,12.29,4.66a8.11,8.11,0,0,1,1-1.44c-4.06-.94-7.31-1.58-12.36-4.67A45.32,45.32,0,0,1,151.33,130.12Z" class="cls-24"/><path d="M162.41,136.69c5.13,3.14,8.4,3.74,12.56,4.72l.57.12a12.77,12.77,0,0,1,2.09-1.19l-1.75-.38c-4.16-1-7.43-1.58-12.56-4.72A45.43,45.43,0,0,1,153.1,127a12.39,12.39,0,0,1-1.24-1.57c-.08.73-.18,1.49-.32,2.24a8,8,0,0,0,.66.78A45.32,45.32,0,0,0,162.41,136.69Z" class="cls-24"/><path d="M181.57,139.84c-4.76,1.69-5.64,5.32-6.17,7.13a21.2,21.2,0,0,0,11.89-.64,26.9,26.9,0,0,0,3-5.1S186.56,140.81,181.57,139.84Z" class="cls-10"/><path d="M181.57,139.84l-1.68-.33c-2.47.71-5.69,2.18-7.09,5.16-.27.55-.51,1.05-.74,1.54,1.12.29,2.23.54,3.34.76C175.93,145.16,176.81,141.53,181.57,139.84Z" class="cls-21"/><path d="M151,120.74a20.8,20.8,0,0,1-.93-3s-1.48,2.28-3,5.08a31.4,31.4,0,0,0,1.66,7.35,22.59,22.59,0,0,0,2.24-9.41Z" class="cls-10"/><path d="M148,123.65a3.33,3.33,0,0,0,1.71,2.86c.92.37,1.63-.32,1.6-1.53a3.3,3.3,0,0,0-1.71-2.85C148.63,121.76,147.92,122.44,148,123.65Z" class="cls-20"/><path d="M148.47,123.9a2.28,2.28,0,0,0,1.17,2c.63.26,1.12-.21,1.1-1a2.28,2.28,0,0,0-1.17-2C148.94,122.6,148.45,123.07,148.47,123.9Z" class="cls-25"/><path d="M150.47,131.16c1.16-2.28,1.48-5.94,1.57-8.21a20,20,0,0,1-1-2.21h0a24.42,24.42,0,0,1-2.24,9.41,22.07,22.07,0,0,0,1,2.33C150,132,150.26,131.57,150.47,131.16Z" class="cls-21"/><path d="M179.26,143.16A3.31,3.31,0,0,0,181,146c.91.36,1.63-.32,1.59-1.53a3.31,3.31,0,0,0-1.71-2.86C179.94,141.27,179.23,142,179.26,143.16Z" class="cls-20"/><path d="M183.93,143.36a2.5,2.5,0,0,0,1.29,2.16c.69.28,1.23-.24,1.21-1.15a2.52,2.52,0,0,0-1.29-2.16C184.45,141.93,183.9,142.45,183.93,143.36Z" class="cls-20"/><path d="M179.77,143.41a2.27,2.27,0,0,0,1.18,2c.63.26,1.12-.21,1.1-1.05a2.27,2.27,0,0,0-1.18-2C180.24,142.11,179.75,142.58,179.77,143.41Z" class="cls-25"/><path d="M177.13,160.4c-5.09-.87-13.27-4.63-19.11-8.05a43.49,43.49,0,0,1-12.28-10.28,2.64,2.64,0,0,1-.24-3.21l1.11-1.55a1.05,1.05,0,0,0-1.33.33l-1.23,1.73a2.62,2.62,0,0,0,.23,3.2,44.19,44.19,0,0,0,12.23,10.67c5.84,3.41,13.93,8.15,19.1,8.19,1.35,0,1.95-.42,2.17-1A2.36,2.36,0,0,1,177.13,160.4Z" class="cls-14"/><path d="M177.83,159l-.41-2.47a3.52,3.52,0,0,0-2.32-2.75A109.57,109.57,0,0,1,157.34,146a45.64,45.64,0,0,1-10.41-8.43,1,1,0,0,0-.32-.23l-1.11,1.55a2.64,2.64,0,0,0,.24,3.21A43.49,43.49,0,0,0,158,152.35c5.84,3.42,14,7.18,19.11,8.05a2.36,2.36,0,0,0,.65,0A2.7,2.7,0,0,0,177.83,159Z" class="cls-24"/><polygon points="152.93 149.88 161.13 154.61 161.13 148.76 152.93 144.02 152.93 149.88" class="cls-10"/><path d="M155.58,110.66s6.15,9.35,15.35,14.7c11.18,6.49,25,8.11,25,8.11.54-.89,1-1.69,1.52-2.46l-40.24-23.24Z" class="cls-15"/><path d="M211.11,100.05C202.36,95,188,86.44,181.46,82.86c-3.3-1.78-2.47-4.24-2.4-4.43-.43.42-.87.84-1.29,1.27-1.39,1.47-2.65,2.79-3.85,4.09l40.78,23.55c1.24-1.39,2.55-2.81,4-4.32.31-.33.64-.64,1-1l0,0A18,18,0,0,1,211.11,100.05Z" class="cls-15"/><path d="M263.22,82.86l-40.56-22.8-.91-.51a8.09,8.09,0,0,0-4.42-.06A19.85,19.85,0,0,1,224,62.07c3.61,2.16,29.36,16.36,31.77,17.88s2.05,2.91,2.05,2.91h0C260.36,82.25,262,82.18,263.22,82.86Z" class="cls-15"/><path d="M162.43,110.77,197.49,131c4.44-7.07,6.23-9.25,7.89-11.7a106.89,106.89,0,0,1,6.71-9c-4.62-2.58-11.25-6.39-19.67-11.53C180.78,91.73,168.94,102.78,162.43,110.77Z" class="cls-14"/><path d="M187,91.33l-13.05-7.54a87.75,87.75,0,0,0-10.34,13.49c-1.46,2.26-3.69,5.93-6.33,10.49l2.93,1.7,5,2.89c5.15-6.24,13.06-13.72,25-11.16,7.9,1.69,17.28,6.58,21.9,9.16.84-1,1.71-2,2.61-3Z" class="cls-24"/><path d="M184.75,90.05l-10.83-6.26a87.75,87.75,0,0,0-10.34,13.49c-1.46,2.26-3.69,5.93-6.33,10.49l2.93,1.7C162.43,105.83,171,92.88,184.75,90.05Z" class="cls-26"/><path d="M219.68,78.13a266.79,266.79,0,0,0-29.44,9.72c6.82,4,15.07,8.84,20.87,12.2a18,18,0,0,0,8.57,2l0,0c10-9.92,25.34-15.58,35.25-18.44,1.07-.31,2-.56,2.88-.76,0,0,.36-1.39-2.05-2.91-.82-.52-4.34-2.5-8.76-5A93,93,0,0,0,219.68,78.13Z" class="cls-14"/><path d="M217.33,59.49c-1,.18-2.06.45-3.34.82-9.8,2.83-24.88,8.39-34.93,18.12-.07.19-.9,2.65,2.4,4.43,2.21,1.21,5.32,3,8.78,5a266.79,266.79,0,0,1,29.44-9.72A93,93,0,0,1,247,75c-8.6-4.81-20.63-11.48-23-12.9A19.85,19.85,0,0,0,217.33,59.49Z" class="cls-14"/><path d="M217.33,59.49c-1,.18-2.06.45-3.34.82-9.8,2.83-24.88,8.39-34.93,18.12-.07.19-.9,2.65,2.4,4.43,2.21,1.21,5.32,3,8.78,5a266.79,266.79,0,0,1,29.44-9.72A93,93,0,0,1,247,75c-8.6-4.81-20.63-11.48-23-12.9A19.85,19.85,0,0,0,217.33,59.49Z" class="cls-26"/><path d="M234.8,96c-7.33,4.39-12,8.38-15.76,13.89s-5.8,8.27-7.7,11.92-1.46,6.4,5.2,3.52c5.42-2.35,36-21.07,40.45-23.92s5.55-6.81,6.18-10.29-.31-6.66-7.3-4.37A129.2,129.2,0,0,0,234.8,96Z" class="cls-15"/><path d="M222.51,107.77c-1.16,2-4.41,6.43-7,10.08-2.15,3-4.39,6.83-3.41,7.37,1.28.71,8.15-2.8,10.44-4.6Z" class="cls-14"/><path d="M224,106.33v13.54s10.11-6.28,12.93-7.73,7.21-4.44,7.21-4.44v-15a64.84,64.84,0,0,0-11,5.81A55.71,55.71,0,0,0,224,106.33Z" class="cls-14"/><path d="M245.82,92.1v14.49l10.7-6.17c2.06-1.19,5.23-6.1,5.46-9.59s-1.21-3.39-2.53-3.49C257.79,87.22,249.55,90.32,245.82,92.1Z" class="cls-14"/><path d="M244.27,114.78a3.47,3.47,0,0,1-1.45,2.77c-.8.47-1.45,0-1.45-1.1a3.47,3.47,0,0,1,1.45-2.77C243.62,113.21,244.27,113.7,244.27,114.78Z" class="cls-27"/><path d="M244.77,115.37l-3.92,2.26c-.31.18-.57,0-.57-.44h0a1.4,1.4,0,0,1,.57-1.1l3.92-2.26c.31-.19.57,0,.57.43h0A1.42,1.42,0,0,1,244.77,115.37Z" class="cls-18"/><path d="M264,103.41a3.49,3.49,0,0,1-1.45,2.78c-.8.46-1.46,0-1.46-1.1a3.51,3.51,0,0,1,1.46-2.78C263.34,101.85,264,102.34,264,103.41Z" class="cls-15"/><path d="M221.47,125.84a16.42,16.42,0,0,1-3.13,3c-1.36.79-1.43,1.36-1.43,2.75s1.12,1.34,2.28,0,3.32-4.64,3.32-4.64Z" class="cls-18"/><path d="M221.65,125.32a10.49,10.49,0,0,0-3.55-1.89,5.27,5.27,0,0,0-.12,1,5.47,5.47,0,0,0,3.9,5.38,8.81,8.81,0,0,0,3.46.64C225.26,129,224.29,127.28,221.65,125.32Z" class="cls-18"/><path d="M226.33,127.55a18.74,18.74,0,0,0-5.79-5.15c-1.51-.76-2.2-.11-2.44,1a10.49,10.49,0,0,1,3.55,1.89c2.64,2,3.61,3.65,3.69,5.14C226.88,130.35,227.66,129.47,226.33,127.55Z" class="cls-28"/><path d="M208.15,143.7c-5.81,3.35-11.05,11.92-10.61,19.73a16.8,16.8,0,0,0,2-.69c0-.07,0-.26,0-.33,0-6.41,3.91-13.85,8.72-16.63s8.71.18,8.7,6.59c0,.07,0,.14,0,.21l1.71-1C218.64,143.89,214,140.36,208.15,143.7Z" class="cls-29"/><path d="M262.22,113.05c-5.8,3.35-11,11.92-10.6,19.73.27-.15,1.4-.67,2-1h0c0-6.41,3.91-13.85,8.72-16.62s8.7.18,8.7,6.59c0,.06,0,.13,0,.2l1.71-1C272.72,113.25,268,109.71,262.22,113.05Z" class="cls-29"/><path d="M282.89,149.85c-6.08,0-11.49-2.07-14-4.35-4.26-3.84-5.39-9.71-4.32-22.41,1.05-12.33.95-15.9-1.79-19.37l.64-.5c3,3.84,3,8.27,2,19.94-1.05,12.4,0,18.09,4.05,21.74,4.38,3.95,17.78,7.22,27.79-.63,3.5-2.74,5.23-5.44,5.29-8.26.1-4.52-4.18-8.55-8.2-12q-2.07-1.75-4.1-3.43c-5.51-4.58-10.73-8.91-13.45-13.42-4.9-8.12-4.57-18.72-3.91-26,.9-9.7,2.07-13.8,2.12-14l.78.23s-1.21,4.21-2.09,13.82c-.66,7.15-1,17.58,3.79,25.5,2.65,4.39,7.81,8.67,13.28,13.21q2,1.68,4.1,3.43C299,127,303.4,131.16,303.3,136c-.07,3.08-1.9,6-5.6,8.89A23.77,23.77,0,0,1,282.89,149.85Z" class="cls-15"/><path d="M366.25,141l-45.47-25.52c-1.56-.92-3.95-.73-8.22.5-10.17,2.94-26.08,8.82-36,19.3a124.05,124.05,0,0,0-13.64,16.95c-2.49,3.67-12.29,15.9-18.62,29.48a30.14,30.14,0,0,0-2.36,13.36h0c0,3.37,1.88,7.47,3.69,8.89,6.62,5.2,21.24,14,30,17.36,7.58,2.9,17.8.64,23.23-2.41l-6-3.39Z" class="cls-30"/><path d="M366.56,169.13c3.86,1,4.65,4.78,5,8.24l-.49,1-12-7C361.35,169.83,363.74,168.37,366.56,169.13Z" class="cls-31"/><path d="M365.94,176.37c0,5.37-3.28,11.61-7.31,13.93s-7.29-.15-7.29-5.52,3.28-11.61,7.31-13.93S365.94,171,365.94,176.37Z" class="cls-15"/><polygon points="354.08 190.79 358.8 193.53 367.66 172.97 362.75 170.17 354.08 190.79" class="cls-15"/><path d="M370.67,179.11c0,5.37-3.28,11.61-7.31,13.93s-7.29-.15-7.28-5.52,3.27-11.61,7.3-13.93S370.68,173.74,370.67,179.11Z" class="cls-14"/><path d="M368.62,180.29c0,3.86-2.36,8.35-5.25,10s-5.25-.11-5.24-4,2.35-8.35,5.25-10S368.62,176.43,368.62,180.29Z" class="cls-10"/><path d="M367.43,185.39,364,183.6l-1.57,2.53,2.25,3.22A11.34,11.34,0,0,0,367.43,185.39Z" class="cls-20"/><path d="M368.55,181.42s.43-2.71-.63-4.2c-1.8,1.53-3.46,3.19-3.46,3.19l.12,1.44Z" class="cls-20"/><path d="M361.26,186.47c-.23.26-1.63,3.9-1.63,3.9a3.21,3.21,0,0,1-1.31-2.25,9.34,9.34,0,0,1-.19-1.78l2.43-1.19Z" class="cls-20"/><path d="M363.64,180.31l1.28-4.56a3.4,3.4,0,0,0-2,.84,14,14,0,0,0-1.46,1.3l1.27,3.11Z" class="cls-20"/><path d="M361.81,181.69a20.11,20.11,0,0,0-2-1.38,11,11,0,0,0-1.14,2.73,14.36,14.36,0,0,0,2.49.28Z" class="cls-20"/><path d="M365.43,181.77a6.43,6.43,0,0,1-2.68,5.12c-1.48.85-2.68-.06-2.68-2a6.47,6.47,0,0,1,2.69-5.12C364.24,178.89,365.43,179.8,365.43,181.77Z" class="cls-14"/><path d="M364.63,182.65a3.71,3.71,0,0,1-1.56,3c-.86.5-1.56,0-1.55-1.18a3.73,3.73,0,0,1,1.55-3C363.93,181,364.63,181.51,364.63,182.65Z" class="cls-10"/><path d="M312.77,199.61c3.86,1,4.65,4.78,5,8.24l-.48,1-12-7C307.57,200.31,310,198.85,312.77,199.61Z" class="cls-31"/><path d="M312.15,206.86c0,5.37-3.28,11.6-7.31,13.93s-7.29-.15-7.29-5.53,3.28-11.6,7.31-13.92S312.15,201.49,312.15,206.86Z" class="cls-15"/><polygon points="300.29 221.28 305.01 224.01 313.87 203.46 308.96 200.65 300.29 221.28" class="cls-15"/><path d="M316.88,209.6c0,5.37-3.28,11.6-7.31,13.92s-7.29-.15-7.28-5.52,3.27-11.6,7.3-13.92S316.89,204.23,316.88,209.6Z" class="cls-14"/><path d="M314.83,210.78c0,3.86-2.36,8.34-5.25,10s-5.25-.11-5.24-4,2.35-8.34,5.25-10S314.83,206.92,314.83,210.78Z" class="cls-10"/><path d="M313.64,215.87l-3.46-1.79-1.57,2.54,2.25,3.21A11.23,11.23,0,0,0,313.64,215.87Z" class="cls-20"/><path d="M314.76,211.91s.43-2.72-.63-4.21c-1.8,1.53-3.46,3.19-3.46,3.19l.12,1.44Z" class="cls-20"/><path d="M307.47,217c-.23.26-1.63,3.89-1.63,3.89a3.21,3.21,0,0,1-1.31-2.25,9.34,9.34,0,0,1-.19-1.78l2.43-1.18Z" class="cls-20"/><path d="M309.85,210.79l1.28-4.56a3.46,3.46,0,0,0-2,.85,12.71,12.71,0,0,0-1.46,1.3l1.27,3.11Z" class="cls-20"/><path d="M308,212.17a20.11,20.11,0,0,0-2-1.38,11,11,0,0,0-1.14,2.73,14.36,14.36,0,0,0,2.49.28Z" class="cls-20"/><path d="M311.64,212.26a6.4,6.4,0,0,1-2.68,5.11c-1.48.85-2.68-.06-2.68-2a6.43,6.43,0,0,1,2.69-5.11C310.45,209.38,311.65,210.28,311.64,212.26Z" class="cls-14"/><path d="M310.84,213.13a3.71,3.71,0,0,1-1.56,3c-.86.5-1.55,0-1.55-1.17a3.7,3.7,0,0,1,1.55-3C310.14,211.46,310.84,212,310.84,213.13Z" class="cls-10"/><path d="M373.79,176.75,371.51,178c.19-5.18-2.76-7.83-3.85-7.86-6.18-.18-8.15,2.05-9.17,3.62-2.22,3.45-6,10.72-5.41,14.63-10.06,5.67-24,13.73-34.82,19.81-.91-8-5.65-9.12-7.13-8.29-4.57,2.57-7.44,3.86-10.4,10-.81,1.66-1.45,8.33-1.94,9-.59.33-.29.4-.86.67a30.56,30.56,0,0,1-11.1,2.75s-.59-9.35,2.17-14.7c6.86-13.31,16.3-25.71,18.79-29.39a133,133,0,0,1,14.12-17.48c9.95-10.47,25.86-16.35,36-19.29,7.4-2.14,9.19-1.18,10.72,3.37,1.12,3.33,1,8.1,3.32,11.74,2.14,3.36,1.78,6.22,2,10.71A67.27,67.27,0,0,1,373.79,176.75Z" class="cls-32"/><path d="M359.69,167.43c-3.14,6.25-8,13.57-19.26,21.53-8.32,5.89-23.24,14.28-23.24,14.28l.73,2.94L352.43,186l3.65-9.21S359,172,363.92,170a10,10,0,0,1,6.84,1.61c1.83-1.92.42-9.09-.09-9.88C368.32,162.82,362.75,165.94,359.69,167.43Z" class="cls-30"/><path d="M345.16,164.63A22.23,22.23,0,0,1,347.47,175v16.6l.73-.4V173.51a20.33,20.33,0,0,0-2.25-9.26Z" class="cls-33"/><path d="M323.17,177.19a22.17,22.17,0,0,1,2.32,10.36v16.6l.73-.41V186.08a20.33,20.33,0,0,0-2.25-9.26Z" class="cls-33"/><path d="M324.21,117.43l.92.51A3.74,3.74,0,0,0,324.21,117.43Z" class="cls-21"/><path d="M276,197.83l-.56-.12c-4.14-1-7.39-1.58-12.5-4.7a45.06,45.06,0,0,1-10.16-8.18,9.45,9.45,0,0,1-.65-.77,18.06,18.06,0,0,1-.51,2.05c.1.12.19.25.3.36a44.53,44.53,0,0,0,10.16,8.19c5,3.06,8.25,3.7,12.29,4.64A9.07,9.07,0,0,1,276,197.83Z" class="cls-14"/><path d="M251.06,187.92l-.11-.12c-.17.33-.34.67-.54,1a13.22,13.22,0,0,0,2,3c3.56,3.84,11.79,8.41,18.6,10.27l1.6.42.73-1.53c0-.08.09-.14.13-.22-4-.93-7.23-1.58-12.23-4.63A45,45,0,0,1,251.06,187.92Z" class="cls-14"/><path d="M263.88,191.57c5.11,3.12,8.37,3.72,12.5,4.7l1.74.38a16,16,0,0,1,2.25-.83c-1-.2-2-.42-3-.66-4.14-1-7.39-1.57-12.5-4.69a45.06,45.06,0,0,1-10.16-8.18,13.67,13.67,0,0,1-2.08-2.94c0,.71-.08,1.57-.17,2.48a10.89,10.89,0,0,0,1.24,1.56A45,45,0,0,0,263.88,191.57Z" class="cls-14"/><path d="M252,186.47c-.11-.11-.2-.24-.3-.36a10,10,0,0,1-.55,1.4l-.16.29.11.12a45,45,0,0,0,10.15,8.18c5,3.05,8.22,3.7,12.23,4.63a7.49,7.49,0,0,1,1-1.43c-4-.94-7.27-1.58-12.29-4.64A44.53,44.53,0,0,1,252,186.47Z" class="cls-24"/><path d="M263,193c5.11,3.12,8.36,3.73,12.5,4.7l.56.12a12.32,12.32,0,0,1,2.08-1.18l-1.74-.38c-4.13-1-7.39-1.58-12.5-4.7a45,45,0,0,1-10.15-8.18,10.89,10.89,0,0,1-1.24-1.56c-.08.73-.18,1.48-.32,2.23a9.45,9.45,0,0,0,.65.77A45.06,45.06,0,0,0,263,193Z" class="cls-24"/><path d="M282,196.15c-4.73,1.68-5.61,5.29-6.13,7.09a21.13,21.13,0,0,0,11.82-.64,26.8,26.8,0,0,0,3-5.07S287,197.11,282,196.15Z" class="cls-10"/><path d="M282,196.15l-1.67-.33c-2.46.7-5.66,2.16-7.06,5.13l-.73,1.53c1.11.29,2.22.54,3.33.76C276.43,201.44,277.31,197.83,282,196.15Z" class="cls-21"/><path d="M251.66,177.14a21.36,21.36,0,0,1-.92-3s-1.48,2.26-3,5a31.83,31.83,0,0,0,1.64,7.31,22.49,22.49,0,0,0,2.23-9.37Z" class="cls-10"/><path d="M248.6,180a3.31,3.31,0,0,0,1.7,2.85c.91.36,1.62-.32,1.59-1.52a3.28,3.28,0,0,0-1.7-2.84C249.28,178.16,248.57,178.84,248.6,180Z" class="cls-20"/><path d="M249.11,180.29a2.29,2.29,0,0,0,1.17,2c.63.26,1.12-.21,1.1-1a2.27,2.27,0,0,0-1.17-1.95C249.58,179,249.09,179.46,249.11,180.29Z" class="cls-25"/><path d="M251.11,187.51c1.15-2.27,1.47-5.91,1.55-8.16a20.93,20.93,0,0,1-1-2.21h0a24.32,24.32,0,0,1-2.23,9.37c.31.83.63,1.61,1,2.32C250.66,188.37,250.9,187.92,251.11,187.51Z" class="cls-21"/><path d="M279.74,199.45a3.3,3.3,0,0,0,1.7,2.84c.91.37,1.62-.31,1.59-1.52a3.3,3.3,0,0,0-1.7-2.84C280.42,197.56,279.71,198.24,279.74,199.45Z" class="cls-20"/><path d="M284.39,199.65a2.51,2.51,0,0,0,1.28,2.15c.69.27,1.23-.24,1.2-1.15a2.51,2.51,0,0,0-1.28-2.15C284.9,198.23,284.36,198.74,284.39,199.65Z" class="cls-20"/><path d="M280.25,199.69a2.28,2.28,0,0,0,1.17,2c.63.25,1.12-.22,1.1-1a2.28,2.28,0,0,0-1.17-2C280.72,198.4,280.23,198.87,280.25,199.69Z" class="cls-25"/><path d="M277.63,216.59c-5.07-.86-13.21-4.6-19-8a43.21,43.21,0,0,1-12.22-10.23,2.61,2.61,0,0,1-.23-3.19l1.09-1.54a1,1,0,0,0-1.32.33l-1.22,1.72a2.6,2.6,0,0,0,.23,3.18,43.74,43.74,0,0,0,12.17,10.61c5.8,3.4,13.85,8.11,19,8.16,1.34,0,1.94-.42,2.16-1A2,2,0,0,1,277.63,216.59Z" class="cls-14"/><path d="M278.32,215.21l-.41-2.45a3.5,3.5,0,0,0-2.3-2.74,107.32,107.32,0,0,1-17.67-7.78,45.34,45.34,0,0,1-10.35-8.38,1,1,0,0,0-.33-.23l-1.09,1.54a2.61,2.61,0,0,0,.23,3.19,43.21,43.21,0,0,0,12.22,10.23c5.8,3.4,13.94,7.14,19,8a2,2,0,0,0,.64,0A2.65,2.65,0,0,0,278.32,215.21Z" class="cls-24"/><polygon points="253.55 206.13 261.71 210.84 261.71 205.02 253.55 200.31 253.55 206.13" class="cls-10"/><path d="M256.19,167.12s6.11,9.3,15.27,14.62c11.12,6.46,24.9,8.07,24.9,8.07l1.52-2.45-40-23.11C257.31,165.18,256.76,166.12,256.19,167.12Z" class="cls-15"/><path d="M311.42,156.56c-8.69-5-22.94-13.53-29.49-17.09-3.28-1.78-2.45-4.22-2.38-4.41-.44.42-.87.83-1.29,1.27-1.38,1.46-2.64,2.77-3.83,4.06L315,163.81c1.23-1.38,2.53-2.78,4-4.29.31-.33.64-.63,1-1l0,0A17.89,17.89,0,0,1,311.42,156.56Z" class="cls-15"/><path d="M363.26,139.47l-40.34-22.68-.92-.51a8.17,8.17,0,0,0-4.39-.06,19.76,19.76,0,0,1,6.6,2.57c3.59,2.14,29.21,16.27,31.61,17.78s2,2.89,2,2.89h0C360.41,138.87,362.09,138.79,363.26,139.47Z" class="cls-15"/><path d="M263,167.23l34.87,20.13c4.42-7,6.19-9.2,7.84-11.64a107.36,107.36,0,0,1,6.68-8.9c-4.6-2.57-11.19-6.36-19.57-11.46C281.25,148.29,269.48,159.28,263,167.23Z" class="cls-14"/><path d="M287.41,147.89l-13-7.5a87.21,87.21,0,0,0-10.28,13.42c-1.45,2.25-3.67,5.9-6.3,10.44l2.92,1.69,5,2.87c5.12-6.2,13-13.64,24.87-11.1,7.85,1.68,17.18,6.54,21.78,9.11.84-1,1.7-2,2.6-3Z" class="cls-24"/><path d="M285.21,146.62l-10.78-6.23a87.21,87.21,0,0,0-10.28,13.42c-1.45,2.25-3.67,5.9-6.3,10.44l2.92,1.69C263,162.31,271.53,149.44,285.21,146.62Z" class="cls-26"/><path d="M320,134.76a266.35,266.35,0,0,0-29.29,9.67c6.79,3.93,15,8.79,20.76,12.13a17.89,17.89,0,0,0,8.53,2l0,0c10-9.87,25.22-15.5,35.07-18.34,1.06-.31,2-.57,2.86-.77,0,0,.36-1.37-2-2.89-.82-.51-4.32-2.48-8.72-4.95A92.62,92.62,0,0,0,320,134.76Z" class="cls-14"/><path d="M317.61,116.22c-1,.19-2.05.45-3.32.82-9.75,2.81-24.75,8.34-34.74,18-.07.19-.9,2.63,2.38,4.41,2.2,1.2,5.29,3,8.73,5A266.35,266.35,0,0,1,320,134.76a92.62,92.62,0,0,1,27.15-3.14c-8.55-4.78-20.52-11.41-22.89-12.83A19.76,19.76,0,0,0,317.61,116.22Z" class="cls-14"/><path d="M317.61,116.22c-1,.19-2.05.45-3.32.82-9.75,2.81-24.75,8.34-34.74,18-.07.19-.9,2.63,2.38,4.41,2.2,1.2,5.29,3,8.73,5A266.35,266.35,0,0,1,320,134.76a92.62,92.62,0,0,1,27.15-3.14c-8.55-4.78-20.52-11.41-22.89-12.83A19.76,19.76,0,0,0,317.61,116.22Z" class="cls-26"/><path d="M335,152.57c-7.3,4.36-11.9,8.33-15.68,13.82s-5.77,8.22-7.66,11.85-1.45,6.36,5.17,3.5c5.39-2.33,35.83-21,40.24-23.79s5.52-6.77,6.15-10.24-.32-6.62-7.26-4.34A128.22,128.22,0,0,0,335,152.57Z" class="cls-15"/><path d="M322.77,164.25c-1.16,2-4.4,6.39-7,10-2.14,3-4.36,6.8-3.39,7.34,1.27.7,8.1-2.79,10.39-4.58Z" class="cls-14"/><path d="M324.27,162.82v13.46s10.05-6.25,12.86-7.69,7.17-4.41,7.17-4.41V149.29a64.85,64.85,0,0,0-11,5.77A55.25,55.25,0,0,0,324.27,162.82Z" class="cls-14"/><path d="M346,148.66v14.42l10.64-6.15c2.05-1.18,5.2-6.07,5.44-9.53s-1.21-3.37-2.52-3.47C357.85,143.81,349.66,146.89,346,148.66Z" class="cls-14"/><path d="M344.41,171.21A3.49,3.49,0,0,1,343,174c-.8.46-1.45,0-1.45-1.1a3.46,3.46,0,0,1,1.45-2.76C343.76,169.66,344.41,170.15,344.41,171.21Z" class="cls-33"/><path d="M344.9,171.8,341,174.05c-.32.18-.58,0-.58-.43h0a1.38,1.38,0,0,1,.58-1.1l3.89-2.25c.32-.18.58,0,.58.44h0A1.36,1.36,0,0,1,344.9,171.8Z" class="cls-30"/><path d="M364,159.91a3.48,3.48,0,0,1-1.45,2.77c-.8.46-1.45,0-1.45-1.1a3.46,3.46,0,0,1,1.45-2.76C363.38,158.36,364,158.85,364,159.91Z" class="cls-15"/><path d="M321.72,182.22a15.89,15.89,0,0,1-3.11,3c-1.34.79-1.42,1.35-1.42,2.74s1.11,1.34,2.27,0,3.31-4.62,3.31-4.62Z" class="cls-30"/><path d="M321.91,181.7a10.68,10.68,0,0,0-3.54-1.88,6.25,6.25,0,0,0-.11,1,5.44,5.44,0,0,0,3.88,5.35,8.49,8.49,0,0,0,3.44.63C325.5,185.33,324.54,183.65,321.91,181.7Z" class="cls-30"/><path d="M326.56,183.92a18.74,18.74,0,0,0-5.75-5.12c-1.51-.76-2.19-.11-2.44,1a10.68,10.68,0,0,1,3.54,1.88c2.63,2,3.59,3.63,3.67,5.11C327.11,186.7,327.88,185.83,326.56,183.92Z" class="cls-34"/><path d="M308.48,200c-5.78,3.32-11,11.85-10.55,19.62a18.28,18.28,0,0,0,2-.68v-.34c0-6.37,3.89-13.77,8.67-16.53s8.66.18,8.65,6.55v.2l1.7-1C318.92,200.18,314.25,196.66,308.48,200Z" class="cls-33"/><path d="M362.27,169.5c-5.78,3.33-11,11.85-10.55,19.62.27-.15,1.39-.66,2-1,0-.08,0,.08,0,0,0-6.38,3.89-13.78,8.67-16.53s8.66.17,8.65,6.55a1.34,1.34,0,0,1,0,.2l1.71-1C372.71,169.69,368,166.18,362.27,169.5Z" class="cls-33"/><path d="M410.44,131.61c3.9-.26,4-14.2,4-14.2l-.61-.85s-2.3-1-4.12,3.27c-1,2.27-2.83,4.78-3.06,7.77a5.32,5.32,0,0,0,.85,3.05C408.05,131.63,408.73,131.72,410.44,131.61Z" class="cls-7"/><path d="M408.67,172.71s-.84.92-2,2L404.36,177c-.57.56-.1,1.06,1,1a19.09,19.09,0,0,0,4.3-.93,21,21,0,0,0,3.22-1.68,2.08,2.08,0,0,0,.95-1.2v-1.71Z" class="cls-24"/><path d="M422.11,174.83s-.19,1.74-.31,3.93.18,4.13.85,4.37,2.58.21,3.66-2.83a12,12,0,0,0,.44-6Z" class="cls-24"/><path d="M424.28,144.87c.4-6.24-3-9.52-3-9.52.27-2.1-9.48.84-9.48.84s-2.08,11.31-3,17.26c-1,6.76-.56,18.83-.56,18.83s.13,1.48,2.65,1.47a5.77,5.77,0,0,0,3.52-1.59l.2-14.09L416.84,147s.38,10.38,1.8,13.37c2.6,5.48,2.6,15.13,2.6,15.13s3.27,1.16,5.51,0,1.8-2.37,1.8-2.37a48.65,48.65,0,0,0-3.44-14C424.87,154.24,424.1,147.74,424.28,144.87Z" class="cls-15"/><path d="M410.4,139.31a10.17,10.17,0,0,0,8,2.91,11.24,11.24,0,0,0,5.37-2.24,24.72,24.72,0,0,1-.34-5.43c.55-4.27,1.38-11.17,1.23-12.3-.25-1.89-4.53-3.93-4.53-3.93s-3-2.35-6.19-1.11c0,0-3.36,2.71-3.77,6.56-.19,1.9.39,8.33.41,12.54C410.6,137,410.51,138.12,410.4,139.31Z" class="cls-3"/><path d="M414.12,119.4a8.31,8.31,0,0,0-1.2,2.63,7.13,7.13,0,0,0,.72,4.71,35.85,35.85,0,0,1,2.6-2.69,22.73,22.73,0,0,0,2.36-2.44Z" class="cls-7"/><path d="M414.07,119.83a13,13,0,0,0-.68,3,5.91,5.91,0,0,0,.34,2.64s2.71-2.56,3.61-3.44c.5-.49-.94-.94-2-1.4A4.56,4.56,0,0,1,414.07,119.83Z" class="cls-35"/><path d="M415.16,117.09l-.2,3a8.11,8.11,0,0,0,1.39,1.43c1.07-.34,3.55-2.64,3.55-2.64l-.83-4.59Z" class="cls-36"/><path d="M419.53,109.2a3.89,3.89,0,0,0-6.4.47c-2.18,3.23-.12,8.52,1.8,8.21a7.44,7.44,0,0,0,4.54-2.87C420.66,113.06,420.4,110.3,419.53,109.2Z" class="cls-37"/><path d="M415.08,118.23l.27,2.4-2,.8S413.18,118.86,415.08,118.23Z" class="cls-10"/><path d="M419.73,117.9a5.5,5.5,0,0,1-2,1.91,13,13,0,0,1-2.38.82l.73,2.2a18.32,18.32,0,0,0,3.46-1.84S421.06,119.2,419.73,117.9Z" class="cls-10"/><path d="M412.47,111.08c.44-.58.66-1.41,2.14-.91a4.08,4.08,0,0,1,3.11,3.8,1.76,1.76,0,0,0,.53-.07c.2-.74.51-.91.87-.6s.35,1.71.35,1.71a5,5,0,0,0,1.54-3.57c0-1.39-1-4.14-3.58-4.45s-4.1.74-4.68,1.89A3.37,3.37,0,0,0,412.47,111.08Z" class="cls-15"/><path d="M417.7,128.63c1,.42,1.48.58,2.39,1l.92.37v2.76l-4.23-1.11Z" class="cls-37"/><path d="M409.65,126.31a24.64,24.64,0,0,1,5,1,10,10,0,0,1,3.39,1.75,7.59,7.59,0,0,1-.93,2.17c-.51.6-7.73,1-8.95.27S407,126.86,409.65,126.31Z" class="cls-7"/><path d="M416.69,128.2a1.57,1.57,0,0,0-.95,1.5,6.62,6.62,0,0,0,.12,1.91l1.57-.11s.39-1.42.58-1.95a1.39,1.39,0,0,1,.35-.63Z" class="cls-10"/><path d="M422,133.5s-6.86-4.91-8.8-6a15,15,0,0,0-2.84-1.34,2.82,2.82,0,0,0-.67,1.79c0,1.13.94,2.7,2.29,4.07s5.1,4.13,6.95,4.38C420.45,136.62,422,133.5,422,133.5Z" class="cls-7"/><path d="M419.09,136.48c1.44.16,3.34-.45,4.62-2.82a14.36,14.36,0,0,0,1.83-6.27c.27-3.76.23-5.7-1.58-6.45-1,.27-2.63,1.83-3.38,5-.49,2-2.42,7.82-2.42,7.82C417.7,135,417.58,136.31,419.09,136.48Z" class="cls-7"/><path d="M412.7,127a6.38,6.38,0,0,0-1.5.3,2.6,2.6,0,0,0-1.43,1.34,1.84,1.84,0,0,1-.11-2,1.54,1.54,0,0,1,1.66-.67A3.56,3.56,0,0,1,412.7,127Z" class="cls-10"/><path d="M382.39,207.13c-6.08,0-11.5-2.07-14-4.35-4.26-3.84-5.39-9.71-4.32-22.41,1.05-12.33.95-15.9-1.79-19.37l.64-.5c3,3.84,3,8.27,2,19.94-1.05,12.41,0,18.1,4.05,21.74,4.37,3.95,17.78,7.22,27.79-.63,3.5-2.74,5.23-5.44,5.29-8.26.09-4.52-4.18-8.55-8.2-12q-2.07-1.76-4.1-3.43c-5.52-4.58-10.73-8.91-13.45-13.42-4.9-8.11-4.58-18.72-3.91-26,.9-9.7,2.07-13.8,2.12-14l.78.23s-1.21,4.21-2.09,13.82c-.66,7.15-1,17.58,3.79,25.5,2.65,4.39,7.81,8.67,13.28,13.21q2,1.68,4.1,3.43c4.16,3.55,8.59,7.75,8.49,12.61-.07,3.08-1.9,6-5.6,8.89A23.77,23.77,0,0,1,382.39,207.13Z" class="cls-15"/><path d="M200.73,192.34a26.55,26.55,0,0,1,3.14,5.36,3.09,3.09,0,0,1,.32,2.86,38.81,38.81,0,0,1-3.77,6.69A4.78,4.78,0,0,1,200,211s.64.36,1,.52.2,1-.57,1a5.22,5.22,0,0,1-1.62-.34l-1-5.2s.6-.27,1-1.6c.5-1.72,1.48-5.75,1.48-5.75l-3.23-4.59Z" class="cls-37"/><path d="M195.11,186.74l1,7.64a9.44,9.44,0,0,0,1.46,3.1c2-.92,4-2,5-3.74a63.67,63.67,0,0,0-3.55-5.3C196.82,185.7,195.11,186.74,195.11,186.74Z" class="cls-38"/><path d="M203.38,245.47c-1.17-1.14-2-2.1-2-2.1l-5.33-.22v1.76a2.19,2.19,0,0,0,1,1.25,21.7,21.7,0,0,0,3.34,1.74,20.23,20.23,0,0,0,4.46,1c1.12,0,1.61-.48,1-1.06C204.8,246.83,204.47,246.53,203.38,245.47Z" class="cls-24"/><path d="M187.4,245.57l-4.81-.54a12.56,12.56,0,0,0,.45,6.21c1.13,3.15,3.1,3.18,3.8,2.93s1-2.25.89-4.52S187.4,245.57,187.4,245.57Z" class="cls-24"/><path d="M198.13,205.51s-10.11-3-9.83-.87c0,0-3.56,3.4-3.15,9.87.19,3-.6,9.71-.85,14.81a50.19,50.19,0,0,0-3.58,14.48s-.45,1.3,1.87,2.46,5.71,0,5.71,0,0-10,2.69-15.69c1.48-3.1,1.87-13.86,1.87-13.86l2.33,11.53.2,14.62a6,6,0,0,0,3.66,1.63c2.61,0,2.74-1.51,2.74-1.51s.46-12.52-.58-19.53C200.29,217.23,198.13,205.51,198.13,205.51Z" class="cls-15"/><path d="M194.49,186.84a1.52,1.52,0,0,0-.68.63l-5.33.1s-4.32,2.26-5.34,5.62a15.62,15.62,0,0,0,.19,3.25c.16.1,1.18-.06,1.25.15,1.36,3.95,1.18,8.78.89,12.75a2.8,2.8,0,0,0,2.06,1.69c3.46,1.17,8.86.12,10.93-1C197.32,202.22,200.66,192.46,194.49,186.84Z" class="cls-35"/><path d="M193.69,192.55s-.3,2.51-.48,3l-.23.7,1.94,2.25L196,196s-1.37-3.32-1.64-3.73S193.69,192.55,193.69,192.55Z" class="cls-6"/><path d="M198.58,195.72c-.68-6.09-3.19-9-3.19-9l-2.18,0a27.46,27.46,0,0,1,1.9,5.52,16.29,16.29,0,0,1-.5,5.52s-2.06-5.36-4.27-7.6c-2-2.06-2.53-2.19-2.53-2.19L186,189.22a11.73,11.73,0,0,1,2.23,7.68c-.34,3.8-3,4.55-3,4.55l-.67,9.33s3.4,2.52,6.06,2.71c3.44.24,8.67-2.3,8.67-2.3a63.57,63.57,0,0,1-.58-6.88C198.73,200.08,198.71,196.83,198.58,195.72Z" class="cls-8"/><path d="M195.32,188.44s1.36,4.36.92,6.91a18.81,18.81,0,0,1-1.57,4.74l-5-9.31s1.17-.24,1.44,0c1.57,1.38,3.51,7,3.51,7s1.39-3.94.06-7.17C194.46,190.06,195.32,188.44,195.32,188.44Z" class="cls-39"/><path d="M193.21,186.71l-4.05-2.94-.86,4.76a7.5,7.5,0,0,0,2,1.62,21.22,21.22,0,0,0,3.35,1.37,2.7,2.7,0,0,0,0-2Z" class="cls-36"/><path d="M188.69,178.53c-.9,1.14-1.18,4,.06,6a7.74,7.74,0,0,0,4.71,3c2,.32,4.12-5.17,1.86-8.52A4,4,0,0,0,188.69,178.53Z" class="cls-37"/><path d="M191.56,175.81c-4.28,0-4.77,3.93-4.72,5.38a4.14,4.14,0,0,0,1.91,3.36,3.39,3.39,0,0,1,0-1.66c.22-.43.91-.51,1.14.26a1.79,1.79,0,0,0,.56.06l-.23-1.54a7.45,7.45,0,0,0,2.75.27c1.86-.17,3.87-1.26,4.3-2a2,2,0,0,1-1.49-.82,1.84,1.84,0,0,0,1.49-1C195.11,177.78,193.76,175.83,191.56,175.81Z" class="cls-15"/><path d="M194.06,207c-2.07-1-8.51-3.58-8.51-3.58s.83-6.26,1-8.68-3.58-1.54-3.58-1.54a33.31,33.31,0,0,0-1.36,6.42c-.09,2.32-.78,5.93.06,7.1.66.92,9.28,1.88,12.06,2.38C193.93,207.93,193.64,208.2,194.06,207Z" class="cls-37"/><path d="M197.73,207.71c-.67-.33-2.07-.44-2.34-.69s.7-.68.76-1-.1-.51-.35-.42a19.88,19.88,0,0,1-3.7.74,16.52,16.52,0,0,0-.4,2.55,17.08,17.08,0,0,0,5,1.72C199.62,210.82,199,208.33,197.73,207.71Z" class="cls-37"/><path d="M185.16,189.88c-3,.39-3.37,3.56-4.18,8,2.09,1,3.9,1.71,5.86.48.18-.88.47-2.2.5-2.68C187.47,193.69,186.8,189.66,185.16,189.88Z" class="cls-38"/><path d="M193.34,187.47a25.14,25.14,0,0,1,.27,3.61L196,190,194.69,187A1.45,1.45,0,0,1,193.34,187.47Z" class="cls-10"/><path d="M188.62,186.8a3.5,3.5,0,0,0-.55,1.18,10.8,10.8,0,0,0,1.86,3.85,11.43,11.43,0,0,1,3.76-.57s-1.53-1.48-2.43-2.19S188.62,186.8,188.62,186.8Z" class="cls-10"/><path d="M193.31,191.07l-.64.21a4.77,4.77,0,0,0,.85,1.62.78.78,0,0,0,.95-.27c.25-.44-.23-1.85-.23-1.85A8.82,8.82,0,0,0,193.31,191.07Z" class="cls-6"/><path d="M176.59,212.29c.18-.06,2.53-1.82,2.95-2.2s.54-.06.36.39-.48,1.08-.48,1.08a4.42,4.42,0,0,1,2.13-.75c1.15,0,1.63.48.63,1.48-.73.73-4.57,2.13-4.57,2.13Z" class="cls-37"/><path d="M163.65,218.54c0,2.17,2.5,3.73,4.21,1.89a5.58,5.58,0,0,0,1.15-2,56.7,56.7,0,0,0-2.17-7.72l-2.52.41A70.68,70.68,0,0,0,163.65,218.54Z" class="cls-37"/><path d="M166.06,215.86l-3-1.08a47,47,0,0,1,1.46-5.23c.48-1.12.93-2.29,2.37-2.57a1.73,1.73,0,0,1,2.06,1.47C169.25,209.92,166.06,215.86,166.06,215.86Z" class="cls-7"/><path d="M166.66,266.08c.42,1,1.38.9,3.33.2a16.88,16.88,0,0,0,4.37-2.23c1.23-.91,1.24-1,1.41-1.65.22-.86-1-1.34-3.12-.69l-.57.18a1.29,1.29,0,0,1,.95.53c.38.71-.81,1.48-2.06,2.1a3.41,3.41,0,0,1-2.89.34l-1.37-.6C166.59,265.09,166.41,265.48,166.66,266.08Z" class="cls-15"/><path d="M172.45,255.73h0c0,.17.05-1.53.09-3.7a17.7,17.7,0,0,0,4.58,1.29c-.13,1-.28,1.93-.42,2.84-.35,4.14-.66,9.51-.66,9.51s.58-.26,1.73-.64a1.29,1.29,0,0,1,.95.53c.38.71-.8,1.48-2.05,2.1a3.43,3.43,0,0,1-2.9.34c-.45-.21-1.07-.47-1.37-.6a9.65,9.65,0,0,0,0-2.45A91.25,91.25,0,0,1,172.45,255.73Z" class="cls-37"/><path d="M166.53,252.48c0-.52-.09-1.09-.15-1.68a11.76,11.76,0,0,0,4.53.52c-.08,1.66-.17,3.19-.22,4.1-.21,3.1-.34,7.11-.34,7.11s.58-.26,1.73-.64a1.29,1.29,0,0,1,.95.53c.38.71-.81,1.48-2.06,2.1a3.41,3.41,0,0,1-2.89.34l-1.37-.6a9.65,9.65,0,0,0,0-2.45C166.6,260,166.67,254.26,166.53,252.48Z" class="cls-37"/><path d="M172.35,269.22c.42,1,1.38.9,3.33.2a17.12,17.12,0,0,0,4.38-2.23c1.22-.91,1.24-1,1.4-1.65.23-.86-1-1.34-3.12-.69l-.57.18a1.29,1.29,0,0,1,.95.53c.38.71-.8,1.48-2.05,2.1a3.43,3.43,0,0,1-2.9.34c-.45-.21-1.07-.47-1.37-.6C172.28,268.23,172.1,268.62,172.35,269.22Z" class="cls-15"/><path d="M165.58,246c.22,3.17.52,14,.88,16a4.22,4.22,0,0,0,4.95-.74c0-3.07-.41-9.93-.33-12.7.08-3-.62-10.11-.53-11.59a25.26,25.26,0,0,1,1.68,9c.38,7.72-.25,17.93-.16,19.62,2.33.63,3.49.3,4.34-.72,0-.6,2-15.4,2-16.33,0-3.87-.7-17.19-1.29-20-.39-1.87-.64-4.14-.64-4.14l-9.25-1.15s.4-.16-1.21,3.66a15.62,15.62,0,0,0-1.15,8.56C165.08,237,165.53,244.83,165.58,246Z" class="cls-7"/><path d="M173,196c.48.34,2.45.28,3,4.25.44,3.51-.58,3.84-1.29,4.14-.4.16-1.83.63-1.83.63l.16,3.56a5.1,5.1,0,0,1-3.41,0l-1.67-.69a5.9,5.9,0,0,0,.54-3.07c-.14-2.42-1-5.86-.39-7.13A3.46,3.46,0,0,1,173,196Z" class="cls-37"/><path d="M164.62,229.07c.52.68,1.27.77,2.39,1.13a5.55,5.55,0,0,1,.89-2s.33,1.55.5,2.49c1,.23,2.78.51,3.2.56,1.87.22,5.32-.93,6.2-2.31-1.14-3.58-1.67-10.48-1.67-10.48s1.68-4.56.48-7a5.4,5.4,0,0,0-3.87-3.07c-1.22-.41-5.11-1.1-5.11-1.1s-3.7,2.88-2.88,6.49a35.12,35.12,0,0,1,.83,6.59C165.66,221.81,164.64,227.73,164.62,229.07Z" class="cls-3"/><path d="M177.8,223.42c1,.61,1.24.71,2.63-.06.8-1.05-.66-1.84-.23-3.13h0c-1-2.69-2.28-5.58-2.28-5.58l-4.11,1.29s1,2.51,2.28,5A8.42,8.42,0,0,0,177.8,223.42Z" class="cls-37"/><path d="M190.52,214.63c-1.4.53-2.18.76-2.18.76a2.06,2.06,0,0,1,.22-1.09c.28-.5-.19-1.11-.71-.23s-1.38,1.39-1.82,2.2-1.22,1-3.65,2.08c-1.35.58-2.57,1-3.52,1.44a12,12,0,0,1,1.11,3.82c2.68-1.37,6.2-4.53,7.13-4.93a15.59,15.59,0,0,0,4.63-2.91C192.44,215,191.78,214.15,190.52,214.63Z" class="cls-37"/><path d="M175.26,209.7a2.54,2.54,0,0,0-2.57,2.05c-.72,2.47.23,3.64.78,4.87.18.41,1,1.82,1,1.82a4.66,4.66,0,0,0,3-.66,3.08,3.08,0,0,0,1.46-1.67s-.45-1.74-.94-3.3C177.49,211.44,176.7,210.05,175.26,209.7Z" class="cls-7"/><path d="M174.1,209a2.12,2.12,0,0,0-1.67-1.25c-3.53-.34-4.12-.84-4.12-.84a1.13,1.13,0,0,0-1.14.5l-.42.73S170.9,210.14,174.1,209Z" class="cls-40"/><path d="M176.33,198.76a11.43,11.43,0,0,1-2.14,1.15c.37,6.34,1.65,7.66-.91,9.19a4.19,4.19,0,0,0-2.64,3.65c-.45,4-3,4.82-3,4.82s-2.63-2.52-2.68-8.59c0-3.18.21-11.44,1.43-12.93a4.81,4.81,0,0,1,6.14-1.59C174.19,194.08,175.91,194.8,176.33,198.76Z" class="cls-15"/><path d="M229.79,216.23a32.93,32.93,0,0,1,2,8.36c.19,1.77-3.14,11.47-3.14,11.47s-2-8.87-1.83-12.37.21-6.46.21-6.46Z" class="cls-37"/><path d="M227.28,237.85s-.39-.23-.78-.49-1.37.28-.88.61l.73.48Z" class="cls-35"/><path d="M221.87,261.62c.64-.4,3.89,1.49,3.89,1.49l4.19,1.41v3a2.83,2.83,0,0,1-3.86.7c-1.31-.89-3.62-2.27-4.36-3.78S221.23,262,221.87,261.62Z" class="cls-24"/><path d="M211.87,266.55c.65-.4,3.89,1.49,3.89,1.49l4.49,1.51-.35,3.37a2.88,2.88,0,0,1-3.8.22c-1.32-.89-3.63-2.27-4.36-3.78S211.23,267,211.87,266.55Z" class="cls-24"/><path d="M227.65,229.16a23.33,23.33,0,0,1,2.13,7.83c.14,1.93-.92,12.76-.92,12.76a24.51,24.51,0,0,1,.88,4.15c.5,3.45.84,12.07.85,11.74a3.92,3.92,0,0,1-2.61,1.55c-1.82,0-3.23-2.18-3.23-2.18s-2-11.9-2.13-14.93c-.07-1.9.17-8.73.17-8.73s-1.94,9.06-1.79,11.37-.3,15.93-.42,16.88c-.39,1.39-1.52,1.78-2.73,2-1.53.34-3.54-2.51-3.54-2.51s.11-15.45,0-17.88c-.21-4.15,1.82-20.41,1.82-20.41Z" class="cls-15"/><path d="M227.16,218c-.24-.05-.66-2.71-.66-2.71l-1.16-4.78s.9-1.39,2.69.28a11.61,11.61,0,0,1,2.68,6.49A4,4,0,0,1,227.16,218Z" class="cls-33"/><path d="M220.55,200.6a3.21,3.21,0,0,1,4.59,1.57c.57,1.19-.23,4.39-.36,6.64a5.44,5.44,0,0,0,.51,2.86l-1.56.65a4.72,4.72,0,0,1-3.18,0l.06-2.77a7.31,7.31,0,0,1-2-.52c-.71-.65-1.08-2.57-.76-5.05C218.37,200.28,220.11,200.91,220.55,200.6Z" class="cls-37"/><path d="M216.34,221.56c-.87-2,1.19-5.64,1.79-6.94a5.43,5.43,0,0,1,2.51-2.11l5.71-1.72a9.18,9.18,0,0,1,3,7.91c-.18,1.85-.18,8.86,0,14-.51,2-6.7,3.32-9.3,2.63-.81-.22-3.45-.54-4.29-2.14-.24-1.09.39-2,.69-4.05C216.82,226.55,216.88,222.81,216.34,221.56Z" class="cls-32"/><path d="M207,220.37c2.28,1,5.93,2.2,5.93,2.2s4.05-7.83,5.39-7.95c.91-.09,1.41,1.61,1.32,3.69-.08,1.61-1.69,4.47-3.33,6.52h0s-1.62,2.52-2.3,2.43a30,30,0,0,1-5.3-2.68c-1-.66-1.6-1.17-2.6-1.82A11.83,11.83,0,0,1,207,220.37Z" class="cls-37"/><path d="M220.83,211.75a30.7,30.7,0,0,0,4.51-1.57c.92-.47,1.47,1.57,1.47,1.57a6.23,6.23,0,0,1-2.66,1.84,5.74,5.74,0,0,1-4.56-.36C219.58,212.2,220.83,211.75,220.83,211.75Z" class="cls-33"/><path d="M213.15,220.43c1.21-2.52,3.36-6.2,5.51-6.91,1-.32,2,2.07,1.71,4.44a16.44,16.44,0,0,1-2.1,5.45A6.27,6.27,0,0,1,213.15,220.43Z" class="cls-33"/><path d="M224.36,199.08a1,1,0,0,1,1.38.75.71.71,0,0,1,.89.87c.72-.08,1,.77.52,1.34.86.34.72,1,.26,1.57.62.51.62,1.21-.17,1.47a.64.64,0,0,1-.24,1.17.69.69,0,0,1-.47,1.16.93.93,0,0,1-.47,1.48c.13.59-.23,1.08-.72,1a.82.82,0,0,1-1.54.24c-.4.25-1.07.25-1.17-.38-.65.34-1.43-.78-1.08-1.35-.77-.44-1-.76-.54-1.38-.95-.07-1.16-.6-.82-1.3-.55.23-.93.1-1.14-.75a.86.86,0,0,1-.69-1.42.67.67,0,0,1-.21-1.24c-.54-.15-.74-1.36.16-1.42-.42-1,.1-1.33.78-1.19,0-.79.51-1.15,1.33-.68.41-.75,1.87-1.19,2.11-.26A1,1,0,0,1,224.36,199.08Z" class="cls-15"/><path d="M207,220.37a12.27,12.27,0,0,1-.89-1.76c-.21-.6-.4-1.38-.4-1.38a.39.39,0,0,0-.41.29,13,13,0,0,1-.28,1.36c-.35.57-2.11.29-2.88.15-1.5-.26-2.58,1.77-.52,2.58a24,24,0,0,0,4.49,1.15Z" class="cls-37"/><path d="M77.93,113.13A61.23,61.23,0,0,1,75.09,103l.6-.83s2.3-.14,4.1,4.07,3.78,7.91,4,8.81C82.36,115.75,80.18,115.8,77.93,113.13Z" class="cls-31"/><path d="M80.31,157.06s.83.91,2,2,1.35,1.3,2.31,2.24c.56.54.1,1-1,1a18.65,18.65,0,0,1-4.25-.92,21.44,21.44,0,0,1-3.18-1.66,2.13,2.13,0,0,1-1-1.19v-1.68Z" class="cls-15"/><path d="M68.45,161.7s.19,1.72.31,3.88-.18,4.08-.85,4.31-2.54.21-3.61-2.79a12,12,0,0,1-.44-5.92Z" class="cls-15"/><path d="M64.88,129.55c-.4-6.17,3-9.41,3-9.41-.27-2.08,9.37.83,9.37.83s2.07,11.17,2.94,17.05c1,6.69.55,18.62.55,18.62s-.12,1.45-2.61,1.44a5.7,5.7,0,0,1-3.49-1.56l-.2-13.93L71.86,133s0,9.51-1.06,13.37c-1.64,5.76-1.12,16.78-1.12,16.78s-3.23,1.15-5.45.05-1.77-2.35-1.77-2.35-.72-9.46,2.12-15.86C64.82,140.17,65.06,132.38,64.88,129.55Z" class="cls-31"/><path d="M75.55,102.84s3.32,2.69,3.72,6.48c.2,1.89-.38,8.24-.4,12.4,0,2.34.92,8.89.92,8.89a21.63,21.63,0,0,1-3.05,1.68,23.43,23.43,0,0,0-.63-4.26s-.18,2.93-.18,4.54a11.57,11.57,0,0,1-3.4.5c-3.08,0-8.15-2.16-8.15-2.16s0-7,.94-10.88c1-4.14-.52-11.08-.37-12.2.25-1.87,4.48-3.89,4.48-3.89S72.43,101.62,75.55,102.84Z" class="cls-32"/><path d="M74.1,102.48a19.81,19.81,0,0,1,3.1,3.2,6.31,6.31,0,0,1,1,1.76l-1,1,1.4.67s.77,5.24-.28,7A37.21,37.21,0,0,0,76,122.25a57.81,57.81,0,0,0-2.11-5.69c-.65-1.13-3.08-4.27-3.08-4.27L72,110.45l-2-.65s-2.8-3.51-2.51-4.57A3.44,3.44,0,0,1,70,102.84Z" class="cls-31"/><path d="M75.9,106.11a43.78,43.78,0,0,1,1.23,4.55C77.56,112.83,76,120,76,120s-.7-7-2.11-9A47.08,47.08,0,0,0,70,106.36S74.46,105.55,75.9,106.11Z" class="cls-10"/><path d="M75.08,106.55l.24,1.85a5.05,5.05,0,0,1,1.32,2.35,47.66,47.66,0,0,1,0,6L76,120l-.28-2.22s-.5-2.87-.93-4.64a9.86,9.86,0,0,0-.2-1.61,13,13,0,0,1-.35-2.67l-1.16-1.38,1.1-1.28Z" class="cls-3"/><path d="M76.65,98.15a.87.87,0,0,0-.43-.75,1.82,1.82,0,0,0,0,1.22,2.76,2.76,0,0,1,.13.87Z" class="cls-37"/><path d="M75.83,101.45,77,96.87a.75.75,0,0,1,.08-.18l0-.12h.23a.29.29,0,0,1,.25.09l1.23,1.22a1.15,1.15,0,0,1,.23,1l-1.2,4.58a.39.39,0,0,1-.26.31l-.26,0v-.13h0l-1.23-1.22A1.12,1.12,0,0,1,75.83,101.45Z" class="cls-41"/><path d="M75.83,102.45l1.23,1.22c.21.21.46.11.54-.22l1.2-4.58a1.11,1.11,0,0,0-.22-1l-1.24-1.22c-.21-.21-.45-.11-.54.23l-1.2,4.57A1.15,1.15,0,0,0,75.83,102.45Z" class="cls-42"/><path d="M76.06,102l1,1c.19.18.4.09.47-.19l1-4a1,1,0,0,0-.19-.85l-1-1c-.18-.18-.39-.09-.47.2l-1,4A1,1,0,0,0,76.06,102Z" class="cls-10"/><path d="M81,104.37a19.4,19.4,0,0,1-1.27-4.16,2.05,2.05,0,0,0-.64-1.54c-.5-.39-.74-.64-.78-.36s.52.91.52.91-.69-.32-.72-.13c-.06.38.37.81.37.81s-.49-.35-.52,0a2.17,2.17,0,0,0,.39.93s-.5-.31-.56,0,.49,1,.49,1l-.41,1.56,1,1.42Z" class="cls-37"/><path d="M74.36,102.72l.2,2.93a7.93,7.93,0,0,1-1.37,1.41c-1.06-.33-3.51-2.6-3.51-2.6l.81-4.54Z" class="cls-36"/><path d="M70,94.92a3.84,3.84,0,0,1,6.32.47c2.16,3.2.12,8.42-1.77,8.12a7.35,7.35,0,0,1-4.49-2.85A5.75,5.75,0,0,1,70,94.92Z" class="cls-37"/><path d="M74.44,103.85l-.27,2.38,1.93.78S76.32,104.48,74.44,103.85Z" class="cls-43"/><path d="M69.84,103.52a5.46,5.46,0,0,0,2,1.9,13.24,13.24,0,0,0,2.35.81l-.72,2.17A17.9,17.9,0,0,1,70,106.58S68.53,104.81,69.84,103.52Z" class="cls-43"/><path d="M77,96.79c-.43-.57-.66-1.4-2.11-.9a4,4,0,0,0-3.08,3.75,1.76,1.76,0,0,1-.53-.07c-.19-.73-.5-.9-.86-.59s-.34,1.68-.34,1.68a4.89,4.89,0,0,1-1.52-3.52c0-1.37,1-4.09,3.54-4.4s4,.74,4.62,1.87A3.37,3.37,0,0,1,77,96.79Z" class="cls-15"/><path d="M66.76,120.77c-.63,1.42-1.5,3.06-3.45,3-1.19,0-2-1.69-2-2.88a39.09,39.09,0,0,1,1.1-8.87c.86-3.61,1.62-5.61,3.54-5.78.86.54,1.59,3.25,1.59,6.08l-.75,8.36Z" class="cls-31"/><path d="M80.45,102.86a56.57,56.57,0,0,1,3.35,5.54c1.19,2.41,1.24,4.57.61,5.94S83,115,82,114.26s-2.09-5.34-2.52-6.39-1.56-3.72-1.56-3.72S79.43,102.81,80.45,102.86Z" class="cls-31"/><path d="M71.68,118.68a8.74,8.74,0,0,0,1-1.63c.45-1,1-.74.88,0s-.2.86.2,1.32,1.46.6,2.82,1.18,1.5,2.25-.38,2.31-4.1-.59-4.87-.39-2.36.86-2.36.86L68.1,120S71.26,119.26,71.68,118.68Z" class="cls-37"/><path d="M70.41,119.08s.25.79.43,1.58a5.57,5.57,0,0,1,.07,1.67l-3.67,1.12c-1.2.36-4,.88-4.94-.16s-1.23-2.9.23-3.58C64.26,118.89,70.41,119.08,70.41,119.08Z" class="cls-31"/></g></g></svg>