<svg height="512pt" viewBox="0 -139 512.001 512" width="512pt" xmlns="http://www.w3.org/2000/svg"><path d="m33.339844 152.1875c0 9.207031-7.464844 16.667969-16.671875 16.667969-9.203125 0-16.667969-7.460938-16.667969-16.667969s7.464844-16.667969 16.667969-16.667969c9.207031 0 16.671875 7.460938 16.671875 16.667969zm0 0" fill="#ffd500"/><path d="m486.957031 116.316406v-4.488281c0-8.285156-6.714843-15-14.996093-15-4.714844 0-8.921876 2.175781-11.671876 5.578125-1.070312 1.324219-3.226562.511719-3.222656-1.195312l.003906-1.910157c0-13.644531-11.058593-24.703125-24.703124-24.703125-13.648438 0-24.714844 11.066406-24.707032 24.714844l.007813 12.820312c.007812 12.46875-10.097657 22.578126-22.566407 22.578126h-31.558593v11.3125l14.980469-.117188c11.40625-.085938 20.703124 9.136719 20.703124 20.546875v1.46875c0 8.175781 6.679688 15.3125 14.855469 15.386719 4.339844.042968 8.25-1.761719 11.007813-4.675782 1.128906-1.191406 3.132812-.398437 3.132812 1.242188v.003906c0 13.671875 11.082032 24.753906 24.75 24.753906 13.640625 0 24.710938-11.035156 24.753906-24.671874l.027344-5.742188c.015625-3.152344 2.578125-5.699219 5.730469-5.699219h13.476563c13.828124 0 25.039062-11.214843 25.039062-25.042969 0-13.136718-10.113281-23.90625-22.976562-24.957031-1.160157-.097656-2.066407-1.042969-2.066407-2.203125zm0 0" fill="#b9acac"/><path d="m491.976562 118.960938c2.886719 4.082031 4.605469 9.050781 4.605469 14.429687 0 13.832031-11.210937 25.042969-25.042969 25.042969h-13.472656c-3.152344 0-5.714844 2.546875-5.730468 5.699218l-.027344 5.742188c-.046875 13.640625-11.113282 24.671875-24.753906 24.671875-1.664063 0-3.289063-.167969-4.859376-.480469 4.476563 6.386719 11.886719 10.566406 20.277344 10.566406 13.640625 0 24.707032-11.035156 24.753906-24.671874l.027344-5.742188c.015625-3.152344 2.578125-5.699219 5.730469-5.699219h13.476563c13.828124 0 25.039062-11.214843 25.039062-25.042969 0-12.109374-8.601562-22.191406-20.023438-24.515624zm0 0" fill="#9e9797"/><path d="m340.378906 95.980469-10.199218-66.066407c-1.96875-12.769531-12.957032-22.191406-25.878907-22.191406h-147.285156c-2.582031 0-5.050781 1.070313-6.816406 2.960938l-60.941407 85.296875zm0 0" fill="#d5f3f7"/><path d="m326.753906 7.722656h-34.644531l13.355469 88.257813h34.914062zm0 0" fill="#a7e8f1"/><path d="m348.011719 94.800781-10.199219-66.0625c-2.570312-16.652343-16.664062-28.738281-33.511719-28.738281h-147.285156c-4.707031 0-9.246094 1.972656-12.460937 5.410156-.230469.246094-.441407.507813-.640626.785156l-60.945312 85.296876c-1.679688 2.351562-1.90625 5.449218-.582031 8.023437s3.976562 4.191406 6.871093 4.191406h251.121094c2.253906 0 4.394532-.988281 5.863282-2.699219 1.46875-1.710937 2.113281-3.976562 1.769531-6.207031zm-191.941407-79.042969c.269532-.199218.601563-.308593.945313-.308593h38.765625v72.808593h-91.511719zm55.160157 72.5v-72.808593h93.070312c9.171875 0 16.84375 6.578125 18.246094 15.644531l8.824219 57.164062zm0 0" fill="#ff6930"/><path d="m365.554688 86.222656h-273.058594l-59.5625 14.324219c-12.34375 2.089844-21.375 12.78125-21.375 25.300781v57.144532c0 5.917968 4.796875 10.714843 10.714844 10.714843h343.296874c5.917969 0 10.714844-4.796875 10.714844-10.714843v-86.039063c0-5.925781-4.804687-10.730469-10.730468-10.730469zm0 0" fill="#ff6930"/><path d="m365.554688 86.222656h-85.695313v60.394532c0 5.925781-4.804687 10.730468-10.730469 10.730468h-257.574218v25.644532c0 5.917968 4.800781 10.714843 10.71875 10.714843h343.296874c5.917969 0 10.714844-4.796875 10.714844-10.714843v-86.039063c0-5.925781-4.804687-10.730469-10.730468-10.730469zm0 0" fill="#ff5426"/><path d="m133.128906 193.707031c0 22.652344-18.367187 41.015625-41.019531 41.015625s-41.015625-18.363281-41.015625-41.015625c0-22.652343 18.363281-41.015625 41.015625-41.015625s41.019531 18.363282 41.019531 41.015625zm0 0" fill="#5b5555"/><path d="m107.664062 155.753906c3.925782 6.289063 6.199219 13.710938 6.199219 21.671875 0 22.652344-18.363281 41.015625-41.015625 41.015625-5.507812 0-10.757812-1.09375-15.558594-3.0625 7.246094 11.613282 20.125 19.34375 34.820313 19.34375 22.652344 0 41.015625-18.359375 41.015625-41.015625 0-17.144531-10.523438-31.824219-25.460938-37.953125zm0 0" fill="#444"/><path d="m103.59375 193.707031c0 6.34375-5.140625 11.484375-11.484375 11.484375-6.339844 0-11.480469-5.140625-11.480469-11.484375s5.140625-11.484375 11.480469-11.484375c6.34375 0 11.484375 5.140625 11.484375 11.484375zm0 0" fill="#efe2dd"/><path d="m353.542969 193.707031c0 22.652344-18.363281 41.015625-41.015625 41.015625s-41.015625-18.363281-41.015625-41.015625c0-22.652343 18.363281-41.015625 41.015625-41.015625s41.015625 18.363282 41.015625 41.015625zm0 0" fill="#5b5555"/><path d="m328.082031 155.753906c3.921875 6.289063 6.195313 13.710938 6.195313 21.671875 0 22.652344-18.363282 41.015625-41.015625 41.015625-5.507813 0-10.757813-1.09375-15.554688-3.0625 7.242188 11.613282 20.125 19.34375 34.816407 19.34375 22.652343 0 41.015624-18.359375 41.015624-41.015625.003907-17.144531-10.519531-31.824219-25.457031-37.953125zm0 0" fill="#444"/><path d="m324.011719 193.707031c0 6.34375-5.144531 11.484375-11.484375 11.484375-6.34375 0-11.484375-5.140625-11.484375-11.484375s5.140625-11.484375 11.484375-11.484375c6.339844 0 11.484375 5.140625 11.484375 11.484375zm0 0" fill="#efe2dd"/><path d="m181.507812 129.34375h-18.011718c-4.265625 0-7.726563-3.457031-7.726563-7.726562 0-4.265626 3.457031-7.722657 7.726563-7.722657h18.011718c4.265626 0 7.722657 3.457031 7.722657 7.722657 0 4.269531-3.457031 7.726562-7.722657 7.726562zm0 0" fill="#f04424"/><path d="m489.304688 59.464844c0 6.0625-4.917969 10.980468-10.980469 10.980468s-10.976563-4.917968-10.976563-10.980468 4.914063-10.976563 10.976563-10.976563 10.980469 4.914063 10.980469 10.976563zm0 0" fill="#b9acac"/></svg>