<svg id="Capa_1" enable-background="new 0 0 510.973 510.973" height="512" viewBox="0 0 510.973 510.973" width="512" xmlns="http://www.w3.org/2000/svg"><g><path d="m416.139 13.135h48.992v30h-48.992z" fill="#869fae" transform="matrix(.706 -.709 .709 .706 109.756 320.487)"/><path d="m458.563 55.424h48.992v30h-48.992z" fill="#869fae" transform="matrix(.706 -.709 .709 .706 92.279 362.993)"/><path d="m403.417 435.596c-5.093 0-10.225-.642-15.291-1.948-17.996-4.637-32.691-17.017-40.317-33.965l-.969-2.153c-10.047-22.326-32.357-36.751-56.84-36.751v-30c36.266 0 69.315 21.369 84.197 54.441l.969 2.153c3.868 8.595 11.32 14.873 20.446 17.225 9.13 2.351 18.686.458 26.226-5.197 12.901-9.676 16.163-27.87 7.426-41.42-19.6-30.392-44.646-69.095-52.655-80.883-15.055-22.154-29.02-44.218-34.476-70.518-7.314-35.25 3.54-67.687 32.261-96.407l21.213 21.213c-21.717 21.718-29.375 43.674-24.099 69.1 4.338 20.91 16.625 40.195 29.913 59.751 8.179 12.036 33.366 50.956 53.055 81.486 17.231 26.721 10.802 62.598-14.638 81.678-10.683 8.011-23.421 12.195-36.421 12.195z" fill="#9ab8c2"/><path d="m300 100.909v349.87h-135v-390h94.87c22.13 0 40.13 18 40.13 40.13z" fill="#e40058"/><path d="m165 60.779v390h-135v-349.87c0-22.13 18-40.13 40.13-40.13z" fill="#ff4a4a"/><path d="m165 435.779h165v75h-165z" fill="#04303e"/><path d="m0 435.779h165v75h-165z" fill="#07485e"/><path d="m165 120.779h75v105h-75z" fill="#7ed7f5"/><path d="m90 120.779h75v105h-75z" fill="#9afaff"/><path d="m203.32 334.519-38.32 52.7-2.97-62.2 2.97-60.55 1.28-1.65 23.69 18.42-21.26 27.32z" fill="#ffc377"/><path d="m165 264.469v122.75l-5.37 7.38-24.26-17.64 26.31-36.17-35.39-26.54z" fill="#fff37d"/><path d="m386.343 32.902-22.818 22.912c-18.056 18.128-17.996 47.566.133 65.621l22.448 22.357c9.04 9.004 20.891 13.503 32.743 13.503 11.913-.001 23.827-4.548 32.878-13.636l22.871-22.859-27.624-52.54z" fill="#e5eaee"/><path d="m426.055 3.944h30v124.559h-30z" fill="#9ab8c2" transform="matrix(.706 -.709 .709 .706 82.893 331.996)"/></g></svg>