<svg id="Capa_1" enable-background="new 0 0 505.935 505.935" height="512" viewBox="0 0 505.935 505.935" width="512" xmlns="http://www.w3.org/2000/svg"><g><path d="m139.727 27.151-10.979 6.614 39.527 97.371-1.363.387-2.594 2.341c-32.196 29.056-62.064 74.314-84.101 127.438-20.454 49.306-32.184 100.696-32.184 140.994 0 34.144 8.4 58.961 25.682 75.87 30.308 29.656 81.258 28.548 140.251 27.264 12.626-.274 25.682-.559 39.003-.559l12-241.937-12.002-262.934c-67.394 0-111.4 26.042-113.24 27.151z" fill="#fd5"/><path d="m425.375 260.474c-22.296-53.465-52.468-98.812-84.959-127.686l-2.518-2.237 39.289-96.785-10.979-6.614c-1.841-1.11-45.847-27.152-113.241-27.152v504.871c13.321 0 26.377.284 39.003.559 11.752.256 23.184.505 34.198.504 44.274 0 81.783-4.02 106.053-27.768 17.281-16.909 25.682-41.727 25.682-75.87 0-40.558-11.856-92.25-32.528-141.822z" fill="#edbe00"/><path d="m176.605 129.448c-20.545-5.136-41.791-10.448-83.638-10.448v30c38.153 0 56.713 4.64 76.362 9.552 20.546 5.136 41.792 10.448 83.638 10.448l10-14.065-10-15.935c-38.153 0-56.713-4.64-76.362-9.552z" fill="#4a9f46"/><path d="m329.329 129.448c-19.649 4.912-38.208 9.552-76.362 9.552v30c41.847 0 63.092-5.312 83.638-10.448 19.649-4.913 38.208-9.552 76.362-9.552v-30c-41.846 0-63.092 5.312-83.638 10.448z" fill="#00874f"/><path d="m225.193 370.863-12.552-8.211-16.423 25.105 12.552 8.212c11.543 7.551 20.098 10.672 30.421 11.84v21.191h13.777l10-29.065-10-21.5c-13.007.033-17.412-.792-27.775-7.572z" fill="#a30f59"/><path d="m239.004 291.994c-3.269-2.563-2.778-7.763-2.55-9.295.739-4.961 4.205-11.763 11.545-14.607 1.628-.631 3.292-1.07 4.969-1.36l8-19.798-8-28.935h-13.778v21.384c-.676.232-1.353.472-2.03.735-16.167 6.264-27.809 20.887-30.38 38.165-2.217 14.895 2.908 28.845 13.709 37.317 7.497 5.88 17.307 11.03 32.478 16.918l7-15.583-7-16.917c-5.465-2.513-10.353-5.192-13.963-8.024z" fill="#a30f59"/><g fill="#840c48"><path d="m282.28 273.019 13.204 7.117 14.233-26.408-13.204-7.117c-5.286-2.849-15.265-7.462-27.323-9.404v-19.207h-16.223v48.732c12.3-2.121 25.254 4.1 29.313 6.287z"/><path d="m274.647 308.546c-7.244-2.56-14.907-5.416-21.68-8.529v32.5c3.583 1.391 7.46 2.822 11.682 4.314 14.326 5.064 14.017 16.644 13.22 21.388-1.625 9.67-9.76 20.12-23.779 20.213-.391.002-.747.001-1.123.002v50.566h16.223v-22.645c7.927-2.242 15.154-6.271 21.346-11.96 8.902-8.179 14.91-19.26 16.918-31.202 4.086-24.305-9.098-46.266-32.807-54.647z"/></g></g></svg>