<svg id="Capa_1" enable-background="new 0 0 512 512" height="512" viewBox="0 0 512 512" width="512" xmlns="http://www.w3.org/2000/svg"><g><path d="m512 256c0 75.19-32.42 142.81-84.04 189.65h-343.92c-51.62-46.84-84.04-114.46-84.04-189.65 0-46.22 12.25-89.57 33.68-127 44.12-77.07 127.16-129 222.32-129s178.2 51.93 222.32 129c21.43 37.43 33.68 80.78 33.68 127z" fill="#22d7ff"/><path d="m512 256c0 75.19-32.42 142.81-84.04 189.65h-343.92c-51.62-46.84-84.04-114.46-84.04-189.65 0-46.22 12.25-89.57 33.68-127 44.12 77.07 127.16 129 222.32 129s178.2-51.93 222.32-129c21.43 37.43 33.68 80.78 33.68 127z" fill="#00b3ff"/><g><g><g><path d="m427.96 445.31v.34c-45.45 41.22-105.77 66.35-171.96 66.35s-126.51-25.13-171.96-66.35v-.34c0-33.23 21.8-62.5 53.63-72.03l53.08-15.87 32.27-4.2h65.96l32.27 4.2 53.08 15.87c31.83 9.53 53.63 38.8 53.63 72.03z" fill="#ffdc00"/><path d="m427.96 445.31v.34c-45.45 41.22-105.77 66.35-171.96 66.35v-158.79h32.98l32.27 4.2 53.08 15.87c31.83 9.53 53.63 38.8 53.63 72.03z" fill="#ffbc00"/><g><g><g><g><g><g><g><path d="m295.804 295.232v56.614c0 21.968-17.81 39.788-39.788 39.788-21.968 0-39.788-17.82-39.788-39.788v-56.614z" fill="#ffa87a"/><path d="m295.804 295.232v56.614c0 21.968-17.81 39.788-39.788 39.788v-96.402z" fill="#e3835a"/><g><path d="m138.085 200.581c-14.505 0-26.264 11.759-26.264 26.264 0 26.42 21.417 47.837 47.837 47.837l-6.292-74.158z" fill="#ffa87a"/><path d="m373.951 200.581c14.505 0 26.264 11.759 26.264 26.264 0 26.42-21.418 47.837-47.837 47.837l6.303-74.158z" fill="#e3835a"/><path d="m358.68 205.518v38.702c0 7.526-.813 14.864-2.356 21.931-10.035 46.146-51.116 80.714-100.289 80.726-.012 0-.012 0-.024 0-49.149 0-90.243-34.58-100.289-80.726-1.543-7.067-2.355-14.404-2.355-21.931v-38.702c0-5.583.436-11.06 1.319-16.383.035-.247.071-.483.118-.73 6.702-39.998 36.535-72.128 75.261-82.245 8.28-2.155 16.995-3.298 25.947-3.298h.024c8.975 0 17.679 1.143 25.97 3.321 38.714 10.094 68.524 42.224 75.225 82.222.047.247.082.495.118.754.883 5.323 1.331 10.777 1.331 16.359z" fill="#ffc0a4"/><path d="m358.676 205.514v38.703c0 56.675-45.945 102.65-102.64 102.66v-244.013c8.976 0 17.678 1.146 25.964 3.316 38.723 10.092 68.531 42.232 75.235 82.223.954 5.558 1.441 11.279 1.441 17.111z" fill="#ffa87a"/><g fill="#22273b"><ellipse cx="223.815" cy="231.347" rx="12.638" ry="12.638" transform="matrix(.924 -.383 .383 .924 -71.496 103.261)"/><ellipse cx="288.221" cy="231.347" rx="12.638" ry="12.638" transform="matrix(.707 -.707 .707 .707 -79.17 271.563)"/></g></g><path d="m256.018 280.747c-4.307 0-7.799-3.492-7.799-7.799v-38.206c0-4.307 3.492-7.799 7.799-7.799 4.308 0 7.8 3.492 7.8 7.799v38.206c0 4.307-3.492 7.799-7.8 7.799z" fill="#e3835a"/></g></g></g></g></g></g></g><path d="m256.016 391.634-41.239-53.932-23.638 19.704 34.238 66.864z" fill="#ffbc00"/><path d="m256.016 391.634 41.239-53.932 23.638 19.704-34.238 66.864z" fill="#ff9100"/></g></g><path d="m206.309 287.328c-1.142.695-2.415 1.036-3.675 1.036-2.379 0-4.699-1.213-6.03-3.392l-43.237-70.891v-8.563c0-5.583.436-11.06 1.319-16.383l4.711 7.703 49.267 80.773c2.038 3.333.978 7.679-2.355 9.717z" fill="#fff"/><path d="m358.68 205.518v8.574l-43.237 70.879c-1.331 2.179-3.651 3.392-6.03 3.392-1.26 0-2.532-.341-3.675-1.036-3.333-2.037-4.393-6.383-2.355-9.717l49.267-80.761 4.699-7.691c.883 5.324 1.331 10.778 1.331 16.36z" fill="#fff"/><path d="m356.324 266.151c-10.035 46.146-51.116 80.714-100.289 80.726-.012 0-.012 0-.024 0h-.011c-49.149 0-90.231-34.58-100.277-80.726z" fill="#76e3f8"/><path d="m358.68 156.416v44.108l-3.451-2.674c-9.576-7.408-15.17-18.833-15.17-30.929v-.824c-12.967 0-23.462-10.506-23.462-23.462v-2.226c-16.112 16.1-37.842 25.299-60.597 25.676-.483.012-.954.012-1.437.012h-81.22c0 12.567-6.042 24.368-16.23 31.718l-3.745 2.709v-20.658c0-51.717 41.929-93.646 93.646-93.646h56.204c7.385 0 13.38 5.995 13.38 13.38v14.722c23.237 0 42.082 18.845 42.082 42.094z" fill="#464f6e"/><path d="m358.68 156.416v44.108l-3.451-2.674c-9.576-7.408-15.17-18.833-15.17-30.929v-.824c-12.967 0-23.462-10.506-23.462-23.462v-2.226c-16.112 16.1-37.842 25.299-60.597 25.676v-79.865h47.218c7.385 0 13.38 5.995 13.38 13.38v14.722c23.237 0 42.082 18.845 42.082 42.094z" fill="#303c5a"/><path d="m356.324 266.151c-10.035 46.146-51.116 80.714-100.289 80.726-.012 0-.012 0-.024 0h-.011v-80.726z" fill="#26d9f8"/><g fill="#22273b"><path d="m245.36 210.648c-4.442-7.289-12.44-12.172-21.6-12.172s-17.159 4.883-21.6 12.172z"/><path d="m309.821 210.648c-4.442-7.289-12.44-12.172-21.6-12.172s-17.159 4.883-21.6 12.172z"/></g></g><path d="m512 256c0 141.38-114.62 256-256 256s-256-114.62-256-256c0-46.22 12.25-89.57 33.68-127 44.12-77.07 127.16-129 222.32-129s178.2 51.93 222.32 129c21.43 37.43 33.68 80.78 33.68 127z" fill="none"/></g></svg>