<svg xmlns="http://www.w3.org/2000/svg" xmlns:xlink="http://www.w3.org/1999/xlink" viewBox="0 0 500 570.72"><defs><style>.cls-1{fill:#254a63}.cls-2{fill:#0b8a85}.cls-15,.cls-3{fill:#fff}.cls-4{fill:#eeab67}.cls-5{fill:#fbca8e}.cls-6{fill:url(#linear-gradient)}.cls-7{fill:#a56052}.cls-8{fill:url(#linear-gradient-2)}.cls-9{fill:#643619}.cls-10{fill:#994d1d}.cls-11{fill:url(#linear-gradient-3)}.cls-12{fill:#f4a29d}.cls-13{fill:#b06523}.cls-14{fill:#46271e}.cls-15{font-size:102.91px;font-family:Raleway-Black,Raleway;font-weight:800}.cls-16{fill:none}</style><linearGradient id="linear-gradient" x1="430.04" x2="415.89" y1="228.01" y2="236.8" gradientTransform="translate(-117.84 -36.77) rotate(14.55)" gradientUnits="userSpaceOnUse"><stop offset="0" stop-color="#d38278"/><stop offset="1" stop-color="#f6b9ad" stop-opacity="0"/></linearGradient><linearGradient id="linear-gradient-2" x1="391.49" x2="396.12" y1="215.41" y2="231.11" gradientTransform="translate(-117.84 -36.77) rotate(14.55)" gradientUnits="userSpaceOnUse"><stop offset="0" stop-color="#da9c68"/><stop offset="1" stop-color="#da9c68" stop-opacity="0"/></linearGradient><linearGradient id="linear-gradient-3" x1="500.58" x2="509.46" y1="169" y2="199.11" gradientTransform="matrix(-0.97, 0.25, 0.25, 0.97, 694.74, -36.77)" xlink:href="#linear-gradient-2"/></defs><title>think_3</title><g id="Layer_2" data-name="Layer 2"><g id="OBJECTS"><path d="M138.87,502.86c1.87.35,3.74.63,5.61.86.61-.87,1.24-1.79,1.89-2.73-6.88,0-13.75-.12-20.62-.47C130.12,501.34,134.49,502.13,138.87,502.86Z" class="cls-1"/><path d="M180,454c3.32,1.86,6.44,42,6.44,42s39.15-83.27,28.57-98.66c0,0,.25-19.25-32.66-10.23-29.37,8.05-60.5,94.6-66.32,111.48l9.77,1.85c6.87.35,13.74.48,20.62.47C158.82,482.77,176.69,452.21,180,454Z" class="cls-1"/><path d="M275.42,458.13a2.56,2.56,0,0,0-.2-.7C275,456.93,275.07,457.24,275.42,458.13Z" class="cls-1"/><path d="M275.42,458.13c-.35-.89-.44-1.2-.2-.7a2.56,2.56,0,0,1,.2.7c2,5.21,13.23,31,22.25,35.76,30.15,16,37.4-9.73,36.64-17.36S304.67,389.08,274,382.85c-20.55-4.17-49.15,21.86-49.15,21.86-8.07,17.41,47.08,82.19,47.08,82.19S276.38,463.44,275.42,458.13Z" class="cls-1"/><path d="M274,383.34s-29.22-8.24-47.78-6.55-31.55,6.54-33.58,7.4-9.27,61.81-14.9,116.14c14.37-.45,28.75-.88,43.13-.47,3,0,8,4,12,4,14.67,1.42,29.33,4.85,44,7.13.55-19.33,1-36.31,1.15-40.36C279,439.81,271.85,396.76,274,383.34Z" class="cls-2"/><path d="M172.31,393.43s-3,53.77-5.95,107.23c9.57-.26,19.15-.61,28.72-.81,3.86-57.08,7.38-115.45,7.38-117.87C202.46,380.39,172.31,387.41,172.31,393.43Z" class="cls-1"/><path d="M255.58,378.42c-1.47-.06-5.22,86.72-6.52,127.67,12.85,2.17,25.7,5,38.54,6.3-3-55.61-7.5-119.35-11.11-129.54C276.49,382.85,264.45,378.73,255.58,378.42Z" class="cls-1"/><path d="M302.87,570.71h0Z" class="cls-3"/><path d="M247,377.47l-2.27-58.22-22.68,1.58-3.26,56.88C225.52,382.43,239.77,382.53,247,377.47Z" class="cls-4"/><path d="M191.8,294.34c3.72,9.63,3.64,17-2.64,19.83s-19.86-.89-23.58-10.51S164,284,170.23,281.17,188.09,284.71,191.8,294.34Z" class="cls-5"/><path d="M176.28,305.77c5.05,33,28.56,55.1,61.72,52.17,30.17-2.66,51-44.83,51.88-83.3s-19.77-68.89-56.19-68.33C177.9,207.17,165.64,236.29,176.28,305.77Z" class="cls-5"/><path d="M272.09,291.27c-3.83,9.59-3.85,17,2.4,19.86s19.87-.63,23.7-10.22,1.88-19.67-4.37-22.54S275.92,281.69,272.09,291.27Z" class="cls-5"/><path d="M223.78,287.79c8.83-1.77,16.28-.32,17.94,6.24s-7.29,10.55-14.62,11.41S216.9,289.17,223.78,287.79Z" class="cls-6"/><path d="M219.89,289a26.64,26.64,0,0,1,10.73-2.18,18.47,18.47,0,0,1,5.58.88,11.13,11.13,0,0,1,5,3.12,6.52,6.52,0,0,1,1.42,2.81,6,6,0,0,1-.14,3.15,10.14,10.14,0,0,1-3.43,4.71,21.05,21.05,0,0,1-4.77,2.88,31.9,31.9,0,0,1-5.17,1.78,38.53,38.53,0,0,0,8.9-5.82c.31-.3.58-.62.87-.93s.52-.66.78-1a7.23,7.23,0,0,0,1-2.15,4.39,4.39,0,0,0-1-4.16,9.65,9.65,0,0,0-4.06-2.62,19.39,19.39,0,0,0-5-1.11A40,40,0,0,0,219.89,289Z" class="cls-7"/><path d="M219.92,269.17c.81,6.06,4.21,18.56-12.84,20s-13-13.92-13-13.92S212.13,270,219.92,269.17Z" class="cls-8"/><path d="M214.49,287.62a2.33,2.33,0,1,1-1.67-2.84A2.32,2.32,0,0,1,214.49,287.62Z" class="cls-9"/><path d="M216.25,268.72c-19.55,1.36-30.28,9.13-17.85,9S229.14,267.82,216.25,268.72Z" class="cls-10"/><path d="M240.41,251.21c-.81,6.06-5.52,36.52,11.53,38s12.77-25.8,12.77-25.8S248.2,252,240.41,251.21Z" class="cls-11"/><path d="M245,287.62a2.32,2.32,0,1,0,1.66-2.84A2.31,2.31,0,0,0,245,287.62Z" class="cls-9"/><path d="M244.6,251c18.74,5.74,27.44,15.73,15.36,12.83S232.25,247.21,244.6,251Z" class="cls-10"/><path d="M197.19,293.7c0,1.31-3.41,2.37-7.61,2.37S182,295,182,293.7s3.4-2.38,7.6-2.38S197.19,292.38,197.19,293.7Z" class="cls-12"/><path d="M277.36,293.7c0,1.31-3.4,2.37-7.6,2.37s-7.61-1.06-7.61-2.37,3.41-2.38,7.61-2.38S277.36,292.38,277.36,293.7Z" class="cls-12"/><path d="M178.93,328.63c7.11,16.11,17,27.72,28.42,32.19,20.59,8.09,38.42,5.58,53.67-3,34.3-19.33,27.45-117.24,27.45-117.24l-9.69,1.89s2.54,64.27-6.39,74.8c-3.8,4.48-19.19-4.25-39.56-4.45-24.08-.24-43.86,10.49-47.37,5.68-4.22-5.75-10.63-39.36-3.05-76.52,3-14.81-14.81-.47-14.81-.47S169.74,307.81,178.93,328.63Z" class="cls-13"/><path d="M210.45,202.7l6.11-4.39c8.14-6.75,35.46-13.74,45.34-5.61-2.34.05-.72,1.43-3.07,1.55,13.62,3.07,36,8.91,37.55,38.62.71,13.48-1.36,32.08-3.92,44.94-3.12.32-3-1.09-5.43.91a9.15,9.15,0,0,0-3.09,3.74c.6-15.07-4.28-35.53-15.19-47.45-5.09-5.57-18.68-3.08-26.05-4.65-9.24-2-17.88-5.25-25-11.27C209.52,212.11,204.72,208.41,210.45,202.7Z" class="cls-13"/><path d="M222.16,198.05c8.82,3,20.28,5.36,25.28,13.87l-2.74-.82c9.25,11.07-18.25,41.23-25.34,48.42-8.1,8.22-18.62,12.37-28.73,14.81a16.38,16.38,0,0,1,.37-5.59,11.94,11.94,0,0,0,.82-2.92,28.73,28.73,0,0,0-.82,2.92,26.38,26.38,0,0,1-4.78,7.71c-3.78,3.88-12.7,16-13.55,25.42-12.31-49-14.61-77.34,8.26-97.91C192.52,193.52,216.1,196,222.16,198.05Z" class="cls-13"/><path d="M209.55,331.36l1.07-.24a5.11,5.11,0,0,1,1.11,0,4.24,4.24,0,0,1,1.12.19,5.67,5.67,0,0,1,1.07.38c1.37.61,2.57,1.39,3.8,2a19.34,19.34,0,0,0,7.83,2.06,45.84,45.84,0,0,0,8.34-.28c1.4-.21,2.81-.33,4.22-.54s2.82-.44,4.27-.58c-1.33.56-2.69,1-4,1.53s-2.78.78-4.19,1.13c-.7.18-1.43.26-2.15.38s-1.43.25-2.17.3a31,31,0,0,1-4.42.05c-.37,0-.74,0-1.11-.08l-1.11-.2-1.1-.19-1.08-.33a16.12,16.12,0,0,1-4.07-1.91c-1.24-.81-2.32-1.77-3.47-2.51A6.42,6.42,0,0,0,209.55,331.36Z" class="cls-14"/><path d="M262.24,360.57c-7-3.44-22.81-14.64-26.66-16.33s-9.87,1.69-4.78,5.85,9.25,7.86,9.25,7.86c-4.93-2.92-7.74-3.31-9.24-.77s.47,6.19,4.6,10.42c-2.25.66-4.41,4.32-2.25,7.23-3.38.66-2.44,4.88.84,8.35s19,18.41,27.7,19.82,16.09-6.28,17.28-15.12c.84-6.29,1.08-15.73-3.29-18.68C269.31,364.88,265.13,362,262.24,360.57Z" class="cls-5"/><path d="M260.91,351.64c.69-3.77,2.84-6.58,5.34-5.66s-.09,6.25,4,11.25,7.33,10.5,6.08,15.75S258.5,365,260.91,351.64Z" class="cls-5"/><path d="M305.43,494.72c17.76,5,32-10.09,26.3-28.06s-44.05-57.42-55-82c-6.17.57-15.3,6.89-16.43,14.9,4.16,3.95,9.64,18.85,14,34.85S287.68,489.68,305.43,494.72Z" class="cls-5"/><circle cx="371.32" cy="168.06" r="72.33" class="cls-1" transform="translate(107.23 478.52) rotate(-73.97)"/><text class="cls-15" transform="translate(340.35 201.52) rotate(9.52)">?</text><circle cx="328.64" cy="230.45" r="13.99" class="cls-1" transform="translate(48.32 517.73) rotate(-80.74)"/><circle cx="315.3" cy="252.4" r="6.83" class="cls-1"/><circle cx="299.04" cy="250.45" r="4.07" class="cls-1"/><path d="M189,500h32.9a5.06,5.06,0,0,0-1-.14C210.25,499.56,199.63,499.72,189,500Z" class="cls-16"/><path d="M500,0H0V500H117.74c-.62-.05-1.25-.08-1.87-.14.62.06,1.25.09,1.87.14H123c-18.71-3.54-37.42-7.36-56.13-8.14,18.71.78,37.42,4.6,56.13,8.14h66c10.62-.28,21.24-.44,31.86-.14a5.06,5.06,0,0,1,1,.14h129l1-.14-1,.14H500Z" class="cls-16"/></g></g></svg>