<svg xmlns="http://www.w3.org/2000/svg" width="45" height="30" viewBox="0 0 45 30">
  <g id="fast_charge" data-name="fast charge" transform="translate(0 -3.001)">
    <path id="Path_1017" data-name="Path 1017" d="M24.316,29H14.938a.839.839,0,1,1,0-1.667h9.379a2.674,2.674,0,0,0,2.814-2.5V23.168a.891.891,0,0,1,.938-.833h1.859a.891.891,0,0,0,.938-.833v-10a.891.891,0,0,0-.938-.833H28.068a.891.891,0,0,1-.938-.833V8.167a2.674,2.674,0,0,0-2.814-2.5H18.689a.891.891,0,0,1-.938-.833A.891.891,0,0,1,18.689,4h5.627a4.458,4.458,0,0,1,4.689,4.167V9h.921a2.674,2.674,0,0,1,2.814,2.5v10A2.674,2.674,0,0,1,29.927,24h-.921v.833A4.458,4.458,0,0,1,24.316,29Z" transform="translate(12.26 0.666)" fill="#46b04a"/>
    <path id="Path_1018" data-name="Path 1018" d="M12.192,29h-7.5A4.458,4.458,0,0,1,0,24.834V8.167A4.458,4.458,0,0,1,4.689,4h13.13a.891.891,0,0,1,.938.833.891.891,0,0,1-.938.833H4.689a2.674,2.674,0,0,0-2.814,2.5V24.834a2.674,2.674,0,0,0,2.814,2.5h7.5a.839.839,0,1,1,0,1.667Z" transform="translate(0 0.666)" fill="#46b04a"/>
    <path id="Path_1019" data-name="Path 1019" d="M11.758,33a1.04,1.04,0,0,1-.439-.1.8.8,0,0,1-.45-1L14.8,21.334H7.438a.96.96,0,0,1-.831-.447.757.757,0,0,1,.06-.862L19.658,3.358a1.022,1.022,0,0,1,1.146-.29.817.817,0,0,1,.542.943L18.705,14.667h7.49a.959.959,0,0,1,.842.465.76.76,0,0,1-.1.877L12.5,32.676a.978.978,0,0,1-.743.325ZM9.229,19.667h6.865a.977.977,0,0,1,.76.345.755.755,0,0,1,.129.75l-2.607,7.015,9.913-11.444H17.538a.99.99,0,0,1-.732-.312.768.768,0,0,1-.186-.7l1.868-7.535Z" transform="translate(5.692 0)" fill="#46b04a"/>
  </g>
</svg>
