<svg xmlns="http://www.w3.org/2000/svg" width="45" height="30" viewBox="0 0 45 30">
  <g id="slow_charge" data-name="slow charge" transform="translate(0 -4)">
    <path id="Path_1020" data-name="Path 1020" d="M36.576,34H4.689A4.859,4.859,0,0,1,0,29V9A4.859,4.859,0,0,1,4.689,4H36.576a4.859,4.859,0,0,1,4.689,5v1h.921A2.915,2.915,0,0,1,45,13V25a2.915,2.915,0,0,1-2.814,3h-.921v1A4.859,4.859,0,0,1,36.576,34ZM4.689,6A2.915,2.915,0,0,0,1.876,9V29a2.915,2.915,0,0,0,2.814,3H36.576a2.915,2.915,0,0,0,2.814-3V27a.971.971,0,0,1,.938-1h1.859a.971.971,0,0,0,.938-1V13a.971.971,0,0,0-.938-1H40.328a.971.971,0,0,1-.938-1V9a2.915,2.915,0,0,0-2.814-3Z" fill="#cad52c"/>
    <path id="Path_1021" data-name="Path 1021" d="M11.754,26.5a.917.917,0,0,1-.317-.058,1.01,1.01,0,0,1-.613-1.066L11.63,18.5l-2.7,0a.93.93,0,0,1-.833-.542,1.061,1.061,0,0,1,.071-1.04l6.708-10A.912.912,0,0,1,16,6.574a1.015,1.015,0,0,1,.568,1.086l-.9,5.84,2.641,0a.93.93,0,0,1,.822.52A1.057,1.057,0,0,1,19.1,15.04l-6.557,11a.922.922,0,0,1-.79.462Zm-1-10,1.939,0a.915.915,0,0,1,.7.338,1.04,1.04,0,0,1,.227.786l-.42,3.58L16.6,15.5l-2.039,0a.915.915,0,0,1-.713-.352,1.044,1.044,0,0,1-.21-.808l.426-2.772Z" transform="translate(7.003 2.5)" fill="#cad52c"/>
  </g>
</svg>
