<svg xmlns="http://www.w3.org/2000/svg" xmlns:xlink="http://www.w3.org/1999/xlink" viewBox="0 0 507.87 360.77"><defs><style>.cls-1,.cls-24,.cls-26,.cls-33,.cls-35,.cls-37,.cls-38,.cls-54{fill:none;}.cls-2{isolation:isolate;}.cls-3{fill:#ae5f2c;}.cls-4{fill:#ff862e;}.cls-5{fill:#0c3563;}.cls-6{fill:#0d458d;}.cls-7{fill:#bd713c;}.cls-8{fill:#ff9841;}.cls-9{fill:#94d29d;}.cls-10{fill:#e64b41;}.cls-11{fill:#771010;}.cls-12{fill:#731111;}.cls-13{fill:#971b1b;}.cls-14{fill:#c22c29;}.cls-15{fill:#93c2de;}.cls-16{fill:#bbd9ed;}.cls-17,.cls-19{fill:#ef670c;}.cls-18{fill:#ff973d;}.cls-19,.cls-20{opacity:0.4;}.cls-20{fill:#f46700;}.cls-21{fill:#cee7f7;}.cls-22{fill:#449ff2;}.cls-23{fill:#bff2ee;}.cls-24,.cls-33,.cls-37{stroke:#108a86;}.cls-24,.cls-26,.cls-33,.cls-35,.cls-37,.cls-38,.cls-54{stroke-miterlimit:10;}.cls-24{stroke-width:4px;}.cls-25{fill:#108a86;}.cls-26,.cls-35,.cls-38{stroke:#2e6660;}.cls-26{stroke-width:3px;}.cls-27{fill:#72b545;}.cls-28{fill:#2e6660;}.cls-29{fill:#a1db7b;}.cls-30{clip-path:url(#clip-path);}.cls-31,.cls-39,.cls-41,.cls-85{fill:#fff;}.cls-32{clip-path:url(#clip-path-2);}.cls-33,.cls-38{stroke-width:2px;}.cls-34{clip-path:url(#clip-path-3);}.cls-36{clip-path:url(#clip-path-4);}.cls-39{opacity:0.32;}.cls-40{fill:#4287c6;}.cls-41{font-size:11.56px;font-family:Dosis-Bold, Dosis Bold;font-weight:700;}.cls-42{fill:#fdfefe;}.cls-43{fill:#f2c5af;}.cls-44{fill:#efa689;}.cls-45{fill:#66301d;}.cls-46{fill:#8e4832;}.cls-47{fill:#c6667d;}.cls-48{fill:#303030;}.cls-49{fill:#c7d7e2;}.cls-50{fill:#f4463d;}.cls-51{fill:#ad153a;}.cls-52{fill:#474646;}.cls-53{fill:#8badc4;}.cls-54{stroke:#6893b1;}.cls-55{fill:#414246;}.cls-56{fill:#ff6d69;}.cls-57{fill:#f9b52b;}.cls-58{fill:#27282b;}.cls-59{fill:#c0edff;}.cls-60,.cls-63{fill:#92d5ea;}.cls-61{fill:#bfc4d8;}.cls-62{fill:#f1f2f8;}.cls-63,.cls-64{opacity:0.5;}.cls-65{clip-path:url(#clip-path-5);}.cls-66{fill:#f5ceb0;}.cls-67{fill:#ced9db;}.cls-68{fill:#131313;}.cls-69{fill:#0c6796;}.cls-70{fill:#534741;}.cls-71{fill:#f4cdaf;}.cls-72{fill:#dcb322;}.cls-73{fill:#f9d147;}.cls-74{fill:#c7b22f;}.cls-75{fill:#b2a02d;}.cls-76{fill:#ffeb76;}.cls-77{fill:#419993;}.cls-78{opacity:0.11;mix-blend-mode:multiply;}.cls-79{fill:#a12d4c;}.cls-80{fill:#8b1f40;}.cls-81{fill:#cb899b;}.cls-82{fill:#bf3d66;}.cls-83{fill:#1e3f4b;}.cls-84{fill:#335b6f;}.cls-85{opacity:0.08;}.cls-86{fill:#4d788a;}.cls-87{fill:#112e38;}.cls-88{fill:#aabdc7;}.cls-89{fill:#bbd0db;}.cls-90{fill:#f8951f;}.cls-91{fill:#57453f;}</style><clipPath id="clip-path"><path class="cls-1" d="M154.85,311.78V332.1H272.33V311.78a11.07,11.07,0,0,0-11.06-11.07H165.91A11.07,11.07,0,0,0,154.85,311.78Z"/></clipPath><clipPath id="clip-path-2"><circle class="cls-1" cx="368.51" cy="298.55" r="16.76"/></clipPath><clipPath id="clip-path-3"><path class="cls-1" d="M233,326.09H193.63a7,7,0,0,1-6.45-4.16l-.54-1.27a1.6,1.6,0,0,1,1.53-2.2h50.29a1.6,1.6,0,0,1,1.53,2.2l-.54,1.27A7,7,0,0,1,233,326.09Z"/></clipPath><clipPath id="clip-path-4"><path class="cls-1" d="M239.13,347.36H187.5a9.16,9.16,0,0,1-8.45-5.36l-.71-1.63a2.07,2.07,0,0,1,2-2.84h65.93a2.07,2.07,0,0,1,2,2.84l-.71,1.63A9.16,9.16,0,0,1,239.13,347.36Z"/></clipPath><clipPath id="clip-path-5"><path class="cls-1" d="M313.17,43.7a55.17,55.17,0,0,0-6.07-9.35,4.85,4.85,0,0,0-3.08-1.8,214.3,214.3,0,0,0-70,0,4.86,4.86,0,0,0-3.07,1.8,54.56,54.56,0,0,0-6.07,9.35c-2.43,5.15-8,13.29.14,13.29h88C321.17,57,315.6,48.85,313.17,43.7Z"/></clipPath></defs><title>Asset 1</title><g class="cls-2"><g id="Layer_2" data-name="Layer 2"><g id="Objects"><g id="man"><path class="cls-3" d="M164.13,166.57s-.48-2.32-1.69-2.85-1.94-2.67-2.42-2.08.14,4.45,1.06,4.93a5.16,5.16,0,0,1,1.36,1Z"/><path class="cls-4" d="M184.91,157.33s-7.72,13.45-10.52,15.93l-10.26-7.65a3.71,3.71,0,0,0-2.14,1.95s6.23,12.7,12.37,13.23,14.75-15.22,14.75-15.22Z"/><path class="cls-5" d="M208.78,240.59s1.79,1.65,1.44,2.82-2,2-2.18,3.4S207,249,206.17,249h-3.73s-.58-1,.81-1.32,1.92-2,1.83-3.56a28.61,28.61,0,0,1,.14-3.65l2.95-.7Z"/><path class="cls-5" d="M186.55,249a1.28,1.28,0,0,1-.26.07h-9.85a1.7,1.7,0,0,1,1.58-1.25c1.56-.25,4.27-1.16,4.87-3.15a1.46,1.46,0,0,0,.05-.2c.48-2.13,4,.65,4,.65s0,.09,0,.23C187,246.11,187.21,248.63,186.55,249Z"/><path class="cls-6" d="M178.44,192s.53,6.59,1.15,14.52c.84,10.77,1.86,24,2,26.5.17,4.35.87,11.31.87,11.31s1.65,1.66,5,1a113.71,113.71,0,0,0,3.79-20.45c0-.17,0-.34,0-.52.78-10.7,2-33.24,2-33.24Z"/><path class="cls-5" d="M178.44,192s.53,6.59,1.15,14.52l11.58,18.32c0-.17,0-.34,0-.52.78-10.7,2-33.24,2-33.24Z"/><path class="cls-6" d="M180.85,192.73s9.53,23.88,15.79,35.11,8.23,14.36,8.23,14.36,3.59-1.44,3.91-2.42c0,0-2.39-21.67-6.59-26.95-2.37-3-5.15-11.94-5.28-15.08s-.85-9.33-.85-9.33Z"/><path class="cls-3" d="M185.74,155.86a29.07,29.07,0,0,1-.44-4l4.84-3.9a9.68,9.68,0,0,0,3.25,7.93s-6.44,3.18-10.17,2A9,9,0,0,1,185.74,155.86Z"/><path class="cls-7" d="M184.16,151.79s6.15,1,6.73-2.82,1.76-6.29-2.14-7.11-4.89.54-5.39,1.77S182.58,151.42,184.16,151.79Z"/><path class="cls-8" d="M178,192.5a.6.6,0,0,0,.39.14c1.4,0,5.47.76,8.92.41a25.67,25.67,0,0,0,8.25-2.38c.37-.17,1.21-.62,1.19-1s-.05-1.1-.11-1.92a100.79,100.79,0,0,1-.2-13.42c.06-1.06.09-2.1.09-3.13,0-7.68-1.49-14.43-4.55-16.71-.26-.19-1.86.6-3.34,1.32a6.05,6.05,0,0,1-4,.49l-1.28,1.14a12.84,12.84,0,0,0-4,6.43,72.31,72.31,0,0,0-1.21,11.93c-.09,2.16-.17,4.35-.19,6.42v.07c0,.2,0,.43,0,.63C177.86,188.21,177.93,192.42,178,192.5Z"/><path class="cls-4" d="M196.67,187.72a100.79,100.79,0,0,1-.2-13.42c.06-1.06.09-2.1.09-3.13-1.27-3.09-2.31-5.33-2.31-5.33H191S188.68,181.91,196.67,187.72Z"/><path class="cls-5" d="M217.71,202.05l-.86-6a3.28,3.28,0,0,0-3.71-2.78l-4.71.67-.18-1.28a1.08,1.08,0,0,0-1.23-.92l-4.09.58a1.07,1.07,0,0,0-.71.42,1.11,1.11,0,0,0-.21.81l.19,1.28-2.73.38-.32.07-1.5.21a3.27,3.27,0,0,0-2.77,3.7l.84,5.93a3.28,3.28,0,0,0,3.7,2.78l1.12-.16a3.39,3.39,0,0,0,.71,0l13.67-2A3.29,3.29,0,0,0,217.71,202.05ZM203,193l4.09-.58a.24.24,0,0,1,.12,0,.41.41,0,0,1,.34.34l.18,1.28-4.89.7-.18-1.28A.4.4,0,0,1,203,193Z"/><path class="cls-7" d="M202.92,188.72l.61,1.05a2.43,2.43,0,0,0,1.63,3.47s1.22.31,1.33-.53a15.94,15.94,0,0,1,.1-1.71,2.18,2.18,0,0,0-1.17-2.54l-.69-.66Z"/><path class="cls-8" d="M204.53,189a10.75,10.75,0,0,1-2.41.13s-3.43-10.6-3.87-11.57-10.2-12.43-10.2-12.43L192.12,155s10.55,17.62,11.62,20.1c1.77,4.09,2.38,13.26,2.38,13.26A4.43,4.43,0,0,1,204.53,189Z"/><path class="cls-6" d="M190.9,148.6s-.64-.1-.53-1,.1-2-.61-1.8-.74.78-1,.45-.3-1.72-2.4-1.82-3,.64-3.94.21-1-1.91-1-1.91a1.7,1.7,0,0,0,.7.69s-1.63-2.23.26-3.76,3.81-.53,4.91-.46c2.41.14,4,.29,4.75,1.87S192.44,147.08,190.9,148.6Z"/><rect class="cls-6" x="160.62" y="159.4" width="1.95" height="6.06" rx="0.2" transform="translate(-55.16 88.18) rotate(-26.24)"/><rect class="cls-5" x="160" y="159.88" width="1.21" height="6.06" rx="0.15" transform="translate(-55.48 87.79) rotate(-26.24)"/></g><path class="cls-9" d="M175.06,212.66c-10.86,2.64-19.54,15.43-24.48,24.52a15.69,15.69,0,0,1-1.67-2.22c2.09-4.71,6.12-14.84,2.21-14.5-3.4.29-3.72,7.33-3.56,12.23-2.77-4.8-5.89-10.35-14.74-10-14.65.58-19.16,15.82-29.34,15.52S62.24,234,56.12,249.67H163.2c-.35-1-1-4.83-3.83-7.64l1.64-.55c9.07-2.95,5.68-6,5.68-6-4.26,0-8.15,1.91-11.26,4.16a11,11,0,0,0-1.4-.38,5.53,5.53,0,0,1-1.54-.55c5.37-6.17,13.11-14,19.17-16,4.14-1.36,6.22-3.22,7.21-5A3.43,3.43,0,0,0,175.06,212.66Z"/><path class="cls-10" d="M49.43,157.32a14.13,14.13,0,0,0-14.12,14.13c0,7.79,14.12,25.14,14.12,25.14s14.12-17.35,14.12-25.14A14.13,14.13,0,0,0,49.43,157.32Zm0,20.58a6.6,6.6,0,1,1,6.6-6.6A6.6,6.6,0,0,1,49.43,177.9Z"/><path class="cls-11" d="M21.47,233.32c-3,0-8.95,3.72-8.95,8.31S15,250,18,250h3.45c3,0,5.49-3.72,5.49-8.32S24.5,233.32,21.47,233.32Z"/><path class="cls-11" d="M86.57,243.29H56.51a15.64,15.64,0,0,0,.22-2.68c0-6.81-4.08-12.32-9.11-12.32s-9.11,5.51-9.11,12.32a15.64,15.64,0,0,0,.22,2.68H25.92s-4-9.9,0-13.32,26.21-5.75,26.21-5.75,8.43-11,13.59-14.39a12.41,12.41,0,0,1,4.57-1.32c10.79,1.4,11.19,12.74,17.35,14.63C94.08,225.11,86.57,243.29,86.57,243.29Z"/><path class="cls-12" d="M57.94,239.43c0,5-2.59,10.52-2.59,10.52H51c-3.84,0-7-4.71-7-10.52s7.48-10.52,11.31-10.52S57.94,233.62,57.94,239.43Z"/><ellipse class="cls-13" cx="55.35" cy="239.43" rx="6.95" ry="10.52"/><path class="cls-11" d="M60.5,239.43c0,4.38-2.34,7.92-5.23,7.92S50,243.81,50,239.43s2.35-7.92,5.24-7.92S60.5,235.05,60.5,239.43Z"/><path class="cls-10" d="M95.12,243.29H65.06a16.71,16.71,0,0,0,.22-2.68c0-6.81-4.08-12.32-9.12-12.32s-9.1,5.51-9.1,12.32a15.64,15.64,0,0,0,.22,2.68H1.77s-4-9.9,0-13.32,27.14-6.74,27.14-6.74S39.46,215.4,44.63,212s32.71-3.61,32.71-3.61a14,14,0,0,1,1.5.13c10.79,1.4,11.19,12.74,17.35,14.63C102.63,225.11,95.12,243.29,95.12,243.29Z"/><path class="cls-14" d="M95.12,243.29H65.06a16.71,16.71,0,0,0,.22-2.68c0-6.81-4.08-12.32-9.12-12.32s-9.1,5.51-9.1,12.32a15.64,15.64,0,0,0,.22,2.68H34.47s-4-9.9,0-13.32,26.21-5.75,26.21-5.75,8.43-11,13.59-14.39a12.41,12.41,0,0,1,4.57-1.32c10.79,1.4,11.19,12.74,17.35,14.63C102.63,225.11,95.12,243.29,95.12,243.29Z"/><path class="cls-15" d="M65.13,223.14s8.75-13.2,14.17-12.45C88.15,211.9,91,221.49,91,221.49Z"/><path class="cls-16" d="M72,210.15l-.06,0A72.37,72.37,0,0,0,60.4,221.61l-27.7.48,2.79-2.21c4.16-3.26,9.6-7.43,10.62-7.77a67.2,67.2,0,0,1,10-1.46l1.09-.08c3.94-.27,8-.37,10.87-.4h.27C70.55,210.14,72,210.15,72,210.15Z"/><path class="cls-15" d="M30.37,234.12v.35a2.06,2.06,0,0,1-2,2.07H17.93a2.06,2.06,0,0,1-2-2.07v-.35a2.06,2.06,0,0,1,2-2.07h10.4A2.06,2.06,0,0,1,30.37,234.12Z"/><path class="cls-16" d="M30.37,234.12v.35a2.06,2.06,0,0,1-2,2.07H19.11a2.06,2.06,0,0,1-2-2.07v-.35a2.06,2.06,0,0,1,2-2.07h9.22A2.06,2.06,0,0,1,30.37,234.12Z"/><path class="cls-15" d="M9.39,234.12v.35c0,1.14-.51,2.07-1.13,2.07H2.47c-.62,0-1.14-.93-1.14-2.07v-.35c0-1.14.52-2.07,1.14-2.07H8.26C8.88,232.05,9.39,233,9.39,234.12Z"/><path class="cls-16" d="M9.39,234.12v.35c0,1.14-.51,2.07-1.13,2.07H3.12c-.62,0-1.13-.93-1.13-2.07v-.35c0-1.14.51-2.07,1.13-2.07H8.26C8.88,232.05,9.39,233,9.39,234.12Z"/><path class="cls-15" d="M71.91,210.2A72.37,72.37,0,0,0,60.4,221.61l-27.7.48,2.79-2.21c6.28-1.57,16.42-4.68,21.72-9.31,3.94-.27,8-.37,10.87-.4h.27Z"/><rect class="cls-17" x="75.67" y="132.44" width="61.78" height="117.22" rx="2.65"/><rect class="cls-18" x="81.65" y="132.44" width="61.78" height="117.22" rx="2.65"/><path class="cls-19" d="M121.6,136.88H105.54a.63.63,0,1,0,0,1.25H121.6a.63.63,0,0,0,0-1.25Z"/><path class="cls-19" d="M102.69,136.88a.63.63,0,1,0,.62.63A.63.63,0,0,0,102.69,136.88Z"/><path class="cls-20" d="M109.28,243.19a4,4,0,1,1,4,4A4,4,0,0,1,109.28,243.19Z"/><rect class="cls-21" x="86.8" y="141.74" width="51.36" height="94.82"/><rect class="cls-21" x="86.8" y="225.56" width="51.36" height="11.01"/><path class="cls-18" d="M139.69,206.88,129,189.4a11,11,0,0,0,4.61-6.66c2-8.08-4.1-18.46-6.12-21.61a7.2,7.2,0,1,0-11.91-3c-7.75,4.5-16.13,9.22-19.09,10.7L87.65,154a1.5,1.5,0,1,0-2.57,1.54l13.3,22.18a5.34,5.34,0,0,0,7.12,1.95l8.46-4.55a2.57,2.57,0,0,1,3.41.92l7.5,12.29c-15.09,8-36.76,19.41-38.43,20.06a1.49,1.49,0,0,0-1,1.77,1.5,1.5,0,0,0,1.46,1.16,1.33,1.33,0,0,0,.34-.05c.38-.08,1-.22,20.87-10.69,7.71-4.06,15.41-8.13,18.35-9.69l10.71,17.56a1.49,1.49,0,0,0,1.28.71,1.51,1.51,0,0,0,.78-.22A1.49,1.49,0,0,0,139.69,206.88ZM122.5,151.74a4.22,4.22,0,1,1-4.22,4.22A4.22,4.22,0,0,1,122.5,151.74Zm-10,20.73L104.08,177a2.35,2.35,0,0,1-3.14-.86l-2.88-4.81c1.51-.76,4.36-2.3,9.94-5.46,3.72-2.11,7.36-4.21,9.07-5.2a7.22,7.22,0,0,0,5.43,2.47,7.37,7.37,0,0,0,2.49-.44,51.16,51.16,0,0,1,3.41,6.32c1.62,3.62,3.35,8.82,2.33,13a8,8,0,0,1-3.26,4.8l-7.55-12.37A5.56,5.56,0,0,0,112.54,172.47Z"/><path class="cls-18" d="M127.2,153.65a.43.43,0,0,1-.38-.23.43.43,0,0,1,.17-.6l11.87-6.63a.44.44,0,1,1,.43.77l-11.87,6.63A.46.46,0,0,1,127.2,153.65Z"/><path class="cls-18" d="M119.47,151.67a.44.44,0,0,1-.37-.19L114.76,145a.43.43,0,0,1,.12-.61.44.44,0,0,1,.61.12l4.34,6.45a.44.44,0,0,1-.12.61A.42.42,0,0,1,119.47,151.67Z"/><path class="cls-18" d="M118.34,226.42a.43.43,0,0,1-.38-.21l-14.85-24.28a.43.43,0,0,1,.14-.6.45.45,0,0,1,.61.14l14.85,24.28a.45.45,0,0,1-.14.61A.53.53,0,0,1,118.34,226.42Z"/><path class="cls-18" d="M120.42,156A2.09,2.09,0,1,1,122.5,158,2.09,2.09,0,0,1,120.42,156Z"/><path class="cls-16" d="M112.39,225.44l-6.63-10.86a6.32,6.32,0,0,0-8.32-2.32l-10.57,5.49v7.85Z"/><path class="cls-16" d="M86.87,203c-.06-.53,20.68-11.23,28.11-15.05a2.64,2.64,0,0,0,1-3.8l-.4-.61a1.91,1.91,0,0,0-2.48-.67l-10,5a4.31,4.31,0,0,1-5.57-1.54L86.8,168.6Z"/><path class="cls-16" d="M92.24,150.84l5,8.48a3.7,3.7,0,0,0,5,1.36l5.22-2.92a3.7,3.7,0,0,0,1.89-2.92,10.7,10.7,0,0,1,1.13-4.1,3.66,3.66,0,0,0-.09-3.7h0a3.7,3.7,0,0,0-3.16-1.77H95.44A3.71,3.71,0,0,0,92.24,150.84Z"/><path class="cls-16" d="M138.16,154.18v20.38a43.78,43.78,0,0,0-4.47-10.27,4,4,0,0,1-.26-3.53,12.48,12.48,0,0,0,.74-3.18,3.39,3.39,0,0,1,2.33-2.86Z"/><path class="cls-16" d="M136.24,189.06a11.46,11.46,0,0,0,1.92-3.26v11.44l-2.33-4.89A3.06,3.06,0,0,1,136.24,189.06Z"/><path class="cls-16" d="M138.16,216.42v9.18H127.28L115.7,207.82a4.72,4.72,0,0,1,1.65-6.68l3.26-1.82a6.09,6.09,0,0,1,8.15,2.08Z"/><path class="cls-16" d="M103.69,171.17l10.86-5.86a2,2,0,0,1,1.73-.07,18.63,18.63,0,0,0,6.47,1.68,2,2,0,0,1,1.79,1.12,44.81,44.81,0,0,1,3,7.72,2,2,0,0,1-3.53,1.65l-4.88-6.78a2,2,0,0,0-2.37-.67l-11.35,4.78a2,2,0,0,1-2.5-.86h0A2,2,0,0,1,103.69,171.17Z"/><path class="cls-22" d="M125.8,228.32H99.29a.56.56,0,0,0-.56.56h0a.56.56,0,0,0,.56.56H125.8a.57.57,0,0,0,.56-.56h0A.57.57,0,0,0,125.8,228.32Z"/><path class="cls-22" d="M125.8,230.76H99.29a.56.56,0,0,0,0,1.12H125.8a.56.56,0,1,0,0-1.12Z"/><path class="cls-17" d="M92.15,226.74a2.38,2.38,0,0,0-2.38,2.37c0,1.31,2.38,4.22,2.38,4.22s2.37-2.91,2.37-4.22A2.37,2.37,0,0,0,92.15,226.74Zm0,3.45a1.11,1.11,0,1,1,1.1-1.1A1.1,1.1,0,0,1,92.15,230.19Z"/><path class="cls-17" d="M109.7,182.13a2.38,2.38,0,0,0-2.37,2.38c0,1.31,2.37,4.22,2.37,4.22s2.37-2.91,2.37-4.22A2.38,2.38,0,0,0,109.7,182.13Zm0,3.46a1.11,1.11,0,1,1,1.11-1.11A1.11,1.11,0,0,1,109.7,185.59Z"/><path class="cls-22" d="M112,180.52a.14.14,0,0,1-.12-.07.35.35,0,0,1,0-.37l.19-.29a.15.15,0,0,1,.26,0,.33.33,0,0,1,0,.37l-.18.29A.17.17,0,0,1,112,180.52Zm.82-1.27a.16.16,0,0,1-.13-.07.35.35,0,0,1,0-.37l.65-1a.15.15,0,0,1,.26,0,.33.33,0,0,1,0,.37c-.22.32-.43.64-.64,1A.19.19,0,0,1,112.81,179.25Zm1.3-1.92a.15.15,0,0,1-.13-.07.35.35,0,0,1,0-.38c.23-.31.45-.63.67-.94a.15.15,0,0,1,.26,0,.32.32,0,0,1,0,.37l-.66.93A.15.15,0,0,1,114.11,177.33Zm1.34-1.86a.19.19,0,0,1-.14-.08.33.33,0,0,1,0-.37c.22-.31.46-.62.68-.91a.16.16,0,0,1,.27,0,.35.35,0,0,1,0,.37l-.69.91A.14.14,0,0,1,115.45,175.47Zm1.37-1.8a.15.15,0,0,1-.13-.09.33.33,0,0,1,0-.37l.71-.88a.15.15,0,0,1,.26,0,.33.33,0,0,1,0,.37c-.23.29-.47.58-.7.88A.18.18,0,0,1,116.82,173.67Zm1.43-1.73a.18.18,0,0,1-.15-.09.37.37,0,0,1,0-.38l.72-.84a.16.16,0,0,1,.27,0,.35.35,0,0,1,0,.37l-.73.84A.14.14,0,0,1,118.25,171.94Zm1.46-1.66a.19.19,0,0,1-.15-.1.35.35,0,0,1,0-.37l.75-.81a.16.16,0,0,1,.26.06.33.33,0,0,1,0,.37l-.75.79A.14.14,0,0,1,119.71,170.28Zm1.5-1.58a.19.19,0,0,1-.15-.11.35.35,0,0,1,0-.37l.78-.77a.15.15,0,0,1,.25.07.35.35,0,0,1,0,.37c-.26.25-.52.5-.77.76A.16.16,0,0,1,121.21,168.7Zm1.55-1.5a.21.21,0,0,1-.16-.12.35.35,0,0,1,.06-.37l.79-.72c.09-.08.2,0,.26.08a.37.37,0,0,1-.06.37l-.79.71A.16.16,0,0,1,122.76,167.2Zm1.59-1.42a.17.17,0,0,1-.16-.13.32.32,0,0,1,.06-.36l.81-.67c.09-.07.21,0,.26.1a.34.34,0,0,1-.07.36c-.27.21-.54.44-.81.66A.12.12,0,0,1,124.35,165.78Zm1.62-1.32a.19.19,0,0,1-.16-.13.31.31,0,0,1,.08-.36l.83-.63c.09-.06.2,0,.25.12a.33.33,0,0,1-.08.35l-.83.62Zm1.67-1.22a.19.19,0,0,1-.17-.14.35.35,0,0,1,.09-.36l.85-.57c.09-.06.2,0,.24.13a.3.3,0,0,1-.09.35l-.84.57A.11.11,0,0,1,127.64,163.24Zm1.7-1.11a.2.2,0,0,1-.17-.16.32.32,0,0,1,.1-.35l.86-.52c.1,0,.21,0,.25.15a.3.3,0,0,1-.11.34l-.85.52Zm30.11-.72a.13.13,0,0,1-.08,0s-.3-.21-.85-.52a.31.31,0,0,1-.1-.34c0-.14.14-.2.24-.15.56.32.86.52.88.53a.33.33,0,0,1,.08.36A.19.19,0,0,1,159.45,161.41Zm-28.37-.29c-.08,0-.15-.06-.18-.17a.32.32,0,0,1,.11-.34l.88-.46c.1-.05.21,0,.24.16a.31.31,0,0,1-.11.34l-.88.46Zm26.63-.7h-.06l-.88-.43a.29.29,0,0,1-.12-.33c0-.14.13-.22.23-.17.31.14.61.28.9.43a.32.32,0,0,1,.11.34A.21.21,0,0,1,157.71,160.42Zm-24.87-.19c-.08,0-.15-.07-.17-.18a.29.29,0,0,1,.11-.33c.3-.14.6-.28.9-.4.1,0,.2,0,.23.17a.29.29,0,0,1-.12.33l-.89.4Zm23.09-.63h-.05l-.9-.35a.31.31,0,0,1-.14-.33c0-.14.13-.22.23-.18l.91.35a.3.3,0,0,1,.13.33C156.08,159.53,156,159.6,155.93,159.6Zm-21.29-.14c-.09,0-.16-.08-.18-.19a.29.29,0,0,1,.13-.33l.91-.34c.1,0,.2.05.22.19a.27.27,0,0,1-.13.32c-.3.11-.61.22-.9.34Zm19.48-.54h-.05l-.91-.29a.28.28,0,0,1-.14-.31c0-.14.12-.23.22-.2l.92.29c.1,0,.16.18.14.32A.21.21,0,0,1,154.12,158.92Zm-17.67-.11c-.08,0-.16-.08-.18-.21a.28.28,0,0,1,.14-.31c.31-.1.62-.2.92-.28.1,0,.2.06.22.2s0,.29-.14.31l-.92.28Zm15.83-.44h0l-.92-.23c-.11,0-.17-.16-.16-.3s.11-.25.22-.22l.92.23c.11,0,.17.16.15.3S152.37,158.37,152.28,158.37Zm-14-.09c-.09,0-.17-.09-.18-.22a.26.26,0,0,1,.15-.3l.93-.22c.1,0,.19.08.21.22a.25.25,0,0,1-.16.3l-.92.22Zm12.14-.33h0l-.92-.16a.26.26,0,0,1-.17-.29c0-.15.11-.25.21-.23l.93.16a.25.25,0,0,1,.16.3C150.6,157.85,150.52,158,150.43,158Zm-10.29-.07c-.09,0-.17-.1-.18-.23s.06-.28.16-.3l.94-.15c.1,0,.19.09.2.24a.26.26,0,0,1-.17.29l-.92.15Zm8.43-.23h0l-.93-.1c-.1,0-.18-.14-.18-.28s.1-.26.2-.25l.94.1a.26.26,0,0,1,.17.29C148.74,157.55,148.66,157.65,148.57,157.65Zm-6.56,0c-.1,0-.18-.11-.19-.25s.07-.27.17-.28l.94-.09c.11,0,.19.1.2.25a.25.25,0,0,1-.18.28c-.3,0-.62,0-.93.09Zm4.68-.13h0l-.94,0c-.1,0-.18-.12-.18-.27s.08-.26.19-.26h0l.94,0c.1,0,.18.13.18.28A.23.23,0,0,1,146.69,157.48Zm-2.81,0c-.1,0-.18-.11-.18-.26a.23.23,0,0,1,.18-.27l.94,0c.1,0,.18.11.19.26s-.09.26-.19.26l-.93,0Z"/><path class="cls-22" d="M53.3,196.1a.25.25,0,0,1-.2-.1.27.27,0,0,1,0-.37s.39-.3,1.09-.79a.27.27,0,1,1,.31.43c-.7.49-1.07.78-1.07.78A.26.26,0,0,1,53.3,196.1Zm2.18-1.53a.27.27,0,0,1-.14-.49l1.12-.72a.25.25,0,0,1,.36.08.26.26,0,0,1-.08.36l-1.11.72A.27.27,0,0,1,55.48,194.57Zm2.25-1.43a.28.28,0,0,1-.23-.13.27.27,0,0,1,.09-.36l1.14-.69a.28.28,0,0,1,.37.09.28.28,0,0,1-.1.37l-1.13.68A.37.37,0,0,1,57.73,193.14ZM60,191.79a.27.27,0,0,1-.13-.5l1.17-.64a.26.26,0,0,1,.36.1.27.27,0,0,1-.11.36l-1.16.64A.2.2,0,0,1,60,191.79Zm2.34-1.27a.26.26,0,0,1-.24-.15.28.28,0,0,1,.11-.35l1.19-.61a.27.27,0,0,1,.36.12.26.26,0,0,1-.12.35l-1.18.61Zm2.37-1.2a.25.25,0,0,1-.23-.15.26.26,0,0,1,.12-.35l1.2-.57a.28.28,0,0,1,.36.13.27.27,0,0,1-.13.35l-1.2.57A.25.25,0,0,1,64.73,189.32Zm2.42-1.11a.26.26,0,0,1-.24-.16.27.27,0,0,1,.13-.35l1.23-.52a.25.25,0,0,1,.34.14.26.26,0,0,1-.14.34l-1.22.53Zm2.45-1a.26.26,0,0,1-.25-.17.26.26,0,0,1,.15-.34l1.24-.49a.26.26,0,0,1,.34.16.27.27,0,0,1-.15.34l-1.23.48Zm2.48-1a.27.27,0,0,1-.25-.17.26.26,0,0,1,.16-.34l1.26-.44a.25.25,0,0,1,.33.16.26.26,0,0,1-.16.34l-1.25.44Zm2.52-.86a.27.27,0,0,1-.26-.18.27.27,0,0,1,.18-.33l1.27-.4a.27.27,0,1,1,.15.51l-1.26.39Zm2.54-.76a.26.26,0,0,1-.25-.19.27.27,0,0,1,.18-.33l1.29-.34a.26.26,0,1,1,.13.51l-1.28.34Zm2.57-.66a.26.26,0,0,1-.25-.21.25.25,0,0,1,.19-.31l1.31-.3a.27.27,0,0,1,.11.52l-1.29.29Zm25-.36h-.06c-.43-.1-.87-.2-1.3-.28a.27.27,0,0,1,.11-.52l1.3.28a.27.27,0,0,1,.2.32A.26.26,0,0,1,104.73,183.59Zm-22.42-.2a.27.27,0,0,1-.26-.22.26.26,0,0,1,.21-.3l1.31-.24a.26.26,0,0,1,.31.21.28.28,0,0,1-.22.31l-1.3.23Zm19.81-.33h0c-.43-.07-.87-.15-1.31-.21a.26.26,0,1,1,.08-.52q.66.09,1.32.21a.26.26,0,0,1,.21.31A.26.26,0,0,1,102.12,183.06Zm-17.19-.12a.26.26,0,0,1-.26-.23.27.27,0,0,1,.22-.3l1.32-.18a.27.27,0,1,1,.07.53l-1.31.18Zm14.57-.26h0l-1.31-.14a.27.27,0,0,1-.24-.28.26.26,0,0,1,.29-.24l1.33.14a.27.27,0,0,1,.23.29A.27.27,0,0,1,99.5,182.68Zm-11.93-.07a.28.28,0,0,1-.27-.24.26.26,0,0,1,.24-.29c.44-.05.89-.09,1.33-.12a.26.26,0,1,1,0,.52l-1.32.12Zm9.28-.18h0l-1.32-.08a.27.27,0,0,1-.25-.27.26.26,0,0,1,.28-.25c.44,0,.89,0,1.33.07a.27.27,0,0,1,.24.28A.26.26,0,0,1,96.85,182.43Zm-6.64,0a.26.26,0,0,1-.26-.25.25.25,0,0,1,.25-.27c.44,0,.89-.05,1.33-.06a.27.27,0,0,1,.28.25.26.26,0,0,1-.26.27l-1.32.06Zm4-.08H92.87a.26.26,0,0,1-.26-.26.25.25,0,0,1,.26-.27H94.2a.26.26,0,1,1,0,.52Z"/><path class="cls-3" d="M182.89,166.06s1.76-2.22.84-3.51c-.2-.29-1.35,1-1.35,1A23.68,23.68,0,0,0,182.89,166.06Z"/><path class="cls-23" d="M171.21,290.92c0-10.28,8.59-18.62,19.18-18.62h47.09c10.59,0,19.18,8.34,19.18,18.62l4.25,12.27c0,1.82-5.76,1-7.64,1H174.59c-1.87,0-8.33-.6-8.33-2.41l5-10.82"/><path class="cls-24" d="M253.8,341.71h24.12c6,0,10.84-4.58,10.84-10.23V301.77c0-5.65,4.85-10.23,10.84-10.23h0c6,0,10.84,4.58,10.84,10.23v39.61c0,5.66,4.85,10.24,10.84,10.24h.7c6,0,10.84-4.58,10.84-10.24V309.69A11,11,0,0,1,343.66,299h6.39"/><path class="cls-25" d="M184.66,288.2h17.41a5.45,5.45,0,0,1,5.45,5.45v21.23a3.31,3.31,0,0,1-3.31,3.31H182.52a3.31,3.31,0,0,1-3.31-3.31V293.65A5.45,5.45,0,0,1,184.66,288.2Z"/><path class="cls-25" d="M223.26,288.2h19.48a4.42,4.42,0,0,1,4.42,4.42v22.26a3.31,3.31,0,0,1-3.31,3.31H222.15a3.31,3.31,0,0,1-3.31-3.31V292.61A4.42,4.42,0,0,1,223.26,288.2Z"/><path class="cls-25" d="M229,283h7.9a3.12,3.12,0,0,1,3.12,3.12v22.26a2,2,0,0,1-2,2H227.94a2,2,0,0,1-2-2V286.16A3.12,3.12,0,0,1,229,283Z"/><path class="cls-25" d="M189.41,283h7.9a3.12,3.12,0,0,1,3.12,3.12v22.26a2,2,0,0,1-2,2H188.3a2,2,0,0,1-2-2V286.16a3.12,3.12,0,0,1,3.12-3.12Z"/><ellipse class="cls-25" cx="212.89" cy="303.85" rx="48.69" ry="6.74"/><circle class="cls-26" cx="233.23" cy="304.8" r="9.4"/><path class="cls-27" d="M154.85,311.78V332.1H272.33V311.78a11.07,11.07,0,0,0-11.06-11.07H165.91A11.07,11.07,0,0,0,154.85,311.78Z"/><path class="cls-28" d="M275.44,300.73,263,301.4v-6.1a2.47,2.47,0,0,1,2.63-2.47l10,.64a2.47,2.47,0,0,1,2.31,2.65l-.17,2.33A2.48,2.48,0,0,1,275.44,300.73Z"/><path class="cls-28" d="M151.82,300.73l12.42.67v-6.1a2.47,2.47,0,0,0-2.63-2.47l-10,.64a2.46,2.46,0,0,0-2.31,2.65l.17,2.33A2.48,2.48,0,0,0,151.82,300.73Z"/><path class="cls-27" d="M174.9,286.78a.83.83,0,0,0,.21-.47l.41-.82c3-7,9.29-11.24,16.22-11.24h44c6.93,0,13.24,4.28,16.22,11.25l7.1,16.28,5.27,0-6.83-16.65c-3.49-8.54-10.88-13.94-19-13.94H188.61c-8.11,0-15.5,5.39-19,13.93l-.48,1.14a1.13,1.13,0,0,1-.24.59l-6.06,14.81c2.53,0,3.66,0,6.18-.05Z"/><path class="cls-29" d="M358.56,269.1h20a9.06,9.06,0,0,1,9.06,9.06v71.13a0,0,0,0,1,0,0H349.5a0,0,0,0,1,0,0V278.16A9.06,9.06,0,0,1,358.56,269.1Z"/><rect class="cls-28" x="157.73" y="338.62" width="15.73" height="22.15" rx="3.75"/><rect class="cls-28" x="253.06" y="338.62" width="15.73" height="22.15" rx="3.75"/><path class="cls-27" d="M358.24,274.05h20.61a8.74,8.74,0,0,1,8.74,8.74v71.45a0,0,0,0,1,0,0H349.5a0,0,0,0,1,0,0V282.79A8.74,8.74,0,0,1,358.24,274.05Z"/><g class="cls-30"><path class="cls-29" d="M154.85,288l.88,17.81c13.45,8.8,108.56,8.16,116.09-2l.51-15.85a11.07,11.07,0,0,0-11.06-11.07H165.91A11.07,11.07,0,0,0,154.85,288Z"/></g><path class="cls-25" d="M272,319.37l.13,1.13a10.11,10.11,0,0,1-6.19,8,20,20,0,0,1-6,1.46c-30.25,2.68-61.32,2.44-93,0a20.11,20.11,0,0,1-6-1.46c-2.16-1-4.77-1.86-5.82-6.11l-.6-2.92a2.14,2.14,0,0,0-1.86,2.24v18.82A11.33,11.33,0,0,0,164,351.68c32.92,1.55,65.62,1.55,98.53,0a11,11,0,0,0,10.9-11.11V321.75A2.23,2.23,0,0,0,272,319.37Z"/><path class="cls-31" d="M177.45,318.64a5.63,5.63,0,0,1,3.08,5.25c-.29,2.41-2.47,3.73-4.85,4.21A27.12,27.12,0,0,1,163.52,327c-3-1.2-5-2.45-5.65-4.78-1.53-5.12-1.33-11.46,5.27-9.36A75,75,0,0,1,177.45,318.64Z"/><path class="cls-31" d="M249.71,318.64a5.63,5.63,0,0,0-3.08,5.25c.29,2.41,2.47,3.73,4.85,4.21A27.12,27.12,0,0,0,263.64,327c3-1.2,4.95-2.45,5.65-4.78,1.53-5.12,1.33-11.46-5.27-9.36A75,75,0,0,0,249.71,318.64Z"/><path class="cls-31" d="M257.72,346.18h-.92a3.74,3.74,0,0,1-3.74-3.74h0a3.74,3.74,0,0,1,3.74-3.73h.92a3.73,3.73,0,0,1,3.73,3.73h0A3.73,3.73,0,0,1,257.72,346.18Z"/><path class="cls-31" d="M169.83,346.18h-.92a3.73,3.73,0,0,1-3.73-3.74h0a3.73,3.73,0,0,1,3.73-3.73h.92a3.74,3.74,0,0,1,3.74,3.73h0A3.74,3.74,0,0,1,169.83,346.18Z"/><circle class="cls-31" cx="368.51" cy="298.55" r="16.76"/><rect class="cls-25" x="344.44" y="352.7" width="48.26" height="6.99" rx="1.23"/><path class="cls-28" d="M344.44,356.2h48.26a0,0,0,0,1,0,0v2.26a1.23,1.23,0,0,1-1.23,1.23H345.67a1.23,1.23,0,0,1-1.23-1.23V356.2A0,0,0,0,1,344.44,356.2Z"/><g class="cls-32"><line class="cls-24" x1="347.37" y1="298.89" x2="366.47" y2="298.89"/><path class="cls-28" d="M379.45,303.05h-6a1.13,1.13,0,0,0-1.13,1.13h0a1.14,1.14,0,0,0,1.13,1.13h6a1.13,1.13,0,0,0,1.13-1.13h0A1.12,1.12,0,0,0,379.45,303.05Z"/><path class="cls-28" d="M379.45,294h-6a1.14,1.14,0,0,0-1.13,1.13h0a1.13,1.13,0,0,0,1.13,1.13h6a1.12,1.12,0,0,0,1.13-1.13h0A1.13,1.13,0,0,0,379.45,294Z"/><path class="cls-25" d="M373.24,290.26h-6.39a8.94,8.94,0,0,0,0,17.87h6.39Z"/></g><path class="cls-31" d="M239.13,347.36H187.5a9.16,9.16,0,0,1-8.45-5.36l-.71-1.63a2.07,2.07,0,0,1,2-2.84h65.93a2.07,2.07,0,0,1,2,2.84l-.71,1.63A9.16,9.16,0,0,1,239.13,347.36Z"/><path class="cls-25" d="M233,326.09H193.63a7,7,0,0,1-6.45-4.16l-.54-1.27a1.6,1.6,0,0,1,1.53-2.2h50.29a1.6,1.6,0,0,1,1.53,2.2l-.54,1.27A7,7,0,0,1,233,326.09Z"/><line class="cls-33" x1="212.48" y1="274.25" x2="212.48" y2="280.41"/><path class="cls-25" d="M211.26,283.18c1.77-1.72,1.32-4.91,1.32-4.91s-3.32-.41-5.08,1.32-1.32,4.91-1.32,4.91S209.5,284.9,211.26,283.18Z"/><path class="cls-27" d="M215.31,283c0-2.58-2.74-4.75-2.74-4.75s-2.76,2-2.76,4.6,2.73,4.74,2.73,4.74S215.3,285.59,215.31,283Z"/><g class="cls-34"><line class="cls-35" x1="184.15" y1="319.52" x2="242.05" y2="319.52"/><line class="cls-35" x1="184.15" y1="320.75" x2="242.05" y2="320.75"/><line class="cls-35" x1="184.15" y1="321.99" x2="242.05" y2="321.99"/><line class="cls-35" x1="184.15" y1="323.22" x2="242.05" y2="323.22"/><line class="cls-35" x1="184.15" y1="325.07" x2="242.05" y2="325.07"/></g><g class="cls-36"><line class="cls-37" x1="176.76" y1="338.62" x2="250.05" y2="338.62"/><line class="cls-37" x1="176.76" y1="339.85" x2="250.05" y2="339.85"/><line class="cls-37" x1="176.76" y1="341.08" x2="250.05" y2="341.08"/><line class="cls-37" x1="176.76" y1="342.31" x2="250.05" y2="342.31"/><line class="cls-37" x1="176.76" y1="343.54" x2="250.05" y2="343.54"/><line class="cls-37" x1="176.76" y1="344.78" x2="250.05" y2="344.78"/><line class="cls-37" x1="176.76" y1="346.62" x2="250.05" y2="346.62"/></g><rect class="cls-38" x="361.97" y="322.74" width="13.2" height="23.1" rx="1.08"/><rect class="cls-28" x="363.11" y="341.64" width="10.92" height="2.67" rx="0.65"/><rect class="cls-28" x="363.11" y="338.14" width="10.92" height="2.67" rx="0.65"/><rect class="cls-28" x="363.11" y="334.64" width="10.92" height="2.67" rx="0.65"/><rect class="cls-28" x="363.11" y="331.14" width="10.92" height="2.67" rx="0.65"/><rect class="cls-31" x="363.11" y="327.64" width="10.92" height="2.67" rx="0.65"/><rect class="cls-31" x="363.11" y="324.14" width="10.92" height="2.67" rx="0.65"/><path class="cls-28" d="M367.08,320.14h3a.74.74,0,0,1,.74.74v1.4a0,0,0,0,1,0,0h-4.48a0,0,0,0,1,0,0v-1.4A.74.74,0,0,1,367.08,320.14Z"/><polygon class="cls-39" points="199.93 301.05 191.77 301.05 203.38 276.2 211.54 276.2 199.93 301.05"/><polygon class="cls-39" points="226.73 301.12 223.49 301.12 235.1 276.27 238.34 276.27 226.73 301.12"/><polygon class="cls-39" points="220.81 301.05 207.72 301.05 219.33 276.2 232.42 276.2 220.81 301.05"/><polygon class="cls-40" points="304.99 32.41 236.61 32.41 241.14 12.83 300.46 12.83 304.99 32.41"/><text class="cls-41" transform="translate(246.6 25.38)">FOR SALE</text><polygon class="cls-42" points="333.72 23.94 344.26 23.94 339.42 37.36 333.72 23.94"/><polygon class="cls-43" points="342.43 25.32 336.21 25.43 336.21 20.37 342.43 20.37 342.43 25.32"/><path class="cls-44" d="M336.21,21.51a8.26,8.26,0,0,0,3.51.76,8,8,0,0,0,2.71-.52V20.37h-6.22Z"/><path class="cls-45" d="M346.76,6.54c.35.27.75.48,1.09.76a3.4,3.4,0,0,1,.63,3.94,8,8,0,0,1-3,3.1,14.38,14.38,0,0,1-1.22-4.52,5.58,5.58,0,0,1,.56-2.75c.17-.33.49-1,.85-1.15C346.27,5.67,346.35,6.22,346.76,6.54Z"/><ellipse class="cls-43" cx="345.94" cy="14.54" rx="2.36" ry="2.28"/><path class="cls-43" d="M334.09,14.59a2.37,2.37,0,1,1-2.37-2.28A2.33,2.33,0,0,1,334.09,14.59Z"/><path class="cls-44" d="M346.57,12.35a2.18,2.18,0,0,0-.63-.09,2.28,2.28,0,1,0,0,4.56,2.59,2.59,0,0,0,.63-.08Z"/><path class="cls-43" d="M342,4.63l-9,0V8.16c0,.93-.58,1.77-.65,2.7a.28.28,0,0,0,0,.09,7.46,7.46,0,0,0-.52,3.47,7.86,7.86,0,0,0,8,7,8.3,8.3,0,0,0,6.08-2.88,1.47,1.47,0,0,0,.35-.95V5.66A12.5,12.5,0,0,0,342,4.63Z"/><path class="cls-44" d="M343.59,8.22a4.3,4.3,0,0,1-1.39.22,6.57,6.57,0,0,1-4.28-1.34,1.48,1.48,0,0,1-.69-1.36c.15-.57.82-.83,1.4-1a15.7,15.7,0,0,1,2.14-.37,6.93,6.93,0,0,1,1.93,0,5.77,5.77,0,0,1,1.68.63c.31.17,1.4.66,1.48,1s-.72,1-.95,1.27A3.57,3.57,0,0,1,343.59,8.22Z"/><path class="cls-45" d="M333,8.34V10.5l.66.86-.45,2.78h-.73a12.22,12.22,0,0,0-.76-1.26,3.07,3.07,0,0,1-.72-1.82,3.61,3.61,0,0,1,.33-1.44A2.67,2.67,0,0,1,333,8.34Z"/><path class="cls-46" d="M347.7,4.73c-1.87-.85-2.65-3.3-4.3-4.15a5.39,5.39,0,0,0-5.34.27,4.68,4.68,0,0,0-2,4.76,7.39,7.39,0,0,0,5.8,2.2C346,7.56,347,5.59,347.7,4.73Z"/><path class="cls-45" d="M331,11.07V8.4s-.46-2.31,0-3.23c.83-1.75,3.23-1.53,3.61-1.44l1.81.45c-.07.55.42,1.15,0,1.52s-1.48.41-1.91.65c-1.09.62-1.37,2-1.42,3.22a4.63,4.63,0,0,1-.14,1.17,1.35,1.35,0,0,1-.77.86A1.06,1.06,0,0,1,331,11.07Z"/><path class="cls-47" d="M336.92,16.74a3.07,3.07,0,0,0,6,0Z"/><path class="cls-45" d="M338.11,9.68a3.48,3.48,0,0,0-3.18,1.07.19.19,0,0,0,0,.26l.41.3a.17.17,0,0,0,.23,0,2.64,2.64,0,0,1,2.41-.81.17.17,0,0,0,.2-.11l.13-.48C338.31,9.79,338.23,9.7,338.11,9.68Z"/><path class="cls-45" d="M341.83,9.68A3.48,3.48,0,0,1,345,10.75a.18.18,0,0,1,0,.26l-.41.3a.16.16,0,0,1-.22,0,2.65,2.65,0,0,0-2.42-.81.17.17,0,0,1-.2-.11l-.12-.48C341.63,9.79,341.71,9.7,341.83,9.68Z"/><path class="cls-31" d="M336.92,16.74a2.82,2.82,0,0,0,.33,1h4.17a.7.7,0,0,0,.71-.69v-.26Z"/><path class="cls-45" d="M338,12.19a.78.78,0,1,1-.78-.76A.77.77,0,0,1,338,12.19Z"/><path class="cls-45" d="M343.25,12.19a.78.78,0,1,1-.78-.76A.77.77,0,0,1,343.25,12.19Z"/><path class="cls-45" d="M342.93,6.92c-.34-.11-.72-.33-.7-.67a.67.67,0,0,1,.22-.4,2.84,2.84,0,0,1,1.23-.57,7.74,7.74,0,0,1-1.34-.34c-.37-.13-.79-.36-.82-.75a.7.7,0,0,1,.41-.62,1.58,1.58,0,0,1,.78-.15,4.33,4.33,0,0,1,1.51.31,3,3,0,0,1-1.67-1.4c-.18-.31-.26-.75,0-1a.85.85,0,0,1,.65,0,5.21,5.21,0,0,1,1.84.83A5.45,5.45,0,0,0,343.4.58a5.39,5.39,0,0,0-5.34.27,4.68,4.68,0,0,0-2,4.76,7.39,7.39,0,0,0,5.8,2.2,9,9,0,0,0,2.95-.62A6.21,6.21,0,0,1,342.93,6.92Z"/><path class="cls-44" d="M331.68,13.14a1.47,1.47,0,0,0-1.49,1.45,1.48,1.48,0,0,0,1.49,1.46Z"/><path class="cls-46" d="M331.38,5.8l.47-.24a.21.21,0,0,1,.11,0,.18.18,0,0,1,.15.19.54.54,0,0,1-.11.23,1.06,1.06,0,0,0-.24.65.45.45,0,0,0,.47.43.83.83,0,0,0,.43-.32,2.08,2.08,0,0,1,.77-.53,2.61,2.61,0,0,0,.82-.4.31.31,0,0,0,.12-.3c-.05-.14-.24-.17-.39-.16a.59.59,0,0,1-.44-.07c-.05-.27.46-.28.39-.58s-.83-.44-1.08-.42a2.24,2.24,0,0,0-1.18.53,1,1,0,0,0-.33.49S331.3,5.84,331.38,5.8Z"/><polygon class="cls-48" points="327.99 56.94 352.82 56.94 360.61 117.64 354.65 117.64 342.54 65.67 337.95 65.42 330.29 117.64 324.75 117.64 327.99 56.94"/><polygon class="cls-48" points="333.72 23.94 339.42 37.36 344.26 23.42 363.28 24.07 377.4 9.4 382.93 11.89 367.37 31.6 353 33.19 352.82 56.94 327.99 56.94 327.31 34.09 313.1 30.11 293.44 15.54 296.08 11.07 316.7 23.53 329.52 24.67 333.72 23.94"/><polygon class="cls-49" points="339.1 25.88 336.75 29.39 334.76 25.39 336.21 25.43 339.1 25.88"/><polygon class="cls-49" points="339.1 25.88 341.17 28.84 343.03 25.51 342.25 24.73 339.1 25.88"/><polygon class="cls-50" points="340.69 31.44 339.68 29.06 340.64 27.15 339.1 25.88 337.82 25.74 337.48 27.15 338.44 29.06 337.43 31.44 336.87 40.1 339.1 42.25 341.25 40.1 340.69 31.44"/><polygon class="cls-51" points="337.81 27.77 339.01 26.85 340.24 27.95 340.64 27.15 339.14 26.06 338.53 26.06 337.81 26.45 337.47 27.01 337.47 27.24 337.81 27.77"/><polygon class="cls-42" points="335.23 21.64 338.17 23.44 338.99 24.93 339.69 23.57 343.13 21.38 343.52 24.83 340.69 27.48 339.05 26.26 337.4 27.38 334.76 25.39 335.23 21.64"/><path class="cls-43" d="M377.45,10.65c.12-.23,2.78-4.87,3.83-6.72a1.45,1.45,0,0,1,1.3-.72l5.31.21.43,3.83-3.66,2.95s-4.43,2.75-4.57,2.65S377.45,10.65,377.45,10.65Z"/><polygon class="cls-52" points="333.72 23.94 330.56 27 333.18 28.15 331.39 33.14 339.51 49.35 339.42 37.36 333.72 23.94"/><polygon class="cls-52" points="344.26 23.42 347.75 25.85 346.16 26.94 348.26 28.79 339.51 49.72 339.42 37.36 344.26 23.42"/><polygon class="cls-31" points="375.42 11.45 380.69 15.11 382.93 11.89 377.4 9.4 375.42 11.45"/><path class="cls-48" d="M388.29,11.71l-.64-1.46a.68.68,0,0,0-.14-.23l-.13-.14a.81.81,0,0,0-.82-.24l-.23.06-1.32.37-.23.06a.84.84,0,0,0-.59.63l0,.19a.82.82,0,0,0,0,.27l.21,1.57a3.66,3.66,0,0,0,.44,1.33l.81,1.42a.71.71,0,0,0,.82.34l.17-.05,1.33-.37.17,0a.72.72,0,0,0,.53-.71l0-1.64A4,4,0,0,0,388.29,11.71Zm-1.71-1-1.25.35a.32.32,0,0,1-.39-.22.31.31,0,0,1,.22-.39l1.25-.35a.33.33,0,0,1,.39.22A.31.31,0,0,1,386.58,10.75Z"/><path class="cls-42" d="M395.17,11l.21.56a.27.27,0,0,1-.19.36l-.56.14a.25.25,0,0,1-.19,0l-4.92-2.51.6-1.19L395,10.81A.27.27,0,0,1,395.17,11Z"/><path class="cls-48" d="M390.4,6.67,388.79,6a1,1,0,0,0-1.22.46l-1,2a1,1,0,0,0,.35,1.25l1.47.92a1,1,0,0,0,1.37-.38L390.89,8A1,1,0,0,0,390.4,6.67Zm-1.91.5a.14.14,0,0,1,.06.19l-.72,1.41a.15.15,0,0,1-.19.07l-.31-.16a.15.15,0,0,1-.07-.2L388,7.07a.15.15,0,0,1,.2-.06Z"/><path class="cls-53" d="M391,9.17l-.2.39.52.27-.11.21.66.34.11-.2.35.18-.08.16.92.47.11-.22.9.46-.12.23.94.48.22-.06a.27.27,0,0,0,.19-.36l0-.11-1.66-.85-1-.53-.12.25L392,10l.16-.32-.65-.33,0,.06Z"/><path class="cls-54" d="M387.14,6.69a2.19,2.19,0,1,1-3.09-.14A2.19,2.19,0,0,1,387.14,6.69Z"/><path class="cls-43" d="M296.08,11.07c-.27,0-4.63-.48-4.89-.48s-8.13,1.16-8.13,1.16-.6,1-.4,1.05,3.81.25,3.81.25l2-.1-2,1.91L288.13,16l3.57-2.31,2.91,1.46,2.51-2.06Z"/><path class="cls-48" d="M360.61,117.64l1,1.92,9.22,1.1s-.24,1.87-.47,1.79-14.45-.23-14.45-.23l-.94-5.08Z"/><path class="cls-48" d="M324.62,117.64l-1,1.92-9.22,1.1s.24,1.87.47,1.79,14.45-.23,14.45-.23l.94-5.08Z"/><polygon class="cls-42" points="296.08 11.07 298.56 12.57 296.05 17.47 293.44 15.54 296.08 11.07"/><ellipse class="cls-43" cx="382.57" cy="8.36" rx="1.91" ry="1.68"/><rect class="cls-42" x="347.07" y="34.07" width="4.28" height="1.45"/><rect class="cls-52" x="348.78" y="32.36" width="0.86" height="2.57"/><path class="cls-50" d="M214.85,55.28s-.28-4.83-1.57-6c-1.57-1.43-10.29,0-12.29,2.42s.57,6.29,2.14,7,7.15,1,7.15,1Z"/><path class="cls-55" d="M218.56,56.13c-.42,0-3.71-.85-3.71-.85l-4.57,4.43,7.57,1.71Z"/><path class="cls-56" d="M213.28,49.28c-1.57-1.43-10.29,0-12.29,2.42a2.73,2.73,0,0,0-.21.3A5.72,5.72,0,0,0,203,54.27a16.34,16.34,0,0,0,4.64,1.64l4.27,1c.34.08.7.16,1.06.21l1.93-1.87S214.57,50.45,213.28,49.28Z"/><path class="cls-57" d="M207,56.87c-2.11-.55-4.24-1-6.39-1.34a6.18,6.18,0,0,0,2.46,3.14h0l3.45-.78a1.07,1.07,0,0,0,.65-.33C207.32,57.35,207.23,56.93,207,56.87Z"/><path class="cls-50" d="M322.66,55.28s.28-4.83,1.58-6c1.57-1.43,10.28,0,12.28,2.42s-.57,6.29-2.14,7-7.14,1-7.14,1Z"/><path class="cls-55" d="M319,56.13c.43,0,3.71-.85,3.71-.85l4.58,4.43-7.58,1.71Z"/><path class="cls-56" d="M324.24,49.28c1.57-1.43,10.28,0,12.28,2.42a2.73,2.73,0,0,1,.21.3,5.72,5.72,0,0,1-2.17,2.27,16.34,16.34,0,0,1-4.64,1.64l-4.26,1c-.34.08-.7.16-1.06.21l-1.94-1.87S322.94,50.45,324.24,49.28Z"/><path class="cls-57" d="M330.53,56.87c2.1-.55,4.24-1,6.39-1.34a6.19,6.19,0,0,1-2.47,3.14h0L331,57.89a1.1,1.1,0,0,1-.66-.33C330.19,57.35,330.28,56.93,330.53,56.87Z"/><path class="cls-55" d="M206.75,98.82h18a0,0,0,0,1,0,0v21.62a4.34,4.34,0,0,1-4.34,4.34h-9.32a4.34,4.34,0,0,1-4.34-4.34V98.82A0,0,0,0,1,206.75,98.82Z"/><rect class="cls-58" x="206.75" y="98.82" width="18" height="16.64"/><path class="cls-55" d="M313.29,98.82h18a0,0,0,0,1,0,0v21.62a4.34,4.34,0,0,1-4.34,4.34h-9.32a4.34,4.34,0,0,1-4.34-4.34V98.82A0,0,0,0,1,313.29,98.82Z"/><rect class="cls-58" x="313.29" y="98.82" width="18" height="16.2"/><path class="cls-58" d="M238,112l4.11,2.09h49.82l7.89-2.09s-1.19-5.86-1.82-6.07-14.23-2.51-14.23-2.51-10.26.21-11.51.21-20.73,2.72-20.73,2.72l-9.63,3.14Z"/><path class="cls-50" d="M332.2,74.61c0-1.83-1.19-4.86-2.15-7a9,9,0,0,0-3.29-3.86l-4.33-2.82s-10.6-29.3-17-31c-2.52-.65-12.7-1.7-21.79-2.55a163.5,163.5,0,0,0-31.05.08c-8.47.84-17.71,1.84-20.14,2.47-6.42,1.68-17,31-17,31l-4.32,2.82a9,9,0,0,0-3.29,3.85c-1,2.15-2.16,5.18-2.16,7,0,3.07-.56,17.86.56,26.24a36.11,36.11,0,0,0,2.18,8.93A3.6,3.6,0,0,0,211.7,112H238l5.86-1.4H294l5.86,1.4h26.31a3.6,3.6,0,0,0,3.33-2.23,36.58,36.58,0,0,0,2.18-8.93C332.76,92.47,332.2,77.68,332.2,74.61Z"/><path class="cls-56" d="M269.13,57.86l-48.57-.27s6.14,5.86,10.33,9.76,8.09,7,19.82,7.26c10.37.25,17,.06,18.42,0s8.05.24,18.42,0c11.72-.28,15.63-3.35,19.81-7.26s10.33-9.76,10.33-9.76Z"/><path class="cls-59" d="M313.17,43.7a55.17,55.17,0,0,0-6.07-9.35,4.85,4.85,0,0,0-3.08-1.8,214.3,214.3,0,0,0-70,0,4.86,4.86,0,0,0-3.07,1.8,54.56,54.56,0,0,0-6.07,9.35c-2.43,5.15-8,13.29.14,13.29h88C321.17,57,315.6,48.85,313.17,43.7Z"/><rect class="cls-60" x="260.28" y="35.56" width="17.57" height="4.57" rx="1.44"/><path class="cls-60" d="M239.7,49.68,241.37,44a2.29,2.29,0,0,1,2.19-1.64h5.28A2.27,2.27,0,0,1,251,44l1.59,5.73a2.27,2.27,0,0,1-2.19,2.89h-8.54A2.28,2.28,0,0,1,239.7,49.68Z"/><path class="cls-60" d="M235.83,57l1.09-2.24a.68.68,0,0,1,.61-.38H254.3a.69.69,0,0,1,.58.33L256.25,57Z"/><path class="cls-60" d="M286.67,49.68,288.34,44a2.27,2.27,0,0,1,2.19-1.64h5.27A2.29,2.29,0,0,1,298,44l1.59,5.73a2.28,2.28,0,0,1-2.2,2.89h-8.53A2.28,2.28,0,0,1,286.67,49.68Z"/><path class="cls-60" d="M282.79,57l1.09-2.24a.69.69,0,0,1,.61-.38h16.77a.68.68,0,0,1,.58.33L303.21,57Z"/><rect class="cls-51" x="237.57" y="78.28" width="61.72" height="1.14"/><rect class="cls-51" x="237.57" y="80.57" width="61.72" height="1.14"/><rect class="cls-51" x="237.57" y="82.85" width="61.72" height="1.14"/><path class="cls-51" d="M242.31,93h55.26a1.79,1.79,0,0,1,1.37,3l-5.54,6.56a1.79,1.79,0,0,1-1.37.63H248.22a1.79,1.79,0,0,1-1.33-.59L241,96A1.79,1.79,0,0,1,242.31,93Z"/><rect class="cls-61" x="249.94" y="86.71" width="37.01" height="9" rx="1.29"/><rect class="cls-62" x="265.2" y="73.96" width="6.49" height="34.49" transform="translate(359.65 -177.23) rotate(90)"/><ellipse class="cls-62" cx="268.44" cy="80.83" rx="5.6" ry="4.03"/><path class="cls-63" d="M294.13,43.54a31.49,31.49,0,0,0-3.45-5.32,2.8,2.8,0,0,0-1.75-1,121.8,121.8,0,0,0-39.84,0,2.77,2.77,0,0,0-1.75,1,31.49,31.49,0,0,0-3.45,5.32c-1.38,2.93-4.55,7.56.08,7.56h50.08C298.68,51.1,295.51,46.47,294.13,43.54Z"/><g class="cls-64"><g class="cls-65"><polygon class="cls-31" points="280.87 28.01 256.25 57.83 259.08 57.83 283.62 28.24 280.87 28.01"/><polygon class="cls-31" points="244.24 28.01 219.62 57.83 222.45 57.83 246.99 28.24 244.24 28.01"/><polygon class="cls-31" points="322.47 28.01 297.86 57.83 300.68 57.83 325.23 28.24 322.47 28.01"/><polygon class="cls-31" points="288.79 28.01 264.18 57.83 267 57.83 291.54 28.24 288.79 28.01"/></g></g><path class="cls-56" d="M212.05,105.87s17.58,2.51,20.93,3.07,9.21-2.23,9.77-3.63-8.11-3.22-8.11-3.22l-22.86-13h0a2.39,2.39,0,0,0-4.07,1.72C207.72,96.88,208.37,105.87,212.05,105.87Z"/><path class="cls-51" d="M211.78,89.05l2.45,8.85a5.35,5.35,0,0,0,4.17,3.84l14.79,2.79a1.52,1.52,0,0,0,1.67-.89h0a1.53,1.53,0,0,0-.22-1.55l-4.22-5.17a19.21,19.21,0,0,0-9.74-6.36l-8.15-2.26A.61.61,0,0,0,211.78,89.05Z"/><path class="cls-62" d="M218.71,100.1a3.73,3.73,0,0,1-2.87-2.64l-1.94-7,6.33,1.76a17.51,17.51,0,0,1,8.9,5.81l3.92,4.82Z"/><path class="cls-31" d="M223.25,96.1a3.11,3.11,0,1,1-3.11-3.1A3.1,3.1,0,0,1,223.25,96.1Z"/><path class="cls-31" d="M228.18,98.4A2.17,2.17,0,1,1,226,96.23,2.17,2.17,0,0,1,228.18,98.4Z"/><path class="cls-56" d="M233.75,78.31a12.75,12.75,0,0,1-7.53,3.56l6.48,4.39Z"/><path class="cls-62" d="M220.8,66.6l11.31,7.05a1.31,1.31,0,0,1-.11,2.29l-7,3.51a2.9,2.9,0,0,1-1.92.25l-10-2.12a2.91,2.91,0,0,1-2.31-2.65l-.49-6.85a2.92,2.92,0,0,1,2.46-3.1h0A11.73,11.73,0,0,1,220.8,66.6Z"/><path class="cls-61" d="M232.11,73.65l-8.23-5.13a4.36,4.36,0,0,1,.42.77,7.28,7.28,0,0,1,.44,2.4,8.59,8.59,0,0,1-2.16,5.64c-.56.64-1.21,1.22-1.73,1.9l2.2.47a2.9,2.9,0,0,0,1.92-.25l7-3.51A1.31,1.31,0,0,0,232.11,73.65Z"/><path class="cls-61" d="M219.89,66.16H220A11.72,11.72,0,0,0,212.75,65a2.92,2.92,0,0,0-2.46,3.1l.28,3.92.06-.12a19.72,19.72,0,0,1,1.34-3,6.5,6.5,0,0,1,3.78-2.7A10.68,10.68,0,0,1,219.89,66.16Z"/><circle class="cls-31" cx="223.65" cy="74.74" r="3.1"/><path class="cls-57" d="M217.11,68.47a3.11,3.11,0,1,1-3.11-3.1A3.1,3.1,0,0,1,217.11,68.47Z"/><circle class="cls-31" cx="217.09" cy="71.8" r="3.65" transform="translate(12.81 174.54) rotate(-45)"/><path class="cls-56" d="M326,105.87s-17.59,2.51-20.94,3.07-9.21-2.23-9.76-3.63,8.11-3.22,8.11-3.22l22.86-13h0a2.39,2.39,0,0,1,4.07,1.72C330.31,96.88,329.67,105.87,326,105.87Z"/><path class="cls-51" d="M326.26,89.05l-2.45,8.85a5.36,5.36,0,0,1-4.18,3.84l-14.78,2.79a1.51,1.51,0,0,1-1.67-.89h0a1.51,1.51,0,0,1,.22-1.55l4.21-5.17a19.24,19.24,0,0,1,9.75-6.36l8.14-2.26A.61.61,0,0,1,326.26,89.05Z"/><path class="cls-62" d="M319.32,100.1a3.72,3.72,0,0,0,2.87-2.64l1.95-7-6.34,1.76A17.53,17.53,0,0,0,308.91,98L305,102.8Z"/><path class="cls-31" d="M314.79,96.1a3.11,3.11,0,1,0,3.1-3.1A3.1,3.1,0,0,0,314.79,96.1Z"/><path class="cls-31" d="M309.86,98.4A2.17,2.17,0,1,0,312,96.23,2.17,2.17,0,0,0,309.86,98.4Z"/><path class="cls-56" d="M304.29,78.31a12.75,12.75,0,0,0,7.53,3.56l-6.49,4.39Z"/><path class="cls-62" d="M317.24,66.6l-11.31,7.05a1.32,1.32,0,0,0,.1,2.29l7,3.51a2.9,2.9,0,0,0,1.92.25l10-2.12a2.92,2.92,0,0,0,2.31-2.65l.49-6.85a2.92,2.92,0,0,0-2.46-3.1h0A11.73,11.73,0,0,0,317.24,66.6Z"/><path class="cls-61" d="M305.93,73.65l8.23-5.13a4.36,4.36,0,0,0-.42.77,7.28,7.28,0,0,0-.44,2.4,8.59,8.59,0,0,0,2.16,5.64c.56.64,1.21,1.22,1.73,1.9l-2.2.47a2.9,2.9,0,0,1-1.92-.25l-7-3.51A1.32,1.32,0,0,1,305.93,73.65Z"/><path class="cls-61" d="M318.15,66.16H318A11.72,11.72,0,0,1,325.29,65a2.92,2.92,0,0,1,2.46,3.1L327.47,72l-.06-.12a20.75,20.75,0,0,0-1.34-3,6.56,6.56,0,0,0-3.78-2.7A10.68,10.68,0,0,0,318.15,66.16Z"/><circle class="cls-31" cx="314.39" cy="74.74" r="3.1"/><path class="cls-57" d="M320.93,68.47a3.11,3.11,0,1,0,3.1-3.1A3.1,3.1,0,0,0,320.93,68.47Z"/><circle class="cls-31" cx="320.94" cy="71.8" r="3.65" transform="translate(-7.93 71.88) rotate(-12.62)"/><polygon class="cls-66" points="479.86 155.67 480.29 152.31 481.73 152.45 481.94 154.83 482.65 154.58 481.93 157.41 480.42 157.46 479.86 155.67"/><path class="cls-67" d="M488.65,176.65c2.17.2,4.65.1,6.09-1.54a5.75,5.75,0,0,0,.88-5,.84.84,0,0,0-.28-.53.79.79,0,0,0-.55-.08l-5.78.44c-1.09.09-3.25.69-3.84-.16s-.67-3.3-.9-4.43l-1.77-8.79-3,.27q0,4,.08,8.09c0,1.92,0,3.85.07,5.78C479.71,175.8,484.45,176.28,488.65,176.65Z"/><path class="cls-67" d="M501.27,170.85c1.76,1.34,2.52,3.76,3,6,1.8,9.19.88,18.68-.07,28-.11,1-.36,1.49-1.36,1-6.31-2.82-12.52-6.45-19.41-6.89,1.73-5.85,1.91-12,3.08-18A22.2,22.2,0,0,1,488,175.9a19.3,19.3,0,0,1,4.24-5.92c1.61-1.47,4.18-.82,6.12-.33a9.69,9.69,0,0,1,2.34.81A6,6,0,0,1,501.27,170.85Z"/><polygon class="cls-66" points="417.24 175.05 418.99 175.55 420.4 174.75 420.72 174.96 420.47 175.36 421.82 175.03 422.84 175.51 423.09 176.97 422.34 178.32 420.84 178.43 419.25 177.65 416.81 177.07 417.24 175.05"/><path class="cls-67" d="M418,174.13l-17.59-4.31a8.3,8.3,0,0,1-1.86-1.14l-3.76-2.3c-.85-.52-2.35-1.87-3.39-1.87-1.69,0-2.58,2.52-2.59,3.88,0,4.15,3.84,5.93,6.73,8.16l2.79,1.44,19.54.39Z"/><path class="cls-66" d="M396.74,152.76c-2.24.74-4.64-.89-6.8.19a5.55,5.55,0,0,0-2.59,4.26,4.83,4.83,0,0,0,.22,2.43,3.88,3.88,0,0,0,.83,1.21,4.49,4.49,0,0,0,1.54,1,11.77,11.77,0,0,1-.79,1.73l3.32.62.43-2.26a4.23,4.23,0,0,0,.91-.39A7,7,0,0,0,397,156,14.18,14.18,0,0,0,396.74,152.76Z"/><path class="cls-48" d="M385.39,157.55a4.82,4.82,0,0,1-.27-.5c-1-2.05-1.53-4.46-.06-6.44a7,7,0,0,1,6.91-2.29,7.07,7.07,0,0,0,3.92.35,1.75,1.75,0,0,0,1-.67c.19-.31.25-.7.45-1a1.24,1.24,0,0,1,2.08.27,4.38,4.38,0,0,0,.21.73c.28.49.95.51,1.51.58a.78.78,0,0,1,.49.21c.2.25,0,.66-.28.82s-1.08.16-1.33.6.1.93.05,1.3a3.85,3.85,0,0,1-2.45,2.9c-1.13.43-2.14,0-3.26-.32a10,10,0,0,0-1-.32,3.1,3.1,0,0,0-1.16.22,5,5,0,0,1-1.44,0,3.08,3.08,0,0,0-1.42.13,1.2,1.2,0,0,0-.8,1.09c0,.58.62,1,.61,1.62s-.46.88-.65,1.35-.15.8-.42,1.08a4.23,4.23,0,0,0-.4.34c-.14.18-.18.43-.37.56a.55.55,0,0,1-.67-.16,2,2,0,0,1-.31-.69A10.14,10.14,0,0,0,385.39,157.55Z"/><path class="cls-67" d="M389.62,163.33a2.52,2.52,0,0,0-1.47.15,2.34,2.34,0,0,0-.85,1,58.36,58.36,0,0,0-6.88,33.59,101.05,101.05,0,0,1,20.25-1.59q-.92-6.72-1.85-13.44c-.46-3.31-.91-6.62-1.67-9.87a54.57,54.57,0,0,0-2.67-8.36C393.77,163.1,391.21,163.49,389.62,163.33Z"/><path class="cls-68" d="M404.13,248.9l1.3,1.22a1.62,1.62,0,0,1-.4,2.66,2.77,2.77,0,0,1-2.7-.59L399.55,249l.45-1,4-.61Z"/><path class="cls-69" d="M401.41,195.43l6.45,26.36L406,247.57l-6.37.55-1.47-23.26s-14-25.48-13.16-26S401.41,195.43,401.41,195.43Z"/><path class="cls-68" d="M384.39,248.9l1.31,1.22a1.62,1.62,0,0,1-.4,2.66,2.79,2.79,0,0,1-2.71-.59L379.81,249v-1.47l1.05-.92,3.06.56Z"/><path class="cls-69" d="M397,197.1l-2,27.06L385.61,248l-6.6-1.32,5.78-22.58s-5.41-28.55-4.48-28.83S397,197.1,397,197.1Z"/><polygon class="cls-69" points="379.81 196.05 382.31 190 391.02 187.11 389.36 176.08 398.05 174.68 399.55 190.2 401.68 196.55 380.69 200.38 379.81 196.05"/><path class="cls-69" d="M389.83,171.27c0-1.71-.07-3.65-1.38-4.75a1.63,1.63,0,0,0-1-.44c-.79,0-1.32.77-1.71,1.45a4.17,4.17,0,0,1,.39-3,2.7,2.7,0,0,1,3.51-.51,4.7,4.7,0,0,1,2,3.23,22,22,0,0,1,.14,3.89,53.63,53.63,0,0,0,.39,5.67,18.45,18.45,0,0,0-2.24.14C389.42,175.32,389.82,173,389.83,171.27Z"/><path class="cls-69" d="M395.7,169.5c-.19-1.64-.58-3.45-1.95-4.39-.34-.23-.77-.48-.75-.89a.72.72,0,0,1,.4-.56,1.74,1.74,0,0,1,2.13.56,4.85,4.85,0,0,1,.84,2.22,62,62,0,0,1,1.09,9.5c0,.48-1.15.21-1.34,0s-.14-1.19-.15-1.61A41,41,0,0,0,395.7,169.5Z"/><polygon class="cls-70" points="497.19 243.11 496.93 244.87 497.53 248.23 499.5 248.04 499.87 243.07 499.58 242.28 497.19 243.11"/><polygon class="cls-70" points="487.93 247.96 484.85 250.22 485.23 251.91 490.88 250.56 490.42 248.12 487.93 247.96"/><polygon class="cls-69" points="481.86 203.51 481.96 226.71 487.13 248.48 491.34 248.48 491.07 223.22 493.61 204.14 491.75 200.36 482.4 201.42 481.86 203.51"/><polygon class="cls-69" points="492.52 220.58 496.93 242.73 500.77 242.28 501.81 224.98 503.79 206.07 501.8 200.53 491.1 200.53 492.52 220.58"/><path class="cls-71" d="M502.72,163c-.4-3.78-5.21-6.1-7.26-2.25a8.49,8.49,0,0,0-1.14,3.74,4.22,4.22,0,0,0,1.52,3.46h0c-.11.32-.23.64-.34,1a.22.22,0,0,0,.16.36l1.12.42a1.3,1.3,0,0,0,.57.12c.43,0,.71-.5.81-.92,0-.1.05-.21.07-.31A5.57,5.57,0,0,0,502.72,163Z"/><path class="cls-72" d="M479,120.53a6.17,6.17,0,1,0,7.83-3.84A6.17,6.17,0,0,0,479,120.53Zm3.78,1.29a2.18,2.18,0,1,1,1.36,2.76A2.18,2.18,0,0,1,482.81,121.82Z"/><path class="cls-73" d="M465.7,119.32a19.9,19.9,0,0,0-.26,3.84l-3.19,1.1,1,5.27,3.38-.2a19.39,19.39,0,0,0,1.7,3.45l-2.22,2.55,3.54,4,2.82-1.86a19,19,0,0,0,3.2,2.14l-.65,3.32,5.09,1.73,1.51-3a19.18,19.18,0,0,0,3.84.26l1.1,3.19,5.28-1-.2-3.38a20,20,0,0,0,3.45-1.69l2.55,2.21,4-3.54-1.85-2.82a20.19,20.19,0,0,0,2.14-3.19l3.31.64,1.74-5.09-3-1.51a19.94,19.94,0,0,0,.25-3.84l3.2-1.1-1.05-5.27-3.37.2a19.48,19.48,0,0,0-1.7-3.46l2.22-2.55-3.54-4-2.82,1.86a19,19,0,0,0-3.2-2.14l.65-3.32-5.09-1.73-1.52,3a19.13,19.13,0,0,0-3.84-.26l-1.09-3.19-5.28,1,.2,3.37a19.39,19.39,0,0,0-3.45,1.7l-2.55-2.22L468,107.34l1.86,2.82a19.61,19.61,0,0,0-2.14,3.2l-3.32-.64-1.73,5.08Zm33.75,6.8-10-3.42a4.54,4.54,0,0,0-1.91-3.89l3.42-10A15,15,0,0,1,499.45,126.12Zm-14.76.95a4.57,4.57,0,0,0,3.89-1.91l10,3.42a15,15,0,0,1-17.35,8.53Zm-.52-2.49a2.18,2.18,0,1,1,2.76-1.36A2.17,2.17,0,0,1,484.17,124.58Zm-13.89-5.66,10,3.42a4.55,4.55,0,0,0,1.92,3.89l-3.42,10A15,15,0,0,1,470.28,118.92Zm.84-2.45a15,15,0,0,1,17.35-8.53l-3.42,10a4.57,4.57,0,0,0-3.89,1.91Z"/><path class="cls-74" d="M468.26,116.87a17.54,17.54,0,1,1,10.95,22.26A17.57,17.57,0,0,1,468.26,116.87Zm.7.23a16.8,16.8,0,1,0,21.33-10.48A16.84,16.84,0,0,0,469,117.1Z"/><path class="cls-72" d="M470,120.53a15,15,0,0,0,8.84,15.74l1.2-3.54c.71.61,1.43,1.2,2.14,1.76l-.89,2.62a15,15,0,0,0,5.11.36,58.38,58.38,0,0,0,5.58,3.14l-.28.11.2,3.38-5.28,1L485.5,142a19.18,19.18,0,0,1-3.84-.26l-1.51,3L475.06,143l.65-3.32a19,19,0,0,1-3.2-2.14l-2.82,1.86-3.54-4,2.22-2.55a19.39,19.39,0,0,1-1.7-3.45l-3.38.2-1-5.27,3.19-1.1a19.9,19.9,0,0,1,.26-3.84l-3-1.52,1.73-5.08,2.26.43A44.46,44.46,0,0,0,470,120.53Z"/><path class="cls-75" d="M468.68,118a16.8,16.8,0,0,0,20,20.84l.93.52A17.53,17.53,0,0,1,468.21,117C468.36,117.37,468.52,117.71,468.68,118Z"/><path class="cls-76" d="M493.36,105c0,.06.64-2.65.64-2.65L489.93,101A7.68,7.68,0,0,1,493.36,105Z"/><path class="cls-77" d="M433.68,166.55l-2.3,1.16q.17,1.31.45,2.61c.2.87.43,1.72.7,2.55l2.58.07a3.73,3.73,0,0,1,3,5.79l-1.42,2.16a26.42,26.42,0,0,0,3.59,3.89l2.26-1.23a3.74,3.74,0,0,1,5.52,3.5l-.15,2.58a26.57,26.57,0,0,0,5,1.59l1.35-2.21a3.74,3.74,0,0,1,6.53.28l1.16,2.3q1.31-.17,2.61-.45c.87-.19,1.72-.43,2.55-.7l.07-2.58a3.74,3.74,0,0,1,5.79-3l2.16,1.42a26.91,26.91,0,0,0,3.89-3.58l-1.23-2.27a3.74,3.74,0,0,1,3.5-5.52l2.58.16a26.89,26.89,0,0,0,1.59-5.05l-2.21-1.35a3.74,3.74,0,0,1,.28-6.53l2.3-1.15q-.17-1.32-.45-2.61c-.19-.87-.43-1.73-.7-2.56l-2.58-.07a3.73,3.73,0,0,1-3-5.79l1.42-2.16a27.44,27.44,0,0,0-3.58-3.89l-2.27,1.23a3.73,3.73,0,0,1-5.51-3.5l.15-2.58a28.44,28.44,0,0,0-5.05-1.59L463,139.66a3.74,3.74,0,0,1-6.53-.28l-1.15-2.3q-1.32.16-2.61.45c-.87.2-1.73.43-2.56.7l-.07,2.58a3.73,3.73,0,0,1-5.79,3l-2.16-1.42a26.93,26.93,0,0,0-3.89,3.59l1.23,2.26a3.74,3.74,0,0,1-3.5,5.52l-2.58-.15a28.08,28.08,0,0,0-1.59,5L434,160A3.74,3.74,0,0,1,433.68,166.55Zm22.77-5.09-.26.22a3.51,3.51,0,0,0-.33.34L445,160.38a14.27,14.27,0,0,1,7.31-8.78,1.56,1.56,0,0,1,2.21,1.06Zm11.45-5.32-7.53,5a4.27,4.27,0,0,0-1-.36l-2-8.8a1.55,1.55,0,0,1,1.55-1.89,14.22,14.22,0,0,1,9.09,3.58A1.55,1.55,0,0,1,467.9,156.14Zm-9.1,6a2.17,2.17,0,1,1-2.33,2A2.17,2.17,0,0,1,458.8,162.17Zm3.43,2.55a3.65,3.65,0,0,0-.06-1.14l7.47-5a1.56,1.56,0,0,1,2.32.74,13.17,13.17,0,0,1,.56,1.91,14.09,14.09,0,0,1-.79,8.67,1.56,1.56,0,0,1-2.42.61Zm-8,11.25,4-8a3.57,3.57,0,0,0,2.4-.6l6.92,5.67a1.55,1.55,0,0,1,0,2.41,14.27,14.27,0,0,1-12.27,2.76A1.55,1.55,0,0,1,454.28,176Zm-8.06-12.35,8.86,1.33a3.42,3.42,0,0,0,.59,1.44l-4,8.14a1.55,1.55,0,0,1-2.41.48,14.13,14.13,0,0,1-4.48-7.57,13.75,13.75,0,0,1-.31-2.19A1.54,1.54,0,0,1,446.22,163.62Z"/><g class="cls-78"><path d="M440.52,163a18.17,18.17,0,1,1,16.76,19.48A18.19,18.19,0,0,1,440.52,163Zm3.57.26a14.59,14.59,0,1,0,15.64-13.45A14.61,14.61,0,0,0,444.09,163.24Z"/></g><path class="cls-79" d="M460.51,123.85a18,18,0,0,0,.15-2.07l-3.44-1.18-.63-3.55,2.81-2.31a18.23,18.23,0,0,0-2-3.7L454,112.11l-2.61-2.49.92-3.53a17.39,17.39,0,0,0-3.65-1.78l-2.21,2.9-3.57-.52-1.31-3.4a17.78,17.78,0,0,0-4.13.72l-.08,3.64-3.19,1.68-3.06-2a17.65,17.65,0,0,0-2.91,3l2.07,3-1.59,3.24-3.63.2a18.59,18.59,0,0,0-.43,2.15,19.47,19.47,0,0,0-.16,2l3.44,1.19.62,3.56L425.64,128a18.16,18.16,0,0,0,2,3.72l3.48-1.06,2.6,2.51-.94,3.52a18,18,0,0,0,3.77,1.84l2.2-2.91,3.57.5,1.31,3.4a18.89,18.89,0,0,0,4.14-.73l.06-3.65,3.19-1.7,3.06,2a18.09,18.09,0,0,0,2.91-3l-2.09-3,1.58-3.25,3.63-.2A18,18,0,0,0,460.51,123.85Zm-13.7,4.46a8.13,8.13,0,1,1,2.64-11.2A8.12,8.12,0,0,1,446.81,128.31Z"/><path class="cls-31" d="M452.66,115.14a11.9,11.9,0,1,0-3.87,16.37A11.91,11.91,0,0,0,452.66,115.14Zm-4.48,15.38a10.73,10.73,0,1,1,3.48-14.77A10.73,10.73,0,0,1,448.18,130.52Z"/><path class="cls-80" d="M433.59,133.05l.11.1-.87,3.5-.07,0a18,18,0,0,0,3.77,1.84l0-.06,2.22-2.85,3.57.5,1.36,3.35-.05.05a18.89,18.89,0,0,0,4.14-.73l-.06,0,.12-3.61,3.19-1.7,3.07,1.91v.06a18.09,18.09,0,0,0,2.91-3h-.06l-2-3,1.58-3.25,3.6-.25,0,0a16.71,16.71,0,0,0,.57-4.16l0,0-1-.35A39.51,39.51,0,0,1,433.59,133.05Z"/><path class="cls-81" d="M448.79,131.51a11.82,11.82,0,0,0,4.34-4.69c-.75.48-1.51.93-2.27,1.35a10.87,10.87,0,0,1-2.68,2.35A10.67,10.67,0,0,1,440.8,132c-.86.2-1.71.37-2.54.51A11.84,11.84,0,0,0,448.79,131.51Z"/><path class="cls-82" d="M437.57,106.89l.14-2.93a12.86,12.86,0,0,1,3.2-.61S438.67,103.77,437.57,106.89Z"/><path class="cls-83" d="M471.53,190,465,178.73l4.12-2.36,6.56,11.23-1,2a.91.91,0,0,1-.89.51Z"/><path class="cls-84" d="M467.25,182.94q2-1.92,4-3.93c.55-.57-.42-1.6-1-1-1.3,1.34-2.64,2.66-4,3.94C465.72,182.45,466.68,183.48,467.25,182.94Z"/><path class="cls-84" d="M468.66,185.4q2-1.92,4-3.93c.55-.57-.41-1.6-1-1q-2,2-4,3.93C467.13,184.91,468.09,185.94,468.66,185.4Z"/><path class="cls-84" d="M470.07,187.87q2-1.94,4-3.94c.55-.56-.41-1.6-1-1q-2,2-4,3.93C468.54,187.37,469.5,188.4,470.07,187.87Z"/><path class="cls-84" d="M471.49,190.33c1.35-1.28,2.69-2.6,4-3.94.55-.56-.41-1.59-1-1q-2,2-4,3.94C470,189.84,470.92,190.87,471.49,190.33Z"/><polygon class="cls-85" points="474.88 189.16 474.56 189.82 467.73 178.84 469.43 177.6 474.88 189.16"/><path class="cls-86" d="M470.17,171.67c-1.61-.74-4.11-.2-6,1s-3.46,3.22-3.46,5c0,2.66,3.35,4,7.51,1.33S472.6,172.78,470.17,171.67Z"/><path class="cls-84" d="M467.52,177.92c-4.16,2.63-7.31,1.67-7.13-.73.11-1.59,1.73-3.5,3.64-4.71s4.34-1.85,5.84-1.28C472.14,172.06,471.69,175.29,467.52,177.92Z"/><polygon class="cls-83" points="462.37 175.33 464.64 173.16 467.58 172.2 469.32 173.53 466.56 176.96 462.5 177.57 462.37 175.33"/><path class="cls-87" d="M466,175.55c-1.11.71-2.19.71-2.38.11s.41-1.32,1.25-1.86,1.82-.7,2.22-.34S467.1,174.85,466,175.55Z"/><rect class="cls-83" x="441.76" y="166.13" width="9.38" height="3.58" rx="1.37" transform="translate(430.5 644.64) rotate(-108.7)"/><path class="cls-84" d="M444.9,169.58c1.51,0,3,0,4.53,0,.43,0,.47.67,0,.67-1.51,0-3,0-4.53,0C444.51,170.25,444.47,169.58,444.9,169.58Z"/><path class="cls-84" d="M444.22,167.59c1.52,0,3,0,4.54,0,.43,0,.47.67,0,.67-1.51,0-3,0-4.54,0C443.83,168.26,443.79,167.59,444.22,167.59Z"/><path class="cls-84" d="M443.83,165.78c1.51,0,3,0,4.54,0,.43,0,.47.67,0,.67-1.52,0-3,0-4.54,0C443.44,166.45,443.4,165.78,443.83,165.78Z"/><path class="cls-88" d="M444.2,164.07c.85-.12,1.7-.23,2.54-.32.63-.07,1.57-.36,2.19,0s.89,1.21,1.17,1.79a21.36,21.36,0,0,1,1,2.44,23,23,0,0,1,.6,2.27c.12.6.22,1.2-.28,1.61-1.08.89-3,.77-4.36.75-.8,0-.92-1.29-.11-1.28a10,10,0,0,0,3.27-.32c.4-.13.35-.14.26-.57s-.14-.65-.22-1c-.15-.57-.32-1.12-.52-1.67s-.42-1.1-.66-1.63a6.69,6.69,0,0,0-.44-.89c-.24-.37-.24-.33-.62-.35a10.78,10.78,0,0,0-1.69.18c-.66.08-1.32.16-2,.26S443.42,164.18,444.2,164.07Z"/><path class="cls-83" d="M441.25,164.86c.6-.17,1.21-.25,1.81-.43l.27-.09c.79-.24,1.27.95.48,1.23l-.62.2c-.49.19-.91.47-.88,1.07a7.8,7.8,0,0,0,.63,2.35,11.36,11.36,0,0,0,1.17,2.17c.28.4.25.49.72.43l1.26-.17a.62.62,0,0,1,.7.6.58.58,0,0,1-.18.8c-.93.63-2.2,1.24-3.25.41a4.43,4.43,0,0,1-1-1.8l-.94-2.17c-.44-1-1.45-2.5-1.15-3.67A1.29,1.29,0,0,1,441.25,164.86Z"/><path class="cls-88" d="M453.23,168.81c1.74-.19,3.43-.5,5.15-.85,1.14-.24,2.27-.44,3.38-.79s2.19-.74,3.29-1.06c.83-.23,3.42-1.23,4-.15.32.65-.34,1.44-.73,1.9-.57.69-1.17,1.38-1.79,2a30.94,30.94,0,0,1-6.18,5,19,19,0,0,1-5.78,2.45c-.24.05-.47.1-.71.13a.4.4,0,0,1-.54-.37,58.11,58.11,0,0,1-1.76-7,1.32,1.32,0,0,1,0-.9C451.79,168.72,452.81,168.85,453.23,168.81Z"/><path class="cls-84" d="M441.53,165a.55.55,0,0,0-.43.74l2.2,6.36a.63.63,0,0,0,.66.42l2.79-.4,2.07,6h0c-.07-.09-.93-.1-1.22-.22a5.58,5.58,0,0,0-1.57-.34c-3.64-.36-7.5-.47-10.61,1.78-5,3.63-9.89,7.39-14.8,11.14s-9.91,7.64-14.76,11.6l-.29.24c-2.4,2-4.78,4-7.16,5.93l-3.72,3.08c-1.34,1.09-2.17,2.24-4.06,1.65a9.84,9.84,0,0,1-4.48-3.08,9,9,0,0,1-1.81-3.84c-.33-1.52-.91-3.41.65-4.4.69-.44,1.36-.87,2-1.35,10.08-6.85,20.34-13.68,30.27-20.82L419.4,178c2.61-1.86,6.94-5.21,9.49-7.16,5-3.79,5.54-6.6,8.4-11.21,1.15-1.86,2.23-3.77,3.26-5.7l3.66,10.72Z"/><path class="cls-89" d="M449.26,148.81c3.76-.71,13,3.9,15.43,4.91a1.76,1.76,0,0,1,.84,2.93l-1.3.21c-1.18.19-2.35.4-3.52.63-.85.16-1.71.33-2.56.51l-1.28.27c-.34.07-.65.25-1,.35s-.75.23-1.11.38a7,7,0,0,0-2,1.18c-.2.18-.5.64-.4.94,0,0,5.92,16.46,5.92,16.46a.3.3,0,0,1-.28.4l-9.18.2s.42-.33.32-1.49a15.87,15.87,0,0,0-.42-2.35c-.19-.8-.42-1.6-.66-2.39l2.32-.34a1.11,1.11,0,0,0,.84-1.56l-2.1-5.48a.62.62,0,0,0-.64-.41l-2.71.34c-1.34-4-2.87-7.9-4.59-11.73l-.63,1.2-.17-.49C441.84,151.66,445.51,149.52,449.26,148.81Z"/><path class="cls-89" d="M448.06,172c.24.79.47,1.59.66,2.39a15.87,15.87,0,0,1,.42,2.35c.1,1.16-.32,1.49-.32,1.49l-2.07-6Z"/><path class="cls-89" d="M445.77,164.5l-1.56.19L440.55,154l.63-1.2C442.9,156.6,444.43,160.52,445.77,164.5Z"/><path class="cls-90" d="M421.46,190.49l-.27.21c-5.3,4-10.56,8.14-15.72,12.36l-.31.25c-2.55,2.09-5.09,4.21-7.62,6.32l-4,3.28c-1.43,1.17-2.31,2.39-4.32,1.76a10.55,10.55,0,0,1-4.78-3.29,9.55,9.55,0,0,1-1.92-4.08c-.35-1.62-1-3.63.69-4.69.73-.47,1.45-.93,2.15-1.44,9.57-6.51,19.7-13.3,29.2-20Z"/><circle class="cls-31" cx="389.53" cy="207.12" r="2.68" transform="translate(-24.04 360.72) rotate(-48.38)"/><path class="cls-85" d="M420.77,186.28l-2.09-2.85a1.2,1.2,0,0,1,.25-1.67c3.41-2.51,14.71-10.88,15.41-11.94s1.26-1.87,1.91-2.79c.37-.53,1.58-2.94,2.16-3.1,1.3-.37,1.91,3.24,2.2,4.09.58,1.67,1.13,3.35,1.68,5a.85.85,0,0,1-.76,1.1,10,10,0,0,0-4.68,1.27c-1.9,1.23-11.3,8.65-14.37,11.07A1.2,1.2,0,0,1,420.77,186.28Z"/><path class="cls-84" d="M387.91,204.88a2.85,2.85,0,1,1-.6,4A2.86,2.86,0,0,1,387.91,204.88Zm.18.25a2.55,2.55,0,1,0,3.57.54A2.54,2.54,0,0,0,388.09,205.13Z"/><polygon class="cls-66" points="406.51 191.79 407.99 192.99 409.67 192.8 409.89 193.13 409.49 193.41 410.93 193.65 411.7 194.53 411.34 196.03 410.07 197.03 408.59 196.51 407.38 195.11 405.27 193.56 406.51 191.79"/><path class="cls-67" d="M408.08,191.47l-13.41-13.34a8.86,8.86,0,0,1-1.05-2L391.51,172c-.49-.93-1.1-2.94-2-3.5-1.51-.91-3.67.87-4.41,2.07-2.28,3.7.24,7.38,1.62,10.93l1.72,2.8,17.27,10.88Z"/><path class="cls-69" d="M383,153.72a8.6,8.6,0,0,0,1.67,4.57,5.76,5.76,0,0,0,1.37-.6,26.82,26.82,0,0,0,5.53-3.87,15.68,15.68,0,0,0,3.63-5.47,8.53,8.53,0,0,0-5.38-1.5C386.57,147.05,382.9,150.09,383,153.72Z"/><path class="cls-69" d="M397.33,144.18a2,2,0,0,1,1.88,0c.61.48.47,1.44.2,2.17a10.82,10.82,0,0,1-5.14,5.74c-1,.51-2.94.94-3.4-.56-.24-.8.35-2.31.71-3.07C392.56,146.4,395.31,145,397.33,144.18Z"/><path class="cls-69" d="M500.23,182.75h-1.64l.18-2.64a28.8,28.8,0,0,1,.43-3.93,14.67,14.67,0,0,1,2.52-5.71,2,2,0,0,0-2.55-.25,3.59,3.59,0,0,0-1,1.75,32.38,32.38,0,0,0-1.64,7.47,18.88,18.88,0,0,0-.24,3.32l-5.58,0c.07-1.09.15-2.17.22-3.26a28.63,28.63,0,0,1,.43-3.93,14.74,14.74,0,0,1,1.3-3.71c.55-1.1,1.13-2.48,2.19-3.12a7.38,7.38,0,0,0-2.72.42,3.17,3.17,0,0,0-1.84,2.2,32.3,32.3,0,0,0-1.64,7.46,13.41,13.41,0,0,0-.15,3.89l0,.06h-1.43l-4.65,18.6h19.72Z"/><polygon class="cls-66" points="470.63 184.26 467.51 182.92 468.05 181.58 470.39 182.03 470.35 181.28 472.87 182.75 472.5 184.22 470.63 184.26"/><path class="cls-67" d="M501.51,174.9a3.17,3.17,0,0,0-.82-.3,5.65,5.65,0,0,0-3.78.7c-1.83,1-3.36,2.54-5.06,3.72L486,183.08,472.18,182l-.57,2.95L488,189.44c2.5-1.92,4.94-3.81,7.54-5.56,2.33-1.57,5.16-2.78,6.64-5.28C503.05,177.19,502.81,175.61,501.51,174.9Z"/><path class="cls-91" d="M494,159.74a19.83,19.83,0,0,0-1.32-2.19c-.63-.72-1.7-1.1-2-2a2.38,2.38,0,0,1,1.32-2.82,4.31,4.31,0,0,1,2-.29,3,3,0,0,1,1,.19,1.85,1.85,0,0,1,1.1,1.42,5.32,5.32,0,0,0,.13,1.33c.58,1.38,2.22,1.57,3.47,1.89s2.46.38,3.56,1.22a5.28,5.28,0,0,1,1.61,5.79,6.61,6.61,0,0,1-4.61,4.1c-1.16.3-.18-.58.11-.86a5.4,5.4,0,0,0,1.35-2,3,3,0,0,0-.48-3,4.5,4.5,0,0,0-2.5-1.13,9.31,9.31,0,0,0-1.8-.32,5.08,5.08,0,0,1-1.17,0A2.63,2.63,0,0,1,494,159.74Z"/><path class="cls-69" d="M505.56,169.42a1.69,1.69,0,0,0,1.44.65,1.16,1.16,0,0,0,.77-.77,2.76,2.76,0,0,0,.08-1.11,10.13,10.13,0,0,0-2.77-6.21,1.43,1.43,0,0,0-1.13-.58c-.61.07-1,.89-1.27,1.39s.55.88.73,1.29a2.42,2.42,0,0,1,.13,1.57,1.62,1.62,0,0,0,.06,1.26A10.56,10.56,0,0,0,505.56,169.42Z"/><path class="cls-69" d="M499.42,158.76a18.29,18.29,0,0,1,2,2.17,31.56,31.56,0,0,1,2.53,4.86c.46.88,1,.23,1.57-.34a5.38,5.38,0,0,0,1.24-2,5.43,5.43,0,0,0-.26-4,11.07,11.07,0,0,0-2.08-2.66,6,6,0,0,0-4.25-1.54c-.69,0-2.56.28-2.86,1.07S499,158.3,499.42,158.76Z"/></g></g></g></svg>