<svg xmlns="http://www.w3.org/2000/svg" viewBox="0 0 1294 692"><defs><style>.cls-1{fill:#f4fcf3;}.cls-2{fill:#e2faf0;}</style></defs><title>Jumbo</title><g id="Layer_2" data-name="Layer 2"><g id="Layer_1-2" data-name="Layer 1"><path class="cls-1" d="M1294,0c-5.06,48.39-20.34,113.87-70,162-57.46,55.7-95.14,16.06-192,76-90.6,56.07-55.49,98.94-136,139-73.76,36.7-133.21-3.54-249,24C497.88,436.47,500.81,516.25,373,533c-34.55,4.53-58.9,3.77-79.36,2-35.3-3.11-59-9.35-103.64,3C97.15,563.77,36.35,636.23,0,692V0Z"/><path class="cls-2" d="M1294,0V692H0c36.35-55.77,97.15-128.23,190-154,44.6-12.38,68.34-6.14,103.64-3,20.46,1.8,44.81,2.56,79.36-2,127.81-16.75,124.88-96.53,274-132,115.79-27.54,175.24,12.7,249-24,80.51-40.06,45.4-82.93,136-139,96.86-59.94,134.54-20.3,192-76C1273.66,113.87,1288.94,48.39,1294,0Z"/></g></g></svg>