<svg xmlns="http://www.w3.org/2000/svg" viewBox="0 0 377.6 288.5"><defs><style>.cls-1{fill:none;stroke:#000;stroke-miterlimit:10;stroke-width:0.5px;}.cls-2{fill:#357e15;}.cls-3{fill:#3f9b14;}.cls-4{fill:#89cb07;}.cls-5{fill:#b9e04f;}</style></defs><title>5 to 7.5 lakh</title><g id="Layer_2" data-name="Layer 2"><g id="OBJECTS"><rect class="cls-1" x="0.25" y="0.25" width="377.1" height="288" rx="22.28"/><path d="M49.56,231.67H37.66v12.77H32.52V214.31H51.31v4.22H37.66v9h11.9Z"/><path d="M65.88,226.64a12,12,0,0,0-2-.16c-2.26,0-3.79.88-4.57,2.65v15.31H54.36V222.05h4.71l.12,2.5a5.56,5.56,0,0,1,5-2.91,4.41,4.41,0,0,1,1.75.29Z"/><path d="M67.34,233a13.44,13.44,0,0,1,1.28-5.93,9.51,9.51,0,0,1,3.6-4.06,10,10,0,0,1,5.32-1.41,9.5,9.5,0,0,1,7.22,2.91,11.61,11.61,0,0,1,3,7.74l0,1.18a13.58,13.58,0,0,1-1.25,5.92,9.29,9.29,0,0,1-3.57,4,10.13,10.13,0,0,1-5.38,1.43,9.45,9.45,0,0,1-7.44-3.15,12.21,12.21,0,0,1-2.8-8.41Zm4.94.43a9.16,9.16,0,0,0,1.4,5.41,4.55,4.55,0,0,0,3.9,2,4.49,4.49,0,0,0,3.89-2A10.07,10.07,0,0,0,82.86,233a9,9,0,0,0-1.43-5.38,4.77,4.77,0,0,0-7.73,0A9.88,9.88,0,0,0,72.28,233.47Z"/><path d="M96.6,222.05l.14,2.34a7.87,7.87,0,0,1,6.34-2.75q4.41,0,6,3.43a7.73,7.73,0,0,1,6.74-3.43c2.42,0,4.23.68,5.41,2.05s1.8,3.38,1.82,6v14.71h-4.93V229.87a4.49,4.49,0,0,0-.92-3.12,4,4,0,0,0-3-1,4,4,0,0,0-2.75.93,4.79,4.79,0,0,0-1.49,2.41l0,15.35h-4.94V229.71q-.1-4-4-4a4.35,4.35,0,0,0-4.21,2.47v16.22H92V222.05Z"/><path d="M139.53,229.5l1.61-15.19H157v4.35H145.24l-.81,7.2a9,9,0,0,1,4.63-1.2,8.17,8.17,0,0,1,6.57,2.75,11,11,0,0,1,2.35,7.41,10.15,10.15,0,0,1-2.6,7.31,9.42,9.42,0,0,1-7.13,2.72,9.82,9.82,0,0,1-6.74-2.35,8.54,8.54,0,0,1-2.89-6.19h4.77a5.3,5.3,0,0,0,1.55,3.36,4.61,4.61,0,0,0,3.29,1.17,4.19,4.19,0,0,0,3.54-1.66,7.19,7.19,0,0,0,1.27-4.51,6.41,6.41,0,0,0-1.4-4.35,4.85,4.85,0,0,0-3.86-1.61,6.19,6.19,0,0,0-2.28.37,6.45,6.45,0,0,0-2,1.41Z"/><path d="M178.72,216.61v5.44h3.88v3.73h-3.88v12.49a2.79,2.79,0,0,0,.5,1.85,2.29,2.29,0,0,0,1.78.57,8,8,0,0,0,1.73-.2v3.88a11.92,11.92,0,0,1-3.26.48q-5.68,0-5.68-6.39V225.78h-3.62v-3.73h3.62v-5.44Z"/><path d="M184.84,233a13.44,13.44,0,0,1,1.28-5.93,9.44,9.44,0,0,1,3.6-4.06,10,10,0,0,1,5.32-1.41,9.53,9.53,0,0,1,7.22,2.91,11.61,11.61,0,0,1,3,7.74l0,1.18a13.58,13.58,0,0,1-1.25,5.92,9.31,9.31,0,0,1-3.58,4,10.07,10.07,0,0,1-5.37,1.43,9.47,9.47,0,0,1-7.45-3.15,12.25,12.25,0,0,1-2.79-8.41Zm4.94.43a9.08,9.08,0,0,0,1.4,5.41,4.83,4.83,0,0,0,7.79,0,10.07,10.07,0,0,0,1.39-5.81,9.06,9.06,0,0,0-1.43-5.38,4.77,4.77,0,0,0-7.73,0A9.88,9.88,0,0,0,189.78,233.47Z"/><path d="M239.19,217.11l-11.83,27.33h-5.18L234,218.35h-15.3v-4h20.5Z"/><path d="M246.54,239.14a2.81,2.81,0,0,1,2.14.8,2.78,2.78,0,0,1,.75,2,2.71,2.71,0,0,1-.75,2,3.31,3.31,0,0,1-4.23,0,2.68,2.68,0,0,1-.77-2,2.66,2.66,0,0,1,2.86-2.79Z"/><path d="M256.09,229.5l1.61-15.19h15.89v4.35H261.8l-.81,7.2a9,9,0,0,1,4.63-1.2,8.17,8.17,0,0,1,6.57,2.75,11,11,0,0,1,2.35,7.41,10.15,10.15,0,0,1-2.6,7.31,9.4,9.4,0,0,1-7.13,2.72,9.82,9.82,0,0,1-6.74-2.35,8.54,8.54,0,0,1-2.89-6.19H260a5.36,5.36,0,0,0,1.55,3.36,4.63,4.63,0,0,0,3.29,1.17,4.18,4.18,0,0,0,3.54-1.66,7.19,7.19,0,0,0,1.27-4.51,6.35,6.35,0,0,0-1.4-4.35,4.85,4.85,0,0,0-3.86-1.61,6.1,6.1,0,0,0-2.27.37,6.48,6.48,0,0,0-2,1.41Z"/><path d="M294.35,244.44h-4.94V212.66h4.94Z"/><path d="M312.86,244.44a7.73,7.73,0,0,1-.57-2.09,8.2,8.2,0,0,1-11.17.58,6.21,6.21,0,0,1-2.1-4.76,6.41,6.41,0,0,1,2.61-5.5q2.61-1.9,7.47-1.91h3v-1.47a4,4,0,0,0-1-2.78,3.71,3.71,0,0,0-2.9-1,4.32,4.32,0,0,0-2.77.86,2.7,2.7,0,0,0-1.07,2.19h-4.94a5.65,5.65,0,0,1,1.2-3.45,8,8,0,0,1,3.26-2.51,11.21,11.21,0,0,1,4.6-.91,9.15,9.15,0,0,1,6.16,2,7.15,7.15,0,0,1,2.36,5.56v10.09a11.53,11.53,0,0,0,.83,4.82v.36Zm-5.42-3.62a5.47,5.47,0,0,0,2.75-.73,4.83,4.83,0,0,0,1.94-1.94v-4.22h-2.66a7.18,7.18,0,0,0-4.13,1,3.16,3.16,0,0,0-1.38,2.75,3,3,0,0,0,1,2.31A3.62,3.62,0,0,0,307.44,240.82Z"/><path d="M329.38,234.84l-2.2,2.29v7.31h-4.93V212.66h4.93V231l1.55-2,6.07-7h5.93l-8.16,9.33,9,13.06H335.9Z"/><path d="M348.82,224.49a7.68,7.68,0,0,1,6.12-2.85q7,0,7.13,8.17v14.63h-4.94V230a4.5,4.5,0,0,0-1-3.28,4,4,0,0,0-2.9-1,4.75,4.75,0,0,0-4.43,2.69v16h-4.94V212.66h4.94Z"/><polygon class="cls-2" points="133.97 159.42 133.97 190.03 262.34 127.62 262.34 112.9 133.97 159.42"/><polygon class="cls-3" points="133.97 159.42 79.63 134.41 79.63 159.32 133.97 190.03 133.97 159.42"/><polygon class="cls-4" points="79.63 134.41 133.97 159.42 262.34 112.9 197.64 103.63 79.63 134.41"/><polygon class="cls-3" points="97.85 134.41 198.15 107.63 245.89 114.55 136.83 151.46 97.85 134.41"/><path class="cls-5" d="M113.09,134.41l75.16-21.55a45.82,45.82,0,0,0,19.95-1.21l26.59,4.29-85.7,26.8a27.75,27.75,0,0,0-19.75-1.17Z"/><ellipse class="cls-3" cx="173.82" cy="126.03" rx="28.88" ry="7.83"/><path class="cls-4" d="M187.55,132.52l-1.85-.77a5.56,5.56,0,0,0-3-.07,58.3,58.3,0,0,1-7.63,1.34c-1.27.14-2.46-.06-2.76-.45l-.17-.23c-.34-.45.63-1,2.07-1.11a51.33,51.33,0,0,0,8.11-1.47c4-1.11,4.77-2.47,2.46-3.37s-5.62-.87-11-.36c-8,.79-14.09.93-17.44-.55-2.84-1.25-1.52-2.81,2.94-4,.73-.2.89-.47.4-.67l-1.55-.64c-.58-.24-.18-.56.87-.73h0a6.89,6.89,0,0,1,2.91.13l1.27.5a6.37,6.37,0,0,0,2.67.15c1.85-.25,3.48-.39,4.89-.46a3.68,3.68,0,0,1,2.22.36l.11.13c.25.28-.46.57-1.58.64a52,52,0,0,0-6.23.73c-4.76.86-5,1.91-3.5,2.54,2,.82,5.31.75,11.9.2,7.2-.61,11.78-.46,15.22.83,2.89,1.09,3.45,2.79,0,4.5-.56.27-.54.64.07.88l2.13.85c.77.31.66.81-.27,1.11l-.05,0A5.36,5.36,0,0,1,187.55,132.52Z"/><polygon class="cls-3" points="133.97 161.18 133.97 163.5 262.2 115.55 262.2 114.52 133.97 161.18"/><polygon class="cls-3" points="133.97 165.26 133.97 167.58 262.2 117.54 262.2 116.51 133.97 165.26"/><polygon class="cls-3" points="133.97 169.58 133.97 171.9 262.2 119.77 262.2 118.74 133.97 169.58"/><polygon class="cls-3" points="133.97 173.66 133.97 175.98 262.2 121.76 262.2 120.74 133.97 173.66"/><polygon class="cls-3" points="133.97 177.36 133.97 179.69 262.2 124.07 262.2 123.05 133.97 177.36"/><polygon class="cls-3" points="133.97 181.44 133.97 183.76 262.2 126.06 262.2 125.04 133.97 181.44"/><polygon class="cls-3" points="133.97 185.76 133.97 188.08 262.2 128.29 262.2 127.27 133.97 185.76"/><polygon class="cls-4" points="81.22 136.82 81.22 138.61 133.83 163.42 133.83 161.1 81.22 136.82"/><polygon class="cls-4" points="81.22 140.04 81.22 141.83 133.83 167.5 133.83 165.18 81.22 140.04"/><polygon class="cls-4" points="81.22 143.5 81.22 145.29 133.83 171.82 133.83 169.5 81.22 143.5"/><polygon class="cls-4" points="81.22 146.73 81.22 148.51 133.83 175.9 133.83 173.58 81.22 146.73"/><polygon class="cls-4" points="81.22 149.86 81.22 151.65 133.83 179.6 133.83 177.28 81.22 149.86"/><polygon class="cls-4" points="81.22 153.08 81.22 154.87 133.83 183.68 133.83 181.36 81.22 153.08"/><polygon class="cls-4" points="81.22 156.54 81.22 158.33 133.83 188 133.83 185.68 81.22 156.54"/><polygon class="cls-2" points="153.18 135.63 153.18 166.24 281.55 103.84 281.55 89.11 153.18 135.63"/><polygon class="cls-3" points="153.18 135.63 98.84 110.63 98.84 135.54 153.18 166.24 153.18 135.63"/><polygon class="cls-4" points="98.84 110.63 153.18 135.63 281.55 89.11 216.85 79.85 98.84 110.63"/><polygon class="cls-3" points="117.07 110.63 217.36 83.85 265.1 90.76 156.04 127.68 117.07 110.63"/><path class="cls-5" d="M132.31,110.62l75.16-21.54a45.68,45.68,0,0,0,19.95-1.22L254,92.15,168.31,119a27.78,27.78,0,0,0-19.76-1.17Z"/><ellipse class="cls-3" cx="193.03" cy="102.25" rx="28.88" ry="7.83"/><path class="cls-4" d="M206.77,108.73l-1.86-.76a5.56,5.56,0,0,0-3-.07,61.68,61.68,0,0,1-7.62,1.34c-1.27.14-2.47-.06-2.77-.46l-.17-.22c-.34-.45.63-1,2.07-1.12a50.22,50.22,0,0,0,8.11-1.46c3.95-1.11,4.77-2.48,2.46-3.38s-5.62-.86-11-.35c-8,.78-14.08.93-17.44-.55-2.83-1.25-1.52-2.81,2.94-4,.73-.19.89-.47.4-.67l-1.54-.63c-.58-.24-.19-.57.87-.73h0a6.86,6.86,0,0,1,2.9.12l1.27.51a6.37,6.37,0,0,0,2.67.15c1.86-.25,3.48-.39,4.89-.47a3.7,3.7,0,0,1,2.22.37l.11.13c.25.28-.46.57-1.58.63a54.45,54.45,0,0,0-6.23.74c-4.76.86-5,1.91-3.49,2.53,1.95.83,5.3.76,11.89.21,7.2-.61,11.79-.47,15.22.82,2.9,1.09,3.45,2.8,0,4.5-.56.28-.54.64.07.89l2.13.85c.77.31.66.8-.27,1.11l-.05,0A5.32,5.32,0,0,1,206.77,108.73Z"/><polygon class="cls-3" points="153.18 137.4 153.18 139.72 281.41 91.76 281.41 90.74 153.18 137.4"/><polygon class="cls-3" points="153.18 141.48 153.18 143.8 281.41 93.75 281.41 92.73 153.18 141.48"/><polygon class="cls-3" points="153.18 145.8 153.18 148.12 281.41 95.98 281.41 94.96 153.18 145.8"/><polygon class="cls-3" points="153.18 149.88 153.18 152.2 281.41 97.98 281.41 96.95 153.18 149.88"/><polygon class="cls-3" points="153.18 153.58 153.18 155.9 281.41 100.29 281.41 99.26 153.18 153.58"/><polygon class="cls-3" points="153.18 157.66 153.18 159.98 281.41 102.28 281.41 101.25 153.18 157.66"/><polygon class="cls-3" points="153.18 161.98 153.18 164.3 281.41 104.51 281.41 103.48 153.18 161.98"/><polygon class="cls-4" points="100.43 113.03 100.43 114.82 153.04 139.64 153.04 137.32 100.43 113.03"/><polygon class="cls-4" points="100.43 116.26 100.43 118.05 153.04 143.72 153.04 141.4 100.43 116.26"/><polygon class="cls-4" points="100.43 119.72 100.43 121.51 153.04 148.04 153.04 145.72 100.43 119.72"/><polygon class="cls-4" points="100.43 122.94 100.43 124.73 153.04 152.12 153.04 149.8 100.43 122.94"/><polygon class="cls-4" points="100.43 126.07 100.43 127.86 153.04 155.82 153.04 153.5 100.43 126.07"/><polygon class="cls-4" points="100.43 129.3 100.43 131.09 153.04 159.9 153.04 157.58 100.43 129.3"/><polygon class="cls-4" points="100.43 132.76 100.43 134.55 153.04 164.22 153.04 161.9 100.43 132.76"/></g></g></svg>