<svg xmlns="http://www.w3.org/2000/svg" viewBox="0 0 377.6 288.5"><defs><style>.cls-1{fill:none;stroke:#000;stroke-miterlimit:10;stroke-width:0.5px;}.cls-2{fill:#357e15;}.cls-3{fill:#3f9b14;}.cls-4{fill:#89cb07;}.cls-5{fill:#b9e04f;}.cls-6{font-size:44px;font-family:Roboto-Medium, Roboto;font-weight:500;}.cls-7{letter-spacing:-0.01em;}.cls-8{letter-spacing:-0.01em;}</style></defs><title>above 7.5 lakh</title><g id="Layer_2" data-name="Layer 2"><g id="OBJECTS"><rect class="cls-1" x="0.25" y="0.25" width="377.1" height="288" rx="22.28"/><polygon class="cls-2" points="151.46 160.84 151.46 191.45 279.83 129.05 279.83 114.32 151.46 160.84"/><polygon class="cls-3" points="151.46 160.84 97.12 135.83 97.12 160.75 151.46 191.45 151.46 160.84"/><polygon class="cls-4" points="97.12 135.83 151.46 160.84 279.83 114.32 215.13 105.06 97.12 135.83"/><polygon class="cls-3" points="115.35 135.83 215.64 109.06 263.38 115.97 154.32 152.89 115.35 135.83"/><path class="cls-5" d="M130.59,135.83l75.16-21.55a45.53,45.53,0,0,0,19.95-1.21l26.58,4.29-85.69,26.8A27.83,27.83,0,0,0,146.83,143Z"/><ellipse class="cls-3" cx="191.31" cy="127.46" rx="28.88" ry="7.83"/><path class="cls-4" d="M205.05,133.94l-1.85-.76a5.69,5.69,0,0,0-3-.08,59.89,59.89,0,0,1-7.62,1.35c-1.27.14-2.47-.06-2.77-.46l-.16-.22c-.35-.46.62-1,2.06-1.12a50,50,0,0,0,8.11-1.47c3.95-1.11,4.77-2.47,2.46-3.37s-5.62-.87-11-.35c-8,.78-14.08.93-17.44-.55-2.83-1.26-1.52-2.81,2.94-4,.73-.2.89-.47.41-.67l-1.55-.63c-.58-.24-.19-.57.87-.73h0a6.86,6.86,0,0,1,2.9.12l1.27.51a6.56,6.56,0,0,0,2.67.14c1.86-.25,3.48-.38,4.89-.46a3.8,3.8,0,0,1,2.22.36l.12.13c.24.28-.47.57-1.59.64a52.27,52.27,0,0,0-6.23.74c-4.76.86-5,1.9-3.49,2.53,1.95.83,5.31.75,11.89.2,7.2-.61,11.79-.46,15.22.83,2.9,1.09,3.45,2.79,0,4.5-.56.28-.54.64.07.88l2.14.86c.76.3.65.8-.28,1.11h-.05A5.24,5.24,0,0,1,205.05,133.94Z"/><polygon class="cls-3" points="151.46 162.61 151.46 164.93 279.69 116.97 279.69 115.95 151.46 162.61"/><polygon class="cls-3" points="151.46 166.69 151.46 169.01 279.69 118.96 279.69 117.94 151.46 166.69"/><polygon class="cls-3" points="151.46 171 151.46 173.33 279.69 121.19 279.69 120.17 151.46 171"/><polygon class="cls-3" points="151.46 175.09 151.46 177.41 279.69 123.18 279.69 122.16 151.46 175.09"/><polygon class="cls-3" points="151.46 178.79 151.46 181.11 279.69 125.49 279.69 124.47 151.46 178.79"/><polygon class="cls-3" points="151.46 182.87 151.46 185.19 279.69 127.49 279.69 126.46 151.46 182.87"/><polygon class="cls-3" points="151.46 187.19 151.46 189.51 279.69 129.72 279.69 128.69 151.46 187.19"/><polygon class="cls-4" points="98.71 138.24 98.71 140.03 151.32 164.85 151.32 162.53 98.71 138.24"/><polygon class="cls-4" points="98.71 141.47 98.71 143.25 151.32 168.93 151.32 166.61 98.71 141.47"/><polygon class="cls-4" points="98.71 144.93 98.71 146.72 151.32 173.25 151.32 170.92 98.71 144.93"/><polygon class="cls-4" points="98.71 148.15 98.71 149.94 151.32 177.32 151.32 175 98.71 148.15"/><polygon class="cls-4" points="98.71 151.28 98.71 153.07 151.32 181.03 151.32 178.71 98.71 151.28"/><polygon class="cls-4" points="98.71 154.5 98.71 156.29 151.32 185.11 151.32 182.79 98.71 154.5"/><polygon class="cls-4" points="98.71 157.97 98.71 159.75 151.32 189.43 151.32 187.1 98.71 157.97"/><polygon class="cls-2" points="170.67 137.06 170.67 167.67 299.04 105.27 299.04 90.54 170.67 137.06"/><polygon class="cls-3" points="170.67 137.06 116.33 112.05 116.33 136.97 170.67 167.67 170.67 137.06"/><polygon class="cls-4" points="116.33 112.05 170.67 137.06 299.04 90.54 234.34 81.27 116.33 112.05"/><polygon class="cls-3" points="134.56 112.05 234.86 85.27 282.59 92.19 173.53 129.1 134.56 112.05"/><path class="cls-5" d="M149.8,112.05,225,90.5a45.82,45.82,0,0,0,19.95-1.21l26.58,4.29-85.69,26.8A27.83,27.83,0,0,0,166,119.21Z"/><ellipse class="cls-3" cx="210.53" cy="103.67" rx="28.88" ry="7.83"/><path class="cls-4" d="M224.26,110.16l-1.85-.77a5.57,5.57,0,0,0-3-.07,58.3,58.3,0,0,1-7.63,1.34c-1.27.14-2.46-.06-2.76-.45l-.17-.23c-.34-.45.63-1,2.06-1.11A50.92,50.92,0,0,0,219,107.4c3.95-1.11,4.77-2.47,2.46-3.37s-5.61-.87-11-.36c-8,.79-14.08.94-17.44-.55-2.83-1.25-1.51-2.81,2.95-4,.72-.2.88-.47.4-.67l-1.55-.64c-.58-.23-.18-.56.87-.73h0a6.89,6.89,0,0,1,2.91.13l1.26.5a6.37,6.37,0,0,0,2.67.15c1.86-.25,3.49-.39,4.89-.46a3.64,3.64,0,0,1,2.22.36l.12.13c.24.28-.47.57-1.59.64a52.06,52.06,0,0,0-6.22.73c-4.76.86-5,1.91-3.5,2.54,2,.82,5.31.75,11.89.2,7.2-.61,11.79-.46,15.22.83,2.9,1.09,3.46,2.79,0,4.5-.56.27-.53.64.08.88l2.13.85c.77.31.65.81-.27,1.11l-.06,0A5.32,5.32,0,0,1,224.26,110.16Z"/><polygon class="cls-3" points="170.67 138.82 170.67 141.15 298.9 93.19 298.9 92.16 170.67 138.82"/><polygon class="cls-3" points="170.67 142.9 170.67 145.22 298.9 95.18 298.9 94.16 170.67 142.9"/><polygon class="cls-3" points="170.67 147.22 170.67 149.54 298.9 97.41 298.9 96.38 170.67 147.22"/><polygon class="cls-3" points="170.67 151.3 170.67 153.62 298.9 99.4 298.9 98.38 170.67 151.3"/><polygon class="cls-3" points="170.67 155 170.67 157.33 298.9 101.71 298.9 100.69 170.67 155"/><polygon class="cls-3" points="170.67 159.09 170.67 161.41 298.9 103.7 298.9 102.68 170.67 159.09"/><polygon class="cls-3" points="170.67 163.4 170.67 165.72 298.9 105.93 298.9 104.91 170.67 163.4"/><polygon class="cls-4" points="117.92 114.46 117.92 116.25 170.53 141.06 170.53 138.74 117.92 114.46"/><polygon class="cls-4" points="117.92 117.68 117.92 119.47 170.53 145.14 170.53 142.82 117.92 117.68"/><polygon class="cls-4" points="117.92 121.14 117.92 122.93 170.53 149.46 170.53 147.14 117.92 121.14"/><polygon class="cls-4" points="117.92 124.37 117.92 126.16 170.53 153.54 170.53 151.22 117.92 124.37"/><polygon class="cls-4" points="117.92 127.5 117.92 129.29 170.53 157.24 170.53 154.92 117.92 127.5"/><polygon class="cls-4" points="117.92 130.72 117.92 132.51 170.53 161.32 170.53 159 117.92 130.72"/><polygon class="cls-4" points="117.92 134.18 117.92 135.97 170.53 165.64 170.53 163.32 117.92 134.18"/><polygon class="cls-2" points="154.51 105.54 154.51 136.15 282.88 73.75 282.88 59.02 154.51 105.54"/><polygon class="cls-3" points="154.51 105.54 100.17 80.53 100.17 105.45 154.51 136.15 154.51 105.54"/><polygon class="cls-4" points="100.17 80.53 154.51 105.54 282.88 59.02 218.19 49.76 100.17 80.53"/><polygon class="cls-3" points="118.4 80.53 218.7 53.76 266.44 60.67 157.38 97.59 118.4 80.53"/><path class="cls-5" d="M133.64,80.53,208.8,59a45.67,45.67,0,0,0,19.95-1.22l26.58,4.3-85.69,26.8a27.75,27.75,0,0,0-19.75-1.17Z"/><ellipse class="cls-3" cx="194.37" cy="72.16" rx="28.88" ry="7.83"/><path class="cls-4" d="M208.1,78.64l-1.85-.76a5.56,5.56,0,0,0-3-.07,61.84,61.84,0,0,1-7.63,1.34c-1.27.14-2.46-.06-2.76-.46l-.17-.22c-.34-.45.63-1,2.06-1.12a50.14,50.14,0,0,0,8.12-1.46c3.94-1.11,4.77-2.48,2.46-3.37s-5.62-.87-11-.36c-8,.78-14.09.93-17.44-.55-2.84-1.25-1.52-2.81,2.94-4,.73-.2.88-.48.4-.68l-1.55-.63c-.58-.24-.18-.57.87-.73h0a6.91,6.91,0,0,1,2.91.12l1.27.51a6.37,6.37,0,0,0,2.67.15c1.85-.25,3.48-.39,4.89-.47a3.74,3.74,0,0,1,2.22.37l.11.13c.24.28-.46.57-1.58.63a54.45,54.45,0,0,0-6.23.74c-4.76.86-5,1.91-3.5,2.53,2,.83,5.31.76,11.89.21,7.21-.61,11.79-.47,15.23.82,2.89,1.09,3.45,2.8,0,4.5-.57.28-.54.64.07.89l2.13.85c.77.31.66.8-.27,1.11l-.06,0A5.32,5.32,0,0,1,208.1,78.64Z"/><polygon class="cls-3" points="154.51 107.31 154.51 109.63 282.75 61.67 282.75 60.65 154.51 107.31"/><polygon class="cls-3" points="154.51 111.39 154.51 113.71 282.75 63.67 282.75 62.64 154.51 111.39"/><polygon class="cls-3" points="154.51 115.71 154.51 118.03 282.75 65.89 282.75 64.87 154.51 115.71"/><polygon class="cls-3" points="154.51 119.79 154.51 122.11 282.75 67.89 282.75 66.86 154.51 119.79"/><polygon class="cls-3" points="154.51 123.49 154.51 125.81 282.75 70.2 282.75 69.17 154.51 123.49"/><polygon class="cls-3" points="154.51 127.57 154.51 129.89 282.75 72.19 282.75 71.17 154.51 127.57"/><polygon class="cls-3" points="154.51 131.89 154.51 134.21 282.75 74.42 282.75 73.39 154.51 131.89"/><polygon class="cls-4" points="101.77 82.94 101.77 84.73 154.38 109.55 154.38 107.23 101.77 82.94"/><polygon class="cls-4" points="101.77 86.17 101.77 87.96 154.38 113.63 154.38 111.31 101.77 86.17"/><polygon class="cls-4" points="101.77 89.63 101.77 91.42 154.38 117.95 154.38 115.63 101.77 89.63"/><polygon class="cls-4" points="101.77 92.85 101.77 94.64 154.38 122.03 154.38 119.71 101.77 92.85"/><polygon class="cls-4" points="101.77 95.98 101.77 97.77 154.38 125.73 154.38 123.41 101.77 95.98"/><polygon class="cls-4" points="101.77 99.21 101.77 101 154.38 129.81 154.38 127.49 101.77 99.21"/><polygon class="cls-4" points="101.77 102.67 101.77 104.46 154.38 134.13 154.38 131.81 101.77 102.67"/><text class="cls-6" transform="translate(41.9 252.48)">Ab<tspan class="cls-7" x="54.05" y="0">o</tspan><tspan class="cls-8" x="78.78" y="0">v</tspan><tspan x="100.27" y="0">e 7.5 Lakh</tspan></text></g></g></svg>