<svg xmlns="http://www.w3.org/2000/svg" viewBox="0 0 218 218"><defs><style>.cls-1{fill:#fff;}.cls-2,.cls-3,.cls-6{fill:none;stroke:#2d677a;}.cls-2{stroke-width:4px;}.cls-3{stroke-miterlimit:10;stroke-width:5px;}.cls-4{isolation:isolate;}.cls-5{fill:#2d677a;}</style></defs><title>charging stations</title><g id="Layer_2" data-name="Layer 2"><g id="Layer_1-2" data-name="Layer 1"><g id="Group_154" data-name="Group 154"><g id="Rectangle_12" data-name="Rectangle 12"><rect class="cls-1" width="218" height="218" rx="33"/><rect class="cls-2" x="2" y="2" width="214" height="214" rx="31"/></g><g id="Layer_2-2" data-name="Layer 2"><g id="Layer_1-3" data-name="Layer 1"><path id="Path_8" data-name="Path 8" class="cls-3" d="M146.43,71.42a37.64,37.64,0,0,1-1.8,11.19l-.56,1.72c-.8,1.79-1.95,4.1-2.55,5.17L136,99.12l-22.3,39.23a5.2,5.2,0,0,1-4.59,3.17,5.46,5.46,0,0,1-4.25-3.17L84.3,102,77.18,89.32a35.8,35.8,0,0,1-3.06-5.69c-.09-.26-.2-.51-.31-.76v-.26A43.66,43.66,0,0,1,72,71.14a37.28,37.28,0,0,1,74.56.28Z"/><circle id="Ellipse_18" data-name="Ellipse 18" class="cls-3" cx="109.49" cy="73.37" r="18.99"/></g></g><g id="Charging_Stations" data-name="Charging Stations" class="cls-4"><g class="cls-4"><path class="cls-5" d="M17.8,184.19A7.19,7.19,0,0,1,15,181.5a7.84,7.84,0,0,1,0-7.7,7.15,7.15,0,0,1,2.79-2.69,8.19,8.19,0,0,1,4-1,8.22,8.22,0,0,1,3.15.58,6.43,6.43,0,0,1,2.43,1.71L26,173.74A5.5,5.5,0,0,0,21.88,172a6,6,0,0,0-3,.74,5.36,5.36,0,0,0-2.07,2,6,6,0,0,0,0,5.78,5.36,5.36,0,0,0,2.07,2,6,6,0,0,0,3,.74A5.51,5.51,0,0,0,26,181.54l1.36,1.32a6.53,6.53,0,0,1-2.44,1.72,8.31,8.31,0,0,1-3.16.59A8.12,8.12,0,0,1,17.8,184.19Z"/><path class="cls-5" d="M39.41,175a4.85,4.85,0,0,1,1.25,3.6V185h-2v-6.17a3.42,3.42,0,0,0-.78-2.44,2.89,2.89,0,0,0-2.22-.82,3.48,3.48,0,0,0-2.59,1,3.72,3.72,0,0,0-.94,2.74V185h-2V169.42h2v6a4.05,4.05,0,0,1,1.65-1.24,5.59,5.59,0,0,1,2.28-.45A4.61,4.61,0,0,1,39.41,175Z"/><path class="cls-5" d="M52,174.9a4.37,4.37,0,0,1,1.22,3.38V185H51.3v-1.47a3.19,3.19,0,0,1-1.43,1.19,5.6,5.6,0,0,1-2.22.41,4.58,4.58,0,0,1-3-.91,2.89,2.89,0,0,1-1.13-2.37,2.92,2.92,0,0,1,1.07-2.36,5.27,5.27,0,0,1,3.41-.9H51.2v-.39a2.56,2.56,0,0,0-.76-2,3.17,3.17,0,0,0-2.22-.69,6.16,6.16,0,0,0-1.94.32,4.86,4.86,0,0,0-1.59.88l-.84-1.52a6.18,6.18,0,0,1,2.06-1.06,8.76,8.76,0,0,1,2.54-.37A5,5,0,0,1,52,174.9Zm-2,8.16a3,3,0,0,0,1.22-1.46V180H48.09c-1.71,0-2.56.58-2.56,1.73a1.56,1.56,0,0,0,.65,1.32,3,3,0,0,0,1.81.48A3.75,3.75,0,0,0,50,183.06Z"/><path class="cls-5" d="M60.44,174.27a5.57,5.57,0,0,1,2.5-.51v2a3,3,0,0,0-.46,0,3.41,3.41,0,0,0-2.58,1,3.89,3.89,0,0,0-.93,2.79V185H57V173.87h1.93v1.87A3.48,3.48,0,0,1,60.44,174.27Z"/><path class="cls-5" d="M76,173.87v9.62a5.77,5.77,0,0,1-1.45,4.31,6,6,0,0,1-4.33,1.4,10.22,10.22,0,0,1-3-.43,6,6,0,0,1-2.31-1.23l1-1.55a5.7,5.7,0,0,0,1.92,1.06,7.26,7.26,0,0,0,2.36.39,4,4,0,0,0,2.89-.93,3.79,3.79,0,0,0,.93-2.81v-.88a4.49,4.49,0,0,1-1.75,1.29,6,6,0,0,1-2.26.43,6.16,6.16,0,0,1-2.89-.68,5.12,5.12,0,0,1-2-1.92,5.67,5.67,0,0,1,0-5.6,4.93,4.93,0,0,1,2-1.9,6.16,6.16,0,0,1,2.89-.68,5.86,5.86,0,0,1,2.34.47,4.45,4.45,0,0,1,1.78,1.36v-1.72Zm-3.83,8.44A3.45,3.45,0,0,0,73.49,181a3.59,3.59,0,0,0,.49-1.88,3.37,3.37,0,0,0-1.07-2.61,4.31,4.31,0,0,0-5.52,0,3.4,3.4,0,0,0-1.07,2.61,3.59,3.59,0,0,0,.49,1.88,3.47,3.47,0,0,0,1.37,1.29,4.47,4.47,0,0,0,3.95,0Z"/><path class="cls-5" d="M79.83,171.35a1.23,1.23,0,0,1-.39-.92,1.28,1.28,0,0,1,.39-.94,1.33,1.33,0,0,1,1-.39,1.36,1.36,0,0,1,1,.37,1.21,1.21,0,0,1,.39.91,1.33,1.33,0,0,1-1.36,1.35A1.37,1.37,0,0,1,79.83,171.35Zm0,2.52h2V185h-2Z"/><path class="cls-5" d="M95,175a4.81,4.81,0,0,1,1.25,3.6V185h-2v-6.17a3.42,3.42,0,0,0-.78-2.44,2.91,2.91,0,0,0-2.23-.82,3.46,3.46,0,0,0-2.58,1,3.72,3.72,0,0,0-1,2.74V185h-2V173.87h1.93v1.68a4,4,0,0,1,1.65-1.32,5.71,5.71,0,0,1,2.36-.47A4.58,4.58,0,0,1,95,175Z"/><path class="cls-5" d="M110.67,173.87v9.62a5.73,5.73,0,0,1-1.45,4.31,6,6,0,0,1-4.32,1.4,10.24,10.24,0,0,1-3-.43,6,6,0,0,1-2.31-1.23l1-1.55a5.9,5.9,0,0,0,1.92,1.06,7.26,7.26,0,0,0,2.36.39,4,4,0,0,0,2.89-.93,3.79,3.79,0,0,0,.93-2.81v-.88a4.49,4.49,0,0,1-1.75,1.29,6,6,0,0,1-2.26.43,6.12,6.12,0,0,1-2.88-.68,5.08,5.08,0,0,1-2-1.92,5.67,5.67,0,0,1,0-5.6,4.9,4.9,0,0,1,2-1.9,6.12,6.12,0,0,1,2.88-.68,5.86,5.86,0,0,1,2.34.47,4.31,4.31,0,0,1,1.78,1.36v-1.72Zm-3.83,8.44A3.45,3.45,0,0,0,108.2,181a3.59,3.59,0,0,0,.5-1.88,3.4,3.4,0,0,0-1.07-2.61,4.32,4.32,0,0,0-5.53,0,3.4,3.4,0,0,0-1.07,2.61,3.68,3.68,0,0,0,.49,1.88,3.47,3.47,0,0,0,1.37,1.29,4.47,4.47,0,0,0,4,0Z"/><path class="cls-5" d="M121.54,184.65a6.5,6.5,0,0,1-2.43-1.33l.78-1.64a6.29,6.29,0,0,0,2.15,1.23,7.83,7.83,0,0,0,2.7.47,4.79,4.79,0,0,0,2.73-.62,1.9,1.9,0,0,0,.9-1.64,1.6,1.6,0,0,0-.49-1.23,3.31,3.31,0,0,0-1.22-.73,20.75,20.75,0,0,0-2-.57,21.46,21.46,0,0,1-2.67-.79,4.57,4.57,0,0,1-1.75-1.23,3.29,3.29,0,0,1-.72-2.24,3.74,3.74,0,0,1,.62-2.12A4.25,4.25,0,0,1,122,170.7a7.58,7.58,0,0,1,3.13-.57,9.68,9.68,0,0,1,2.56.34,6.69,6.69,0,0,1,2.16,1l-.69,1.68a7.66,7.66,0,0,0-2-.89,7.43,7.43,0,0,0-2.05-.3,4.49,4.49,0,0,0-2.68.65,2,2,0,0,0-.89,1.68,1.61,1.61,0,0,0,.5,1.23,3.5,3.5,0,0,0,1.25.73,19,19,0,0,0,2,.56,19.07,19.07,0,0,1,2.66.8,4.49,4.49,0,0,1,1.74,1.21,3.25,3.25,0,0,1,.72,2.21,3.76,3.76,0,0,1-.63,2.11,4.21,4.21,0,0,1-1.91,1.51,7.89,7.89,0,0,1-3.15.56A9.84,9.84,0,0,1,121.54,184.65Z"/><path class="cls-5" d="M139.46,184.35a3.14,3.14,0,0,1-1.09.58,4.69,4.69,0,0,1-1.35.2,3.54,3.54,0,0,1-2.6-.91,3.42,3.42,0,0,1-.92-2.58v-6.11h-1.89v-1.66h1.89v-2.44h2v2.44h3.2v1.66h-3.2v6a1.94,1.94,0,0,0,.45,1.38,1.72,1.72,0,0,0,1.3.48,2.42,2.42,0,0,0,1.57-.52Z"/><path class="cls-5" d="M149.49,174.9a4.38,4.38,0,0,1,1.23,3.38V185H148.8v-1.47a3.19,3.19,0,0,1-1.43,1.19,5.6,5.6,0,0,1-2.22.41,4.58,4.58,0,0,1-3-.91,3.1,3.1,0,0,1,0-4.73,5.22,5.22,0,0,1,3.4-.9h3.19v-.39a2.56,2.56,0,0,0-.76-2,3.17,3.17,0,0,0-2.22-.69,6.06,6.06,0,0,0-1.93.32,4.91,4.91,0,0,0-1.6.88l-.84-1.52a6.18,6.18,0,0,1,2.06-1.06,8.76,8.76,0,0,1,2.54-.37A5,5,0,0,1,149.49,174.9Zm-2,8.16a3,3,0,0,0,1.22-1.46V180h-3.11c-1.71,0-2.56.58-2.56,1.73a1.56,1.56,0,0,0,.65,1.32,3,3,0,0,0,1.81.48A3.75,3.75,0,0,0,147.48,183.06Z"/><path class="cls-5" d="M160.71,184.35a3.14,3.14,0,0,1-1.09.58,4.63,4.63,0,0,1-1.34.2,3.56,3.56,0,0,1-2.61-.91,3.46,3.46,0,0,1-.92-2.58v-6.11h-1.89v-1.66h1.89v-2.44h2v2.44H160v1.66h-3.2v6a1.94,1.94,0,0,0,.45,1.38,1.72,1.72,0,0,0,1.3.48,2.42,2.42,0,0,0,1.57-.52Z"/><path class="cls-5" d="M163.18,171.35a1.23,1.23,0,0,1-.39-.92,1.28,1.28,0,0,1,.39-.94,1.32,1.32,0,0,1,1-.39,1.38,1.38,0,0,1,1,.37,1.21,1.21,0,0,1,.39.91,1.33,1.33,0,0,1-1.36,1.35A1.35,1.35,0,0,1,163.18,171.35Zm0,2.52h2V185h-2Z"/><path class="cls-5" d="M170.79,184.39a5.31,5.31,0,0,1-2.07-2,6.15,6.15,0,0,1,0-5.85,5.22,5.22,0,0,1,2.07-2,6.14,6.14,0,0,1,3-.73,6.05,6.05,0,0,1,3,.73,5.13,5.13,0,0,1,2.06,2,6.08,6.08,0,0,1,0,5.85,5.22,5.22,0,0,1-2.06,2,6,6,0,0,1-3,.74A6,6,0,0,1,170.79,184.39Zm4.91-1.52a3.49,3.49,0,0,0,1.33-1.39,4.6,4.6,0,0,0,0-4.09A3.4,3.4,0,0,0,175.7,176a4.1,4.1,0,0,0-3.85,0,3.49,3.49,0,0,0-1.34,1.38,4.43,4.43,0,0,0,0,4.09,3.59,3.59,0,0,0,1.34,1.39,4,4,0,0,0,3.85,0Z"/><path class="cls-5" d="M191.65,175a4.81,4.81,0,0,1,1.25,3.6V185h-2v-6.17a3.42,3.42,0,0,0-.78-2.44,2.91,2.91,0,0,0-2.23-.82,3.46,3.46,0,0,0-2.58,1,3.72,3.72,0,0,0-.94,2.74V185h-2V173.87h1.93v1.68a4,4,0,0,1,1.65-1.32,5.75,5.75,0,0,1,2.36-.47A4.58,4.58,0,0,1,191.65,175Z"/><path class="cls-5" d="M197.21,184.76a5.74,5.74,0,0,1-2-.94l.84-1.59a6,6,0,0,0,1.78.84,7.35,7.35,0,0,0,2.12.31c1.77,0,2.65-.5,2.65-1.51a1,1,0,0,0-.36-.8,2.38,2.38,0,0,0-.89-.43c-.36-.09-.87-.19-1.52-.3a15.3,15.3,0,0,1-2.2-.48,3.42,3.42,0,0,1-1.46-.93,2.55,2.55,0,0,1-.61-1.83,2.86,2.86,0,0,1,1.26-2.42,5.64,5.64,0,0,1,3.38-.92,9.46,9.46,0,0,1,2.23.28,6,6,0,0,1,1.83.73l-.86,1.6a5.8,5.8,0,0,0-3.22-.88,3.72,3.72,0,0,0-2,.42,1.26,1.26,0,0,0-.67,1.11,1.06,1.06,0,0,0,.37.86,2.36,2.36,0,0,0,.94.46c.37.1.89.21,1.56.34a17.49,17.49,0,0,1,2.18.49,3.29,3.29,0,0,1,1.42.9,2.48,2.48,0,0,1,.58,1.76,2.77,2.77,0,0,1-1.29,2.4,6.05,6.05,0,0,1-3.52.9A9.48,9.48,0,0,1,197.21,184.76Z"/></g><g class="cls-4"><path class="cls-6" d="M17.8,184.19A7.19,7.19,0,0,1,15,181.5a7.84,7.84,0,0,1,0-7.7,7.15,7.15,0,0,1,2.79-2.69,8.19,8.19,0,0,1,4-1,8.22,8.22,0,0,1,3.15.58,6.43,6.43,0,0,1,2.43,1.71L26,173.74A5.5,5.5,0,0,0,21.88,172a6,6,0,0,0-3,.74,5.36,5.36,0,0,0-2.07,2,6,6,0,0,0,0,5.78,5.36,5.36,0,0,0,2.07,2,6,6,0,0,0,3,.74A5.51,5.51,0,0,0,26,181.54l1.36,1.32a6.53,6.53,0,0,1-2.44,1.72,8.31,8.31,0,0,1-3.16.59A8.12,8.12,0,0,1,17.8,184.19Z"/><path class="cls-6" d="M39.41,175a4.85,4.85,0,0,1,1.25,3.6V185h-2v-6.17a3.42,3.42,0,0,0-.78-2.44,2.89,2.89,0,0,0-2.22-.82,3.48,3.48,0,0,0-2.59,1,3.72,3.72,0,0,0-.94,2.74V185h-2V169.42h2v6a4.05,4.05,0,0,1,1.65-1.24,5.59,5.59,0,0,1,2.28-.45A4.61,4.61,0,0,1,39.41,175Z"/><path class="cls-6" d="M52,174.9a4.37,4.37,0,0,1,1.22,3.38V185H51.3v-1.47a3.19,3.19,0,0,1-1.43,1.19,5.6,5.6,0,0,1-2.22.41,4.58,4.58,0,0,1-3-.91,2.89,2.89,0,0,1-1.13-2.37,2.92,2.92,0,0,1,1.07-2.36,5.27,5.27,0,0,1,3.41-.9H51.2v-.39a2.56,2.56,0,0,0-.76-2,3.17,3.17,0,0,0-2.22-.69,6.16,6.16,0,0,0-1.94.32,4.86,4.86,0,0,0-1.59.88l-.84-1.52a6.18,6.18,0,0,1,2.06-1.06,8.76,8.76,0,0,1,2.54-.37A5,5,0,0,1,52,174.9Zm-2,8.16a3,3,0,0,0,1.22-1.46V180H48.09c-1.71,0-2.56.58-2.56,1.73a1.56,1.56,0,0,0,.65,1.32,3,3,0,0,0,1.81.48A3.75,3.75,0,0,0,50,183.06Z"/><path class="cls-6" d="M60.44,174.27a5.57,5.57,0,0,1,2.5-.51v2a3,3,0,0,0-.46,0,3.41,3.41,0,0,0-2.58,1,3.89,3.89,0,0,0-.93,2.79V185H57V173.87h1.93v1.87A3.48,3.48,0,0,1,60.44,174.27Z"/><path class="cls-6" d="M76,173.87v9.62a5.77,5.77,0,0,1-1.45,4.31,6,6,0,0,1-4.33,1.4,10.22,10.22,0,0,1-3-.43,6,6,0,0,1-2.31-1.23l1-1.55a5.7,5.7,0,0,0,1.92,1.06,7.26,7.26,0,0,0,2.36.39,4,4,0,0,0,2.89-.93,3.79,3.79,0,0,0,.93-2.81v-.88a4.49,4.49,0,0,1-1.75,1.29,6,6,0,0,1-2.26.43,6.16,6.16,0,0,1-2.89-.68,5.12,5.12,0,0,1-2-1.92,5.67,5.67,0,0,1,0-5.6,4.93,4.93,0,0,1,2-1.9,6.16,6.16,0,0,1,2.89-.68,5.86,5.86,0,0,1,2.34.47,4.45,4.45,0,0,1,1.78,1.36v-1.72Zm-3.83,8.44A3.45,3.45,0,0,0,73.49,181a3.59,3.59,0,0,0,.49-1.88,3.37,3.37,0,0,0-1.07-2.61,4.31,4.31,0,0,0-5.52,0,3.4,3.4,0,0,0-1.07,2.61,3.59,3.59,0,0,0,.49,1.88,3.47,3.47,0,0,0,1.37,1.29,4.47,4.47,0,0,0,3.95,0Z"/><path class="cls-6" d="M79.83,171.35a1.23,1.23,0,0,1-.39-.92,1.28,1.28,0,0,1,.39-.94,1.33,1.33,0,0,1,1-.39,1.36,1.36,0,0,1,1,.37,1.21,1.21,0,0,1,.39.91,1.33,1.33,0,0,1-1.36,1.35A1.37,1.37,0,0,1,79.83,171.35Zm0,2.52h2V185h-2Z"/><path class="cls-6" d="M95,175a4.81,4.81,0,0,1,1.25,3.6V185h-2v-6.17a3.42,3.42,0,0,0-.78-2.44,2.91,2.91,0,0,0-2.23-.82,3.46,3.46,0,0,0-2.58,1,3.72,3.72,0,0,0-1,2.74V185h-2V173.87h1.93v1.68a4,4,0,0,1,1.65-1.32,5.71,5.71,0,0,1,2.36-.47A4.58,4.58,0,0,1,95,175Z"/><path class="cls-6" d="M110.67,173.87v9.62a5.73,5.73,0,0,1-1.45,4.31,6,6,0,0,1-4.32,1.4,10.24,10.24,0,0,1-3-.43,6,6,0,0,1-2.31-1.23l1-1.55a5.9,5.9,0,0,0,1.92,1.06,7.26,7.26,0,0,0,2.36.39,4,4,0,0,0,2.89-.93,3.79,3.79,0,0,0,.93-2.81v-.88a4.49,4.49,0,0,1-1.75,1.29,6,6,0,0,1-2.26.43,6.12,6.12,0,0,1-2.88-.68,5.08,5.08,0,0,1-2-1.92,5.67,5.67,0,0,1,0-5.6,4.9,4.9,0,0,1,2-1.9,6.12,6.12,0,0,1,2.88-.68,5.86,5.86,0,0,1,2.34.47,4.31,4.31,0,0,1,1.78,1.36v-1.72Zm-3.83,8.44A3.45,3.45,0,0,0,108.2,181a3.59,3.59,0,0,0,.5-1.88,3.4,3.4,0,0,0-1.07-2.61,4.32,4.32,0,0,0-5.53,0,3.4,3.4,0,0,0-1.07,2.61,3.68,3.68,0,0,0,.49,1.88,3.47,3.47,0,0,0,1.37,1.29,4.47,4.47,0,0,0,4,0Z"/><path class="cls-6" d="M121.54,184.65a6.5,6.5,0,0,1-2.43-1.33l.78-1.64a6.29,6.29,0,0,0,2.15,1.23,7.83,7.83,0,0,0,2.7.47,4.79,4.79,0,0,0,2.73-.62,1.9,1.9,0,0,0,.9-1.64,1.6,1.6,0,0,0-.49-1.23,3.31,3.31,0,0,0-1.22-.73,20.75,20.75,0,0,0-2-.57,21.46,21.46,0,0,1-2.67-.79,4.57,4.57,0,0,1-1.75-1.23,3.29,3.29,0,0,1-.72-2.24,3.74,3.74,0,0,1,.62-2.12A4.25,4.25,0,0,1,122,170.7a7.58,7.58,0,0,1,3.13-.57,9.68,9.68,0,0,1,2.56.34,6.69,6.69,0,0,1,2.16,1l-.69,1.68a7.66,7.66,0,0,0-2-.89,7.43,7.43,0,0,0-2.05-.3,4.49,4.49,0,0,0-2.68.65,2,2,0,0,0-.89,1.68,1.61,1.61,0,0,0,.5,1.23,3.5,3.5,0,0,0,1.25.73,19,19,0,0,0,2,.56,19.07,19.07,0,0,1,2.66.8,4.49,4.49,0,0,1,1.74,1.21,3.25,3.25,0,0,1,.72,2.21,3.76,3.76,0,0,1-.63,2.11,4.21,4.21,0,0,1-1.91,1.51,7.89,7.89,0,0,1-3.15.56A9.84,9.84,0,0,1,121.54,184.65Z"/><path class="cls-6" d="M139.46,184.35a3.14,3.14,0,0,1-1.09.58,4.69,4.69,0,0,1-1.35.2,3.54,3.54,0,0,1-2.6-.91,3.42,3.42,0,0,1-.92-2.58v-6.11h-1.89v-1.66h1.89v-2.44h2v2.44h3.2v1.66h-3.2v6a1.94,1.94,0,0,0,.45,1.38,1.72,1.72,0,0,0,1.3.48,2.42,2.42,0,0,0,1.57-.52Z"/><path class="cls-6" d="M149.49,174.9a4.38,4.38,0,0,1,1.23,3.38V185H148.8v-1.47a3.19,3.19,0,0,1-1.43,1.19,5.6,5.6,0,0,1-2.22.41,4.58,4.58,0,0,1-3-.91,3.1,3.1,0,0,1,0-4.73,5.22,5.22,0,0,1,3.4-.9h3.19v-.39a2.56,2.56,0,0,0-.76-2,3.17,3.17,0,0,0-2.22-.69,6.06,6.06,0,0,0-1.93.32,4.91,4.91,0,0,0-1.6.88l-.84-1.52a6.18,6.18,0,0,1,2.06-1.06,8.76,8.76,0,0,1,2.54-.37A5,5,0,0,1,149.49,174.9Zm-2,8.16a3,3,0,0,0,1.22-1.46V180h-3.11c-1.71,0-2.56.58-2.56,1.73a1.56,1.56,0,0,0,.65,1.32,3,3,0,0,0,1.81.48A3.75,3.75,0,0,0,147.48,183.06Z"/><path class="cls-6" d="M160.71,184.35a3.14,3.14,0,0,1-1.09.58,4.63,4.63,0,0,1-1.34.2,3.56,3.56,0,0,1-2.61-.91,3.46,3.46,0,0,1-.92-2.58v-6.11h-1.89v-1.66h1.89v-2.44h2v2.44H160v1.66h-3.2v6a1.94,1.94,0,0,0,.45,1.38,1.72,1.72,0,0,0,1.3.48,2.42,2.42,0,0,0,1.57-.52Z"/><path class="cls-6" d="M163.18,171.35a1.23,1.23,0,0,1-.39-.92,1.28,1.28,0,0,1,.39-.94,1.32,1.32,0,0,1,1-.39,1.38,1.38,0,0,1,1,.37,1.21,1.21,0,0,1,.39.91,1.33,1.33,0,0,1-1.36,1.35A1.35,1.35,0,0,1,163.18,171.35Zm0,2.52h2V185h-2Z"/><path class="cls-6" d="M170.79,184.39a5.31,5.31,0,0,1-2.07-2,6.15,6.15,0,0,1,0-5.85,5.22,5.22,0,0,1,2.07-2,6.14,6.14,0,0,1,3-.73,6.05,6.05,0,0,1,3,.73,5.13,5.13,0,0,1,2.06,2,6.08,6.08,0,0,1,0,5.85,5.22,5.22,0,0,1-2.06,2,6,6,0,0,1-3,.74A6,6,0,0,1,170.79,184.39Zm4.91-1.52a3.49,3.49,0,0,0,1.33-1.39,4.6,4.6,0,0,0,0-4.09A3.4,3.4,0,0,0,175.7,176a4.1,4.1,0,0,0-3.85,0,3.49,3.49,0,0,0-1.34,1.38,4.43,4.43,0,0,0,0,4.09,3.59,3.59,0,0,0,1.34,1.39,4,4,0,0,0,3.85,0Z"/><path class="cls-6" d="M191.65,175a4.81,4.81,0,0,1,1.25,3.6V185h-2v-6.17a3.42,3.42,0,0,0-.78-2.44,2.91,2.91,0,0,0-2.23-.82,3.46,3.46,0,0,0-2.58,1,3.72,3.72,0,0,0-.94,2.74V185h-2V173.87h1.93v1.68a4,4,0,0,1,1.65-1.32,5.75,5.75,0,0,1,2.36-.47A4.58,4.58,0,0,1,191.65,175Z"/><path class="cls-6" d="M197.21,184.76a5.74,5.74,0,0,1-2-.94l.84-1.59a6,6,0,0,0,1.78.84,7.35,7.35,0,0,0,2.12.31c1.77,0,2.65-.5,2.65-1.51a1,1,0,0,0-.36-.8,2.38,2.38,0,0,0-.89-.43c-.36-.09-.87-.19-1.52-.3a15.3,15.3,0,0,1-2.2-.48,3.42,3.42,0,0,1-1.46-.93,2.55,2.55,0,0,1-.61-1.83,2.86,2.86,0,0,1,1.26-2.42,5.64,5.64,0,0,1,3.38-.92,9.46,9.46,0,0,1,2.23.28,6,6,0,0,1,1.83.73l-.86,1.6a5.8,5.8,0,0,0-3.22-.88,3.72,3.72,0,0,0-2,.42,1.26,1.26,0,0,0-.67,1.11,1.06,1.06,0,0,0,.37.86,2.36,2.36,0,0,0,.94.46c.37.1.89.21,1.56.34a17.49,17.49,0,0,1,2.18.49,3.29,3.29,0,0,1,1.42.9,2.48,2.48,0,0,1,.58,1.76,2.77,2.77,0,0,1-1.29,2.4,6.05,6.05,0,0,1-3.52.9A9.48,9.48,0,0,1,197.21,184.76Z"/></g></g></g></g></g></svg>