<svg xmlns="http://www.w3.org/2000/svg" viewBox="0 0 218 218"><defs><style>.cls-1{fill:#fff;}.cls-2,.cls-5,.cls-6{fill:none;}.cls-2,.cls-5,.cls-6,.cls-7{stroke:#2d677a;}.cls-2{stroke-width:4px;}.cls-3{isolation:isolate;}.cls-4,.cls-7{fill:#2d677a;}.cls-6,.cls-7{stroke-miterlimit:10;stroke-width:2px;}</style></defs><title>charge pooling</title><g id="Layer_2" data-name="Layer 2"><g id="Layer_1-2" data-name="Layer 1"><g id="Layer_2-2" data-name="Layer 2"><g id="Layer_1-2-2" data-name="Layer 1-2"><rect class="cls-1" width="218" height="218" rx="33"/><rect class="cls-2" x="2" y="2" width="214" height="214" rx="31"/><g class="cls-3"><g class="cls-3"><path class="cls-4" d="M30.8,184.19A7.19,7.19,0,0,1,28,181.5a7.84,7.84,0,0,1,0-7.7,7.15,7.15,0,0,1,2.79-2.69,8.71,8.71,0,0,1,7.14-.4,6.43,6.43,0,0,1,2.43,1.71L39,173.74A5.5,5.5,0,0,0,34.88,172a6,6,0,0,0-3,.74,5.36,5.36,0,0,0-2.07,2,6,6,0,0,0,0,5.78,5.36,5.36,0,0,0,2.07,2,6,6,0,0,0,3,.74A5.51,5.51,0,0,0,39,181.54l1.36,1.32a6.53,6.53,0,0,1-2.44,1.72,8.31,8.31,0,0,1-3.16.59A8.12,8.12,0,0,1,30.8,184.19Z"/><path class="cls-4" d="M52.41,175a4.85,4.85,0,0,1,1.25,3.6V185h-2v-6.17a3.42,3.42,0,0,0-.78-2.44,2.89,2.89,0,0,0-2.22-.82,3.48,3.48,0,0,0-2.59,1,3.72,3.72,0,0,0-.94,2.74V185h-2V169.42h2v6a4.05,4.05,0,0,1,1.65-1.24,5.59,5.59,0,0,1,2.28-.45A4.61,4.61,0,0,1,52.41,175Z"/><path class="cls-4" d="M65,174.9a4.37,4.37,0,0,1,1.22,3.38V185H64.3v-1.47a3.19,3.19,0,0,1-1.43,1.19,5.6,5.6,0,0,1-2.22.41,4.58,4.58,0,0,1-3-.91,2.89,2.89,0,0,1-1.13-2.37,2.92,2.92,0,0,1,1.07-2.36,5.27,5.27,0,0,1,3.41-.9H64.2v-.39a2.56,2.56,0,0,0-.76-2,3.17,3.17,0,0,0-2.22-.69,6.16,6.16,0,0,0-1.94.32,4.86,4.86,0,0,0-1.59.88l-.84-1.52a6.18,6.18,0,0,1,2.06-1.06,8.76,8.76,0,0,1,2.54-.37A5,5,0,0,1,65,174.9Zm-2,8.16a3,3,0,0,0,1.22-1.46V180H61.09c-1.71,0-2.56.58-2.56,1.73a1.56,1.56,0,0,0,.65,1.32,3,3,0,0,0,1.81.48A3.75,3.75,0,0,0,63,183.06Z"/></g><g class="cls-3"><path class="cls-4" d="M73.44,174.27a5.57,5.57,0,0,1,2.5-.51v2a3.11,3.11,0,0,0-.47,0,3.38,3.38,0,0,0-2.57,1,3.89,3.89,0,0,0-.93,2.79V185H70V173.87h1.93v1.87A3.48,3.48,0,0,1,73.44,174.27Z"/></g><g class="cls-3"><path class="cls-4" d="M89,173.87v9.62a5.73,5.73,0,0,1-1.45,4.31,6,6,0,0,1-4.33,1.4,10.22,10.22,0,0,1-3-.43,6,6,0,0,1-2.31-1.23l1-1.55a5.7,5.7,0,0,0,1.92,1.06,7.26,7.26,0,0,0,2.36.39,4,4,0,0,0,2.89-.93,3.79,3.79,0,0,0,.93-2.81v-.88a4.49,4.49,0,0,1-1.75,1.29,6,6,0,0,1-2.26.43,6.16,6.16,0,0,1-2.89-.68,5.12,5.12,0,0,1-2-1.92,5.67,5.67,0,0,1,0-5.6,4.93,4.93,0,0,1,2-1.9,6.16,6.16,0,0,1,2.89-.68,5.86,5.86,0,0,1,2.34.47,4.45,4.45,0,0,1,1.78,1.36v-1.72Zm-3.83,8.44A3.45,3.45,0,0,0,86.49,181a3.59,3.59,0,0,0,.49-1.88,3.37,3.37,0,0,0-1.07-2.61,4.31,4.31,0,0,0-5.52,0,3.4,3.4,0,0,0-1.07,2.61,3.59,3.59,0,0,0,.49,1.88,3.47,3.47,0,0,0,1.37,1.29,4.47,4.47,0,0,0,3.95,0Z"/><path class="cls-4" d="M102.82,180.11h-9a3.43,3.43,0,0,0,1.29,2.36,4.23,4.23,0,0,0,2.74.89A4.14,4.14,0,0,0,101,182l1.12,1.3a4.8,4.8,0,0,1-1.88,1.34,6.53,6.53,0,0,1-2.51.47,6.6,6.6,0,0,1-3.13-.73,5.14,5.14,0,0,1-2.11-2,6.17,6.17,0,0,1,0-5.86,5.11,5.11,0,0,1,2-2,5.72,5.72,0,0,1,2.87-.73,5.58,5.58,0,0,1,2.84.73,5,5,0,0,1,2,2,6.13,6.13,0,0,1,.7,3A5.25,5.25,0,0,1,102.82,180.11Zm-7.89-3.76a3.56,3.56,0,0,0-1.14,2.31h7.14a3.57,3.57,0,0,0-1.15-2.3,3.43,3.43,0,0,0-2.42-.89A3.48,3.48,0,0,0,94.93,176.35Z"/></g><g class="cls-3"><path class="cls-4" d="M121.82,171.67a5.12,5.12,0,0,1,0,7.51,6.8,6.8,0,0,1-4.49,1.37H113.7V185h-2.11V170.3h5.74A6.75,6.75,0,0,1,121.82,171.67Zm-1.51,6.2a3.37,3.37,0,0,0,0-4.89,4.74,4.74,0,0,0-3-.85H113.7v6.59h3.56A4.74,4.74,0,0,0,120.31,177.87Z"/></g><g class="cls-3"><path class="cls-4" d="M128,184.39a5.18,5.18,0,0,1-2.07-2,6.08,6.08,0,0,1,0-5.85,5.1,5.1,0,0,1,2.07-2,6.43,6.43,0,0,1,5.95,0,5.26,5.26,0,0,1,2.06,2,6.15,6.15,0,0,1,0,5.85,5.36,5.36,0,0,1-2.06,2,6.35,6.35,0,0,1-5.95,0Zm4.9-1.52a3.43,3.43,0,0,0,1.33-1.39,4.51,4.51,0,0,0,0-4.09A3.34,3.34,0,0,0,132.9,176a3.85,3.85,0,0,0-1.92-.48,3.8,3.8,0,0,0-1.92.48,3.45,3.45,0,0,0-1.35,1.38,4.51,4.51,0,0,0,0,4.09,3.54,3.54,0,0,0,1.35,1.39,3.71,3.71,0,0,0,1.92.49A3.76,3.76,0,0,0,132.9,182.87Z"/><path class="cls-4" d="M141.33,184.39a5.31,5.31,0,0,1-2.07-2,6.15,6.15,0,0,1,0-5.85,5.22,5.22,0,0,1,2.07-2,6.14,6.14,0,0,1,3-.73,6.05,6.05,0,0,1,3,.73,5.13,5.13,0,0,1,2.06,2,6.08,6.08,0,0,1,0,5.85,5.22,5.22,0,0,1-2.06,2,6,6,0,0,1-3,.74A6,6,0,0,1,141.33,184.39Zm4.9-1.52a3.45,3.45,0,0,0,1.34-1.39,4.6,4.6,0,0,0,0-4.09,3.36,3.36,0,0,0-1.34-1.38,3.8,3.8,0,0,0-1.92-.48,3.85,3.85,0,0,0-1.92.48,3.43,3.43,0,0,0-1.34,1.38,4.43,4.43,0,0,0,0,4.09,3.52,3.52,0,0,0,1.34,1.39,3.76,3.76,0,0,0,1.92.49A3.71,3.71,0,0,0,146.23,182.87Z"/><path class="cls-4" d="M152.88,169.42h2V185h-2Z"/><path class="cls-4" d="M158.77,171.35a1.23,1.23,0,0,1-.39-.92,1.28,1.28,0,0,1,.39-.94,1.33,1.33,0,0,1,1-.39,1.38,1.38,0,0,1,1,.37,1.21,1.21,0,0,1,.39.91,1.33,1.33,0,0,1-1.36,1.35A1.37,1.37,0,0,1,158.77,171.35Zm0,2.52h2V185h-2Z"/></g><g class="cls-3"><path class="cls-4" d="M173.92,175a4.84,4.84,0,0,1,1.24,3.6V185h-2v-6.17a3.42,3.42,0,0,0-.78-2.44,2.91,2.91,0,0,0-2.22-.82,3.46,3.46,0,0,0-2.59,1,3.72,3.72,0,0,0-.94,2.74V185h-2V173.87h1.93v1.68a4,4,0,0,1,1.65-1.32,5.75,5.75,0,0,1,2.36-.47A4.62,4.62,0,0,1,173.92,175Z"/></g><g class="cls-3"><path class="cls-4" d="M189.61,173.87v9.62a5.73,5.73,0,0,1-1.45,4.31,6,6,0,0,1-4.33,1.4,10.22,10.22,0,0,1-3-.43,6,6,0,0,1-2.31-1.23l1-1.55a5.7,5.7,0,0,0,1.92,1.06,7.26,7.26,0,0,0,2.36.39,4,4,0,0,0,2.89-.93,3.79,3.79,0,0,0,.93-2.81v-.88a4.49,4.49,0,0,1-1.75,1.29,6,6,0,0,1-2.26.43,6.16,6.16,0,0,1-2.89-.68,5.12,5.12,0,0,1-2-1.92,5.67,5.67,0,0,1,0-5.6,4.93,4.93,0,0,1,2-1.9,6.16,6.16,0,0,1,2.89-.68,5.86,5.86,0,0,1,2.34.47,4.38,4.38,0,0,1,1.78,1.36v-1.72Zm-3.83,8.44a3.45,3.45,0,0,0,1.36-1.29,3.59,3.59,0,0,0,.49-1.88,3.37,3.37,0,0,0-1.07-2.61,4.31,4.31,0,0,0-5.52,0,3.4,3.4,0,0,0-1.07,2.61,3.59,3.59,0,0,0,.49,1.88,3.47,3.47,0,0,0,1.37,1.29,4.47,4.47,0,0,0,3.95,0Z"/></g></g><g class="cls-3"><g class="cls-3"><path class="cls-5" d="M30.8,184.19A7.19,7.19,0,0,1,28,181.5a7.84,7.84,0,0,1,0-7.7,7.15,7.15,0,0,1,2.79-2.69,8.71,8.71,0,0,1,7.14-.4,6.43,6.43,0,0,1,2.43,1.71L39,173.74A5.5,5.5,0,0,0,34.88,172a6,6,0,0,0-3,.74,5.36,5.36,0,0,0-2.07,2,6,6,0,0,0,0,5.78,5.36,5.36,0,0,0,2.07,2,6,6,0,0,0,3,.74A5.51,5.51,0,0,0,39,181.54l1.36,1.32a6.53,6.53,0,0,1-2.44,1.72,8.31,8.31,0,0,1-3.16.59A8.12,8.12,0,0,1,30.8,184.19Z"/><path class="cls-5" d="M52.41,175a4.85,4.85,0,0,1,1.25,3.6V185h-2v-6.17a3.42,3.42,0,0,0-.78-2.44,2.89,2.89,0,0,0-2.22-.82,3.48,3.48,0,0,0-2.59,1,3.72,3.72,0,0,0-.94,2.74V185h-2V169.42h2v6a4.05,4.05,0,0,1,1.65-1.24,5.59,5.59,0,0,1,2.28-.45A4.61,4.61,0,0,1,52.41,175Z"/><path class="cls-5" d="M65,174.9a4.37,4.37,0,0,1,1.22,3.38V185H64.3v-1.47a3.19,3.19,0,0,1-1.43,1.19,5.6,5.6,0,0,1-2.22.41,4.58,4.58,0,0,1-3-.91,2.89,2.89,0,0,1-1.13-2.37,2.92,2.92,0,0,1,1.07-2.36,5.27,5.27,0,0,1,3.41-.9H64.2v-.39a2.56,2.56,0,0,0-.76-2,3.17,3.17,0,0,0-2.22-.69,6.16,6.16,0,0,0-1.94.32,4.86,4.86,0,0,0-1.59.88l-.84-1.52a6.18,6.18,0,0,1,2.06-1.06,8.76,8.76,0,0,1,2.54-.37A5,5,0,0,1,65,174.9Zm-2,8.16a3,3,0,0,0,1.22-1.46V180H61.09c-1.71,0-2.56.58-2.56,1.73a1.56,1.56,0,0,0,.65,1.32,3,3,0,0,0,1.81.48A3.75,3.75,0,0,0,63,183.06Z"/></g><g class="cls-3"><path class="cls-5" d="M73.44,174.27a5.57,5.57,0,0,1,2.5-.51v2a3.11,3.11,0,0,0-.47,0,3.38,3.38,0,0,0-2.57,1,3.89,3.89,0,0,0-.93,2.79V185H70V173.87h1.93v1.87A3.48,3.48,0,0,1,73.44,174.27Z"/></g><g class="cls-3"><path class="cls-5" d="M89,173.87v9.62a5.73,5.73,0,0,1-1.45,4.31,6,6,0,0,1-4.33,1.4,10.22,10.22,0,0,1-3-.43,6,6,0,0,1-2.31-1.23l1-1.55a5.7,5.7,0,0,0,1.92,1.06,7.26,7.26,0,0,0,2.36.39,4,4,0,0,0,2.89-.93,3.79,3.79,0,0,0,.93-2.81v-.88a4.49,4.49,0,0,1-1.75,1.29,6,6,0,0,1-2.26.43,6.16,6.16,0,0,1-2.89-.68,5.12,5.12,0,0,1-2-1.92,5.67,5.67,0,0,1,0-5.6,4.93,4.93,0,0,1,2-1.9,6.16,6.16,0,0,1,2.89-.68,5.86,5.86,0,0,1,2.34.47,4.45,4.45,0,0,1,1.78,1.36v-1.72Zm-3.83,8.44A3.45,3.45,0,0,0,86.49,181a3.59,3.59,0,0,0,.49-1.88,3.37,3.37,0,0,0-1.07-2.61,4.31,4.31,0,0,0-5.52,0,3.4,3.4,0,0,0-1.07,2.61,3.59,3.59,0,0,0,.49,1.88,3.47,3.47,0,0,0,1.37,1.29,4.47,4.47,0,0,0,3.95,0Z"/><path class="cls-5" d="M102.82,180.11h-9a3.43,3.43,0,0,0,1.29,2.36,4.23,4.23,0,0,0,2.74.89A4.14,4.14,0,0,0,101,182l1.12,1.3a4.8,4.8,0,0,1-1.88,1.34,6.53,6.53,0,0,1-2.51.47,6.6,6.6,0,0,1-3.13-.73,5.14,5.14,0,0,1-2.11-2,6.17,6.17,0,0,1,0-5.86,5.11,5.11,0,0,1,2-2,5.72,5.72,0,0,1,2.87-.73,5.58,5.58,0,0,1,2.84.73,5,5,0,0,1,2,2,6.13,6.13,0,0,1,.7,3A5.25,5.25,0,0,1,102.82,180.11Zm-7.89-3.76a3.56,3.56,0,0,0-1.14,2.31h7.14a3.57,3.57,0,0,0-1.15-2.3,3.43,3.43,0,0,0-2.42-.89A3.48,3.48,0,0,0,94.93,176.35Z"/></g><g class="cls-3"><path class="cls-5" d="M121.82,171.67a5.12,5.12,0,0,1,0,7.51,6.8,6.8,0,0,1-4.49,1.37H113.7V185h-2.11V170.3h5.74A6.75,6.75,0,0,1,121.82,171.67Zm-1.51,6.2a3.37,3.37,0,0,0,0-4.89,4.74,4.74,0,0,0-3-.85H113.7v6.59h3.56A4.74,4.74,0,0,0,120.31,177.87Z"/></g><g class="cls-3"><path class="cls-5" d="M128,184.39a5.18,5.18,0,0,1-2.07-2,6.08,6.08,0,0,1,0-5.85,5.1,5.1,0,0,1,2.07-2,6.43,6.43,0,0,1,5.95,0,5.26,5.26,0,0,1,2.06,2,6.15,6.15,0,0,1,0,5.85,5.36,5.36,0,0,1-2.06,2,6.35,6.35,0,0,1-5.95,0Zm4.9-1.52a3.43,3.43,0,0,0,1.33-1.39,4.51,4.51,0,0,0,0-4.09A3.34,3.34,0,0,0,132.9,176a3.85,3.85,0,0,0-1.92-.48,3.8,3.8,0,0,0-1.92.48,3.45,3.45,0,0,0-1.35,1.38,4.51,4.51,0,0,0,0,4.09,3.54,3.54,0,0,0,1.35,1.39,3.71,3.71,0,0,0,1.92.49A3.76,3.76,0,0,0,132.9,182.87Z"/><path class="cls-5" d="M141.33,184.39a5.31,5.31,0,0,1-2.07-2,6.15,6.15,0,0,1,0-5.85,5.22,5.22,0,0,1,2.07-2,6.14,6.14,0,0,1,3-.73,6.05,6.05,0,0,1,3,.73,5.13,5.13,0,0,1,2.06,2,6.08,6.08,0,0,1,0,5.85,5.22,5.22,0,0,1-2.06,2,6,6,0,0,1-3,.74A6,6,0,0,1,141.33,184.39Zm4.9-1.52a3.45,3.45,0,0,0,1.34-1.39,4.6,4.6,0,0,0,0-4.09,3.36,3.36,0,0,0-1.34-1.38,3.8,3.8,0,0,0-1.92-.48,3.85,3.85,0,0,0-1.92.48,3.43,3.43,0,0,0-1.34,1.38,4.43,4.43,0,0,0,0,4.09,3.52,3.52,0,0,0,1.34,1.39,3.76,3.76,0,0,0,1.92.49A3.71,3.71,0,0,0,146.23,182.87Z"/><path class="cls-5" d="M152.88,169.42h2V185h-2Z"/><path class="cls-5" d="M158.77,171.35a1.23,1.23,0,0,1-.39-.92,1.28,1.28,0,0,1,.39-.94,1.33,1.33,0,0,1,1-.39,1.38,1.38,0,0,1,1,.37,1.21,1.21,0,0,1,.39.91,1.33,1.33,0,0,1-1.36,1.35A1.37,1.37,0,0,1,158.77,171.35Zm0,2.52h2V185h-2Z"/></g><g class="cls-3"><path class="cls-5" d="M173.92,175a4.84,4.84,0,0,1,1.24,3.6V185h-2v-6.17a3.42,3.42,0,0,0-.78-2.44,2.91,2.91,0,0,0-2.22-.82,3.46,3.46,0,0,0-2.59,1,3.72,3.72,0,0,0-.94,2.74V185h-2V173.87h1.93v1.68a4,4,0,0,1,1.65-1.32,5.75,5.75,0,0,1,2.36-.47A4.62,4.62,0,0,1,173.92,175Z"/></g><g class="cls-3"><path class="cls-5" d="M189.61,173.87v9.62a5.73,5.73,0,0,1-1.45,4.31,6,6,0,0,1-4.33,1.4,10.22,10.22,0,0,1-3-.43,6,6,0,0,1-2.31-1.23l1-1.55a5.7,5.7,0,0,0,1.92,1.06,7.26,7.26,0,0,0,2.36.39,4,4,0,0,0,2.89-.93,3.79,3.79,0,0,0,.93-2.81v-.88a4.49,4.49,0,0,1-1.75,1.29,6,6,0,0,1-2.26.43,6.16,6.16,0,0,1-2.89-.68,5.12,5.12,0,0,1-2-1.92,5.67,5.67,0,0,1,0-5.6,4.93,4.93,0,0,1,2-1.9,6.16,6.16,0,0,1,2.89-.68,5.86,5.86,0,0,1,2.34.47,4.38,4.38,0,0,1,1.78,1.36v-1.72Zm-3.83,8.44a3.45,3.45,0,0,0,1.36-1.29,3.59,3.59,0,0,0,.49-1.88,3.37,3.37,0,0,0-1.07-2.61,4.31,4.31,0,0,0-5.52,0,3.4,3.4,0,0,0-1.07,2.61,3.59,3.59,0,0,0,.49,1.88,3.47,3.47,0,0,0,1.37,1.29,4.47,4.47,0,0,0,3.95,0Z"/></g></g><ellipse class="cls-6" cx="70.39" cy="95.38" rx="15.39" ry="15.48"/><ellipse class="cls-7" cx="70.39" cy="95.37" rx="7.95" ry="8"/><ellipse class="cls-6" cx="147.21" cy="61.48" rx="15.39" ry="15.48"/><ellipse class="cls-7" cx="147.21" cy="61.48" rx="7.95" ry="8"/><ellipse class="cls-6" cx="147.21" cy="129.28" rx="15.39" ry="15.48"/><ellipse class="cls-7" cx="147.21" cy="129.28" rx="7.95" ry="8"/><path class="cls-6" d="M133.34,129.28h-21.5l-8.34-33.9h-.68l8.34-33.91h21.5"/><line class="cls-6" x1="102.82" y1="95.38" x2="85.78" y2="95.38"/></g></g></g></g></svg>