<svg xmlns="http://www.w3.org/2000/svg" xmlns:xlink="http://www.w3.org/1999/xlink" width="1058" height="339" viewBox="0 0 1058 339">
  <defs>
    <clipPath id="clip-path">
      <rect id="Rectangle_20" data-name="Rectangle 20" width="1058" height="339" transform="translate(0.515 1698.61)" fill="#e9e9e9"/>
    </clipPath>
  </defs>
  <g id="Mask_Group_3" data-name="Mask Group 3" transform="translate(-0.515 -1698.61)" clip-path="url(#clip-path)">
    <g id="Layer_2" data-name="Layer 2" transform="translate(294.973 1698.9)">
      <g id="Background_Complete" data-name="Background Complete" transform="translate(19.183 8.323)">
        <path id="Path_51" data-name="Path 51" d="M800.26,156.321a13.531,13.531,0,0,1,2.376,8.571,24.34,24.34,0,0,1-2.212,8.863c-2.314,5.3-6.662,9.608-10.826,12.651-2.382-6-.915-13.568,0-17.348,1.488-6,7.058-15.625,10.635-12.771" transform="translate(-373.236 -56.347)" fill="#ebebeb"/>
        <path id="Path_52" data-name="Path 52" d="M793.055,212.96c.54-3.5,2.533-6.366,5.222-7.508a8.6,8.6,0,0,1,8.082.857,5.193,5.193,0,0,1,2.56,3.428,4.886,4.886,0,0,1-1.249,4,6.171,6.171,0,0,1-3.3,1.714c-4.1.857-8.116.789-11.318-2.469" transform="translate(-375.369 -71.467)" fill="#ebebeb"/>
        <path id="Path_53" data-name="Path 53" d="M774.282,229.964a7.346,7.346,0,0,1,.505-1.071l1.461-2.854a34.677,34.677,0,0,1,5.761-8.571,15.6,15.6,0,0,1,8.075-4.577,9.108,9.108,0,0,1,2.73-.094,3.422,3.422,0,0,1,.73.129c.164.026.253.069.253.086a14.175,14.175,0,0,0-3.659.18,16.239,16.239,0,0,0-7.9,4.646,35.854,35.854,0,0,0-5.775,8.374c-.648,1.174-1.174,2.134-1.55,2.777A7.044,7.044,0,0,1,774.282,229.964Z" transform="translate(-366.938 -73.909)" fill="#e0e0e0"/>
        <path id="Path_54" data-name="Path 54" d="M789.991,167.88a3.783,3.783,0,0,1-.116.523c-.109.377-.239.857-.4,1.466-.355,1.269-.887,3.1-1.556,5.357-1.365,4.508-3.263,10.705-5.509,17.485s-4.4,12.857-6,17.237c-.8,2.186-1.461,3.951-1.925,5.143-.225.574-.41,1.029-.546,1.389a3.148,3.148,0,0,1-.212.471,3.043,3.043,0,0,1,.143-.506c.13-.369.287-.857.491-1.423.444-1.286,1.065-3.051,1.822-5.22,1.543-4.406,3.652-10.5,5.9-17.279s4.2-12.951,5.6-17.425c.683-2.2,1.256-4,1.659-5.306.191-.591.341-1.071.464-1.44A2.393,2.393,0,0,1,789.991,167.88Z" transform="translate(-366.687 -60.08)" fill="#e0e0e0"/>
        <path id="Path_55" data-name="Path 55" d="M771.316,206.5a27.642,27.642,0,0,0-4.191-20.571c-1-1.389-2.464-2.717-3.864-2.083s-1.863,2.846-1.891,4.723c-.006,8.008,3.822,15.236,9.707,18.325" transform="translate(-361.139 -64.951)" fill="#ebebeb"/>
        <path id="Path_56" data-name="Path 56" d="M769.72,195.017a5.937,5.937,0,0,1,.683.857,10.712,10.712,0,0,1,.682,1.063,16.477,16.477,0,0,1,.846,1.483q.489.915.894,1.894.487,1.117.874,2.3a29.493,29.493,0,0,1,1.358,11.417q-.093,1.262-.307,2.5-.168,1.087-.437,2.143-.21.873-.491,1.714a11.73,11.73,0,0,1-.444,1.26,7.382,7.382,0,0,1-.451,1.029c-.075,0,.56-1.517,1.147-4.088q.241-1.048.389-2.126.2-1.227.273-2.477a30.249,30.249,0,0,0-1.338-11.228q-.367-1.161-.826-2.271-.387-.978-.853-1.9C770.573,196.3,769.665,195.077,769.72,195.017Z" transform="translate(-364.888 -68.447)" fill="#e0e0e0"/>
        <path id="Path_57" data-name="Path 57" d="M37.677,79.093s-6.28,2.571-.191,19.448S47.923,123.92,47.923,123.92s1.044,3.9-1.55,4.346-8.191-1.029-9.5,2.854c-1.365,4.028.881,8.031,5.556,11.7s14.69,12.188,15.591,12.968,1.734,2.571,0,3.257-14.512,1.569-13.8,9.188S59.33,183.344,60.859,184.21s1.9,1.714,1.734,2.82-4.492.857-8.116,1.329-7.775,1.766-7.079,6.1,9.024,13.86,29.953,17.691l9.789.977,5.727-10.088c11.2-22.525,10.8-36.65,8.615-40.122s-5.666-.36-8.28,2.828-5.29,7.457-6.062,6.917-1.072-1.431-.587-3.48,5.188-20.691,1.031-26.279-12.97,6.068-14.5,7.294-2.082-.771-1.973-2.109,1.413-16.465,2.2-23.314-.2-11.58-3.515-12.857c-3.195-1.277-5.932,5.057-7.877,7.251s-3.645-1.329-3.645-1.329a248.224,248.224,0,0,0-8.662-26.425C43.281,74.653,37.554,79.17,37.554,79.17" transform="translate(-34.829 -32.56)" fill="#ebebeb"/>
        <path id="Path_58" data-name="Path 58" d="M94.3,223.026C89.7,210.692,81.8,188.6,74.918,169.662s-13.093-36-17.652-48.41l-5.42-14.614-1.447-4-.375-1.037-.123-.36s.055.111.15.343l.4,1.02,1.522,3.951c1.317,3.428,3.2,8.417,5.5,14.571,4.614,12.334,10.874,29.442,17.748,48.367S89.97,210.529,94.53,222.9" transform="translate(-41.598 -39.535)" fill="#e0e0e0"/>
        <path id="Path_59" data-name="Path 59" d="M52.689,158.066a2.743,2.743,0,0,1,.683.283c.423.2,1.038.514,1.788.909,1.509.789,3.563,1.954,5.809,3.291l5.748,3.428,1.747,1.029a2.986,2.986,0,0,1,.628.411,2.884,2.884,0,0,1-.683-.274c-.43-.206-1.038-.514-1.788-.926-1.5-.814-3.543-2.006-5.789-3.343l-5.768-3.428c-.683-.411-1.276-.746-1.747-1.02a3.079,3.079,0,0,1-.628-.36Z" transform="translate(-42.85 -57.055)" fill="#e0e0e0"/>
        <path id="Path_60" data-name="Path 60" d="M83.727,159.794c-.082,0,1.645-5.468,3.85-12.12s4.1-12,4.137-12-1.645,5.46-3.857,12.111S83.8,159.828,83.727,159.794Z" transform="translate(-56.789 -50.151)" fill="#e0e0e0"/>
        <path id="Path_61" data-name="Path 61" d="M100.966,205.151a4.18,4.18,0,0,1,.43-.737l1.236-1.928c1.038-1.629,2.471-3.883,3.98-6.446s2.812-4.937,3.748-6.668l1.106-2.04a3.37,3.37,0,0,1,.437-.729,5.37,5.37,0,0,1-.334.806c-.239.506-.587,1.234-1.031,2.117-.887,1.766-2.164,4.174-3.679,6.745s-2.976,4.8-4.1,6.386c-.546.8-.99,1.431-1.311,1.851a3.91,3.91,0,0,1-.485.643Z" transform="translate(-64.533 -65.853)" fill="#e0e0e0"/>
        <path id="Path_62" data-name="Path 62" d="M70.408,208.31a2.187,2.187,0,0,1,.683.051l1.809.291c1.529.257,3.631.643,5.946,1.089s4.423.857,5.939,1.209l1.788.4a2.714,2.714,0,0,1,.683.206,2.187,2.187,0,0,1-.683-.051l-1.809-.291c-1.522-.257-3.632-.643-5.946-1.089s-4.417-.857-5.939-1.209l-1.788-.4a2.715,2.715,0,0,1-.683-.206Z" transform="translate(-50.808 -72.543)" fill="#e0e0e0"/>
        <path id="Path_63" data-name="Path 63" d="M80.83,248.1a3.537,3.537,0,0,1,.853.077l2.321.36c1.952.317,4.649.789,7.632,1.329s5.666,1.046,7.618,1.431l2.3.48a3.954,3.954,0,0,1,.84.223,3.052,3.052,0,0,1-.853-.077l-2.321-.36c-1.952-.317-4.655-.78-7.632-1.32s-5.666-1.046-7.618-1.44l-2.3-.471a4.052,4.052,0,0,1-.84-.231Z" transform="translate(-55.489 -84.812)" fill="#e0e0e0"/>
        <path id="Path_64" data-name="Path 64" d="M119.082,242.651a5.929,5.929,0,0,1,.519-.951l1.495-2.511c1.263-2.126,3-5.066,4.84-8.383s3.454-6.368,4.608-8.571l1.365-2.631a8.251,8.251,0,0,1,.526-.943,6.238,6.238,0,0,1-.423,1.02c-.294.651-.73,1.569-1.29,2.7-1.106,2.263-2.683,5.34-4.533,8.665s-3.611,6.24-4.922,8.323c-.683,1.046-1.195,1.877-1.57,2.443a6.263,6.263,0,0,1-.614.84Z" transform="translate(-72.669 -75.736)" fill="#e0e0e0"/>
        <path id="Path_65" data-name="Path 65" d="M386.74,159.979c-17.489-11.048-24.069-36.256-26.117-59.621-.341-3.9-1.154-7.928-.075-11.605s4.239-6.617,7.195-5.486c2.451.943,3.836,4.114,5.461,6.651a19.073,19.073,0,0,0,8.253,7.38c2.116.926,4.642,1.269,6.43-.437,2.451-2.323,2.232-7.011,1.768-10.868q-1.338-10.774-2.608-21.556a45.553,45.553,0,0,1-.4-11.631c.532-3.831,2.253-7.628,5.058-9.188a5.422,5.422,0,0,1,7.72,3.566,44.005,44.005,0,0,1,.642,4.791c.266,1.586,1.072,3.257,2.335,3.48s2.382-1.089,3.167-2.383c2.73-4.474,4.3-9.883,5.741-15.24s2.8-10.825,5.188-15.6,5.987-8.863,10.348-9.951a9.608,9.608,0,0,1,11.188,6.668c1.734,5.22-.15,11.22-2.389,16.131a87.441,87.441,0,0,1-12.287,19.714,7.66,7.66,0,0,0-2.048,3.66,5.1,5.1,0,0,0,3.986,5.374c2.4.549,4.853-.206,7.29-.283s5.188.771,6.423,3.428c1.713,3.711-.437,8.331-2.73,11.5a63.745,63.745,0,0,1-15.946,15.771c-2.143,1.449-4.416,2.794-6.014,5.143s-2.294,6-.881,8.511,4.348,2.88,6.649,1.9,4.239-2.983,6.376-4.466c3.993-2.768,9.488-3.428,12.724.7,2.123,2.691,2.765,6.857,2.28,10.611a32.564,32.564,0,0,1-3.563,10.388c-5.618,11.2-13.366,20.8-22.676,26.853s-18.253,8.845-28.506,6.137" transform="translate(-180.876 -12.032)" fill="#f5f5f5"/>
        <path id="Path_66" data-name="Path 66" d="M414.161,145.635q2.438-19.835,6.669-39.222l2.164-10.174c.717-3.334,1.427-6.643,2.28-9.823q2.473-9.154,5.741-17.922c2.048-5.6,4.144-10.808,6.144-15.66s3.939-9.334,5.836-13.32a144.117,144.117,0,0,1,10.089-18c1.317-1.988,2.382-3.5,3.113-4.508l.812-1.063a3.485,3.485,0,0,1,.294-.369,2.211,2.211,0,0,1-.253.42l-.8,1.183c-.683,1.046-1.734,2.571-3.024,4.594a153.412,153.412,0,0,0-9.871,18.008c-1.877,3.986-3.782,8.468-5.768,13.328s-4.055,10.08-6.082,15.668q-3.236,8.73-5.686,17.871c-.894,3.163-1.577,6.437-2.3,9.788L421.362,106.6q-4.209,19.313-6.676,39.127" transform="translate(-205.197 -13.125)" fill="#e0e0e0"/>
        <path id="Path_67" data-name="Path 67" d="M426.941,99.351a10.776,10.776,0,0,1-.485-1.594c-.28-1.037-.683-2.571-1.092-4.44-.874-3.763-1.946-9.017-3.106-14.811s-2.294-11.014-3.208-14.751c-.457-1.869-.84-3.377-1.113-4.414a9.563,9.563,0,0,1-.369-1.646,8.358,8.358,0,0,1,.573,1.551c.341,1.011.785,2.494,1.29,4.354,1.024,3.711,2.212,8.931,3.379,14.734s2.15,10.894,2.963,14.88c.369,1.783.683,3.291.922,4.491a9.223,9.223,0,0,1,.246,1.646Z" transform="translate(-206.728 -26.11)" fill="#e0e0e0"/>
        <path id="Path_68" data-name="Path 68" d="M473.04,94.175a7.869,7.869,0,0,1-1.55.523c-1,.291-2.457.711-4.232,1.3-3.563,1.149-8.444,2.957-13.755,5.237s-10.048,4.628-13.434,6.446c-1.7.857-3.058,1.654-4,2.177a7.963,7.963,0,0,1-1.488.763,8.111,8.111,0,0,1,1.365-1.011c.915-.609,2.253-1.449,3.932-2.4a134.317,134.317,0,0,1,13.413-6.66A121.58,121.58,0,0,1,467.136,95.5c1.8-.531,3.263-.857,4.28-1.089a6.462,6.462,0,0,1,1.625-.24Z" transform="translate(-214.369 -37.357)" fill="#e0e0e0"/>
        <path id="Path_69" data-name="Path 69" d="M392.682,175.508a3.326,3.326,0,0,1-.341-.557l-.881-1.714c-.764-1.457-1.816-3.6-3.1-6.274-2.56-5.34-5.911-12.857-9.522-21.205s-6.908-15.9-9.379-21.3c-1.2-2.623-2.2-4.783-2.935-6.386-.321-.694-.58-1.269-.792-1.714a3.287,3.287,0,0,1-.246-.634,4.83,4.83,0,0,1,.341.557l.881,1.714c.765,1.457,1.823,3.6,3.1,6.266,2.567,5.34,5.918,12.857,9.557,21.214s6.9,15.9,9.372,21.3l2.935,6.386.8,1.714A2.807,2.807,0,0,1,392.682,175.508Z" transform="translate(-183.337 -44.001)" fill="#e0e0e0"/>
        <path id="Path_70" data-name="Path 70" d="M464.907,157.644a4.507,4.507,0,0,1-.485.369l-1.454.917-5.359,3.308c-4.526,2.794-10.744,6.745-17.6,11.143s-13.12,8.263-17.693,10.937c-2.287,1.346-4.143,2.4-5.461,3.1l-1.495.8a1.782,1.782,0,0,1-.539.231,2.26,2.26,0,0,1,.491-.369l1.454-.917,5.359-3.308c4.526-2.794,10.737-6.745,17.6-11.143s13.113-8.263,17.686-10.937c2.287-1.346,4.143-2.4,5.461-3.1l1.5-.8A1.789,1.789,0,0,1,464.907,157.644Z" transform="translate(-205.492 -56.925)" fill="#e0e0e0"/>
        <path id="Path_71" data-name="Path 71" d="M637.71,65.356c0-13.98-11.7-22.842-23.632-15.831a15.539,15.539,0,0,0-6.273,7.551c-3,7.3-1.679,15.642,1.044,22.559l9.284,29.553a3.771,3.771,0,0,0,7.454,0l9.092-29.742C637.847,70.4,637.71,65.356,637.71,65.356ZM626.488,77.528c-8.021,5.854-16.144-4.971-11.748-15.651a7.864,7.864,0,0,1,2.546-3.428c8.021-5.854,16.151,4.971,11.748,15.651A7.865,7.865,0,0,1,626.488,77.528Z" transform="translate(-291.398 -22.835)" fill="#f5f5f5"/>
      </g>
      <g id="Floor" transform="translate(4.905 335.561)">
        <path id="Path_72" data-name="Path 72" d="M466.26,485.349c0,.12-102.392.223-228.675.223s-228.675-.1-228.675-.223,102.392-.223,228.675-.223S466.26,485.221,466.26,485.349Z" transform="translate(-8.909 -485.127)" fill="#263238"/>
      </g>
      <g id="Device" transform="translate(88.491)">
        <path id="Path_73" data-name="Path 73" d="M271.049,335.784l-90.733-.531c-10.9-.085-19.7-11.225-19.673-24.916l.962-285.625C161.67,11.01,170.551-.043,181.463,0L272.2.523c10.906.085,19.7,11.23,19.673,24.925l-.962,285.625c-.064,13.7-8.946,24.753-19.857,24.711Z" transform="translate(-160.643 0)" fill="#455a64"/>
        <path id="Path_74" data-name="Path 74" d="M276.98,14.8l-17.591-.1a4.006,4.006,0,0,0-3.065,1.674,6.3,6.3,0,0,0-1.222,3.906v4c.046,3.03-1.874,5.532-4.287,5.588l-34.288-.206a4.024,4.024,0,0,1-3.058-1.707,6.324,6.324,0,0,1-1.2-3.925v-4c.061-3.028-1.841-5.547-4.253-5.631h-6.191L186.438,14.3c-7.648-.047-13.878,7.7-13.912,17.305L171.585,310.4c-.03,9.593,6.135,17.4,13.775,17.451l90.555.523c7.646.043,13.871-7.705,13.9-17.305l.942-278.786a19.9,19.9,0,0,0-4-12.33A12.629,12.629,0,0,0,276.98,14.8Z" transform="translate(-165.557 -4.408)" fill="#fafafa"/>
        <path id="Path_75" data-name="Path 75" d="M173.084,87.645h14.84l13.243,16.628-13.761,17.288-14.164-17.777Z" transform="translate(-166.231 -27.021)" fill="#ebebeb"/>
        <path id="Path_76" data-name="Path 76" d="M223.492,96.979l-7.434-9.334h16.731Z" transform="translate(-185.531 -27.021)" fill="#ebebeb"/>
        <path id="Path_77" data-name="Path 77" d="M241.361,104.866l13.031-16.354h45.53s6.969,39.085-20.478,64.172Z" transform="translate(-196.896 -27.288)" fill="#ebebeb"/>
        <path id="Path_78" data-name="Path 78" d="M219.873,119.7l-13.939,17.511,38.574,48.436,13.939-18.094Z" transform="translate(-180.985 -36.904)" fill="#ebebeb"/>
        <path id="Path_79" data-name="Path 79" d="M172.787,149.487l8.731-11.383-8.567-10.757Z" transform="translate(-166.097 -39.261)" fill="#ebebeb"/>
        <path id="Path_80" data-name="Path 80" d="M187.186,152.6l-13.42,16.851v23.416l27.707,35.6,23.475-27.428Z" transform="translate(-166.537 -47.047)" fill="#ebebeb"/>
        <path id="Path_81" data-name="Path 81" d="M319.948,157.559S348.7,131.091,339.4,88.475H357.28l-.218,120.3Z" transform="translate(-232.192 -27.277)" fill="#ebebeb"/>
        <path id="Path_82" data-name="Path 82" d="M298.835,198.425l-13.9,18.231,42.629,53.518L340.6,252.826Z" transform="translate(-216.464 -61.175)" fill="#ebebeb"/>
        <path id="Path_83" data-name="Path 83" d="M256.575,231.993l-21.844,27.239,43.694,54.487,21.81-26.476Z" transform="translate(-193.918 -71.524)" fill="#ebebeb"/>
        <path id="Path_84" data-name="Path 84" d="M253.6,409.923,287,366.441l31.776,40.67Z" transform="translate(-202.395 -112.974)" fill="#ebebeb"/>
        <path id="Path_85" data-name="Path 85" d="M323.69,339.048,358.5,295.772c0,1.92-.3,89.757-.3,89.757Z" transform="translate(-233.872 -91.187)" fill="#ebebeb"/>
        <path id="Path_86" data-name="Path 86" d="M239.273,323.182l19.734,24.779L220.05,398.454l-18.007-27.119Z" transform="translate(-179.237 -99.638)" fill="#ebebeb"/>
        <path id="Path_87" data-name="Path 87" d="M172.836,344.02c1.864-.24,49.585-56.347,49.585-56.347l-49.585-64.515Z" transform="translate(-166.119 -68.8)" fill="#ebebeb"/>
        <path id="Path_88" data-name="Path 88" d="M171.585,410.67l11.488-12.78,15.912,23.6h-27.4v-9.025" transform="translate(-165.557 -122.67)" fill="#ebebeb"/>
        <path id="Path_89" data-name="Path 89" d="M195.791,59.643a32.272,32.272,0,0,1-3.413-3.728h0v-.326h0l.041-.051.082-.1.171-.2L193,54.86l.621-.72,1.072-1.2a4.961,4.961,0,0,1,1.051-1.02,6.188,6.188,0,0,1-.805,1.209L193.914,54.4l-.608.737-.328.386-.164.2-.082.1-.048.051h0v-.326h0a34.261,34.261,0,0,1,3.106,4.1Z" transform="translate(-174.896 -16.007)" fill="#263238"/>
        <path id="Path_90" data-name="Path 90" d="M368.647,53.218a.756.756,0,1,1-.737-.926.848.848,0,0,1,.737.926Z" transform="translate(-253.401 -16.122)" fill="#263238"/>
        <path id="Path_91" data-name="Path 91" d="M368.429,57.178a1.11,1.11,0,0,1,0,1.322.643.643,0,0,1-1.053,0,1.11,1.11,0,0,1,0-1.322A.647.647,0,0,1,368.429,57.178Z" transform="translate(-253.395 -17.545)" fill="#263238"/>
        <path id="Path_92" data-name="Path 92" d="M368.647,62.462a.756.756,0,1,1-.737-.926.848.848,0,0,1,.737.926Z" transform="translate(-253.401 -18.972)" fill="#263238"/>
        <rect id="Rectangle_21" data-name="Rectangle 21" width="31.933" height="3.343" transform="translate(51.326 40.893)" fill="#263238"/>
        <path id="Path_93" data-name="Path 93" d="M276.688,136.769c0-15.617-13.072-25.516-26.4-17.682a17.3,17.3,0,0,0-7.01,8.434c-3.358,8.151-1.877,17.468,1.167,25.2l10.369,33.008a4.214,4.214,0,0,0,8.328-.051l10.164-33.17C276.831,142.4,276.688,136.769,276.688,136.769Zm-12.519,13.594c-8.963,6.54-18.041-5.554-13.127-17.485a8.9,8.9,0,0,1,2.84-3.788c8.963-6.54,18.041,5.554,13.127,17.485a8.9,8.9,0,0,1-2.84,3.788Z" transform="translate(-196.897 -35.869)" fill="#e8505b"/>
      </g>
      <g id="Car" transform="translate(37.338 126.443)">
        <rect id="Rectangle_22" data-name="Rectangle 22" width="378.727" height="69.778" transform="translate(23.733 93.656)" fill="#e8505b"/>
        <g id="Group_4" data-name="Group 4" transform="translate(23.733 93.656)" opacity="0.5">
          <rect id="Rectangle_23" data-name="Rectangle 23" width="378.727" height="69.778"/>
        </g>
        <path id="Path_193" data-name="Path 193" d="M37.193,0C57.385-.341,73.474,19.89,73.129,45.192S56.134,91.286,35.942,91.631-.34,71.745.005,46.443,17,.35,37.193,0Z" transform="translate(35.06 119.707) rotate(-3.85)" fill="#263238"/>
        <path id="Path_94" data-name="Path 94" d="M136.972,417.283v.12c-.29,25.325,15.825,46.151,35.994,46.516s36.755-19.87,37.045-45.2v-.12Z" transform="translate(-98.857 -255.092)" fill="#263238"/>
        <path id="Path_95" data-name="Path 95" d="M156.713,403.6c-.21,17.779,11.1,32.405,25.259,32.666s25.806-13.941,26.013-31.72-11.105-32.4-25.265-32.66S156.922,385.831,156.713,403.6Z" transform="translate(-107.724 -241.097)" fill="#fafafa"/>
        <path id="Path_96" data-name="Path 96" d="M182.723,371.867c-14.155-.258-25.8,13.939-26.008,31.713l51.271.926c.2-17.771-11.111-32.38-25.263-32.639Z" transform="translate(-107.726 -241.089)" fill="#e0e0e0"/>
        <path id="Path_97" data-name="Path 97" d="M174.9,409.386c-.124,10.83,6.769,19.735,15.394,19.89s15.717-8.5,15.839-19.331-6.771-19.734-15.4-19.887S175.028,398.558,174.9,409.386Z" transform="translate(-115.895 -246.698)" fill="#263238"/>
        <path id="Path_194" data-name="Path 194" d="M37.095,0C57.281-.295,73.4,19.98,73.106,45.288S56.2,91.354,36.015,91.652-.294,71.675,0,46.367,16.908.3,37.095,0Z" transform="translate(314.745 119.297) rotate(-3.32)" fill="#263238"/>
        <path id="Path_98" data-name="Path 98" d="M643.908,417.283v.12c-.29,25.325,15.825,46.151,35.994,46.516s36.755-19.87,37.045-45.2v-.12Z" transform="translate(-326.536 -255.092)" fill="#263238"/>
        <path id="Path_99" data-name="Path 99" d="M663.648,403.6c-.21,17.779,11.1,32.405,25.259,32.666s25.807-13.941,26.013-31.72-11.105-32.4-25.265-32.66S663.858,385.831,663.648,403.6Z" transform="translate(-335.403 -241.097)" fill="#fafafa"/>
        <path id="Path_100" data-name="Path 100" d="M689.658,371.867c-14.155-.258-25.8,13.939-26.007,31.713l51.271.926c.2-17.771-11.111-32.38-25.264-32.639Z" transform="translate(-335.405 -241.089)" fill="#e0e0e0"/>
        <path id="Path_101" data-name="Path 101" d="M681.84,409.386c-.124,10.83,6.769,19.735,15.394,19.89s15.717-8.5,15.839-19.331-6.771-19.734-15.4-19.887S681.967,398.56,681.84,409.386Z" transform="translate(-343.574 -246.698)" fill="#263238"/>
        <path id="Path_102" data-name="Path 102" d="M190.278,237.209s-53.776,4.98-73.722,10.594c-14.035,3.977-41.121,10.774-40.793,32.176l2.15,15.334s-10.055,5.768-10.055,20.468-2.451,37.516,21,38.425c3.864.154,11.208,0,11.208,0s-4.505-62.715,41.387-64.549c46.677-1.869,43.578,63.975,43.578,63.975H379.873s-8-64.138,42.254-64.241,42.609,64.661,42.609,64.661,18.485,2.006,27.093-17.5,6.362-33.428,6.362-33.428l-.287-12.334c-.112-4.184-2.778-7.55-6.109-7.714h0s3.358-31.053-1.8-36.427-33.393-37.79-33.393-37.79l1.365-1.063a4.4,4.4,0,0,0,1.452-3.836,3.892,3.892,0,0,0-2.135-3.295c-10.724-4.628-31.926-13.782-36.909-15.977a7.656,7.656,0,0,0-2.314-.609c-2.976-.291-11.4-.96-26.854-1.166-18.84-.249-93.613,0-93.613,0s-25.734,2.657-40.069,10.585C242.463,201.836,190.278,237.209,190.278,237.209Z" transform="translate(-67.785 -182.801)" fill="#e8505b"/>
        <g id="Group_5" data-name="Group 5" transform="translate(5.513 130.979)" opacity="0.4">
          <path id="Path_103" data-name="Path 103" d="M85.992,372.464c-1.952-.5-4.942-.549-6.43,1.114C78.456,374.812,78.2,376.8,78,378.644a26.993,26.993,0,0,0,.137,7.6,9.451,9.451,0,0,0,3.413,6.06,4.028,4.028,0,0,0,5.611-.857c1.27-1.714,1.413-4.286,1.365-6.583a66.729,66.729,0,0,0-.321-9.36,5.216,5.216,0,0,0-.683-1.886,2.034,2.034,0,0,0-1.556-1.174" transform="translate(-77.793 -372.159)"/>
        </g>
        <path id="Path_104" data-name="Path 104" d="M84.417,337.759c5.707,0,11.243-.394,16.942-.857a1.824,1.824,0,0,0,1.884-.811,3.072,3.072,0,0,0,.444-2.437c0-3.84-.123-8.2-2.444-10.705a8.056,8.056,0,0,0-5.222-2.229,27.33,27.33,0,0,0-13.755,1.714Z" transform="translate(-74.289 -225.247)" fill="#fafafa"/>
        <path id="Path_105" data-name="Path 105" d="M212.211,391.725a5.8,5.8,0,0,0-.048-.609c-.048-.4-.055-1.02-.1-1.8-.068-1.594-.171-3.926-.3-6.917s-.294-6.677-.635-10.928a106.543,106.543,0,0,0-2.048-14.254,74.7,74.7,0,0,0-5.461-16.079A48.562,48.562,0,0,0,193,326.259a53.476,53.476,0,0,0-34.677-13.071A48.848,48.848,0,0,0,123.9,326.8a59.168,59.168,0,0,0-11.181,14.314,74.9,74.9,0,0,0-6.539,15.428,76,76,0,0,0-2.765,14.031,73.831,73.831,0,0,0-.334,10.92,67.466,67.466,0,0,0,.683,6.857c.109.771.2,1.363.253,1.774s.075.609.075.609-.041-.206-.109-.6-.164-1-.287-1.766a61.955,61.955,0,0,1-.737-6.857,72.553,72.553,0,0,1,.273-10.963,76.682,76.682,0,0,1,2.73-14.108,75.321,75.321,0,0,1,6.539-15.557,59.261,59.261,0,0,1,11.222-14.434,49.025,49.025,0,0,1,34.629-13.714,53.491,53.491,0,0,1,34.861,13.191,48.757,48.757,0,0,1,10.669,15.025,74.833,74.833,0,0,1,5.461,16.182,106.2,106.2,0,0,1,1.966,14.314c.328,4.286.464,7.937.573,10.945s.184,5.323.239,6.917c0,.789.041,1.38.055,1.8S212.211,391.725,212.211,391.725Z" transform="translate(-83.541 -222.857)" fill="#fff"/>
        <path id="Path_106" data-name="Path 106" d="M303.728,356.428v-.514l-.041-1.526c0-1.346-.082-3.334-.15-5.923-.116-5.194-.287-12.805-.505-22.474s-.471-21.428-.765-34.885q-.1-5.057-.225-10.423a44.324,44.324,0,0,1,.191-5.443c.1-.909.2-1.834.307-2.76s.3-1.834.457-2.76a64.97,64.97,0,0,1,8.034-21.428h0L344.774,221.6l9.106-7.208a69.5,69.5,0,0,1,9.645-6.754,87.93,87.93,0,0,1,10.492-5.314c1.788-.789,3.625-1.44,5.461-2.126a49.591,49.591,0,0,1,5.6-1.714,102.8,102.8,0,0,1,21.748-3.429,162.5,162.5,0,0,1,21.052.094h.2l-.041.249c-3.236,18.145-6.28,35.245-9.072,50.93h0a63.055,63.055,0,0,0-4.062,10.937,36.764,36.764,0,0,0-1.365,11.323c.232,3.763.314,7.44.389,11.014s.109,7.046.164,10.405c.157,13.457.2,25.2.225,34.868s0,17.262,0,22.456v0c0-5.194-.061-12.788-.1-22.456s-.123-21.428-.3-34.859q-.1-5.04-.178-10.405c-.082-3.574-.171-7.243-.41-11a37.359,37.359,0,0,1,1.365-11.468,62.89,62.89,0,0,1,4.1-11.023v.06c2.778-15.685,5.816-32.793,9.031-50.938l.157.266a163.427,163.427,0,0,0-21.011-.077,103.251,103.251,0,0,0-21.687,3.428c-1.884.48-3.734,1.14-5.584,1.714a52.719,52.719,0,0,0-5.461,2.117,88.344,88.344,0,0,0-10.437,5.228,69.2,69.2,0,0,0-9.714,6.814l-9.12,7.2L311.21,248.611h.034A58.778,58.778,0,0,0,306.3,258.9a65.353,65.353,0,0,0-3.031,10.9c-1.536,7.345-.758,14.571-.751,21.308.266,13.457.5,25.2.683,34.876s.328,17.279.423,22.482c.048,2.571.082,4.577.1,5.923v2.04Z" transform="translate(-172.99 -186.489)" fill="#263238"/>
        <path id="Path_107" data-name="Path 107" d="M530.071,196.76h1.256l3.625-.111,13.441-.334,45.319-1.037h.089l.055.077,6.348,9.763,18.13,27.916,2.048,3.18a20.471,20.471,0,0,1,3.058,10.843,21.675,21.675,0,0,1-1.1,7l-2.048,6c-2.642,7.714-4.778,13.885-6.266,18.205-.744,2.126-1.324,3.788-1.72,4.937l-.457,1.277c-.1.291-.164.429-.164.429s.041-.154.13-.446.246-.737.423-1.294c.389-1.157.942-2.828,1.659-4.971,1.461-4.286,3.563-10.568,6.144-18.257,1.174-3.883,3.242-7.954,3.1-12.925a21.262,21.262,0,0,0-1.365-7.294,19.1,19.1,0,0,0-1.665-3.334l-2.048-3.171c-5.584-8.571-11.714-18-18.151-27.891l-6.335-9.694.136.077-45.312.857-13.447.206h-4.881Z" transform="translate(-275.41 -186.647)" fill="#263238"/>
        <path id="Path_108" data-name="Path 108" d="M473.041,302.281a2.134,2.134,0,0,0,.539-.1,3.385,3.385,0,0,0,1.44-.711,4.671,4.671,0,0,0,1.454-2.391,6.384,6.384,0,0,0,.191-1.886,5.7,5.7,0,0,0-.423-2.04,3.627,3.627,0,0,0-3.147-2.4H457.949c-1.814,0-3.338,1.714-3.543,3.977a6.081,6.081,0,0,0,.437,3.026,4.028,4.028,0,0,0,1.741,1.954,4.5,4.5,0,0,0,2.273.343H465.1l5.809.069h1.577a2.8,2.8,0,0,1,.553.043,2.141,2.141,0,0,1-.553,0l-1.577.043-5.809.069h-7.427a3.921,3.921,0,0,1-3.133-2.469,6.707,6.707,0,0,1-.485-3.283c.222-2.489,1.9-4.374,3.891-4.38H473.1a3.9,3.9,0,0,1,3.359,2.623,6.031,6.031,0,0,1,.43,2.186,6.773,6.773,0,0,1-.225,1.971,4.7,4.7,0,0,1-1.57,2.451,3.26,3.26,0,0,1-1.5.66A1.868,1.868,0,0,1,473.041,302.281Z" transform="translate(-241.255 -216.511)" fill="#263238"/>
        <path id="Path_109" data-name="Path 109" d="M656.348,302.281a2.133,2.133,0,0,0,.539-.1,3.385,3.385,0,0,0,1.44-.711,4.672,4.672,0,0,0,1.454-2.391,6.383,6.383,0,0,0,.191-1.886,5.7,5.7,0,0,0-.423-2.04,3.627,3.627,0,0,0-3.147-2.4H641.256c-1.814,0-3.338,1.714-3.543,3.977a6.081,6.081,0,0,0,.437,3.026,4.029,4.029,0,0,0,1.741,1.954,4.5,4.5,0,0,0,2.273.343h6.246l5.809.069H655.8a2.8,2.8,0,0,1,.553.043,2.139,2.139,0,0,1-.553,0l-1.577.043-5.809.069h-7.427a3.921,3.921,0,0,1-3.133-2.469,6.707,6.707,0,0,1-.485-3.283c.222-2.489,1.9-4.374,3.891-4.38H656.41a3.9,3.9,0,0,1,3.358,2.623,6.027,6.027,0,0,1,.43,2.186,6.762,6.762,0,0,1-.225,1.971,4.7,4.7,0,0,1-1.57,2.451,3.26,3.26,0,0,1-1.5.66A1.869,1.869,0,0,1,656.348,302.281Z" transform="translate(-323.584 -216.511)" fill="#263238"/>
        <path id="Path_110" data-name="Path 110" d="M810.048,276.888H789.843c-2.768,0-5.307,1.928-6.594,5.005h0a11.553,11.553,0,0,0-.225,8.134l7.925,22.594,20.226-.249S815.482,283.727,810.048,276.888Z" transform="translate(-388.735 -211.808)" fill="#fafafa"/>
        <path id="Path_111" data-name="Path 111" d="M323.195,248.066l104.255-2.409,67.852-1.569,22.376-16.217a4.456,4.456,0,0,0,1.667-2.918,5.258,5.258,0,0,0-.636-3.5l-13.932-22.979a7.341,7.341,0,0,0-6.1-3.831l-75.893-.78s-28.574-2.083-51.087,13.714C347.994,224.306,323.195,248.066,323.195,248.066Z" transform="translate(-182.497 -186.183)" fill="#263238"/>
        <path id="Path_112" data-name="Path 112" d="M355.684,197.334s5.222,2.991,1.823,5.768-56.22,44.57-56.22,44.57l-12.144-6.84C310.652,225.739,332.373,211.125,355.684,197.334Z" transform="translate(-167.203 -187.281)" fill="#455a64"/>
        <path id="Path_113" data-name="Path 113" d="M210.92,271.646s-.109.043-.328.1l-.962.257-3.707.969c-3.222.806-7.891,1.928-13.652,3.18a453.315,453.315,0,0,1-45.523,7.363c-4.471.489-8.833.857-13.052,1.234s-8.287.669-12.151,1.114a86,86,0,0,0-20.28,4.363,51.658,51.658,0,0,0-12.785,6.694c-1.454.96-2.485,1.9-3.222,2.469l-.833.669-.287.214a3.125,3.125,0,0,1,.266-.257l.812-.694a37.933,37.933,0,0,1,3.195-2.571,50.715,50.715,0,0,1,12.785-6.857,85.279,85.279,0,0,1,20.315-4.466c3.87-.454,7.946-.789,12.157-1.14s8.58-.754,13.045-1.243c17.857-1.937,33.933-4.808,45.517-7.225,5.8-1.209,10.464-2.288,13.7-3.043l3.713-.857.969-.223A2.346,2.346,0,0,1,210.92,271.646Z" transform="translate(-75.13 -210.192)" fill="#263238"/>
        <path id="Path_114" data-name="Path 114" d="M821.95,356.292c0,.12-6.949.223-15.516.223s-15.522-.1-15.522-.223,6.949-.223,15.522-.223S821.95,356.172,821.95,356.292Z" transform="translate(-392.561 -236.22)" fill="#263238"/>
        <path id="Path_115" data-name="Path 115" d="M473.643,388.485c0,.12-39.223.223-87.6.223s-87.606-.1-87.606-.223,39.216-.223,87.606-.223S473.643,388.357,473.643,388.485Z" transform="translate(-171.377 -246.145)" fill="#263238"/>
        <path id="Path_116" data-name="Path 116" d="M97.733,357.358c0,.12-5.55.223-12.389.223s-12.383-.1-12.383-.223,5.543-.223,12.383-.223S97.733,357.238,97.733,357.358Z" transform="translate(-70.11 -236.548)" fill="#263238"/>
        <path id="Path_117" data-name="Path 117" d="M769.945,219.181s-4.655,6.548-2.826,11.348,20.745,21.608,20.745,21.608l13.727,3.24Z" transform="translate(-381.684 -194.017)" fill="#455a64"/>
        <path id="Path_118" data-name="Path 118" d="M533.156,202.254l-3.085,41.853,55.237-1.98,22.26-16.242-14.41-23.631Z" transform="translate(-275.41 -188.798)" fill="#455a64"/>
        <path id="Path_119" data-name="Path 119" d="M346.962,246.2s33.325-30.222,46.472-36.222c12.69-5.8,19.3-7.251,31.223-7.714,11.393-.4,18.335,0,18.335,0l-8.819,42.607Z" transform="translate(-193.171 -188.745)" fill="#455a64"/>
        <path id="Path_120" data-name="Path 120" d="M338.089,259.758h0a7.805,7.805,0,0,1,2.976-6.386l7.659-5.4a12.323,12.323,0,0,1,7.147-2.348h0a11.915,11.915,0,0,1,4.546.909c3.264,1.419,5.486,5.23,5.577,9.565h0a12.222,12.222,0,0,1-2.35,7.752,7.713,7.713,0,0,1-6.08,3.244H343.912c-3.221-.009-5.826-3.293-5.823-7.337Z" transform="translate(-189.186 -202.169)" fill="#e8505b"/>
        <path id="Path_121" data-name="Path 121" d="M338.089,259.647a7.243,7.243,0,0,0,.089.934,8.658,8.658,0,0,0,.683,2.511,6.934,6.934,0,0,0,2.348,2.9,4.98,4.98,0,0,0,1.966.78c.724.1,1.529,0,2.355.051l11.68-.043a7.26,7.26,0,0,0,3.249-.669,9.635,9.635,0,0,0,4.84-6,13.193,13.193,0,0,0,.505-4.534,11.2,11.2,0,0,0-3.447-7.714,7.945,7.945,0,0,0-3.161-1.671,11.409,11.409,0,0,0-3.3-.489,11.919,11.919,0,0,0-5.993,1.611c-.881.489-1.686,1.114-2.485,1.654l-2.28,1.594-3.925,2.734a6.682,6.682,0,0,0-2.328,2.914,8.791,8.791,0,0,0-.683,2.511c-.068.609-.061.926-.082.926a5.684,5.684,0,0,1,0-.934,8.344,8.344,0,0,1,.628-2.571,6.921,6.921,0,0,1,2.369-3.043l3.9-2.786,2.266-1.62c.792-.549,1.6-1.183,2.5-1.714a12.229,12.229,0,0,1,6.144-1.714,11.644,11.644,0,0,1,3.413.489,8.327,8.327,0,0,1,3.29,1.714,11.711,11.711,0,0,1,3.6,8,13.645,13.645,0,0,1-.532,4.731,9.963,9.963,0,0,1-5.051,6.257,7.377,7.377,0,0,1-3.365.686l-11.68-.051a18,18,0,0,1-2.382-.086,5.131,5.131,0,0,1-2.048-.857,7.188,7.188,0,0,1-2.375-3.043,8.557,8.557,0,0,1-.621-2.571A6.987,6.987,0,0,1,338.089,259.647Z" transform="translate(-189.186 -202.058)" fill="#263238"/>
        <path id="Path_122" data-name="Path 122" d="M717.911,393.71v-.6c0-.394.048-.986.089-1.714s.109-1.714.15-2.828.068-2.409.109-3.866,0-3.068,0-4.843-.1-3.694-.294-5.743a91.567,91.567,0,0,0-2-13.834,72.105,72.105,0,0,0-2.171-7.671,56.548,56.548,0,0,0-3.3-7.791,49.9,49.9,0,0,0-10.676-13.988,47.259,47.259,0,0,0-15.3-9.471,51.648,51.648,0,0,0-18.2-3.043,48.444,48.444,0,0,0-18.157,3.317,45.476,45.476,0,0,0-8.068,4.208,46.835,46.835,0,0,0-7.017,5.751,68.78,68.78,0,0,0-10.813,13.92,59.79,59.79,0,0,0-3.591,7.577q-1.4,3.679-2.471,7.534a109.845,109.845,0,0,0-3.939,24.051c-.109,2.906-.1,5.143-.041,6.694.034.754.062,1.337.082,1.714a4.543,4.543,0,0,1,0,.6,4.736,4.736,0,0,0-.054-.591c-.055-.386-.061-.986-.116-1.714q-.135-3.353,0-6.711a108.329,108.329,0,0,1,3.843-24.145q1.073-3.871,2.478-7.577a58.279,58.279,0,0,1,3.6-7.645A69.1,69.1,0,0,1,632.9,331.269a47.8,47.8,0,0,1,7.065-5.811,45.984,45.984,0,0,1,8.13-4.226,48.714,48.714,0,0,1,18.267-3.343,51.921,51.921,0,0,1,18.3,3.068,47.422,47.422,0,0,1,15.4,9.565,51.56,51.56,0,0,1,6.034,6.643,46.315,46.315,0,0,1,4.689,7.474,56.049,56.049,0,0,1,3.3,7.851,72.95,72.95,0,0,1,2.171,7.714,91.22,91.22,0,0,1,1.925,13.851c.184,2.066.184,3.994.266,5.768s0,3.428,0,4.851-.1,2.743-.137,3.866-.136,2.066-.184,2.828-.1,1.329-.13,1.714A4.555,4.555,0,0,1,717.911,393.71Z" transform="translate(-312.237 -224.448)" fill="#fff"/>
        <path id="Path_123" data-name="Path 123" d="M452.808,272.261h-.621l-1.775.043-6.553.154c-5.522.129-13.161.386-21.6.669s-16.076.5-21.6.549h-8.328l1.775-.051,6.546-.146c5.529-.129,13.168-.386,21.6-.677s16.076-.489,21.6-.54h8.792C452.76,272.244,452.808,272.253,452.808,272.261Z" transform="translate(-213.267 -210.378)" fill="#fff"/>
        <path id="Path_124" data-name="Path 124" d="M476.442,290.79a80.336,80.336,0,0,1-11.959,0,80.352,80.352,0,0,1,11.959,0Z" transform="translate(-245.953 -216.016)" fill="#fff"/>
        <path id="Path_125" data-name="Path 125" d="M463.034,224.582c.034.12-7.386,4-16.581,8.674s-16.676,8.365-16.717,8.254,7.386-3.994,16.587-8.674S463,224.471,463.034,224.582Z" transform="translate(-230.347 -195.681)" fill="#fff"/>
        <path id="Path_126" data-name="Path 126" d="M437.015,228.82c.041.111-7.031,4.02-15.782,8.734s-15.891,8.434-15.932,8.323,7.031-4.028,15.789-8.734S436.981,228.709,437.015,228.82Z" transform="translate(-219.373 -196.988)" fill="#fff"/>
        <path id="Path_127" data-name="Path 127" d="M608.913,222.24c.041.12-7.386,3.994-16.581,8.674s-16.676,8.365-16.71,8.254,7.386-3.994,16.581-8.674S608.878,222.129,608.913,222.24Z" transform="translate(-295.868 -194.959)" fill="#fff"/>
        <path id="Path_128" data-name="Path 128" d="M582.894,226.478c.034.111-7.031,4.02-15.789,8.734s-15.891,8.434-15.932,8.323,7.031-4.028,15.789-8.734S582.853,226.367,582.894,226.478Z" transform="translate(-284.888 -196.266)" fill="#fff"/>
        <path id="Path_129" data-name="Path 129" d="M584.922,272.21c0,.129-14.765.334-32.977.471s-32.977.146-32.977,0,14.758-.334,32.977-.471S584.922,272.09,584.922,272.21Z" transform="translate(-270.424 -210.336)" fill="#fff"/>
        <path id="Path_130" data-name="Path 130" d="M653.29,289.8c0,.129-4.137.274-9.249.334s-9.249,0-9.249-.12,4.137-.266,9.249-.326S653.29,289.681,653.29,289.8Z" transform="translate(-322.443 -215.747)" fill="#fff"/>
        <path id="Path_131" data-name="Path 131" d="M125.2,280.7a1.234,1.234,0,0,1-.4.094l-1.154.189c-.505.077-1.119.171-1.829.317s-1.522.274-2.41.5c-1.782.386-3.884.977-6.2,1.714a58.2,58.2,0,0,0-7.379,3.06,71.443,71.443,0,0,0-7.072,4.063,64.233,64.233,0,0,0-5.461,4c-.771.591-1.44,1.191-2.048,1.714s-1.106.951-1.515,1.329l-.949.857a1.392,1.392,0,0,1-.348.266,2.1,2.1,0,0,1,.307-.343l.908-.909c.4-.4.887-.857,1.481-1.4s1.249-1.14,2.014-1.714a67.19,67.19,0,0,1,5.461-4.106,59.927,59.927,0,0,1,14.526-7.148,54.5,54.5,0,0,1,6.239-1.663c.894-.206,1.707-.317,2.423-.437s1.365-.189,1.843-.24l1.16-.1a1.157,1.157,0,0,1,.4-.043Z" transform="translate(-77.061 -212.983)" fill="#fff"/>
        <path id="Path_132" data-name="Path 132" d="M359.824,250.435a9.939,9.939,0,0,0-.683-.8,4.041,4.041,0,0,0-2.253-1.149,7.952,7.952,0,0,0-3.638.5,23.8,23.8,0,0,0-4.3,1.834,27.932,27.932,0,0,0-6.99,5.46c-1.625,1.714-2.485,2.974-2.532,2.914a5.315,5.315,0,0,1,.573-.917,27.034,27.034,0,0,1,1.8-2.237,26.158,26.158,0,0,1,7.01-5.631,23.21,23.21,0,0,1,4.362-1.826,7.793,7.793,0,0,1,3.754-.4,4.094,4.094,0,0,1,2.307,1.32,3.592,3.592,0,0,1,.457.66C359.8,250.332,359.838,250.426,359.824,250.435Z" transform="translate(-189.787 -202.934)" fill="#fff"/>
        <path id="Path_133" data-name="Path 133" d="M716.394,211.385a8.993,8.993,0,0,1-2.908.369,14,14,0,0,1-3.413-.531,25.641,25.641,0,0,1-4.341-1.714c-1.577-.746-3.263-1.714-5.079-2.666l-2.833-1.44c-.976-.489-2-.909-3.044-1.38a99.069,99.069,0,0,0-13.912-4.766,129.192,129.192,0,0,0-26-4.063c-1.679-.111-3.195-.12-4.526-.163h-3.413l-2.157.06h-.758a.725.725,0,0,1,.191,0h.56l2.164-.146,3.413-.077c1.365,0,2.853,0,4.533.094a122.689,122.689,0,0,1,26.069,3.943,98.734,98.734,0,0,1,13.946,4.808c1.044.489,2.048.917,3.051,1.414l2.833,1.457c1.816.994,3.488,1.954,5.051,2.717a27.628,27.628,0,0,0,4.294,1.714,15.132,15.132,0,0,0,3.372.6,11.41,11.41,0,0,0,2.15-.1l.56-.086a.481.481,0,0,1,.2-.043Z" transform="translate(-326.584 -186.521)" fill="#263238"/>
      </g>
      <g id="Character" transform="translate(21.188 73.262)">
        <path id="Path_134" data-name="Path 134" d="M138.763,200.555c-2.73-18.754-4.56-21.634-6.109-28.088s-3.993-10.645-7.045-12.12c-2.048-.994-12.328-5.648-15.912-4.106a41.913,41.913,0,0,0-9.918,6.257,16.649,16.649,0,0,0-5.174,8.305L89.144,190.15l9.6,12.043,4.819-12.857,5.229,15.385-.771,15.557,29.994,10.131C140.723,224.931,140.313,211.2,138.763,200.555Z" transform="translate(-61.228 -121.336)" fill="#e8505b"/>
        <g id="Group_6" data-name="Group 6" transform="translate(49.504 58.734)" opacity="0.2">
          <path id="Path_135" data-name="Path 135" d="M148.555,190.829c-1.324,9.763-1.536,11.143-2.86,20.871-.457,3.351-1.782,8.571-3.686,11-1.406,1.791-2.785,3.523-4.737,4.106a9.139,9.139,0,0,1-6.294-.351c-1.713-.951-3.167-5.143-2.464-7.285,2.546.677,3.331,1.714,5.522,0a22.484,22.484,0,0,0,5.666-7.431c4.382-10.637,5.584-11.014,8.874-20.905" transform="translate(-128.332 -190.829)"/>
        </g>
        <path id="Path_136" data-name="Path 136" d="M118.419,210.279a26.012,26.012,0,0,1-1.324-2.571l-3.085-6.334c-1.215-2.391-2.307-4.56-3.167-6.266a25.132,25.132,0,0,1-1.276-2.631,2.629,2.629,0,0,1,.43.634c.259.42.621,1.046,1.051,1.826.874,1.551,2.048,3.737,3.263,6.206s2.273,4.74,3,6.4c.369.857.683,1.517.846,1.989A5.2,5.2,0,0,1,118.419,210.279Z" transform="translate(-70.4 -132.603)" fill="#263238"/>
        <path id="Path_137" data-name="Path 137" d="M148.964,241.669a2.637,2.637,0,0,1-.683.334,6.116,6.116,0,0,1-.853.3,11.46,11.46,0,0,1-1.147.3,15.213,15.213,0,0,1-3.031.343,16.1,16.1,0,0,1-7.318-1.714,17.521,17.521,0,0,1-2.73-1.671,11.372,11.372,0,0,1-.983-.789,8.491,8.491,0,0,1-.683-.651,3.317,3.317,0,0,1-.56-.626c.02-.026.881.763,2.382,1.791a19.761,19.761,0,0,0,2.73,1.56,19.415,19.415,0,0,0,3.543,1.217,17.768,17.768,0,0,0,3.659.429,17.056,17.056,0,0,0,3-.24C147.919,241.995,148.93,241.592,148.964,241.669Z" transform="translate(-80.015 -146.482)" fill="#263238"/>
        <path id="Path_138" data-name="Path 138" d="M117.158,195.124c-.048.343-3.277,8.4-3.277,8.4L98.673,193.461l-1.55-8.228c-.529-2.754-2.733-4.452-4.928-3.8l-4.485,2.306a1.461,1.461,0,0,0-.737,1.089c-.061.42,0,.857.594.763,1.113-.1,3.413-.42,3.413-.42l-1.058,4.688a6.137,6.137,0,0,0,.3,3.677l.683,1.629,1.495,3.008h0s14.779,19.062,23.079,20.305c4.99.746,10.642-16.817,10.642-16.817Z" transform="translate(-60.244 -129.155)" fill="#b78876"/>
        <path id="Path_139" data-name="Path 139" d="M94.064,186.977a1.819,1.819,0,0,1,.369-.411,1.77,1.77,0,0,1,1.154-.446,1.247,1.247,0,0,1,1.017.857c.143.386.048.651,0,.634s0-.249-.164-.54a1.134,1.134,0,0,0-.894-.634,1.883,1.883,0,0,0-1.058.334C94.248,186.9,94.084,187.012,94.064,186.977Z" transform="translate(-63.437 -130.643)" fill="#aa6550"/>
        <path id="Path_140" data-name="Path 140" d="M95.758,190.947s-.1-.154-.246-.377a1.842,1.842,0,0,0-.683-.66,1.459,1.459,0,0,0-.874-.129c-.232.043-.369.111-.389.069s.109-.163.355-.257a1.265,1.265,0,0,1,.99.051,1.663,1.663,0,0,1,.751.814C95.771,190.741,95.785,190.938,95.758,190.947Z" transform="translate(-63.213 -131.69)" fill="#aa6550"/>
        <path id="Path_141" data-name="Path 141" d="M144.119,164.515l-4.1,24.5,10.922,8.263,4.191-15.06S153.4,163.915,144.119,164.515Z" transform="translate(-84.079 -123.978)" fill="#e8505b"/>
        <path id="Path_142" data-name="Path 142" d="M133.112,165.154a1.288,1.288,0,0,1-.273.214l-.833.549c-.724.471-1.782,1.114-3.12,1.86a39.318,39.318,0,0,1-10.847,4.286,21.707,21.707,0,0,1-11.318-.471,16.98,16.98,0,0,1-3.256-1.466,7.2,7.2,0,0,1-.84-.531,1.45,1.45,0,0,1-.273-.223,10.578,10.578,0,0,1,1.167.591,18.973,18.973,0,0,0,3.263,1.32,22.551,22.551,0,0,0,11.222.351,42.606,42.606,0,0,0,10.785-4.148c1.365-.7,2.41-1.3,3.154-1.714A7.147,7.147,0,0,1,133.112,165.154Z" transform="translate(-67.16 -124.179)" fill="#ebebeb"/>
        <path id="Path_143" data-name="Path 143" d="M134.545,169.057a2.785,2.785,0,0,1-.3.283c-.2.171-.546.437-.908.729a16.209,16.209,0,0,1-1.474,1.071c-.587.394-1.242.857-2.007,1.286l-1.195.694c-.416.231-.867.429-1.324.66-.908.48-1.911.857-2.969,1.294a33.263,33.263,0,0,1-14.232,2.117,29.915,29.915,0,0,1-3.126-.394c-.491-.086-.962-.146-1.413-.257l-1.283-.317a22.568,22.568,0,0,1-2.2-.66,14.421,14.421,0,0,1-1.611-.617l-1.017-.437a1.157,1.157,0,0,1-.341-.189,2.022,2.022,0,0,1,.369.1l1.031.36c.444.171,1,.36,1.638.54s1.365.429,2.2.591l1.283.291c.444.094.915.146,1.365.231.969.18,2.048.24,3.106.343a34.686,34.686,0,0,0,14.13-2.1c1.044-.42,2.048-.789,2.956-1.243.457-.223.9-.411,1.317-.643l1.195-.651c.771-.394,1.433-.857,2.048-1.217a15.658,15.658,0,0,0,1.495-1.011l.935-.651a1.786,1.786,0,0,1,.335-.206Z" transform="translate(-65.719 -125.382)" fill="#ebebeb"/>
        <path id="Path_144" data-name="Path 144" d="M150.406,197.075a4.97,4.97,0,0,1-.887-.566l-2.4-1.714-8.191-5.94-.1-.077v-.146c.294-1.834.608-3.8.935-5.828.5-3.043.969-5.948,1.365-8.571.225-1.32.41-2.571.614-3.754a15.831,15.831,0,0,1,.881-3.188,5.728,5.728,0,0,1,2.819-3.24,2.793,2.793,0,0,1,1.044-.223.971.971,0,0,1,.362.051,4.7,4.7,0,0,0-4.007,3.557,16.5,16.5,0,0,0-.812,3.12c-.177,1.183-.375,2.434-.58,3.754-.423,2.648-.887,5.554-1.365,8.571-.328,2.023-.683,3.986-.942,5.82l-.082-.231c3.249,2.434,6.075,4.543,8.144,6.077l2.355,1.809A6.859,6.859,0,0,1,150.406,197.075Z" transform="translate(-83.54 -123.77)" fill="#263238"/>
        <path id="Path_145" data-name="Path 145" d="M163.367,189.044a12.44,12.44,0,0,1-.055,2.28,42.8,42.8,0,0,1-2.232,10.645,10.634,10.634,0,0,1-.846,2.014,16.279,16.279,0,0,1,.614-2.134,62.156,62.156,0,0,0,2.212-10.56,18.152,18.152,0,0,1,.307-2.246Z" transform="translate(-93.156 -131.544)" fill="#263238"/>
        <path id="Path_146" data-name="Path 146" d="M49.5,386.094l-.1,13.088s-10.628,4.234-10.84,6.651l20.171,1.191.853-20.382Z" transform="translate(-38.51 -192.295)" fill="#455a64"/>
        <path id="Path_147" data-name="Path 147" d="M68.784,403.947a1.1,1.1,0,0,1,.526,1.217.782.782,0,0,1-.956.66,1.142,1.142,0,0,1-.546-1.286.778.778,0,0,1,1.051-.557" transform="translate(-51.632 -197.789)" fill="#e0e0e0"/>
        <path id="Path_148" data-name="Path 148" d="M58.691,415.265v-2.057l-19.373-.386s-.922.437-.846,1.234Z" transform="translate(-38.468 -200.536)" fill="#e0e0e0"/>
        <path id="Path_149" data-name="Path 149" d="M57.608,404.75c0,.129.491.214.962.643s.683.96.8.917,0-.771-.6-1.277S57.587,404.639,57.608,404.75Z" transform="translate(-47.064 -198.018)" fill="#263238"/>
        <path id="Path_150" data-name="Path 150" d="M53.692,406.186c0,.12.389.351.683.9s.389,1.106.491,1.106.184-.7-.218-1.363S53.7,406.066,53.692,406.186Z" transform="translate(-45.305 -198.476)" fill="#263238"/>
        <path id="Path_151" data-name="Path 151" d="M50.695,409.742c.089,0,.246-.583,0-1.269s-.683-.994-.724-.857.225.48.4,1.054S50.593,409.725,50.695,409.742Z" transform="translate(-43.632 -198.921)" fill="#263238"/>
        <path id="Path_152" data-name="Path 152" d="M58.138,400.319c0,.111.491,0,1.051.051s.983.326,1.038.223-.348-.566-1-.651S58.09,400.216,58.138,400.319Z" transform="translate(-47.301 -196.56)" fill="#263238"/>
        <g id="Group_7" data-name="Group 7" transform="translate(10.94 196.387)" opacity="0.3">
          <path id="Path_153" data-name="Path 153" d="M58.354,389.836l-.027,2.331,9.932.48.1-2.091Z" transform="translate(-58.327 -389.836)"/>
        </g>
        <path id="Path_154" data-name="Path 154" d="M58.24,395.833a1.481,1.481,0,0,0,1.01.051,3.649,3.649,0,0,0,1.072-.343,4.82,4.82,0,0,0,.6-.351,1.238,1.238,0,0,0,.314-.283.624.624,0,0,0,.068-.651.513.513,0,0,0-.416-.309.89.89,0,0,0-.382.043,2.593,2.593,0,0,0-.642.231,3.482,3.482,0,0,0-.962.711c-.491.514-.683.969-.635.994s.287-.326.778-.754a4.087,4.087,0,0,1,.928-.583,3.261,3.261,0,0,1,.587-.189c.218-.06.4-.051.451.077s0,.06,0,.137a1.006,1.006,0,0,1-.232.206,5.6,5.6,0,0,1-.546.351,5.026,5.026,0,0,1-1,.411A5.776,5.776,0,0,0,58.24,395.833Z" transform="translate(-47.348 -194.715)" fill="#263238"/>
        <path id="Path_155" data-name="Path 155" d="M57.476,395.13a2.44,2.44,0,0,0,.314-1.217,5.35,5.35,0,0,0-.089-1.4,6.055,6.055,0,0,0-.225-.789.938.938,0,0,0-.621-.677.468.468,0,0,0-.437.326,1.931,1.931,0,0,0-.123.463,3.647,3.647,0,0,0-.034.857,3.446,3.446,0,0,0,.382,1.337c.369.677.778.857.785.814a5.192,5.192,0,0,1-.573-.977,3.48,3.48,0,0,1-.28-1.209,3.737,3.737,0,0,1,.048-.729c.041-.274.13-.489.212-.454a.836.836,0,0,1,.334.437,4.974,4.974,0,0,1,.225.7,5.723,5.723,0,0,1,.15,1.286C57.544,394.65,57.421,395.1,57.476,395.13Z" transform="translate(-46.454 -193.823)" fill="#263238"/>
        <path id="Path_156" data-name="Path 156" d="M91.281,241.422S59.738,224.811,49.969,224.1c-6.144-.446-10.758,4.5-9.925,12.454.416,3.977,9.133,50.57,9.133,50.57l13.3-7.62-6.382-32.219L82.032,263.1Z" transform="translate(-39.132 -142.344)" fill="#263238"/>
        <path id="Path_157" data-name="Path 157" d="M62.014,245.845c-.1.111.949,1.809,2.048,4.046s1.843,4.166,1.966,4.1a14.2,14.2,0,0,0-1.57-4.406A12.546,12.546,0,0,0,62.014,245.845Z" transform="translate(-49.04 -149.055)" fill="#455a64"/>
        <path id="Path_158" data-name="Path 158" d="M57.334,248.519a37.115,37.115,0,0,0,3.413,3.146,37.831,37.831,0,0,0,3.413,3.128,14.511,14.511,0,0,0-3.126-3.6A12.994,12.994,0,0,0,57.334,248.519Z" transform="translate(-46.94 -149.877)" fill="#455a64"/>
        <path id="Path_159" data-name="Path 159" d="M122.181,259.15s-3.973,6.42-7.754,8.177c-4.778,2.2-39.906,23.031-39.906,23.031s-6.376,59.467-5.87,56.99L53.94,346.9l1.6-54.778c.2-7.02,4.669-15.068,9.481-18.651l32.547-24.316Z" transform="translate(-45.417 -150.077)" fill="#263238"/>
        <path id="Path_160" data-name="Path 160" d="M56.276,303.422a3.568,3.568,0,0,0,.061-.746c0-.557.055-1.269.089-2.16q.126-3.951.587-7.868a31.75,31.75,0,0,1,3.174-10.86,19.269,19.269,0,0,1,3.782-4.9,44.569,44.569,0,0,1,4.963-3.968c7.079-5.091,13.195-10.285,17.707-13.842,2.253-1.8,4.1-3.24,5.352-4.217l1.468-1.131a3.071,3.071,0,0,0,.491-.42,2.4,2.4,0,0,0-.539.317c-.348.231-.86.574-1.509,1.046-1.3.917-3.16,2.3-5.461,4.054-4.567,3.428-10.71,8.571-17.748,13.714a43.461,43.461,0,0,0-5.038,4.02,19.708,19.708,0,0,0-3.864,5.057,31.816,31.816,0,0,0-3.147,11.091,77.262,77.262,0,0,0-.437,7.937v2.117A5.684,5.684,0,0,0,56.276,303.422Z" transform="translate(-46.435 -151.357)" fill="#455a64"/>
        <path id="Path_161" data-name="Path 161" d="M151.885,267.353a17.06,17.06,0,0,0-.9-1.526,13.343,13.343,0,0,1-1.365-8.571,16.879,16.879,0,0,0,.355-1.843,4.524,4.524,0,0,0-.683,1.714,11.861,11.861,0,0,0,1.434,8.905A3.679,3.679,0,0,0,151.885,267.353Z" transform="translate(-88.104 -152.006)" fill="#455a64"/>
        <path id="Path_162" data-name="Path 162" d="M63.721,347.837a1.81,1.81,0,0,0,.041-.309c0-.231.055-.531.089-.857.075-.857.171-2,.294-3.428.246-3.06.58-7.4,1-12.745.2-2.7.423-5.648.683-8.811s.5-6.548.683-10.105.485-7.294,1-11.143A54.523,54.523,0,0,1,70.247,289a39.93,39.93,0,0,1,5.3-9.831,53.642,53.642,0,0,1,6.662-7.371,135.428,135.428,0,0,1,12.806-10.08c3.734-2.691,6.71-4.988,8.69-6.72.99-.857,1.747-1.551,2.246-2.04l.567-.566q.191-.189.184-.206a1.139,1.139,0,0,0-.212.163l-.594.514c-.519.454-1.29,1.123-2.294,1.946-2.007,1.671-5,3.9-8.751,6.548a129.905,129.905,0,0,0-12.895,9.96,53.44,53.44,0,0,0-6.737,7.414,40.338,40.338,0,0,0-5.461,9.977,55.211,55.211,0,0,0-2.73,11.588c-.519,3.848-.778,7.6-.99,11.143s-.423,6.951-.648,10.114-.423,6.111-.608,8.8c-.355,5.357-.683,9.7-.853,12.763-.089,1.474-.157,2.64-.2,3.471a5.022,5.022,0,0,1-.048.909,1.3,1.3,0,0,0,.041.334Z" transform="translate(-49.791 -151.013)" fill="#455a64"/>
        <path id="Path_163" data-name="Path 163" d="M110.908,110.652c-1.021-3.311-3.811-5.195-6.574-4.44a5.914,5.914,0,0,1-1.829.5,11.555,11.555,0,0,1-2.225-.737c-1.7-.35-3.327.974-3.768,3.06a3.821,3.821,0,0,0-3.748.934,4.346,4.346,0,0,0-.881,4.44c.266.626.683,1.123.949,1.766.4,1.054.218,2.323.5,3.428a3.873,3.873,0,0,0,3.181,2.871,8.827,8.827,0,0,0,4.1-.737" transform="translate(-62.343 -105.916)" fill="#263238"/>
        <path id="Path_164" data-name="Path 164" d="M108.389,147.27c-.177-1.654-.287-2.82-.287-2.82s-4.4,0-6.143-6.857a94.407,94.407,0,0,1-1.823-13.877,8.853,8.853,0,0,1,1.395-5.606,5.663,5.663,0,0,1,4.182-2.63l11.686-.771.253,2.28,3.079,28.208a9.354,9.354,0,0,1-1.219,5.816,6.115,6.115,0,0,1-4.146,3.012h0C111.954,154.575,108.832,151.553,108.389,147.27Z" transform="translate(-66.152 -108.626)" fill="#b78876"/>
        <path id="Path_165" data-name="Path 165" d="M103.093,133.112a.78.78,0,0,0,.805.771.646.646,0,0,0,.487-.3,1.014,1.014,0,0,0,.155-.655.78.78,0,0,0-.805-.771.646.646,0,0,0-.487.3A1.015,1.015,0,0,0,103.093,133.112Z" transform="translate(-67.49 -114.003)" fill="#263238"/>
        <path id="Path_166" data-name="Path 166" d="M102.561,131.149c.1.1.58-.514,1.365-.66s1.365.214,1.468.077-.082-.249-.355-.429a1.679,1.679,0,0,0-1.195-.214,1.837,1.837,0,0,0-1.058.677C102.561,130.9,102.506,131.106,102.561,131.149Z" transform="translate(-67.245 -113.307)" fill="#263238"/>
        <path id="Path_167" data-name="Path 167" d="M116.4,130.919a.779.779,0,0,0,.812.771.649.649,0,0,0,.482-.308,1.016,1.016,0,0,0,.152-.652.78.78,0,0,0-.805-.771.646.646,0,0,0-.487.3A1.015,1.015,0,0,0,116.4,130.919Z" transform="translate(-73.468 -113.326)" fill="#263238"/>
        <path id="Path_168" data-name="Path 168" d="M116.368,129.226c.1.094.587-.514,1.365-.669s1.365.223,1.468.086-.089-.257-.362-.429a1.6,1.6,0,0,0-1.195-.214,1.792,1.792,0,0,0-1.058.677C116.375,128.951,116.32,129.183,116.368,129.226Z" transform="translate(-73.448 -112.713)" fill="#263238"/>
        <path id="Path_169" data-name="Path 169" d="M111.232,137.383a4.131,4.131,0,0,0-1.29,0c-.2,0-.389,0-.444-.163a1.623,1.623,0,0,1,0-.754l.348-2.006a38.9,38.9,0,0,0,.683-5.143,40.856,40.856,0,0,0-1.017,5.143c-.109.7-.212,1.371-.314,2.006a1.766,1.766,0,0,0,0,.994.5.5,0,0,0,.369.291.9.9,0,0,0,.341,0A4.044,4.044,0,0,0,111.232,137.383Z" transform="translate(-70.202 -113.131)" fill="#263238"/>
        <path id="Path_170" data-name="Path 170" d="M114.621,155.922a13.21,13.21,0,0,0,7.167-4,7.682,7.682,0,0,1-6.888,5.64Z" transform="translate(-72.67 -120.099)" fill="#aa6550"/>
        <path id="Path_171" data-name="Path 171" d="M115.487,141.263a6.083,6.083,0,0,1-.614,1.963c-.614.891-1.529.951-1.515,1.1s.225.163.6.1a2.041,2.041,0,0,0,1.27-.857,2.664,2.664,0,0,0,.464-1.629C115.671,141.5,115.542,141.263,115.487,141.263Z" transform="translate(-72.103 -116.813)" fill="#263238"/>
        <path id="Path_172" data-name="Path 172" d="M115.134,123.872c.116.249.867,0,1.788-.069s1.693.12,1.788-.146c0-.12-.123-.343-.451-.54a2.408,2.408,0,0,0-1.365-.309,2.549,2.549,0,0,0-1.365.471C115.23,123.52,115.087,123.76,115.134,123.872Z" transform="translate(-72.897 -111.122)" fill="#263238"/>
        <path id="Path_173" data-name="Path 173" d="M102.415,127.055c.164.2.683-.137,1.3-.274s1.2-.086,1.3-.343c.041-.12-.075-.326-.334-.489a1.648,1.648,0,0,0-2.1.506A.585.585,0,0,0,102.415,127.055Z" transform="translate(-67.175 -112.034)" fill="#263238"/>
        <path id="Path_174" data-name="Path 174" d="M98.617,119.5s3.092,1.3,6.642-1.671c2.335-1.954,5.154-3.18,5.857-2.657s1.167,3.728,3.727,4.286c0,0,.451,6.171,2.375,5.64,1.365-.377.573-7.183,0-11.065a2.972,2.972,0,0,0-2.546-2.76l-3.6-.171-4.492,1.569-4.819,1.654-3.666,1.911Z" transform="translate(-65.246 -107.515)" fill="#263238"/>
        <path id="Path_175" data-name="Path 175" d="M132.031,127.481c.075-.069,3.051-2.04,3.6,2.049s-2.826,3.943-2.846,3.823S132.031,127.481,132.031,127.481Z" transform="translate(-80.49 -112.399)" fill="#b78876"/>
        <path id="Path_176" data-name="Path 176" d="M134.7,132.166a.335.335,0,0,1,.164.069.452.452,0,0,0,.423-.077,2.067,2.067,0,0,0,.437-1.714,2.731,2.731,0,0,0-.294-.986.717.717,0,0,0-.505-.463.314.314,0,0,0-.307.274v.206c0,.009-.075-.051-.075-.223a.539.539,0,0,1,.1-.283.386.386,0,0,1,.3-.171.785.785,0,0,1,.683.506,2.749,2.749,0,0,1,.355,1.1,2.124,2.124,0,0,1-.594,1.937.509.509,0,0,1-.532,0C134.717,132.277,134.69,132.174,134.7,132.166Z" transform="translate(-81.619 -112.97)" fill="#aa6550"/>
        <path id="Path_177" data-name="Path 177" d="M101.883,108.256a5.288,5.288,0,0,0,.341.549,2.921,2.921,0,0,0,1.236.994,3.3,3.3,0,0,0,2.164.12,16.084,16.084,0,0,0,2.628-1.054,5.913,5.913,0,0,1,2.792-.626,2.823,2.823,0,0,1,2.116,1.2,3.184,3.184,0,0,1,.683,1.791,1.471,1.471,0,0,1-.1.711s0-.257-.041-.694a3.136,3.136,0,0,0-.683-1.586,2.639,2.639,0,0,0-1.959-1.011,5.891,5.891,0,0,0-2.656.643,15.263,15.263,0,0,1-2.682,1.028,3.35,3.35,0,0,1-2.314-.231,2.888,2.888,0,0,1-1.256-1.183A1.408,1.408,0,0,1,101.883,108.256Z" transform="translate(-66.949 -106.631)" fill="#455a64"/>
        <path id="Path_178" data-name="Path 178" d="M109.4,113.271a3.466,3.466,0,0,0-.505-.514,2.571,2.571,0,0,0-1.638-.609,4.462,4.462,0,0,0-2.485.763,23.7,23.7,0,0,1-2.963,1.714,6.078,6.078,0,0,1-5.83-.806,6.772,6.772,0,0,1-1.44-1.354,2.571,2.571,0,0,1-.41-.651,13.428,13.428,0,0,0,1.966,1.757,6.093,6.093,0,0,0,5.6.651,27.733,27.733,0,0,0,2.935-1.714,4.44,4.44,0,0,1,2.635-.7,2.617,2.617,0,0,1,1.707.789A1.515,1.515,0,0,1,109.4,113.271Z" transform="translate(-63.465 -107.729)" fill="#455a64"/>
        <path id="Path_179" data-name="Path 179" d="M86.308,207.056l-15.85-16.971-5.229,1.483s5.509,14.382,9.5,19.654c0,0,3.939,6.625,10.437,3.763S86.308,207.056,86.308,207.056Z" transform="translate(-50.487 -131.865)" fill="#b78876"/>
        <path id="Path_180" data-name="Path 180" d="M65.738,163.084H59a1.649,1.649,0,0,0-1.293.877,2.6,2.6,0,0,0-.27,1.814l6.772,16.577a1.543,1.543,0,0,0,1.365,1.046h8.191a1.2,1.2,0,0,0,.915-.786,1.8,1.8,0,0,0-.02-1.391L68.127,165A2.715,2.715,0,0,0,65.738,163.084Z" transform="translate(-46.962 -123.541)" fill="#455a64"/>
        <path id="Path_181" data-name="Path 181" d="M65.3,164.522H58.556a1.107,1.107,0,0,0-.965.678,1.744,1.744,0,0,0-.045,1.387L64.16,182.8a1.543,1.543,0,0,0,1.365,1.046h8.123a.668.668,0,0,0,.562-.4,1.05,1.05,0,0,0,.045-.809l-6.546-16.2A2.716,2.716,0,0,0,65.3,164.522Z" transform="translate(-46.981 -123.984)" fill="#263238"/>
        <path id="Path_182" data-name="Path 182" d="M66.574,174.336l-4.1,2.057-.881,4.148,1.973,6.171,7.249,1.329L68.7,185.315l.273-2.366s2.048-.8,2.048-1.191-.253-1.714-.56-1.714a13.565,13.565,0,0,0-2.43.926s2.512-2.494,2.437-2.9-.335-1.423-.84-1.534-4.546,2.28-4.546,2.28L64.4,180.7l-.573-3.008S67.489,176.393,66.574,174.336Z" transform="translate(-48.856 -127.01)" fill="#b78876"/>
        <path id="Path_183" data-name="Path 183" d="M71.491,186.931a1.49,1.49,0,0,1-.143-.514,3.212,3.212,0,0,1,.683-2.383c.2-.223.362-.309.375-.283a6.633,6.633,0,0,0-.758,1.457,7.122,7.122,0,0,0-.157,1.723Z" transform="translate(-53.227 -129.911)" fill="#aa6550"/>
        <path id="Path_184" data-name="Path 184" d="M68.079,184.613a12.649,12.649,0,0,0,.164-1.346,7.892,7.892,0,0,1,.2-1.5,2.449,2.449,0,0,1,.382-.8,1.774,1.774,0,0,1,.683-.523c.976-.454,1.864-.814,2.505-1.071a4.957,4.957,0,0,1,1.065-.369,5.354,5.354,0,0,1-1.01.54c-.635.309-1.522.7-2.485,1.14a1.811,1.811,0,0,0-.6.463,2.222,2.222,0,0,0-.341.7,8.065,8.065,0,0,0-.239,1.431A3.272,3.272,0,0,1,68.079,184.613Z" transform="translate(-51.767 -128.45)" fill="#aa6550"/>
        <path id="Path_185" data-name="Path 185" d="M66.329,184.866a2.665,2.665,0,0,1,0-1.011,2.278,2.278,0,0,1,.239-.969,2.666,2.666,0,0,1,0,1.011A2.278,2.278,0,0,1,66.329,184.866Z" transform="translate(-50.959 -129.646)" fill="#aa6550"/>
        <path id="Path_186" data-name="Path 186" d="M66.171,168.563a.882.882,0,1,0,.86-1.08A.989.989,0,0,0,66.171,168.563Z" transform="translate(-50.91 -124.897)" fill="#fafafa"/>
      </g>
      <g id="Plant" transform="translate(0 280.276)">
        <path id="Path_187" data-name="Path 187" d="M20.075,405.2a9.165,9.165,0,0,1,4.969,5.3,22.311,22.311,0,0,1,1.522,8.117c.137,5.426-1.652,11.254-3.761,15.994-4.034-3.266-5.645-9.96-6.3-13.422-1.024-5.46-.239-16.131,3.57-15.985" transform="translate(-7.231 -405.199)" fill="#e8505b"/>
        <path id="Path_188" data-name="Path 188" d="M37.346,453.692a10.714,10.714,0,0,1,1.3-8.8,8.835,8.835,0,0,1,6.567-3.96,3.449,3.449,0,0,1,3.215,1.149,4.628,4.628,0,0,1,.491,3.823,7.715,7.715,0,0,1-1.932,3.2c-2.819,3.009-5.986,5.271-9.645,4.594" transform="translate(-16.59 -416.208)" fill="#e8505b"/>
        <path id="Path_189" data-name="Path 189" d="M32.784,473.421a7.959,7.959,0,0,1,0-1.123c0-.789.055-1.817.089-3.043a38.59,38.59,0,0,1,1.365-9.908,19.732,19.732,0,0,1,4.574-8.211,10.368,10.368,0,0,1,2.048-1.629,5.114,5.114,0,0,1,.608-.317.643.643,0,0,1,.225-.086,16.635,16.635,0,0,0-2.73,2.246,20.582,20.582,0,0,0-4.451,8.134,41.424,41.424,0,0,0-1.42,9.823c-.068,1.286-.13,2.323-.184,3.034A7.178,7.178,0,0,1,32.784,473.421Z" transform="translate(-14.718 -418.736)" fill="#263238"/>
        <path id="Path_190" data-name="Path 190" d="M23.237,417.085a2,2,0,0,1,.1.471c.055.351.13.8.218,1.363.191,1.183.451,2.906.751,5.031.608,4.286,1.365,10.148,2.116,16.679S27.715,453.1,28.07,457.4c.177,2.143.307,3.891.389,5.091.034.574.061,1.029.082,1.389a3.3,3.3,0,0,1,0,.489,2.728,2.728,0,0,1-.075-.48c-.034-.36-.082-.814-.143-1.38-.116-1.251-.287-2.974-.485-5.083-.416-4.286-1-10.208-1.741-16.739s-1.468-12.428-2.048-16.7c-.266-2.091-.491-3.806-.683-5.048-.068-.566-.123-1.02-.171-1.38a2.306,2.306,0,0,1,.041-.48Z" transform="translate(-10.421 -408.864)" fill="#263238"/>
        <path id="Path_191" data-name="Path 191" d="M14.945,459.544c-1.636-6.4-5.628-11.42-10.724-13.482-1.283-.5-2.894-.686-3.748.617s-.4,3.266.259,4.731c2.916,6.187,8.508,9.567,14.178,8.571" transform="translate(-0.005 -417.681)" fill="#e8505b"/>
        <path id="Path_192" data-name="Path 192" d="M9.776,453.392a3.682,3.682,0,0,1,.805.283,7.192,7.192,0,0,1,.928.411,11.7,11.7,0,0,1,1.188.668,13.168,13.168,0,0,1,1.365.951,16.474,16.474,0,0,1,1.509,1.269,21.176,21.176,0,0,1,3,3.617,23.908,23.908,0,0,1,2.218,4.423q.386,1.035.683,2.117.262.939.437,1.911.152.784.232,1.586c.059.405.1.814.116,1.226a7.69,7.69,0,0,1,0,1.054c-.068,0-.123-1.491-.6-3.814q-.2-.949-.471-1.869-.3-1.058-.683-2.074a25.148,25.148,0,0,0-2.2-4.328,22.024,22.024,0,0,0-2.935-3.574,18.034,18.034,0,0,0-1.468-1.286,14.012,14.012,0,0,0-1.365-.986C10.9,453.9,9.749,453.486,9.776,453.392Z" transform="translate(-4.393 -420.057)" fill="#263238"/>
      </g>
    </g>
  </g>
</svg>
