<svg xmlns="http://www.w3.org/2000/svg" viewBox="0 0 218 218"><defs><style>.cls-1{fill:#fff;}.cls-2,.cls-7,.cls-8{fill:none;}.cls-2,.cls-7,.cls-8,.cls-9{stroke:#2d677a;}.cls-2{stroke-width:4px;}.cls-3,.cls-4,.cls-7{isolation:isolate;}.cls-4,.cls-7{font-size:21px;font-family:Montserrat-Medium, Montserrat;font-weight:500;}.cls-4,.cls-9{fill:#2d677a;}.cls-5{letter-spacing:-0.01em;}.cls-6{letter-spacing:0em;}.cls-8,.cls-9{stroke-miterlimit:10;stroke-width:2px;}</style></defs><title>Charge Pooling</title><g id="Layer_2" data-name="Layer 2"><g id="Layer_1-2" data-name="Layer 1"><rect class="cls-1" width="218" height="218" rx="33"/><rect class="cls-2" x="2" y="2" width="214" height="214" rx="31"/><g class="cls-3"><text class="cls-4" transform="translate(26 185)">Cha<tspan class="cls-5" x="42.04" y="0">r</tspan><tspan x="50.4" y="0">ge </tspan><tspan class="cls-5" x="83.39" y="0">P</tspan><tspan x="98.3" y="0">ooli</tspan><tspan class="cls-6" x="136.69" y="0">n</tspan><tspan x="151.05" y="0">g</tspan></text><text class="cls-7" transform="translate(26 185)">Cha<tspan class="cls-5" x="42.04" y="0">r</tspan><tspan x="50.4" y="0">ge </tspan><tspan class="cls-5" x="83.39" y="0">P</tspan><tspan x="98.3" y="0">ooli</tspan><tspan class="cls-6" x="136.69" y="0">n</tspan><tspan x="151.05" y="0">g</tspan></text></g><ellipse class="cls-8" cx="70.39" cy="95.38" rx="15.39" ry="15.48"/><ellipse class="cls-9" cx="70.39" cy="95.37" rx="7.95" ry="8"/><ellipse class="cls-8" cx="147.21" cy="61.48" rx="15.39" ry="15.48"/><ellipse class="cls-9" cx="147.21" cy="61.48" rx="7.95" ry="8"/><ellipse class="cls-8" cx="147.21" cy="129.28" rx="15.39" ry="15.48"/><ellipse class="cls-9" cx="147.21" cy="129.28" rx="7.95" ry="8"/><path class="cls-8" d="M133.34,129.28h-21.5l-8.34-33.9h-.68l8.34-33.91h21.5"/><line class="cls-8" x1="102.82" y1="95.38" x2="85.78" y2="95.38"/></g></g></svg>