<svg xmlns="http://www.w3.org/2000/svg" width="365" height="372" viewBox="0 0 365 372">
  <g id="Group_155" data-name="Group 155" transform="translate(-571 -284)">
    <g id="Rectangle_169" data-name="Rectangle 169" transform="translate(571 284)" fill="#00b2c1" stroke="#707070" stroke-width="1" opacity="0.8">
      <rect width="365" height="372" rx="10" stroke="none"/>
      <rect x="0.5" y="0.5" width="364" height="371" rx="9.5" fill="none"/>
    </g>
    <g id="Rectangle_332" data-name="Rectangle 332" transform="translate(595 303)" fill="#fff" stroke="#707070" stroke-width="1">
      <rect width="318" height="245" rx="20" stroke="none"/>
      <rect x="0.5" y="0.5" width="317" height="244" rx="19.5" fill="none"/>
    </g>
    <text id="Consumer" transform="translate(668 617)" fill="#fcfcfc" font-size="36" font-family="NotoSansJP-Bold, Noto Sans JP" font-weight="700"><tspan x="0" y="0">Consumer</tspan></text>
    <g id="Consumer-2" data-name="Consumer" transform="translate(911.446 501.76)">
      <g id="Layer_2" data-name="Layer 2" transform="translate(-222.004 -179.003)">
        <g id="Capa_1" data-name="Capa 1" transform="translate(0 0)">
          <path id="Path_622" data-name="Path 622" d="M20.861,156.611c22.081,0,44.161.148,66.242,0h10.11c-.594-5.708-1.148-11.828-1.543-18.1-1.523-23.935,2.2-51.8,0-54.187s-9.279-5.511-20.775-6.991a87.015,87.015,0,0,0-20.043,0,95.254,95.254,0,0,0-21.863,1.958c-10.328,2.27-14.918,5.116-18.183,7.9s3.007,32.9,5.223,55.076C20.5,147.037,20.742,151.89,20.861,156.611Z" transform="translate(13.593 49.517)" fill="#259cc6"/>
          <path id="Path_623" data-name="Path 623" d="M43.414,103.46S21.393,96.025,25.053,93.87c4.847-2.846,9.062-9.1,6.945-23.03C28.971,51,52.515,49.454,53.643,67.319,53.069,84.888,57.6,90.53,61.775,92.554,64.406,93.87,43.414,103.46,43.414,103.46Z" transform="translate(24.121 35.403)" fill="#f9bb8d"/>
          <path id="Path_624" data-name="Path 624" d="M28.463,83.707c4.966-.1,16.145-1.81,20.142-4.82,3.68-2.78-.4-4.195,1.523-7.765V67.339C49,49.539,25.456,51.02,28.483,70.859A35.324,35.324,0,0,1,28.463,83.707Z" transform="translate(27.616 35.432)" fill="#dccec5"/>
          <path id="Path_625" data-name="Path 625" d="M59.49,75.63a87.863,87.863,0,0,1-10.348,4.935c-1.6.642-4.65,7.567-4.65,7.567s-4.214-6.958-5.54-7.353A20.952,20.952,0,0,1,29.99,75.63l-6.45,4.392s8.092,6.991,15.532,9.771c1.86.707,3.68,19.74,5.322,19.74,1.979,0,3.957-18.984,5.678-19.609,8.785-3.01,15.373-11.795,15.373-11.795Z" transform="translate(23.042 48.79)" fill="#fff"/>
          <path id="Path_626" data-name="Path 626" d="M114.55,51.779c-1.761-.247-5.7,0-7.518,1.925.158-5.067,2.236-12.765,2.335-18.408.356-19.625-24.949-29.578-46.713-28.245C40.889,5.653,15.6,15.6,15.939,35.23c.158,5.708,2.137,13.407,2.335,18.474-1.8-1.925-5.738-2.171-7.5-1.925-5.639.79-8.508,6.1-6.213,13.325,4.115,12.914,15.492,8.883,15.65,8.834.93,7.633,12.564,36.191,42.262,37.375h.356c29.678-1.217,41.332-29.742,42.262-37.375.178,0,11.555,4.08,15.67-8.834C123.057,57.882,120.189,52.569,114.55,51.779Z" transform="translate(3.695 4.47)" fill="#f9bb8d"/>
          <path id="Path_627" data-name="Path 627" d="M101.824,70.36c7.34-2.912,1.4-14.213,11.5-13.983,1.365-4.261,2.81-24.889-3.66-30.7,9.4-5.807,3.462-18.507-.772-19.9C106.038,19.743,51.252-4.045,32.555.611c-4.709,1.184-7.063,6.745-8.072,9.36C15.995,7.4,12.414,10.711,9.9,18.8,8.5,23.362,1.868,36.012,8.872,56.246c11.119-.757,4.65,10.824,12.94,14.624-5.837-10.5,13.316-16.253,1.425-32.276,13.848,8.4,31.7,10.758,48,6.35-9.645-.8-18.263-5.351-23.228-12.272a19.463,19.463,0,0,0,17.372,6.1c13.553-2.023,12.227-8.044,24.87-2.2,10.269,4.721,9.2,13.637,3.957,19.74C105.643,61.724,101.824,70.36,101.824,70.36Z" transform="translate(5.598 0.003)" fill="#5b2c0b"/>
          <path id="Path_628" data-name="Path 628" d="M34.139,33.484a10.973,10.973,0,0,0-4.689-1c-4.407.1-8.358,2.284-10.17,5.626,0,0,2.73-2.813,9.734-2.813a32.718,32.718,0,0,1,5.322.872C35.108,36.149,34.673,33.747,34.139,33.484Z" transform="translate(18.873 20.956)" fill="#5b2c0b"/>
          <path id="Path_629" data-name="Path 629" d="M39.241,33.484a10.88,10.88,0,0,1,4.689-1c4.4.107,8.35,2.29,10.17,5.626,0,0-2.75-2.813-9.754-2.813a33.233,33.233,0,0,0-5.322.872C38.252,36.149,38.707,33.747,39.241,33.484Z" transform="translate(37.791 20.956)" fill="#5b2c0b"/>
          <path id="Path_630" data-name="Path 630" d="M51.644,54S49.467,60.58,38.9,60.58,26.18,54.526,26.18,54.526a64.684,64.684,0,0,0,12.267,1.119A55.314,55.314,0,0,0,51.644,54Z" transform="translate(25.625 34.837)" fill="#fff"/>
          <path id="Path_631" data-name="Path 631" d="M24.87,53.792a2.97,2.97,0,0,0,1.187.543,20.6,20.6,0,0,0,3.5.559c1.484.148,3.225.2,5.085.247s3.838,0,5.837,0q5.458-.039,10.882-.609a17.748,17.748,0,0,0,3.443-.691,2.813,2.813,0,0,0,1.108-.642l-.2.263a2.817,2.817,0,0,1-.791.576A13.783,13.783,0,0,1,51.5,55.19,44.865,44.865,0,0,1,46.4,56q-2.955.294-5.936.329t-5.936-.164a46.458,46.458,0,0,1-5.144-.625,15.055,15.055,0,0,1-3.443-1.02,3.848,3.848,0,0,1-.811-.493Z" transform="translate(24.344 34.321)" fill="#d99a6c"/>
          <path id="Path_632" data-name="Path 632" d="M30.6,59.226l.3.362c0,.132.257.2.4.313a3.8,3.8,0,0,0,.574.3,8.991,8.991,0,0,0,3.621.428,10.473,10.473,0,0,0,1.979-.3,5.857,5.857,0,0,0,1.543-.592,2.589,2.589,0,0,0,.871-.724,3.807,3.807,0,0,1,.277-.362v.444a1.2,1.2,0,0,1-.178.493,1.609,1.609,0,0,1-.415.592,4.19,4.19,0,0,1-1.642,1.053,8.334,8.334,0,0,1-2.256.477,8.437,8.437,0,0,1-2.335-.2,4.565,4.565,0,0,1-1.82-.806,2.415,2.415,0,0,1-.534-.559,1.506,1.506,0,0,1-.237-.477A1.632,1.632,0,0,1,30.6,59.226Z" transform="translate(29.951 37.837)" fill="#d99a6c"/>
          <path id="Path_633" data-name="Path 633" d="M46.2,43.682a2.812,2.812,0,0,1-3.027,2.5h0a2.789,2.789,0,0,1-3.007-2.5v-3.7a2.789,2.789,0,0,1,3.007-2.5h0a2.812,2.812,0,0,1,3.027,2.5Z" transform="translate(39.315 24.181)" fill="#5b2c0b"/>
          <path id="Path_634" data-name="Path 634" d="M28.595,43.682a2.789,2.789,0,0,1-3.007,2.5h0a2.789,2.789,0,0,1-3.007-2.5v-3.7a2.789,2.789,0,0,1,3.007-2.5h0a2.789,2.789,0,0,1,3.007,2.5Z" transform="translate(22.103 24.181)" fill="#5b2c0b"/>
          <path id="Path_635" data-name="Path 635" d="M26.464,39.077a.878.878,0,0,1-.336.691,1.278,1.278,0,0,1-.831.279,1.3,1.3,0,0,1-.838-.278.9.9,0,0,1-.349-.692A1.1,1.1,0,0,1,25.3,38.09a1.3,1.3,0,0,1,.833.29A.891.891,0,0,1,26.464,39.077Z" transform="translate(23.6 24.575)" fill="#fff"/>
          <path id="Path_636" data-name="Path 636" d="M42.9,39.077a1.207,1.207,0,1,1-1.187-.987,1.1,1.1,0,0,1,1.187.987Z" transform="translate(39.667 24.575)" fill="#fff"/>
          <path id="Path_637" data-name="Path 637" d="M25.4,40a.51.51,0,0,1-.284.548.765.765,0,0,1-.717,0A.51.51,0,0,1,24.115,40,.685.685,0,0,1,25.4,40Z" transform="translate(23.595 25.515)" fill="#fff"/>
          <path id="Path_638" data-name="Path 638" d="M43.016,40.027a.606.606,0,0,1-.653.543.7.7,0,0,1-.455-.16.482.482,0,0,1-.178-.383.587.587,0,0,1,.633-.526.709.709,0,0,1,.461.148.488.488,0,0,1,.192.378Z" transform="translate(40.842 25.484)" fill="#fff"/>
          <path id="Path_639" data-name="Path 639" d="M36.658,46.146a17.7,17.7,0,0,1,8.547,1.81c-.237-2.023-3.957-3.636-8.547-3.636s-8.29,1.645-8.528,3.619A17.869,17.869,0,0,1,36.658,46.146Z" transform="translate(27.534 28.594)" fill="#ead3cd"/>
          <path id="Path_640" data-name="Path 640" d="M11.423,43.547a2.73,2.73,0,0,1,0,3.142,2.8,2.8,0,0,0,1.543-3.965,4.139,4.139,0,0,0-4.927-.74A4.191,4.191,0,0,1,11.423,43.547Z" transform="translate(7.875 26.768)" fill="#ead3cd"/>
          <path id="Path_641" data-name="Path 641" d="M59.037,43.585a2.811,2.811,0,0,0-.1,3.142,2.815,2.815,0,0,1-2-2.458,2.743,2.743,0,0,1,1.831-2.546,3.884,3.884,0,0,1,3.55.3A4.172,4.172,0,0,0,59.037,43.585Z" transform="translate(55.725 26.729)" fill="#ead3cd"/>
          <path id="Path_642" data-name="Path 642" d="M63.222,37.479c6.312,1.02,1.761,10.939,1.761,10.939S70.918,36.8,63.222,35.637c-4.511-.674-6.292,6.893-6.292,6.893S59.68,36.9,63.222,37.479Z" transform="translate(55.716 22.965)" fill="#ead3cd"/>
          <path id="Path_643" data-name="Path 643" d="M9.281,37.479C2.97,38.5,7.52,48.419,7.52,48.419S1.585,36.8,9.281,35.637c4.511-.674,6.292,6.893,6.292,6.893S12.823,36.9,9.281,37.479Z" transform="translate(5.228 22.965)" fill="#ead3cd"/>
          <path id="Path_644" data-name="Path 644" d="M15.951,153.467a62.222,62.222,0,0,1,1.86-13.9c2.572-6.58,14.879-23.03,14.879-23.03s7.143-38.3-1.187-34.776c-5.659,2.4-16.936,22.767-24.217,37.836A135.705,135.705,0,0,0,.617,134.944c-.772,2.648-.732,10.117-.376,18.54Z" transform="translate(0.004 52.596)" fill="#259cc6"/>
          <path id="Path_645" data-name="Path 645" d="M70.144,138.486c-2.592-6.58-14.9-23.03-14.9-23.03s-7.123-38.3,1.187-34.776,27.7,46.538,29.8,53.842S72.736,145.165,70.144,138.486Z" transform="translate(51.287 51.899)" fill="#259cc6"/>
          <path id="Path_735" data-name="Path 735" d="M0,0,45.695,3.06l.528,9.033L.528,9.033Z" transform="matrix(0.364, -0.931, 0.931, 0.364, 103.667, 171.196)" fill="#00748f"/>
          <path id="Path_736" data-name="Path 736" d="M0,0,45.673,3.053l.264,4.527L.264,4.527Z" transform="translate(103.676 171.189) rotate(-68.69)" fill="#008aaa"/>
          <path id="Path_646" data-name="Path 646" d="M65.027,88.438l-3.047-.987.514-8.571,8.607,2.8Z" transform="translate(60.657 50.886)" fill="#00a1c9"/>
          <path id="Path_647" data-name="Path 647" d="M58.474,99.95l3.047,1-.514,8.571-8.607-2.8Z" transform="translate(51.283 64.477)" fill="#00a1c9"/>
          <path id="Path_737" data-name="Path 737" d="M0,0,45.675,3.056l1.4,24.006L1.4,24.006Z" transform="translate(80.817 163.766) rotate(-68.67)" fill="#61b9d9"/>
          <path id="Path_738" data-name="Path 738" d="M0,0,2.078.139,3.144,18.38l-2.078-.139Z" transform="matrix(0.364, -0.931, 0.931, 0.364, 99.122, 130.707)" fill="#fff"/>
          <path id="Path_648" data-name="Path 648" d="M69.022,87.8,46.13,89.479l.673-1.431L69.675,86.37Z" transform="translate(45.147 55.717)" fill="#fff"/>
          <path id="Path_649" data-name="Path 649" d="M67.022,92.891,44.15,94.569l.653-1.431L67.695,91.46Z" transform="translate(43.21 59)" fill="#fff"/>
          <path id="Path_650" data-name="Path 650" d="M67.732,91.061,44.86,92.739l.673-1.431L68.4,89.63Z" transform="translate(43.905 57.82)" fill="#fff"/>
          <path id="Path_651" data-name="Path 651" d="M68.462,89.231,45.57,90.909l.673-1.431L69.134,87.8Z" transform="translate(44.599 56.64)" fill="#fff"/>
          <path id="Path_739" data-name="Path 739" d="M0,0,2.483.166l.2,3.482L.2,3.482Z" transform="translate(99.55 168.35) rotate(-68.67)" fill="#fff"/>
          <path id="Path_740" data-name="Path 740" d="M0,0,44.549.778l.134,9.228L.134,9.228Z" transform="translate(94.432 171.055) rotate(-85.03)" fill="#00748f"/>
          <path id="Path_741" data-name="Path 741" d="M0,0,44.55.783l.067,4.6L.067,4.6Z" transform="translate(94.431 171.084) rotate(-85)" fill="#008aaa"/>
          <path id="Path_652" data-name="Path 652" d="M55.739,85.637l-3.265-.23L50.08,77.05l9.2.658Z" transform="translate(49.013 49.706)" fill="#00a1c9"/>
          <path id="Path_653" data-name="Path 653" d="M51.272,99.18l3.265.23,2.394,8.357-9.2-.674Z" transform="translate(46.713 63.98)" fill="#00a1c9"/>
          <path id="Path_742" data-name="Path 742" d="M0,0,44.549.778,44.907,25.3.357,24.523Z" transform="translate(69.997 169.309) rotate(-85.03)" fill="#61b9d9"/>
          <path id="Path_743" data-name="Path 743" d="M0,0,2.026.035,2.3,18.669.271,18.634Z" transform="translate(76.337 133.285) rotate(-85.04)" fill="#fff"/>
          <path id="Path_654" data-name="Path 654" d="M58.648,86.96,37.26,93.918l.158-1.53L58.806,85.43Z" transform="translate(36.468 55.111)" fill="#fff"/>
          <path id="Path_655" data-name="Path 655" d="M58.178,92.4,36.79,99.358l.158-1.53L58.336,90.87Z" transform="translate(36.008 58.62)" fill="#fff"/>
          <path id="Path_656" data-name="Path 656" d="M58.348,90.44,36.96,97.415l.158-1.53L58.506,88.91Z" transform="translate(36.174 57.356)" fill="#fff"/>
          <path id="Path_657" data-name="Path 657" d="M58.518,88.5,37.13,95.455l.158-1.53L58.676,86.95Z" transform="translate(36.34 56.091)" fill="#fff"/>
          <path id="Path_744" data-name="Path 744" d="M0,0,2.422.043,2.474,3.6.052,3.557Z" transform="matrix(0.087, -0.996, 0.996, 0.087, 89.515, 169.302)" fill="#fff"/>
          <rect id="Rectangle_262" data-name="Rectangle 262" width="14.523" height="6.07" transform="translate(87.182 153.981)" fill="#d780b3"/>
          <path id="Path_658" data-name="Path 658" d="M55.618,74.29H48.594s-3.957,2.221-3.166,4.935a13.893,13.893,0,0,0-1.979,6.021v25.811H60.545V85.328a15.462,15.462,0,0,0-1.979-5.889C59.1,76.708,55.618,74.29,55.618,74.29Z" transform="translate(42.525 47.925)" fill="#d995c1"/>
          <rect id="Rectangle_263" data-name="Rectangle 263" width="10.823" height="18.934" transform="translate(91.396 133.829)" fill="#fff"/>
          <path id="Path_659" data-name="Path 659" d="M47.15,71.488c0-.691,2.612-.79,2.612,0v1.645H47.15Z" transform="translate(46.145 45.759)" fill="#b53e60"/>
          <path id="Path_660" data-name="Path 660" d="M46.69,72.436c0-.9,4.412-1.036,4.412,0v2.139H46.69Z" transform="translate(45.695 46.259)" fill="#9d3456"/>
          <path id="Path_661" data-name="Path 661" d="M51.938,79.275c-.772-2.8,3.166-4.935,3.166-4.935H48.594s-3.957,2.221-3.166,4.935A13.893,13.893,0,0,0,43.45,85.3v25.728h6.49V85.3A13.9,13.9,0,0,1,51.938,79.275Z" transform="translate(42.525 47.957)" fill="#f2e2db"/>
          <path id="Path_662" data-name="Path 662" d="M45.92,73.106c0-.642,7.479-.757,7.479,0v2.287H45.92Z" transform="translate(44.942 46.823)" fill="#b53e60"/>
          <path id="Path_663" data-name="Path 663" d="M48.156,72.61c-1.246,0-2.236.247-2.236.477v2.287h4.788C48.413,74.9,47.206,73.581,48.156,72.61Z" transform="translate(44.942 46.842)" fill="#ead8e2"/>
          <path id="Path_664" data-name="Path 664" d="M46.675,74.729H46.24v-1.76s0-.1.218-.1h0c.119,0,.218,0,.218.1Z" transform="translate(45.255 47.009)" fill="#c8cfd4"/>
          <path id="Path_665" data-name="Path 665" d="M47.345,74.729H46.91v-1.76a.355.355,0,0,1,.218-.1h0c.119,0,.218,0,.218.1Z" transform="translate(45.911 47.009)" fill="#c8cfd4"/>
          <path id="Path_666" data-name="Path 666" d="M48.015,74.729H47.58v-1.76a.355.355,0,0,1,.218-.1h0c.119,0,.218,0,.218.1Z" transform="translate(46.566 47.009)" fill="#c8cfd4"/>
          <path id="Path_667" data-name="Path 667" d="M48.685,74.729H48.25v-1.76s0-.1.218-.1h0c.119,0,.218,0,.218.1Z" transform="translate(47.222 47.009)" fill="#c8cfd4"/>
          <path id="Path_668" data-name="Path 668" d="M49.355,74.729H48.92v-1.76s0-.1.218-.1h0c.119,0,.218,0,.218.1Z" transform="translate(47.877 47.009)" fill="#c8cfd4"/>
          <path id="Path_745" data-name="Path 745" d="M0,0,10.847.406l.24,5.435L.24,5.435Z" transform="translate(72.787 158.126) rotate(-13.05)" fill="#007ca4"/>
          <path id="Path_669" data-name="Path 669" d="M35.389,78.482,32.56,81.788,45.124,79.37l-3.739-2.04Z" transform="translate(31.869 49.886)" fill="#007ca4"/>
          <path id="Path_746" data-name="Path 746" d="M0,0,12.77.477l1.386,31.412-12.77-.477Z" transform="translate(64.42 131.677) rotate(-13.04)" fill="#0099c5"/>
          <path id="Path_747" data-name="Path 747" d="M0,0,9.141.341,9.776,14.75.635,14.409Z" transform="translate(69.813 137.549) rotate(-13.02)" fill="#fff"/>
          <path id="Path_670" data-name="Path 670" d="M33.205,76.259c-.317-1.184,6.41-2.681,6.786-1.316l1.167,4.195-6.786,1.316S33.542,77.427,33.205,76.259Z" transform="translate(32.489 47.996)" fill="#72bcc6"/>
          <path id="Path_671" data-name="Path 671" d="M35.012,74.76c-1.108.362-1.979.839-1.8,1.267.336,1.168,1.167,4.195,1.167,4.195l4.373-.839C36.339,78.78,34.773,76.845,35.012,74.76Z" transform="translate(32.483 48.228)" fill="#68a9b2"/>
          <path id="Path_672" data-name="Path 672" d="M34.822,78.915a.164.164,0,0,1-.139.2h0a.231.231,0,0,1-.152-.024.166.166,0,0,1-.085-.108l-.871-3.142a.126.126,0,0,1,.013-.126.182.182,0,0,1,.125-.072h0a.231.231,0,0,1,.152.024.166.166,0,0,1,.085.108Z" transform="translate(32.851 48.794)" fill="#c8cfd4"/>
          <path id="Path_673" data-name="Path 673" d="M35.439,78.775a.18.18,0,0,1-.139.2h0a.231.231,0,0,1-.152-.024.166.166,0,0,1-.085-.108l-.89-3.142a.142.142,0,0,1,.029-.127.2.2,0,0,1,.13-.071h0a.2.2,0,0,1,.237.115Z" transform="translate(33.442 48.704)" fill="#c8cfd4"/>
          <path id="Path_674" data-name="Path 674" d="M36.049,78.635a.185.185,0,0,1-.158.2h0a.221.221,0,0,1-.237-.132l-.871-3.142a.142.142,0,0,1,.029-.127.2.2,0,0,1,.13-.071h0a.209.209,0,0,1,.139.019.151.151,0,0,1,.079.1Z" transform="translate(34.039 48.614)" fill="#c8cfd4"/>
          <path id="Path_675" data-name="Path 675" d="M36.629,78.5a.185.185,0,0,1-.158.2h0a.231.231,0,0,1-.152-.024.166.166,0,0,1-.085-.108l-.871-3.142a.164.164,0,0,1,.138-.2h0a.2.2,0,0,1,.237.115Z" transform="translate(34.606 48.523)" fill="#c8cfd4"/>
          <path id="Path_676" data-name="Path 676" d="M37.249,78.339a.178.178,0,0,1-.139.214h0a.231.231,0,0,1-.152-.024.166.166,0,0,1-.085-.108L36,75.279a.142.142,0,0,1,.029-.127.2.2,0,0,1,.13-.071h0a.2.2,0,0,1,.237.115Z" transform="translate(35.232 48.433)" fill="#c8cfd4"/>
          <path id="Path_748" data-name="Path 748" d="M0,0,6.414.24,7.8,31.651l-6.414-.24Z" transform="matrix(0.974, -0.225, 0.225, 0.974, 64.421, 131.678)" fill="#d1dbe1"/>
          <path id="Path_749" data-name="Path 749" d="M0,0,5.412.186l.314,10.886L.314,10.886Z" transform="matrix(0.173, -0.985, 0.985, 0.173, 71.971, 165.86)" fill="#007ca4"/>
          <path id="Path_677" data-name="Path 677" d="M43.5,79.87,39.35,81.992l12.682,1.859-2.473-3.093Z" transform="translate(38.513 51.525)" fill="#007ca4"/>
          <path id="Path_750" data-name="Path 750" d="M0,0,31.282,1.079l.372,12.815L.372,12.815Z" transform="translate(71.358 164.158) rotate(-79.99)" fill="#0099c5"/>
          <path id="Path_751" data-name="Path 751" d="M0,0,14.35.494l.266,9.173L.266,9.173Z" transform="translate(77.081 154.736) rotate(-80)" fill="#fff"/>
          <path id="Path_678" data-name="Path 678" d="M42.16,77.489c.257-1.2,7.143-.395,6.846,1l-.89,4.244-6.866-1.02Z" transform="translate(40.372 49.612)" fill="#72bcc6"/>
          <path id="Path_679" data-name="Path 679" d="M44.4,76.91c-1.187,0-2.157.132-2.236.576l-.91,4.228,4.392.658A3.905,3.905,0,0,1,44.4,76.91Z" transform="translate(40.372 49.615)" fill="#68a9b2"/>
          <path id="Path_680" data-name="Path 680" d="M41.987,80.9a.145.145,0,0,1-.073.107.208.208,0,0,1-.145.025h0a.171.171,0,0,1-.158-.181l.772-3.191a.2.2,0,0,1,.218-.132h0a.211.211,0,0,1,.143.065.144.144,0,0,1,.035.132Z" transform="translate(40.724 50.015)" fill="#c8cfd4"/>
          <path id="Path_681" data-name="Path 681" d="M42.616,81.014a.166.166,0,0,1-.085.108.231.231,0,0,1-.152.024h0a.171.171,0,0,1-.158-.181l.673-3.191a.166.166,0,0,1,.085-.108.232.232,0,0,1,.152-.024h0a.2.2,0,0,1,.13.071.142.142,0,0,1,.029.127Z" transform="translate(41.321 50.085)" fill="#c8cfd4"/>
          <path id="Path_682" data-name="Path 682" d="M43.188,81.123a.2.2,0,0,1-.218.132h0a.2.2,0,0,1-.13-.071.142.142,0,0,1-.029-.127l.673-3.175a.2.2,0,0,1,.218-.132h0a.2.2,0,0,1,.13.071.142.142,0,0,1,.029.127Z" transform="translate(41.896 50.157)" fill="#c8cfd4"/>
          <path id="Path_683" data-name="Path 683" d="M43.848,81.234a.221.221,0,0,1-.237.132h0a.2.2,0,0,1-.13-.071.142.142,0,0,1-.029-.127l.673-3.175a.166.166,0,0,1,.085-.108.232.232,0,0,1,.152-.024h0a.21.21,0,0,1,.163.076.141.141,0,0,1,.015.155Z" transform="translate(42.523 50.226)" fill="#c8cfd4"/>
          <path id="Path_684" data-name="Path 684" d="M44.458,81.324a.166.166,0,0,1-.085.108.232.232,0,0,1-.152.024h0a.2.2,0,0,1-.13-.071.142.142,0,0,1-.029-.127l.673-3.175a.166.166,0,0,1,.085-.108.231.231,0,0,1,.152-.024h0a.189.189,0,0,1,.129.06.129.129,0,0,1,.029.121Z" transform="translate(43.119 50.285)" fill="#c8cfd4"/>
          <path id="Path_752" data-name="Path 752" d="M0,0,31.282,1.081l.187,6.437L.187,6.437Z" transform="translate(71.354 164.127) rotate(-79.97)" fill="#d1dbe1"/>
          <path id="Path_685" data-name="Path 685" d="M70.774,149.237c5.936,0,11.871,0,17.926.115l6.252-56.77-4.531,2.237L87.2,91.99l-4.907,2.2L78.51,91.332,74.553,93.6l-3.561-2.846-4.907,2.2-4.155-2.9-4.353,2.254L52.69,89.358l-3.957,2.287-4.155-2.912-4.353,2.254L37.3,88.19,30.57,149.3Q50.6,149.328,70.774,149.237Z" transform="translate(29.921 56.891)" fill="#f6a654"/>
          <path id="Path_686" data-name="Path 686" d="M56.864,149.312C49.959,141.087,45.231,132.089,44,124.867a50.778,50.778,0,0,1,6.905-34.546L48.693,91.6l-4.155-2.912-4.353,2.254-2.928-2.8L30.53,149.263Q43.707,149.345,56.864,149.312Z" transform="translate(29.882 56.865)" fill="#e8953c"/>
          <path id="Path_687" data-name="Path 687" d="M40.251,100.486c1.444.576.732,2.533,2.651,6.07,1.7,3.126,2.968,4.836,5.659,5.955s3.819,4.935,5.718,6.021,11.693,2.155,11.693,2.155l-1.6,6.58L51.153,124.5s-13.256.559-18.8-1.316c-.237-1.2,2.691-9.607,2.691-9.607l.653-1.2,3.7-.313s1.148-3.093-.257-4.162C36.156,105.717,38.787,99.91,40.251,100.486Z" transform="translate(31.656 64.797)" fill="#f9bb8d"/>
          <path id="Path_688" data-name="Path 688" d="M32.127,112.18c-1.7,0-2.968,1.645-.831,2.4l3.5,1.2,1.979-2.945a38.1,38.1,0,0,0-4.65-.658Z" transform="translate(29.531 72.366)" fill="#f9bb8d"/>
          <path id="Path_689" data-name="Path 689" d="M31.406,110.4c-1.82,0-2.335,2.681.1,3.109a52.663,52.663,0,0,1,5.8,1.513l.475-4.08S33.207,110.466,31.406,110.4Z" transform="translate(29.223 71.217)" fill="#f9bb8d"/>
          <path id="Path_690" data-name="Path 690" d="M31.761,108.72c-1.8,0-2.889,3.076-.435,3.5l6.569,1.152.475-4.08S33.581,108.786,31.761,108.72Z" transform="translate(29.264 70.134)" fill="#f9bb8d"/>
          <path id="Path_691" data-name="Path 691" d="M33.1,107.554c-1.8-.2-2.869,2.764-.475,3.29s6.786,1.892,6.786,1.892l-.2-5.1q-3.057.088-6.114-.082Z" transform="translate(30.576 69.375)" fill="#f9bb8d"/>
          <path id="Path_692" data-name="Path 692" d="M42.46,119.854l2.1-9.64s35.357-.642,43.765-.164c10.625.592,11.04,16.763,1.128,16.648C80.428,126.532,42.46,119.854,42.46,119.854Z" transform="translate(41.556 70.877)" fill="#259cc6"/>
        </g>
      </g>
    </g>
  </g>
</svg>
