<svg xmlns="http://www.w3.org/2000/svg" xmlns:xlink="http://www.w3.org/1999/xlink" width="863.284" height="613.229" viewBox="0 0 863.284 613.229">
  <defs>
    <clipPath id="clip-path">
      <path id="Path_1192" data-name="Path 1192" d="M154.85,319.527v34.539H354.54V319.527a18.816,18.816,0,0,0-18.8-18.816H173.65A18.817,18.817,0,0,0,154.85,319.527Z" transform="translate(-154.85 -300.71)" fill="none"/>
    </clipPath>
    <clipPath id="clip-path-2">
      <circle id="Ellipse_152" data-name="Ellipse 152" cx="28.488" cy="28.488" r="28.488" fill="none"/>
    </clipPath>
    <clipPath id="clip-path-3">
      <path id="Path_1206" data-name="Path 1206" d="M265.523,331.43H198.6a11.9,11.9,0,0,1-10.963-7.071l-.918-2.159a2.72,2.72,0,0,1,2.6-3.74H274.8a2.72,2.72,0,0,1,2.6,3.74l-.918,2.159a11.9,11.9,0,0,1-10.964,7.071Z" transform="translate(-186.523 -318.459)" fill="none"/>
    </clipPath>
    <clipPath id="clip-path-4">
      <path id="Path_1207" data-name="Path 1207" d="M281.774,354.24H194.014a15.57,15.57,0,0,1-14.363-9.111l-1.207-2.771a3.518,3.518,0,0,1,3.4-4.827H293.91a3.518,3.518,0,0,1,3.4,4.827l-1.207,2.771A15.57,15.57,0,0,1,281.774,354.24Z" transform="translate(-178.191 -337.529)" fill="none"/>
    </clipPath>
    <clipPath id="clip-path-5">
      <path id="Path_1277" data-name="Path 1277" d="M377.842,53.516a93.776,93.776,0,0,0-10.318-15.893,8.244,8.244,0,0,0-5.235-3.06,364.263,364.263,0,0,0-118.984,0,8.261,8.261,0,0,0-5.218,3.06,92.743,92.743,0,0,0-10.318,15.893c-4.13,8.754-13.6,22.59.238,22.59h149.58C391.44,76.123,381.972,62.27,377.842,53.516Z" transform="translate(-220.753 -29.673)" fill="none"/>
    </clipPath>
  </defs>
  <g id="Asset_1" data-name="Asset 1" transform="translate(0.008 0.001)">
    <g id="Layer_2" data-name="Layer 2" transform="translate(-0.008 -0.001)">
      <g id="Objects">
        <g id="man" transform="translate(269.801 235.955)">
          <path id="Path_1127" data-name="Path 1127" d="M167.123,170.091s-.816-3.943-2.873-4.844-3.3-4.538-4.113-3.536.238,7.564,1.8,8.38a8.771,8.771,0,0,1,2.312,1.7Z" transform="translate(-157.926 -122.913)" fill="#ae5f2c"/>
          <path id="Path_1128" data-name="Path 1128" d="M200.949,157.33s-13.122,22.862-17.882,27.077l-17.44-13a6.306,6.306,0,0,0-3.638,3.315s10.59,21.587,21.026,22.488,25.072-25.871,25.072-25.871Z" transform="translate(-156.431 -125.858)" fill="#a8bbbd"/>
          <path id="Path_1129" data-name="Path 1129" d="M213.3,241.164s3.043,2.8,2.448,4.793-3.4,3.4-3.706,5.779-1.768,3.723-3.179,3.723h-6.34s-.986-1.7,1.377-2.244,3.264-3.4,3.111-6.051a48.645,48.645,0,0,1,.238-6.2l5.014-1.19Z" transform="translate(-128.209 -68.169)" fill="#0c3563"/>
          <path id="Path_1130" data-name="Path 1130" d="M193.625,252.732a2.181,2.181,0,0,1-.442.119H176.44a2.89,2.89,0,0,1,2.686-2.125c2.652-.425,7.258-1.972,8.278-5.354a2.48,2.48,0,0,0,.085-.34c.816-3.621,6.8,1.1,6.8,1.1v.391C194.39,247.82,194.747,252.1,193.625,252.732Z" transform="translate(-146.32 -65.442)" fill="#0c3563"/>
          <path id="Path_1131" data-name="Path 1131" d="M178.44,192.616s.9,11.2,1.955,24.681c1.428,18.307,3.162,40.795,3.4,45.044.289,7.394,1.479,19.225,1.479,19.225s2.8,2.822,8.5,1.7a193.279,193.279,0,0,0,6.442-34.76v-.884c1.326-18.188,3.4-56.5,3.4-56.5Z" transform="translate(-144.92 -102.213)" fill="#0d458d"/>
          <path id="Path_1132" data-name="Path 1132" d="M178.44,192.644s.9,11.2,1.955,24.681l19.683,31.14v-.884c1.326-18.188,3.4-56.5,3.4-56.5Z" transform="translate(-144.92 -102.241)" fill="#0c3563"/>
          <path id="Path_1133" data-name="Path 1133" d="M180.85,195.746s16.2,40.591,26.839,59.679,13.989,24.409,13.989,24.409,6.1-2.448,6.646-4.113c0,0-4.062-36.834-11.2-45.809-4.028-5.1-8.754-20.3-8.975-25.633S206.7,188.42,206.7,188.42Z" transform="translate(-143.234 -104.102)" fill="#0d458d"/>
          <path id="Path_1134" data-name="Path 1134" d="M187.5,161.388a49.411,49.411,0,0,1-.748-6.8l8.227-6.629a16.454,16.454,0,0,0,5.524,13.479s-10.947,5.405-17.287,3.4A15.3,15.3,0,0,1,187.5,161.388Z" transform="translate(-141.575 -132.415)" fill="#ae5f2c"/>
          <path id="Path_1135" data-name="Path 1135" d="M184.995,158.913s10.454,1.7,11.439-4.793,2.992-10.692-3.638-12.085-8.312.918-9.162,3.009S182.309,158.285,184.995,158.913Z" transform="translate(-141.752 -136.858)" fill="#bd713c"/>
          <path id="Path_1136" data-name="Path 1136" d="M178.063,219.119a1.02,1.02,0,0,0,.663.238c2.38,0,9.3,1.292,15.162.7a43.633,43.633,0,0,0,14.023-4.045c.629-.289,2.057-1.054,2.023-1.7s-.085-1.87-.187-3.264a171.317,171.317,0,0,1-.34-22.811c.1-1.8.153-3.57.153-5.32,0-13.054-2.533-24.528-7.734-28.4-.442-.323-3.162,1.02-5.677,2.244a10.284,10.284,0,0,1-6.8.833l-2.176,1.938a21.825,21.825,0,0,0-6.8,10.93,122.915,122.915,0,0,0-2.057,20.278c-.153,3.672-.289,7.394-.323,10.913v1.19C177.825,211.827,177.944,218.983,178.063,219.119Z" transform="translate(-145.291 -127.865)" fill="#cae0e3"/>
          <path id="Path_1137" data-name="Path 1137" d="M200.857,203.031a171.328,171.328,0,0,1-.34-22.811c.1-1.8.153-3.569.153-5.32-2.159-5.252-3.926-9.06-3.926-9.06h-5.524S187.276,193.155,200.857,203.031Z" transform="translate(-136.35 -119.903)" fill="#3b9fab"/>
          <path id="Path_1138" data-name="Path 1138" d="M233.709,209.273l-1.462-10.2a5.575,5.575,0,0,0-6.306-4.725l-8.006,1.139-.306-2.176a1.836,1.836,0,0,0-2.091-1.564l-6.952.986a1.819,1.819,0,0,0-1.207.714,1.887,1.887,0,0,0-.357,1.377l.323,2.176-4.64.646-.544.119-2.55.357a5.558,5.558,0,0,0-4.708,6.289l1.428,10.08a5.575,5.575,0,0,0,6.289,4.725l1.9-.272a5.763,5.763,0,0,0,1.207,0l23.236-3.4a5.592,5.592,0,0,0,4.742-6.272Zm-25-15.383,6.952-.986a.408.408,0,0,1,.2,0,.7.7,0,0,1,.578.578l.306,2.176-8.312,1.19-.306-2.176a.68.68,0,0,1,.578-.782Z" transform="translate(-133.439 -101.787)" fill="#0c3563"/>
          <path id="Path_1139" data-name="Path 1139" d="M202.92,189.364l1.037,1.785a4.13,4.13,0,0,0,2.771,5.9s2.074.527,2.261-.9a27.088,27.088,0,0,1,.17-2.907,3.705,3.705,0,0,0-1.989-4.317L206,187.8Z" transform="translate(-127.79 -104.536)" fill="#bd713c"/>
          <path id="Path_1140" data-name="Path 1140" d="M216.062,212.792a18.274,18.274,0,0,1-4.1.221s-5.83-18.018-6.578-19.666-17.338-21.128-17.338-21.128L194.968,155s17.933,29.95,19.751,34.166c3.009,6.952,4.045,22.539,4.045,22.539A7.531,7.531,0,0,1,216.062,212.792Z" transform="translate(-138.195 -127.488)" fill="#a8bbbd"/>
          <path id="Path_1141" data-name="Path 1141" d="M197.534,155.448s-1.088-.17-.9-1.7.17-3.4-1.037-3.06-1.258,1.326-1.7.765-.51-2.924-4.079-3.094-5.1,1.088-6.7.357-1.7-3.247-1.7-3.247a2.89,2.89,0,0,0,1.19,1.173s-2.771-3.79.442-6.391,6.476-.9,8.346-.782c4.1.238,6.8.493,8.074,3.179S200.152,152.864,197.534,155.448Z" transform="translate(-142.835 -138.815)" fill="#0d458d"/>
          <rect id="Rectangle_468" data-name="Rectangle 468" width="3.315" height="10.301" rx="0.2" transform="translate(1.128 36.247) rotate(-26.24)" fill="#0d458d"/>
          <rect id="Rectangle_469" data-name="Rectangle 469" width="2.057" height="10.301" rx="0.15" transform="translate(0 36.781) rotate(-26.24)" fill="#0c3563"/>
        </g>
        <path id="Path_1142" data-name="Path 1142" d="M258.291,212.734c-18.46,4.487-33.214,26.228-41.611,41.678a26.668,26.668,0,0,1-2.839-3.773c3.553-8.006,10.4-25.225,3.757-24.647-5.779.493-6.323,12.459-6.051,20.788-4.708-8.159-10.012-17.593-25.055-17-24.9.986-32.568,26.89-49.871,26.38s-70.1-7.156-80.5,19.479H238.132c-.595-1.7-1.7-8.21-6.51-12.986l2.788-.935c15.417-5.014,9.655-10.2,9.655-10.2-7.241,0-13.853,3.247-19.139,7.071a18.675,18.675,0,0,0-2.38-.646,9.4,9.4,0,0,1-2.618-.935c9.128-10.488,22.284-23.8,32.585-27.2,7.037-2.312,10.573-5.473,12.255-8.5a5.83,5.83,0,0,0-6.476-8.584Z" transform="translate(39.285 148.741)" fill="#94d29d"/>
        <path id="Path_1143" data-name="Path 1143" d="M59.311,157.32a24.018,24.018,0,0,0-24,24.018c0,13.241,24,42.732,24,42.732s24-29.491,24-42.732a24.018,24.018,0,0,0-24-24.018Zm0,34.981a11.219,11.219,0,1,1,11.219-11.219A11.218,11.218,0,0,1,59.311,192.3Z" transform="translate(24.722 110.09)" fill="#00b2c1"/>
        <path id="Path_1144" data-name="Path 1144" d="M27.733,233.32c-5.1,0-15.213,6.323-15.213,14.125s4.215,14.227,9.315,14.227H27.7c5.1,0,9.332-6.323,9.332-14.142S32.883,233.32,27.733,233.32Z" transform="translate(8.774 163.273)" fill="#2d677a"/>
        <path id="Path_1145" data-name="Path 1145" d="M130.255,267.628H79.16a26.585,26.585,0,0,0,.374-4.555c0-11.575-6.935-20.941-15.485-20.941S48.564,251.5,48.564,263.073a26.584,26.584,0,0,0,.374,4.555H27.164s-6.8-16.828,0-22.641,44.551-9.774,44.551-9.774,14.329-18.7,23.1-24.46a21.094,21.094,0,0,1,7.768-2.244c18.341,2.38,19.02,21.655,29.491,24.868C143.021,236.726,130.255,267.628,130.255,267.628Z" transform="translate(16.907 145.911)" fill="#005c7c"/>
        <path id="Path_1146" data-name="Path 1146" d="M67.695,246.792c0,8.5-4.4,17.882-4.4,17.882H55.9c-6.527,0-11.9-8.006-11.9-17.882S56.714,228.91,63.224,228.91,67.695,236.916,67.695,246.792Z" transform="translate(30.803 160.187)" fill="#3e889f"/>
        <ellipse id="Ellipse_148" data-name="Ellipse 148" cx="11.813" cy="17.882" rx="11.813" ry="17.882" transform="translate(82.282 389.097)" fill="#75959f"/>
        <path id="Path_1147" data-name="Path 1147" d="M67.848,244.972c0,7.445-3.977,13.462-8.89,13.462S50,252.417,50,244.972s3.994-13.462,8.907-13.462S67.848,237.527,67.848,244.972Z" transform="translate(35.002 162.006)" fill="#2d677a"/>
        <path id="Path_1148" data-name="Path 1148" d="M161.688,267.712h-51.1a28.4,28.4,0,0,0,.374-4.555c0-11.575-6.935-20.941-15.5-20.941S80,251.581,80,263.157a26.585,26.585,0,0,0,.374,4.555H3.014s-6.8-16.828,0-22.641,46.132-11.457,46.132-11.457,17.933-13.309,26.72-19.088,55.6-6.136,55.6-6.136a23.814,23.814,0,0,1,2.55.221c18.341,2.38,19.02,21.655,29.491,24.868C174.453,236.81,161.688,267.712,161.688,267.712Z" transform="translate(0.008 145.827)" fill="#7fffd4"/>
        <path id="Path_1149" data-name="Path 1149" d="M138.805,267.628H87.71a28.4,28.4,0,0,0,.374-4.555c0-11.575-6.935-20.941-15.5-20.941S57.114,251.5,57.114,263.073a26.586,26.586,0,0,0,.374,4.555H35.714s-6.8-16.828,0-22.641,44.551-9.774,44.551-9.774,14.329-18.7,23.1-24.46a21.094,21.094,0,0,1,7.768-2.244c18.341,2.38,19.021,21.655,29.491,24.868C151.571,236.726,138.805,267.628,138.805,267.628Z" transform="translate(22.89 145.911)" fill="#0f8986"/>
        <path id="Path_1150" data-name="Path 1150" d="M65.13,231.874S80,209.437,89.216,210.712c15.043,2.057,19.887,18.358,19.887,18.358Z" transform="translate(45.59 147.415)" fill="#93c2de"/>
        <path id="Path_1151" data-name="Path 1151" d="M99.5,210.151h-.1a123.008,123.008,0,0,0-19.615,19.479l-47.084.816,4.742-3.757c7.071-5.541,16.318-12.629,18.052-13.207a114.219,114.219,0,0,1,17-2.482l1.853-.136c6.7-.459,13.6-.629,18.477-.68h.459C97.037,210.134,99.5,210.151,99.5,210.151Z" transform="translate(22.896 147.058)" fill="#bbd9ed"/>
        <path id="Path_1152" data-name="Path 1152" d="M40.475,235.569v.595a3.5,3.5,0,0,1-3.4,3.519H19.33a3.5,3.5,0,0,1-3.4-3.519v-.595a3.5,3.5,0,0,1,3.4-3.519H37.007a3.5,3.5,0,0,1,3.468,3.519Z" transform="translate(11.161 162.384)" fill="#93c2de"/>
        <path id="Path_1153" data-name="Path 1153" d="M39.649,235.569v.595a3.5,3.5,0,0,1-3.4,3.519H20.51a3.5,3.5,0,0,1-3.4-3.519v-.595a3.5,3.5,0,0,1,3.4-3.519H36.182A3.5,3.5,0,0,1,39.649,235.569Z" transform="translate(11.986 162.384)" fill="#bbd9ed"/>
        <path id="Path_1154" data-name="Path 1154" d="M15.03,235.569v.595c0,1.938-.867,3.519-1.921,3.519H3.268c-1.054,0-1.938-1.581-1.938-3.519v-.595c0-1.938.884-3.519,1.938-3.519h9.842C14.163,232.05,15.03,233.665,15.03,235.569Z" transform="translate(0.944 162.384)" fill="#93c2de"/>
        <path id="Path_1155" data-name="Path 1155" d="M14.568,235.569v.595c0,1.938-.867,3.519-1.921,3.519H3.911c-1.054,0-1.921-1.581-1.921-3.519v-.595c0-1.938.867-3.519,1.921-3.519h8.737C13.7,232.05,14.568,233.665,14.568,235.569Z" transform="translate(1.406 162.384)" fill="#bbd9ed"/>
        <path id="Path_1156" data-name="Path 1156" d="M99.348,210.221a123.014,123.014,0,0,0-19.564,19.394l-47.084.816,4.742-3.757c10.675-2.669,27.91-7.955,36.919-15.825,6.7-.459,13.6-.629,18.477-.68H93.3Z" transform="translate(22.896 147.073)" fill="#93c2de"/>
        <path id="Path_1367" data-name="Path 1367" d="M.878,0H104.134a.878.878,0,0,1,.878.878V198.37a.878.878,0,0,1-.878.878H.878A.878.878,0,0,1,0,198.37V.878A.878.878,0,0,1,.878,0Z" transform="translate(128.635 225.119)" fill="#005c7c"/>
        <path id="Path_1366" data-name="Path 1366" d="M.878,0H104.134a.878.878,0,0,1,.878.878V198.37a.878.878,0,0,1-.878.878H.878A.878.878,0,0,1,0,198.37V.878A.878.878,0,0,1,.878,0Z" transform="translate(138.8 225.119)" fill="#03c2d2"/>
        <path id="Path_1157" data-name="Path 1157" d="M133.335,136.884h-27.3a1.071,1.071,0,1,0,0,2.125h27.3a1.071,1.071,0,0,0,0-2.125Z" transform="translate(73.371 95.783)" fill="#ef670c" opacity="0.4"/>
        <path id="Path_1158" data-name="Path 1158" d="M103.138,136.88a1.071,1.071,0,1,0,1.054,1.071,1.071,1.071,0,0,0-1.054-1.071Z" transform="translate(71.425 95.786)" fill="#ef670c" opacity="0.4"/>
        <path id="Path_1159" data-name="Path 1159" d="M109.28,245.989a6.8,6.8,0,1,1,6.8,6.8A6.8,6.8,0,0,1,109.28,245.989Z" transform="translate(76.485 167.38)" fill="#f46700" opacity="0.4"/>
        <rect id="Rectangle_472" data-name="Rectangle 472" width="87.3" height="161.173" transform="translate(147.554 240.927)" fill="#cee7f7"/>
        <rect id="Rectangle_473" data-name="Rectangle 473" width="87.3" height="18.715" transform="translate(147.554 383.403)" fill="#cee7f7"/>
        <path id="Path_1160" data-name="Path 1160" d="M178.083,247.534l-18.171-29.712a18.7,18.7,0,0,0,7.836-11.321c3.4-13.734-6.969-31.378-10.4-36.732a12.238,12.238,0,1,0-20.244-5.1c-13.173,7.649-27.417,15.672-32.449,18.188L89.626,157.65a2.55,2.55,0,1,0-4.368,2.618l22.607,37.7a9.077,9.077,0,0,0,12.1,3.315l14.38-7.734a4.368,4.368,0,0,1,5.8,1.564L152.892,216C127.243,229.6,90.408,249,87.57,250.1a2.552,2.552,0,0,0,.782,4.98A2.26,2.26,0,0,0,88.93,255c.646-.136,1.7-.374,35.474-18.171,13.105-6.9,26.194-13.819,31.191-16.471L173.8,250.2a2.533,2.533,0,0,0,2.176,1.207,2.566,2.566,0,0,0,1.326-.374,2.533,2.533,0,0,0,.782-3.5Zm-29.219-93.726a7.173,7.173,0,1,1-7.173,7.173A7.173,7.173,0,0,1,148.864,153.808Zm-17,35.236-14.312,7.7a3.994,3.994,0,0,1-5.337-1.462l-4.9-8.176c2.567-1.292,7.411-3.909,16.9-9.281,6.323-3.587,12.51-7.156,15.417-8.839a12.272,12.272,0,0,0,9.23,4.2,12.528,12.528,0,0,0,4.232-.748,86.955,86.955,0,0,1,5.8,10.743c2.754,6.153,5.694,14.992,3.96,22.1a13.6,13.6,0,0,1-5.541,8.159L144.478,192.41a9.451,9.451,0,0,0-12.544-3.366Z" transform="translate(59.372 104.117)" fill="#03c2d2"/>
        <path id="Path_1161" data-name="Path 1161" d="M127.508,158.91a.75.75,0,0,1-.357-1.411l20.176-11.27a.75.75,0,0,1,.731,1.309l-20.176,11.27A.783.783,0,0,1,127.508,158.91Z" transform="translate(88.717 102.262)" fill="#ff973d"/>
        <path id="Path_1162" data-name="Path 1162" d="M122.821,156.817a.748.748,0,0,1-.629-.323l-7.377-11.015a.731.731,0,0,1,.2-1.037.748.748,0,0,1,1.037.2l7.377,10.964a.748.748,0,0,1-.2,1.037.714.714,0,0,1-.408.17Z" transform="translate(80.265 100.99)" fill="#ff973d"/>
        <path id="Path_1163" data-name="Path 1163" d="M129.045,244.023a.731.731,0,0,1-.646-.357L103.158,202.4a.731.731,0,0,1,.238-1.02.765.765,0,0,1,1.037.238l25.242,41.271a.765.765,0,0,1-.238,1.037.9.9,0,0,1-.391.1Z" transform="translate(72.12 140.842)" fill="#ff973d"/>
        <path id="Path_1164" data-name="Path 1164" d="M120.421,157.526a3.553,3.553,0,1,1,3.536,3.4A3.553,3.553,0,0,1,120.421,157.526Z" transform="translate(84.279 107.641)" fill="#ff973d"/>
        <path id="Path_1165" data-name="Path 1165" d="M130.248,235.164l-11.27-18.46a10.742,10.742,0,0,0-14.142-3.944L86.87,222.093v13.343Z" transform="translate(60.803 148.034)" fill="#bbd9ed"/>
        <path id="Path_1166" data-name="Path 1166" d="M86.919,227.072c-.1-.9,35.151-19.088,47.781-25.582a4.487,4.487,0,0,0,1.7-6.459l-.68-1.037a3.247,3.247,0,0,0-4.215-1.139l-17,8.5a7.326,7.326,0,0,1-9.468-2.618L86.8,168.6Z" transform="translate(60.754 117.983)" fill="#bbd9ed"/>
        <path id="Path_1167" data-name="Path 1167" d="M92.59,154.738l8.5,14.414a6.289,6.289,0,0,0,8.5,2.312l8.873-4.963a6.289,6.289,0,0,0,3.213-4.963,18.187,18.187,0,0,1,1.921-6.969,6.221,6.221,0,0,0-.153-6.289h0a6.289,6.289,0,0,0-5.371-3.009H98.029a6.306,6.306,0,0,0-5.439,9.468Z" transform="translate(64.211 101.658)" fill="#bbd9ed"/>
        <path id="Path_1168" data-name="Path 1168" d="M141.675,154.18v34.641a74.414,74.414,0,0,0-7.6-17.457,6.8,6.8,0,0,1-.442-6,21.213,21.213,0,0,0,1.258-5.405,5.762,5.762,0,0,1,3.96-4.861Z" transform="translate(93.18 107.893)" fill="#bbd9ed"/>
        <path id="Path_1169" data-name="Path 1169" d="M136.739,191.341A19.481,19.481,0,0,0,140,185.8v19.445l-3.96-8.312A5.2,5.2,0,0,1,136.739,191.341Z" transform="translate(94.852 130.019)" fill="#bbd9ed"/>
        <path id="Path_1170" data-name="Path 1170" d="M154.407,228.934v15.6H135.914L116.23,214.316a8.023,8.023,0,0,1,2.8-11.354l5.541-3.094a10.352,10.352,0,0,1,13.853,3.536Z" transform="translate(80.447 138.932)" fill="#bbd9ed"/>
        <path id="Path_1171" data-name="Path 1171" d="M104.409,175.434l18.46-9.961a3.4,3.4,0,0,1,2.941-.119,31.667,31.667,0,0,0,11,2.856,3.4,3.4,0,0,1,3.043,1.9,76.164,76.164,0,0,1,5.1,13.122,3.4,3.4,0,0,1-6,2.8l-8.295-11.524a3.4,3.4,0,0,0-4.028-1.139L107.332,181.5a3.4,3.4,0,0,1-4.249-1.462h0A3.4,3.4,0,0,1,104.409,175.434Z" transform="translate(71.854 115.518)" fill="#bbd9ed"/>
        <path id="Path_1172" data-name="Path 1172" d="M144.743,228.32H99.682a.952.952,0,0,0-.952.952h0a.952.952,0,0,0,.952.952h45.061a.969.969,0,0,0,.952-.952h0A.969.969,0,0,0,144.743,228.32Z" transform="translate(69.102 159.774)" fill="#449ff2"/>
        <path id="Path_1173" data-name="Path 1173" d="M144.743,230.76H99.682a.952.952,0,1,0,0,1.9h45.061a.952.952,0,1,0,0-1.9Z" transform="translate(69.102 161.481)" fill="#449ff2"/>
        <path id="Path_1174" data-name="Path 1174" d="M93.815,226.74a4.045,4.045,0,0,0-4.045,4.029c0,2.227,4.045,7.173,4.045,7.173s4.028-4.946,4.028-7.173A4.028,4.028,0,0,0,93.815,226.74Zm0,5.864a1.887,1.887,0,1,1,1.87-1.87,1.887,1.887,0,0,1-1.87,1.87Z" transform="translate(62.832 158.668)" fill="#ef670c"/>
        <path id="Path_1175" data-name="Path 1175" d="M111.358,182.13a4.045,4.045,0,0,0-4.028,4.045c0,2.227,4.028,7.173,4.028,7.173s4.028-4.946,4.028-7.173a4.045,4.045,0,0,0-4.028-4.045Zm0,5.881a1.887,1.887,0,1,1,1.887-1.887A1.887,1.887,0,0,1,111.358,188.011Z" transform="translate(75.12 127.451)" fill="#ef670c"/>
        <path id="Path_1176" data-name="Path 1176" d="M112.121,196.986a.238.238,0,0,1-.2-.119.6.6,0,0,1,0-.629l.323-.493a.255.255,0,0,1,.442,0,.561.561,0,0,1,0,.629l-.306.493a.289.289,0,0,1-.255.119Zm1.394-2.159a.272.272,0,0,1-.221-.119.6.6,0,0,1,0-.629l1.1-1.7a.255.255,0,0,1,.442,0,.561.561,0,0,1,0,.629c-.374.544-.731,1.088-1.088,1.7a.323.323,0,0,1-.255.119Zm2.21-3.264a.255.255,0,0,1-.221-.119.6.6,0,0,1,0-.646c.391-.527.765-1.071,1.139-1.6a.255.255,0,0,1,.442,0,.544.544,0,0,1,0,.629l-1.122,1.581a.255.255,0,0,1-.255.153ZM118,188.4a.323.323,0,0,1-.238-.136.561.561,0,0,1,0-.629c.374-.527.782-1.054,1.156-1.547a.272.272,0,0,1,.459,0,.6.6,0,0,1,0,.629l-1.173,1.547a.238.238,0,0,1-.221.136Zm2.329-3.06a.255.255,0,0,1-.221-.153.561.561,0,0,1,0-.629l1.207-1.5a.255.255,0,0,1,.442,0,.561.561,0,0,1,0,.629c-.391.493-.8.986-1.19,1.5a.306.306,0,0,1-.255.153Zm2.431-2.941a.306.306,0,0,1-.255-.153.629.629,0,0,1,0-.646l1.224-1.428a.272.272,0,0,1,.459,0,.6.6,0,0,1,0,.629l-1.241,1.428a.238.238,0,0,1-.2.17Zm2.482-2.822a.323.323,0,0,1-.255-.17.6.6,0,0,1,0-.629l1.275-1.377a.272.272,0,0,1,.442.1.561.561,0,0,1,0,.629l-1.275,1.343a.238.238,0,0,1-.2.1Zm2.55-2.686a.323.323,0,0,1-.255-.187.6.6,0,0,1,0-.629l1.326-1.309a.255.255,0,0,1,.425.119.6.6,0,0,1,0,.629c-.442.425-.884.85-1.309,1.292a.272.272,0,0,1-.2.085Zm2.635-2.55a.357.357,0,0,1-.272-.2.6.6,0,0,1,.1-.629l1.343-1.224c.153-.136.34,0,.442.136a.629.629,0,0,1-.1.629L130.6,174.26a.272.272,0,0,1-.187.085Zm2.7-2.414a.289.289,0,0,1-.272-.221.544.544,0,0,1,.1-.612l1.377-1.139c.153-.119.357,0,.442.17a.578.578,0,0,1-.119.612c-.459.357-.918.748-1.377,1.122a.2.2,0,0,1-.17.068Zm2.754-2.244a.323.323,0,0,1-.272-.221.527.527,0,0,1,.136-.612l1.411-1.071c.153-.1.34,0,.425.2a.561.561,0,0,1-.136.595l-1.411,1.054Zm2.839-2.074a.323.323,0,0,1-.289-.238.6.6,0,0,1,.153-.612l1.445-.969c.153-.1.34,0,.408.221a.51.51,0,0,1-.153.595l-1.428.969a.187.187,0,0,1-.153.034Zm2.89-1.887a.34.34,0,0,1-.289-.272.544.544,0,0,1,.17-.595l1.462-.884c.17,0,.357,0,.425.255a.51.51,0,0,1-.187.578l-1.445.884Zm51.18-1.224a.222.222,0,0,1-.136,0s-.51-.357-1.445-.884a.527.527,0,0,1-.17-.578.28.28,0,0,1,.408-.255c.952.544,1.462.884,1.5.9a.561.561,0,0,1,.136.612.323.323,0,0,1-.306.2Zm-48.223-.493c-.136,0-.255-.1-.306-.289a.544.544,0,0,1,.187-.578l1.5-.782c.17-.085.357,0,.408.272a.527.527,0,0,1-.187.578l-1.5.782Zm45.265-1.19h-.1l-1.5-.731a.493.493,0,0,1-.2-.561.285.285,0,0,1,.391-.289c.527.238,1.037.476,1.53.731a.544.544,0,0,1,.187.578.357.357,0,0,1-.323.272Zm-42.273-.323c-.136,0-.255-.119-.289-.306a.493.493,0,0,1,.187-.561c.51-.238,1.02-.476,1.53-.68.17,0,.34,0,.391.289a.493.493,0,0,1-.2.561l-1.513.68Zm39.248-1.071h-.085l-1.53-.595a.527.527,0,0,1-.238-.561.3.3,0,0,1,.391-.306l1.547.595a.51.51,0,0,1,.221.561.411.411,0,0,1-.323.306Zm-36.188-.238c-.153,0-.272-.136-.306-.323a.493.493,0,0,1,.221-.561l1.547-.578a.352.352,0,0,1,.374.323.459.459,0,0,1-.221.544c-.51.187-1.037.374-1.53.578Zm33.112-.918h-.085l-1.547-.493a.476.476,0,0,1-.238-.527.319.319,0,0,1,.374-.34l1.564.493c.17,0,.272.306.238.544a.357.357,0,0,1-.323.323Zm-30.035-.187c-.136,0-.272-.136-.306-.357a.476.476,0,0,1,.238-.527c.527-.17,1.054-.34,1.564-.476a.367.367,0,0,1,.374.34c.034.238,0,.493-.238.527l-1.564.476Zm26.907-.748h0l-1.564-.391c-.187,0-.289-.272-.272-.51s.187-.425.374-.374l1.564.391c.187,0,.289.272.255.51a.413.413,0,0,1-.374.374Zm-23.8-.153c-.153,0-.289-.153-.306-.374a.442.442,0,0,1,.255-.51l1.581-.374a.385.385,0,0,1,.357.374.425.425,0,0,1-.272.51l-1.564.374Zm20.635-.561h0l-1.564-.272a.442.442,0,0,1-.289-.493c0-.255.187-.425.357-.391l1.581.272a.425.425,0,0,1,.272.51c-.068.2-.2.459-.357.459Zm-17.491-.119c-.153,0-.289-.17-.306-.391s.1-.476.272-.51l1.6-.255c.17,0,.323.153.34.408a.442.442,0,0,1-.289.493L160,158.5Zm14.329-.391h0l-1.581-.17c-.17,0-.306-.238-.306-.476s.17-.442.34-.425l1.6.17a.442.442,0,0,1,.289.493c-.051.238-.187.408-.34.408Zm-11.151,0c-.17,0-.306-.187-.323-.425s.119-.459.289-.476l1.6-.153c.187,0,.323.17.34.425a.425.425,0,0,1-.306.476,5.609,5.609,0,0,0-1.581.153Zm7.955-.221h-1.6c-.17,0-.306-.2-.306-.459s.136-.442.323-.442h1.6c.17,0,.306.221.306.476a.391.391,0,0,1-.323.357Zm-4.776,0c-.17,0-.306-.187-.306-.442a.391.391,0,0,1,.306-.459h1.6c.17,0,.306.187.323.442a.384.384,0,0,1-.323.442h-1.581Z" transform="translate(78.267 109.859)" fill="#449ff2"/>
        <path id="Path_1177" data-name="Path 1177" d="M53.491,206.107a.425.425,0,0,1-.34-.17.459.459,0,0,1,0-.629s.663-.51,1.853-1.343a.459.459,0,1,1,.527.731c-1.19.833-1.819,1.326-1.819,1.326A.442.442,0,0,1,53.491,206.107Zm3.706-2.6a.459.459,0,0,1-.238-.833l1.9-1.224a.425.425,0,0,1,.612.136.442.442,0,0,1-.136.612l-1.887,1.224A.458.458,0,0,1,57.2,203.506Zm3.825-2.431a.476.476,0,0,1-.391-.221.459.459,0,0,1,.153-.612l1.938-1.173a.453.453,0,1,1,.459.782l-1.921,1.156a.629.629,0,0,1-.238.068Zm3.858-2.295a.459.459,0,0,1-.221-.85l1.989-1.088a.442.442,0,0,1,.612.17.459.459,0,0,1-.187.612L65.1,198.713A.34.34,0,0,1,64.88,198.781Zm3.977-2.159a.442.442,0,0,1-.408-.255.476.476,0,0,1,.187-.595l2.023-1.037a.459.459,0,0,1,.612.2.442.442,0,0,1-.2.595l-2.006,1.037Zm4.028-2.04a.425.425,0,0,1-.391-.255.442.442,0,0,1,.2-.595l2.04-.969a.476.476,0,0,1,.612.221.459.459,0,0,1-.221.595l-2.04.969a.425.425,0,0,1-.17.034ZM77,192.7a.442.442,0,0,1-.408-.272.459.459,0,0,1,.221-.595l2.091-.884a.425.425,0,0,1,.578.238.442.442,0,0,1-.238.578l-2.074.9Zm4.164-1.7a.448.448,0,0,1-.17-.867L83.1,189.3a.442.442,0,0,1,.578.272.459.459,0,0,1-.255.578l-2.091.816Zm4.215-1.7a.459.459,0,0,1-.425-.289.442.442,0,0,1,.272-.578l2.142-.748a.425.425,0,0,1,.561.272.442.442,0,0,1-.272.578l-2.125.748Zm4.283-1.462a.441.441,0,0,1-.136-.867l2.159-.68a.459.459,0,1,1,.255.867l-2.142.663Zm4.317-1.292a.442.442,0,0,1-.425-.323.459.459,0,0,1,.306-.561l2.193-.578a.447.447,0,1,1,.221.867l-2.176.578Zm4.368-1.122a.442.442,0,0,1-.425-.357.425.425,0,0,1,.323-.527l2.227-.51a.459.459,0,0,1,.187.884l-2.193.493Zm42.494-.612h-.1c-.731-.17-1.479-.34-2.21-.476a.459.459,0,0,1,.187-.884l2.21.476a.459.459,0,0,1,.34.544.442.442,0,0,1-.357.374Zm-38.109-.34a.459.459,0,0,1-.442-.374.442.442,0,0,1,.357-.51l2.227-.408a.442.442,0,0,1,.527.357.476.476,0,0,1-.374.527l-2.21.391Zm33.673-.561h0c-.731-.119-1.479-.255-2.227-.357a.447.447,0,1,1,.136-.884q1.122.153,2.244.357a.465.465,0,0,1-.085.918Zm-29.219-.2a.442.442,0,0,1-.442-.391.459.459,0,0,1,.374-.51l2.244-.306a.459.459,0,1,1,.119.9l-2.227.306Zm24.766-.442h0l-2.227-.238a.459.459,0,0,1-.408-.476.442.442,0,0,1,.493-.408l2.261.238a.462.462,0,0,1-.051.918Zm-20.278-.119a.476.476,0,0,1-.459-.408.442.442,0,0,1,.408-.493c.748-.085,1.513-.153,2.261-.2a.442.442,0,1,1,0,.884l-2.244.2Zm15.774-.306h0L125.2,182.7a.459.459,0,0,1-.425-.459.442.442,0,0,1,.476-.425,14.4,14.4,0,0,1,2.261.119.459.459,0,0,1,.408.476.442.442,0,0,1-.408.459Zm-11.286,0a.442.442,0,0,1-.442-.425.425.425,0,0,1,.425-.459c.748,0,1.513-.085,2.261-.1a.459.459,0,0,1,.476.425.442.442,0,0,1-.442.459l-2.244.1Zm6.8-.136h-2.21a.442.442,0,0,1-.442-.442.425.425,0,0,1,.442-.459h2.261a.442.442,0,1,1,0,.884Z" transform="translate(37.12 127.22)" fill="#449ff2"/>
        <path id="Path_1178" data-name="Path 1178" d="M183.247,168.546s2.992-3.774,1.428-5.966c-.34-.493-2.295,1.7-2.295,1.7A40.247,40.247,0,0,0,183.247,168.546Z" transform="translate(127.638 113.72)" fill="#3b9fab"/>
        <path id="Path_1179" data-name="Path 1179" d="M174.674,303.95c0-17.474,14.6-31.65,32.6-31.65h80.042c18,0,32.6,14.176,32.6,31.65l7.224,20.856c0,3.094-9.791,1.7-12.986,1.7H180.419c-3.179,0-14.159-1.02-14.159-4.1l8.5-18.392" transform="translate(116.358 190.55)" fill="#bff2ee"/>
        <path id="Path_1180" data-name="Path 1180" d="M253.8,376.818h41c10.2,0,18.426-7.785,18.426-17.389v-50.5c0-9.6,8.244-17.389,18.426-17.389h0c10.2,0,18.426,7.785,18.426,17.389v67.328c0,9.621,8.244,17.406,18.426,17.406h1.19c10.2,0,18.426-7.785,18.426-17.406V322.391a18.7,18.7,0,0,1,18.426-18.171H417.4" transform="translate(177.616 204.014)" fill="none" stroke="#108a86" stroke-miterlimit="10" stroke-width="4"/>
        <path id="Path_1181" data-name="Path 1181" d="M188.474,288.2h29.593a9.264,9.264,0,0,1,9.264,9.264V333.55a5.626,5.626,0,0,1-5.626,5.626H184.836a5.626,5.626,0,0,1-5.626-5.626V297.464a9.264,9.264,0,0,1,9.264-9.264Z" transform="translate(125.42 201.676)" fill="#108a86"/>
        <path id="Path_1182" data-name="Path 1182" d="M226.353,288.2h33.112a7.513,7.513,0,0,1,7.513,7.513V333.55a5.626,5.626,0,0,1-5.626,5.626H224.466a5.626,5.626,0,0,1-5.626-5.626V295.7a7.513,7.513,0,0,1,7.513-7.5Z" transform="translate(153.152 201.677)" fill="#108a86"/>
        <path id="Path_1183" data-name="Path 1183" d="M231.141,283H244.57a5.3,5.3,0,0,1,5.3,5.3V326.14a3.4,3.4,0,0,1-3.4,3.4H229.34a3.4,3.4,0,0,1-3.4-3.4V288.371A5.3,5.3,0,0,1,231.141,283Z" transform="translate(158.12 198.038)" fill="#108a86"/>
        <path id="Path_1184" data-name="Path 1184" d="M191.586,283h13.428a5.3,5.3,0,0,1,5.3,5.3V326.14a3.4,3.4,0,0,1-3.4,3.4H189.7a3.4,3.4,0,0,1-3.4-3.4V288.371a5.3,5.3,0,0,1,5.3-5.3Z" transform="translate(130.381 198.038)" fill="#108a86"/>
        <ellipse id="Ellipse_149" data-name="Ellipse 149" cx="82.762" cy="11.456" rx="82.762" ry="11.456" transform="translate(279.116 505.021)" fill="#108a86"/>
        <circle id="Ellipse_150" data-name="Ellipse 150" cx="15.978" cy="15.978" r="15.978" transform="translate(380.474 502.115)" fill="none" stroke="#2e6660" stroke-miterlimit="10" stroke-width="3"/>
        <path id="Path_1185" data-name="Path 1185" d="M154.85,319.527v34.539H354.54V319.527a18.816,18.816,0,0,0-18.8-18.816H173.65A18.817,18.817,0,0,0,154.85,319.527Z" transform="translate(108.373 210.431)" fill="#37bfce"/>
        <path id="Path_1186" data-name="Path 1186" d="M284.145,306.262,263,307.4V297.032a4.2,4.2,0,0,1,4.47-4.2l17,1.088a4.2,4.2,0,0,1,3.926,4.5l-.289,3.96A4.215,4.215,0,0,1,284.145,306.262Z" transform="translate(184.054 204.913)" fill="#1c94a6"/>
        <path id="Path_1187" data-name="Path 1187" d="M153.589,306.262,174.7,307.4V297.032a4.2,4.2,0,0,0-4.47-4.2l-17,1.088a4.181,4.181,0,0,0-3.926,4.5l.289,3.96a4.215,4.215,0,0,0,3.995,3.876Z" transform="translate(104.484 204.913)" fill="#1c94a6"/>
        <path id="Path_1188" data-name="Path 1188" d="M183.346,297.69a1.411,1.411,0,0,0,.357-.8l.7-1.394c5.1-11.9,15.791-19.105,27.57-19.105h74.79c11.779,0,22.505,7.275,27.57,19.122L326.4,323.186h8.958l-11.609-28.3c-5.932-14.516-18.494-23.695-32.3-23.695h-84.8c-13.785,0-26.347,9.162-32.3,23.678l-.816,1.938a1.92,1.92,0,0,1-.408,1l-10.3,25.174c4.3,0,6.221,0,10.5-.085Z" transform="translate(113.958 189.773)" fill="#32b4c3"/>
        <path id="Path_1189" data-name="Path 1189" d="M364.9,269.1h34a15.4,15.4,0,0,1,15.4,15.4V405.405H349.5V284.5A15.4,15.4,0,0,1,364.9,269.1Z" transform="translate(244.585 188.311)" fill="#30c6bc"/>
        <rect id="Rectangle_474" data-name="Rectangle 474" width="26.737" height="37.65" rx="3.75" transform="translate(268.119 575.579)" fill="#2e6660"/>
        <rect id="Rectangle_475" data-name="Rectangle 475" width="26.737" height="37.65" rx="3.75" transform="translate(430.158 575.579)" fill="#2e6660"/>
        <path id="Path_1190" data-name="Path 1190" d="M364.356,274.05h35.032a14.856,14.856,0,0,1,14.856,14.856V410.355H349.5V288.906a14.856,14.856,0,0,1,14.856-14.856Z" transform="translate(244.585 191.775)" fill="#00b2c1"/>
        <g id="Group_143" data-name="Group 143" transform="translate(263.223 511.141)" clip-path="url(#clip-path)">
          <path id="Path_1191" data-name="Path 1191" d="M154.85,295.775l1.5,30.273c22.862,14.958,184.528,13.87,197.327-3.4l.867-26.941a18.817,18.817,0,0,0-18.8-18.817H173.65a18.816,18.816,0,0,0-18.8,18.885Z" transform="translate(-154.85 -317.379)" fill="#1c94a6"/>
        </g>
        <path id="Path_1193" data-name="Path 1193" d="M355.513,319.37l.221,1.921a17.185,17.185,0,0,1-10.522,13.6,34,34,0,0,1-10.2,2.482c-51.418,4.555-104.23,4.147-158.079,0a34.183,34.183,0,0,1-10.2-2.482c-3.672-1.7-8.108-3.162-9.893-10.386l-1.02-4.963a3.638,3.638,0,0,0-3.162,3.807v31.99a19.259,19.259,0,0,0,19.276,18.952c55.957,2.635,111.539,2.635,167.479,0a18.7,18.7,0,0,0,18.528-18.884v-31.99a3.79,3.79,0,0,0-2.431-4.045Z" transform="translate(106.839 223.488)" fill="#1c94a6"/>
        <path id="Path_1194" data-name="Path 1194" d="M191.7,322.974a9.57,9.57,0,0,1,5.235,8.924c-.493,4.1-4.2,6.34-8.244,7.156a46.1,46.1,0,0,1-20.669-1.87c-5.1-2.04-8.5-4.164-9.6-8.125-2.6-8.7-2.261-19.479,8.958-15.91A127.485,127.485,0,0,1,191.7,322.974Z" transform="translate(109.937 218.644)" fill="#fff"/>
        <path id="Path_1195" data-name="Path 1195" d="M251.869,322.974a9.57,9.57,0,0,0-5.235,8.924c.493,4.1,4.2,6.34,8.244,7.156a46.1,46.1,0,0,0,20.669-1.87c5.1-2.04,8.414-4.164,9.6-8.125,2.6-8.7,2.261-19.479-8.958-15.91A127.483,127.483,0,0,0,251.869,322.974Z" transform="translate(172.596 218.644)" fill="#fff"/>
        <path id="Path_1196" data-name="Path 1196" d="M260.981,351.407h-1.564a6.357,6.357,0,0,1-6.357-6.357h0a6.357,6.357,0,0,1,6.357-6.34h1.564a6.34,6.34,0,0,1,6.34,6.34h0a6.34,6.34,0,0,1-6.34,6.357Z" transform="translate(177.098 237.022)" fill="#fff"/>
        <path id="Path_1197" data-name="Path 1197" d="M173.084,351.407H171.52a6.34,6.34,0,0,1-6.34-6.357h0a6.34,6.34,0,0,1,6.34-6.34h1.564a6.357,6.357,0,0,1,6.357,6.34h0a6.357,6.357,0,0,1-6.357,6.357Z" transform="translate(115.602 237.022)" fill="#fff"/>
        <circle id="Ellipse_151" data-name="Ellipse 151" cx="28.488" cy="28.488" r="28.488" transform="translate(597.909 478.981)" fill="#fff"/>
        <rect id="Rectangle_476" data-name="Rectangle 476" width="82.031" height="11.881" rx="1.23" transform="translate(585.484 599.512)" fill="#108a86"/>
        <path id="Path_1198" data-name="Path 1198" d="M344.44,356.2h82.031v3.842a2.091,2.091,0,0,1-2.091,2.091h-77.85a2.091,2.091,0,0,1-2.091-2.091Z" transform="translate(241.044 249.261)" fill="#2e6660"/>
        <g id="Group_144" data-name="Group 144" transform="translate(597.909 478.981)" clip-path="url(#clip-path-2)">
          <line id="Line_33" data-name="Line 33" x2="32.466" transform="translate(-7.445 29.066)" fill="none" stroke="#108a86" stroke-miterlimit="10" stroke-width="4"/>
          <path id="Path_1199" data-name="Path 1199" d="M384.439,303.05h-10.2a1.921,1.921,0,0,0-1.921,1.921h0a1.938,1.938,0,0,0,1.921,1.921h10.2a1.921,1.921,0,0,0,1.921-1.921h0a1.9,1.9,0,0,0-1.921-1.921Z" transform="translate(-337.356 -266.913)" fill="#2e6660"/>
          <path id="Path_1200" data-name="Path 1200" d="M384.44,294h-10.2a1.938,1.938,0,0,0-1.921,1.921h0a1.921,1.921,0,0,0,1.921,1.921h10.2a1.9,1.9,0,0,0,1.921-1.921h0A1.921,1.921,0,0,0,384.44,294Z" transform="translate(-337.356 -273.246)" fill="#2e6660"/>
          <path id="Path_1201" data-name="Path 1201" d="M383.758,290.26H372.9a15.2,15.2,0,0,0,0,30.375h10.862Z" transform="translate(-347.23 -275.863)" fill="#49699a"/>
        </g>
        <path id="Path_1202" data-name="Path 1202" d="M281.774,354.24H194.014a15.57,15.57,0,0,1-14.363-9.111l-1.207-2.771a3.518,3.518,0,0,1,3.4-4.827H293.91a3.518,3.518,0,0,1,3.4,4.827l-1.207,2.771A15.57,15.57,0,0,1,281.774,354.24Z" transform="translate(124.707 236.195)" fill="#fff"/>
        <path id="Path_1203" data-name="Path 1203" d="M265.523,331.43H198.6a11.9,11.9,0,0,1-10.963-7.071l-.918-2.159a2.72,2.72,0,0,1,2.6-3.74H274.8a2.72,2.72,0,0,1,2.6,3.74l-.918,2.159a11.9,11.9,0,0,1-10.964,7.071Z" transform="translate(130.537 222.851)" fill="#108a86"/>
        <line id="Line_34" data-name="Line 34" y2="10.471" transform="translate(361.182 466.165)" fill="none" stroke="#108a86" stroke-miterlimit="10" stroke-width="2"/>
        <path id="Path_1204" data-name="Path 1204" d="M214.849,286.646c3.009-2.924,2.244-8.346,2.244-8.346s-5.643-.7-8.635,2.244-2.244,8.346-2.244,8.346S211.858,289.569,214.849,286.646Z" transform="translate(144.259 194.698)" fill="#108a86"/>
        <path id="Path_1205" data-name="Path 1205" d="M219.159,286.324c0-4.385-4.657-8.074-4.657-8.074s-4.691,3.4-4.691,7.819,4.64,8.057,4.64,8.057S219.142,290.726,219.159,286.324Z" transform="translate(146.833 194.714)" fill="#72b545"/>
        <g id="Group_145" data-name="Group 145" transform="translate(317.06 541.31)" clip-path="url(#clip-path-3)">
          <line id="Line_35" data-name="Line 35" x2="98.417" transform="translate(-4.034 1.803)" fill="none" stroke="#2e6660" stroke-miterlimit="10" stroke-width="1"/>
          <line id="Line_36" data-name="Line 36" x2="98.417" transform="translate(-4.034 3.894)" fill="none" stroke="#2e6660" stroke-miterlimit="10" stroke-width="1"/>
          <line id="Line_37" data-name="Line 37" x2="98.417" transform="translate(-4.034 6.001)" fill="none" stroke="#2e6660" stroke-miterlimit="10" stroke-width="1"/>
          <line id="Line_38" data-name="Line 38" x2="98.417" transform="translate(-4.034 8.092)" fill="none" stroke="#2e6660" stroke-miterlimit="10" stroke-width="1"/>
          <line id="Line_39" data-name="Line 39" x2="98.417" transform="translate(-4.034 11.237)" fill="none" stroke="#2e6660" stroke-miterlimit="10" stroke-width="1"/>
        </g>
        <g id="Group_146" data-name="Group 146" transform="translate(302.898 573.724)" clip-path="url(#clip-path-4)">
          <line id="Line_40" data-name="Line 40" x2="124.577" transform="translate(-2.432 1.855)" fill="none" stroke="#108a86" stroke-miterlimit="10" stroke-width="1"/>
          <line id="Line_41" data-name="Line 41" x2="124.577" transform="translate(-2.432 3.946)" fill="none" stroke="#108a86" stroke-miterlimit="10" stroke-width="1"/>
          <line id="Line_42" data-name="Line 42" x2="124.577" transform="translate(-2.432 6.037)" fill="none" stroke="#108a86" stroke-miterlimit="10" stroke-width="1"/>
          <line id="Line_43" data-name="Line 43" x2="124.577" transform="translate(-2.432 8.128)" fill="none" stroke="#108a86" stroke-miterlimit="10" stroke-width="1"/>
          <line id="Line_44" data-name="Line 44" x2="124.577" transform="translate(-2.432 10.218)" fill="none" stroke="#108a86" stroke-miterlimit="10" stroke-width="1"/>
          <line id="Line_45" data-name="Line 45" x2="124.577" transform="translate(-2.432 12.326)" fill="none" stroke="#108a86" stroke-miterlimit="10" stroke-width="1"/>
          <line id="Line_46" data-name="Line 46" x2="124.577" transform="translate(-2.432 15.454)" fill="none" stroke="#108a86" stroke-miterlimit="10" stroke-width="1"/>
        </g>
        <rect id="Rectangle_477" data-name="Rectangle 477" width="22.437" height="39.265" rx="1.08" transform="translate(615.281 548.587)" fill="none" stroke="#2e6660" stroke-miterlimit="10" stroke-width="2"/>
        <rect id="Rectangle_478" data-name="Rectangle 478" width="18.562" height="4.538" rx="0.65" transform="translate(617.219 580.713)" fill="#005c7c"/>
        <rect id="Rectangle_479" data-name="Rectangle 479" width="18.562" height="4.538" rx="0.65" transform="translate(617.219 574.763)" fill="#005c7c"/>
        <rect id="Rectangle_480" data-name="Rectangle 480" width="18.562" height="4.538" rx="0.65" transform="translate(617.219 568.814)" fill="#005c7c"/>
        <rect id="Rectangle_481" data-name="Rectangle 481" width="18.562" height="4.538" rx="0.65" transform="translate(617.219 562.865)" fill="#005c7c"/>
        <rect id="Rectangle_482" data-name="Rectangle 482" width="18.562" height="4.538" rx="0.65" transform="translate(617.219 556.916)" fill="#fff"/>
        <rect id="Rectangle_483" data-name="Rectangle 483" width="18.562" height="4.538" rx="0.65" transform="translate(617.219 550.966)" fill="#fff"/>
        <path id="Path_1208" data-name="Path 1208" d="M367.6,320.14h5.1a1.258,1.258,0,0,1,1.258,1.258v2.38H366.34V321.4a1.258,1.258,0,0,1,1.258-1.258Z" transform="translate(256.369 224.027)" fill="#2e6660"/>
        <path id="Path_1209" data-name="Path 1209" d="M205.64,318.439H191.77L211.5,276.2h13.87Z" transform="translate(134.209 193.279)" fill="#fff" opacity="0.32"/>
        <path id="Path_1210" data-name="Path 1210" d="M229,318.509H223.49l19.734-42.239h5.507Z" transform="translate(156.406 193.328)" fill="#fff" opacity="0.32"/>
        <path id="Path_1211" data-name="Path 1211" d="M229.97,318.439H207.72L227.454,276.2H249.7Z" transform="translate(145.371 193.279)" fill="#fff" opacity="0.32"/>
        <path id="Path_1212" data-name="Path 1212" d="M352.841,46.112H236.61l7.7-33.282H345.141Z" transform="translate(165.587 8.979)" fill="#4287c6"/>
        <text id="FOR_SALE" data-name="FOR SALE" transform="translate(419.178 40.744)" fill="#fff" font-size="17" font-family="SegoeUI-Bold, Segoe UI" font-weight="700"><tspan x="0" y="0">FOR SALE</tspan></text>
        <path id="Path_1213" data-name="Path 1213" d="M333.72,23.94h17.916l-8.227,22.811Z" transform="translate(233.542 16.754)" fill="#fdfefe"/>
        <path id="Path_1214" data-name="Path 1214" d="M346.783,28.784l-10.573.187v-8.6h10.573Z" transform="translate(235.285 14.256)" fill="#f2c5af"/>
        <path id="Path_1215" data-name="Path 1215" d="M336.21,22.308a14.04,14.04,0,0,0,5.966,1.292,13.6,13.6,0,0,0,4.606-.884V20.37H336.21Z" transform="translate(235.285 14.256)" fill="#efa689"/>
        <path id="Path_1216" data-name="Path 1216" d="M348.515,7.018c.595.459,1.275.816,1.853,1.292a5.779,5.779,0,0,1,1.071,6.7,13.6,13.6,0,0,1-5.1,5.269,24.444,24.444,0,0,1-2.074-7.683,9.484,9.484,0,0,1,.952-4.674c.289-.561.833-1.7,1.445-1.955C347.682,5.539,347.818,6.474,348.515,7.018Z" transform="translate(240.912 4.1)" fill="#3a73bb"/>
        <ellipse id="Ellipse_153" data-name="Ellipse 153" cx="4.011" cy="3.875" rx="4.011" ry="3.875" transform="translate(584.022 20.84)" fill="#f2c5af"/>
        <path id="Path_1217" data-name="Path 1217" d="M337.406,16.186a4.028,4.028,0,1,1-4.028-3.875A3.96,3.96,0,0,1,337.406,16.186Z" transform="translate(230.485 8.615)" fill="#f2c5af"/>
        <path id="Path_1218" data-name="Path 1218" d="M348.606,12.413a3.705,3.705,0,0,0-1.071-.153,3.875,3.875,0,1,0,0,7.751,4.4,4.4,0,0,0,1.071-.136Z" transform="translate(240.498 8.58)" fill="#efa689"/>
        <path id="Path_1219" data-name="Path 1219" d="M349.137,4.63h-15.3v6c0,1.581-.986,3.009-1.1,4.589a.476.476,0,0,0,0,.153,12.68,12.68,0,0,0-.884,5.9,13.36,13.36,0,0,0,13.6,11.9,14.108,14.108,0,0,0,10.335-4.9,2.5,2.5,0,0,0,.595-1.615V6.381a21.247,21.247,0,0,0-7.241-1.751Z" transform="translate(232.199 3.241)" fill="#f2c5af"/>
        <path id="Path_1220" data-name="Path 1220" d="M348.043,10.961a7.309,7.309,0,0,1-2.363.374,11.167,11.167,0,0,1-7.275-2.278,2.516,2.516,0,0,1-1.173-2.312c.255-.969,1.394-1.411,2.38-1.7a26.684,26.684,0,0,1,3.638-.629,11.78,11.78,0,0,1,3.281,0,9.807,9.807,0,0,1,2.856,1.071c.527.289,2.38,1.122,2.516,1.7s-1.224,1.7-1.615,2.159a6.068,6.068,0,0,1-2.244,1.615Z" transform="translate(235.996 3.012)" fill="#efa689"/>
        <path id="Path_1221" data-name="Path 1221" d="M334.4,8.34v3.672l1.122,1.462-.765,4.725h-1.241a20.77,20.77,0,0,0-1.292-2.142A5.218,5.218,0,0,1,331,12.963a6.136,6.136,0,0,1,.561-2.448A4.538,4.538,0,0,1,334.4,8.34Z" transform="translate(231.639 5.837)" fill="#0d458d"/>
        <path id="Path_1222" data-name="Path 1222" d="M355.9,8.04c-3.179-1.445-4.5-5.609-7.309-7.054a9.162,9.162,0,0,0-9.077.459,7.955,7.955,0,0,0-3.4,8.091,12.561,12.561,0,0,0,9.859,3.74C353.013,12.851,354.712,9.5,355.9,8.04Z" transform="translate(235.123 0.001)" fill="#3a73bb"/>
        <path id="Path_1223" data-name="Path 1223" d="M331.143,16.248V11.71s-.782-3.926,0-5.49c1.411-2.975,5.49-2.6,6.136-2.448l3.077.765c-.119.935.714,1.955,0,2.584s-2.516.7-3.247,1.1c-1.853,1.054-2.329,3.4-2.414,5.473a7.863,7.863,0,0,1-.238,1.989,2.294,2.294,0,0,1-1.309,1.462,1.8,1.8,0,0,1-2.006-.9Z" transform="translate(231.496 2.569)" fill="#3a73bb"/>
        <path id="Path_1224" data-name="Path 1224" d="M336.92,16.74a5.218,5.218,0,0,0,10.2,0Z" transform="translate(235.782 11.715)" fill="#c6667d"/>
        <path id="Path_1227" data-name="Path 1227" d="M336.92,16.74a4.792,4.792,0,0,0,.561,1.7h7.088a1.19,1.19,0,0,0,1.207-1.173v-.442Z" transform="translate(235.782 11.715)" fill="#fff"/>
        <path id="Path_1230" data-name="Path 1230" d="M347.794,11.763c-.578-.187-1.224-.561-1.19-1.139a1.138,1.138,0,0,1,.374-.68,4.827,4.827,0,0,1,2.091-.969,13.154,13.154,0,0,1-2.278-.578c-.629-.221-1.343-.612-1.394-1.275a1.19,1.19,0,0,1,.7-1.054,2.686,2.686,0,0,1,1.326-.255,7.36,7.36,0,0,1,2.567.527,5.1,5.1,0,0,1-2.839-2.38,1.426,1.426,0,0,1,0-1.7,1.445,1.445,0,0,1,1.1,0,8.857,8.857,0,0,1,3.128,1.411A9.265,9.265,0,0,0,348.593.986a9.162,9.162,0,0,0-9.077.459,7.955,7.955,0,0,0-3.4,8.091,12.561,12.561,0,0,0,9.859,3.74,15.3,15.3,0,0,0,5.014-1.054,10.555,10.555,0,0,1-3.2-.459Z" transform="translate(235.123 0.001)" fill="#0d458d"/>
        <path id="Path_1231" data-name="Path 1231" d="M332.723,13.14a2.474,2.474,0,1,0,0,4.946Z" transform="translate(231.072 9.196)" fill="#efa689"/>
        <path id="Path_1232" data-name="Path 1232" d="M331.415,6.865l.8-.408a.357.357,0,0,1,.187,0,.306.306,0,0,1,.255.323.917.917,0,0,1-.187.391,1.8,1.8,0,0,0-.408,1.1.765.765,0,0,0,.8.731,1.411,1.411,0,0,0,.731-.544,3.535,3.535,0,0,1,1.309-.9,4.437,4.437,0,0,0,1.394-.68.527.527,0,0,0,.2-.51c-.085-.238-.408-.289-.663-.272a1,1,0,0,1-.748-.119c-.085-.459.782-.476.663-.986s-1.411-.748-1.836-.714a3.807,3.807,0,0,0-2.006.9,1.7,1.7,0,0,0-.561.833S331.279,6.933,331.415,6.865Z" transform="translate(231.87 2.995)" fill="#5c86ba"/>
        <path id="Path_1233" data-name="Path 1233" d="M330.257,56.94h42.205L385.7,160.116H375.573L354.989,71.779l-7.8-.425-13.02,88.762H324.75Z" transform="translate(227.265 39.846)" fill="#204070"/>
        <path id="Path_1234" data-name="Path 1234" d="M361.907,34.115,371.6,56.926l8.227-23.695,32.33,1.1,24-24.936,9.4,4.232L419.1,47.135l-24.426,2.7-.306,40.37H352.167l-1.156-38.84L326.858,44.6,293.44,19.837l4.487-7.6,35.049,21.179,21.791,1.938Z" transform="translate(205.355 6.579)" fill="#204070"/>
        <path id="Path_1235" data-name="Path 1235" d="M342.137,26.223l-3.994,5.966-3.383-6.8,2.465.068Z" transform="translate(234.27 17.768)" fill="#c7d7e2"/>
        <path id="Path_1236" data-name="Path 1236" d="M339.1,26.685l3.519,5.031,3.162-5.66-1.326-1.326Z" transform="translate(237.307 17.307)" fill="#c7d7e2"/>
        <path id="Path_1237" data-name="Path 1237" d="M343.363,35.429l-1.717-4.045,1.632-3.247-2.618-2.159-2.176-.238-.578,2.4,1.632,3.247-1.717,4.045-.952,14.72,3.79,3.655,3.655-3.655Z" transform="translate(235.747 18.013)" fill="#7aa6c3"/>
        <path id="Path_1238" data-name="Path 1238" d="M338.048,28.967l2.04-1.564,2.091,1.87.68-1.36-2.55-1.853h-1.037l-1.224.663-.578.952v.391Z" transform="translate(236.166 18.237)" fill="#0a4878"/>
        <path id="Path_1239" data-name="Path 1239" d="M335.559,21.822l5,3.06,1.394,2.533,1.19-2.312,5.847-3.723.663,5.864-4.81,4.5-2.788-2.074-2.8,1.9L334.76,28.2Z" transform="translate(234.27 14.962)" fill="#fdfefe"/>
        <path id="Path_1240" data-name="Path 1240" d="M377.45,15.857c.2-.391,4.725-8.278,6.51-11.422a2.465,2.465,0,0,1,2.21-1.224l9.026.357.731,6.51-6.221,5.014s-7.53,4.674-7.768,4.5S377.45,15.857,377.45,15.857Z" transform="translate(264.143 2.247)" fill="#f2c5af"/>
        <path id="Path_1241" data-name="Path 1241" d="M335.931,23.94l-5.371,5.2,4.453,1.955-3.043,8.482,13.8,27.553-.153-20.38Z" transform="translate(231.331 16.754)" fill="#143658"/>
        <path id="Path_1242" data-name="Path 1242" d="M347.647,23.42l5.932,4.13-2.7,1.853,3.57,3.145L339.573,68.124l-.153-21.009Z" transform="translate(237.531 16.39)" fill="#143658"/>
        <path id="Path_1243" data-name="Path 1243" d="M375.42,12.885l8.958,6.221,3.808-5.473-9.4-4.232Z" transform="translate(262.723 6.579)" fill="#fff"/>
        <path id="Path_1244" data-name="Path 1244" d="M391.167,13.179,390.079,10.7a1.155,1.155,0,0,0-.238-.391l-.221-.238a1.377,1.377,0,0,0-1.394-.408l-.391.1-2.244.629-.391.1a1.428,1.428,0,0,0-1,1.071v.323a1.4,1.4,0,0,0,0,.459l.357,2.669a6.22,6.22,0,0,0,.748,2.261l1.377,2.414a1.207,1.207,0,0,0,1.394.578l.289-.085,2.261-.629h.289a1.224,1.224,0,0,0,.9-1.207V15.559a6.8,6.8,0,0,0-.646-2.38Zm-2.907-1.7-2.125.595a.544.544,0,0,1-.663-.374.527.527,0,0,1,.374-.663l2.125-.595a.561.561,0,0,1,.663.374.527.527,0,0,1-.374.731Z" transform="translate(268.852 6.726)" fill="#303030"/>
        <path id="Path_1245" data-name="Path 1245" d="M399.124,12.847l.357.952a.459.459,0,0,1-.323.612l-.952.238a.425.425,0,0,1-.323,0l-8.363-4.266,1.02-2.023,8.295,4.164a.459.459,0,0,1,.289.323Z" transform="translate(272.59 5.851)" fill="#fdfefe"/>
        <path id="Path_1246" data-name="Path 1246" d="M393.145,7.181l-2.737-1.139a1.7,1.7,0,0,0-2.074.782l-1.7,3.4a1.7,1.7,0,0,0,.595,2.125l2.5,1.564a1.7,1.7,0,0,0,2.329-.646l1.921-3.824a1.7,1.7,0,0,0-.833-2.261Zm-3.247.85a.238.238,0,0,1,.1.323l-1.224,2.4a.255.255,0,0,1-.323.119l-.527-.272a.255.255,0,0,1-.119-.34l1.258-2.4a.255.255,0,0,1,.34-.1Z" transform="translate(270.461 4.157)" fill="#303030"/>
        <path id="Path_1247" data-name="Path 1247" d="M391.14,9.17l-.34.663.884.459-.187.357,1.122.578.187-.34.595.306-.136.272,1.564.8.187-.374,1.53.782-.2.391,1.6.816.374-.1a.459.459,0,0,0,.323-.612v-.187l-2.822-1.445-1.7-.9-.2.425-1.071-.476.272-.544-1.1-.561v.1Z" transform="translate(273.485 6.418)" fill="#8badc4"/>
        <path id="Path_1248" data-name="Path 1248" d="M389.8,7.188a3.723,3.723,0,1,1-5.252-.238,3.723,3.723,0,0,1,5.252.238Z" transform="translate(268.262 4.185)" fill="none" stroke="#6893b1" stroke-miterlimit="10" stroke-width="1"/>
        <path id="Path_1249" data-name="Path 1249" d="M305.5,11.406c-.459,0-7.87-.816-8.312-.816s-13.819,1.972-13.819,1.972-1.02,1.7-.68,1.785,6.476.425,6.476.425l3.4-.17-3.4,3.247,2.822,1.938,6.068-3.926L303,18.341l4.266-3.5Z" transform="translate(197.783 7.412)" fill="#f2c5af"/>
        <path id="Path_1250" data-name="Path 1250" d="M364.557,117.99l1.7,3.264,15.672,1.87s-.408,3.179-.8,3.043-24.562-.391-24.562-.391l-1.6-8.635Z" transform="translate(248.412 81.973)" fill="#303030"/>
        <path id="Path_1251" data-name="Path 1251" d="M331.772,117.99l-1.7,3.264-15.672,1.87s.408,3.179.8,3.043,24.562-.391,24.562-.391l1.6-8.635Z" transform="translate(220.023 81.973)" fill="#303030"/>
        <path id="Path_1252" data-name="Path 1252" d="M297.927,11.07l4.215,2.55-4.266,8.329-4.436-3.281Z" transform="translate(205.355 7.748)" fill="#fdfefe"/>
        <ellipse id="Ellipse_154" data-name="Ellipse 154" cx="3.247" cy="2.856" rx="3.247" ry="2.856" transform="translate(647.05 11.356)" fill="#f2c5af"/>
        <rect id="Rectangle_484" data-name="Rectangle 484" width="7.275" height="2.465" transform="translate(589.954 57.913)" fill="#fdfefe"/>
        <rect id="Rectangle_485" data-name="Rectangle 485" width="1.462" height="4.368" transform="translate(592.861 55.006)" fill="#474646"/>
        <path id="Path_1253" data-name="Path 1253" d="M225.061,59.877s-.476-8.21-2.669-10.2c-2.669-2.431-17.491,0-20.89,4.113s.969,10.692,3.637,11.9,12.153,1.7,12.153,1.7Z" transform="translate(140.15 34.087)" fill="#005c7c"/>
        <path id="Path_1254" data-name="Path 1254" d="M224.354,56.725c-.714,0-6.306-1.445-6.306-1.445l-7.768,7.53,12.867,2.907Z" transform="translate(147.162 38.685)" fill="#414246"/>
        <path id="Path_1255" data-name="Path 1255" d="M222.027,49.679c-2.669-2.431-17.491,0-20.89,4.113a4.645,4.645,0,0,0-.357.51,9.723,9.723,0,0,0,3.773,3.858,27.774,27.774,0,0,0,7.887,2.788l7.258,1.7c.578.136,1.19.272,1.8.357l3.281-3.179S224.22,51.667,222.027,49.679Z" transform="translate(140.514 34.087)" fill="#00b2c1"/>
        <path id="Path_1256" data-name="Path 1256" d="M211.472,57.808q-5.38-1.4-10.862-2.278a10.5,10.5,0,0,0,4.181,5.337h0l5.864-1.326a1.819,1.819,0,0,0,1.1-.561C212.016,58.624,211.863,57.91,211.472,57.808Z" transform="translate(140.395 38.86)" fill="#f9b52b"/>
        <path id="Path_1257" data-name="Path 1257" d="M322.66,59.877s.476-8.21,2.686-10.2c2.669-2.431,17.474,0,20.873,4.113s-.969,10.692-3.638,11.9-12.136,1.7-12.136,1.7Z" transform="translate(225.803 34.087)" fill="#005c7c"/>
        <path id="Path_1258" data-name="Path 1258" d="M319,56.725c.731,0,6.306-1.445,6.306-1.445l7.785,7.53-12.884,2.907Z" transform="translate(223.242 38.685)" fill="#414246"/>
        <path id="Path_1259" data-name="Path 1259" d="M325.346,49.679c2.669-2.431,17.474,0,20.873,4.113a4.651,4.651,0,0,1,.357.51,9.723,9.723,0,0,1-3.689,3.858A27.775,27.775,0,0,1,335,60.948l-7.241,1.7c-.578.136-1.19.272-1.8.357l-3.3-3.179S323.136,51.667,325.346,49.679Z" transform="translate(225.803 34.087)" fill="#00b2c1"/>
        <path id="Path_1260" data-name="Path 1260" d="M330.714,57.808c3.57-.935,7.207-1.7,10.862-2.278a10.521,10.521,0,0,1-4.2,5.337h0l-5.864-1.326a1.87,1.87,0,0,1-1.122-.561C330.136,58.624,330.289,57.91,330.714,57.808Z" transform="translate(231.126 38.86)" fill="#f9b52b"/>
        <path id="Path_1261" data-name="Path 1261" d="M206.75,98.82h30.6v36.749a7.377,7.377,0,0,1-7.377,7.377H214.127a7.377,7.377,0,0,1-7.377-7.377Z" transform="translate(144.692 69.153)" fill="#414246"/>
        <rect id="Rectangle_486" data-name="Rectangle 486" width="30.596" height="28.284" transform="translate(351.442 167.973)" fill="#27282b"/>
        <path id="Path_1262" data-name="Path 1262" d="M313.29,98.82h30.6v36.749a7.377,7.377,0,0,1-7.377,7.377H320.667a7.377,7.377,0,0,1-7.377-7.377Z" transform="translate(219.246 69.153)" fill="#414246"/>
        <rect id="Rectangle_487" data-name="Rectangle 487" width="30.596" height="27.536" transform="translate(532.536 167.973)" fill="#27282b"/>
        <path id="Path_1263" data-name="Path 1263" d="M238,118l6.986,3.553h84.683L343.08,118s-2.023-9.961-3.094-10.318S315.8,103.42,315.8,103.42s-17.44.357-19.564.357S261,108.4,261,108.4l-16.369,5.337Z" transform="translate(166.56 72.372)" fill="#27282b"/>
        <path id="Path_1264" data-name="Path 1264" d="M420.834,108.15c0-3.111-2.023-8.261-3.655-11.9a15.3,15.3,0,0,0-5.592-6.561l-7.36-4.793s-18.018-49.8-28.9-52.693c-4.283-1.1-21.587-2.89-37.038-4.334a277.912,277.912,0,0,0-52.778.136c-14.4,1.428-30.1,3.128-34.234,4.2-10.913,2.856-28.9,52.693-28.9,52.693l-7.343,4.793a15.3,15.3,0,0,0-5.592,6.544c-1.7,3.655-3.672,8.8-3.672,11.9,0,5.218-.952,30.358.952,44.6a61.378,61.378,0,0,0,3.705,15.179,6.119,6.119,0,0,0,5.575,3.791h44.7l9.961-2.38H355.9l9.961,2.38h44.721a6.12,6.12,0,0,0,5.661-3.792,62.18,62.18,0,0,0,3.7-15.178C421.785,138.508,420.834,113.368,420.834,108.15Z" transform="translate(143.845 18.672)" fill="#00b2c1"/>
        <path id="Path_1265" data-name="Path 1265" d="M303.118,58.049,220.56,57.59S231,67.551,238.119,74.18s13.751,11.9,33.69,12.34c17.627.425,28.9.1,31.31,0s13.683.408,31.31,0C354.349,86.044,361,80.826,368.1,74.18s17.559-16.59,17.559-16.59Z" transform="translate(154.356 40.301)" fill="#005c7c"/>
        <path id="Path_1266" data-name="Path 1266" d="M377.842,53.516a93.776,93.776,0,0,0-10.318-15.893,8.244,8.244,0,0,0-5.235-3.06,364.263,364.263,0,0,0-118.984,0,8.261,8.261,0,0,0-5.218,3.06,92.743,92.743,0,0,0-10.318,15.893c-4.13,8.754-13.6,22.59.238,22.59h149.58C391.44,76.123,381.972,62.27,377.842,53.516Z" transform="translate(154.49 20.765)" fill="#c0edff"/>
        <rect id="Rectangle_488" data-name="Rectangle 488" width="29.865" height="7.768" rx="1.44" transform="translate(442.431 60.445)" fill="#92d5ea"/>
        <path id="Path_1267" data-name="Path 1267" d="M239.768,54.8l2.839-9.655a3.892,3.892,0,0,1,3.723-2.788H255.3a3.859,3.859,0,0,1,3.672,2.788l2.7,9.74a3.859,3.859,0,0,1-3.723,4.912H243.44a3.876,3.876,0,0,1-3.672-5Z" transform="translate(167.681 29.644)" fill="#92d5ea"/>
        <path id="Path_1268" data-name="Path 1268" d="M235.83,58.833l1.853-3.808a1.156,1.156,0,0,1,1.037-.646h28.505a1.173,1.173,0,0,1,.986.561l2.329,3.892Z" transform="translate(165.041 38.055)" fill="#92d5ea"/>
        <path id="Path_1269" data-name="Path 1269" d="M286.738,54.8l2.839-9.655A3.859,3.859,0,0,1,293.3,42.36h8.958A3.892,3.892,0,0,1,306,45.148l2.7,9.74a3.875,3.875,0,0,1-3.74,4.912h-14.5a3.875,3.875,0,0,1-3.722-5Z" transform="translate(200.549 29.644)" fill="#92d5ea"/>
        <path id="Path_1270" data-name="Path 1270" d="M282.79,58.833l1.853-3.808a1.173,1.173,0,0,1,1.037-.646h28.505a1.156,1.156,0,0,1,.986.561l2.329,3.892Z" transform="translate(197.903 38.055)" fill="#92d5ea"/>
        <path id="Path_1365" data-name="Path 1365" d="M0,0H104.91V1.938H0Z" transform="translate(403.829 133.06)" fill="#2e435f"/>
        <path id="Path_1364" data-name="Path 1364" d="M0,0H104.91V1.938H0Z" transform="translate(403.829 136.952)" fill="#2e435f"/>
        <rect id="Rectangle_491" data-name="Rectangle 491" width="104.91" height="1.938" transform="translate(403.829 140.828)" fill="#2e435f"/>
        <path id="Path_1271" data-name="Path 1271" d="M243.556,93h93.93a3.043,3.043,0,0,1,2.329,5.1L330.4,109.25a3.042,3.042,0,0,1-2.329,1.071H253.6a3.043,3.043,0,0,1-2.261-1L241.33,98.1a3.043,3.043,0,0,1,2.227-5.1Z" transform="translate(168.33 65.08)" fill="#e6f4f1"/>
        <rect id="Rectangle_492" data-name="Rectangle 492" width="62.909" height="15.298" rx="1.29" transform="translate(424.855 147.389)" fill="#bfc4d8"/>
        <rect id="Rectangle_493" data-name="Rectangle 493" width="11.032" height="58.625" transform="translate(485.622 149.53) rotate(90)" fill="#eee8a9"/>
        <ellipse id="Ellipse_155" data-name="Ellipse 155" cx="9.519" cy="6.85" rx="9.519" ry="6.85" transform="translate(446.782 130.544)" fill="#f1f2f8"/>
        <path id="Path_1272" data-name="Path 1272" d="M330.929,49.11a53.528,53.528,0,0,0-5.864-9.043,4.759,4.759,0,0,0-2.975-1.7,207.033,207.033,0,0,0-67.719,0,4.708,4.708,0,0,0-2.975,1.7,53.526,53.526,0,0,0-5.864,9.043c-2.346,4.98-7.734,12.85.136,12.85h85.125C338.663,61.96,333.275,54.091,330.929,49.11Z" transform="translate(169.039 24.899)" fill="#92d5ea" opacity="0.5"/>
        <g id="Group_148" data-name="Group 148" transform="translate(375.243 50.438)" opacity="0.5">
          <g id="Group_147" data-name="Group 147" clip-path="url(#clip-path-5)">
            <path id="Path_1273" data-name="Path 1273" d="M298.1,28.01,256.25,78.7h4.81l41.712-50.3Z" transform="translate(-195.912 -30.836)" fill="#fff"/>
            <path id="Path_1274" data-name="Path 1274" d="M261.469,28.01,219.62,78.7h4.81l41.712-50.3Z" transform="translate(-221.545 -30.836)" fill="#fff"/>
            <path id="Path_1275" data-name="Path 1275" d="M339.691,28.01,297.86,78.7h4.793l41.729-50.3Z" transform="translate(-166.795 -30.836)" fill="#fff"/>
            <path id="Path_1276" data-name="Path 1276" d="M306.012,28.01,264.18,78.7h4.793l41.713-50.3Z" transform="translate(-190.363 -30.836)" fill="#fff"/>
          </g>
        </g>
        <path id="Path_1278" data-name="Path 1278" d="M215.087,118.1s29.882,4.266,35.576,5.218,15.655-3.79,16.607-6.17-13.785-5.473-13.785-5.473l-38.857-22.1h0A4.062,4.062,0,0,0,207.71,92.5C207.727,102.814,208.832,118.1,215.087,118.1Z" transform="translate(145.364 61.861)" fill="#005c7c"/>
        <path id="Path_1279" data-name="Path 1279" d="M211.8,89.59l4.164,15.043a9.094,9.094,0,0,0,7.088,6.527l25.14,4.742a2.584,2.584,0,0,0,2.839-1.513h0a2.6,2.6,0,0,0-.374-2.635l-7.173-8.788a32.653,32.653,0,0,0-16.556-10.811L213.07,88.315A1.037,1.037,0,0,0,211.8,89.59Z" transform="translate(148.196 61.776)" fill="#2e435f"/>
        <path id="Path_1280" data-name="Path 1280" d="M222.076,106.846a6.34,6.34,0,0,1-4.878-4.487l-3.3-11.9,10.76,2.992a29.763,29.763,0,0,1,15.128,9.876l6.663,8.193Z" transform="translate(149.695 63.303)" fill="#f1f2f8"/>
        <path id="Path_1281" data-name="Path 1281" d="M227.6,98.269a5.269,5.269,0,1,1-1.549-3.732,5.286,5.286,0,0,1,1.549,3.732Z" transform="translate(151.885 65.08)" fill="#fff"/>
        <path id="Path_1282" data-name="Path 1282" d="M231.217,99.919a3.689,3.689,0,1,1-1.086-2.614A3.688,3.688,0,0,1,231.217,99.919Z" transform="translate(156.651 67.341)" fill="#fff"/>
        <path id="Path_1283" data-name="Path 1283" d="M239.019,78.31a21.672,21.672,0,0,1-12.8,6.051l11.014,7.462Z" transform="translate(158.316 54.801)" fill="#005c7c"/>
        <path id="Path_1284" data-name="Path 1284" d="M228.167,67.838l19.224,11.983a2.227,2.227,0,0,1-.187,3.892l-11.9,5.966a4.929,4.929,0,0,1-3.264.425l-17-3.6a4.946,4.946,0,0,1-3.926-4.5l-.833-11.643a4.963,4.963,0,0,1,4.181-5.269h0A19.938,19.938,0,0,1,228.167,67.838Z" transform="translate(147.156 45.368)" fill="#f1f2f8"/>
        <path id="Path_1285" data-name="Path 1285" d="M239.99,77.24,226,68.52a7.411,7.411,0,0,1,.714,1.309,12.373,12.373,0,0,1,.748,4.079,14.6,14.6,0,0,1-3.671,9.587c-.952,1.088-2.057,2.074-2.941,3.23l3.74.8a4.929,4.929,0,0,0,3.264-.425l11.9-5.966a2.227,2.227,0,0,0,.238-3.893Z" transform="translate(154.559 47.95)" fill="#bfc4d8"/>
        <path id="Path_1286" data-name="Path 1286" d="M226.614,67.076h.187A19.922,19.922,0,0,0,214.477,65.1a4.963,4.963,0,0,0-4.181,5.269l.476,6.663.1-.2a33.521,33.521,0,0,1,2.278-5.1,11.048,11.048,0,0,1,6.425-4.589,18.154,18.154,0,0,1,7.037-.068Z" transform="translate(147.163 45.382)" fill="#bfc4d8"/>
        <circle id="Ellipse_156" data-name="Ellipse 156" cx="5.269" cy="5.269" r="5.269" transform="translate(374.899 121.773)" fill="#fff"/>
        <path id="Path_1287" data-name="Path 1287" d="M221.463,70.639a5.269,5.269,0,1,1-1.549-3.732,5.286,5.286,0,0,1,1.549,3.732Z" transform="translate(147.589 45.746)" fill="#f9b52b"/>
        <circle id="Ellipse_157" data-name="Ellipse 157" cx="6.204" cy="6.204" r="6.204" transform="translate(360.238 122.052) rotate(-45)" fill="#fff"/>
        <path id="Path_1288" data-name="Path 1288" d="M347.5,118.1s-29.9,4.266-35.593,5.218-15.655-3.79-16.59-6.17S309.1,111.67,309.1,111.67l38.857-22.1h0a4.062,4.062,0,0,1,6.918,2.924C354.827,102.814,353.739,118.1,347.5,118.1Z" transform="translate(206.639 61.861)" fill="#005c7c"/>
        <path id="Path_1289" data-name="Path 1289" d="M342.5,89.592l-4.164,15.043a9.111,9.111,0,0,1-7.105,6.527L306.1,115.9a2.567,2.567,0,0,1-2.839-1.513h0a2.567,2.567,0,0,1,.374-2.635l7.156-8.788a32.7,32.7,0,0,1,16.573-10.811L341.2,88.317a1.037,1.037,0,0,1,1.292,1.275Z" transform="translate(212.086 61.774)" fill="#2e435f"/>
        <path id="Path_1290" data-name="Path 1290" d="M329.341,106.846a6.323,6.323,0,0,0,4.878-4.487l3.315-11.9-10.777,2.992a29.8,29.8,0,0,0-15.111,9.825L305,111.435Z" transform="translate(213.445 63.303)" fill="#f1f2f8"/>
        <path id="Path_1291" data-name="Path 1291" d="M314.79,98.269A5.286,5.286,0,1,0,320.06,93a5.287,5.287,0,0,0-5.269,5.269Z" transform="translate(220.295 65.08)" fill="#fff"/>
        <path id="Path_1292" data-name="Path 1292" d="M309.86,99.919A3.689,3.689,0,1,0,313.5,96.23a3.688,3.688,0,0,0-3.638,3.689Z" transform="translate(216.846 67.34)" fill="#fff"/>
        <path id="Path_1293" data-name="Path 1293" d="M304.29,78.31a21.672,21.672,0,0,0,12.8,6.051l-11.032,7.462Z" transform="translate(212.948 54.801)" fill="#005c7c"/>
        <path id="Path_1294" data-name="Path 1294" d="M325.585,67.837,306.361,79.821a2.244,2.244,0,0,0,.17,3.892l11.9,5.966a4.93,4.93,0,0,0,3.264.425l17-3.6a4.963,4.963,0,0,0,3.927-4.5l.833-11.643a4.963,4.963,0,0,0-4.181-5.269h0a19.938,19.938,0,0,0-13.683,2.754Z" transform="translate(213.665 45.369)" fill="#f1f2f8"/>
        <path id="Path_1295" data-name="Path 1295" d="M306.349,77.24l13.989-8.72a7.418,7.418,0,0,0-.714,1.309,12.375,12.375,0,0,0-.748,4.079,14.6,14.6,0,0,0,3.671,9.587c.952,1.088,2.057,2.074,2.941,3.23l-3.74.8a4.929,4.929,0,0,1-3.264-.425l-11.9-5.966a2.244,2.244,0,0,1-.238-3.892Z" transform="translate(213.677 47.95)" fill="#bfc4d8"/>
        <path id="Path_1296" data-name="Path 1296" d="M318.255,67.08H318a19.921,19.921,0,0,1,12.391-1.972,4.963,4.963,0,0,1,4.181,5.269l-.476,6.629-.1-.2a35.272,35.272,0,0,0-2.278-5.1,11.15,11.15,0,0,0-6.425-4.589,18.154,18.154,0,0,0-7.037-.034Z" transform="translate(222.542 45.378)" fill="#bfc4d8"/>
        <circle id="Ellipse_158" data-name="Ellipse 158" cx="5.269" cy="5.269" r="5.269" transform="translate(529.136 121.773)" fill="#fff"/>
        <path id="Path_1297" data-name="Path 1297" d="M320.93,70.639A5.286,5.286,0,1,0,326.2,65.37,5.286,5.286,0,0,0,320.93,70.639Z" transform="translate(224.592 45.746)" fill="#f9b52b"/>
        <circle id="Ellipse_159" data-name="Ellipse 159" cx="6.204" cy="6.204" r="6.204" transform="translate(538.134 117.391) rotate(-12.62)" fill="#fff"/>
        <path id="Path_1298" data-name="Path 1298" d="M479.86,158.021l.731-5.711,2.448.238.357,4.045,1.207-.425-1.224,4.81-2.567.085Z" transform="translate(335.807 106.584)" fill="#f5ceb0"/>
        <path id="Path_1299" data-name="Path 1299" d="M495.053,190.708c3.689.34,7.9.17,10.352-2.618a9.774,9.774,0,0,0,1.5-8.5,1.428,1.428,0,0,0-.476-.9,1.343,1.343,0,0,0-.935-.136l-9.825.748c-1.853.153-5.524,1.173-6.527-.272s-1.139-5.609-1.53-7.53L484.6,156.56l-5.1.459q0,6.8.136,13.751c0,3.264,0,6.544.119,9.825C479.857,189.264,487.914,190.08,495.053,190.708Z" transform="translate(335.555 109.558)" fill="#ced9db"/>
        <path id="Path_1300" data-name="Path 1300" d="M513.754,172.092c2.992,2.278,4.283,6.391,5.1,10.2,3.059,15.621,1.5,31.752-.119,47.594-.187,1.7-.612,2.533-2.312,1.7-10.726-4.793-21.281-10.964-32.993-11.711,2.941-9.944,3.247-20.4,5.235-30.6a37.728,37.728,0,0,1,2.533-8.6,32.8,32.8,0,0,1,7.207-10.063c2.737-2.5,7.105-1.394,10.4-.561a16.473,16.473,0,0,1,3.977,1.377,10.192,10.192,0,0,1,.969.663Z" transform="translate(338.306 118.316)" fill="#ced9db"/>
        <path id="Path_1301" data-name="Path 1301" d="M417.541,175.26l2.975.85,2.4-1.36.544.357-.425.68,2.295-.561,1.734.816.425,2.482-1.275,2.295-2.55.187-2.7-1.326-4.147-.986Z" transform="translate(291.686 122.287)" fill="#f5ceb0"/>
        <path id="Path_1302" data-name="Path 1302" d="M438.427,180.862l-29.9-7.326a14.107,14.107,0,0,1-3.162-1.938l-6.391-3.909c-1.445-.884-3.995-3.179-5.762-3.179-2.873,0-4.385,4.283-4.4,6.6,0,7.054,6.527,10.08,11.44,13.87l4.742,2.448,33.214.663Z" transform="translate(272.093 115.121)" fill="#ced9db"/>
        <path id="Path_1303" data-name="Path 1303" d="M403.357,152.894c-3.807,1.258-7.887-1.513-11.558.323a9.434,9.434,0,0,0-4.4,7.241,8.212,8.212,0,0,0,.374,4.13,6.6,6.6,0,0,0,1.411,2.057,7.632,7.632,0,0,0,2.618,1.7,20.01,20.01,0,0,1-1.343,2.941l5.643,1.054.731-3.842a7.187,7.187,0,0,0,1.547-.663A11.9,11.9,0,0,0,403.8,158.4a24.1,24.1,0,0,0-.442-5.507Z" transform="translate(271.025 106.764)" fill="#f5ceb0"/>
        <path id="Path_1304" data-name="Path 1304" d="M386.257,165.247a8.17,8.17,0,0,1-.459-.85c-1.7-3.485-2.6-7.581-.1-10.947a11.9,11.9,0,0,1,11.745-3.892,12.018,12.018,0,0,0,6.663.595,2.975,2.975,0,0,0,1.7-1.139c.323-.527.425-1.19.765-1.7a2.108,2.108,0,0,1,3.536.459,7.445,7.445,0,0,0,.357,1.241c.476.833,1.615.867,2.567.986a1.326,1.326,0,0,1,.833.357c.34.425,0,1.122-.476,1.394s-1.836.272-2.261,1.02.17,1.581.085,2.21a6.544,6.544,0,0,1-4.164,4.929c-1.921.731-3.638,0-5.541-.544a17,17,0,0,0-1.7-.544,5.269,5.269,0,0,0-1.972.374,8.5,8.5,0,0,1-2.448,0,5.234,5.234,0,0,0-2.414.221,2.04,2.04,0,0,0-1.36,1.853c0,.986,1.054,1.7,1.037,2.754s-.782,1.5-1.1,2.295-.255,1.36-.714,1.836a7.19,7.19,0,0,0-.68.578c-.238.306-.306.731-.629.952a.935.935,0,0,1-1.139-.272,3.4,3.4,0,0,1-.527-1.173,17.244,17.244,0,0,0-1.6-2.992Z" transform="translate(268.833 102.554)" fill="#303030"/>
        <path id="Path_1305" data-name="Path 1305" d="M396.247,163.364a4.284,4.284,0,0,0-2.5.255,3.977,3.977,0,0,0-1.445,1.7,99.2,99.2,0,0,0-11.694,57.1,171.766,171.766,0,0,1,34.421-2.7q-1.564-11.423-3.145-22.845c-.782-5.626-1.547-11.252-2.839-16.777a92.757,92.757,0,0,0-4.538-14.21C403.3,162.973,398.949,163.636,396.247,163.364Z" transform="translate(266.033 114.262)" fill="#ced9db"/>
        <path id="Path_1306" data-name="Path 1306" d="M407.335,249.957l2.21,2.074a2.754,2.754,0,0,1-.68,4.521,4.709,4.709,0,0,1-4.589-1l-4.725-5.422.765-1.7,6.8-1.037Z" transform="translate(279.608 173.119)" fill="#131313"/>
        <path id="Path_1307" data-name="Path 1307" d="M412.919,195.43l10.964,44.806-3.162,43.82-10.828.935-2.5-39.537s-23.8-43.31-22.369-44.194S412.919,195.43,412.919,195.43Z" transform="translate(269.401 136.758)" fill="#0c6796"/>
        <path id="Path_1308" data-name="Path 1308" d="M387.6,250.5l2.227,2.074a2.754,2.754,0,0,1-.68,4.521,4.742,4.742,0,0,1-4.606-1l-4.725-5.422v-2.5l1.785-1.564,5.2.952Z" transform="translate(265.795 172.573)" fill="#131313"/>
        <path id="Path_1309" data-name="Path 1309" d="M409.589,198.4l-3.4,46-15.961,40.523-11.219-2.244,9.825-38.381s-9.2-48.529-7.615-49S409.589,198.4,409.589,198.4Z" transform="translate(265.235 136.628)" fill="#0c6796"/>
        <path id="Path_1310" data-name="Path 1310" d="M379.81,211l4.249-10.284,14.805-4.912-2.822-18.749,14.771-2.38,2.55,26.381,3.62,10.794-35.678,6.51Z" transform="translate(265.795 122.238)" fill="#0c6796"/>
        <path id="Path_1311" data-name="Path 1311" d="M392.777,176.645c0-2.907-.119-6.2-2.346-8.074a2.77,2.77,0,0,0-1.7-.748c-1.343,0-2.244,1.309-2.907,2.465a7.088,7.088,0,0,1,.663-5.1,4.589,4.589,0,0,1,5.966-.867,7.989,7.989,0,0,1,3.4,5.49,37.4,37.4,0,0,1,.238,6.612,91.124,91.124,0,0,0,.663,9.638,31.359,31.359,0,0,0-3.807.238C392.08,183.529,392.76,179.585,392.777,176.645Z" transform="translate(269.86 114.477)" fill="#0c6796"/>
        <path id="Path_1312" data-name="Path 1312" d="M397.59,173.7c-.323-2.788-.986-5.864-3.315-7.462-.578-.391-1.309-.816-1.275-1.513a1.224,1.224,0,0,1,.68-.952,2.958,2.958,0,0,1,3.621.952,8.244,8.244,0,0,1,1.428,3.773,105.384,105.384,0,0,1,1.853,16.148c0,.816-1.955.357-2.278,0s-.238-2.023-.255-2.737a69.684,69.684,0,0,0-.459-8.21Z" transform="translate(275.025 114.416)" fill="#0c6796"/>
        <path id="Path_1313" data-name="Path 1313" d="M497.372,243.691l-.442,2.992,1.02,5.711,3.349-.323.629-8.448-.493-1.343Z" transform="translate(347.753 169.543)" fill="#534741"/>
        <path id="Path_1314" data-name="Path 1314" d="M490.085,247.96,484.85,251.8l.646,2.873,9.6-2.295-.782-4.147Z" transform="translate(339.299 173.518)" fill="#534741"/>
        <path id="Path_1315" data-name="Path 1315" d="M481.86,205.714l.17,39.435,8.788,37h7.156l-.459-42.936,4.317-32.432-3.162-6.425-15.893,1.8Z" transform="translate(337.207 140.208)" fill="#0c6796"/>
        <path id="Path_1316" data-name="Path 1316" d="M493.514,234.611l7.5,37.65,6.527-.765,1.768-29.406,3.365-32.143-3.383-9.417H491.1Z" transform="translate(343.673 140.327)" fill="#0c6796"/>
        <path id="Path_1317" data-name="Path 1317" d="M508.6,165.959c-.68-6.425-8.856-10.369-12.34-3.824a14.432,14.432,0,0,0-1.938,6.357,7.173,7.173,0,0,0,2.584,5.881h0c-.187.544-.391,1.088-.578,1.7a.374.374,0,0,0,.272.612l1.9.714a2.21,2.21,0,0,0,.969.2c.731,0,1.207-.85,1.377-1.564a2.943,2.943,0,0,1,.119-.527,9.468,9.468,0,0,0,7.632-9.553Z" transform="translate(345.922 111.105)" fill="#f4cdaf"/>
        <path id="Path_1318" data-name="Path 1318" d="M479.234,123.45a10.488,10.488,0,1,0,13.309-6.527A10.488,10.488,0,0,0,479.234,123.45Zm6.425,2.193a2.9,2.9,0,1,0,.051,0Z" transform="translate(334.971 81.425)" fill="#43c4d3"/>
        <path id="Path_1319" data-name="Path 1319" d="M468.114,132.882a33.818,33.818,0,0,0-.442,6.527l-5.422,1.87,1.7,8.958,5.745-.34a32.955,32.955,0,0,0,2.89,5.864l-3.774,4.334,6.017,6.8,4.793-3.162a32.29,32.29,0,0,0,5.439,3.638l-1.1,5.643,8.652,2.941,2.567-5.1a32.6,32.6,0,0,0,6.527.442l1.87,5.422,8.975-1.7-.34-5.745a34,34,0,0,0,5.864-2.873l4.334,3.757,6.8-6.017-3.145-4.793a34.329,34.329,0,0,0,3.638-5.422l5.626,1.088,2.958-8.652-5.1-2.567a33.9,33.9,0,0,0,.425-6.527l5.439-1.87-1.785-8.958-5.728.34a33.115,33.115,0,0,0-2.89-5.881l3.773-4.334-6.017-6.8-4.793,3.162a32.291,32.291,0,0,0-5.439-3.638l1.1-5.643L508.62,100.7l-2.584,5.1a32.515,32.515,0,0,0-6.527-.442l-1.853-5.422-8.975,1.7.34,5.728a32.96,32.96,0,0,0-5.864,2.89l-4.334-3.774-6.8,6.034,3.162,4.793a33.335,33.335,0,0,0-3.638,5.439l-5.643-1.088-2.941,8.635Zm57.367,11.558-17-5.813a7.717,7.717,0,0,0-3.247-6.612l5.813-17a25.5,25.5,0,0,1,14.431,29.423Zm-25.089,1.615a7.768,7.768,0,0,0,6.612-3.247l17,5.813a25.5,25.5,0,0,1-29.491,14.5Zm-.884-4.232a3.688,3.688,0,1,1,2.826-.181A3.705,3.705,0,0,1,499.509,141.823ZM475.9,132.2l17,5.813a7.734,7.734,0,0,0,3.264,6.612l-5.813,17A25.5,25.5,0,0,1,475.9,132.2Zm1.428-4.164a25.5,25.5,0,0,1,29.491-14.5l-5.813,17a7.768,7.768,0,0,0-6.612,3.247Z" transform="translate(323.484 69.937)" fill="#38afbc"/>
        <path id="Path_1320" data-name="Path 1320" d="M468.913,125.19a29.814,29.814,0,1,1,18.613,37.837A29.814,29.814,0,0,1,468.913,125.19Zm1.19.391a45.755,45.755,0,1,1,.068,0Z" transform="translate(327.037 73.464)" fill="#43c4d3"/>
        <path id="Path_1321" data-name="Path 1321" d="M475.4,125.946A25.5,25.5,0,0,0,490.421,152.7l2.04-6.017c1.207,1.037,2.431,2.04,3.637,2.992l-1.513,4.453a25.5,25.5,0,0,0,8.686.612,99.2,99.2,0,0,0,9.485,5.337l-.476.187.34,5.745-8.975,1.7-1.9-5.269a32.6,32.6,0,0,1-6.527-.442l-2.567,5.1L484,164.14l1.1-5.643a32.3,32.3,0,0,1-5.439-3.637l-4.793,3.162-6.017-6.8,3.773-4.334a32.96,32.96,0,0,1-2.89-5.864l-5.745.34-1.7-8.958,5.422-1.87a33.837,33.837,0,0,1,.442-6.527l-5.1-2.584L466,112.79l3.841.731a75.569,75.569,0,0,0,5.558,12.425Z" transform="translate(323.512 78.929)" fill="#38afbc"/>
        <path id="Path_1322" data-name="Path 1322" d="M469.625,118.7a28.556,28.556,0,0,0,34,35.423l1.581.884A29.8,29.8,0,0,1,468.826,117,16.045,16.045,0,0,0,469.625,118.7Z" transform="translate(327.039 81.875)" fill="#43c4d3"/>
        <path id="Path_1323" data-name="Path 1323" d="M495.76,107.8c0,.1,1.088-4.5,1.088-4.5L489.93,101a13.054,13.054,0,0,1,5.83,6.8Z" transform="translate(342.854 70.679)" fill="#c6eef2"/>
        <path id="Path_1324" data-name="Path 1324" d="M435.29,187.172l-3.909,1.972q.289,2.227.765,4.436c.34,1.479.731,2.924,1.19,4.334l4.385.119a6.34,6.34,0,0,1,5.1,9.842l-2.414,3.672a44.9,44.9,0,0,0,6.1,6.612l3.841-2.091a6.357,6.357,0,0,1,9.383,5.949l-.255,4.385a45.163,45.163,0,0,0,8.5,2.7l2.295-3.757a6.357,6.357,0,0,1,11.1.476l1.972,3.91q2.227-.289,4.436-.765c1.479-.323,2.924-.731,4.334-1.19l.119-4.385a6.357,6.357,0,0,1,9.842-5.1l3.672,2.414a45.743,45.743,0,0,0,6.612-6.085l-2.091-3.858a6.357,6.357,0,0,1,5.949-9.383l4.385.272a45.71,45.71,0,0,0,2.7-8.584l-3.757-2.295a6.357,6.357,0,0,1,.476-11.1l3.91-1.955q-.289-2.244-.765-4.436c-.323-1.479-.731-2.941-1.19-4.351l-4.385-.119a6.34,6.34,0,0,1-5.1-9.842l2.414-3.672a46.649,46.649,0,0,0-6.085-6.612l-3.859,2.091a6.34,6.34,0,0,1-9.366-5.949l.255-4.385a48.348,48.348,0,0,0-8.584-2.7l-2.142,3.723a6.357,6.357,0,0,1-11.1-.476l-1.955-3.909a44.788,44.788,0,0,0-4.437.765c-1.479.34-2.941.731-4.351,1.19l-.119,4.385a6.34,6.34,0,0,1-9.842,5.1l-3.671-2.414a45.775,45.775,0,0,0-6.612,6.1l2.091,3.841a6.357,6.357,0,0,1-5.949,9.383l-4.385-.255a47.727,47.727,0,0,0-2.7,8.5l3.739,2.363a6.357,6.357,0,0,1-.544,11.134Zm38.7-8.652-.442.374a5.956,5.956,0,0,0-.561.578l-18.459-2.788a24.256,24.256,0,0,1,12.425-14.924,2.652,2.652,0,0,1,3.756,1.8Zm19.462-9.043-12.8,8.5a7.256,7.256,0,0,0-1.7-.612l-3.4-14.958a2.635,2.635,0,0,1,2.635-3.213,24.171,24.171,0,0,1,15.451,6.085,2.634,2.634,0,0,1-.187,4.2Zm-15.468,10.2a3.417,3.417,0,1,0,0,.051Zm5.83,4.334a6.2,6.2,0,0,0-.1-1.938l12.7-8.5a2.652,2.652,0,0,1,3.943,1.258,22.389,22.389,0,0,1,.952,3.247,23.95,23.95,0,0,1-1.343,14.737,2.652,2.652,0,0,1-4.114,1.037Zm-13.6,19.122,6.8-13.6a6.068,6.068,0,0,0,4.08-1.02l11.762,9.638a2.635,2.635,0,0,1,0,4.1A24.256,24.256,0,0,1,472,206.941a2.635,2.635,0,0,1-1.7-3.705Zm-13.7-20.992,15.06,2.261a5.814,5.814,0,0,0,1,2.448l-6.8,13.836a2.635,2.635,0,0,1-4.1.816,24.018,24.018,0,0,1-7.615-12.867,23.37,23.37,0,0,1-.527-3.723,2.618,2.618,0,0,1,3.06-2.72Z" transform="translate(301.882 95.926)" fill="#00b2c1"/>
        <g id="Group_149" data-name="Group 149" transform="translate(748.713 248.491)" opacity="0.11">
          <path id="Path_1325" data-name="Path 1325" d="M440.555,174.763a30.885,30.885,0,1,1,28.488,33.112A30.885,30.885,0,0,1,440.555,174.763Zm6.068.442a23.108,23.108,0,1,0,0-.034Z" transform="translate(-440.47 -146.19)"/>
        </g>
        <path id="Path_1326" data-name="Path 1326" d="M485.737,138.237a30.616,30.616,0,0,0,.255-3.519l-5.847-2.006-1.071-6.034,4.776-3.926a30.99,30.99,0,0,0-3.4-6.289l-5.779,1.819-4.436-4.232,1.564-6a29.555,29.555,0,0,0-6.2-3.026l-3.756,4.929-6.068-.884-2.227-5.779a30.224,30.224,0,0,0-7.02,1.224l-.136,6.187-5.422,2.856-5.2-3.4a30.006,30.006,0,0,0-4.946,5.1l3.519,5.1-2.7,5.507-6.17.34a31.624,31.624,0,0,0-.731,3.655,33.12,33.12,0,0,0-.272,3.4l5.847,2.023,1.054,6.051-4.9,3.96a30.87,30.87,0,0,0,3.4,6.323l5.915-1.8,4.419,4.266-1.6,5.983a30.6,30.6,0,0,0,6.408,3.128l3.74-4.946,6.068.85,2.227,5.779a32.109,32.109,0,0,0,7.037-1.241l.1-6.2,5.422-2.89,5.2,3.4a30.747,30.747,0,0,0,4.946-5.1l-3.552-5.1,2.686-5.524,6.17-.34A30.57,30.57,0,0,0,485.737,138.237Zm-23.287,7.581a13.8,13.8,0,1,1,6.2-8.587,13.819,13.819,0,0,1-6.2,8.587Z" transform="translate(297.04 72.281)" fill="#005c7c"/>
        <path id="Path_1327" data-name="Path 1327" d="M468.076,119.1a20.227,20.227,0,1,0-6.578,27.825,20.227,20.227,0,0,0,6.578-27.825Zm-7.615,26.143a18.239,18.239,0,1,1,5.915-25.106,18.239,18.239,0,0,1-5.915,25.106Z" transform="translate(301.358 76.617)" fill="#fff"/>
        <path id="Path_1328" data-name="Path 1328" d="M434.171,141.2l.187.17-1.479,5.949h-.119a30.592,30.592,0,0,0,6.408,3.128v-.1l3.774-4.844,6.068.85,2.312,5.694-.085.085a32.109,32.109,0,0,0,7.037-1.241h-.1l.2-6.136,5.422-2.89,5.218,3.247v.1a30.751,30.751,0,0,0,4.946-5.1h-.1l-3.4-5.1,2.686-5.524,6.119-.425h0a28.4,28.4,0,0,0,.969-7.071h0l-1.7-.595A67.159,67.159,0,0,1,434.171,141.2Z" transform="translate(302.848 84.954)" fill="#033f62"/>
        <path id="Path_1329" data-name="Path 1329" d="M456.159,134.792a20.091,20.091,0,0,0,7.377-7.972c-1.275.816-2.567,1.581-3.859,2.295a18.477,18.477,0,0,1-4.555,3.994,18.137,18.137,0,0,1-12.544,2.516c-1.462.34-2.907.629-4.317.867a20.125,20.125,0,0,0,17.9-1.7Z" transform="translate(306.697 88.747)" fill="#a2c0ca"/>
        <path id="Path_1330" data-name="Path 1330" d="M437.57,109.367l.238-4.98a21.86,21.86,0,0,1,5.439-1.037S439.44,104.064,437.57,109.367Z" transform="translate(306.214 72.323)" fill="#4298b5"/>
        <path id="Path_1331" data-name="Path 1331" d="M476.1,199.538,465,180.381l7-4.011,11.15,19.088-1.7,3.4a1.547,1.547,0,0,1-1.513.867Z" transform="translate(325.409 123.421)" fill="#1e3f4b"/>
        <path id="Path_1332" data-name="Path 1332" d="M468.058,186.517q3.4-3.264,6.8-6.68c.935-.969-.714-2.72-1.7-1.7-2.21,2.278-4.487,4.521-6.8,6.7C465.457,185.684,467.089,187.435,468.058,186.517Z" transform="translate(326.176 124.441)" fill="#335b6f"/>
        <path id="Path_1333" data-name="Path 1333" d="M469.468,188.977q3.4-3.264,6.8-6.68c.935-.969-.7-2.72-1.7-1.7q-3.4,3.4-6.8,6.68C466.867,188.144,468.5,189.895,469.468,188.977Z" transform="translate(327.162 126.162)" fill="#335b6f"/>
        <path id="Path_1334" data-name="Path 1334" d="M470.878,191.453q3.4-3.3,6.8-6.7c.935-.952-.7-2.72-1.7-1.7q-3.4,3.4-6.8,6.68C468.277,190.6,469.909,192.354,470.878,191.453Z" transform="translate(328.149 127.885)" fill="#335b6f"/>
        <path id="Path_1335" data-name="Path 1335" d="M472.287,193.911c2.295-2.176,4.572-4.419,6.8-6.7.935-.952-.7-2.7-1.7-1.7q-3.4,3.4-6.8,6.7C469.754,193.078,471.318,194.828,472.287,193.911Z" transform="translate(329.153 129.609)" fill="#335b6f"/>
        <path id="Path_1336" data-name="Path 1336" d="M479.884,197.249l-.544,1.122L467.73,179.708l2.89-2.108Z" transform="translate(327.319 124.281)" fill="#fff" opacity="0.08"/>
        <path id="Path_1337" data-name="Path 1337" d="M476.79,171.906c-2.737-1.258-6.986-.34-10.2,1.7s-5.881,5.473-5.881,8.5c0,4.521,5.694,6.8,12.765,2.261S480.92,173.793,476.79,171.906Z" transform="translate(322.407 119.895)" fill="#4d788a"/>
        <path id="Path_1338" data-name="Path 1338" d="M472.515,182.77c-7.071,4.47-12.425,2.839-12.119-1.241.187-2.7,2.941-5.949,6.187-8.006s7.377-3.145,9.927-2.176C480.368,172.809,479.6,178.3,472.515,182.77Z" transform="translate(322.178 119.655)" fill="#335b6f"/>
        <path id="Path_1339" data-name="Path 1339" d="M462.37,177.52l3.858-3.689,5-1.632,2.958,2.261-4.691,5.83-6.9,1.037Z" transform="translate(323.568 120.503)" fill="#1e3f4b"/>
        <path id="Path_1340" data-name="Path 1340" d="M467.69,177.148c-1.887,1.207-3.723,1.207-4.045.187s.7-2.244,2.125-3.162,3.094-1.19,3.773-.578S469.56,175.958,467.69,177.148Z" transform="translate(324.418 121.249)" fill="#112e38"/>
        <rect id="Rectangle_494" data-name="Rectangle 494" width="15.944" height="6.085" rx="1.37" transform="translate(758.5 293.956) rotate(-108.7)" fill="#1e3f4b"/>
        <path id="Path_1341" data-name="Path 1341" d="M445.115,169.58h7.7a.569.569,0,1,1,0,1.139h-7.7C444.452,170.719,444.384,169.58,445.115,169.58Z" transform="translate(311.128 118.669)" fill="#335b6f"/>
        <path id="Path_1342" data-name="Path 1342" d="M444.435,167.59h7.717a.569.569,0,1,1,0,1.139h-7.717C443.772,168.729,443.7,167.59,444.435,167.59Z" transform="translate(310.652 117.277)" fill="#335b6f"/>
        <path id="Path_1343" data-name="Path 1343" d="M444.045,165.78h7.717a.569.569,0,1,1,0,1.139h-7.717C443.383,166.919,443.314,165.78,444.045,165.78Z" transform="translate(310.379 116.01)" fill="#335b6f"/>
        <path id="Path_1344" data-name="Path 1344" d="M444.543,164.418c1.445-.2,2.89-.391,4.318-.544,1.071-.119,2.669-.612,3.722,0s1.513,2.057,1.989,3.043a36.3,36.3,0,0,1,1.7,4.147,39.09,39.09,0,0,1,1.02,3.859c.2,1.02.374,2.04-.476,2.737-1.836,1.513-5.1,1.309-7.411,1.275-1.36,0-1.564-2.193-.187-2.176a17,17,0,0,0,5.558-.544c.68-.221.595-.238.442-.969s-.238-1.1-.374-1.7c-.255-.969-.544-1.9-.884-2.839s-.714-1.87-1.122-2.771a11.37,11.37,0,0,0-.748-1.513c-.408-.629-.408-.561-1.054-.595a18.327,18.327,0,0,0-2.873.306c-1.122.136-2.244.272-3.4.442S443.218,164.6,444.543,164.418Z" transform="translate(310.51 114.466)" fill="#aabdc7"/>
        <path id="Path_1345" data-name="Path 1345" d="M441.974,165.246c1.02-.289,2.057-.425,3.077-.731l.459-.153c1.343-.408,2.159,1.615.816,2.091l-1.054.34c-.833.323-1.547.8-1.5,1.819a13.258,13.258,0,0,0,1.071,3.995,19.306,19.306,0,0,0,1.989,3.689c.476.68.425.833,1.224.731l2.142-.289a1.054,1.054,0,0,1,1.19,1.02.986.986,0,0,1-.306,1.36c-1.581,1.071-3.74,2.108-5.524.7a7.529,7.529,0,0,1-1.7-3.06l-1.6-3.688c-.748-1.7-2.465-4.249-1.955-6.238a2.193,2.193,0,0,1,1.666-1.581Z" transform="translate(308.065 114.98)" fill="#1e3f4b"/>
        <path id="Path_1346" data-name="Path 1346" d="M454.454,171.149c2.958-.323,5.83-.85,8.754-1.445,1.938-.408,3.859-.748,5.745-1.343s3.723-1.258,5.592-1.8c1.411-.391,5.813-2.091,6.8-.255.544,1.1-.578,2.448-1.241,3.23-.969,1.173-1.989,2.346-3.043,3.4a52.594,52.594,0,0,1-10.5,8.5,32.3,32.3,0,0,1-9.825,4.164c-.408.085-.8.17-1.207.221a.68.68,0,0,1-.918-.629,98.79,98.79,0,0,1-2.992-11.9,2.245,2.245,0,0,1,0-1.53C452.006,171,453.74,171.217,454.454,171.149Z" transform="translate(315.949 115.791)" fill="#aabdc7"/>
        <path id="Path_1347" data-name="Path 1347" d="M481.819,172.747a.935.935,0,0,0-.731,1.258l3.74,10.811a1.071,1.071,0,0,0,1.122.714l4.742-.68,3.519,10.2h0c-.119-.153-1.581-.17-2.074-.374a9.485,9.485,0,0,0-2.669-.578c-6.187-.612-12.748-.8-18.034,3.026-8.5,6.17-16.811,12.561-25.157,18.935s-16.845,12.986-25.089,19.717l-.493.408c-4.079,3.4-8.125,6.8-12.17,10.08L402.2,251.5c-2.278,1.853-3.689,3.807-6.9,2.8a16.726,16.726,0,0,1-7.615-5.235,15.3,15.3,0,0,1-3.077-6.527c-.561-2.584-1.547-5.8,1.1-7.479,1.173-.748,2.312-1.479,3.4-2.295,17.134-11.644,34.573-23.253,51.452-35.389l3.638-2.533c4.436-3.162,11.8-8.856,16.131-12.17,8.5-6.442,9.417-11.219,14.278-19.055,1.955-3.162,3.79-6.408,5.541-9.689l6.221,18.222Z" transform="translate(268.696 107.718)" fill="#335b6f"/>
        <path id="Path_1348" data-name="Path 1348" d="M455.474,148.862c6.391-1.207,22.1,6.629,26.228,8.346a2.992,2.992,0,0,1,1.428,4.98l-2.21.357c-2.006.323-3.994.68-5.983,1.071-1.445.272-2.907.561-4.351.867l-2.176.459c-.578.119-1.1.425-1.7.595a17.7,17.7,0,0,0-1.887.646,11.9,11.9,0,0,0-3.4,2.006c-.34.306-.85,1.088-.68,1.6l10.063,27.978a.51.51,0,0,1-.476.68l-15.6.34s.714-.561.544-2.533a26.969,26.969,0,0,0-.714-3.995c-.323-1.36-.714-2.72-1.122-4.062l3.944-.578a1.887,1.887,0,0,0,1.428-2.652l-3.569-9.315a1.054,1.054,0,0,0-1.088-.7l-4.606.578c-2.278-6.8-4.878-13.428-7.8-19.938l-1.071,2.04-.289-.833C442.862,153.706,449.1,150.069,455.474,148.862Z" transform="translate(308.18 104.083)" fill="#bbd0db"/>
        <path id="Path_1349" data-name="Path 1349" d="M448.977,172c.408,1.343.8,2.7,1.122,4.062a26.993,26.993,0,0,1,.714,3.995c.17,1.972-.544,2.533-.544,2.533l-3.518-10.2Z" transform="translate(312.638 120.363)" fill="#bbd0db"/>
        <path id="Path_1350" data-name="Path 1350" d="M449.423,172.687l-2.652.323L440.55,154.84l1.071-2.04A213.493,213.493,0,0,1,449.423,172.687Z" transform="translate(308.299 106.927)" fill="#bbd0db"/>
        <path id="Path_1351" data-name="Path 1351" d="M449,197.012l-.459.357c-9.009,6.8-17.95,13.836-26.72,21.009l-.527.425c-4.334,3.553-8.652,7.156-12.952,10.743l-6.8,5.575c-2.431,1.989-3.926,4.062-7.343,2.992a17.933,17.933,0,0,1-8.125-5.592,16.234,16.234,0,0,1-3.264-6.935c-.595-2.754-1.7-6.17,1.173-7.972,1.241-.8,2.465-1.581,3.655-2.448,16.267-11.066,33.486-22.607,49.633-34Z" transform="translate(267.397 126.78)" fill="#7aa6c3"/>
        <circle id="Ellipse_160" data-name="Ellipse 160" cx="4.555" cy="4.555" r="4.555" transform="translate(655.676 352.381) rotate(-48.38)" fill="#fff"/>
        <path id="Path_1352" data-name="Path 1352" d="M422.395,201.939l-3.553-4.844a2.04,2.04,0,0,1,.425-2.839c5.8-4.266,25-18.494,26.193-20.3s2.142-3.179,3.247-4.742c.629-.9,2.686-5,3.671-5.269,2.21-.629,3.247,5.507,3.74,6.952.986,2.839,1.921,5.694,2.856,8.5a1.445,1.445,0,0,1-1.292,1.87,17,17,0,0,0-7.955,2.159c-3.229,2.091-19.207,14.7-24.426,18.817a2.04,2.04,0,0,1-2.907-.306Z" transform="translate(292.833 114.697)" fill="#fff" opacity="0.08"/>
        <path id="Path_1353" data-name="Path 1353" d="M388.722,205.266a4.844,4.844,0,1,1-1.02,6.8,4.844,4.844,0,0,1,1.02-6.8Zm.306.425a4.317,4.317,0,1,0,3.226-.807,4.334,4.334,0,0,0-3.226.807Z" transform="translate(270.651 142.985)" fill="#335b6f"/>
        <path id="Path_1354" data-name="Path 1354" d="M407.378,191.79l2.516,2.04,2.856-.323.374.561-.68.476,2.448.408,1.309,1.5-.612,2.55-2.159,1.7-2.516-.884-2.057-2.38L405.27,194.8Z" transform="translate(283.611 134.211)" fill="#f5ceb0"/>
        <path id="Path_1355" data-name="Path 1355" d="M424.8,207.719l-22.794-22.675a15.06,15.06,0,0,1-1.785-3.4l-3.587-7.02c-.833-1.581-1.87-5-3.4-5.949-2.567-1.547-6.238,1.479-7.5,3.519-3.875,6.289.408,12.544,2.754,18.579l2.924,4.759,29.355,18.494Z" transform="translate(268.855 117.739)" fill="#ced9db"/>
        <path id="Path_1356" data-name="Path 1356" d="M383,158.539a14.617,14.617,0,0,0,2.839,7.768,9.79,9.79,0,0,0,2.329-1.02,45.589,45.589,0,0,0,9.4-6.578,26.653,26.653,0,0,0,6.17-9.3,14.5,14.5,0,0,0-9.145-2.55C389.07,147.2,382.832,152.369,383,158.539Z" transform="translate(268.026 102.752)" fill="#0c6796"/>
        <path id="Path_1357" data-name="Path 1357" d="M401.89,144.344a3.4,3.4,0,0,1,3.2,0c1.037.816.8,2.448.34,3.689a18.392,18.392,0,0,1-8.737,9.757c-1.7.867-5,1.6-5.779-.952-.408-1.36.595-3.926,1.207-5.218C393.782,148.118,398.456,145.738,401.89,144.344Z" transform="translate(273.495 100.731)" fill="#0c6796"/>
        <path id="Path_1358" data-name="Path 1358" d="M512.693,192.557h-2.788l.306-4.487a48.963,48.963,0,0,1,.731-6.68,24.936,24.936,0,0,1,4.283-9.706,3.4,3.4,0,0,0-4.334-.425,6.1,6.1,0,0,0-1.7,2.975,55.038,55.038,0,0,0-2.788,12.7,32.094,32.094,0,0,0-.408,5.643h-9.485c.119-1.853.255-3.688.374-5.541a48.662,48.662,0,0,1,.731-6.68,25.05,25.05,0,0,1,2.21-6.306c.935-1.87,1.921-4.215,3.722-5.3a12.544,12.544,0,0,0-4.623.714,5.388,5.388,0,0,0-3.128,3.74,54.9,54.9,0,0,0-2.788,12.68,22.789,22.789,0,0,0-.255,6.612v.1h-2.431l-7.9,31.616H515.94Z" transform="translate(337.599 118.078)" fill="#0c6796"/>
        <path id="Path_1359" data-name="Path 1359" d="M472.813,186.345l-5.3-2.278.918-2.278,3.977.765-.068-1.275,4.283,2.5-.629,2.5Z" transform="translate(327.165 126.856)" fill="#f5ceb0"/>
        <path id="Path_1360" data-name="Path 1360" d="M522.433,175.163a5.387,5.387,0,0,0-1.394-.51,9.6,9.6,0,0,0-6.425,1.19c-3.111,1.7-5.711,4.317-8.6,6.323l-9.944,6.9-23.491-1.836-.969,5.014,27.859,7.632c4.249-3.264,8.4-6.476,12.816-9.451,3.96-2.669,8.771-4.725,11.286-8.975C525.051,179.056,524.643,176.37,522.433,175.163Z" transform="translate(330.034 122.129)" fill="#ced9db"/>
        <path id="Path_1361" data-name="Path 1361" d="M496.386,164.861a33.691,33.691,0,0,0-2.244-3.722c-1.071-1.224-2.89-1.87-3.4-3.4a4.045,4.045,0,0,1,2.244-4.793,7.325,7.325,0,0,1,3.4-.493,5.1,5.1,0,0,1,1.7.323,3.144,3.144,0,0,1,1.87,2.414,9.048,9.048,0,0,0,.221,2.261c.986,2.346,3.773,2.669,5.9,3.213s4.181.646,6.051,2.074a8.975,8.975,0,0,1,2.737,9.842,11.235,11.235,0,0,1-7.836,6.969c-1.972.51-.306-.986.187-1.462a9.178,9.178,0,0,0,2.295-3.4,5.1,5.1,0,0,0-.816-5.1,7.649,7.649,0,0,0-4.249-1.921,15.827,15.827,0,0,0-3.06-.544,8.636,8.636,0,0,1-1.989,0,4.471,4.471,0,0,1-3.009-2.261Z" transform="translate(343.316 106.662)" fill="#57453f"/>
        <path id="Path_1362" data-name="Path 1362" d="M507.613,175.032a2.873,2.873,0,0,0,2.448,1.1,1.972,1.972,0,0,0,1.309-1.309,4.693,4.693,0,0,0,.136-1.887,17.219,17.219,0,0,0-4.709-10.556,2.431,2.431,0,0,0-1.921-.986c-1.037.119-1.7,1.513-2.159,2.363s.935,1.5,1.241,2.193a4.114,4.114,0,0,1,.221,2.669,2.754,2.754,0,0,0,.1,2.142,17.953,17.953,0,0,0,3.332,4.266Z" transform="translate(351.738 112.945)" fill="#0c6796"/>
        <path id="Path_1363" data-name="Path 1363" d="M500.918,161.219a31.087,31.087,0,0,1,3.4,3.688,53.639,53.639,0,0,1,4.3,8.261c.782,1.5,1.7.391,2.669-.578a8.894,8.894,0,0,0,1.666-10.2,18.82,18.82,0,0,0-3.536-4.521,10.2,10.2,0,0,0-7.224-2.618c-1.173,0-4.351.476-4.861,1.819S500.2,160.437,500.918,161.219Z" transform="translate(347.997 108.638)" fill="#0c6796"/>
      </g>
    </g>
  </g>
</svg>
