<svg xmlns="http://www.w3.org/2000/svg" viewBox="0 0 1018 784"><defs><style>.cls-1{fill:none;stroke:#000;stroke-miterlimit:10;}.cls-2{fill:#67b8a9;}.cls-3{fill:#fff;}.cls-4{fill:#5fa69b;}.cls-5{fill:#b4e1ef;}.cls-6{opacity:0.2;}.cls-7{fill:#fffff1;}.cls-8{opacity:0.1;}.cls-9{fill:#35383f;}.cls-10{fill:#46917d;}.cls-11{font-size:90px;font-family:Roboto-Medium, Roboto;font-weight:500;}.cls-12{letter-spacing:-0.01em;}</style></defs><title>Fully_electric</title><g id="Layer_2" data-name="Layer 2"><g id="object"><rect class="cls-1" x="0.5" y="0.5" width="1017" height="783" rx="49"/><ellipse class="cls-2" cx="517.48" cy="173.55" rx="84.98" ry="83.05"/><polygon class="cls-3" points="474.72 117.21 514.74 114.85 550.5 186.17 521.16 187.9 548.26 246.29 481.08 174.9 513.56 170.21 474.72 117.21"/><path class="cls-4" d="M760.42,457.24l-31.49-32.36H728L722.64,413q-14.08-31.45-28.19-62.91c-8.26-18.44-15.58-49.94-38.9-50.19L433.92,297.5c-24.62-.26-47.19,15.38-58,40.18L338.37,424h-3.69l-74.48,24.1c-26.19,13.29-43,41.29-43.26,72.16l-.44,46.39,562.73,6,.62-66A70,70,0,0,0,760.42,457.24Z"/><path class="cls-5" d="M544.36,416.25l147.87,1.57-32.76-88.39a10.67,10.67,0,0,0-9.7-7.32L545.25,321Z"/><path class="cls-5" d="M520,320.72l-84.71-.9c-17.95-.19-34.4,11.22-42.27,29.3L364.6,414.34,519.06,416Z"/><g class="cls-6"><path class="cls-7" d="M663.33,350.78c2,1.13,3.91,2.28,5.87,3.42l-9-24.18a10.7,10.7,0,0,0-9.7-7.33l-36.21-.38C630.6,331.9,647,341.26,663.33,350.78Z"/><path class="cls-7" d="M666,371.81c-27-15.92-55.37-34-82.09-50.41l-34,.22c23.08,21.5,52.32,40.69,78.15,58,15.53,10.38,31.39,20.22,47.64,29.26,5.33,3,10.91,5.65,16.5,8.38L678.05,379Q672,375.37,666,371.81Z"/><path class="cls-7" d="M492.76,377.44c-11.34-8-23.1-15.34-34.93-22.45-12-7.2-24.14-14.42-36.72-20.4-4.14-2-8.34-3.81-12.52-5.67A50.79,50.79,0,0,0,393,349.12l-.28.63c12.69,9.64,25.47,19.16,38.08,28.88C449.42,393,470,404,490.2,415.67l28.86.31.16-17.26C510.41,391.61,502,383.93,492.76,377.44Z"/></g><path class="cls-8" d="M429.53,568.94a45.18,45.18,0,0,0,.83-8.26c.26-27.72-24.43-50.45-55.15-50.78A59.44,59.44,0,0,0,343,518.82c18.9,4.44,35.5,14.7,49,28a90.18,90.18,0,0,1,16.31,21.71Z"/><path class="cls-8" d="M720.92,572a46.8,46.8,0,0,0,.82-8.25c.26-27.72-23.85-50.45-53.84-50.77a57.09,57.09,0,0,0-31.5,8.93c18.45,4.44,34.65,14.69,47.83,28a89.57,89.57,0,0,1,15.91,21.7Z"/><ellipse class="cls-9" cx="363.21" cy="562.43" rx="49.47" ry="52.65"/><ellipse class="cls-7" cx="363.21" cy="562.43" rx="28.08" ry="29.89"/><path class="cls-8" d="M368,583.3c5.36-.38,10.79-2.34,14.62-6.35a16.64,16.64,0,0,1-11,10.78,24.82,24.82,0,0,1-5.22.76,25.29,25.29,0,0,1-5.57-.15A16.62,16.62,0,0,1,349,579.42c.77,1.52,6.27,2.65,7.63,2.93A42.91,42.91,0,0,0,368,583.3Z"/><ellipse class="cls-9" cx="655.54" cy="565.54" rx="49.47" ry="52.65"/><ellipse class="cls-7" cx="655.54" cy="565.54" rx="28.08" ry="29.89"/><path class="cls-8" d="M660.28,586.4c5.36-.37,10.79-2.33,14.62-6.35a16.66,16.66,0,0,1-11,10.79,31.66,31.66,0,0,1-10.79.61,16.6,16.6,0,0,1-11.85-8.93c.77,1.53,6.27,2.66,7.63,2.93A42.08,42.08,0,0,0,660.28,586.4Z"/><path class="cls-10" d="M502.87,455l-20.55-.22a3.29,3.29,0,0,1-3.14-3.41l.05-5.56a3.28,3.28,0,0,1,3.21-3.34l20.55.22a3.28,3.28,0,0,1,3.14,3.41l-.05,5.55A3.28,3.28,0,0,1,502.87,455Z"/><text class="cls-11" transform="translate(248.69 720.5)"><tspan class="cls-12">F</tspan><tspan x="48.47" y="0">ully Electric</tspan></text></g></g></svg>