<svg xmlns="http://www.w3.org/2000/svg" xmlns:xlink="http://www.w3.org/1999/xlink" width="738" height="387" viewBox="0 0 738 387"><defs><linearGradient id="linear-gradient" x1=".083" x2="1.641" y1=".5" y2=".5" gradientUnits="objectBoundingBox"><stop offset="0" stop-color="#6a8991"/><stop offset=".53" stop-color="#335c64"/><stop offset="1" stop-color="#02383c"/></linearGradient><linearGradient id="linear-gradient-2" x1="-.24" x2="1.274" y1=".501" y2=".501" gradientUnits="objectBoundingBox"><stop offset="0" stop-color="#bc352e"/><stop offset=".13" stop-color="#dd4d2f"/><stop offset=".21" stop-color="#be4a2b"/><stop offset=".33" stop-color="#d35a39"/><stop offset=".46" stop-color="#ec6b4e"/><stop offset=".62" stop-color="#ee5f3c"/><stop offset=".91" stop-color="#ed4e2c"/><stop offset="1" stop-color="#bc4c24"/></linearGradient><linearGradient id="linear-gradient-3" x1=".584" x2=".413" y1="1.083" y2="-.052" gradientUnits="objectBoundingBox"><stop offset="0" stop-color="#f3807c"/><stop offset=".5" stop-color="#ee3d57"/><stop offset="1" stop-color="#dd1e47"/></linearGradient><linearGradient id="linear-gradient-4" x1=".501" x2=".501" y1="73.674" y2="-72.674" gradientUnits="objectBoundingBox"><stop offset="0" stop-color="#fff"/><stop offset="1" stop-color="#231f20"/></linearGradient></defs><g id="Group_154" data-name="Group 154" transform="translate(-867 -1117)"><g id="Rectangle_379" fill="#fff" stroke="#707070" stroke-width="1" data-name="Rectangle 379" transform="translate(867 1117)"><rect width="738" height="387" stroke="none"/><rect width="737" height="386" x=".5" y=".5" fill="none"/></g><text id="Gas" fill="#535353" font-family="NotoSansJP-Medium, Noto Sans JP" font-size="30" font-weight="500" transform="translate(885 1369)"><tspan x="0" y="0">Gas</tspan></text><text id="EV" fill="#535353" font-family="NotoSansJP-Medium, Noto Sans JP" font-size="30" font-weight="500" transform="translate(885 1241)"><tspan x="0" y="0">EV</tspan></text><path id="Path_916" fill="none" stroke="#707070" stroke-linecap="round" stroke-width="7" d="M2869,11967v279.308h594.334" data-name="Path 916" transform="translate(-1920 -10801)"/><path id="Path_917" fill="none" stroke="#707070" stroke-width="7" d="M3176,12258.5h212.308" data-name="Path 917" transform="translate(-2227 -10896)"/><path id="Path_918" fill="none" stroke="#707070" stroke-width="7" d="M3176,12139h432.94" data-name="Path 918" transform="translate(-2227 -10888)"/><g id="Layer_2" data-name="Layer 2" transform="translate(1053 1314.009)"><g id="OBJECTS" transform="translate(0 -0.009)"><path id="Path_954" fill="url(#linear-gradient)" fill-rule="evenodd" d="M231.919,48.61a16.916,16.916,0,0,1,3.627,7.263S229.286,53.189,231.919,48.61Z" data-name="Path 954" transform="translate(-132.121 -27.766)"/><path id="Path_955" fill="#ccc" fill-rule="evenodd" d="M232.113,49.84l2.264,3.1-.9-.733.317.892.472.317.317.523v.579h-.21l.523.317v.317l-.1.154h-.682l-.476-.523-.789-.579-.789-.845v-.84l-.262-.947Z" data-name="Path 955" transform="translate(-132.423 -28.469)"/><path id="Path_956" fill="#404041" fill-rule="evenodd" d="M109.264,74.678c.9-.047,1.8-.1,2.71-.159l-3.807-12.377L94.319,56.35l-12.784.472L25.8,57.057,10.058,59.544,7.4,74.678Z" data-name="Path 956" transform="translate(-4.227 -32.188)"/><path id="Path_957" fill="#404041" fill-rule="evenodd" d="M146.753,6l-2.7.643-1.286.827S150.243,9,157.934,20l10.889-1.286S162.02,10.857,146.753,6Z" data-name="Path 957" transform="translate(-81.562 -3.424)"/><path id="Path_958" fill="url(#linear-gradient-2)" fill-rule="evenodd" d="M8.5,26.526l-.643-.356c-1.175-.047-5.213,9.359-3.5,10.774C4.363,36.944,9.923,31.392,8.5,26.526Z" data-name="Path 958" transform="translate(-2.254 -14.946)"/><path id="Path_959" fill="#ef4136" fill-rule="evenodd" d="M9.74,5.075c.695-1.312-3.121-1.522-2.4-2.508,0,0,36.081-5.8,58.212,0l-2.7.643S72.471,6.854,77.1,15.858l10.654-1.179c9.295,2.1,19.438,3.747,22.508,14.006l-.15,8.742.947.947-.236,3.314-1.183.356a19.238,19.238,0,0,1-3.858.75s.669-13.23-11.545-13.089c-11.6-.356-11.481,11.944-11.481,11.944H26.165s1.153-12.5-12.214-11.944C2.744,30.134,4.3,43.068,4.3,43.068L2.641,42.6S.982,32.3.63,29.105a10.139,10.139,0,0,0,1.183-4.146S4.531,10.52,9.74,5.075Z" data-name="Path 959" transform="translate(-0.36 0.009)"/><path id="Path_960" fill="#be1e2d" fill-rule="evenodd" d="M111.1,68.249l-.622,6.825-1.183.356a19.238,19.238,0,0,1-3.858.75S106.1,62.95,93.89,63.092c-11.6-.356-11.481,11.944-11.481,11.944H25.818s1.14-12.5-12.227-11.944C2.384,63.52,3.936,76.455,3.936,76.455l-2.77-.69S.566,71.932,0,68.27a22.885,22.885,0,0,1,2.594-.382A13.232,13.232,0,0,1,14.7,58.457c9.308-.574,13.436,9.012,14.409,14.281L78.8,72.489c3.258-18.529,21.839-17.312,28.831-4.57C107.634,67.919,110.048,68.108,111.1,68.249Z" data-name="Path 960" transform="translate(0 -33.377)"/><path id="Path_961" fill="#404041" fill-rule="evenodd" d="M34.889,8.667c-3.533.3-4.489,8.146-5.029,11.575H58.52L59.96,6.717c-4.643.056-20.874.36-25.072,1.964Zm55.7,11.575A26.206,26.206,0,0,0,68.389,6.8c-2.448-.086-4.887-.116-7.288-.1l-.952,13.539Z" data-name="Path 961" transform="translate(-17.058 -3.823)"/><path id="Path_962" fill="#f58f5b" fill-rule="evenodd" d="M157.85,30.1a4.287,4.287,0,0,0,.476,4.716C158.326,34.833,164.954,32.231,157.85,30.1Z" data-name="Path 962" transform="translate(-89.885 -17.192)"/><path id="Path_963" fill="#fff" fill-rule="evenodd" d="M238.873,53.375c-1.543-4.09-3.991-5.7-7.434-7.417-3.318-.334-3.4,2.092-2.049,4.339S236.652,57.067,238.873,53.375Z" data-name="Path 963" transform="translate(-130.578 -26.234)"/><path id="Path_964" fill="#594a42" fill-rule="evenodd" d="M101.394,45.416v-.4a.635.635,0,0,1,.527-.7l6.285-.034a.63.63,0,0,1,.536.695V45.4Z" data-name="Path 964" transform="translate(-57.921 -25.292)"/><path id="Path_965" fill="#594a42" fill-rule="evenodd" d="M71.174,45.786v-.429a.635.635,0,0,1,.527-.7l6.285-.034a.635.635,0,0,1,.536.7v.429Z" data-name="Path 965" transform="translate(-40.657 -25.487)"/><path id="Path_966" fill="#363638" fill-rule="evenodd" d="M200.5,88.1a8.862,8.862,0,1,0-.06-12.531A8.862,8.862,0,0,0,200.5,88.1Zm10.825-1.758h0a6.452,6.452,0,1,1-.047-9.127,6.452,6.452,0,0,1,.047,9.127Z" data-name="Path 966" transform="translate(-113.045 -41.668)"/><path id="Path_967" fill="#fff" fill-rule="evenodd" d="M208.738,76.53a7.323,7.323,0,1,1-7.288,7.357A7.323,7.323,0,0,1,208.738,76.53Z" data-name="Path 967" transform="translate(-115.084 -43.716)"/><path id="Path_968" fill="#525458" fill-rule="evenodd" d="M209.908,78.56a6.452,6.452,0,1,0,4.577,1.87,6.452,6.452,0,0,0-4.577-1.87Z" data-name="Path 968" transform="translate(-116.25 -44.876)"/><path id="Path_969" fill="#696b6f" fill-rule="evenodd" d="M216.449,92.551a2.242,2.242,0,1,0-3.173,0,2.242,2.242,0,0,0,3.173,0Z" data-name="Path 969" transform="translate(-121.466 -50.682)"/><path id="Path_970" fill="#fff" fill-rule="evenodd" d="M208.185,91.656l-.429-4.883-3.713,3.2-.656-.647,3.19-3.726-4.887-.36v-.926l4.883-.429-3.2-3.708.647-.656,3.743,3.164.36-4.887h.922l.407,4.883,3.708-3.2.669.652-3.181,3.751,4.887.356v.93l-4.883.429,3.2,3.708-.647.656L209.463,86.8l-.352,4.849Zm0-5.869h.857l.622-.613v-.857l-.617-.613h-.857l-.634.613v.857Z" data-name="Path 970" transform="translate(-115.221 -44.442)"/><path id="Path_971" fill="#363638" fill-rule="evenodd" d="M16.316,88.1a8.862,8.862,0,1,0-.064-12.531A8.862,8.862,0,0,0,16.316,88.1Zm10.821-1.758h0a6.452,6.452,0,1,1-.026-9.127,6.452,6.452,0,0,1,.026,9.127Z" data-name="Path 971" transform="translate(-7.819 -41.665)"/><path id="Path_972" fill="#fff" fill-rule="evenodd" d="M24.568,76.53a7.323,7.323,0,1,1-7.288,7.357,7.323,7.323,0,0,1,7.288-7.357Z" data-name="Path 972" transform="translate(-9.872 -43.716)"/><path id="Path_973" fill="#525458" fill-rule="evenodd" d="M25.738,78.56a6.452,6.452,0,1,0,4.577,1.87,6.452,6.452,0,0,0-4.577-1.87Z" data-name="Path 973" transform="translate(-11.037 -44.876)"/><path id="Path_974" fill="#696b6f" fill-rule="evenodd" d="M32.276,92.553a2.242,2.242,0,1,0-1.588.66A2.242,2.242,0,0,0,32.276,92.553Z" data-name="Path 974" transform="translate(-16.25 -50.685)"/><path id="Path_975" fill="#fff" fill-rule="evenodd" d="M24.005,91.656,23.6,86.773l-3.708,3.2-.656-.647L22.4,85.6l-4.887-.36v-.926l4.883-.429-3.2-3.708.647-.656,3.743,3.164.356-4.887h.922l.429,4.883L29,79.485l.656.647-3.194,3.756,4.887.356v.93L26.47,85.6l3.2,3.708-.647.656L25.283,86.8l-.36,4.883Zm0-5.869h.857l.626-.613v-.857l-.622-.613h-.857l-.63.613v.857Z" data-name="Path 975" transform="translate(-10.003 -44.442)"/></g></g><text id="Savings_on_fuel" fill="#535353" data-name="Savings on fuel" font-family="NotoSansJP-Medium, Noto Sans JP" font-size="30" font-weight="500" transform="translate(1155 1488)"><tspan x="0" y="0">Savings on fuel</tspan></text><g id="Layer_2-2" data-name="Layer 2" transform="translate(1545.099 1145.978) rotate(180)"><g id="OBJECTS-2" data-name="OBJECTS" transform="translate(163 -105)"><path id="Path_919" fill="#23211e" fill-rule="evenodd" d="M7.715,19.005,0,12.181.907,5.2,4.225,1.062,24.81.649,75.035,0l17.1,3.41,2.267.649L89.86,16.568,75.186,20.955Z" data-name="Path 919" transform="translate(5.907 6.513)"/><path id="Path_920" fill="#404041" fill-rule="evenodd" d="M20.01,14.367A146.756,146.756,0,0,1,2.054,5.888S-.575,3.65.115,2.035L2.613,0,23.49,12.262,21.6,13.825Z" data-name="Path 920" transform="translate(28.256 27.571)"/><path id="Path_921" fill="#404041" fill-rule="evenodd" d="M.457,11.5S11.914,6.666,14.6,4.5l2.609-.933.453-1.7L15.364,0,0,9.851Z" data-name="Path 921" transform="translate(85.365 29.076)"/><path id="Path_922" fill="#58595b" fill-rule="evenodd" d="M6.7,15.152c3.731.031,6.777-3.34,6.8-7.527S10.522.024,6.791,0,.018,3.353,0,7.539,2.979,15.124,6.7,15.152Z" data-name="Path 922" transform="translate(14.131 2.325)"/><path id="Path_923" fill="#fff" fill-rule="evenodd" d="M6.341,13.534l1.492-5.18,4.853.011L8.753,5.173,10.261,0,6.341,3.207,2.422,0,3.933,5.173,0,8.365l4.853-.011Z" data-name="Path 923" transform="translate(14.477 3.903)"/><path id="Path_924" fill="#363638" fill-rule="evenodd" d="M2.639,2.87a8.206,8.206,0,0,1,12.54.084,10.833,10.833,0,0,1-.062,14.07,8.206,8.206,0,0,1-12.54-.056A10.612,10.612,0,0,1,0,9.9,10.59,10.59,0,0,1,2.639,2.87ZM13.482,4.843h0a5.988,5.988,0,0,0-9.154-.048,7.9,7.9,0,0,0-.043,10.271,5.988,5.988,0,0,0,9.154.048,7.9,7.9,0,0,0,.049-10.271Z" data-name="Path 924" transform="translate(11.93 0)"/><path id="Path_925" fill="#9da0a5" fill-rule="evenodd" d="M1.735,3.908A1.859,1.859,0,0,1,0,1.945,1.854,1.854,0,0,1,1.75,0,1.86,1.86,0,0,1,3.483,1.965a2.072,2.072,0,0,1-.514,1.379A1.643,1.643,0,0,1,1.735,3.908Z" data-name="Path 925" transform="translate(19.077 7.995)"/><path id="Path_926" fill="#fff" fill-rule="evenodd" d="M2.487,13.062a5.988,5.988,0,0,0,9.154.048,7.9,7.9,0,0,0,.043-10.271A5.988,5.988,0,0,0,2.53,2.791,7.9,7.9,0,0,0,2.487,13.062ZM7.087,0C11,0,14.174,3.56,14.174,7.952S11,15.9,7.087,15.9,0,12.344,0,7.952,3.171,0,7.084,0Z" data-name="Path 926" transform="translate(13.734 2.004)"/><path id="Path_927" fill="#fff" fill-rule="evenodd" d="M.828,5.394C.812,5.6,0,0,0,0H3.128S2.28,5.272,2.3,5.434.828,5.394.828,5.394Z" data-name="Path 927" transform="translate(19.329 12.271)"/><path id="Path_928" fill="#fff" fill-rule="evenodd" d="M0,2.4C-.166,2.441,4.237,0,4.237,0l.894,3.252s-4.6.623-4.728.7S0,2.4,0,2.4Z" data-name="Path 928" transform="translate(14.258 9.06)"/><path id="Path_929" fill="#fff" fill-rule="evenodd" d="M1.191.006C1.105-.171,4.477,3.851,4.477,3.851l-2.52,1.9S.1.994,0,.876,1.191.006,1.191.006Z" data-name="Path 929" transform="translate(16.446 3.348)"/><path id="Path_930" fill="#fff" fill-rule="evenodd" d="M4.718,1.018C4.84.867,2.5,5.892,2.5,5.892L0,3.794S3.486.152,3.558.012,4.718,1.018,4.718,1.018Z" data-name="Path 930" transform="translate(20.739 3.223)"/><path id="Path_931" fill="#fff" fill-rule="evenodd" d="M4.761,4.055c.164.081-4.761-.8-4.761-.8L.963,0S5.1,2.511,5.234,2.544,4.761,4.055,4.761,4.055Z" data-name="Path 931" transform="translate(22.28 8.953)"/><path id="Path_932" fill="#58595b" fill-rule="evenodd" d="M6.719,15.152c3.729.02,6.767-3.355,6.785-7.539S10.514.02,6.785,0,.018,3.355,0,7.539s2.989,7.595,6.719,7.613Z" data-name="Path 932" transform="translate(83.594 2.325)"/><path id="Path_933" fill="#fff" fill-rule="evenodd" d="M6.341,13.534l1.492-5.18,4.853.011L8.753,5.172,10.261,0,6.341,3.207,2.422,0,3.93,5.172,0,8.365l4.853-.011Z" data-name="Path 933" transform="translate(83.956 3.903)"/><path id="Path_934" fill="#363638" fill-rule="evenodd" d="M2.639,2.87a8.206,8.206,0,0,1,12.54.084,10.833,10.833,0,0,1-.062,14.07,8.206,8.206,0,0,1-12.54-.056A10.612,10.612,0,0,1,0,9.9,10.589,10.589,0,0,1,2.639,2.87ZM13.482,4.843h0a5.988,5.988,0,0,0-9.154-.048,7.9,7.9,0,0,0-.043,10.271,5.988,5.988,0,0,0,9.154.048,7.9,7.9,0,0,0,.053-10.271Z" data-name="Path 934" transform="translate(81.405 0)"/><path id="Path_935" fill="#9da0a5" fill-rule="evenodd" d="M1.735,3.908A1.859,1.859,0,0,1,0,1.945,1.854,1.854,0,0,1,1.75,0,1.86,1.86,0,0,1,3.483,1.965a2.072,2.072,0,0,1-.514,1.379A1.643,1.643,0,0,1,1.735,3.908Z" data-name="Path 935" transform="translate(88.556 7.995)"/><path id="Path_936" fill="#fff" fill-rule="evenodd" d="M2.484,13.062a5.988,5.988,0,0,0,9.154.052,7.9,7.9,0,0,0,.046-10.271A5.988,5.988,0,0,0,2.53,2.791a7.908,7.908,0,0,0-.046,10.271ZM7.084,0C11,0,14.173,3.557,14.174,7.95S11,15.9,7.088,15.9,0,12.343,0,7.951,3.17,0,7.083,0Z" data-name="Path 936" transform="translate(83.213 2.004)"/><path id="Path_937" fill="#fff" fill-rule="evenodd" d="M.828,5.408C.808,5.611,0,0,0,0H3.128S2.28,5.272,2.3,5.434.828,5.408.828,5.408Z" data-name="Path 937" transform="translate(88.809 12.257)"/><path id="Path_938" fill="#fff" fill-rule="evenodd" d="M.005,2.4C-.169,2.441,4.237,0,4.237,0l.89,3.252S.527,3.875.4,3.937.005,2.4.005,2.4Z" data-name="Path 938" transform="translate(83.737 9.06)"/><path id="Path_939" fill="#fff" fill-rule="evenodd" d="M1.2.006C1.115-.171,4.47,3.851,4.47,3.851L1.956,5.75S.093.994,0,.876,1.2.006,1.2.006Z" data-name="Path 939" transform="translate(85.916 3.348)"/><path id="Path_940" fill="#fff" fill-rule="evenodd" d="M4.715,1.018C4.84.867,2.5,5.892,2.5,5.892L0,3.794S3.486.152,3.558.012,4.715,1.018,4.715,1.018Z" data-name="Path 940" transform="translate(90.218 3.223)"/><path id="Path_941" fill="#fff" fill-rule="evenodd" d="M4.761,4.078c.164.081-4.761-.8-4.761-.8L.963,0S5.1,2.511,5.234,2.544,4.761,4.078,4.761,4.078Z" data-name="Path 941" transform="translate(91.759 8.931)"/><path id="Path_942" fill="#e6e7e8" fill-rule="evenodd" d="M.332,10.282c-.825,2.691.049,4.656.874,6.835,1.239,3.27,23.893,9.42,29.532,10.607,0,0-2.3-1.272-.112-3.565,0,0,15.091,9.036,18.728,10.692l-1.134,1.276S62.51,41.218,85.759,34.6v-.763l14.408-8.4s3.079.509-.21,2.164c6.328-2.286,8.461-2.415,8.835-3.687l-.115-6.876V14.99s2.724-1.143,2.382-3.318a35.177,35.177,0,0,0-.907-4.055l-.565-.369-.227-2.673S103.637,1,99.1.616c1.229,6.444-.877,12.826-9.446,12.535C82.277,12.9,80.88,4.328,80.88,4.328L80.768.763,80.653,0,31.073,1.018V4.17s-.056,8.564-10.379,9.217S10.642,2.175,10.642,2.175L10.415.391S2.48.505.989,3.96C.989,3.96.9,8.752.332,10.282Z" data-name="Path 942" transform="translate(0 5.982)"/><path id="Path_943" fill="#d0d2d3" fill-rule="evenodd" d="M32.739.546,30.228.6V3.779S30.172,12.343,19.849,13,9.788,1.784,9.788,1.784L9.561,0S1.626.114.135,3.569c0,0-.026,1.331-.135,2.813L6.755,5.276a18.876,18.876,0,0,0,4.271,6.905c6.141,6.382,16.1,4.66,20.67-3.724a22.539,22.539,0,0,0,1.709-6.172S33.192,1.6,32.739.546Z" data-name="Path 943" transform="translate(0.854 6.373)"/><path id="Path_944" fill="#d0d2d3" fill-rule="evenodd" d="M30.984,14.375s2.724-1.143,2.382-3.318A35.171,35.171,0,0,0,32.459,7l-.565-.369L31.667,3.96S25.944.38,21.406,0c.851,6.072-.877,12.826-9.446,12.535-7.376-.254-8.773-8.822-8.773-8.822L3.118,1.5C1.206,2.256,0,2.791,0,2.791,1.837,10.983,7.025,18.08,15.361,15.573a12.586,12.586,0,0,0,6.21-4.9,21,21,0,0,1,4.741,1.276,38.084,38.084,0,0,1,4.672,2.422Z" data-name="Path 944" transform="translate(77.703 6.598)"/><path id="Path_945" fill="#d0d2d3" fill-rule="evenodd" d="M0,4.074.227,1.1,49.62,0l.151.763.151,3.311-1.288.085L47.048,3.4,2.875,3.48l-.453.678Z" data-name="Path 945" transform="translate(30.944 5.952)"/><path id="Path_946" fill="#c7c9ce" fill-rule="evenodd" d="M0,4.993.624,1.155S6.7-.279,7.38.049L6.887,3.367S.749,3.806,0,4.993Z" data-name="Path 946" transform="translate(0.24 11.6)"/><path id="Path_947" fill="#fbf9f6" fill-rule="evenodd" d="M.021,1.506A6.442,6.442,0,0,0,1.5,3.35a9.04,9.04,0,0,0,2.78-.442,27.3,27.3,0,0,1,2.957-.7S9.106,1.7,6.382.732,1.834-.149.816.437.021,1.506.021,1.506Z" data-name="Path 947" transform="translate(2.144 21.42)"/><path id="Path_948" fill="#404041" fill-rule="evenodd" d="M.01,0S11.96,9.427,19.067,11.8c0,0,3.46,1.526,11.309,1.552,1.847-6.208,1.538-5.161,3.181-12.166L23.371.848,0,0ZM32.3,13.328,35.4,1.25c8.756.288,19.353.623,20.956.623,2.8,0-.3,3.4-.3,3.4C55.071,6.286,51.293,9,51.293,9c-2.481,1.357-6.279,3.643-16.938,4.243C33.639,13.283,32.959,13.313,32.3,13.328Z" data-name="Path 948" transform="translate(32.676 28.014)"/><path id="Path_949" fill="#58595b" fill-rule="evenodd" d="M5.727.542C5.727.243,4.446,0,2.865,0S0,.243,0,.542s1.281.538,2.865.538S5.727.837,5.727.542Z" data-name="Path 949" transform="translate(54.47 24.604)"/><path id="Path_950" fill="#58595b" fill-rule="evenodd" d="M5.727.542C5.727.243,4.446,0,2.865,0S0,.243,0,.542s1.281.542,2.865.542S5.727.841,5.727.542Z" data-name="Path 950" transform="translate(81.587 25.875)"/><path id="Path_951" fill="url(#linear-gradient-3)" fill-rule="evenodd" d="M5.413,4.9A18.57,18.57,0,0,1,.958,4.513C-.521,4.045-.123,1.2,1.04.307c.8-.594,3.595-.173,4.271,0C5.318.3,5.985,3.289,5.413,4.9Z" data-name="Path 951" transform="translate(103.346 22.623)"/><path id="Path_952" fill="#ced0d1" fill-rule="evenodd" d="M5.38.124C4.368-.2.248.1.011,1.075S3.34,4.655,5.4,4.437Z" data-name="Path 952" transform="translate(32.454 26.895)"/><path id="Path_953" fill="url(#linear-gradient-4)" fill-rule="evenodd" d="M1.22,6.223s.476.487.513-1.08S1.437.007.948,0,.034.325.024.487C-.2,4.435,1.22,6.223,1.22,6.223Z" data-name="Path 953" transform="translate(0.041 16.99)"/></g></g></g></svg>