<svg xmlns="http://www.w3.org/2000/svg" viewBox="0 0 377.6 288.5"><defs><style>.cls-1{fill:none;stroke:#000;stroke-miterlimit:10;stroke-width:.5px}.cls-2{fill:#37374b}.cls-3{fill:#5b5b79}.cls-4{fill:#ff4b1a}.cls-5{fill:#343446}.cls-6{fill:#d9d9e7}.cls-7{fill:#bdbdcc}.cls-8{fill:#171724}.cls-9{fill:#06060f}.cls-10{fill:#e5e5e7}.cls-11{fill:#d3d3d5}.cls-12{fill:#8e8e9b}.cls-13{fill:#b7b7c9}.cls-14{fill:#00adc0}.cls-15{fill:#45455b}.cls-16{fill:#00919c}.cls-17{fill:#0d0d16}.cls-18{fill:#2d2d3d}.cls-19{fill:#007073}</style></defs><title>Heavy</title><g id="Layer_2" data-name="Layer 2"><g id="OBJECTS"><rect width="377.1" height="288" x=".25" y=".25" class="cls-1" rx="22.28"/><path d="M157.28,247h-5.41V233.1h-14V247h-5.43V215.7h5.43v13h14v-13h5.41Z"/><path d="M173.44,247.41a10.83,10.83,0,0,1-8.05-3.13,11.35,11.35,0,0,1-3.08-8.32v-.65a14,14,0,0,1,1.34-6.22,10.16,10.16,0,0,1,3.77-4.26,10,10,0,0,1,5.42-1.53,9.11,9.11,0,0,1,7.33,3q2.6,3,2.59,8.57V237H167.57a6.94,6.94,0,0,0,1.93,4.55,5.76,5.76,0,0,0,4.24,1.68,7.07,7.07,0,0,0,5.84-2.9L182.4,243a9.47,9.47,0,0,1-3.73,3.24A11.75,11.75,0,0,1,173.44,247.41Zm-.62-19.92a4.39,4.39,0,0,0-3.47,1.5,7.8,7.8,0,0,0-1.69,4.19h10v-.38a6.38,6.38,0,0,0-1.4-4A4.38,4.38,0,0,0,172.82,227.49Z"/><path d="M200.7,247a8.06,8.06,0,0,1-.6-2.17,8.13,8.13,0,0,1-6.1,2.6,8.22,8.22,0,0,1-5.72-2,6.4,6.4,0,0,1-2.21-4.94,6.62,6.62,0,0,1,2.76-5.71c1.84-1.32,4.48-2,7.9-2h3.2v-1.53a4.09,4.09,0,0,0-1-2.89,4,4,0,0,0-3.07-1.08,4.54,4.54,0,0,0-2.92.89,2.75,2.75,0,0,0-1.14,2.26h-5.22a5.81,5.81,0,0,1,1.26-3.57,8.51,8.51,0,0,1,3.45-2.61,12.16,12.16,0,0,1,4.87-.95,9.8,9.8,0,0,1,6.51,2,7.3,7.3,0,0,1,2.49,5.77v10.49a11.8,11.8,0,0,0,.88,5V247ZM195,243.22a5.85,5.85,0,0,0,2.91-.76,5,5,0,0,0,2.05-2v-4.39h-2.82a7.74,7.74,0,0,0-4.36,1,3.29,3.29,0,0,0-1.46,2.86,3.09,3.09,0,0,0,1,2.4A3.9,3.9,0,0,0,195,243.22Z"/><path d="M218.49,240.36l4.92-16.63h5.39L220.75,247h-4.54l-8.12-23.25h5.42Z"/><path d="M240.19,239.5l4.73-15.77h5.56l-9.24,26.77q-2.12,5.87-7.22,5.87a9.33,9.33,0,0,1-2.51-.39v-4.06l1,.06a5.1,5.1,0,0,0,3-.72,4.74,4.74,0,0,0,1.57-2.41l.76-2-8.17-23.12h5.63Z"/><path d="M110.2,174.26a5.16,5.16,0,0,1-5.16,5.16H71.54a4.76,4.76,0,0,1-4.75-4.76v-.4H110.2Z" class="cls-2"/><path d="M101.51,166.2a8.13,8.13,0,0,0,8.07,8.06H65.7l-5.79,4.33v-7.11l1.87-1.28v-4Z" class="cls-3"/><polygon points="57.95 180.06 57.95 172.81 59.91 171.47 59.91 178.59 57.95 180.06" class="cls-4"/><path d="M94.83,181.51c1.79,0,2,2.78.21,2.78S93,181.51,94.83,181.51Z" class="cls-5"/><path d="M90.59,185.27c1.8,0,2,2.79.21,2.79S88.8,185.27,90.59,185.27Z" class="cls-5"/><path d="M89.14,182.7a1.67,1.67,0,1,1,1.66,1.66A1.67,1.67,0,0,1,89.14,182.7Z" class="cls-5"/><path d="M90.92,179.93c-1.78,0-2-2.79-.21-2.79S92.72,179.93,90.92,179.93Z" class="cls-5"/><path d="M86.61,181.59c1.79,0,2,2.8.21,2.8S84.81,181.59,86.61,181.59Z" class="cls-5"/><path d="M95,184.29c1.8,0,1.58-2.78-.21-2.78S93.26,184.29,95,184.29Zm-4.24,3.77c1.8,0,1.59-2.79-.21-2.79S89,188.06,90.8,188.06Zm.12-8.13c1.8,0,1.6-2.79-.21-2.79S89.14,179.93,90.92,179.93ZM90.8,181a1.66,1.66,0,1,0,1.67,1.66A1.67,1.67,0,0,0,90.8,181Zm-4.19.55c-1.8,0-1.58,2.8.21,2.8S88.4,181.59,86.61,181.59ZM84.4,182.7a6.41,6.41,0,1,1,6.4,6.41A6.4,6.4,0,0,1,84.4,182.7Z" class="cls-6"/><path d="M90.8,176.3a6.41,6.41,0,1,0,6.41,6.4A6.4,6.4,0,0,0,90.8,176.3Zm-11.51,6.4A11.52,11.52,0,1,1,90.8,194.22,11.51,11.51,0,0,1,79.29,182.7Z" class="cls-7"/><path d="M90.8,171.19a11.52,11.52,0,1,0,11.52,11.51A11.51,11.51,0,0,0,90.8,171.19Zm0-4.2A15.72,15.72,0,1,1,75.09,182.7,15.72,15.72,0,0,1,90.8,167Z" class="cls-2"/><path d="M110.78,182.7a20,20,0,1,1-20-20A20,20,0,0,1,110.78,182.7Zm-20,15.72A15.72,15.72,0,1,0,75.09,182.7,15.72,15.72,0,0,0,90.8,198.42Z" class="cls-8"/><rect width="52.87" height="27.75" x="255.36" y="153.29" class="cls-9"/><path d="M283.94,181.51c1.78,0,2,2.78.2,2.78S282.13,181.51,283.94,181.51Z" class="cls-5"/><path d="M279.69,185.27c1.8,0,2,2.79.21,2.79S277.9,185.27,279.69,185.27Z" class="cls-5"/><path d="M278.24,182.7a1.67,1.67,0,1,1,1.66,1.66A1.67,1.67,0,0,1,278.24,182.7Z" class="cls-5"/><path d="M280,179.93c-1.79,0-2-2.79-.21-2.79S281.83,179.93,280,179.93Z" class="cls-5"/><path d="M275.71,181.59c1.79,0,2,2.8.21,2.8S273.91,181.59,275.71,181.59Z" class="cls-5"/><path d="M284.14,184.29c1.81,0,1.58-2.78-.2-2.78S282.36,184.29,284.14,184.29Zm-4.24,3.77c1.8,0,1.59-2.79-.21-2.79S278.11,188.06,279.9,188.06Zm.13-8.13c1.8,0,1.59-2.79-.21-2.79S278.24,179.93,280,179.93ZM279.9,181a1.66,1.66,0,1,0,1.68,1.66A1.67,1.67,0,0,0,279.9,181Zm-4.19.55c-1.8,0-1.58,2.8.21,2.8S277.5,181.59,275.71,181.59Zm-2.2,1.11a6.4,6.4,0,1,1,6.39,6.41A6.39,6.39,0,0,1,273.51,182.7Z" class="cls-6"/><path d="M279.9,176.3a6.41,6.41,0,1,0,6.41,6.4A6.39,6.39,0,0,0,279.9,176.3Zm-11.5,6.4a11.51,11.51,0,1,1,11.5,11.52A11.5,11.5,0,0,1,268.4,182.7Z" class="cls-7"/><path d="M279.9,171.19a11.52,11.52,0,1,0,11.52,11.51A11.5,11.5,0,0,0,279.9,171.19Zm0-4.2a15.72,15.72,0,1,1-15.71,15.71A15.72,15.72,0,0,1,279.9,167Z" class="cls-2"/><path d="M299.88,182.7a20,20,0,1,1-20-20A20,20,0,0,1,299.88,182.7Zm-20,15.72a15.72,15.72,0,1,0-15.71-15.72A15.72,15.72,0,0,0,279.9,198.42Z" class="cls-8"/><rect width="109.35" height="11.63" x="113.59" y="169.95" class="cls-8"/><path d="M231.32,166.2v-5.47H234v6.35h5.26v5s-.1,4.1,7.44,4.1v3h10.39v6.92H216.93v-20Z" class="cls-2"/><rect width="173.25" height="5.58" x="62.7" y="87.29" class="cls-10"/><rect width="173.25" height="6.55" x="62.7" y="80.74" class="cls-11"/><rect width="173.25" height="6.54" x="62.7" y="74.2" class="cls-10"/><rect width="173.25" height="6.55" x="62.7" y="67.65" class="cls-11"/><rect width="173.25" height="5.89" x="62.7" y="61.76" class="cls-10"/><polygon points="182.64 170.2 183.73 166.2 227.43 166.2 227.44 170.2 186.09 170.2 182.64 170.2" class="cls-3"/><path d="M174.82,169H164.51V166.3h16v-.1h3.22l-1.09,4-1.29,1.68a8.09,8.09,0,0,1-5.74,2.38h-11.1v-2h10.31Z" class="cls-12"/><rect width="10.3" height="3.3" x="164.51" y="168.97" class="cls-7"/><rect width="6.74" height="1.99" x="157.77" y="172.28" class="cls-5"/><rect width="6.74" height="3.3" x="157.77" y="168.97" class="cls-7"/><rect width="6.74" height="2.67" x="157.77" y="166.3" class="cls-5"/><rect width="6.74" height=".1" x="157.77" y="166.2" class="cls-3"/><rect width="30.8" height="1.99" x="126.97" y="172.28" class="cls-12"/><rect width="30.8" height="3.3" x="126.97" y="168.97" class="cls-7"/><rect width="30.8" height="2.67" x="126.97" y="166.3" class="cls-12"/><rect width="173.25" height="6.55" x="62.7" y="99.4" class="cls-10"/><rect width="6.74" height="1.99" x="120.24" y="172.28" class="cls-5"/><rect width="6.74" height="3.3" x="120.24" y="168.97" class="cls-7"/><rect width="6.74" height="2.67" x="120.24" y="166.3" class="cls-5"/><rect width="6.74" height=".1" x="120.24" y="166.2" class="cls-3"/><polygon points="180.51 166.53 164.51 166.53 157.77 166.53 126.97 166.53 120.24 166.53 104.73 166.53 104.73 163 180.51 163 180.51 166.53" class="cls-3"/><rect width="173.25" height="6.22" x="62.7" y="150.54" class="cls-10"/><rect width="173.25" height="6.54" x="62.7" y="144" class="cls-11"/><rect width="173.25" height="6.06" x="62.7" y="137.94" class="cls-10"/><rect width="173.25" height="6.55" x="62.7" y="131.39" class="cls-11"/><rect width="173.25" height="6.54" x="62.7" y="124.85" class="cls-10"/><rect width="173.25" height="6.55" x="62.7" y="118.3" class="cls-11"/><rect width="173.25" height="5.81" x="62.7" y="112.49" class="cls-10"/><rect width="173.25" height="6.54" x="62.7" y="105.95" class="cls-11"/><rect width="10.04" height="3.3" x="110.2" y="168.97" class="cls-7"/><path d="M110.2,174.26h-.62a8.13,8.13,0,0,1-8.07-8.06h3.22v.1h15.51V169h-10v3.31h10v2Z" class="cls-12"/><rect width="173.25" height="6.54" x="62.7" y="92.86" class="cls-11"/><path d="M56.81,54.34V166.2l47.92-.06V163h75.78v3.13h38.61v.06h22.71V54.34ZM235.94,158.77H62.7v-97H235.94Z" class="cls-13"/><rect width="9.49" height="1.5" x="219.17" y="161.5" class="cls-4"/><rect width="9.49" height="1.5" x="205.88" y="161.5" class="cls-4"/><rect width="9.49" height="1.5" x="79.56" y="161.83" class="cls-4"/><rect width="9.49" height="1.5" x="66.28" y="161.83" class="cls-4"/><rect width="173.24" height="2.02" x="62.7" y="156.76" class="cls-2"/><path d="M310.39,93.49a55.69,55.69,0,0,1,11.31,15.25h-1.64v5.1c-.39-.78-.79-1.57-1.2-2.36h0a79.89,79.89,0,0,0-6-9.89,49.31,49.31,0,0,0-5.67-6.68l2.59-.58Z" class="cls-14"/><path d="M320.06,113.84v5.27l-13.94,3.25-.71-7.9,13.44-3h0C319.27,112.27,319.67,113.06,320.06,113.84Z" class="cls-15"/><path d="M318.85,111.48l-13.44,3-1-10.92,8.39-2A79.89,79.89,0,0,1,318.85,111.48Z" class="cls-2"/><path d="M311.08,88.93A81,81,0,0,1,326,108.46l-.49.28h-2.2A94.59,94.59,0,0,0,309.75,90V87.83h0C310.21,88.16,310.65,88.54,311.08,88.93Z" class="cls-2"/><path d="M305.81,179v0l-5.16-.1-1.19-11.88a13.11,13.11,0,0,0-12.65-9.7H272.69a14.86,14.86,0,0,0-13.7,9.08h-.11V87.83h9.65v65.88h22.4a11.9,11.9,0,0,1,11.51,8.85Z" class="cls-16"/><polygon points="304.91 122.64 304.2 114.72 305.41 114.46 306.12 122.36 304.91 122.64" class="cls-8"/><polygon points="306.12 122.36 306.14 122.65 305.53 122.72 305.5 122.72 304.91 122.67 304.91 122.64 306.12 122.36" class="cls-8"/><path d="M323.78,122.2c-1-2.53-2.26-5.39-3.72-8.36v-5.1h1.64a86.11,86.11,0,0,1,3.76,8.35v9.54C325,125.33,324.43,123.83,323.78,122.2Z" class="cls-17"/><path d="M276.82,120.79l28,1.87-22.27,5.21a1.51,1.51,0,0,0,.43-1.06v-1.88H270.69v1.88h-2.16V111.49h1.85l1.41-.33v5.4a4.18,4.18,0,0,0,3.9,4.16Z" class="cls-14"/><path d="M325.46,117.09a106.61,106.61,0,0,1,4.24,13.65l.47,35.51v13.21l-24.36-.4v0l-3.37-16.48a11.9,11.9,0,0,0-11.51-8.85h-22.4v-26.9h2.16a1.54,1.54,0,0,0,1.54,1.54h9.19a1.52,1.52,0,0,0,1.11-.48l22.27-5.21.11,0v.09l.58,0h0a1.66,1.66,0,0,1,1.38.88l4,7.31a1.69,1.69,0,0,0,1.49.89h12.42a1.71,1.71,0,0,0,1.63-2.24c-.27-.8-.6-1.79-1-2.93Zm.09,53.27v-3.3H318.5v3.3Z" class="cls-14"/><polygon points="304.44 103.55 305.41 114.46 304.2 114.72 303.24 103.83 304.44 103.55" class="cls-8"/><path d="M280.47,128.35l2.06-.48a1.52,1.52,0,0,1-1.11.48Z" class="cls-2"/><path d="M320.06,113.84c1.46,3,2.7,5.83,3.72,8.36l-3.72,5.51V113.84Z" class="cls-17"/><path d="M325.46,112.84v4.25a86.11,86.11,0,0,0-3.76-8.35h1.56C324,110.05,324.73,111.41,325.46,112.84Z" class="cls-17"/><polygon points="304.2 114.72 304.91 122.64 304.8 122.67 276.82 120.8 304.2 114.72" class="cls-15"/><path d="M323.26,108.74h2.2v4.1C324.73,111.41,324,110.05,323.26,108.74Z" class="cls-17"/><path d="M332.66,131.14a101.61,101.61,0,0,0-7.2-18.3v-4.1l.49-.28a125.29,125.29,0,0,1,8.82,19.74,38.21,38.21,0,0,1,1.42,5.34A4.55,4.55,0,0,1,332.66,131.14Z" class="cls-2"/><polygon points="304.91 122.64 304.91 122.67 304.8 122.67 304.91 122.64" class="cls-2"/><path d="M329.7,130.74a106.61,106.61,0,0,0-4.24-13.65v-4.25a101.61,101.61,0,0,1,7.2,18.3,4.55,4.55,0,0,0,3.53,2.4,33.37,33.37,0,0,1,.59,4.23c.18,2.13.31,4.25.4,6.3h-4.72v8.54A8,8,0,0,0,334.4,156a4.13,4.13,0,0,0,2.92,1.2c-.12,5.35-.4,8.8-.4,8.8l.07,0-.07.2h-6.75Z" class="cls-16"/><path d="M306.91,123.6a1.66,1.66,0,0,0-1.38-.88l.61-.07,0-.29,13.94-3.25v8.6l-2.78,4.09h-4.85a1.69,1.69,0,0,1-1.49-.89Z" class="cls-2"/><path d="M283,124.93v1.88a1.51,1.51,0,0,1-.43,1.06l-2.06.48h-8.24a1.54,1.54,0,0,1-1.54-1.54v-1.88Z" class="cls-2"/><path d="M303.24,103.83l1,10.89-27.38,6.07-1.13-.07a4.18,4.18,0,0,1-3.9-4.16v-5.4Z" class="cls-2"/><polygon points="302.53 95.93 303.24 103.83 271.79 111.16 271.79 102.76 302.53 95.93" class="cls-15"/><path d="M303.34,91.21l-.61.05a1.73,1.73,0,0,0-1-.29H273.51a1.71,1.71,0,0,0-1.72,1.7v18.49l-1.41.33h-1.85V87.83H302s3.6,1.23,8.4,5.66l-.64.84-2.59.58a30.1,30.1,0,0,0-3.78-3.17Z" class="cls-14"/><polygon points="303.74 95.67 304.44 103.55 303.24 103.83 302.53 95.93 303.74 95.67" class="cls-8"/><path d="M312.83,101.59l-8.39,2-.7-7.87,3.42-.76A49.31,49.31,0,0,1,312.83,101.59Z" class="cls-15"/><path d="M303.38,91.74l.36,3.93-1.21.26-.41-4.61.61-.06C303,91.41,303.17,91.57,303.38,91.74Z" class="cls-8"/><path d="M307.16,94.91l-3.42.76-.36-3.93A30.1,30.1,0,0,1,307.16,94.91Z" class="cls-2"/><path d="M302.73,91.26l-.61.06.41,4.61-30.74,6.83V92.67a1.71,1.71,0,0,1,1.72-1.7h28.24A1.73,1.73,0,0,1,302.73,91.26Z" class="cls-2"/><path d="M321.7,108.74a55.69,55.69,0,0,0-11.31-15.25c-4.8-4.43-8.4-5.66-8.4-5.66h7.76V90a94.59,94.59,0,0,1,13.51,18.77Z" class="cls-16"/><path d="M321.94,131.14h3.52v-4.51c.42,1.14.75,2.13,1,2.93a1.71,1.71,0,0,1-1.63,2.24h-7.57l2.78-4.09v1.84h1.88Z" class="cls-8"/><path d="M321.94,129.55h-1.88v-1.84l3.72-5.51c.65,1.63,1.22,3.13,1.68,4.43v2.92Z" class="cls-17"/><rect width="3.52" height="1.6" x="321.94" y="129.55" class="cls-18"/><polygon points="300.97 182.12 301.35 185.85 300.16 185.85 299.6 182.12 300.97 182.12" class="cls-2"/><path d="M301,182.12h35.95l.18.11a7.32,7.32,0,0,1-6.32,3.62H301.35Z" class="cls-2"/><path d="M337,166.05a3.83,3.83,0,0,1,2.51,4.22L338,179.64a7.24,7.24,0,0,1-.93,2.59l-.18-.11H301l-.32-3.16,5.16.1,24.36.4V166.25h6.75Z" class="cls-8"/><polygon points="300.65 178.97 300.97 182.12 299.6 182.12 299.13 178.94 300.65 178.97" class="cls-8"/><rect width="1.47" height="19.38" x="249.6" y="166.46" class="cls-8"/><path d="M258.88,166.46v.27a14.81,14.81,0,0,0-1.06,5.51v13.61h-6.75V166.46Z" class="cls-8"/><path d="M261.12,166.46s-2.83,5.33-1.83,19.39h-1.47V172.24a14.81,14.81,0,0,1,1.06-5.51,2.18,2.18,0,0,1,.11-.27Z" class="cls-8"/><path d="M309.76,87.82H252.1c.82-2.13,2-3.68,3.43-3.69L298.47,84A18.48,18.48,0,0,1,309.76,87.82Z" class="cls-19"/><rect width="7.05" height="3.3" x="318.5" y="167.06" class="cls-4"/><path d="M334.4,144.07v12a8,8,0,0,1-1.94-3.42v-8.54Z" class="cls-4"/><path d="M337.37,152.68l-.05,4.55a4.13,4.13,0,0,1-2.92-1.2v-12h2.78C337.32,147.12,337.37,150,337.37,152.68Z" class="cls-10"/><path d="M258.88,87.83v78.63h-7.81V93.52a16.1,16.1,0,0,1,1-5.69Z" class="cls-14"/></g></g></svg>