<svg xmlns="http://www.w3.org/2000/svg" viewBox="0 0 1018 784"><defs><style>.cls-1,.cls-3{fill:#fff}.cls-1{stroke:#000;stroke-miterlimit:10}.cls-2{fill:#67b8a9}.cls-4{fill:#506a6d}.cls-5{fill:#656e70}.cls-6{fill:#9acadb}.cls-7{fill:#5fa69b}.cls-8{fill:#b4e1ef}.cls-9{opacity:.2}.cls-10{fill:#fffff1}.cls-11{opacity:.1}.cls-12{fill:#35383f}.cls-13{fill:#46917d}</style></defs><title>Hybrid</title><g id="Layer_2" data-name="Layer 2"><g id="object"><rect width="1017" height="783" x=".5" y=".5" class="cls-1" rx="37.42"/><ellipse cx="374.99" cy="183.36" class="cls-2" rx="86.49" ry="92.05"/><polygon points="331.47 120.92 372.2 118.3 408.6 197.36 378.74 199.28 406.32 263.99 337.95 184.86 371 179.67 331.47 120.92" class="cls-3"/><path d="M689.39,54.84,582.28,80.11q.18.7.33,1.41c4.15,19.9-7.65,39.61-26.35,44l-.17,0L587.84,278c1.6,7.65,8.71,12.47,15.9,10.77l128.08-30.22c7.19-1.7,11.72-9.27,10.13-16.91l-36.67-176C703.68,58,696.57,53.14,689.39,54.84Zm12.2,70L634.78,86.44l47-11.08c5-1.19,10,2.18,11.08,7.51Z" class="cls-4"/><path d="M567.75,83.54,506.08,58.15,500.36,68,552,106.41l3.89,15.52c17.64-4.17,26.5-21.82,23.22-40.58Z" class="cls-5"/><path d="M489.51,121.84c1.68,12.38,10.6,19.58,22.26,15.74,6.71-2.21,11-9.57,9.9-17.07-1.39-9.82-8.56-17.35-13.82-25-2.75-4-5-8.82-4.82-13.67a.58.58,0,0,0-1-.4c-1.09,1.37-2.54,2.82-3.18,3.8a62,62,0,0,0-4,7.19,63.46,63.46,0,0,0-5,15.78A45.39,45.39,0,0,0,489.51,121.84Z" class="cls-6"/><path d="M501.3,130.49c-7.35-2.07-7.28-12.76-5.72-19,.38-1.52-1.82-2.28-2.2-.75-1.89,7.57-1.48,19.65,7.21,22.1C502,133.23,502.73,130.89,501.3,130.49Z" class="cls-3"/><path d="M504.8,132.62l-.25.06a1.24,1.24,0,0,0-.88,1.46,1.18,1.18,0,0,0,1.38.93l.25-.06a1.22,1.22,0,0,0,.87-1.46A1.17,1.17,0,0,0,504.8,132.62Z" class="cls-3"/><path d="M678.86,198.51A114.2,114.2,0,0,0,674.23,178a194,194,0,0,0-14.36-35.31c-5.5,6.73-12,12-18.08,18.31A102.92,102.92,0,0,0,629.84,176a84.26,84.26,0,0,0-9.42,19.39c-3.68,11.14-4.52,23.44.49,34.23,4.68,10.09,12.68,18.84,22.63,22.89,1.16-11.23,4.12-38.16,8-60.08,5.05-28.46,6-27,6-27s-5,51.52-6,59.44c-.66,5.07-2.58,18.58-2.32,28,11.29-1.15,20-12.53,24.64-22.25A60.36,60.36,0,0,0,678.86,198.51Z" class="cls-3"/><path d="M726.36,439.31l-28-28.73h-.85L692.82,400l-25-55.85c-7.34-16.37-13.84-44.33-34.54-44.56L436.51,297.5c-21.85-.23-41.89,13.65-51.47,35.67l-33.35,76.65h-3.28l-66.12,21.4c-23.24,11.8-38.15,36.66-38.4,64.06l-.39,41.18,499.56,5.32.55-58.59A62.09,62.09,0,0,0,726.36,439.31Z" class="cls-7"/><path d="M534.55,402.92l131.27,1.39-29.08-78.46a9.49,9.49,0,0,0-8.61-6.51l-92.79-1Z" class="cls-8"/><path d="M512.89,318.12l-75.2-.8c-15.93-.17-30.54,9.95-37.52,26L375,401.22l137.12,1.46Z" class="cls-8"/><g class="cls-9"><path d="M640.17,344.79l5.21,3-8-21.47a9.49,9.49,0,0,0-8.61-6.51l-32.15-.34C611.11,328,625.68,336.35,640.17,344.79Z" class="cls-10"/><path d="M642.54,363.47c-24-14.13-49.16-30.15-72.87-44.75l-30.16.19C560,338,586,355,608.89,370.38c13.78,9.22,27.86,17.95,42.29,26,4.73,2.63,9.68,5,14.65,7.44l-12.59-34C649.68,367.7,646.11,365.57,642.54,363.47Z" class="cls-10"/><path d="M488.75,368.47c-10.07-7.08-20.51-13.62-31-19.93s-21.43-12.81-32.6-18.12c-3.68-1.75-7.4-3.38-11.11-5a45.05,45.05,0,0,0-13.86,17.92l-.25.57c11.27,8.55,22.61,17,33.8,25.63,16.55,12.76,34.86,22.48,52.76,32.89l25.62.27.14-15.33C504.42,381.05,497,374.23,488.75,368.47Z" class="cls-10"/></g><path d="M432.62,538.46a40.3,40.3,0,0,0,.73-7.33c.24-24.6-21.68-44.79-49-45.08A52.83,52.83,0,0,0,355.75,494c16.78,3.94,31.52,13,43.5,24.89a79.81,79.81,0,0,1,14.47,19.27Z" class="cls-11"/><path d="M691.3,541.21a42.16,42.16,0,0,0,.72-7.33c.23-24.6-21.17-44.78-47.79-45.06a50.64,50.64,0,0,0-28,7.93c16.38,3.94,30.77,13,42.46,24.88a79.7,79.7,0,0,1,14.13,19.26Z" class="cls-11"/><ellipse cx="373.74" cy="532.69" class="cls-12" rx="43.92" ry="46.74"/><ellipse cx="373.74" cy="532.69" class="cls-10" rx="24.93" ry="26.53"/><path d="M378,551.21a19.7,19.7,0,0,0,13-5.63,14.8,14.8,0,0,1-9.73,9.57,28.36,28.36,0,0,1-9.58.54,14.74,14.74,0,0,1-10.52-7.92c.69,1.35,5.56,2.35,6.78,2.6A37.46,37.46,0,0,0,378,551.21Z" class="cls-11"/><ellipse cx="633.26" cy="535.45" class="cls-12" rx="43.92" ry="46.74"/><ellipse cx="633.26" cy="535.45" class="cls-10" rx="24.93" ry="26.53"/><path d="M637.46,554a19.66,19.66,0,0,0,13-5.64,14.78,14.78,0,0,1-9.73,9.58,21.92,21.92,0,0,1-4.63.67,22.76,22.76,0,0,1-5-.13,14.74,14.74,0,0,1-10.52-7.92c.69,1.35,5.57,2.35,6.78,2.6A37.5,37.5,0,0,0,637.46,554Z" class="cls-11"/><path d="M497.73,437.35l-18.25-.19a2.93,2.93,0,0,1-2.79-3l.05-4.93a2.91,2.91,0,0,1,2.84-3l18.25.2a2.92,2.92,0,0,1,2.79,3l-.05,4.93A2.91,2.91,0,0,1,497.73,437.35Z" class="cls-13"/><path d="M415.22,713.31H399.73v-39.7h-40v39.7H344.17V623.83h15.55v37.24h40V623.83h15.49Z"/><path d="M455.41,691.92l13.53-45.11h15.91l-26.42,76.58q-6.09,16.77-20.65,16.78a26.38,26.38,0,0,1-7.2-1.12v-11.6l2.83.18q5.65,0,8.51-2.06c1.91-1.37,3.41-3.67,4.52-6.91l2.15-5.71-23.35-66.14h16.1Z"/><path d="M551.78,680.74q0,15.48-6.91,24.64t-19,9.16q-11.69,0-18.2-8.42l-.73,7.19H493.4v-94.4h14.93V653.2q6.45-7.62,17.39-7.62,12.18,0,19.12,9t6.94,25.26Zm-14.93-1.29q0-10.83-3.81-16.23T522,657.81q-9.71,0-13.64,8.48V693.7q4,8.67,13.77,8.67a12.59,12.59,0,0,0,10.81-5.22q3.81-5.24,3.94-15.8Z"/><path d="M599.1,660.46A36.59,36.59,0,0,0,593,660q-10.26,0-13.83,7.87v45.48H564.26v-66.5h14.26l.37,7.44q5.4-8.67,15-8.67a14.11,14.11,0,0,1,5.29.86Z"/><path d="M608.57,629.54a7.93,7.93,0,0,1,2.18-5.71,8.25,8.25,0,0,1,6.24-2.28,8.35,8.35,0,0,1,6.27,2.28,7.87,7.87,0,0,1,2.21,5.71,7.67,7.67,0,0,1-2.21,5.62,8.41,8.41,0,0,1-6.27,2.25,8.31,8.31,0,0,1-6.24-2.25A7.73,7.73,0,0,1,608.57,629.54Zm15.86,83.77H609.49v-66.5h14.94Z"/><path d="M637.89,679.57q0-15.36,7.13-24.68a22.85,22.85,0,0,1,19.11-9.31q10.57,0,17.08,7.38V618.91h14.94v94.4H682.63l-.74-6.88q-6.71,8.12-17.88,8.11a22.72,22.72,0,0,1-18.9-9.4Q637.88,695.74,637.89,679.57Zm14.93,1.29q0,10.14,3.9,15.82a12.65,12.65,0,0,0,11.1,5.69,14.09,14.09,0,0,0,13.39-8.17V665.8q-4.11-8-13.27-8a12.77,12.77,0,0,0-11.19,5.75Q652.82,669.31,652.82,680.86Z"/></g></g></svg>