<svg xmlns="http://www.w3.org/2000/svg" viewBox="0 0 377.6 288.5"><defs><style>.cls-1,.cls-13,.cls-14{fill:none;}.cls-1{stroke:#000;stroke-width:0.5px;}.cls-1,.cls-13{stroke-miterlimit:10;}.cls-2{fill:#fff;}.cls-3{fill:#db0068;}.cls-4{fill:#a01263;}.cls-5{fill:#ed1d8a;}.cls-6{fill:#003444;}.cls-7{fill:#034959;}.cls-8{fill:#7a7e81;}.cls-9{fill:#646a6d;}.cls-10{fill:#c10668;}.cls-11{fill:#065663;}.cls-12{fill:#e00000;}.cls-13,.cls-14{stroke:#003444;}.cls-13{stroke-width:2px;}.cls-14{stroke-linecap:round;stroke-linejoin:round;}.cls-15{font-size:44px;font-family:Roboto-Medium, Roboto;font-weight:500;}</style></defs><title>Minii_suv</title><g id="Layer_2" data-name="Layer 2"><g id="OBJECTS"><rect class="cls-1" x="0.25" y="0.25" width="377.1" height="288" rx="22.28"/><circle class="cls-2" cx="317.77" cy="138.46" r="3.98"/><path class="cls-3" d="M323.31,117.48c-.09-.28-.19-.56-.31-.84,0,0-16.53,0-22.31-6-3.55-3.69,4.23-7,4.23-7-17.7-6.78-41.51-9.5-41.51-9.5s-46.33-32-96.87-32c-21.17,0-37.72.75-50.25,1.71C93.43,65.56,83.86,68,83.86,68c-.31,1.87,4.53,4.22,4.53,4.22,3.89,1.87,1.71,5.92,1.71,5.92l-9,15.29s2,7.49,1.25,10.92-18,7.83-18,7.83L62.65,124.5v20.59c3.59,8.11,13,8.92,13,8.92-.05-.67-.07-1.35-.07-2A27.48,27.48,0,0,1,130,146.74a26.63,26.63,0,0,1,.51,5.25,26.18,26.18,0,0,1-.14,2.81H256.17a28.17,28.17,0,0,1,.37-8,27.48,27.48,0,0,1,53.71-1.24A27.19,27.19,0,0,1,311,152c0,.67,0,1.35-.08,2,9.77-1.07,12.38-10,12.38-10,.24-.57.44-1.16.63-1.77C327.07,132,323.31,117.48,323.31,117.48ZM90.1,115.14a5.78,5.78,0,1,1,5.78-5.77A5.77,5.77,0,0,1,90.1,115.14ZM125.67,107H111.48a1.72,1.72,0,1,1,0-3.44h14.19a1.72,1.72,0,1,1,0,3.44Zm54.76,1a1.72,1.72,0,0,1,1.72-1.72h14.19a1.72,1.72,0,1,1,0,3.43H182.15A1.72,1.72,0,0,1,180.43,108.06Zm76.43-4.47-76.43-5.76-7.17-.54-8.08-.61-46.75-3.53S104.61,90.49,104,77.08c-.44-9.36,31.5-10.5,55.38-10h.08c3,.06,5.84.15,8.5.25,3.28.14,6.26.28,8.76.42s4.48.29,5.9.4C206.32,70.06,257.8,90.8,256.86,103.59Zm60.91,30.89a4,4,0,1,1-4,4A4,4,0,0,1,317.77,134.48Z"/><polygon class="cls-4" points="254.39 104.55 294.54 108.45 256.54 99.99 254.39 104.55"/><path class="cls-5" d="M102.12,118.25s29.76-2.31,38.52,24.19H246.7s-21.51-9.17-96.28-9.17C150.42,133.27,136.09,106.64,102.12,118.25Z"/><path class="cls-4" d="M78.21,140.17A27.5,27.5,0,0,0,75.55,152c0,.67,0,1.35.07,2,0,0-9.38-.81-13-8.92v-9.34C65.83,136.83,71.12,138.47,78.21,140.17Z"/><path class="cls-4" d="M256.54,146.81a28.17,28.17,0,0,0-.37,8H130.38a26.18,26.18,0,0,0,.14-2.81,26.63,26.63,0,0,0-.51-5.25q3,.07,6.09.07Z"/><path class="cls-4" d="M323.94,142.23c-.19.61-.39,1.2-.63,1.77,0,0-2.61,8.94-12.38,10,.05-.67.08-1.35.08-2a27.19,27.19,0,0,0-.76-6.42A76.63,76.63,0,0,0,323.94,142.23Z"/><path class="cls-2" d="M323,116.64s-16.53,0-22.31-6c-3.55-3.69,4.23-7,4.23-7C313.58,106.93,320.77,111.22,323,116.64Z"/><path class="cls-6" d="M311,152c0,.67,0,1.35-.08,2H305.4a16.81,16.81,0,0,0,.1-2,22,22,0,0,0-44,0,20.2,20.2,0,0,0,.19,2.81h-5.56A26.18,26.18,0,0,1,256,152a27.49,27.49,0,1,1,55,0Z"/><path class="cls-7" d="M305.5,152a16.81,16.81,0,0,1-.1,2,22,22,0,0,1-43.67.8,20.2,20.2,0,0,1-.19-2.81,22,22,0,0,1,44,0Zm-6.58,0a15.4,15.4,0,1,0-15.4,15.4A15.4,15.4,0,0,0,298.92,152Z"/><path class="cls-2" d="M283.52,136.6A15.4,15.4,0,1,1,268.13,152,15.4,15.4,0,0,1,283.52,136.6ZM292.26,152a8.75,8.75,0,1,0-8.74,8.75A8.74,8.74,0,0,0,292.26,152Z"/><circle class="cls-8" cx="283.52" cy="151.99" r="8.75"/><path class="cls-9" d="M292.27,152a8.75,8.75,0,0,1-8.75,8.75v-17.5A8.75,8.75,0,0,1,292.27,152Z"/><path class="cls-7" d="M256.86,103.59,209,100l-6.08-.46-22.51-1.7c-10.61-27.92-3.72-30-3.72-30,2.47.15,4.48.29,5.9.4,7.7.61,18.33,3.21,29.14,6.88,1.85.62,3.69,1.28,5.53,2C237.88,84.68,257.43,95.67,256.86,103.59Z"/><path class="cls-10" d="M196.34,106.34a1.72,1.72,0,1,1,0,3.43H182.15a1.72,1.72,0,1,1,0-3.43Z"/><path class="cls-6" d="M180.43,97.83l-7.17-.54A271.64,271.64,0,0,0,168,67.37c3.28.14,6.26.28,8.76.42C176.71,67.79,169.82,69.91,180.43,97.83Z"/><path class="cls-6" d="M173.26,97.29l-8.08-.61c2.25-27.19-5-29.4-5.73-29.56,3,.06,5.84.15,8.5.25A271.64,271.64,0,0,1,173.26,97.29Z"/><path class="cls-7" d="M165.18,96.68l-26-2-3-.23-7.39-.55-6.07-.47-4.27-.32S104.61,90.49,104,77.08c-.27-6,12.54-8.59,28.07-9.56q3.12-.21,6.35-.31c2.53-.1,5.09-.15,7.65-.18l3.13,0c3.48,0,6.9,0,10.18.1h.08C160.23,67.28,167.43,69.49,165.18,96.68Z"/><path class="cls-11" d="M217.28,77,209,100l-6.08-.46,8.81-24.46C213.6,75.69,215.44,76.35,217.28,77Z"/><path class="cls-11" d="M138.41,67.21l-9.64,26.73-6.07-.47,9.36-25.95Q135.18,67.31,138.41,67.21Z"/><path class="cls-11" d="M149.19,67l-10,27.71-3-.23L146.06,67Z"/><path class="cls-6" d="M130.52,152a26.18,26.18,0,0,1-.14,2.81h-5.55A20.2,20.2,0,0,0,125,152a22,22,0,0,0-44,0,19.19,19.19,0,0,0,.1,2H75.62c0-.67-.07-1.35-.07-2a27.49,27.49,0,1,1,55,0Z"/><path class="cls-10" d="M125.67,103.59a1.72,1.72,0,1,1,0,3.44H111.48a1.72,1.72,0,1,1,0-3.44Z"/><path class="cls-7" d="M125,152a20.2,20.2,0,0,1-.19,2.81,22,22,0,0,1-43.68-.8,19.19,19.19,0,0,1-.1-2,22,22,0,0,1,44,0Zm-6.59,0A15.4,15.4,0,1,0,103,167.39,15.39,15.39,0,0,0,118.43,152Z"/><path class="cls-2" d="M103,136.6A15.4,15.4,0,1,1,87.64,152,15.39,15.39,0,0,1,103,136.6ZM111.79,152a8.75,8.75,0,1,0-8.75,8.75A8.75,8.75,0,0,0,111.79,152Z"/><circle class="cls-8" cx="103.04" cy="151.99" r="8.75" transform="translate(-50.32 51) rotate(-22.5)"/><path class="cls-9" d="M111.79,152a8.75,8.75,0,0,1-8.75,8.75v-17.5A8.75,8.75,0,0,1,111.79,152Z"/><path class="cls-10" d="M90.1,103.59a5.78,5.78,0,1,1-5.76,5.78A5.78,5.78,0,0,1,90.1,103.59Z"/><path class="cls-12" d="M88.39,72.25c3.89,1.87,1.71,5.92,1.71,5.92l-9,15.29s2,7.49,1.25,10.92-18,7.83-18,7.83l1-7.83S68.89,92.68,88.39,72.25Z"/><path class="cls-13" d="M81.15,154a19.19,19.19,0,0,1-.1-2,22,22,0,0,1,44,0,20.2,20.2,0,0,1-.19,2.81,22,22,0,0,1-43.68-.8Z"/><path class="cls-13" d="M118.43,152A15.4,15.4,0,1,1,103,136.6,15.4,15.4,0,0,1,118.43,152Z"/><circle class="cls-13" cx="103.04" cy="151.99" r="8.75"/><path class="cls-13" d="M124.83,154.8h5.55a26.18,26.18,0,0,0,.14-2.81,27.49,27.49,0,1,0-55,0c0,.67,0,1.35.07,2h5.43"/><path class="cls-13" d="M305.4,154a16.81,16.81,0,0,0,.1-2,22,22,0,0,0-44,0,20.2,20.2,0,0,0,.19,2.81,22,22,0,0,0,43.67-.8Z"/><path class="cls-13" d="M268.13,152a15.4,15.4,0,1,0,15.39-15.39A15.4,15.4,0,0,0,268.13,152Z"/><circle class="cls-13" cx="283.52" cy="151.99" r="8.75"/><path class="cls-13" d="M261.73,154.8h-5.56A26.18,26.18,0,0,1,256,152a27.49,27.49,0,1,1,55,0c0,.67,0,1.35-.08,2H305.5"/><line class="cls-13" x1="130.38" y1="154.8" x2="256.17" y2="154.8"/><path class="cls-13" d="M75.62,154s-9.38-.81-13-8.92V124.5l1.62-12.29,1-7.83s3.59-11.7,23.09-32.13c0,0-4.84-2.35-4.53-4.22,0,0,9.57-2.47,32.43-4.22,12.53-1,29.08-1.71,50.25-1.71,50.54,0,96.87,32,96.87,32s23.81,2.72,41.51,9.5c8.66,3.34,15.85,7.63,18.08,13,.13.28.35,1.07.44,1.36,0,0,4.08,15.71-.13,26,0,0-2.61,8.94-12.38,10"/><path class="cls-13" d="M64.27,112.21s17.26-4.4,18-7.83-1.25-10.92-1.25-10.92l9-15.29s2.18-4-1.71-5.92"/><path class="cls-13" d="M159.45,67.12c3,.06,5.84.15,8.5.25,3.28.14,6.26.28,8.76.42s4.48.29,5.9.4c23.71,1.87,75.19,22.61,74.25,35.4l-76.43-5.76-7.17-.54-8.08-.61-46.75-3.53S104.61,90.49,104,77.08c-.44-9.36,31.5-10.5,55.38-10"/><path class="cls-13" d="M159.37,67.11h.08c.78.16,8,2.37,5.73,29.56"/><path class="cls-13" d="M176.71,67.79s-6.89,2.12,3.72,30"/><path class="cls-13" d="M125.67,107H111.48a1.72,1.72,0,1,1,0-3.44h14.19a1.72,1.72,0,1,1,0,3.44Z"/><path class="cls-13" d="M196.34,109.77H182.15a1.72,1.72,0,1,1,0-3.43h14.19a1.72,1.72,0,1,1,0,3.43Z"/><path class="cls-13" d="M95.88,109.37a5.77,5.77,0,1,1-5.78-5.78A5.77,5.77,0,0,1,95.88,109.37Z"/><path class="cls-13" d="M304.92,103.59s-7.78,3.34-4.23,7c5.78,6,22.31,6,22.31,6"/><circle class="cls-13" cx="317.77" cy="138.46" r="3.98"/><path class="cls-14" d="M168,67.37a271.64,271.64,0,0,1,5.31,29.92,329.5,329.5,0,0,1,2.64,49.52"/><polyline class="cls-14" points="140.64 146.81 175.9 146.81 249.84 146.81"/><line class="cls-14" x1="116.29" y1="63.81" x2="107.42" y2="53.68"/><path class="cls-6" d="M248.41,97.75a4,4,0,0,1-2.16,2.26c-3.25,1.68-9,1.59-11.27.91-2-.6-3.3-2.55-3.58-5a9.23,9.23,0,0,1,.34-3.79c1.19-3.92,4.57-6.38,7.55-5.48S249.6,93.82,248.41,97.75Z"/><text class="cls-15" transform="translate(107.94 242.85)">Mini SUV</text></g></g></svg>