<svg xmlns="http://www.w3.org/2000/svg" width="365" height="372" viewBox="0 0 365 372">
  <g id="Group_156" data-name="Group 156" transform="translate(-984 -284)">
    <g id="Rectangle_171" data-name="Rectangle 171" transform="translate(984 284)" fill="#00b2c1" stroke="#707070" stroke-width="1" opacity="0.8">
      <rect width="365" height="372" rx="10" stroke="none"/>
      <rect x="0.5" y="0.5" width="364" height="371" rx="9.5" fill="none"/>
    </g>
    <g id="Rectangle_333" data-name="Rectangle 333" transform="translate(1009 303)" fill="#fff" stroke="#707070" stroke-width="1">
      <rect width="318" height="245" rx="20" stroke="none"/>
      <rect x="0.5" y="0.5" width="317" height="244" rx="19.5" fill="none"/>
    </g>
    <text id="Provider" transform="translate(1092 617)" fill="#fcfcfc" font-size="36" font-family="NotoSansJP-Bold, Noto Sans JP" font-weight="700"><tspan x="0" y="0">Provider</tspan></text>
    <g id="Provider-2" data-name="Provider" transform="translate(1072 348.756)">
      <g id="Layer_2" data-name="Layer 2">
        <g id="OBJECTS">
          <rect id="Rectangle_272" data-name="Rectangle 272" width="174.801" height="152.057" transform="translate(8.641 20.633)" fill="#d1a454"/>
          <rect id="Rectangle_273" data-name="Rectangle 273" width="166.021" height="148.037" transform="translate(13.031 24.657)" fill="#bbdefb"/>
          <rect id="Rectangle_274" data-name="Rectangle 274" width="166.021" height="8.864" transform="translate(13.031 163.831)" fill="#a5d1ef"/>
          <path id="Path_693" data-name="Path 693" d="M239.96,271.378H210.94l4.449-80.118h20.122Z" transform="translate(-106.78 -107.42)" fill="#a5d1ef"/>
          <rect id="Rectangle_275" data-name="Rectangle 275" width="44.485" height="79.097" transform="translate(163.152 163.958) rotate(180)" fill="#bbdefb"/>
          <rect id="Rectangle_276" data-name="Rectangle 276" width="9.041" height="7.009" transform="translate(155.533 94.168) rotate(180)" fill="#a5d1ef"/>
          <rect id="Rectangle_277" data-name="Rectangle 277" width="9.041" height="7.009" transform="translate(140.759 117.453) rotate(180)" fill="#a5d1ef"/>
          <rect id="Rectangle_278" data-name="Rectangle 278" width="5.753" height="4.462" transform="translate(145.929 94.168) rotate(180)" fill="#a5d1ef"/>
          <rect id="Rectangle_279" data-name="Rectangle 279" width="5.753" height="4.462" transform="translate(133.575 94.168) rotate(180)" fill="#a5d1ef"/>
          <rect id="Rectangle_280" data-name="Rectangle 280" width="7.012" height="5.44" transform="translate(127.131 94.168) rotate(180)" fill="#a5d1ef"/>
          <rect id="Rectangle_281" data-name="Rectangle 281" width="5.753" height="6.054" transform="translate(139.752 94.172) rotate(180)" fill="#a5d1ef"/>
          <rect id="Rectangle_282" data-name="Rectangle 282" width="9.041" height="7.009" transform="translate(153.385 129.573) rotate(180)" fill="#a5d1ef"/>
          <rect id="Rectangle_283" data-name="Rectangle 283" width="5.753" height="4.462" transform="translate(143.786 129.573) rotate(180)" fill="#a5d1ef"/>
          <rect id="Rectangle_284" data-name="Rectangle 284" width="5.753" height="4.462" transform="translate(131.422 129.573) rotate(180)" fill="#a5d1ef"/>
          <rect id="Rectangle_285" data-name="Rectangle 285" width="7.012" height="5.44" transform="translate(124.983 129.573) rotate(180)" fill="#a5d1ef"/>
          <rect id="Rectangle_286" data-name="Rectangle 286" width="5.753" height="6.054" transform="translate(137.604 129.573) rotate(180)" fill="#a5d1ef"/>
          <rect id="Rectangle_287" data-name="Rectangle 287" width="9.041" height="7.009" transform="translate(119.605 98.626)" fill="#a5d1ef"/>
          <rect id="Rectangle_288" data-name="Rectangle 288" width="5.753" height="4.462" transform="translate(129.209 101.177)" fill="#a5d1ef"/>
          <rect id="Rectangle_289" data-name="Rectangle 289" width="5.753" height="4.462" transform="translate(141.569 101.177)" fill="#a5d1ef"/>
          <rect id="Rectangle_290" data-name="Rectangle 290" width="5.753" height="4.462" transform="translate(141.569 112.991)" fill="#a5d1ef"/>
          <rect id="Rectangle_291" data-name="Rectangle 291" width="5.753" height="4.462" transform="translate(117.872 112.991)" fill="#a5d1ef"/>
          <rect id="Rectangle_292" data-name="Rectangle 292" width="7.012" height="5.44" transform="translate(148.008 100.199)" fill="#a5d1ef"/>
          <rect id="Rectangle_293" data-name="Rectangle 293" width="7.012" height="5.44" transform="translate(124.123 112.013)" fill="#a5d1ef"/>
          <rect id="Rectangle_294" data-name="Rectangle 294" width="5.753" height="6.054" transform="translate(135.387 99.586)" fill="#a5d1ef"/>
          <rect id="Rectangle_295" data-name="Rectangle 295" width="5.753" height="6.054" transform="translate(148.141 111.404)" fill="#a5d1ef"/>
          <rect id="Rectangle_296" data-name="Rectangle 296" width="9.041" height="7.009" transform="translate(139.041 153.17) rotate(180)" fill="#a5d1ef"/>
          <rect id="Rectangle_297" data-name="Rectangle 297" width="9.041" height="7.009" transform="translate(117.887 134.343)" fill="#a5d1ef"/>
          <rect id="Rectangle_298" data-name="Rectangle 298" width="5.753" height="4.462" transform="translate(127.486 136.894)" fill="#a5d1ef"/>
          <rect id="Rectangle_299" data-name="Rectangle 299" width="5.753" height="4.462" transform="translate(139.851 136.894)" fill="#a5d1ef"/>
          <rect id="Rectangle_300" data-name="Rectangle 300" width="5.753" height="4.462" transform="translate(139.851 148.708)" fill="#a5d1ef"/>
          <rect id="Rectangle_301" data-name="Rectangle 301" width="5.753" height="4.462" transform="translate(116.154 148.708)" fill="#a5d1ef"/>
          <rect id="Rectangle_302" data-name="Rectangle 302" width="7.012" height="5.44" transform="translate(146.29 135.916)" fill="#a5d1ef"/>
          <rect id="Rectangle_303" data-name="Rectangle 303" width="7.012" height="5.44" transform="translate(122.405 147.73)" fill="#a5d1ef"/>
          <rect id="Rectangle_304" data-name="Rectangle 304" width="5.753" height="6.054" transform="translate(133.668 135.303)" fill="#a5d1ef"/>
          <rect id="Rectangle_305" data-name="Rectangle 305" width="5.753" height="6.054" transform="translate(146.418 147.121)" fill="#a5d1ef"/>
          <rect id="Rectangle_306" data-name="Rectangle 306" width="53.349" height="1.372" transform="translate(159.834 94.882) rotate(180)" fill="#cfecff"/>
          <rect id="Rectangle_307" data-name="Rectangle 307" width="53.349" height="1.372" transform="translate(159.854 106.74) rotate(180)" fill="#cfecff"/>
          <rect id="Rectangle_308" data-name="Rectangle 308" width="53.349" height="1.372" transform="translate(159.879 118.597) rotate(180)" fill="#cfecff"/>
          <rect id="Rectangle_309" data-name="Rectangle 309" width="53.349" height="1.372" transform="translate(159.898 130.455) rotate(180)" fill="#cfecff"/>
          <rect id="Rectangle_310" data-name="Rectangle 310" width="53.349" height="1.372" transform="translate(159.923 142.312) rotate(180)" fill="#cfecff"/>
          <rect id="Rectangle_311" data-name="Rectangle 311" width="53.349" height="1.372" transform="translate(159.938 154.17) rotate(180)" fill="#cfecff"/>
          <path id="Path_694" data-name="Path 694" d="M330.05,271.378H301.03l4.449-80.118H325.6Z" transform="translate(-152.385 -107.42)" fill="#cfecff"/>
          <rect id="Rectangle_312" data-name="Rectangle 312" width="50.04" height="37.374" transform="translate(128.069 36.682)" fill="#a5d1ef"/>
          <rect id="Rectangle_313" data-name="Rectangle 313" width="50.04" height="37.374" transform="translate(71.022 36.682)" fill="#a5d1ef"/>
          <rect id="Rectangle_314" data-name="Rectangle 314" width="50.04" height="37.374" transform="translate(13.974 36.682)" fill="#a5d1ef"/>
          <path id="Path_695" data-name="Path 695" d="M192.411,56.25V95.68L70.075,204.287H26.39V56.25Z" transform="translate(-13.359 -31.593)" fill="#231f20" opacity="0.1"/>
          <rect id="Rectangle_315" data-name="Rectangle 315" width="24.181" height="148.037" transform="translate(154.872 24.657)" fill="#e2b760"/>
          <rect id="Rectangle_316" data-name="Rectangle 316" width="24.181" height="148.037" transform="translate(152.398 24.657)" fill="#ffcf7b"/>
          <rect id="Rectangle_317" data-name="Rectangle 317" width="18.241" height="61.173" transform="translate(155.37 51.914)" fill="#105e99"/>
          <path id="Path_696" data-name="Path 696" d="M321.03,270.157v48.377h-4.513V270.157h4.513M322.9,268.5H314.65v51.691H322.9Z" transform="translate(-159.28 -150.802)" fill="#e2b760"/>
          <path id="Path_697" data-name="Path 697" d="M341.27,270.157v48.377h-4.513V270.157h4.513m1.867-1.657H334.89v51.691h8.246Z" transform="translate(-169.525 -150.802)" fill="#e2b760"/>
          <rect id="Rectangle_318" data-name="Rectangle 318" width="0.479" height="66.257" transform="translate(161.251 48.399)" fill="#ffcf7b"/>
          <rect id="Rectangle_319" data-name="Rectangle 319" width="0.479" height="66.257" transform="translate(167.295 48.399)" fill="#ffcf7b"/>
          <rect id="Rectangle_320" data-name="Rectangle 320" width="1.46" height="21.741" transform="translate(175.384 70.268) rotate(90)" fill="#ffcf7b"/>
          <rect id="Rectangle_321" data-name="Rectangle 321" width="1.46" height="21.741" transform="translate(175.384 91.323) rotate(90)" fill="#ffcf7b"/>
          <rect id="Rectangle_322" data-name="Rectangle 322" width="18.241" height="11.98" transform="translate(155.37 36.853)" fill="#105e99"/>
          <path id="Path_698" data-name="Path 698" d="M335.285,56.25v76.221l-2.474,2.2L311.1,153.937l-2.474,2.2V56.25Z" transform="translate(-156.232 -31.593)" fill="#231f20" opacity="0.25"/>
          <path id="Path_699" data-name="Path 699" d="M309.277,240.676a1.006,1.006,0,0,1-1.062.921H305.5V239.72h2.716a1.123,1.123,0,0,1,.759.278A.881.881,0,0,1,309.277,240.676Z" transform="translate(-154.648 -134.637)" fill="#e2b760"/>
          <path id="Path_700" data-name="Path 700" d="M309.282,272.718a1,1,0,0,1-1.057.938H305.51V271.78h2.755A.993.993,0,0,1,309.282,272.718Z" transform="translate(-154.653 -152.644)" fill="#e2b760"/>
          <path id="Path_701" data-name="Path 701" d="M307.441,241.6H305.51V239.72h2.676A5.66,5.66,0,0,1,307.441,241.6Z" transform="translate(-154.653 -134.637)" fill="#231f20" opacity="0.25"/>
          <path id="Path_702" data-name="Path 702" d="M308.265,271.78a5.4,5.4,0,0,1-.538,1.876H305.51V271.78Z" transform="translate(-154.653 -152.644)" fill="#231f20" opacity="0.25"/>
          <path id="Path_703" data-name="Path 703" d="M304.624,254.6h0a.922.922,0,0,1-.613-.226.725.725,0,0,1-.251-.545v-22a.82.82,0,0,1,.864-.767h0a.82.82,0,0,1,.864.767v22A.82.82,0,0,1,304.624,254.6Z" transform="translate(-153.767 -129.774)" fill="#e2b760"/>
          <rect id="Rectangle_323" data-name="Rectangle 323" width="83.011" height="148.037" transform="translate(13.031 24.657)" fill="#ffcf7b"/>
          <rect id="Rectangle_324" data-name="Rectangle 324" width="62.622" height="61.173" transform="translate(23.228 51.914)" fill="#105e99"/>
          <path id="Path_704" data-name="Path 704" d="M47.04,118.43H76.983L47.04,145.012Z" transform="translate(-23.812 -66.516)" fill="#fff" opacity="0.25"/>
          <path id="Path_705" data-name="Path 705" d="M84.647,118.43h22.729L47.04,172V151.815Z" transform="translate(-23.812 -66.516)" fill="#fff" opacity="0.25"/>
          <path id="Path_706" data-name="Path 706" d="M119.69,150.97v5.116L72.617,197.878H66.85Z" transform="translate(-33.84 -84.791)" fill="#fff" opacity="0.25"/>
          <path id="Path_707" data-name="Path 707" d="M71.872,271.568v45.554H50.457V271.568H71.872m3.457-3.069H47v51.691H75.314V268.5Z" transform="translate(-23.792 -150.802)" fill="#e2b760"/>
          <path id="Path_708" data-name="Path 708" d="M141.372,271.568v45.554h-21.4V271.568h21.4m3.457-3.069H116.52v51.691h28.309Z" transform="translate(-58.984 -150.802)" fill="#e2b760"/>
          <rect id="Rectangle_325" data-name="Rectangle 325" width="1.644" height="66.257" transform="translate(43.419 48.399)" fill="#ffcf7b"/>
          <rect id="Rectangle_326" data-name="Rectangle 326" width="1.644" height="66.257" transform="translate(64.173 48.399)" fill="#ffcf7b"/>
          <rect id="Rectangle_327" data-name="Rectangle 327" width="1.46" height="74.636" transform="translate(91.938 70.268) rotate(90)" fill="#ffcf7b"/>
          <rect id="Rectangle_328" data-name="Rectangle 328" width="1.46" height="74.636" transform="translate(91.938 91.323) rotate(90)" fill="#ffcf7b"/>
          <rect id="Rectangle_329" data-name="Rectangle 329" width="62.622" height="11.98" transform="translate(23.228 36.857)" fill="#105e99"/>
          <path id="Path_709" data-name="Path 709" d="M93.945,84.08,80.45,96.06H47.04V84.08Z" transform="translate(-23.812 -47.223)" fill="#fff" opacity="0.25"/>
          <path id="Path_710" data-name="Path 710" d="M151.769,84.08V96.06H130.22l13.5-11.98Z" transform="translate(-65.919 -47.223)" fill="#fff" opacity="0.25"/>
          <path id="Path_711" data-name="Path 711" d="M109.4,56.25V74.358c-5.463-.478-9.627-4.556-9.629-9.429,0,5.232-4.777,9.473-10.671,9.473s-10.671-4.241-10.671-9.473c0,5.232-4.777,9.473-10.671,9.473s-10.671-4.241-10.671-9.473c0,5.234-4.777,9.477-10.673,9.477s-10.676-4.243-10.676-9.477c0,4.781-4.011,8.81-9.352,9.4l0-18.078Z" transform="translate(-13.356 -31.593)" fill="#231f20" opacity="0.25"/>
          <path id="Path_712" data-name="Path 712" d="M183.038,254.6h0a1.293,1.293,0,0,1-1.358-1.21v-21.12a1.289,1.289,0,0,1,1.358-1.205h0a1.294,1.294,0,0,1,1.363,1.205V253.39A1.3,1.3,0,0,1,183.038,254.6Z" transform="translate(-91.969 -129.774)" fill="#e2b760"/>
          <path id="Path_713" data-name="Path 713" d="M109.646,147.9a1.358,1.358,0,1,1-1.348-1.2,1.279,1.279,0,0,1,1.348,1.2Z" transform="translate(-54.139 -82.393)" fill="#fff"/>
          <path id="Path_714" data-name="Path 714" d="M81.2,155.78,94.735,148.4a.953.953,0,0,1,.988.066l16.32,12.2" transform="translate(-41.104 -83.289)" fill="none" stroke="#0e3944" stroke-miterlimit="10" stroke-width="1"/>
          <path id="Path_715" data-name="Path 715" d="M109.661,148.559a.771.771,0,1,1-.765-.679A.726.726,0,0,1,109.661,148.559Z" transform="translate(-54.737 -83.056)" fill="#a5d1ef"/>
          <path id="Path_753" data-name="Path 753" d="M2.6-.054l27.92-.582A2.345,2.345,0,0,1,33.06,1.634l-.308,13.2A2.608,2.608,0,0,1,30.1,17.214L2.181,17.8A2.345,2.345,0,0,1-.362,15.526l.308-13.2A2.608,2.608,0,0,1,2.6-.054Z" transform="translate(39.422 70.625) rotate(10.86)" fill="#f24052"/>
          <text id="Yes_we_are" data-name="Yes! we are" transform="translate(44.965 72.718) rotate(10.86)" fill="#fff" font-size="1" font-family="SegoeUI, Segoe UI"><tspan x="0" y="0" letter-spacing="-0.079em">Y</tspan><tspan y="0">es! </tspan><tspan y="0" letter-spacing="-0.009em">w</tspan><tspan y="0">e a</tspan><tspan y="0" letter-spacing="-0.009em">r</tspan><tspan y="0">e</tspan></text>
          <path id="Path_754" data-name="Path 754" d="M1.512-.032,29.723-.62A1.366,1.366,0,0,1,31.2.7l-.18,7.736A1.519,1.519,0,0,1,29.48,9.825l-28.211.588A1.366,1.366,0,0,1-.212,9.09l.18-7.736A1.519,1.519,0,0,1,1.512-.032Z" transform="translate(38.978 77.132) rotate(10.86)" fill="#fff"/>
          <text id="OPEN" transform="translate(40.037 81.924) rotate(10.86)" fill="#0e3944" font-size="5" font-family="Cabin-Bold, Cabin" font-weight="700"><tspan x="0" y="0">OPEN</tspan></text>
          <path id="Path_716" data-name="Path 716" d="M21.342,16.837,26.156,0H6.187L0,16.837Z" fill="#105e99"/>
          <path id="Path_717" data-name="Path 717" d="M64.562,16.837,68,0H48.034L43.22,16.837Z" transform="translate(-21.878)" fill="#f24052"/>
          <path id="Path_718" data-name="Path 718" d="M107.786,16.837,109.846,0H89.877L86.44,16.837Z" transform="translate(-43.757)" fill="#105e99"/>
          <path id="Path_719" data-name="Path 719" d="M151.012,16.837,151.7,0H131.729L129.67,16.837Z" transform="translate(-65.641)" fill="#f24052"/>
          <path id="Path_720" data-name="Path 720" d="M194.231,16.837,193.545,0H173.576l-.686,16.837Z" transform="translate(-87.519)" fill="#105e99"/>
          <path id="Path_721" data-name="Path 721" d="M236.748,16.837,234.689,0H214.72l.686,16.837Z" transform="translate(-108.694)" fill="#f24052"/>
          <path id="Path_722" data-name="Path 722" d="M278.566,16.837,275.129,0H255.16l2.059,16.837Z" transform="translate(-129.165)" fill="#105e99"/>
          <path id="Path_723" data-name="Path 723" d="M320.378,16.837,315.569,0H295.6l3.437,16.837Z" transform="translate(-149.636)" fill="#f24052"/>
          <path id="Path_724" data-name="Path 724" d="M362.191,16.837,356,0H336.04l4.81,16.837Z" transform="translate(-170.108)" fill="#105e99"/>
          <path id="Path_725" data-name="Path 725" d="M0,38.41v7.842c0,5.232,4.777,9.473,10.671,9.473s10.671-4.241,10.671-9.473V38.41Z" transform="translate(0 -21.573)" fill="#105e99"/>
          <path id="Path_726" data-name="Path 726" d="M43.22,38.41v7.842c0,5.231,4.779,9.47,10.671,9.473h0c5.893,0,10.671-4.241,10.671-9.473V38.41Z" transform="translate(-21.878 -21.573)" fill="#f24052"/>
          <path id="Path_727" data-name="Path 727" d="M86.44,38.41v7.842c0,5.232,4.782,9.473,10.676,9.473h0c5.892,0,10.668-4.242,10.671-9.473V38.41Z" transform="translate(-43.757 -21.573)" fill="#105e99"/>
          <path id="Path_728" data-name="Path 728" d="M129.67,38.41v7.842c0,5.232,4.777,9.473,10.671,9.473h0c5.892,0,10.668-4.242,10.671-9.473V38.41Z" transform="translate(-65.641 -21.573)" fill="#f24052"/>
          <path id="Path_729" data-name="Path 729" d="M172.89,38.41v7.842c0,5.232,4.777,9.473,10.671,9.473h0c5.893,0,10.671-4.241,10.671-9.473V38.41Z" transform="translate(-87.519 -21.573)" fill="#105e99"/>
          <path id="Path_730" data-name="Path 730" d="M216.11,38.41v7.842c0,5.231,4.779,9.47,10.671,9.473h0c5.893,0,10.671-4.241,10.671-9.473V38.41Z" transform="translate(-109.397 -21.573)" fill="#f24052"/>
          <path id="Path_731" data-name="Path 731" d="M259.33,38.41v7.842c0,5.231,4.779,9.47,10.671,9.473h0c5.894,0,10.673-4.24,10.676-9.473V38.41Z" transform="translate(-131.276 -21.573)" fill="#105e99"/>
          <path id="Path_732" data-name="Path 732" d="M302.56,38.41v7.842c0,5.232,4.777,9.473,10.671,9.473S323.9,51.484,323.9,46.252V38.41Z" transform="translate(-153.16 -21.573)" fill="#f24052"/>
          <path id="Path_733" data-name="Path 733" d="M345.78,38.41v7.842c0,5.232,4.777,9.473,10.671,9.473s10.671-4.241,10.671-9.473V38.41Z" transform="translate(-175.038 -21.573)" fill="#105e99"/>
          <path id="Path_734" data-name="Path 734" d="M185.9,0H6.187L0,16.837H192.083Z" fill="#fff" opacity="0.25"/>
        </g>
      </g>
    </g>
  </g>
</svg>
