<svg xmlns="http://www.w3.org/2000/svg" width="365" height="372" viewBox="0 0 365 372"><g id="Group_156" data-name="Group 156" transform="translate(-984 -284)"><g id="Rectangle_171" fill="#00b2c1" stroke="#707070" stroke-width="1" data-name="Rectangle 171" opacity=".8" transform="translate(984 284)"><rect width="365" height="372" stroke="none" rx="10"/><rect width="364" height="371" x=".5" y=".5" fill="none" rx="9.5"/></g><g id="Rectangle_333" fill="#fff" stroke="#707070" stroke-width="1" data-name="Rectangle 333" transform="translate(1009 303)"><rect width="318" height="245" stroke="none" rx="20"/><rect width="317" height="244" x=".5" y=".5" fill="none" rx="19.5"/></g><text id="Provider" fill="#fcfcfc" font-family="NotoSansJP-Bold, Noto Sans JP" font-size="36" font-weight="700" transform="translate(1092 617)"><tspan x="0" y="0">Provider</tspan></text><g id="Provider-2" data-name="Provider" transform="translate(1072 348.756)"><g id="Layer_2" data-name="Layer 2"><g id="OBJECTS"><rect id="Rectangle_272" width="174.801" height="152.057" fill="#d1a454" data-name="Rectangle 272" transform="translate(8.641 20.633)"/><rect id="Rectangle_273" width="166.021" height="148.037" fill="#bbdefb" data-name="Rectangle 273" transform="translate(13.031 24.657)"/><rect id="Rectangle_274" width="166.021" height="8.864" fill="#a5d1ef" data-name="Rectangle 274" transform="translate(13.031 163.831)"/><path id="Path_693" fill="#a5d1ef" d="M239.96,271.378H210.94l4.449-80.118h20.122Z" data-name="Path 693" transform="translate(-106.78 -107.42)"/><rect id="Rectangle_275" width="44.485" height="79.097" fill="#bbdefb" data-name="Rectangle 275" transform="translate(163.152 163.958) rotate(180)"/><rect id="Rectangle_276" width="9.041" height="7.009" fill="#a5d1ef" data-name="Rectangle 276" transform="translate(155.533 94.168) rotate(180)"/><rect id="Rectangle_277" width="9.041" height="7.009" fill="#a5d1ef" data-name="Rectangle 277" transform="translate(140.759 117.453) rotate(180)"/><rect id="Rectangle_278" width="5.753" height="4.462" fill="#a5d1ef" data-name="Rectangle 278" transform="translate(145.929 94.168) rotate(180)"/><rect id="Rectangle_279" width="5.753" height="4.462" fill="#a5d1ef" data-name="Rectangle 279" transform="translate(133.575 94.168) rotate(180)"/><rect id="Rectangle_280" width="7.012" height="5.44" fill="#a5d1ef" data-name="Rectangle 280" transform="translate(127.131 94.168) rotate(180)"/><rect id="Rectangle_281" width="5.753" height="6.054" fill="#a5d1ef" data-name="Rectangle 281" transform="translate(139.752 94.172) rotate(180)"/><rect id="Rectangle_282" width="9.041" height="7.009" fill="#a5d1ef" data-name="Rectangle 282" transform="translate(153.385 129.573) rotate(180)"/><rect id="Rectangle_283" width="5.753" height="4.462" fill="#a5d1ef" data-name="Rectangle 283" transform="translate(143.786 129.573) rotate(180)"/><rect id="Rectangle_284" width="5.753" height="4.462" fill="#a5d1ef" data-name="Rectangle 284" transform="translate(131.422 129.573) rotate(180)"/><rect id="Rectangle_285" width="7.012" height="5.44" fill="#a5d1ef" data-name="Rectangle 285" transform="translate(124.983 129.573) rotate(180)"/><rect id="Rectangle_286" width="5.753" height="6.054" fill="#a5d1ef" data-name="Rectangle 286" transform="translate(137.604 129.573) rotate(180)"/><rect id="Rectangle_287" width="9.041" height="7.009" fill="#a5d1ef" data-name="Rectangle 287" transform="translate(119.605 98.626)"/><rect id="Rectangle_288" width="5.753" height="4.462" fill="#a5d1ef" data-name="Rectangle 288" transform="translate(129.209 101.177)"/><rect id="Rectangle_289" width="5.753" height="4.462" fill="#a5d1ef" data-name="Rectangle 289" transform="translate(141.569 101.177)"/><rect id="Rectangle_290" width="5.753" height="4.462" fill="#a5d1ef" data-name="Rectangle 290" transform="translate(141.569 112.991)"/><rect id="Rectangle_291" width="5.753" height="4.462" fill="#a5d1ef" data-name="Rectangle 291" transform="translate(117.872 112.991)"/><rect id="Rectangle_292" width="7.012" height="5.44" fill="#a5d1ef" data-name="Rectangle 292" transform="translate(148.008 100.199)"/><rect id="Rectangle_293" width="7.012" height="5.44" fill="#a5d1ef" data-name="Rectangle 293" transform="translate(124.123 112.013)"/><rect id="Rectangle_294" width="5.753" height="6.054" fill="#a5d1ef" data-name="Rectangle 294" transform="translate(135.387 99.586)"/><rect id="Rectangle_295" width="5.753" height="6.054" fill="#a5d1ef" data-name="Rectangle 295" transform="translate(148.141 111.404)"/><rect id="Rectangle_296" width="9.041" height="7.009" fill="#a5d1ef" data-name="Rectangle 296" transform="translate(139.041 153.17) rotate(180)"/><rect id="Rectangle_297" width="9.041" height="7.009" fill="#a5d1ef" data-name="Rectangle 297" transform="translate(117.887 134.343)"/><rect id="Rectangle_298" width="5.753" height="4.462" fill="#a5d1ef" data-name="Rectangle 298" transform="translate(127.486 136.894)"/><rect id="Rectangle_299" width="5.753" height="4.462" fill="#a5d1ef" data-name="Rectangle 299" transform="translate(139.851 136.894)"/><rect id="Rectangle_300" width="5.753" height="4.462" fill="#a5d1ef" data-name="Rectangle 300" transform="translate(139.851 148.708)"/><rect id="Rectangle_301" width="5.753" height="4.462" fill="#a5d1ef" data-name="Rectangle 301" transform="translate(116.154 148.708)"/><rect id="Rectangle_302" width="7.012" height="5.44" fill="#a5d1ef" data-name="Rectangle 302" transform="translate(146.29 135.916)"/><rect id="Rectangle_303" width="7.012" height="5.44" fill="#a5d1ef" data-name="Rectangle 303" transform="translate(122.405 147.73)"/><rect id="Rectangle_304" width="5.753" height="6.054" fill="#a5d1ef" data-name="Rectangle 304" transform="translate(133.668 135.303)"/><rect id="Rectangle_305" width="5.753" height="6.054" fill="#a5d1ef" data-name="Rectangle 305" transform="translate(146.418 147.121)"/><rect id="Rectangle_306" width="53.349" height="1.372" fill="#cfecff" data-name="Rectangle 306" transform="translate(159.834 94.882) rotate(180)"/><rect id="Rectangle_307" width="53.349" height="1.372" fill="#cfecff" data-name="Rectangle 307" transform="translate(159.854 106.74) rotate(180)"/><rect id="Rectangle_308" width="53.349" height="1.372" fill="#cfecff" data-name="Rectangle 308" transform="translate(159.879 118.597) rotate(180)"/><rect id="Rectangle_309" width="53.349" height="1.372" fill="#cfecff" data-name="Rectangle 309" transform="translate(159.898 130.455) rotate(180)"/><rect id="Rectangle_310" width="53.349" height="1.372" fill="#cfecff" data-name="Rectangle 310" transform="translate(159.923 142.312) rotate(180)"/><rect id="Rectangle_311" width="53.349" height="1.372" fill="#cfecff" data-name="Rectangle 311" transform="translate(159.938 154.17) rotate(180)"/><path id="Path_694" fill="#cfecff" d="M330.05,271.378H301.03l4.449-80.118H325.6Z" data-name="Path 694" transform="translate(-152.385 -107.42)"/><rect id="Rectangle_312" width="50.04" height="37.374" fill="#a5d1ef" data-name="Rectangle 312" transform="translate(128.069 36.682)"/><rect id="Rectangle_313" width="50.04" height="37.374" fill="#a5d1ef" data-name="Rectangle 313" transform="translate(71.022 36.682)"/><rect id="Rectangle_314" width="50.04" height="37.374" fill="#a5d1ef" data-name="Rectangle 314" transform="translate(13.974 36.682)"/><path id="Path_695" fill="#231f20" d="M192.411,56.25V95.68L70.075,204.287H26.39V56.25Z" data-name="Path 695" opacity=".1" transform="translate(-13.359 -31.593)"/><rect id="Rectangle_315" width="24.181" height="148.037" fill="#e2b760" data-name="Rectangle 315" transform="translate(154.872 24.657)"/><rect id="Rectangle_316" width="24.181" height="148.037" fill="#ffcf7b" data-name="Rectangle 316" transform="translate(152.398 24.657)"/><rect id="Rectangle_317" width="18.241" height="61.173" fill="#105e99" data-name="Rectangle 317" transform="translate(155.37 51.914)"/><path id="Path_696" fill="#e2b760" d="M321.03,270.157v48.377h-4.513V270.157h4.513M322.9,268.5H314.65v51.691H322.9Z" data-name="Path 696" transform="translate(-159.28 -150.802)"/><path id="Path_697" fill="#e2b760" d="M341.27,270.157v48.377h-4.513V270.157h4.513m1.867-1.657H334.89v51.691h8.246Z" data-name="Path 697" transform="translate(-169.525 -150.802)"/><rect id="Rectangle_318" width=".479" height="66.257" fill="#ffcf7b" data-name="Rectangle 318" transform="translate(161.251 48.399)"/><rect id="Rectangle_319" width=".479" height="66.257" fill="#ffcf7b" data-name="Rectangle 319" transform="translate(167.295 48.399)"/><rect id="Rectangle_320" width="1.46" height="21.741" fill="#ffcf7b" data-name="Rectangle 320" transform="translate(175.384 70.268) rotate(90)"/><rect id="Rectangle_321" width="1.46" height="21.741" fill="#ffcf7b" data-name="Rectangle 321" transform="translate(175.384 91.323) rotate(90)"/><rect id="Rectangle_322" width="18.241" height="11.98" fill="#105e99" data-name="Rectangle 322" transform="translate(155.37 36.853)"/><path id="Path_698" fill="#231f20" d="M335.285,56.25v76.221l-2.474,2.2L311.1,153.937l-2.474,2.2V56.25Z" data-name="Path 698" opacity=".25" transform="translate(-156.232 -31.593)"/><path id="Path_699" fill="#e2b760" d="M309.277,240.676a1.006,1.006,0,0,1-1.062.921H305.5V239.72h2.716a1.123,1.123,0,0,1,.759.278A.881.881,0,0,1,309.277,240.676Z" data-name="Path 699" transform="translate(-154.648 -134.637)"/><path id="Path_700" fill="#e2b760" d="M309.282,272.718a1,1,0,0,1-1.057.938H305.51V271.78h2.755A.993.993,0,0,1,309.282,272.718Z" data-name="Path 700" transform="translate(-154.653 -152.644)"/><path id="Path_701" fill="#231f20" d="M307.441,241.6H305.51V239.72h2.676A5.66,5.66,0,0,1,307.441,241.6Z" data-name="Path 701" opacity=".25" transform="translate(-154.653 -134.637)"/><path id="Path_702" fill="#231f20" d="M308.265,271.78a5.4,5.4,0,0,1-.538,1.876H305.51V271.78Z" data-name="Path 702" opacity=".25" transform="translate(-154.653 -152.644)"/><path id="Path_703" fill="#e2b760" d="M304.624,254.6h0a.922.922,0,0,1-.613-.226.725.725,0,0,1-.251-.545v-22a.82.82,0,0,1,.864-.767h0a.82.82,0,0,1,.864.767v22A.82.82,0,0,1,304.624,254.6Z" data-name="Path 703" transform="translate(-153.767 -129.774)"/><rect id="Rectangle_323" width="83.011" height="148.037" fill="#ffcf7b" data-name="Rectangle 323" transform="translate(13.031 24.657)"/><rect id="Rectangle_324" width="62.622" height="61.173" fill="#105e99" data-name="Rectangle 324" transform="translate(23.228 51.914)"/><path id="Path_704" fill="#fff" d="M47.04,118.43H76.983L47.04,145.012Z" data-name="Path 704" opacity=".25" transform="translate(-23.812 -66.516)"/><path id="Path_705" fill="#fff" d="M84.647,118.43h22.729L47.04,172V151.815Z" data-name="Path 705" opacity=".25" transform="translate(-23.812 -66.516)"/><path id="Path_706" fill="#fff" d="M119.69,150.97v5.116L72.617,197.878H66.85Z" data-name="Path 706" opacity=".25" transform="translate(-33.84 -84.791)"/><path id="Path_707" fill="#e2b760" d="M71.872,271.568v45.554H50.457V271.568H71.872m3.457-3.069H47v51.691H75.314V268.5Z" data-name="Path 707" transform="translate(-23.792 -150.802)"/><path id="Path_708" fill="#e2b760" d="M141.372,271.568v45.554h-21.4V271.568h21.4m3.457-3.069H116.52v51.691h28.309Z" data-name="Path 708" transform="translate(-58.984 -150.802)"/><rect id="Rectangle_325" width="1.644" height="66.257" fill="#ffcf7b" data-name="Rectangle 325" transform="translate(43.419 48.399)"/><rect id="Rectangle_326" width="1.644" height="66.257" fill="#ffcf7b" data-name="Rectangle 326" transform="translate(64.173 48.399)"/><rect id="Rectangle_327" width="1.46" height="74.636" fill="#ffcf7b" data-name="Rectangle 327" transform="translate(91.938 70.268) rotate(90)"/><rect id="Rectangle_328" width="1.46" height="74.636" fill="#ffcf7b" data-name="Rectangle 328" transform="translate(91.938 91.323) rotate(90)"/><rect id="Rectangle_329" width="62.622" height="11.98" fill="#105e99" data-name="Rectangle 329" transform="translate(23.228 36.857)"/><path id="Path_709" fill="#fff" d="M93.945,84.08,80.45,96.06H47.04V84.08Z" data-name="Path 709" opacity=".25" transform="translate(-23.812 -47.223)"/><path id="Path_710" fill="#fff" d="M151.769,84.08V96.06H130.22l13.5-11.98Z" data-name="Path 710" opacity=".25" transform="translate(-65.919 -47.223)"/><path id="Path_711" fill="#231f20" d="M109.4,56.25V74.358c-5.463-.478-9.627-4.556-9.629-9.429,0,5.232-4.777,9.473-10.671,9.473s-10.671-4.241-10.671-9.473c0,5.232-4.777,9.473-10.671,9.473s-10.671-4.241-10.671-9.473c0,5.234-4.777,9.477-10.673,9.477s-10.676-4.243-10.676-9.477c0,4.781-4.011,8.81-9.352,9.4l0-18.078Z" data-name="Path 711" opacity=".25" transform="translate(-13.356 -31.593)"/><path id="Path_712" fill="#e2b760" d="M183.038,254.6h0a1.293,1.293,0,0,1-1.358-1.21v-21.12a1.289,1.289,0,0,1,1.358-1.205h0a1.294,1.294,0,0,1,1.363,1.205V253.39A1.3,1.3,0,0,1,183.038,254.6Z" data-name="Path 712" transform="translate(-91.969 -129.774)"/><path id="Path_713" fill="#fff" d="M109.646,147.9a1.358,1.358,0,1,1-1.348-1.2,1.279,1.279,0,0,1,1.348,1.2Z" data-name="Path 713" transform="translate(-54.139 -82.393)"/><path id="Path_714" fill="none" stroke="#0e3944" stroke-miterlimit="10" stroke-width="1" d="M81.2,155.78,94.735,148.4a.953.953,0,0,1,.988.066l16.32,12.2" data-name="Path 714" transform="translate(-41.104 -83.289)"/><path id="Path_715" fill="#a5d1ef" d="M109.661,148.559a.771.771,0,1,1-.765-.679A.726.726,0,0,1,109.661,148.559Z" data-name="Path 715" transform="translate(-54.737 -83.056)"/><path id="Path_753" fill="#f24052" d="M2.6-.054l27.92-.582A2.345,2.345,0,0,1,33.06,1.634l-.308,13.2A2.608,2.608,0,0,1,30.1,17.214L2.181,17.8A2.345,2.345,0,0,1-.362,15.526l.308-13.2A2.608,2.608,0,0,1,2.6-.054Z" data-name="Path 753" transform="translate(39.422 70.625) rotate(10.86)"/><text id="Yes_we_are" fill="#fff" data-name="Yes! we are" font-family="SegoeUI, Segoe UI" font-size="1" transform="translate(44.965 72.718) rotate(10.86)"><tspan x="0" y="0" letter-spacing="-.079em">Y</tspan><tspan y="0">es! </tspan><tspan y="0" letter-spacing="-.009em">w</tspan><tspan y="0">e a</tspan><tspan y="0" letter-spacing="-.009em">r</tspan><tspan y="0">e</tspan></text><path id="Path_754" fill="#fff" d="M1.512-.032,29.723-.62A1.366,1.366,0,0,1,31.2.7l-.18,7.736A1.519,1.519,0,0,1,29.48,9.825l-28.211.588A1.366,1.366,0,0,1-.212,9.09l.18-7.736A1.519,1.519,0,0,1,1.512-.032Z" data-name="Path 754" transform="translate(38.978 77.132) rotate(10.86)"/><text id="OPEN" fill="#0e3944" font-family="Cabin-Bold, Cabin" font-size="5" font-weight="700" transform="translate(40.037 81.924) rotate(10.86)"><tspan x="0" y="0">OPEN</tspan></text><path id="Path_716" fill="#105e99" d="M21.342,16.837,26.156,0H6.187L0,16.837Z" data-name="Path 716"/><path id="Path_717" fill="#f24052" d="M64.562,16.837,68,0H48.034L43.22,16.837Z" data-name="Path 717" transform="translate(-21.878)"/><path id="Path_718" fill="#105e99" d="M107.786,16.837,109.846,0H89.877L86.44,16.837Z" data-name="Path 718" transform="translate(-43.757)"/><path id="Path_719" fill="#f24052" d="M151.012,16.837,151.7,0H131.729L129.67,16.837Z" data-name="Path 719" transform="translate(-65.641)"/><path id="Path_720" fill="#105e99" d="M194.231,16.837,193.545,0H173.576l-.686,16.837Z" data-name="Path 720" transform="translate(-87.519)"/><path id="Path_721" fill="#f24052" d="M236.748,16.837,234.689,0H214.72l.686,16.837Z" data-name="Path 721" transform="translate(-108.694)"/><path id="Path_722" fill="#105e99" d="M278.566,16.837,275.129,0H255.16l2.059,16.837Z" data-name="Path 722" transform="translate(-129.165)"/><path id="Path_723" fill="#f24052" d="M320.378,16.837,315.569,0H295.6l3.437,16.837Z" data-name="Path 723" transform="translate(-149.636)"/><path id="Path_724" fill="#105e99" d="M362.191,16.837,356,0H336.04l4.81,16.837Z" data-name="Path 724" transform="translate(-170.108)"/><path id="Path_725" fill="#105e99" d="M0,38.41v7.842c0,5.232,4.777,9.473,10.671,9.473s10.671-4.241,10.671-9.473V38.41Z" data-name="Path 725" transform="translate(0 -21.573)"/><path id="Path_726" fill="#f24052" d="M43.22,38.41v7.842c0,5.231,4.779,9.47,10.671,9.473h0c5.893,0,10.671-4.241,10.671-9.473V38.41Z" data-name="Path 726" transform="translate(-21.878 -21.573)"/><path id="Path_727" fill="#105e99" d="M86.44,38.41v7.842c0,5.232,4.782,9.473,10.676,9.473h0c5.892,0,10.668-4.242,10.671-9.473V38.41Z" data-name="Path 727" transform="translate(-43.757 -21.573)"/><path id="Path_728" fill="#f24052" d="M129.67,38.41v7.842c0,5.232,4.777,9.473,10.671,9.473h0c5.892,0,10.668-4.242,10.671-9.473V38.41Z" data-name="Path 728" transform="translate(-65.641 -21.573)"/><path id="Path_729" fill="#105e99" d="M172.89,38.41v7.842c0,5.232,4.777,9.473,10.671,9.473h0c5.893,0,10.671-4.241,10.671-9.473V38.41Z" data-name="Path 729" transform="translate(-87.519 -21.573)"/><path id="Path_730" fill="#f24052" d="M216.11,38.41v7.842c0,5.231,4.779,9.47,10.671,9.473h0c5.893,0,10.671-4.241,10.671-9.473V38.41Z" data-name="Path 730" transform="translate(-109.397 -21.573)"/><path id="Path_731" fill="#105e99" d="M259.33,38.41v7.842c0,5.231,4.779,9.47,10.671,9.473h0c5.894,0,10.673-4.24,10.676-9.473V38.41Z" data-name="Path 731" transform="translate(-131.276 -21.573)"/><path id="Path_732" fill="#f24052" d="M302.56,38.41v7.842c0,5.232,4.777,9.473,10.671,9.473S323.9,51.484,323.9,46.252V38.41Z" data-name="Path 732" transform="translate(-153.16 -21.573)"/><path id="Path_733" fill="#105e99" d="M345.78,38.41v7.842c0,5.232,4.777,9.473,10.671,9.473s10.671-4.241,10.671-9.473V38.41Z" data-name="Path 733" transform="translate(-175.038 -21.573)"/><path id="Path_734" fill="#fff" d="M185.9,0H6.187L0,16.837H192.083Z" data-name="Path 734" opacity=".25"/></g></g></g></g></svg>