<svg xmlns="http://www.w3.org/2000/svg" viewBox="0 0 218 218"><defs><style>.cls-1,.cls-4{fill:#fff;}.cls-2,.cls-3,.cls-5,.cls-9{fill:none;}.cls-2,.cls-3,.cls-4,.cls-9{stroke:#2d677a;}.cls-2,.cls-3,.cls-4{stroke-width:4px;}.cls-3,.cls-4{stroke-miterlimit:10;}.cls-6{fill:#58595b;}.cls-7{isolation:isolate;}.cls-8{fill:#2d677a;}</style></defs><title>route your way</title><g id="Layer_2" data-name="Layer 2"><g id="Layer_1-2" data-name="Layer 1"><g id="Group_156" data-name="Group 156"><g id="Rectangle_12" data-name="Rectangle 12"><rect class="cls-1" width="218" height="218" rx="33"/><rect class="cls-2" x="2" y="2" width="214" height="214" rx="31"/></g><g id="Layer_2-2" data-name="Layer 2"><g id="Layer_1-3" data-name="Layer 1"><line id="Line_1" data-name="Line 1" class="cls-3" x1="135.89" y1="109.07" x2="147.31" y2="114.42"/><path id="Path_10" data-name="Path 10" class="cls-4" d="M108.26,96.13l10.07,4.72,8.58,4"/><ellipse id="Ellipse_19" data-name="Ellipse 19" class="cls-4" cx="108.48" cy="98.14" rx="21.54" ry="6.53"/><ellipse id="Ellipse_20" data-name="Ellipse 20" class="cls-4" cx="149.31" cy="119.78" rx="21.54" ry="7.94"/><ellipse id="Ellipse_21" data-name="Ellipse 21" class="cls-4" cx="108.25" cy="142.87" rx="21.54" ry="6.65"/><path id="Path_11" data-name="Path 11" class="cls-4" d="M132.52,52.16a22.32,22.32,0,0,1-1.17,7L131,60.26c-.53,1.11-1.28,2.57-1.67,3.24l-3.55,6-14.46,24.6a3.42,3.42,0,0,1-3,2,3.6,3.6,0,0,1-2.71-2L92.1,71.32l-4.68-8a20.4,20.4,0,0,1-2.07-3.56c0-.18-.14-.32-.21-.48v-.16A26.91,26.91,0,0,1,84,52,23.24,23.24,0,0,1,96,31.2a25.09,25.09,0,0,1,24.68.09A23.22,23.22,0,0,1,132.52,52.16Z"/><ellipse id="Ellipse_22" data-name="Ellipse 22" class="cls-3" cx="108.48" cy="53.39" rx="12.37" ry="11.92"/><line id="Line_2" data-name="Line 2" class="cls-5" x1="123.81" y1="133.63" x2="111.23" y2="137.13"/><line id="Line_3" data-name="Line 3" class="cls-3" x1="123.81" y1="133.63" x2="111.23" y2="137.13"/><line id="Line_4" data-name="Line 4" class="cls-5" x1="145.12" y1="126.46" x2="133.84" y2="130.29"/><line id="Line_5" data-name="Line 5" class="cls-3" x1="145.12" y1="126.46" x2="133.84" y2="130.29"/><path id="Path_18" data-name="Path 18" class="cls-6" d="M129.85,106.74a1.32,1.32,0,0,1,1.59-.88,1.25,1.25,0,0,1,1,1.46v0a1.29,1.29,0,0,1-1.58.87,1.24,1.24,0,0,1-1-1.45Z"/><path id="Path_19" data-name="Path 19" class="cls-6" d="M127.81,131.69a1.31,1.31,0,0,1,1.59-.88,1.25,1.25,0,0,1,1,1.46v0a1.3,1.3,0,0,1-1.58.88,1.24,1.24,0,0,1-1-1.46Z"/></g></g><g id="Route_your_way" data-name="Route your way" class="cls-7"><g class="cls-7"><path class="cls-8" d="M38,185l-3.17-4.51-.92,0H30.31V185h-2.1V170.3h5.73a6.75,6.75,0,0,1,4.49,1.37,4.63,4.63,0,0,1,1.64,3.75,4.91,4.91,0,0,1-.84,2.9,4.8,4.8,0,0,1-2.39,1.75L40.32,185Zm-1.11-7.12a3,3,0,0,0,1-2.46,3,3,0,0,0-1-2.44,4.71,4.71,0,0,0-3-.85H30.31v6.61h3.57A4.65,4.65,0,0,0,36.92,177.88Z"/><path class="cls-8" d="M45,184.39a5.31,5.31,0,0,1-2.07-2,6.15,6.15,0,0,1,0-5.85,5.22,5.22,0,0,1,2.07-2,6.45,6.45,0,0,1,6,0,5.17,5.17,0,0,1,2,2,6.08,6.08,0,0,1,0,5.85,5.26,5.26,0,0,1-2,2,6.37,6.37,0,0,1-6,0Zm4.91-1.52a3.49,3.49,0,0,0,1.33-1.39,4.6,4.6,0,0,0,0-4.09A3.4,3.4,0,0,0,49.87,176,4.1,4.1,0,0,0,46,176a3.49,3.49,0,0,0-1.34,1.38,4.51,4.51,0,0,0,0,4.09A3.59,3.59,0,0,0,46,182.87a4,4,0,0,0,3.85,0Z"/><path class="cls-8" d="M66.89,173.87V185H65v-1.68a4.11,4.11,0,0,1-1.61,1.33,5,5,0,0,1-2.17.48,4.84,4.84,0,0,1-3.51-1.23,4.77,4.77,0,0,1-1.28-3.62v-6.41h2V180a3.45,3.45,0,0,0,.78,2.45,2.92,2.92,0,0,0,2.23.83,3.31,3.31,0,0,0,2.52-1,3.8,3.8,0,0,0,.92-2.73v-5.75Z"/><path class="cls-8" d="M77,184.35a3.24,3.24,0,0,1-1.09.58,4.74,4.74,0,0,1-1.35.2,3.52,3.52,0,0,1-2.6-.91,3.43,3.43,0,0,1-.93-2.58v-6.11H69.13v-1.66H71v-2.44h2v2.44h3.19v1.66H73v6a1.94,1.94,0,0,0,.45,1.38,1.68,1.68,0,0,0,1.29.48,2.44,2.44,0,0,0,1.58-.52Z"/><path class="cls-8" d="M89.06,180.11H80a3.51,3.51,0,0,0,1.29,2.36,4.25,4.25,0,0,0,2.74.89A4.16,4.16,0,0,0,87.28,182l1.11,1.3a4.73,4.73,0,0,1-1.88,1.34,6.49,6.49,0,0,1-2.51.47,6.63,6.63,0,0,1-3.13-.73,5.2,5.2,0,0,1-2.11-2,5.8,5.8,0,0,1-.74-2.95,5.89,5.89,0,0,1,.72-2.91,5.14,5.14,0,0,1,2-2,5.68,5.68,0,0,1,2.86-.73,5.62,5.62,0,0,1,2.85.73,5.08,5.08,0,0,1,2,2,6.13,6.13,0,0,1,.7,3A5.25,5.25,0,0,1,89.06,180.11Zm-7.88-3.76A3.57,3.57,0,0,0,80,178.66h7.14a3.55,3.55,0,0,0-1.14-2.3,3.76,3.76,0,0,0-4.85,0Z"/><path class="cls-8" d="M107.4,173.87,102,186.11a5.57,5.57,0,0,1-1.67,2.4,3.84,3.84,0,0,1-2.3.69,5,5,0,0,1-1.59-.26,3.31,3.31,0,0,1-1.27-.77l.86-1.51a2.81,2.81,0,0,0,2,.82,1.93,1.93,0,0,0,1.23-.39,3.33,3.33,0,0,0,.89-1.33l.36-.78-4.92-11.11h2.1l3.89,8.9,3.84-8.9Z"/><path class="cls-8" d="M110.75,184.39a5.22,5.22,0,0,1-2.06-2,6.08,6.08,0,0,1,0-5.85,5.13,5.13,0,0,1,2.06-2,6.18,6.18,0,0,1,3-.73,6.11,6.11,0,0,1,3,.73,5.26,5.26,0,0,1,2.06,2,6.15,6.15,0,0,1,0,5.85,5.36,5.36,0,0,1-2.06,2,6,6,0,0,1-3,.74A6.08,6.08,0,0,1,110.75,184.39Zm4.91-1.52a3.43,3.43,0,0,0,1.33-1.39,4.6,4.6,0,0,0,0-4.09,3.34,3.34,0,0,0-1.33-1.38,3.85,3.85,0,0,0-1.92-.48,3.8,3.8,0,0,0-1.92.48,3.45,3.45,0,0,0-1.35,1.38,4.51,4.51,0,0,0,0,4.09,3.54,3.54,0,0,0,1.35,1.39,3.71,3.71,0,0,0,1.92.49A3.76,3.76,0,0,0,115.66,182.87Z"/><path class="cls-8" d="M132.68,173.87V185h-1.91v-1.68a4,4,0,0,1-1.61,1.33,4.93,4.93,0,0,1-2.17.48,4.37,4.37,0,0,1-4.79-4.85v-6.41h2V180a3.45,3.45,0,0,0,.77,2.45,2.92,2.92,0,0,0,2.23.83,3.31,3.31,0,0,0,2.52-1,3.76,3.76,0,0,0,.92-2.73v-5.75Z"/><path class="cls-8" d="M140,174.27a5.57,5.57,0,0,1,2.5-.51v2a3.11,3.11,0,0,0-.47,0,3.4,3.4,0,0,0-2.57,1,3.89,3.89,0,0,0-.93,2.79V185h-2V173.87h1.93v1.87A3.48,3.48,0,0,1,140,174.27Z"/><path class="cls-8" d="M167.62,173.87,163.46,185h-1.93l-3.21-8.44L155.06,185h-1.93L149,173.87h1.91l3.23,8.86,3.36-8.86h1.7l3.3,8.9,3.32-8.9Z"/><path class="cls-8" d="M176.89,174.9a4.38,4.38,0,0,1,1.23,3.38V185h-1.91v-1.47a3.16,3.16,0,0,1-1.44,1.19,5.52,5.52,0,0,1-2.21.41,4.61,4.61,0,0,1-3-.91,3.1,3.1,0,0,1-.05-4.73,5.26,5.26,0,0,1,3.4-.9h3.2v-.39a2.59,2.59,0,0,0-.76-2,3.2,3.2,0,0,0-2.23-.69,6.1,6.1,0,0,0-1.93.32,4.86,4.86,0,0,0-1.59.88l-.84-1.52a6.22,6.22,0,0,1,2.05-1.06,8.83,8.83,0,0,1,2.55-.37A5,5,0,0,1,176.89,174.9Zm-2,8.16a3,3,0,0,0,1.22-1.46V180H173c-1.71,0-2.56.58-2.56,1.73a1.53,1.53,0,0,0,.65,1.32,3,3,0,0,0,1.8.48A3.79,3.79,0,0,0,174.89,183.06Z"/><path class="cls-8" d="M191.5,173.87l-5.4,12.24a5.48,5.48,0,0,1-1.67,2.4,3.82,3.82,0,0,1-2.3.69,5,5,0,0,1-1.58-.26,3.23,3.23,0,0,1-1.27-.77l.86-1.51a2.78,2.78,0,0,0,2,.82,1.93,1.93,0,0,0,1.23-.39,3.23,3.23,0,0,0,.89-1.33l.36-.78-4.91-11.11h2.1l3.88,8.9,3.85-8.9Z"/></g><g class="cls-7"><path class="cls-9" d="M38,185l-3.17-4.51-.92,0H30.31V185h-2.1V170.3h5.73a6.75,6.75,0,0,1,4.49,1.37,4.63,4.63,0,0,1,1.64,3.75,4.91,4.91,0,0,1-.84,2.9,4.8,4.8,0,0,1-2.39,1.75L40.32,185Zm-1.11-7.12a3,3,0,0,0,1-2.46,3,3,0,0,0-1-2.44,4.71,4.71,0,0,0-3-.85H30.31v6.61h3.57A4.65,4.65,0,0,0,36.92,177.88Z"/><path class="cls-9" d="M45,184.39a5.31,5.31,0,0,1-2.07-2,6.15,6.15,0,0,1,0-5.85,5.22,5.22,0,0,1,2.07-2,6.45,6.45,0,0,1,6,0,5.17,5.17,0,0,1,2,2,6.08,6.08,0,0,1,0,5.85,5.26,5.26,0,0,1-2,2,6.37,6.37,0,0,1-6,0Zm4.91-1.52a3.49,3.49,0,0,0,1.33-1.39,4.6,4.6,0,0,0,0-4.09A3.4,3.4,0,0,0,49.87,176,4.1,4.1,0,0,0,46,176a3.49,3.49,0,0,0-1.34,1.38,4.51,4.51,0,0,0,0,4.09A3.59,3.59,0,0,0,46,182.87a4,4,0,0,0,3.85,0Z"/><path class="cls-9" d="M66.89,173.87V185H65v-1.68a4.11,4.11,0,0,1-1.61,1.33,5,5,0,0,1-2.17.48,4.84,4.84,0,0,1-3.51-1.23,4.77,4.77,0,0,1-1.28-3.62v-6.41h2V180a3.45,3.45,0,0,0,.78,2.45,2.92,2.92,0,0,0,2.23.83,3.31,3.31,0,0,0,2.52-1,3.8,3.8,0,0,0,.92-2.73v-5.75Z"/><path class="cls-9" d="M77,184.35a3.24,3.24,0,0,1-1.09.58,4.74,4.74,0,0,1-1.35.2,3.52,3.52,0,0,1-2.6-.91,3.43,3.43,0,0,1-.93-2.58v-6.11H69.13v-1.66H71v-2.44h2v2.44h3.19v1.66H73v6a1.94,1.94,0,0,0,.45,1.38,1.68,1.68,0,0,0,1.29.48,2.44,2.44,0,0,0,1.58-.52Z"/><path class="cls-9" d="M89.06,180.11H80a3.51,3.51,0,0,0,1.29,2.36,4.25,4.25,0,0,0,2.74.89A4.16,4.16,0,0,0,87.28,182l1.11,1.3a4.73,4.73,0,0,1-1.88,1.34,6.49,6.49,0,0,1-2.51.47,6.63,6.63,0,0,1-3.13-.73,5.2,5.2,0,0,1-2.11-2,5.8,5.8,0,0,1-.74-2.95,5.89,5.89,0,0,1,.72-2.91,5.14,5.14,0,0,1,2-2,5.68,5.68,0,0,1,2.86-.73,5.62,5.62,0,0,1,2.85.73,5.08,5.08,0,0,1,2,2,6.13,6.13,0,0,1,.7,3A5.25,5.25,0,0,1,89.06,180.11Zm-7.88-3.76A3.57,3.57,0,0,0,80,178.66h7.14a3.55,3.55,0,0,0-1.14-2.3,3.76,3.76,0,0,0-4.85,0Z"/><path class="cls-9" d="M107.4,173.87,102,186.11a5.57,5.57,0,0,1-1.67,2.4,3.84,3.84,0,0,1-2.3.69,5,5,0,0,1-1.59-.26,3.31,3.31,0,0,1-1.27-.77l.86-1.51a2.81,2.81,0,0,0,2,.82,1.93,1.93,0,0,0,1.23-.39,3.33,3.33,0,0,0,.89-1.33l.36-.78-4.92-11.11h2.1l3.89,8.9,3.84-8.9Z"/><path class="cls-9" d="M110.75,184.39a5.22,5.22,0,0,1-2.06-2,6.08,6.08,0,0,1,0-5.85,5.13,5.13,0,0,1,2.06-2,6.18,6.18,0,0,1,3-.73,6.11,6.11,0,0,1,3,.73,5.26,5.26,0,0,1,2.06,2,6.15,6.15,0,0,1,0,5.85,5.36,5.36,0,0,1-2.06,2,6,6,0,0,1-3,.74A6.08,6.08,0,0,1,110.75,184.39Zm4.91-1.52a3.43,3.43,0,0,0,1.33-1.39,4.6,4.6,0,0,0,0-4.09,3.34,3.34,0,0,0-1.33-1.38,3.85,3.85,0,0,0-1.92-.48,3.8,3.8,0,0,0-1.92.48,3.45,3.45,0,0,0-1.35,1.38,4.51,4.51,0,0,0,0,4.09,3.54,3.54,0,0,0,1.35,1.39,3.71,3.71,0,0,0,1.92.49A3.76,3.76,0,0,0,115.66,182.87Z"/><path class="cls-9" d="M132.68,173.87V185h-1.91v-1.68a4,4,0,0,1-1.61,1.33,4.93,4.93,0,0,1-2.17.48,4.37,4.37,0,0,1-4.79-4.85v-6.41h2V180a3.45,3.45,0,0,0,.77,2.45,2.92,2.92,0,0,0,2.23.83,3.31,3.31,0,0,0,2.52-1,3.76,3.76,0,0,0,.92-2.73v-5.75Z"/><path class="cls-9" d="M140,174.27a5.57,5.57,0,0,1,2.5-.51v2a3.11,3.11,0,0,0-.47,0,3.4,3.4,0,0,0-2.57,1,3.89,3.89,0,0,0-.93,2.79V185h-2V173.87h1.93v1.87A3.48,3.48,0,0,1,140,174.27Z"/><path class="cls-9" d="M167.62,173.87,163.46,185h-1.93l-3.21-8.44L155.06,185h-1.93L149,173.87h1.91l3.23,8.86,3.36-8.86h1.7l3.3,8.9,3.32-8.9Z"/><path class="cls-9" d="M176.89,174.9a4.38,4.38,0,0,1,1.23,3.38V185h-1.91v-1.47a3.16,3.16,0,0,1-1.44,1.19,5.52,5.52,0,0,1-2.21.41,4.61,4.61,0,0,1-3-.91,3.1,3.1,0,0,1-.05-4.73,5.26,5.26,0,0,1,3.4-.9h3.2v-.39a2.59,2.59,0,0,0-.76-2,3.2,3.2,0,0,0-2.23-.69,6.1,6.1,0,0,0-1.93.32,4.86,4.86,0,0,0-1.59.88l-.84-1.52a6.22,6.22,0,0,1,2.05-1.06,8.83,8.83,0,0,1,2.55-.37A5,5,0,0,1,176.89,174.9Zm-2,8.16a3,3,0,0,0,1.22-1.46V180H173c-1.71,0-2.56.58-2.56,1.73a1.53,1.53,0,0,0,.65,1.32,3,3,0,0,0,1.8.48A3.79,3.79,0,0,0,174.89,183.06Z"/><path class="cls-9" d="M191.5,173.87l-5.4,12.24a5.48,5.48,0,0,1-1.67,2.4,3.82,3.82,0,0,1-2.3.69,5,5,0,0,1-1.58-.26,3.23,3.23,0,0,1-1.27-.77l.86-1.51a2.78,2.78,0,0,0,2,.82,1.93,1.93,0,0,0,1.23-.39,3.23,3.23,0,0,0,.89-1.33l.36-.78-4.91-11.11h2.1l3.88,8.9,3.85-8.9Z"/></g></g></g></g></g></svg>