<?xml version="1.0" encoding="utf-8"?>
<!-- Generator: Adobe Illustrator 24.0.0, SVG Export Plug-In . SVG Version: 6.00 Build 0)  -->
<svg version="1.1" id="e0958169-61ce-49c9-8f2a-5e3a81fc50e8"
	 xmlns="http://www.w3.org/2000/svg" xmlns:xlink="http://www.w3.org/1999/xlink" x="0px" y="0px" viewBox="0 0 886.4 491.6"
	 style="enable-background:new 0 0 886.4 491.6;" xml:space="preserve">
<style type="text/css">
	.st0{fill:#FF6584;}
	.st1{fill:#3F3D56;}
	.st2{opacity:0.2;enable-background:new    ;}
	.st3{fill:#6C63FF;}
	.st4{fill:#B1B2B4;}
	.st5{fill:#FFFFFF;}
	.st6{fill:none;}
	.st7{fill:#E6E6E6;}
	.st8{fill:#CCCCCC;}
	.st9{fill:#F2F2F2;}
</style>
<title>navigator</title>
<circle class="st0" cx="232.4" cy="103.2" r="50.8"/>
<path class="st1" d="M391.6,259.7h-249c-0.3,0-0.6,0-0.9-0.1l117.8-204c2.2-4,7.3-5.4,11.2-3.1c1.3,0.7,2.4,1.8,3.1,3.1l79,136.9
	l3.8,6.6L391.6,259.7z"/>
<polygon class="st2" points="391.6,259.7 306.6,259.7 348.3,199.1 351.3,194.7 352.8,192.5 356.6,199.1 "/>
<path class="st1" d="M530.2,259.7H314.9l41.7-60.6l3-4.4l54.4-79c3.6-5.2,12.1-5.5,16.3-1c0.3,0.3,0.5,0.6,0.8,1L530.2,259.7z"/>
<circle class="st3" cx="593.5" cy="210.8" r="15.3"/>
<polygon class="st1" points="594.9,256.9 591.8,256.9 593.2,208.5 "/>
<polygon class="st1" points="593.5,217.7 596.9,213 593.5,218.8 593.1,218.2 "/>
<polygon class="st1" points="593.1,222.4 589.8,217.7 593.2,223.5 593.6,222.9 "/>
<circle class="st3" cx="733.8" cy="210.8" r="15.3"/>
<polygon class="st1" points="735.3,256.9 732.1,256.9 733.5,208.5 "/>
<polygon class="st1" points="733.8,217.7 737.2,213 733.8,218.8 733.4,218.2 "/>
<polygon class="st1" points="733.5,222.4 730.1,217.7 733.5,223.5 733.9,222.9 "/>
<circle class="st3" cx="637.8" cy="188.8" r="22.6"/>
<polygon class="st1" points="640,256.9 635.3,256.9 637.4,185.4 "/>
<polygon class="st1" points="637.8,199 642.8,192.1 637.8,200.7 637.2,199.7 "/>
<polygon class="st1" points="637.3,205.9 632.3,199.1 637.4,207.6 637.9,206.7 "/>
<circle class="st3" cx="692.9" cy="188.8" r="22.6"/>
<polygon class="st1" points="695,256.9 690.4,256.9 692.5,185.4 "/>
<polygon class="st1" points="692.9,199 697.9,192.1 692.9,200.7 692.3,199.7 "/>
<polygon class="st1" points="692.4,205.9 687.4,199.1 692.5,207.6 693,206.7 "/>
<circle class="st3" cx="550" cy="188.8" r="22.6"/>
<polygon class="st1" points="552.1,256.9 547.5,256.9 549.6,185.4 "/>
<polygon class="st1" points="550,199 555,192.1 550,200.7 549.4,199.7 "/>
<polygon class="st1" points="549.5,205.9 544.5,199.1 549.6,207.6 550.1,206.7 "/>
<path class="st4" d="M817.2,491.6H80c-39.1,0-70.7-31.7-70.7-70.7s31.7-70.7,70.7-70.7h735.6c15,0,27.2-12.2,27.2-27.2
	s-12.2-27.2-27.2-27.2H55.5v-43.5h760.1c39.1,0,70.7,31.6,70.8,70.7c0,39.1-31.6,70.7-70.7,70.8c0,0,0,0-0.1,0H80
	c-15,0-27.2,12.2-27.2,27.2S65,448.1,80,448.1h737.3V491.6z"/>
<rect x="82.7" y="272.9" class="st5" width="33.7" height="2.2"/>
<rect x="178.5" y="272.9" class="st5" width="33.7" height="2.2"/>
<rect x="274.2" y="272.9" class="st5" width="33.7" height="2.2"/>
<rect x="370" y="272.9" class="st5" width="33.7" height="2.2"/>
<rect x="465.8" y="272.9" class="st5" width="33.7" height="2.2"/>
<rect x="561.5" y="272.9" class="st5" width="33.7" height="2.2"/>
<rect x="657.3" y="272.9" class="st5" width="33.7" height="2.2"/>
<rect x="753" y="272.9" class="st5" width="33.7" height="2.2"/>
<rect x="82.7" y="370.8" class="st5" width="33.7" height="2.2"/>
<rect x="178.5" y="370.8" class="st5" width="33.7" height="2.2"/>
<rect x="274.2" y="370.8" class="st5" width="33.7" height="2.2"/>
<rect x="370" y="370.8" class="st5" width="33.7" height="2.2"/>
<rect x="465.8" y="370.8" class="st5" width="33.7" height="2.2"/>
<rect x="561.5" y="370.8" class="st5" width="33.7" height="2.2"/>
<rect x="657.3" y="370.8" class="st5" width="33.7" height="2.2"/>
<rect x="753" y="370.8" class="st5" width="33.7" height="2.2"/>
<rect x="82.7" y="468.8" class="st5" width="33.7" height="2.2"/>
<rect x="178.5" y="468.8" class="st5" width="33.7" height="2.2"/>
<rect x="274.2" y="468.8" class="st5" width="33.7" height="2.2"/>
<rect x="370" y="468.8" class="st5" width="33.7" height="2.2"/>
<rect x="465.8" y="468.8" class="st5" width="33.7" height="2.2"/>
<rect x="561.5" y="468.8" class="st5" width="33.7" height="2.2"/>
<rect x="657.3" y="468.8" class="st5" width="33.7" height="2.2"/>
<rect x="753" y="468.8" class="st5" width="33.7" height="2.2"/>
<path class="st6" d="M575.2,94.7c-1.7-2.2-3.8-4.1-6-5.7h12.6C579.2,90.4,577,92.4,575.2,94.7z"/>
<path class="st6" d="M533.9,89h2.2c-0.5,0.3-0.9,0.7-1.4,1C534.5,89.7,534.2,89.3,533.9,89z"/>
<path class="st7" d="M591.9,86.4c3.5,0,7,0.9,10.1,2.6h-20.2C584.9,87.3,588.3,86.4,591.9,86.4z"/>
<path class="st7" d="M552.6,83.8c5.9,0,11.7,1.8,16.5,5.2h-33C540.9,85.6,546.7,83.8,552.6,83.8z"/>
<path class="st7" d="M330.2,50.6c1.7-29.6,27-52.2,56.6-50.5c23,1.3,42.5,17.1,48.7,39.2c0.7,0,1.3,0,2,0
	c23.8,0,44.8,15.7,51.5,38.5c15.8-6.9,34.3-2.3,45,11.2H366.5c-20,0.1-36.3-16.1-36.4-36.2c0-0.5,0-0.9,0-1.4
	C330.2,51.2,330.2,50.9,330.2,50.6z"/>
<path class="st6" d="M620.8,133.9c1.7-2.2,3.8-4.1,6-5.7h-12.6C616.7,129.6,619,131.5,620.8,133.9z"/>
<path class="st6" d="M662,128.2h-2.2c0.5,0.3,0.9,0.7,1.4,1C661.5,128.8,661.8,128.5,662,128.2z"/>
<path class="st7" d="M604.1,125.5c-3.5,0-7,0.9-10.1,2.6h20.2C611.1,126.4,607.6,125.5,604.1,125.5z"/>
<path class="st7" d="M643.3,122.9c-5.9,0-11.7,1.8-16.5,5.2h33C655,124.8,649.3,122.9,643.3,122.9z"/>
<path class="st7" d="M865.7,89.8c-1.7-29.6-27-52.2-56.6-50.5c-23,1.3-42.5,17.1-48.7,39.2c-0.7,0-1.3,0-2,0
	c-23.8,0-44.8,15.7-51.5,38.5c-15.8-6.9-34.3-2.3-45,11.2h167.4c20,0.1,36.3-16.1,36.4-36.2c0-0.5,0-0.9,0-1.4
	C865.8,90.3,865.8,90.1,865.7,89.8z"/>
<rect x="754.2" y="458.1" class="st1" width="19.5" height="3.1"/>
<path class="st3" d="M613.5,458.8l4,0.9l152.5,0.1l1.4-3.2c2.4-5.5,3.2-11.5,2.4-17.4c-0.7-4.4-2.3-8.8-6-10.7l-6.8-45.1l-84.4-0.2
	l-32.6,26.3c0,0-15.4-0.3-23.8,10.1c-3,3.9-4.8,8.6-5.1,13.5l-0.3,5.4L613.5,458.8z"/>
<circle class="st1" cx="647" cy="458.1" r="18.8"/>
<circle class="st8" cx="647" cy="458.1" r="9.9"/>
<circle class="st1" cx="739.9" cy="458.1" r="18.8"/>
<circle class="st8" cx="739.9" cy="458.1" r="9.9"/>
<polygon class="st5" points="656.9,406.5 702.5,406.5 708,406.5 717.4,406.5 717.4,405.9 717.4,397.6 717.4,388.3 711.2,388.3 
	705.6,388.3 695.8,388.3 690.2,388.3 678.9,388.3 "/>
<polygon class="st5" points="724.8,406.5 748.9,406.6 748.9,401.8 748.9,393.6 748.9,388.3 745.4,388.3 739.9,388.3 724.9,388.3 "/>
<rect x="714.3" y="420.1" class="st1" width="3.1" height="5.9"/>
<rect x="663.4" y="411.8" class="st1" width="5.9" height="3.1"/>
<path class="st1" d="M667.1,413.1l-0.3,0c-3.6,0-6.5-2.9-6.4-6.5l0,0c0-3.6,2.9-6.5,6.5-6.4l0.3,0l0,0L667.1,413.1L667.1,413.1z"/>
<path class="st1" d="M614.7,438.6c5.5,0.6,10.4-3.4,11-8.8c0.5-4.2-1.8-8.2-5.6-10c-3,3.9-4.8,8.6-5.1,13.5L614.7,438.6z"/>
<polygon class="st9" points="705.6,388.3 717.4,405.9 717.4,397.6 711.2,388.3 "/>
<polygon class="st9" points="739.9,388.3 748.9,401.8 748.9,393.6 745.4,388.3 "/>
<polygon class="st9" points="690.2,388.3 702.5,406.5 708,406.5 695.8,388.3 "/>
<circle class="st1" cx="50.1" cy="260.9" r="50.1"/>
<path class="st3" d="M50.3,276l-25.1-25.1c-1.7-1.7-1.7-4.5,0-6.2c1.7-1.7,4.5-1.7,6.2,0l18.5,18.5l59-67.2c1.6-1.8,4.3-2,6.1-0.4
	c1.8,1.6,2,4.3,0.4,6.1L50.3,276z"/>
</svg>
