<svg xmlns="http://www.w3.org/2000/svg" viewBox="0 0 218 218"><defs><style>.cls-1{fill:#fff}.cls-2,.cls-7{fill:none}.cls-2,.cls-4,.cls-7{stroke:#2d677a}.cls-2{stroke-width:4px}.cls-3,.cls-4{fill:#2d677a}.cls-4{stroke-miterlimit:10}.cls-5{isolation:isolate}.cls-6{fill:#fcfcfc}</style></defs><title>sales</title><g id="Layer_2" data-name="Layer 2"><g id="Layer_1-2" data-name="Layer 1"><g id="Group_158" data-name="Group 158"><g id="Rectangle_12" data-name="Rectangle 12"><rect width="218" height="218" class="cls-1" rx="33"/><rect width="214" height="214" x="2" y="2" class="cls-2" rx="31"/></g><g id="Layer_2-2" data-name="Layer 2"><g id="Layer_1-3" data-name="Layer 1"><path id="Path_12" d="M69,81.55h80.57a1.77,1.77,0,0,0,0-3.54H69a1.77,1.77,0,0,0,0,3.54Z" class="cls-3" data-name="Path 12"/><path id="Path_13" d="M163.06,86.26l-4.56-7.18-1.7-6.87h3.69a1.77,1.77,0,1,0,0-3.53h-4.56l-4.71-18.49A11.19,11.19,0,0,0,140.82,42h-63a11.21,11.21,0,0,0-10.48,8.19L62.68,68.68H58.11a1.77,1.77,0,0,0,0,3.53h3.71L60.1,79.08l-4.54,7.18A11.3,11.3,0,0,0,54,91.54v25.52a1.78,1.78,0,0,0,1.77,1.77h.58v12.93a1.75,1.75,0,0,0,1.76,1.75H76.69a1.76,1.76,0,0,0,1.77-1.75v-7.6a1.77,1.77,0,0,0-3.54,0V130h-15V118.88h98.9V130H143.67v-5.84a1.77,1.77,0,0,0-3.53,0v7.6a1.77,1.77,0,0,0,1.76,1.76h18.58a1.76,1.76,0,0,0,1.76-1.76V118.88h.58a1.79,1.79,0,0,0,1.77-1.8V91.54A11.3,11.3,0,0,0,163,86.26ZM57.53,91.54a7.92,7.92,0,0,1,1-3.39l4.69-7.43a1.64,1.64,0,0,0,.24-.52L70.72,51a7.8,7.8,0,0,1,7-5.5h63.05a7.8,7.8,0,0,1,7,5.5l7.26,29.16a1.51,1.51,0,0,0,.23.52L160,88.14a7.86,7.86,0,0,1,1,3.4v23.8H134.77l-4.27-10.66a1.75,1.75,0,0,0-1.56-1.11H89.84a1.76,1.76,0,0,0-1.57,1.11l-4.45,10.66H57.53Zm73.5,23.8H87.62l3.3-8.24h36.75l3.3,8.24Z" class="cls-3" data-name="Path 13"/><path id="Path_14" d="M62.82,106.51h6.65a9.54,9.54,0,1,0,0-19.08H64.13a1.77,1.77,0,0,0,0,3.53h5.34a6,6,0,0,1,0,12H62.82a1.77,1.77,0,1,0,0,3.54Z" class="cls-3" data-name="Path 14"/><path id="Path_15" d="M139.59,97a9.56,9.56,0,0,0,9.54,9.54h6.64a1.77,1.77,0,0,0,0-3.54h-6.64a6,6,0,0,1,0-12h5.33a1.77,1.77,0,1,0,0-3.53h-5.33A9.55,9.55,0,0,0,139.59,97Z" class="cls-3" data-name="Path 15"/><rect id="Rectangle_14" width="55.03" height="21.94" x="81.79" y="51.46" class="cls-4" data-name="Rectangle 14" rx="1.39"/><g id="For_Sale" class="cls-5" data-name="For Sale"><g class="cls-5"><path d="M89.86,57.25H95v1H91v2.46h3.08v1H91v3.88H89.86Z" class="cls-6"/></g><g class="cls-5"><path d="M96.44,65.37a2.75,2.75,0,0,1-1-1.1,3.65,3.65,0,0,1,0-3.12,2.75,2.75,0,0,1,1-1.1,3.22,3.22,0,0,1,3.11,0,2.64,2.64,0,0,1,1,1.1,3.65,3.65,0,0,1,0,3.12,2.64,2.64,0,0,1-1,1.1,3.22,3.22,0,0,1-3.11,0Zm2.9-1.11a2.79,2.79,0,0,0,0-3.1,1.91,1.91,0,0,0-2.68,0,2.79,2.79,0,0,0,0,3.1,1.91,1.91,0,0,0,2.68,0Z" class="cls-6"/><path d="M102,59.77h.89l.13,1a4.36,4.36,0,0,1,.87-.83,1.66,1.66,0,0,1,.87-.26.86.86,0,0,1,.28,0L105,60.87a1.86,1.86,0,0,0-.36,0,1.74,1.74,0,0,0-.84.2,1.46,1.46,0,0,0-.58.46v4.15H102Z" class="cls-6"/><path d="M109.64,65.66a6.6,6.6,0,0,1-1.24-.38l.16-1.21a8.24,8.24,0,0,0,1.36.5,5.19,5.19,0,0,0,1.5.22,2.29,2.29,0,0,0,1.3-.31,1,1,0,0,0,.46-.92,1.25,1.25,0,0,0-.23-.76,2,2,0,0,0-.69-.52,11.66,11.66,0,0,0-1.25-.45,7.38,7.38,0,0,1-1.36-.51,2.29,2.29,0,0,1-.87-.76,2.08,2.08,0,0,1-.33-1.21,2,2,0,0,1,.79-1.64,3.44,3.44,0,0,1,2.21-.63,6.28,6.28,0,0,1,1.46.17,6.58,6.58,0,0,1,1.21.41L114,58.87a5.85,5.85,0,0,0-1.3-.58,5.1,5.1,0,0,0-1.3-.18,2.35,2.35,0,0,0-1.24.29,1,1,0,0,0-.46.89,1,1,0,0,0,.21.67,1.54,1.54,0,0,0,.61.45,7.21,7.21,0,0,0,1.1.4,5.91,5.91,0,0,1,2.11,1,2.23,2.23,0,0,1-.13,3.36,4.08,4.08,0,0,1-2.45.62A7.18,7.18,0,0,1,109.64,65.66Z" class="cls-6"/><path d="M115.59,65.29a1.6,1.6,0,0,1-.5-1.22,1.64,1.64,0,0,1,1-1.6,6.1,6.1,0,0,1,2.46-.5,1.48,1.48,0,0,0-.3-1.08,1.42,1.42,0,0,0-1-.28,2.34,2.34,0,0,0-.74.12,2.81,2.81,0,0,0-.81.41l-.15-.88a2.9,2.9,0,0,1,.88-.44,3.73,3.73,0,0,1,1.11-.17,2.43,2.43,0,0,1,1.2.26,1.56,1.56,0,0,1,.66.88,5.38,5.38,0,0,1,.21,1.68v1.2a4.35,4.35,0,0,0,0,.73.59.59,0,0,0,.18.37.65.65,0,0,0,.45.14h.1l-.16.86h-.09a2.76,2.76,0,0,1-.79-.09,1,1,0,0,1-.44-.28,2.19,2.19,0,0,1-.28-.49,2.32,2.32,0,0,1-1.8.86A1.81,1.81,0,0,1,115.59,65.29Zm2.35-.6a1.85,1.85,0,0,0,.66-.58v-1.4a4.69,4.69,0,0,0-1.85.34,1,1,0,0,0-.56,1,.86.86,0,0,0,.25.68,1,1,0,0,0,.66.22A1.81,1.81,0,0,0,117.94,64.69Z" class="cls-6"/><path d="M121.65,65.36a1.42,1.42,0,0,1-.37-1v-7.7h1.08v7.08a2.89,2.89,0,0,0,.07.77.44.44,0,0,0,.25.32,1.61,1.61,0,0,0,.63.09l-.16.86h-.35A1.44,1.44,0,0,1,121.65,65.36Z" class="cls-6"/><path d="M125.16,65.36a2.73,2.73,0,0,1-1.08-1.13,3.52,3.52,0,0,1,0-3.08,2.63,2.63,0,0,1,1-1.1,2.87,2.87,0,0,1,1.54-.4,2.58,2.58,0,0,1,1.84.66,2.42,2.42,0,0,1,.7,1.83,3.55,3.55,0,0,1-.05.57h-4.26a2.27,2.27,0,0,0,.69,1.62,2.34,2.34,0,0,0,1.52.48,4.09,4.09,0,0,0,1.69-.35l.14.85a4.71,4.71,0,0,1-2,.46A3.45,3.45,0,0,1,125.16,65.36ZM128,62a1.35,1.35,0,0,0-.36-1,1.47,1.47,0,0,0-1.08-.36,1.65,1.65,0,0,0-1.09.34,2,2,0,0,0-.57,1Z" class="cls-6"/></g></g></g></g><g id="Sales" class="cls-5"><g class="cls-5"><path d="M85.29,184.65a6.5,6.5,0,0,1-2.43-1.33l.78-1.64a6.29,6.29,0,0,0,2.15,1.23,7.79,7.79,0,0,0,2.7.47,4.79,4.79,0,0,0,2.73-.62,1.9,1.9,0,0,0,.9-1.64,1.6,1.6,0,0,0-.49-1.23,3.31,3.31,0,0,0-1.22-.73,20.75,20.75,0,0,0-2-.57,21,21,0,0,1-2.67-.79,4.57,4.57,0,0,1-1.75-1.23,3.29,3.29,0,0,1-.72-2.24,3.74,3.74,0,0,1,.62-2.12,4.25,4.25,0,0,1,1.88-1.51,7.58,7.58,0,0,1,3.13-.57,9.68,9.68,0,0,1,2.56.34,6.69,6.69,0,0,1,2.16,1l-.69,1.68a7.66,7.66,0,0,0-2-.89,7.43,7.43,0,0,0-2.05-.3,4.49,4.49,0,0,0-2.68.65,2,2,0,0,0-.89,1.68,1.61,1.61,0,0,0,.5,1.23,3.5,3.5,0,0,0,1.25.73,19,19,0,0,0,2,.56,19.07,19.07,0,0,1,2.66.8,4.49,4.49,0,0,1,1.74,1.21,3.25,3.25,0,0,1,.72,2.21,3.76,3.76,0,0,1-.63,2.11,4.21,4.21,0,0,1-1.91,1.51,8,8,0,0,1-3.15.56A9.84,9.84,0,0,1,85.29,184.65Z" class="cls-3"/><path d="M104.54,174.9a4.38,4.38,0,0,1,1.23,3.38V185h-1.91v-1.47a3.27,3.27,0,0,1-1.44,1.19,5.52,5.52,0,0,1-2.21.41,4.61,4.61,0,0,1-3-.91,2.88,2.88,0,0,1-1.12-2.37,2.92,2.92,0,0,1,1.07-2.36,5.26,5.26,0,0,1,3.4-.9h3.2v-.39a2.59,2.59,0,0,0-.76-2,3.2,3.2,0,0,0-2.23-.69,6.1,6.1,0,0,0-1.93.32,4.86,4.86,0,0,0-1.59.88l-.84-1.52a6.22,6.22,0,0,1,2-1.06,8.81,8.81,0,0,1,2.54-.37A5,5,0,0,1,104.54,174.9Zm-2,8.16a3,3,0,0,0,1.22-1.46V180h-3.11c-1.71,0-2.56.58-2.56,1.73a1.53,1.53,0,0,0,.65,1.32,3,3,0,0,0,1.8.48A3.79,3.79,0,0,0,102.54,183.06Z" class="cls-3"/><path d="M109.51,169.42h2V185h-2Z" class="cls-3"/><path d="M125.39,180.11h-9a3.43,3.43,0,0,0,1.29,2.36,4.22,4.22,0,0,0,2.74.89A4.14,4.14,0,0,0,123.6,182l1.11,1.3a4.73,4.73,0,0,1-1.88,1.34,6.49,6.49,0,0,1-2.51.47,6.59,6.59,0,0,1-3.12-.73,5.23,5.23,0,0,1-2.12-2,6.25,6.25,0,0,1,0-5.86,5.21,5.21,0,0,1,2-2,5.72,5.72,0,0,1,2.87-.73,5.58,5.58,0,0,1,2.84.73,5.08,5.08,0,0,1,2,2,6.13,6.13,0,0,1,.71,3C125.43,179.65,125.41,179.86,125.39,180.11Zm-7.89-3.76a3.56,3.56,0,0,0-1.14,2.31h7.14a3.61,3.61,0,0,0-1.15-2.3,3.43,3.43,0,0,0-2.42-.89A3.48,3.48,0,0,0,117.5,176.35Z" class="cls-3"/><path d="M128.79,184.76a5.89,5.89,0,0,1-2-.94l.84-1.59a6.06,6.06,0,0,0,1.79.84,7.35,7.35,0,0,0,2.12.31c1.76,0,2.65-.5,2.65-1.51a1,1,0,0,0-.36-.8,2.38,2.38,0,0,0-.89-.43q-.54-.13-1.53-.3a15.43,15.43,0,0,1-2.19-.48,3.42,3.42,0,0,1-1.46-.93,2.55,2.55,0,0,1-.61-1.83,2.86,2.86,0,0,1,1.26-2.42,5.64,5.64,0,0,1,3.38-.92A9.53,9.53,0,0,1,134,174a6,6,0,0,1,1.83.73l-.87,1.6a5.77,5.77,0,0,0-3.21-.88,3.72,3.72,0,0,0-1.95.42,1.26,1.26,0,0,0-.67,1.11,1.06,1.06,0,0,0,.37.86,2.3,2.3,0,0,0,.94.46c.37.1.89.21,1.56.34a17.49,17.49,0,0,1,2.18.49,3.2,3.2,0,0,1,1.41.9,2.43,2.43,0,0,1,.59,1.76,2.77,2.77,0,0,1-1.29,2.4,6.05,6.05,0,0,1-3.52.9A9.48,9.48,0,0,1,128.79,184.76Z" class="cls-3"/></g><g class="cls-5"><path d="M85.29,184.65a6.5,6.5,0,0,1-2.43-1.33l.78-1.64a6.29,6.29,0,0,0,2.15,1.23,7.79,7.79,0,0,0,2.7.47,4.79,4.79,0,0,0,2.73-.62,1.9,1.9,0,0,0,.9-1.64,1.6,1.6,0,0,0-.49-1.23,3.31,3.31,0,0,0-1.22-.73,20.75,20.75,0,0,0-2-.57,21,21,0,0,1-2.67-.79,4.57,4.57,0,0,1-1.75-1.23,3.29,3.29,0,0,1-.72-2.24,3.74,3.74,0,0,1,.62-2.12,4.25,4.25,0,0,1,1.88-1.51,7.58,7.58,0,0,1,3.13-.57,9.68,9.68,0,0,1,2.56.34,6.69,6.69,0,0,1,2.16,1l-.69,1.68a7.66,7.66,0,0,0-2-.89,7.43,7.43,0,0,0-2.05-.3,4.49,4.49,0,0,0-2.68.65,2,2,0,0,0-.89,1.68,1.61,1.61,0,0,0,.5,1.23,3.5,3.5,0,0,0,1.25.73,19,19,0,0,0,2,.56,19.07,19.07,0,0,1,2.66.8,4.49,4.49,0,0,1,1.74,1.21,3.25,3.25,0,0,1,.72,2.21,3.76,3.76,0,0,1-.63,2.11,4.21,4.21,0,0,1-1.91,1.51,8,8,0,0,1-3.15.56A9.84,9.84,0,0,1,85.29,184.65Z" class="cls-7"/><path d="M104.54,174.9a4.38,4.38,0,0,1,1.23,3.38V185h-1.91v-1.47a3.27,3.27,0,0,1-1.44,1.19,5.52,5.52,0,0,1-2.21.41,4.61,4.61,0,0,1-3-.91,2.88,2.88,0,0,1-1.12-2.37,2.92,2.92,0,0,1,1.07-2.36,5.26,5.26,0,0,1,3.4-.9h3.2v-.39a2.59,2.59,0,0,0-.76-2,3.2,3.2,0,0,0-2.23-.69,6.1,6.1,0,0,0-1.93.32,4.86,4.86,0,0,0-1.59.88l-.84-1.52a6.22,6.22,0,0,1,2-1.06,8.81,8.81,0,0,1,2.54-.37A5,5,0,0,1,104.54,174.9Zm-2,8.16a3,3,0,0,0,1.22-1.46V180h-3.11c-1.71,0-2.56.58-2.56,1.73a1.53,1.53,0,0,0,.65,1.32,3,3,0,0,0,1.8.48A3.79,3.79,0,0,0,102.54,183.06Z" class="cls-7"/><path d="M109.51,169.42h2V185h-2Z" class="cls-7"/><path d="M125.39,180.11h-9a3.43,3.43,0,0,0,1.29,2.36,4.22,4.22,0,0,0,2.74.89A4.14,4.14,0,0,0,123.6,182l1.11,1.3a4.73,4.73,0,0,1-1.88,1.34,6.49,6.49,0,0,1-2.51.47,6.59,6.59,0,0,1-3.12-.73,5.23,5.23,0,0,1-2.12-2,6.25,6.25,0,0,1,0-5.86,5.21,5.21,0,0,1,2-2,5.72,5.72,0,0,1,2.87-.73,5.58,5.58,0,0,1,2.84.73,5.08,5.08,0,0,1,2,2,6.13,6.13,0,0,1,.71,3C125.43,179.65,125.41,179.86,125.39,180.11Zm-7.89-3.76a3.56,3.56,0,0,0-1.14,2.31h7.14a3.61,3.61,0,0,0-1.15-2.3,3.43,3.43,0,0,0-2.42-.89A3.48,3.48,0,0,0,117.5,176.35Z" class="cls-7"/><path d="M128.79,184.76a5.89,5.89,0,0,1-2-.94l.84-1.59a6.06,6.06,0,0,0,1.79.84,7.35,7.35,0,0,0,2.12.31c1.76,0,2.65-.5,2.65-1.51a1,1,0,0,0-.36-.8,2.38,2.38,0,0,0-.89-.43q-.54-.13-1.53-.3a15.43,15.43,0,0,1-2.19-.48,3.42,3.42,0,0,1-1.46-.93,2.55,2.55,0,0,1-.61-1.83,2.86,2.86,0,0,1,1.26-2.42,5.64,5.64,0,0,1,3.38-.92A9.53,9.53,0,0,1,134,174a6,6,0,0,1,1.83.73l-.87,1.6a5.77,5.77,0,0,0-3.21-.88,3.72,3.72,0,0,0-1.95.42,1.26,1.26,0,0,0-.67,1.11,1.06,1.06,0,0,0,.37.86,2.3,2.3,0,0,0,.94.46c.37.1.89.21,1.56.34a17.49,17.49,0,0,1,2.18.49,3.2,3.2,0,0,1,1.41.9,2.43,2.43,0,0,1,.59,1.76,2.77,2.77,0,0,1-1.29,2.4,6.05,6.05,0,0,1-3.52.9A9.48,9.48,0,0,1,128.79,184.76Z" class="cls-7"/></g></g></g></g></g></svg>