<svg xmlns="http://www.w3.org/2000/svg" width="218" height="218" viewBox="0 0 218 218">
  <g id="Group_174" data-name="Group 174" transform="translate(-1202 -821)">
    <g id="Group_157" data-name="Group 157">
      <g id="Rectangle_11" data-name="Rectangle 11" transform="translate(1202 821)" fill="#fff" stroke="#2d677a" stroke-width="4">
        <rect width="218" height="218" rx="33" stroke="none"/>
        <rect x="2" y="2" width="214" height="214" rx="31" fill="none"/>
      </g>
      <text id="Savings_Calculator" data-name="Savings
Calculator" transform="translate(1311 993)" fill="#2d677a" stroke="#2d677a" stroke-width="1" font-size="21" font-family="Montserrat-Medium, Montserrat" font-weight="500"><tspan x="-41.181" y="0">Savings</tspan><tspan x="-54.169" y="25">Calculator</tspan></text>
      <g id="calculator" transform="translate(1242 861)">
        <g id="Group_161" data-name="Group 161" transform="translate(31)">
          <g id="Group_160" data-name="Group 160" transform="translate(0)">
            <path id="Path_1369" data-name="Path 1369" d="M98.827,0H38.536C34.381,0,31,3.824,31,8.525V88.475C31,93.176,34.381,97,38.536,97H98.827c4.156,0,7.536-3.824,7.536-8.525V8.525C106.363,3.824,102.983,0,98.827,0Zm2.512,88.475a2.7,2.7,0,0,1-2.512,2.842H38.536a2.7,2.7,0,0,1-2.512-2.842V8.525a2.7,2.7,0,0,1,2.512-2.842H98.827a2.7,2.7,0,0,1,2.512,2.842Z" transform="translate(-31)" fill="#2d677a"/>
          </g>
        </g>
        <g id="Group_163" data-name="Group 163" transform="translate(41.048 11.367)">
          <g id="Group_162" data-name="Group 162" transform="translate(0)">
            <path id="Path_1370" data-name="Path 1370" d="M143.754,60H93.512A2.692,2.692,0,0,0,91,62.842V85.955A2.692,2.692,0,0,0,93.512,88.8h50.242a2.692,2.692,0,0,0,2.512-2.842V62.842A2.692,2.692,0,0,0,143.754,60Zm-2.512,23.113H96.024V65.684h45.218Z" transform="translate(-91 -60)" fill="#2d677a"/>
          </g>
        </g>
        <g id="Group_165" data-name="Group 165" transform="translate(41.048 45.848)">
          <g id="Group_164" data-name="Group 164" transform="translate(0)">
            <path id="Path_1371" data-name="Path 1371" d="M103.561,242H93.512A2.692,2.692,0,0,0,91,244.842v11.367a2.692,2.692,0,0,0,2.512,2.842h10.048a2.692,2.692,0,0,0,2.512-2.842V244.842A2.692,2.692,0,0,0,103.561,242Zm-2.512,11.367H96.024v-5.684h5.024Z" transform="translate(-91 -242)" fill="#2d677a"/>
          </g>
        </g>
        <g id="Group_167" data-name="Group 167" transform="translate(41.048 68.582)">
          <g id="Group_166" data-name="Group 166" transform="translate(0)">
            <path id="Path_1372" data-name="Path 1372" d="M103.561,362H93.512A2.692,2.692,0,0,0,91,364.842v11.367a2.692,2.692,0,0,0,2.512,2.842h10.048a2.692,2.692,0,0,0,2.512-2.842V364.842A2.692,2.692,0,0,0,103.561,362Zm-2.512,11.367H96.024v-5.684h5.024Z" transform="translate(-91 -362)" fill="#2d677a"/>
          </g>
        </g>
        <g id="Group_169" data-name="Group 169" transform="translate(61.145 45.848)">
          <g id="Group_168" data-name="Group 168" transform="translate(0)">
            <path id="Path_1373" data-name="Path 1373" d="M223.561,242H213.512A2.692,2.692,0,0,0,211,244.842v11.367a2.692,2.692,0,0,0,2.512,2.842h10.048a2.692,2.692,0,0,0,2.512-2.842V244.842A2.692,2.692,0,0,0,223.561,242Zm-2.512,11.367h-5.024v-5.684h5.024Z" transform="translate(-211 -242)" fill="#2d677a"/>
          </g>
        </g>
        <g id="Group_171" data-name="Group 171" transform="translate(61.145 68.582)">
          <g id="Group_170" data-name="Group 170" transform="translate(0)">
            <path id="Path_1374" data-name="Path 1374" d="M223.561,362H213.512A2.692,2.692,0,0,0,211,364.842v11.367a2.692,2.692,0,0,0,2.512,2.842h10.048a2.692,2.692,0,0,0,2.512-2.842V364.842A2.692,2.692,0,0,0,223.561,362Zm-2.512,11.367h-5.024v-5.684h5.024Z" transform="translate(-211 -362)" fill="#2d677a"/>
          </g>
        </g>
        <g id="Group_173" data-name="Group 173" transform="translate(81.242 45.848)">
          <g id="Group_172" data-name="Group 172">
            <path id="Path_1375" data-name="Path 1375" d="M343.561,242H333.512A2.692,2.692,0,0,0,331,244.842v34.1a2.692,2.692,0,0,0,2.512,2.842h10.048a2.692,2.692,0,0,0,2.512-2.842v-34.1A2.692,2.692,0,0,0,343.561,242Zm-2.512,34.1h-5.024V247.684h5.024Z" transform="translate(-331 -242)" fill="#2d677a"/>
          </g>
        </g>
      </g>
    </g>
  </g>
</svg>
