<svg xmlns="http://www.w3.org/2000/svg" viewBox="0 0 218 218"><defs><style>.cls-1{fill:#fff;}.cls-2,.cls-6{fill:none;}.cls-2,.cls-4,.cls-6{stroke:#2d677a;}.cls-2{stroke-width:4px;}.cls-3{isolation:isolate;}.cls-4,.cls-5{fill:#2d677a;}</style></defs><title>savings calculator</title><g id="Layer_2" data-name="Layer 2"><g id="Layer_1-2" data-name="Layer 1"><g id="Group_157" data-name="Group 157"><g id="Rectangle_11" data-name="Rectangle 11"><rect class="cls-1" width="218" height="218" rx="33"/><rect class="cls-2" x="2" y="2" width="214" height="214" rx="31"/></g><g id="Savings_Calculator" data-name="Savings Calculator" class="cls-3"><g class="cls-3"><path class="cls-4" d="M15.62,168.3A6.66,6.66,0,0,1,13.19,167l.78-1.63a6.34,6.34,0,0,0,2.15,1.22,7.76,7.76,0,0,0,2.7.48,4.88,4.88,0,0,0,2.73-.62,1.93,1.93,0,0,0,.9-1.65,1.6,1.6,0,0,0-.49-1.23,3.16,3.16,0,0,0-1.22-.72c-.48-.17-1.17-.36-2-.57a21.47,21.47,0,0,1-2.68-.8,4.36,4.36,0,0,1-1.74-1.23,3.29,3.29,0,0,1-.72-2.23,3.75,3.75,0,0,1,.62-2.13,4.25,4.25,0,0,1,1.88-1.51,7.57,7.57,0,0,1,3.12-.56,10.12,10.12,0,0,1,2.57.33,6.92,6.92,0,0,1,2.16,1l-.69,1.68a7.66,7.66,0,0,0-2-.89,7.1,7.1,0,0,0-2.06-.31,4.53,4.53,0,0,0-2.67.65,2,2,0,0,0-.9,1.68,1.6,1.6,0,0,0,.51,1.23,3.58,3.58,0,0,0,1.25.74,19.11,19.11,0,0,0,2,.55,20.27,20.27,0,0,1,2.67.8,4.48,4.48,0,0,1,1.73,1.22,3.16,3.16,0,0,1,.73,2.2,3.74,3.74,0,0,1-.63,2.11A4.21,4.21,0,0,1,22,168.25a7.79,7.79,0,0,1-3.15.56A10.07,10.07,0,0,1,15.62,168.3Z"/><path class="cls-4" d="M34.87,158.54a4.39,4.39,0,0,1,1.23,3.38v6.72H34.19v-1.47a3.2,3.2,0,0,1-1.44,1.19,5.52,5.52,0,0,1-2.21.41,4.66,4.66,0,0,1-3-.9,3.11,3.11,0,0,1-.05-4.74,5.3,5.3,0,0,1,3.4-.89h3.19v-.4a2.6,2.6,0,0,0-.75-2,3.22,3.22,0,0,0-2.23-.69,5.8,5.8,0,0,0-1.93.33,4.82,4.82,0,0,0-1.6.87l-.84-1.51a6.09,6.09,0,0,1,2.06-1.06,8.48,8.48,0,0,1,2.54-.37A5.07,5.07,0,0,1,34.87,158.54Zm-2,8.16a2.91,2.91,0,0,0,1.21-1.46v-1.55H31c-1.71,0-2.57.57-2.57,1.72a1.56,1.56,0,0,0,.65,1.32,3,3,0,0,0,1.81.49A3.79,3.79,0,0,0,32.87,166.7Z"/><path class="cls-4" d="M49.48,157.51l-4.87,11.13H42.55l-4.87-11.13h2.1l3.82,8.93,3.9-8.93Z"/><path class="cls-4" d="M51.4,155a1.23,1.23,0,0,1-.39-.92,1.29,1.29,0,0,1,.39-.94,1.35,1.35,0,0,1,1-.38,1.37,1.37,0,0,1,1,.36,1.22,1.22,0,0,1,.39.92,1.28,1.28,0,0,1-.39.95,1.43,1.43,0,0,1-2,0Zm0,2.52h2v11.13h-2Z"/><path class="cls-4" d="M66.54,158.64a4.85,4.85,0,0,1,1.25,3.6v6.4h-2v-6.17A3.47,3.47,0,0,0,65,160a3,3,0,0,0-2.23-.82,3.46,3.46,0,0,0-2.58,1,3.74,3.74,0,0,0-.95,2.74v5.73h-2V157.51h1.93v1.68a3.88,3.88,0,0,1,1.65-1.32,5.71,5.71,0,0,1,2.36-.46A4.6,4.6,0,0,1,66.54,158.64Z"/><path class="cls-4" d="M82.24,157.51v9.62a5.78,5.78,0,0,1-1.45,4.32,6,6,0,0,1-4.33,1.39,10.22,10.22,0,0,1-3-.43,5.78,5.78,0,0,1-2.31-1.23l1-1.55A5.68,5.68,0,0,0,74,170.69a7.26,7.26,0,0,0,2.36.39,4,4,0,0,0,2.89-.92,3.83,3.83,0,0,0,.93-2.82v-.88a4.57,4.57,0,0,1-1.75,1.29,5.83,5.83,0,0,1-2.26.43,6.16,6.16,0,0,1-2.89-.68,5.09,5.09,0,0,1-2-1.91,5.69,5.69,0,0,1,0-5.61,5,5,0,0,1,2-1.9,6.15,6.15,0,0,1,2.89-.67,5.85,5.85,0,0,1,2.34.46,4.38,4.38,0,0,1,1.78,1.37v-1.73ZM78.4,166a3.43,3.43,0,0,0,1.37-1.3,3.59,3.59,0,0,0,.49-1.88,3.38,3.38,0,0,0-1.07-2.61,4.31,4.31,0,0,0-5.52,0,3.38,3.38,0,0,0-1.07,2.61,3.59,3.59,0,0,0,.49,1.88,3.43,3.43,0,0,0,1.37,1.3,4.25,4.25,0,0,0,2,.46A4.2,4.2,0,0,0,78.4,166Z"/><path class="cls-4" d="M86.65,168.4a5.71,5.71,0,0,1-2-.93l.84-1.6a6.06,6.06,0,0,0,1.79.84,7.31,7.31,0,0,0,2.12.32c1.76,0,2.64-.51,2.64-1.52a1,1,0,0,0-.35-.79,2.22,2.22,0,0,0-.9-.43c-.35-.09-.86-.2-1.52-.31a15.43,15.43,0,0,1-2.19-.48,3.27,3.27,0,0,1-1.46-.93,2.54,2.54,0,0,1-.61-1.82,2.86,2.86,0,0,1,1.26-2.43,5.64,5.64,0,0,1,3.38-.91,9.51,9.51,0,0,1,2.23.27,5.8,5.8,0,0,1,1.82.74L92.86,160a5.77,5.77,0,0,0-3.21-.88,3.69,3.69,0,0,0-2,.42,1.27,1.27,0,0,0-.68,1.11,1.06,1.06,0,0,0,.38.86,2.45,2.45,0,0,0,.94.47c.37.09.89.21,1.56.33a17.27,17.27,0,0,1,2.18.5,3.18,3.18,0,0,1,1.41.89,2.5,2.5,0,0,1,.59,1.76,2.8,2.8,0,0,1-1.29,2.41,6.13,6.13,0,0,1-3.52.89A9.12,9.12,0,0,1,86.65,168.4Z"/><path class="cls-4" d="M109.84,158.54a4.39,4.39,0,0,1,1.23,3.38v6.72h-1.91v-1.47a3.2,3.2,0,0,1-1.44,1.19,5.53,5.53,0,0,1-2.22.41,4.65,4.65,0,0,1-3-.9,3.11,3.11,0,0,1-.05-4.74,5.3,5.3,0,0,1,3.4-.89h3.19v-.4a2.6,2.6,0,0,0-.75-2,3.22,3.22,0,0,0-2.23-.69,5.8,5.8,0,0,0-1.93.33,4.82,4.82,0,0,0-1.6.87l-.84-1.51a6.09,6.09,0,0,1,2.06-1.06,8.48,8.48,0,0,1,2.54-.37A5.07,5.07,0,0,1,109.84,158.54Zm-2,8.16a2.91,2.91,0,0,0,1.21-1.46v-1.55H106c-1.71,0-2.57.57-2.57,1.72a1.56,1.56,0,0,0,.65,1.32,3,3,0,0,0,1.81.49A3.79,3.79,0,0,0,107.84,166.7Z"/><path class="cls-4" d="M124.12,158.64a4.85,4.85,0,0,1,1.25,3.6v6.4h-2v-6.17a3.47,3.47,0,0,0-.77-2.44,3,3,0,0,0-2.23-.82,3.46,3.46,0,0,0-2.58,1,3.74,3.74,0,0,0-1,2.74v5.73h-2V157.51h1.93v1.68a3.88,3.88,0,0,1,1.65-1.32,5.71,5.71,0,0,1,2.36-.46A4.6,4.6,0,0,1,124.12,158.64Z"/><path class="cls-4" d="M139.67,153.06v15.58h-1.93v-1.76a4.46,4.46,0,0,1-1.7,1.41,5.31,5.31,0,0,1-2.27.48,5.93,5.93,0,0,1-2.9-.71,5.15,5.15,0,0,1-2-2,5.89,5.89,0,0,1-.73-3,5.83,5.83,0,0,1,.73-3,5.13,5.13,0,0,1,2-2,5.93,5.93,0,0,1,2.9-.71,5.31,5.31,0,0,1,2.2.45,4.22,4.22,0,0,1,1.68,1.33v-6.13Zm-3.82,13.45a3.49,3.49,0,0,0,1.34-1.38,4.53,4.53,0,0,0,0-4.1,3.4,3.4,0,0,0-1.34-1.37,3.77,3.77,0,0,0-1.91-.49,3.71,3.71,0,0,0-1.92.49,3.49,3.49,0,0,0-1.35,1.37,4.53,4.53,0,0,0,0,4.1,3.58,3.58,0,0,0,1.35,1.38,3.71,3.71,0,0,0,1.92.5A3.78,3.78,0,0,0,135.85,166.51Z"/><path class="cls-4" d="M152.63,157.91a5.71,5.71,0,0,1,2.5-.5v2l-.47,0a3.39,3.39,0,0,0-2.57,1,3.88,3.88,0,0,0-.93,2.78v5.54h-2V157.51h1.93v1.87A3.48,3.48,0,0,1,152.63,157.91Z"/><path class="cls-4" d="M165.17,158.54a4.39,4.39,0,0,1,1.23,3.38v6.72h-1.91v-1.47a3.1,3.1,0,0,1-1.44,1.19,5.52,5.52,0,0,1-2.21.41,4.62,4.62,0,0,1-3-.9,3.1,3.1,0,0,1-.06-4.74,5.33,5.33,0,0,1,3.41-.89h3.19v-.4a2.61,2.61,0,0,0-.76-2,3.19,3.19,0,0,0-2.22-.69,5.86,5.86,0,0,0-1.94.33,4.67,4.67,0,0,0-1.59.87l-.84-1.51a6,6,0,0,1,2.05-1.06,8.5,8.5,0,0,1,2.55-.37A5,5,0,0,1,165.17,158.54Zm-2,8.16a3,3,0,0,0,1.22-1.46v-1.55h-3.11c-1.71,0-2.56.57-2.56,1.72a1.53,1.53,0,0,0,.65,1.32,3,3,0,0,0,1.8.49A3.79,3.79,0,0,0,163.17,166.7Z"/><path class="cls-4" d="M179.46,158.64a4.84,4.84,0,0,1,1.24,3.6v6.4h-2v-6.17a3.42,3.42,0,0,0-.78-2.44,2.94,2.94,0,0,0-2.22-.82,3.46,3.46,0,0,0-2.59,1,3.73,3.73,0,0,0-.94,2.74v5.73h-2V157.51h1.93v1.68a4,4,0,0,1,1.65-1.32,5.75,5.75,0,0,1,2.36-.46A4.62,4.62,0,0,1,179.46,158.64Z"/><path class="cls-4" d="M195.15,157.51v9.62a5.74,5.74,0,0,1-1.45,4.32,6,6,0,0,1-4.32,1.39,10.33,10.33,0,0,1-3-.43,5.78,5.78,0,0,1-2.31-1.23l1-1.55a5.72,5.72,0,0,0,1.92,1.06,7.26,7.26,0,0,0,2.36.39,4,4,0,0,0,2.89-.92,3.84,3.84,0,0,0,.94-2.82v-.88a4.53,4.53,0,0,1-1.76,1.29,5.75,5.75,0,0,1-2.25.43,6.13,6.13,0,0,1-2.89-.68,5.12,5.12,0,0,1-2-1.91,5.75,5.75,0,0,1,0-5.61,5,5,0,0,1,2-1.9,6.13,6.13,0,0,1,2.89-.67,5.89,5.89,0,0,1,2.34.46,4.29,4.29,0,0,1,1.77,1.37v-1.73ZM191.32,166a3.34,3.34,0,0,0,1.36-1.3,3.59,3.59,0,0,0,.5-1.88,3.41,3.41,0,0,0-1.07-2.61,3.86,3.86,0,0,0-2.75-1,3.9,3.9,0,0,0-2.78,1,3.41,3.41,0,0,0-1.07,2.61,3.59,3.59,0,0,0,.5,1.88,3.34,3.34,0,0,0,1.36,1.3,4.47,4.47,0,0,0,3.95,0Z"/><path class="cls-4" d="M209,163.75h-9a3.51,3.51,0,0,0,1.29,2.36,4.2,4.2,0,0,0,2.74.9,4.13,4.13,0,0,0,3.22-1.35l1.11,1.3a4.85,4.85,0,0,1-1.88,1.35,7.08,7.08,0,0,1-5.64-.27,5.14,5.14,0,0,1-2.11-2,5.79,5.79,0,0,1-.74-2.94,5.93,5.93,0,0,1,.72-2.92,5.2,5.2,0,0,1,2-2,5.68,5.68,0,0,1,2.86-.72,5.61,5.61,0,0,1,2.85.72,5.15,5.15,0,0,1,1.95,2,6.16,6.16,0,0,1,.7,3A5.12,5.12,0,0,1,209,163.75ZM201.13,160A3.57,3.57,0,0,0,200,162.3h7.14A3.58,3.58,0,0,0,206,160a3.76,3.76,0,0,0-4.85,0Z"/></g><g class="cls-3"><path class="cls-5" d="M59.63,196.19a7.19,7.19,0,0,1-2.78-2.69,7.84,7.84,0,0,1,0-7.7,7.15,7.15,0,0,1,2.79-2.69,8.71,8.71,0,0,1,7.14-.4,6.55,6.55,0,0,1,2.44,1.71l-1.37,1.32A5.47,5.47,0,0,0,63.71,184a6,6,0,0,0-3,.74,5.36,5.36,0,0,0-2.07,2,6,6,0,0,0,0,5.78,5.36,5.36,0,0,0,2.07,2,6,6,0,0,0,3,.74,5.51,5.51,0,0,0,4.14-1.76l1.37,1.32a6.64,6.64,0,0,1-2.45,1.72,8.31,8.31,0,0,1-3.16.59A8.12,8.12,0,0,1,59.63,196.19Z"/><path class="cls-5" d="M79.37,186.9a4.38,4.38,0,0,1,1.23,3.38V197H78.69v-1.47a3.27,3.27,0,0,1-1.44,1.19,5.53,5.53,0,0,1-2.22.41,4.6,4.6,0,0,1-3-.91,3.1,3.1,0,0,1-.05-4.73,5.24,5.24,0,0,1,3.4-.9h3.19v-.39a2.59,2.59,0,0,0-.75-2,3.22,3.22,0,0,0-2.23-.69,6.06,6.06,0,0,0-1.93.32,5,5,0,0,0-1.6.88l-.84-1.52a6.27,6.27,0,0,1,2.06-1.06,8.81,8.81,0,0,1,2.54-.37A5,5,0,0,1,79.37,186.9Zm-2,8.16a3,3,0,0,0,1.22-1.46V192H75.47c-1.7,0-2.56.58-2.56,1.73a1.56,1.56,0,0,0,.65,1.32,3,3,0,0,0,1.81.48A3.75,3.75,0,0,0,77.36,195.06Z"/><path class="cls-5" d="M84.34,181.42h2V197h-2Z"/><path class="cls-5" d="M92,196.39a5.37,5.37,0,0,1-2.09-2,6.08,6.08,0,0,1,0-5.85,5.27,5.27,0,0,1,2.09-2,6.3,6.3,0,0,1,3-.73,5.89,5.89,0,0,1,2.69.61,4.31,4.31,0,0,1,1.84,1.77l-1.53,1a3.38,3.38,0,0,0-1.3-1.2,3.7,3.7,0,0,0-1.73-.4,4,4,0,0,0-2,.48,3.35,3.35,0,0,0-1.36,1.38,4.47,4.47,0,0,0,0,4.11,3.35,3.35,0,0,0,1.36,1.38,4,4,0,0,0,2,.48,3.7,3.7,0,0,0,1.73-.4,3.43,3.43,0,0,0,1.3-1.19l1.53,1a4.39,4.39,0,0,1-1.84,1.78,5.77,5.77,0,0,1-2.69.62A6.19,6.19,0,0,1,92,196.39Z"/><path class="cls-5" d="M112.56,185.87V197h-1.91v-1.68a4,4,0,0,1-1.61,1.33,4.93,4.93,0,0,1-2.17.48,4.86,4.86,0,0,1-3.51-1.23,4.81,4.81,0,0,1-1.28-3.62v-6.41h2V192a3.49,3.49,0,0,0,.77,2.45,2.92,2.92,0,0,0,2.23.83,3.31,3.31,0,0,0,2.52-1,3.76,3.76,0,0,0,.92-2.73v-5.75Z"/><path class="cls-5" d="M116.4,181.42h2V197h-2Z"/><path class="cls-5" d="M129.85,186.9a4.38,4.38,0,0,1,1.23,3.38V197h-1.91v-1.47a3.27,3.27,0,0,1-1.44,1.19,5.52,5.52,0,0,1-2.21.41,4.61,4.61,0,0,1-3-.91,2.88,2.88,0,0,1-1.12-2.37,2.92,2.92,0,0,1,1.07-2.36,5.24,5.24,0,0,1,3.4-.9h3.19v-.39a2.59,2.59,0,0,0-.75-2,3.22,3.22,0,0,0-2.23-.69,6.06,6.06,0,0,0-1.93.32,5,5,0,0,0-1.6.88l-.84-1.52a6.27,6.27,0,0,1,2.06-1.06,8.81,8.81,0,0,1,2.54-.37A5,5,0,0,1,129.85,186.9Zm-2,8.16a3,3,0,0,0,1.21-1.46V192H126c-1.71,0-2.57.58-2.57,1.73a1.54,1.54,0,0,0,.66,1.32,3,3,0,0,0,1.8.48A3.79,3.79,0,0,0,127.85,195.06Z"/><path class="cls-5" d="M141.08,196.35a3.24,3.24,0,0,1-1.09.58,4.74,4.74,0,0,1-1.35.2,3.52,3.52,0,0,1-2.6-.91,3.43,3.43,0,0,1-.93-2.58v-6.11h-1.89v-1.66h1.89v-2.44h2v2.44h3.19v1.66h-3.19v6a1.94,1.94,0,0,0,.45,1.38,1.68,1.68,0,0,0,1.29.48,2.44,2.44,0,0,0,1.58-.52Z"/><path class="cls-5" d="M144.92,196.39a5.31,5.31,0,0,1-2.07-2,6.15,6.15,0,0,1,0-5.85,5.22,5.22,0,0,1,2.07-2,6.14,6.14,0,0,1,3-.73,6.05,6.05,0,0,1,3,.73,5.2,5.2,0,0,1,2.06,2,6.08,6.08,0,0,1,0,5.85,5.29,5.29,0,0,1-2.06,2,6,6,0,0,1-3,.74A6,6,0,0,1,144.92,196.39Zm4.9-1.52a3.52,3.52,0,0,0,1.34-1.39,4.6,4.6,0,0,0,0-4.09,3.43,3.43,0,0,0-1.34-1.38,3.8,3.8,0,0,0-1.92-.48A3.85,3.85,0,0,0,146,188a3.36,3.36,0,0,0-1.34,1.38,4.43,4.43,0,0,0,0,4.09,3.45,3.45,0,0,0,1.34,1.39,3.76,3.76,0,0,0,1.92.49A3.71,3.71,0,0,0,149.82,194.87Z"/><path class="cls-5" d="M160,186.27a5.54,5.54,0,0,1,2.5-.51v2a3.11,3.11,0,0,0-.47,0,3.38,3.38,0,0,0-2.57,1,3.89,3.89,0,0,0-.93,2.79V197h-2V185.87h1.93v1.87A3.48,3.48,0,0,1,160,186.27Z"/></g><g class="cls-3"><path class="cls-6" d="M59.63,196.19a7.19,7.19,0,0,1-2.78-2.69,7.84,7.84,0,0,1,0-7.7,7.15,7.15,0,0,1,2.79-2.69,8.71,8.71,0,0,1,7.14-.4,6.55,6.55,0,0,1,2.44,1.71l-1.37,1.32A5.47,5.47,0,0,0,63.71,184a6,6,0,0,0-3,.74,5.36,5.36,0,0,0-2.07,2,6,6,0,0,0,0,5.78,5.36,5.36,0,0,0,2.07,2,6,6,0,0,0,3,.74,5.51,5.51,0,0,0,4.14-1.76l1.37,1.32a6.64,6.64,0,0,1-2.45,1.72,8.31,8.31,0,0,1-3.16.59A8.12,8.12,0,0,1,59.63,196.19Z"/><path class="cls-6" d="M79.37,186.9a4.38,4.38,0,0,1,1.23,3.38V197H78.69v-1.47a3.27,3.27,0,0,1-1.44,1.19,5.53,5.53,0,0,1-2.22.41,4.6,4.6,0,0,1-3-.91,3.1,3.1,0,0,1-.05-4.73,5.24,5.24,0,0,1,3.4-.9h3.19v-.39a2.59,2.59,0,0,0-.75-2,3.22,3.22,0,0,0-2.23-.69,6.06,6.06,0,0,0-1.93.32,5,5,0,0,0-1.6.88l-.84-1.52a6.27,6.27,0,0,1,2.06-1.06,8.81,8.81,0,0,1,2.54-.37A5,5,0,0,1,79.37,186.9Zm-2,8.16a3,3,0,0,0,1.22-1.46V192H75.47c-1.7,0-2.56.58-2.56,1.73a1.56,1.56,0,0,0,.65,1.32,3,3,0,0,0,1.81.48A3.75,3.75,0,0,0,77.36,195.06Z"/><path class="cls-6" d="M84.34,181.42h2V197h-2Z"/><path class="cls-6" d="M92,196.39a5.37,5.37,0,0,1-2.09-2,6.08,6.08,0,0,1,0-5.85,5.27,5.27,0,0,1,2.09-2,6.3,6.3,0,0,1,3-.73,5.89,5.89,0,0,1,2.69.61,4.31,4.31,0,0,1,1.84,1.77l-1.53,1a3.38,3.38,0,0,0-1.3-1.2,3.7,3.7,0,0,0-1.73-.4,4,4,0,0,0-2,.48,3.35,3.35,0,0,0-1.36,1.38,4.47,4.47,0,0,0,0,4.11,3.35,3.35,0,0,0,1.36,1.38,4,4,0,0,0,2,.48,3.7,3.7,0,0,0,1.73-.4,3.43,3.43,0,0,0,1.3-1.19l1.53,1a4.39,4.39,0,0,1-1.84,1.78,5.77,5.77,0,0,1-2.69.62A6.19,6.19,0,0,1,92,196.39Z"/><path class="cls-6" d="M112.56,185.87V197h-1.91v-1.68a4,4,0,0,1-1.61,1.33,4.93,4.93,0,0,1-2.17.48,4.86,4.86,0,0,1-3.51-1.23,4.81,4.81,0,0,1-1.28-3.62v-6.41h2V192a3.49,3.49,0,0,0,.77,2.45,2.92,2.92,0,0,0,2.23.83,3.31,3.31,0,0,0,2.52-1,3.76,3.76,0,0,0,.92-2.73v-5.75Z"/><path class="cls-6" d="M116.4,181.42h2V197h-2Z"/><path class="cls-6" d="M129.85,186.9a4.38,4.38,0,0,1,1.23,3.38V197h-1.91v-1.47a3.27,3.27,0,0,1-1.44,1.19,5.52,5.52,0,0,1-2.21.41,4.61,4.61,0,0,1-3-.91,2.88,2.88,0,0,1-1.12-2.37,2.92,2.92,0,0,1,1.07-2.36,5.24,5.24,0,0,1,3.4-.9h3.19v-.39a2.59,2.59,0,0,0-.75-2,3.22,3.22,0,0,0-2.23-.69,6.06,6.06,0,0,0-1.93.32,5,5,0,0,0-1.6.88l-.84-1.52a6.27,6.27,0,0,1,2.06-1.06,8.81,8.81,0,0,1,2.54-.37A5,5,0,0,1,129.85,186.9Zm-2,8.16a3,3,0,0,0,1.21-1.46V192H126c-1.71,0-2.57.58-2.57,1.73a1.54,1.54,0,0,0,.66,1.32,3,3,0,0,0,1.8.48A3.79,3.79,0,0,0,127.85,195.06Z"/><path class="cls-6" d="M141.08,196.35a3.24,3.24,0,0,1-1.09.58,4.74,4.74,0,0,1-1.35.2,3.52,3.52,0,0,1-2.6-.91,3.43,3.43,0,0,1-.93-2.58v-6.11h-1.89v-1.66h1.89v-2.44h2v2.44h3.19v1.66h-3.19v6a1.94,1.94,0,0,0,.45,1.38,1.68,1.68,0,0,0,1.29.48,2.44,2.44,0,0,0,1.58-.52Z"/><path class="cls-6" d="M144.92,196.39a5.31,5.31,0,0,1-2.07-2,6.15,6.15,0,0,1,0-5.85,5.22,5.22,0,0,1,2.07-2,6.14,6.14,0,0,1,3-.73,6.05,6.05,0,0,1,3,.73,5.2,5.2,0,0,1,2.06,2,6.08,6.08,0,0,1,0,5.85,5.29,5.29,0,0,1-2.06,2,6,6,0,0,1-3,.74A6,6,0,0,1,144.92,196.39Zm4.9-1.52a3.52,3.52,0,0,0,1.34-1.39,4.6,4.6,0,0,0,0-4.09,3.43,3.43,0,0,0-1.34-1.38,3.8,3.8,0,0,0-1.92-.48A3.85,3.85,0,0,0,146,188a3.36,3.36,0,0,0-1.34,1.38,4.43,4.43,0,0,0,0,4.09,3.45,3.45,0,0,0,1.34,1.39,3.76,3.76,0,0,0,1.92.49A3.71,3.71,0,0,0,149.82,194.87Z"/><path class="cls-6" d="M160,186.27a5.54,5.54,0,0,1,2.5-.51v2a3.11,3.11,0,0,0-.47,0,3.38,3.38,0,0,0-2.57,1,3.89,3.89,0,0,0-.93,2.79V197h-2V185.87h1.93v1.87A3.48,3.48,0,0,1,160,186.27Z"/></g></g><g id="calculator"><g id="Group_161" data-name="Group 161"><g id="Group_160" data-name="Group 160"><path id="Path_1369" data-name="Path 1369" class="cls-5" d="M138.83,40H78.54C74.38,40,71,43.82,71,48.52v79.95c0,4.71,3.38,8.53,7.54,8.53h60.29c4.15,0,7.53-3.82,7.53-8.53V48.52C146.36,43.82,143,40,138.83,40Zm2.51,88.47a2.71,2.71,0,0,1-2.51,2.85H78.54A2.71,2.71,0,0,1,76,128.47V48.52a2.7,2.7,0,0,1,2.52-2.84h60.29a2.7,2.7,0,0,1,2.51,2.84Z"/></g></g><g id="Group_163" data-name="Group 163"><g id="Group_162" data-name="Group 162"><path id="Path_1370" data-name="Path 1370" class="cls-5" d="M133.8,51.37H83.56a2.68,2.68,0,0,0-2.51,2.84V77.32a2.69,2.69,0,0,0,2.51,2.85H133.8a2.69,2.69,0,0,0,2.51-2.85V54.21A2.68,2.68,0,0,0,133.8,51.37Zm-2.51,23.11H86.07V57.05h45.22Z"/></g></g><g id="Group_165" data-name="Group 165"><g id="Group_164" data-name="Group 164"><path id="Path_1371" data-name="Path 1371" class="cls-5" d="M93.61,85.85h-10a2.68,2.68,0,0,0-2.51,2.84v11.37a2.69,2.69,0,0,0,2.51,2.84h10a2.7,2.7,0,0,0,2.51-2.84V88.69A2.68,2.68,0,0,0,93.61,85.85ZM91.1,97.22h-5V91.53h5Z"/></g></g><g id="Group_167" data-name="Group 167"><g id="Group_166" data-name="Group 166"><path id="Path_1372" data-name="Path 1372" class="cls-5" d="M93.61,108.58h-10a2.69,2.69,0,0,0-2.51,2.84v11.37a2.68,2.68,0,0,0,2.51,2.84h10a2.68,2.68,0,0,0,2.51-2.84V111.42A2.7,2.7,0,0,0,93.61,108.58ZM91.1,120h-5v-5.68h5Z"/></g></g><g id="Group_169" data-name="Group 169"><g id="Group_168" data-name="Group 168"><path id="Path_1373" data-name="Path 1373" class="cls-5" d="M113.71,85.85h-10a2.68,2.68,0,0,0-2.51,2.84v11.37a2.69,2.69,0,0,0,2.51,2.84h10a2.7,2.7,0,0,0,2.52-2.84V88.69A2.69,2.69,0,0,0,113.71,85.85Zm-2.52,11.37h-5V91.53h5Z"/></g></g><g id="Group_171" data-name="Group 171"><g id="Group_170" data-name="Group 170"><path id="Path_1374" data-name="Path 1374" class="cls-5" d="M113.71,108.58h-10a2.69,2.69,0,0,0-2.51,2.84v11.37a2.68,2.68,0,0,0,2.51,2.84h10a2.69,2.69,0,0,0,2.52-2.84V111.42A2.7,2.7,0,0,0,113.71,108.58ZM111.19,120h-5v-5.68h5Z"/></g></g><g id="Group_173" data-name="Group 173"><g id="Group_172" data-name="Group 172"><path id="Path_1375" data-name="Path 1375" class="cls-5" d="M133.8,85.85H123.75a2.69,2.69,0,0,0-2.51,2.84v34.1a2.69,2.69,0,0,0,2.51,2.84H133.8a2.68,2.68,0,0,0,2.51-2.84V88.69A2.68,2.68,0,0,0,133.8,85.85ZM131.29,120h-5V91.53h5Z"/></g></g></g></g></g></g></svg>