<svg xmlns="http://www.w3.org/2000/svg" viewBox="0 0 377.6 288.5"><defs><style>.cls-1{fill:#f0b044;}.cls-2{fill:#f0a424;}.cls-3{fill:#081e00;}.cls-4{fill:#d19406;}.cls-5{fill:#004733;}.cls-6{fill:#45e0be;opacity:0.5;}.cls-7{fill:#103b00;}.cls-8{fill:#173205;}.cls-8,.cls-9{fill-rule:evenodd;}.cls-11,.cls-12,.cls-22,.cls-9{fill:#f0f9f8;}.cls-10{fill:#0f3800;}.cls-12{opacity:0.1;}.cls-13{fill:#eba606;}.cls-14{fill:#009e71;}.cls-15{fill:#006b4b;}.cls-16{fill:#f7c530;}.cls-17{fill:#006347;}.cls-18{fill:#3ab4db;}.cls-19{fill:#00573c;}.cls-20{fill:#fff;}.cls-21{fill:#de9d06;}.cls-22{opacity:0.2;}.cls-23{fill:#fdab33;}.cls-24{fill:none;stroke:#000;stroke-miterlimit:10;stroke-width:0.5px;}</style></defs><title>Three_wheelers_2</title><g id="Layer_2" data-name="Layer 2"><g id="OBJECTS"><rect class="cls-1" x="290.42" y="118.42" width="7" height="20.79"/><rect class="cls-2" x="290.42" y="118.42" width="7" height="13.79"/><rect class="cls-3" x="300.48" y="158.29" width="1.09" height="8.03"/><path class="cls-4" d="M281.87,82.75v26.48H230.23V73.56A15.54,15.54,0,0,0,214.69,58H119.13l1.31-1.83a40.94,40.94,0,0,1,33.2-17h84.68A43.48,43.48,0,0,1,249,40.53a43,43,0,0,1,10,3.93,43.54,43.54,0,0,1,22.8,38.29Z"/><path class="cls-5" d="M281.87,109.23v47.53h-4.69a10.26,10.26,0,0,1-9.16-5.92l-1.49-3a4.36,4.36,0,0,0-3.87-2.49H237.58a4.36,4.36,0,0,0-4,2.67l-4.49,10.19a10.32,10.32,0,0,1-9.36,6.35H212V137a23.35,23.35,0,0,1,6.89-16.71l11.37-11.09Z"/><rect class="cls-6" x="190.37" y="54.52" width="4.44" height="44.86"/><path class="cls-7" d="M237.15,166.4h62.5a1.4,1.4,0,0,0,1.4-1.4v-5.31a1.4,1.4,0,0,0-1.4-1.4H283.1l-9.19-10.15L250.36,146Z"/><path class="cls-8" d="M188.86,127.5v9.08h-30.1a1.73,1.73,0,0,1-1.61-2.34A10.52,10.52,0,0,1,167,127.5Z"/><polygon class="cls-9" points="189.39 164.53 158.7 164.53 158.81 163.51 161.98 136.58 188.86 136.58 189.36 163.27 189.39 164.53"/><polygon class="cls-5" points="194.8 95.44 194.8 165.94 180.02 166.32 180.2 164.53 180.31 163.47 183.05 136.58 183.98 127.5 187.25 95.44 194.8 95.44"/><ellipse class="cls-3" cx="95.78" cy="171.21" rx="18.3" ry="19.23" transform="translate(-89.1 236.81) rotate(-80.31)"/><ellipse class="cls-10" cx="95.78" cy="171.21" rx="12.9" ry="13.55" transform="translate(-89.1 236.81) rotate(-80.31)"/><path class="cls-11" d="M90.75,171.21a5,5,0,0,0,5.12,4.8,4.82,4.82,0,0,0,4.95-4.8,5,5,0,0,0-5.12-4.81A4.82,4.82,0,0,0,90.75,171.21Z"/><path class="cls-5" d="M105.52,139.2s-14.68.32-21,6.13c-8.78,8.07-7.93,16.6-7.93,16.6s35.22,6,43.73,2.77Z"/><path class="cls-12" d="M104.14,140.53c-5.26,1.05-10.51,2.65-14.93,5.68s-8,7.65-8.74,13c3.2.73,6.4.9,9.59,1.63-.26-1.13.83-2.19,1.36-3.23a37.18,37.18,0,0,1,6-9,17.92,17.92,0,0,1,9.26-5.4A4.83,4.83,0,0,0,104.14,140.53Z"/><ellipse class="cls-3" cx="263.9" cy="171.21" rx="18.3" ry="19.23" transform="translate(50.71 402.52) rotate(-80.31)"/><ellipse class="cls-10" cx="263.9" cy="171.21" rx="12.9" ry="13.55" transform="translate(50.71 402.52) rotate(-80.31)"/><path class="cls-11" d="M258.86,171.21A5,5,0,0,0,264,176a4.82,4.82,0,0,0,4.95-4.8,5,5,0,0,0-5.11-4.81A4.83,4.83,0,0,0,258.86,171.21Z"/><path class="cls-13" d="M293.61,82.75v26.48H242V73.56A15.53,15.53,0,0,0,226.43,58H119.85l1.32-1.83a40.93,40.93,0,0,1,33.2-17h95.69A43.55,43.55,0,0,1,293.61,82.75Z"/><path class="cls-14" d="M293.61,109.23v52.7h-7.32a10.36,10.36,0,0,1-9.16-5.53l-1.5-2.83a4.36,4.36,0,0,0-3.86-2.33H253.26a4.37,4.37,0,0,0-3.95,2.5l-4.49,9.51a10.36,10.36,0,0,1-9.36,5.93H223.7v-34a21.1,21.1,0,0,1,6.89-15.6L242,109.23Z"/><path class="cls-15" d="M293.61,109.23V153.6h-4.7a10.36,10.36,0,0,1-9.16-5.52l-1.49-2.83a4.36,4.36,0,0,0-3.86-2.33H249.31a4.35,4.35,0,0,0-3.94,2.5l-4.49,9.51a10.36,10.36,0,0,1-9.37,5.93H223.7V135.18a21.1,21.1,0,0,1,6.89-15.6L242,109.23Z"/><path class="cls-16" d="M144.84,58s-14.29,16.19-14.29,49.45H95.78a81.21,81.21,0,0,1,2-9.19c.15-.54.31-1.11.48-1.69.71-2.45,1.61-5.21,2.74-8.16.13-.37.28-.74.42-1.11s.3-.74.45-1.12.31-.75.47-1.13.27-.63.41-1l.4-.93c.43-.94.87-1.9,1.33-2.87l.54-1.09.33-.65.48-1c1.34-2.56,2.85-5.17,4.55-7.77l.74-1.1.49-.71c.2-.3.41-.6.63-.89s.36-.51.54-.76l.57-.77,1-1.26.86-1.08c.24-.29.47-.58.72-.87,1.24-1.49,2.55-3,3.94-4.38Z"/><path class="cls-17" d="M223.7,161.93v7.25H131.07a22.55,22.55,0,0,1-12.77-4,22.86,22.86,0,0,1-5.92-5.89,96.63,96.63,0,0,1-10.52-19.88c-.82-2.1-1.59-4.32-2.29-6.61a88.81,88.81,0,0,1-2.75-12.06q-.66-4.22-.92-8.72l-.06-1.45q-.06-1.56-.06-3.15h34.77s-.05,1.16-.1,3.15c0,.44,0,.92,0,1.45-.22,12.57.14,46.8,10.26,49.86,3.1.94,9.8,1.4,18.12,1.58,6.5.14,14,.1,21.5,0,3-.05,6.07-.12,9.05-.2l5.44-.15c6.4-.21,12.35-.44,17.16-.64C219.06,162.18,223.7,161.93,223.7,161.93Z"/><path class="cls-5" d="M129.29,72.49l-6.15,16.8a13.7,13.7,0,0,1-12.86,9H97.8c.15-.54.31-1.11.48-1.69,2.59-8.9,7.62-21.84,16.91-33.32.24-.29.47-.58.72-.87h6.32A7.51,7.51,0,0,1,129.29,72.49Z"/><path class="cls-18" d="M127.55,72.65l-6,15.6a13,13,0,0,1-7,7.16,14.06,14.06,0,0,1-3.87,1.07h0a14.79,14.79,0,0,1-1.78.11H98.28c2.59-8.9,7.62-21.84,16.91-33.32h5.44a7.53,7.53,0,0,1,3.75,1,7.11,7.11,0,0,1,2.31,2,6.43,6.43,0,0,1,.88,1.63A6.52,6.52,0,0,1,127.55,72.65Z"/><path class="cls-6" d="M124.38,64.24l-17,32.35H99.27l20.38-33.32h1A7.53,7.53,0,0,1,124.38,64.24Z"/><path class="cls-6" d="M127.57,67.91l-13,27.5a14.06,14.06,0,0,1-3.87,1.07c2.68-5,13.79-26,16-30.2A6.43,6.43,0,0,1,127.57,67.91Z"/><path class="cls-19" d="M279.16,121H241.74a1.31,1.31,0,0,1-1.31-1.31h0a1.31,1.31,0,0,1,1.31-1.31h37.42a1.31,1.31,0,0,1,1.32,1.31h0A1.32,1.32,0,0,1,279.16,121Z"/><path class="cls-19" d="M279.16,130.12h-44a1.31,1.31,0,0,1-1.31-1.31h0a1.31,1.31,0,0,1,1.31-1.31h44a1.32,1.32,0,0,1,1.32,1.31h0A1.31,1.31,0,0,1,279.16,130.12Z"/><path class="cls-19" d="M279.16,139.2H228.6a1.31,1.31,0,0,1-1.31-1.31h0a1.31,1.31,0,0,1,1.31-1.31h50.56a1.32,1.32,0,0,1,1.32,1.31h0A1.31,1.31,0,0,1,279.16,139.2Z"/><path class="cls-2" d="M95.23,120.6v13.79a6.9,6.9,0,0,0,0-13.79Z"/><path class="cls-20" d="M95,120.6h.18a0,0,0,0,1,0,0v13.79a0,0,0,0,1,0,0H95a3.11,3.11,0,0,1-3.11-3.11v-7.56A3.11,3.11,0,0,1,95,120.6Z"/><path class="cls-21" d="M143.27,42.83s3.72-2.3,11.23-2.3h98.56c5.95,0,11.12,1.66,12.51,4h0Z"/><polygon class="cls-5" points="116.04 137.11 117.83 137.11 117.83 148.04 116.49 148.04 116.04 137.11"/><polygon class="cls-5" points="119.42 137.11 121.21 137.11 121.21 148.04 119.9 148.04 119.42 137.11"/><polygon class="cls-5" points="122.79 137.11 124.58 137.11 124.58 148.04 123.14 148.04 122.79 137.11"/><path class="cls-22" d="M158.92,116.59a24.26,24.26,0,0,0,9.81-1.62,15.26,15.26,0,0,1,5.12-1.36c-3.15,3.6-7.71,5.68-12.32,7a14.67,14.67,0,0,1-7.56.53,8.71,8.71,0,0,1-3.95-2.79c-1.65-2-2-4.49,1.1-4.24C153.81,114.3,156.2,116.41,158.92,116.59Z"/><path class="cls-23" d="M196.62,43.26a2.4,2.4,0,0,0,.76,1.61.81.81,0,0,0,.69.26.82.82,0,0,0,.48-.5c.35-.8.59-3.62-.64-3.79C196.5,40.64,196.52,42.36,196.62,43.26Z"/><path class="cls-23" d="M198.16,43.11a2.33,2.33,0,0,0,.75,1.61.78.78,0,0,0,.69.26.8.8,0,0,0,.48-.5c.35-.8.6-3.61-.64-3.79C198,40.49,198.05,42.21,198.16,43.11Z"/><path class="cls-23" d="M199.49,43.06a2.35,2.35,0,0,0,.75,1.6.79.79,0,0,0,.69.27.81.81,0,0,0,.49-.5c.35-.8.59-3.62-.65-3.79C199.36,40.44,199.39,42.16,199.49,43.06Z"/><path class="cls-23" d="M201.11,43.27a2.37,2.37,0,0,0,.75,1.6.66.66,0,0,0,1.18-.24c.35-.8.59-3.61-.65-3.79C201,40.64,201,42.36,201.11,43.27Z"/><path class="cls-5" d="M130.45,110.62c0,.44,0,.92,0,1.45H95.9l-.06-1.45Z"/><rect class="cls-24" x="0.25" y="0.25" width="377.1" height="288" rx="22.28"/><path d="M63.56,223.75H53.8v26.89H48.41V223.75H38.74v-4.39H63.56Z"/><path d="M72.3,229.93a8.2,8.2,0,0,1,6.47-3q7.42,0,7.54,8.49v15.18H81.09v-15a4.62,4.62,0,0,0-1-3.41,4.3,4.3,0,0,0-3.06-1A5,5,0,0,0,72.3,234v16.6H67.08v-33H72.3Z"/><path d="M103.76,232.17a12.42,12.42,0,0,0-2.13-.17c-2.39,0-4,.91-4.84,2.75v15.89H91.57V227.4h5l.13,2.6a5.87,5.87,0,0,1,5.24-3,4.94,4.94,0,0,1,1.85.3Z"/><path d="M116.88,251.07a10.79,10.79,0,0,1-8-3.12,11.34,11.34,0,0,1-3.09-8.33V239a13.87,13.87,0,0,1,1.35-6.22,10.18,10.18,0,0,1,3.77-4.27,10,10,0,0,1,5.41-1.52,9.13,9.13,0,0,1,7.34,3c1.72,2,2.59,4.87,2.59,8.57v2.11H111a7,7,0,0,0,1.92,4.55,5.76,5.76,0,0,0,4.24,1.68A7.1,7.1,0,0,0,123,244l2.81,2.68a9.3,9.3,0,0,1-3.73,3.23A11.58,11.58,0,0,1,116.88,251.07Zm-.62-19.91a4.4,4.4,0,0,0-3.47,1.5,7.88,7.88,0,0,0-1.69,4.19h10v-.39a6.31,6.31,0,0,0-1.4-4A4.35,4.35,0,0,0,116.26,231.16Z"/><path d="M140.49,251.07a10.8,10.8,0,0,1-8-3.12,11.34,11.34,0,0,1-3.09-8.33V239a13.87,13.87,0,0,1,1.35-6.22,10.18,10.18,0,0,1,3.77-4.27,10,10,0,0,1,5.41-1.52,9.13,9.13,0,0,1,7.34,3c1.72,2,2.59,4.87,2.59,8.57v2.11H134.63a7,7,0,0,0,1.92,4.55,5.77,5.77,0,0,0,4.24,1.68,7.09,7.09,0,0,0,5.85-2.9l2.81,2.68a9.34,9.34,0,0,1-3.72,3.23A11.66,11.66,0,0,1,140.49,251.07Zm-.62-19.91a4.4,4.4,0,0,0-3.47,1.5,7.88,7.88,0,0,0-1.69,4.19h9.95v-.39a6.37,6.37,0,0,0-1.39-4A4.39,4.39,0,0,0,139.87,231.16Z"/><path d="M189.86,242.91l4.82-23.55h5.39l-7.22,31.28h-5.2l-6-22.83-6.08,22.83H170.4l-7.22-31.28h5.39l4.86,23.51,6-23.51H184Z"/><path d="M208.68,229.93a8.2,8.2,0,0,1,6.47-3q7.44,0,7.54,8.49v15.18h-5.22v-15a4.62,4.62,0,0,0-1-3.41,4.3,4.3,0,0,0-3.06-1,5.06,5.06,0,0,0-4.69,2.8v16.6h-5.22v-33h5.22Z"/><path d="M238.2,251.07a10.8,10.8,0,0,1-8-3.12,11.34,11.34,0,0,1-3.09-8.33V239a13.87,13.87,0,0,1,1.35-6.22,10.18,10.18,0,0,1,3.77-4.27A10,10,0,0,1,237.6,227a9.13,9.13,0,0,1,7.34,3c1.72,2,2.59,4.87,2.59,8.57v2.11H232.34a7,7,0,0,0,1.92,4.55,5.77,5.77,0,0,0,4.24,1.68,7.09,7.09,0,0,0,5.85-2.9l2.81,2.68a9.34,9.34,0,0,1-3.72,3.23A11.66,11.66,0,0,1,238.2,251.07Zm-.62-19.91a4.4,4.4,0,0,0-3.47,1.5,7.88,7.88,0,0,0-1.69,4.19h10v-.39a6.37,6.37,0,0,0-1.39-4A4.39,4.39,0,0,0,237.58,231.16Z"/><path d="M261.81,251.07a10.8,10.8,0,0,1-8-3.12,11.33,11.33,0,0,1-3.08-8.33V239a13.87,13.87,0,0,1,1.34-6.22,10.18,10.18,0,0,1,3.77-4.27,10,10,0,0,1,5.41-1.52,9.13,9.13,0,0,1,7.34,3c1.73,2,2.59,4.87,2.59,8.57v2.11H256a7,7,0,0,0,1.92,4.55,5.78,5.78,0,0,0,4.25,1.68A7.07,7.07,0,0,0,268,244l2.81,2.68a9.34,9.34,0,0,1-3.72,3.23A11.66,11.66,0,0,1,261.81,251.07Zm-.62-19.91a4.4,4.4,0,0,0-3.47,1.5,7.8,7.8,0,0,0-1.68,4.19H266v-.39a6.37,6.37,0,0,0-1.39-4A4.39,4.39,0,0,0,261.19,231.16Z"/><path d="M280.74,250.64h-5.22v-33h5.22Z"/><path d="M296.66,251.07a10.79,10.79,0,0,1-8-3.12,11.34,11.34,0,0,1-3.09-8.33V239a13.87,13.87,0,0,1,1.35-6.22,10.18,10.18,0,0,1,3.77-4.27,10,10,0,0,1,5.41-1.52,9.13,9.13,0,0,1,7.34,3c1.72,2,2.59,4.87,2.59,8.57v2.11H290.8a7,7,0,0,0,1.92,4.55,5.76,5.76,0,0,0,4.24,1.68,7.09,7.09,0,0,0,5.85-2.9l2.81,2.68a9.3,9.3,0,0,1-3.73,3.23A11.58,11.58,0,0,1,296.66,251.07ZM296,231.16a4.4,4.4,0,0,0-3.47,1.5,7.88,7.88,0,0,0-1.69,4.19h9.95v-.39a6.31,6.31,0,0,0-1.4-4A4.35,4.35,0,0,0,296,231.16Z"/><path d="M322.21,232.17a12.42,12.42,0,0,0-2.13-.17c-2.39,0-4,.91-4.83,2.75v15.89H310V227.4h5l.13,2.6a5.88,5.88,0,0,1,5.24-3,4.9,4.9,0,0,1,1.85.3Z"/><path d="M338.54,244.33a2.39,2.39,0,0,0-1.15-2.13,12.39,12.39,0,0,0-3.82-1.29,19,19,0,0,1-4.44-1.42q-3.92-1.89-3.91-5.47a6.17,6.17,0,0,1,2.53-5,10,10,0,0,1,6.45-2,10.45,10.45,0,0,1,6.73,2.06,6.56,6.56,0,0,1,2.57,5.35h-5.22a3.22,3.22,0,0,0-1.12-2.5,4.25,4.25,0,0,0-3-1,4.63,4.63,0,0,0-2.81.79,2.51,2.51,0,0,0-1.08,2.13,2.1,2.1,0,0,0,1,1.87A13.92,13.92,0,0,0,335.4,237a19.39,19.39,0,0,1,4.82,1.61,6.87,6.87,0,0,1,2.6,2.25,5.67,5.67,0,0,1,.85,3.18,6.07,6.07,0,0,1-2.6,5.08,11,11,0,0,1-6.81,1.94,12,12,0,0,1-5.09-1,8.33,8.33,0,0,1-3.48-2.83,6.74,6.74,0,0,1-1.25-3.89h5.07a3.69,3.69,0,0,0,1.4,2.85,5.46,5.46,0,0,0,3.41,1,5.31,5.31,0,0,0,3.14-.78A2.42,2.42,0,0,0,338.54,244.33Z"/></g></g></svg>