<svg xmlns="http://www.w3.org/2000/svg" viewBox="0 0 218 218"><defs><style>.cls-1{fill:#fff;}.cls-2,.cls-3,.cls-6{fill:none;stroke:#2d677a;}.cls-2{stroke-width:4px;}.cls-3{stroke-miterlimit:10;stroke-width:3px;}.cls-4{isolation:isolate;}.cls-5{fill:#2d677a;}</style></defs><title>why choose ev</title><g id="Layer_2" data-name="Layer 2"><g id="Component_6_1" data-name="Component 6 1"><rect class="cls-1" width="218" height="218" rx="33"/><rect class="cls-2" x="2" y="2" width="214" height="214" rx="31"/><g id="Layer_1-2" data-name="Layer 1"><circle id="Ellipse_25" data-name="Ellipse 25" class="cls-3" cx="109" cy="88.24" r="55"/><g id="_" data-name=" " class="cls-4"><g class="cls-4"><path class="cls-5" d="M105.49,94.85a18.53,18.53,0,0,1,3.3-5.15q2-2.1,5.15-5a41.75,41.75,0,0,0,5.9-6,10,10,0,0,0,1.9-6.15,9.45,9.45,0,0,0-3.8-7.85q-3.8-3-10.5-3-11.7,0-17.9,7.9l-7.3-5.2A27.37,27.37,0,0,1,93,56.1a37.19,37.19,0,0,1,15.15-2.9q10.9,0,17.3,4.75a15.36,15.36,0,0,1,6.4,13,18.28,18.28,0,0,1-1.35,7.25,18.69,18.69,0,0,1-3.25,5.25q-1.9,2.1-5.1,5a40.74,40.74,0,0,0-6,6.5,11.79,11.79,0,0,0-2,6.9h-10A17.25,17.25,0,0,1,105.49,94.85Zm-.9,27.9a6.52,6.52,0,0,1,0-9.1,6.31,6.31,0,0,1,4.65-1.85,6.15,6.15,0,0,1,4.6,1.85,6.27,6.27,0,0,1,1.8,4.55,6.32,6.32,0,0,1-6.4,6.4A6.31,6.31,0,0,1,104.59,122.75Z"/></g></g></g><g class="cls-4"><path class="cls-5" d="M42,170.3,37.06,185H34.85l-4-11.74-4,11.74H24.59l-4.92-14.7h2.16l4,11.95,4.14-11.95h1.93l4.06,12,4-12Z"/><path class="cls-5" d="M53.87,175a4.85,4.85,0,0,1,1.25,3.6V185h-2v-6.17a3.47,3.47,0,0,0-.77-2.44,2.91,2.91,0,0,0-2.23-.82,3.46,3.46,0,0,0-2.58,1,3.72,3.72,0,0,0-1,2.74V185h-2V169.42h2v6a4.05,4.05,0,0,1,1.65-1.24,5.59,5.59,0,0,1,2.28-.45A4.6,4.6,0,0,1,53.87,175Z"/><path class="cls-5" d="M68.5,173.87l-5.4,12.24a5.57,5.57,0,0,1-1.67,2.4,3.82,3.82,0,0,1-2.3.69,4.94,4.94,0,0,1-1.58-.26,3.27,3.27,0,0,1-1.28-.77l.87-1.51a2.78,2.78,0,0,0,2,.82,1.93,1.93,0,0,0,1.23-.39,3.23,3.23,0,0,0,.89-1.33l.36-.78-4.92-11.11h2.1l3.89,8.9,3.84-8.9Z"/><path class="cls-5" d="M78.92,184.19a7.19,7.19,0,0,1-2.78-2.69,7.84,7.84,0,0,1,0-7.7,7.15,7.15,0,0,1,2.79-2.69,8.71,8.71,0,0,1,7.14-.4,6.39,6.39,0,0,1,2.44,1.71l-1.37,1.32A5.46,5.46,0,0,0,83,172a6,6,0,0,0-3,.74,5.23,5.23,0,0,0-2.07,2,5.94,5.94,0,0,0,0,5.78,5.23,5.23,0,0,0,2.07,2,6,6,0,0,0,3,.74,5.49,5.49,0,0,0,4.13-1.76l1.37,1.32a6.56,6.56,0,0,1-2.45,1.72,8.31,8.31,0,0,1-3.16.59A8.15,8.15,0,0,1,78.92,184.19Z"/><path class="cls-5" d="M100.53,175a4.85,4.85,0,0,1,1.25,3.6V185h-2v-6.17a3.42,3.42,0,0,0-.78-2.44,2.91,2.91,0,0,0-2.23-.82,3.46,3.46,0,0,0-2.58,1,3.72,3.72,0,0,0-1,2.74V185h-2V169.42h2v6a4.05,4.05,0,0,1,1.65-1.24,5.59,5.59,0,0,1,2.28-.45A4.58,4.58,0,0,1,100.53,175Z"/><path class="cls-5" d="M107.37,184.39a5.31,5.31,0,0,1-2.07-2,6.08,6.08,0,0,1,0-5.85,5.22,5.22,0,0,1,2.07-2,6.12,6.12,0,0,1,3-.73,6.05,6.05,0,0,1,3,.73,5.2,5.2,0,0,1,2.06,2,6.08,6.08,0,0,1,0,5.85,5.29,5.29,0,0,1-2.06,2,6,6,0,0,1-3,.74A6,6,0,0,1,107.37,184.39Zm4.9-1.52a3.43,3.43,0,0,0,1.33-1.39,4.51,4.51,0,0,0,0-4.09,3.34,3.34,0,0,0-1.33-1.38,4.08,4.08,0,0,0-3.84,0,3.45,3.45,0,0,0-1.35,1.38,4.51,4.51,0,0,0,0,4.09,3.54,3.54,0,0,0,1.35,1.39,4,4,0,0,0,3.84,0Z"/><path class="cls-5" d="M120.7,184.39a5.31,5.31,0,0,1-2.07-2,6.15,6.15,0,0,1,0-5.85,5.22,5.22,0,0,1,2.07-2,6.45,6.45,0,0,1,6,0,5.17,5.17,0,0,1,2.05,2,6.08,6.08,0,0,1,0,5.85,5.26,5.26,0,0,1-2.05,2,6.37,6.37,0,0,1-6,0Zm4.91-1.52a3.49,3.49,0,0,0,1.33-1.39,4.6,4.6,0,0,0,0-4.09,3.4,3.4,0,0,0-1.33-1.38,4.1,4.1,0,0,0-3.85,0,3.49,3.49,0,0,0-1.34,1.38,4.51,4.51,0,0,0,0,4.09,3.59,3.59,0,0,0,1.34,1.39,4,4,0,0,0,3.85,0Z"/><path class="cls-5" d="M132.82,184.76a5.74,5.74,0,0,1-2-.94l.84-1.59a6,6,0,0,0,1.78.84,7.35,7.35,0,0,0,2.12.31c1.77,0,2.65-.5,2.65-1.51a1,1,0,0,0-.36-.8,2.38,2.38,0,0,0-.89-.43q-.54-.13-1.53-.3a15.43,15.43,0,0,1-2.19-.48,3.42,3.42,0,0,1-1.46-.93,2.59,2.59,0,0,1-.61-1.83,2.86,2.86,0,0,1,1.26-2.42,5.64,5.64,0,0,1,3.38-.92,9.46,9.46,0,0,1,2.23.28,6,6,0,0,1,1.83.73l-.86,1.6a5.8,5.8,0,0,0-3.22-.88,3.72,3.72,0,0,0-1.95.42,1.26,1.26,0,0,0-.67,1.11,1,1,0,0,0,.38.86,2.26,2.26,0,0,0,.93.46c.37.1.89.21,1.56.34a17.08,17.08,0,0,1,2.18.49,3.29,3.29,0,0,1,1.42.9,2.48,2.48,0,0,1,.58,1.76,2.77,2.77,0,0,1-1.29,2.4,6.05,6.05,0,0,1-3.52.9A9.48,9.48,0,0,1,132.82,184.76Z"/><path class="cls-5" d="M152.79,180.11h-9a3.51,3.51,0,0,0,1.29,2.36,4.25,4.25,0,0,0,2.74.89A4.14,4.14,0,0,0,151,182l1.12,1.3a4.8,4.8,0,0,1-1.88,1.34,6.53,6.53,0,0,1-2.51.47,6.6,6.6,0,0,1-3.13-.73,5.2,5.2,0,0,1-2.11-2,5.8,5.8,0,0,1-.75-2.95,5.9,5.9,0,0,1,.73-2.91,5.18,5.18,0,0,1,2-2,5.75,5.75,0,0,1,2.87-.73,5.65,5.65,0,0,1,2.85.73,5.08,5.08,0,0,1,1.95,2,6.13,6.13,0,0,1,.7,3A5.25,5.25,0,0,1,152.79,180.11Zm-7.89-3.76a3.56,3.56,0,0,0-1.14,2.31h7.14a3.55,3.55,0,0,0-1.14-2.3,3.78,3.78,0,0,0-4.86,0Z"/><path class="cls-5" d="M172.24,183.17V185H161.57V170.3h10.37v1.83h-8.27v4.51H171v1.79h-7.37v4.74Z"/><path class="cls-5" d="M188.2,170.3,181.75,185h-2.08l-6.47-14.7h2.27l5.29,12.08,5.34-12.08Z"/><path class="cls-5" d="M193.25,178.88a3.85,3.85,0,0,1,.69-1.08,13.94,13.94,0,0,1,1.08-1.05,9.44,9.44,0,0,0,1.24-1.27,2.1,2.1,0,0,0,.4-1.3,2,2,0,0,0-.8-1.64,3.47,3.47,0,0,0-2.2-.62,4.47,4.47,0,0,0-3.76,1.66l-1.54-1.1a5.85,5.85,0,0,1,2.26-1.74,7.74,7.74,0,0,1,3.18-.61,6,6,0,0,1,3.64,1,3.23,3.23,0,0,1,1.34,2.74,3.82,3.82,0,0,1-.28,1.52,4,4,0,0,1-.69,1.11,13.71,13.71,0,0,1-1.07,1,9.25,9.25,0,0,0-1.27,1.37,2.5,2.5,0,0,0-.41,1.45H193A3.62,3.62,0,0,1,193.25,178.88Zm-.19,5.86a1.3,1.3,0,0,1-.39-1,1.28,1.28,0,0,1,.39-.95,1.31,1.31,0,0,1,1-.39,1.28,1.28,0,0,1,1,.39,1.36,1.36,0,0,1-1.94,1.91Z"/></g><g class="cls-4"><path class="cls-6" d="M42,170.3,37.06,185H34.85l-4-11.74-4,11.74H24.59l-4.92-14.7h2.16l4,11.95,4.14-11.95h1.93l4.06,12,4-12Z"/><path class="cls-6" d="M53.87,175a4.85,4.85,0,0,1,1.25,3.6V185h-2v-6.17a3.47,3.47,0,0,0-.77-2.44,2.91,2.91,0,0,0-2.23-.82,3.46,3.46,0,0,0-2.58,1,3.72,3.72,0,0,0-1,2.74V185h-2V169.42h2v6a4.05,4.05,0,0,1,1.65-1.24,5.59,5.59,0,0,1,2.28-.45A4.6,4.6,0,0,1,53.87,175Z"/><path class="cls-6" d="M68.5,173.87l-5.4,12.24a5.57,5.57,0,0,1-1.67,2.4,3.82,3.82,0,0,1-2.3.69,4.94,4.94,0,0,1-1.58-.26,3.27,3.27,0,0,1-1.28-.77l.87-1.51a2.78,2.78,0,0,0,2,.82,1.93,1.93,0,0,0,1.23-.39,3.23,3.23,0,0,0,.89-1.33l.36-.78-4.92-11.11h2.1l3.89,8.9,3.84-8.9Z"/><path class="cls-6" d="M78.92,184.19a7.19,7.19,0,0,1-2.78-2.69,7.84,7.84,0,0,1,0-7.7,7.15,7.15,0,0,1,2.79-2.69,8.71,8.71,0,0,1,7.14-.4,6.39,6.39,0,0,1,2.44,1.71l-1.37,1.32A5.46,5.46,0,0,0,83,172a6,6,0,0,0-3,.74,5.23,5.23,0,0,0-2.07,2,5.94,5.94,0,0,0,0,5.78,5.23,5.23,0,0,0,2.07,2,6,6,0,0,0,3,.74,5.49,5.49,0,0,0,4.13-1.76l1.37,1.32a6.56,6.56,0,0,1-2.45,1.72,8.31,8.31,0,0,1-3.16.59A8.15,8.15,0,0,1,78.92,184.19Z"/><path class="cls-6" d="M100.53,175a4.85,4.85,0,0,1,1.25,3.6V185h-2v-6.17a3.42,3.42,0,0,0-.78-2.44,2.91,2.91,0,0,0-2.23-.82,3.46,3.46,0,0,0-2.58,1,3.72,3.72,0,0,0-1,2.74V185h-2V169.42h2v6a4.05,4.05,0,0,1,1.65-1.24,5.59,5.59,0,0,1,2.28-.45A4.58,4.58,0,0,1,100.53,175Z"/><path class="cls-6" d="M107.37,184.39a5.31,5.31,0,0,1-2.07-2,6.08,6.08,0,0,1,0-5.85,5.22,5.22,0,0,1,2.07-2,6.12,6.12,0,0,1,3-.73,6.05,6.05,0,0,1,3,.73,5.2,5.2,0,0,1,2.06,2,6.08,6.08,0,0,1,0,5.85,5.29,5.29,0,0,1-2.06,2,6,6,0,0,1-3,.74A6,6,0,0,1,107.37,184.39Zm4.9-1.52a3.43,3.43,0,0,0,1.33-1.39,4.51,4.51,0,0,0,0-4.09,3.34,3.34,0,0,0-1.33-1.38,4.08,4.08,0,0,0-3.84,0,3.45,3.45,0,0,0-1.35,1.38,4.51,4.51,0,0,0,0,4.09,3.54,3.54,0,0,0,1.35,1.39,4,4,0,0,0,3.84,0Z"/><path class="cls-6" d="M120.7,184.39a5.31,5.31,0,0,1-2.07-2,6.15,6.15,0,0,1,0-5.85,5.22,5.22,0,0,1,2.07-2,6.45,6.45,0,0,1,6,0,5.17,5.17,0,0,1,2.05,2,6.08,6.08,0,0,1,0,5.85,5.26,5.26,0,0,1-2.05,2,6.37,6.37,0,0,1-6,0Zm4.91-1.52a3.49,3.49,0,0,0,1.33-1.39,4.6,4.6,0,0,0,0-4.09,3.4,3.4,0,0,0-1.33-1.38,4.1,4.1,0,0,0-3.85,0,3.49,3.49,0,0,0-1.34,1.38,4.51,4.51,0,0,0,0,4.09,3.59,3.59,0,0,0,1.34,1.39,4,4,0,0,0,3.85,0Z"/><path class="cls-6" d="M132.82,184.76a5.74,5.74,0,0,1-2-.94l.84-1.59a6,6,0,0,0,1.78.84,7.35,7.35,0,0,0,2.12.31c1.77,0,2.65-.5,2.65-1.51a1,1,0,0,0-.36-.8,2.38,2.38,0,0,0-.89-.43q-.54-.13-1.53-.3a15.43,15.43,0,0,1-2.19-.48,3.42,3.42,0,0,1-1.46-.93,2.59,2.59,0,0,1-.61-1.83,2.86,2.86,0,0,1,1.26-2.42,5.64,5.64,0,0,1,3.38-.92,9.46,9.46,0,0,1,2.23.28,6,6,0,0,1,1.83.73l-.86,1.6a5.8,5.8,0,0,0-3.22-.88,3.72,3.72,0,0,0-1.95.42,1.26,1.26,0,0,0-.67,1.11,1,1,0,0,0,.38.86,2.26,2.26,0,0,0,.93.46c.37.1.89.21,1.56.34a17.08,17.08,0,0,1,2.18.49,3.29,3.29,0,0,1,1.42.9,2.48,2.48,0,0,1,.58,1.76,2.77,2.77,0,0,1-1.29,2.4,6.05,6.05,0,0,1-3.52.9A9.48,9.48,0,0,1,132.82,184.76Z"/><path class="cls-6" d="M152.79,180.11h-9a3.51,3.51,0,0,0,1.29,2.36,4.25,4.25,0,0,0,2.74.89A4.14,4.14,0,0,0,151,182l1.12,1.3a4.8,4.8,0,0,1-1.88,1.34,6.53,6.53,0,0,1-2.51.47,6.6,6.6,0,0,1-3.13-.73,5.2,5.2,0,0,1-2.11-2,5.8,5.8,0,0,1-.75-2.95,5.9,5.9,0,0,1,.73-2.91,5.18,5.18,0,0,1,2-2,5.75,5.75,0,0,1,2.87-.73,5.65,5.65,0,0,1,2.85.73,5.08,5.08,0,0,1,1.95,2,6.13,6.13,0,0,1,.7,3A5.25,5.25,0,0,1,152.79,180.11Zm-7.89-3.76a3.56,3.56,0,0,0-1.14,2.31h7.14a3.55,3.55,0,0,0-1.14-2.3,3.78,3.78,0,0,0-4.86,0Z"/><path class="cls-6" d="M172.24,183.17V185H161.57V170.3h10.37v1.83h-8.27v4.51H171v1.79h-7.37v4.74Z"/><path class="cls-6" d="M188.2,170.3,181.75,185h-2.08l-6.47-14.7h2.27l5.29,12.08,5.34-12.08Z"/><path class="cls-6" d="M193.25,178.88a3.85,3.85,0,0,1,.69-1.08,13.94,13.94,0,0,1,1.08-1.05,9.44,9.44,0,0,0,1.24-1.27,2.1,2.1,0,0,0,.4-1.3,2,2,0,0,0-.8-1.64,3.47,3.47,0,0,0-2.2-.62,4.47,4.47,0,0,0-3.76,1.66l-1.54-1.1a5.85,5.85,0,0,1,2.26-1.74,7.74,7.74,0,0,1,3.18-.61,6,6,0,0,1,3.64,1,3.23,3.23,0,0,1,1.34,2.74,3.82,3.82,0,0,1-.28,1.52,4,4,0,0,1-.69,1.11,13.71,13.71,0,0,1-1.07,1,9.25,9.25,0,0,0-1.27,1.37,2.5,2.5,0,0,0-.41,1.45H193A3.62,3.62,0,0,1,193.25,178.88Zm-.19,5.86a1.3,1.3,0,0,1-.39-1,1.28,1.28,0,0,1,.39-.95,1.31,1.31,0,0,1,1-.39,1.28,1.28,0,0,1,1,.39,1.36,1.36,0,0,1-1.94,1.91Z"/></g></g></g></svg>